<?xml version="1.0" encoding="utf-8"?>
<svg xmlns="http://www.w3.org/2000/svg">
    <symbol viewBox="0 0 22 22" id="icon-tablet-condensed-grid">
        <path fill-rule="evenodd" d="M5 16a1 1 0 011 1v4a1 1 0 01-1 1H1a1 1 0 01-1-1v-4a1 1 0 011-1zm8 0a1 1 0 011 1v4a1 1 0 01-1 1H9a1 1 0 01-1-1v-4a1 1 0 011-1zm8 0a1 1 0 011 1v4a1 1 0 01-1 1h-4a1 1 0 01-1-1v-4a1 1 0 011-1zM4 18H2v2h2v-2zm8 0h-2v2h2v-2zm8 0h-2v2h2v-2zM5 8a1 1 0 011 1v4a1 1 0 01-1 1H1a1 1 0 01-1-1V9a1 1 0 011-1zm8 0a1 1 0 011 1v4a1 1 0 01-1 1H9a1 1 0 01-1-1V9a1 1 0 011-1zm8 0a1 1 0 011 1v4a1 1 0 01-1 1h-4a1 1 0 01-1-1V9a1 1 0 011-1zM4 10H2v2h2v-2zm8 0h-2v2h2v-2zm8 0h-2v2h2v-2zM5 0a1 1 0 011 1v4a1 1 0 01-1 1H1a1 1 0 01-1-1V1a1 1 0 011-1zm8 0a1 1 0 011 1v4a1 1 0 01-1 1H9a1 1 0 01-1-1V1a1 1 0 011-1zm8 0a1 1 0 011 1v4a1 1 0 01-1 1h-4a1 1 0 01-1-1V1a1 1 0 011-1zM4 2H2v2h2V2zm8 0h-2v2h2V2zm8 0h-2v2h2V2z"></path>
    </symbol>
    <symbol viewBox="0 0 22 22" id="icon-tablet-condensed-grid-filled">
        <path fill-rule="evenodd" d="M5 16a1 1 0 011 1v4a1 1 0 01-1 1H1a1 1 0 01-1-1v-4a1 1 0 011-1zm8 0a1 1 0 011 1v4a1 1 0 01-1 1H9a1 1 0 01-1-1v-4a1 1 0 011-1zm8 0a1 1 0 011 1v4a1 1 0 01-1 1h-4a1 1 0 01-1-1v-4a1 1 0 011-1zM5 8a1 1 0 011 1v4a1 1 0 01-1 1H1a1 1 0 01-1-1V9a1 1 0 011-1zm8 0a1 1 0 011 1v4a1 1 0 01-1 1H9a1 1 0 01-1-1V9a1 1 0 011-1zm8 0a1 1 0 011 1v4a1 1 0 01-1 1h-4a1 1 0 01-1-1V9a1 1 0 011-1zM5 0a1 1 0 011 1v4a1 1 0 01-1 1H1a1 1 0 01-1-1V1a1 1 0 011-1zm8 0a1 1 0 011 1v4a1 1 0 01-1 1H9a1 1 0 01-1-1V1a1 1 0 011-1zm8 0a1 1 0 011 1v4a1 1 0 01-1 1h-4a1 1 0 01-1-1V1a1 1 0 011-1z"></path>
    </symbol>
    <symbol viewBox="0 0 22 22" id="icon-tablet-relaxed-grid">
        <path fill-rule="evenodd" d="M21 12a1 1 0 011 1v8a1 1 0 01-1 1h-8a1 1 0 01-1-1v-8a1 1 0 011-1zM9 12a1 1 0 011 1v8a1 1 0 01-1 1H1a1 1 0 01-1-1v-8a1 1 0 011-1zm11 2h-6v6h6v-6zM8 14H2v6h6v-6zM9 0a1 1 0 011 1v8a1 1 0 01-1 1H1a1 1 0 01-1-1V1a1 1 0 011-1zm12 0a1 1 0 011 1v8a1 1 0 01-1 1h-8a1 1 0 01-1-1V1a1 1 0 011-1zM8 2H2v6h6V2zm12 0h-6v6h6V2z"></path>
    </symbol>
    <symbol viewBox="0 0 22 22" id="icon-tablet-relaxed-grid-filled">
        <path fill-rule="evenodd" d="M21 12a1 1 0 011 1v8a1 1 0 01-1 1h-8a1 1 0 01-1-1v-8a1 1 0 011-1zM9 12a1 1 0 011 1v8a1 1 0 01-1 1H1a1 1 0 01-1-1v-8a1 1 0 011-1zM9 0a1 1 0 011 1v8a1 1 0 01-1 1H1a1 1 0 01-1-1V1a1 1 0 011-1zm12 0a1 1 0 011 1v8a1 1 0 01-1 1h-8a1 1 0 01-1-1V1a1 1 0 011-1z"></path>
    </symbol>
    <symbol viewBox="0 0 22 22" id="icon-tablet-vertical-split">
        <path fill-rule="evenodd" d="M9 16a1 1 0 011 1v4a1 1 0 01-1 1H1a1 1 0 01-1-1v-4a1 1 0 011-1zM21 0a1 1 0 011 1v20a1 1 0 01-1 1h-8a1 1 0 01-1-1V1a1 1 0 011-1zM8 18H2v2h6v-2zM20 2h-6v18h6V2zM9 8a1 1 0 011 1v4a1 1 0 01-1 1H1a1 1 0 01-1-1V9a1 1 0 011-1zm-1 2H2v2h6v-2zM9 0a1 1 0 011 1v4a1 1 0 01-1 1H1a1 1 0 01-1-1V1a1 1 0 011-1zM8 2H2v2h6V2z"></path>
    </symbol>
    <symbol viewBox="0 0 22 22" id="icon-tablet-vertical-split-filled">
        <path fill-rule="evenodd" d="M9 16a1 1 0 011 1v4a1 1 0 01-1 1H1a1 1 0 01-1-1v-4a1 1 0 011-1zM21 0a1 1 0 011 1v20a1 1 0 01-1 1h-8a1 1 0 01-1-1V1a1 1 0 011-1zM9 8a1 1 0 011 1v4a1 1 0 01-1 1H1a1 1 0 01-1-1V9a1 1 0 011-1zm0-8a1 1 0 011 1v4a1 1 0 01-1 1H1a1 1 0 01-1-1V1a1 1 0 011-1z"></path>
    </symbol>
    <symbol viewBox="0 0 15.75 14" id="icon-filter-gallery-small">
        <path fill-rule="evenodd" d="M6 8a1 1 0 011 1v4a1 1 0 01-1 1H1a1 1 0 01-1-1V9a1 1 0 011-1h5zm9 0a1 1 0 011 1v4a1 1 0 01-1 1h-5a1 1 0 01-1-1V9a1 1 0 011-1h5zM5 10H2v2h3v-2zm9 0h-3v2h3v-2zM6 0a1 1 0 011 1v4a1 1 0 01-1 1H1a1 1 0 01-1-1V1a1 1 0 011-1h5zm9 0a1 1 0 011 1v4a1 1 0 01-1 1h-5a1 1 0 01-1-1V1a1 1 0 011-1h5zM5 2H2v2h3V2zm9 0h-3v2h3V2z"></path>
    </symbol>
    <symbol viewBox="0 0 15.75 14" id="icon-filter-list-small">
        <path fill-rule="evenodd" d="M1 12a1 1 0 110 2 1 1 0 010-2zm14 0a1 1 0 010 2H4.5a1 1 0 010-2zM1 6a1 1 0 110 2 1 1 0 010-2zm14 0a1 1 0 010 2H4.5a1 1 0 110-2zM1 0a1 1 0 110 2 1 1 0 010-2zm14 0a1 1 0 010 2H4.5a1 1 0 110-2z"></path>
    </symbol>
    <symbol viewBox="0 0 16 14" id="icon-filter-single-small">
        <path fill-rule="evenodd" d="M15 12a1 1 0 010 2H1a1 1 0 010-2zm0-12a1 1 0 011 1v8a1 1 0 01-1 1H1a1 1 0 01-1-1V1a1 1 0 011-1zm-1 2H2v6h12V2z"></path>
    </symbol>
    <symbol viewBox="0 0 22 18" id="icon-filter-gallery">
        <path fill-rule="evenodd" d="M9 0H1a1 1 0 00-1 1v6a1 1 0 001 1h8a1 1 0 001-1V1a1 1 0 00-1-1zM8 6H2V2h6v4zm13-6h-8a1 1 0 00-1 1v6a1 1 0 001 1h8a1 1 0 001-1V1a1 1 0 00-1-1zm-1 6h-6V2h6v4zM1 10h8a1 1 0 011 1v6a1 1 0 01-1 1H1a1 1 0 01-1-1v-6a1 1 0 011-1zm1 6h6v-4H2v4zm19-6h-8a1 1 0 00-1 1v6a1 1 0 001 1h8a1 1 0 001-1v-6a1 1 0 00-1-1zm-1 6h-6v-4h6v4z"></path>
    </symbol>
    <symbol viewBox="0 0 22 18" id="icon-filter-list">
        <path fill-rule="evenodd" d="M2 1a1 1 0 11-2 0 1 1 0 012 0zm19 1H6a1 1 0 010-2h15a1 1 0 010 2zM1 10a1 1 0 100-2 1 1 0 000 2zm5-2h15a1 1 0 010 2H6a1 1 0 010-2zM1 18a1 1 0 100-2 1 1 0 000 2zm5-2h15a1 1 0 010 2H6a1 1 0 010-2z"></path>
    </symbol>
    <symbol viewBox="0 0 22 18" id="icon-filter-single">
        <path fill-rule="evenodd" d="M21 0H1a1 1 0 00-1 1v12a1 1 0 001 1h20a1 1 0 001-1V1a1 1 0 00-1-1zm-1 12H2V2h18v10zM1 16h20a1 1 0 010 2H1a1 1 0 010-2z"></path>
    </symbol>
    <symbol viewBox="0 0 22 18" id="icon-filter-single-selected">
        <path fill-rule="evenodd" d="M21 0H1a1 1 0 00-1 1v12a1 1 0 001 1h20a1 1 0 001-1V1a1 1 0 00-1-1zM1 16h20a1 1 0 010 2H1a1 1 0 010-2z"></path>
    </symbol>

</svg>