<?xml version="1.0" encoding="utf-8"?>
<svg xmlns="http://www.w3.org/2000/svg">
  <symbol viewBox="0 0 24 24" id="icon-photo-brightness">
    <path
      fill-rule="evenodd"
      d="M12 4a1 1 0 001-1V1a1 1 0 00-2 0v2a1 1 0 001 1zm0 16a1 1 0 00-1 1v2a1 1 0 002 0v-2a1 1 0 00-1-1zm9-9h2a1 1 0 010 2h-2a1 1 0 010-2zM4 12a1 1 0 00-1-1H1a1 1 0 000 2h2a1 1 0 001-1zm15.07-5.65a1 1 0 01-1.41-1.42L19.3 3.3a1 1 0 011.41 1.41l-1.64 1.64zM4.93 17.66l-1.64 1.63A1 1 0 104.7 20.7l1.64-1.64a1 1 0 00-1.41-1.41v.01zm12.782.052a1 1 0 011.358-.052l1.64 1.64a1 1 0 01-1.41 1.41l-1.64-1.64a1 1 0 01.052-1.358zM4.93 6.34a1 1 0 001.41-1.41L4.71 3.29a1.003 1.003 0 10-1.42 1.42l1.64 1.63zM12 6a6 6 0 100 12 6 6 0 000-12zm0 10a4 4 0 110-8 4 4 0 010 8z"
    />
  </symbol>
  <symbol viewBox="0 0 20 24" id="icon-photo-crop">
    <path
      fill-rule="evenodd"
      d="M19 15h-3V8a.997.997 0 00-1-1H6V3.414l1.293 1.293a1 1 0 001.414-1.414L5.708.294a1.003 1.003 0 00-1.416 0L1.293 3.293a1 1 0 001.414 1.414L4 3.414V7H1a1 1 0 000 2h3v7a.997.997 0 001 1h9v3.586l-1.293-1.293a1.001 1.001 0 00-1.41.004 1.001 1.001 0 00-.004 1.41l2.999 2.999c.391.39 1.025.39 1.416 0l2.999-2.999a1 1 0 00-1.414-1.414L16 20.586V17h3a1 1 0 000-2zm-5-6H6v6h8V9z"
    />
  </symbol>
  <symbol viewBox="0 0 24 24" id="icon-photo-gallery">
    <path d="M16.5 8a1.5 1.5 0 1 0 0-3 1.5 1.5 0 0 0 0 3Z" />
    <path
      fill-rule="evenodd"
      d="M8 1a3 3 0 0 0-3 3v12a3 3 0 0 0 3 3h12a3 3 0 0 0 3-3V4a3 3 0 0 0-3-3H8ZM7 16v-.638l3.984-4.781 3.235 4.044a1 1 0 0 0 1.488.082L18 12.414l3 3V16a1 1 0 0 1-1 1H8a1 1 0 0 1-1-1Zm11.707-5.707L21 12.586V4a1 1 0 0 0-1-1H8a1 1 0 0 0-1 1v8.238l3.232-3.878a1 1 0 0 1 1.549.015l3.302 4.128 2.21-2.21a1 1 0 0 1 1.414 0Z"
      clip-rule="evenodd"
    />
    <path
      d="M3 9a1 1 0 0 0-2 0v11a3 3 0 0 0 3 3h11a1 1 0 1 0 0-2H4a1 1 0 0 1-1-1V9Z"
    />
  </symbol>
  <symbol viewBox="0 0 24 24" id="icon-photo-gallery-more">
    <path
      d="M6 0a1 1 0 0 1 1 1v1h1a1 1 0 0 1 0 2H7v1a1 1 0 0 1-2 0V4H4a1 1 0 0 1 0-2h1V1a1 1 0 0 1 1-1Z"
    />
    <path
      fill-rule="evenodd"
      d="M5 9a1 1 0 1 1 2 0v4.238l3.232-3.878a1 1 0 0 1 1.549.015l3.302 4.128 2.21-2.21a1 1 0 0 1 1.414 0L21 13.586V5a1 1 0 0 0-1-1h-8a1 1 0 1 1 0-2h8a3 3 0 0 1 3 3v12a3 3 0 0 1-3 3H8a3 3 0 0 1-3-3V9Zm2 7.362V17a1 1 0 0 0 1 1h12a1 1 0 0 0 1-1v-.586l-3-3-2.293 2.293a1 1 0 0 1-1.488-.082l-3.235-4.044L7 16.362Z"
      clip-rule="evenodd"
    />
    <path
      d="M18 7.5a1.5 1.5 0 1 1-3 0 1.5 1.5 0 0 1 3 0ZM3 10a1 1 0 1 0-2 0v11a3 3 0 0 0 3 3h11a1 1 0 1 0 0-2H4a1 1 0 0 1-1-1V10Z"
    />
  </symbol>
  <symbol viewBox="0 0 24 21" id="icon-photo-rotate">
    <path
      fill-rule="evenodd"
      d="M16.7 1.69L15.39 3a9 9 0 11-7.14 15 1.016 1.016 0 111.5-1.37A7 7 0 1015.44 5l1.26 1.28a1 1 0 01-1.41 1.41l-3-3a1 1 0 010-1.41l3-3a1 1 0 011.41 1.41zm-4.99 6.6l-5-5a1 1 0 00-1.41 0l-5 5a1 1 0 000 1.41l5 5a1 1 0 001.41 0l5-5a1 1 0 000-1.41zM6 12.59L2.41 9 6 5.41 9.59 9 6 12.59z"
    />
  </symbol>
  <symbol viewBox="0 0 22 22" id="icon-photo-select-all">
    <path
      d="M1 2a1 1 0 100-2 1 1 0 000 2zm8 0a1 1 0 100-2 1 1 0 000 2zM5 4h12a1 1 0 011 1v12a1 1 0 01-1 1H5a1 1 0 01-1-1V5a1 1 0 011-1zm1 12h10V6H6v10zM6 1a1 1 0 11-2 0 1 1 0 012 0zm16 0a1 1 0 11-2 0 1 1 0 012 0zm-5 1a1 1 0 100-2 1 1 0 000 2zm-3-1a1 1 0 11-2 0 1 1 0 012 0zM9 22a1 1 0 100-2 1 1 0 000 2zm-3-1a1 1 0 11-2 0 1 1 0 012 0zm-5 1a1 1 0 100-2 1 1 0 000 2zm21-1a1 1 0 11-2 0 1 1 0 012 0zm-5 1a1 1 0 100-2 1 1 0 000 2zm-3-1a1 1 0 11-2 0 1 1 0 012 0zM1 10a1 1 0 100-2 1 1 0 000 2zm1-5a1 1 0 11-2 0 1 1 0 012 0zM1 18a1 1 0 100-2 1 1 0 000 2zm1-5a1 1 0 11-2 0 1 1 0 012 0zm19-3a1 1 0 100-2 1 1 0 000 2zm1-5a1 1 0 11-2 0 1 1 0 012 0zm-1 13a1 1 0 100-2 1 1 0 000 2zm1-5a1 1 0 11-2 0 1 1 0 012 0z"
    />
  </symbol>
  <symbol viewBox="0 0 23 23" id="icon-photo-select-none">
    <path
      d="M6 2a1 1 0 100-2 1 1 0 000 2zm4 0a1 1 0 100-2 1 1 0 000 2zm13-1a1 1 0 11-2 0 1 1 0 012 0zm-5 1a1 1 0 100-2 1 1 0 000 2zm-3-1a1 1 0 11-2 0 1 1 0 012 0zm-5 21a1 1 0 100-2 1 1 0 000 2zm-3-1a1 1 0 11-2 0 1 1 0 012 0zm-5 1a1 1 0 100-2 1 1 0 000 2zm13-1a1 1 0 11-2 0 1 1 0 012 0zM2 10a1 1 0 100-2 1 1 0 000 2zm1 7a1 1 0 11-2 0 1 1 0 012 0zm-1-3a1 1 0 100-2 1 1 0 000 2zm21-5a1 1 0 11-2 0 1 1 0 012 0zm-1-3a1 1 0 100-2 1 1 0 000 2zm1 11a1 1 0 11-2 0 1 1 0 012 0zm-1-3a1 1 0 100-2 1 1 0 000 2zM.3 1.299a1 1 0 011.407-.006l20 20a1 1 0 01-1.414 1.414l-1.363-1.362a.995.995 0 11-1.275-1.275L2.93 5.345A.995.995 0 111.655 4.07L.293 2.707a1 1 0 01.006-1.408z"
    />
  </symbol>
  <symbol viewBox="0 0 20 20" id="icon-photo-contrast">
    <path
      fill-rule="evenodd"
      d="M10 20c5.523 0 10-4.477 10-10S15.523 0 10 0 0 4.477 0 10s4.477 10 10 10zm8-10a8 8 0 01-8 8V2a8 8 0 018 8z"
    />
  </symbol>
  <symbol viewBox="0 0 16 22" id="icon-photo-flash">
    <path
      fill-rule="evenodd"
      d="M6 0h6a1 1 0 01.856 1.514L10.764 5H15a1 1 0 01.888 1.458l-.057.096-9.998 14.998c-.607.91-2.027.323-1.812-.751l1.76-8.802H1.001a1 1 0 01-.94-1.341l.046-.106L5.106.553A1 1 0 016 0zm2.142 5.484L10.232 2H6.618l-4 7.998H7a1 1 0 01.997 1.08l-.017.116-1.008 5.04L13.129 7h-4.13a1 1 0 01-.91-1.413l.053-.102z"
    />
  </symbol>
  <symbol viewBox="0 0 24 20" id="icon-photo-flip-camera">
    <path
      fill-rule="evenodd"
      d="M16 0a1 1 0 01.949.684L17.721 3H23a.999.999 0 011 1v15a1 1 0 01-1 1H1a1 1 0 01-1-1V4a.998.998 0 011-1h5.279L7.051.684A1 1 0 018 0zm-.721 2H8.721l-.772 2.316A1 1 0 017 5H2v13h20V5h-5a1 1 0 01-.949-.684L15.279 2zM10 10a1 1 0 110 2h-.829a3.002 3.002 0 004.805 1.258 1 1 0 111.318 1.504 5.003 5.003 0 01-4.587 1.069A4.993 4.993 0 018 14 1 1 0 016 14v-3a1 1 0 011-1h3zm2.135-4a4.99 4.99 0 013.877 1.843A1 1 0 0118 8v3a1 1 0 01-1 1h-3a1 1 0 110-2h.964a3.002 3.002 0 00-4.805-1.258 1 1 0 11-1.318-1.504A4.984 4.984 0 0112.135 6z"
    />
  </symbol>
  <symbol viewBox="0 0 21 20" id="icon-photo-sharpen">
    <path
      fill-rule="evenodd"
      d="M9.104.553a1 1 0 011.79 0l8.999 18A1 1 0 0118.998 20H1.002a1 1 0 01-.895-1.448zm.895 2.685L2.62 17.999h14.76L9.999 3.238z"
    />
  </symbol>
  <symbol viewBox="0 0 16 16" id="icon-photo-gallery-small">
    <path d="M11 5a1 1 0 1 0 0-2 1 1 0 0 0 0 2Z" />
    <path
      fill-rule="evenodd"
      d="M5.5 0A2.5 2.5 0 0 0 3 2.5v8A2.5 2.5 0 0 0 5.5 13h8a2.5 2.5 0 0 0 2.5-2.5v-8A2.5 2.5 0 0 0 13.5 0h-8ZM5 10.5v-.124L7.481 7.54l1.75 2.1a1 1 0 0 0 1.476.067L12 8.414l2 2v.086a.5.5 0 0 1-.5.5h-8a.5.5 0 0 1-.5-.5Zm7.707-4.207L14 7.586V2.5a.5.5 0 0 0-.5-.5h-8a.5.5 0 0 0-.5.5v4.839L6.747 5.34a1 1 0 0 1 1.521.019l1.8 2.159 1.225-1.226a1 1 0 0 1 1.414 0Z"
      clip-rule="evenodd"
    />
    <path
      d="M2 6a1 1 0 0 0-2 0v7.5A2.5 2.5 0 0 0 2.5 16H10a1 1 0 1 0 0-2H2.5a.5.5 0 0 1-.5-.5V6Z"
    />
  </symbol>
  <symbol viewBox="0 0 24 24" id="icon-photo-image">
    <path d="M16 7.5a1.5 1.5 0 1 1-3 0 1.5 1.5 0 0 1 3 0Z" />
    <path
      fill-rule="evenodd"
      d="M5.455 2A3.455 3.455 0 0 0 2 5.455v13.091A3.455 3.455 0 0 0 5.455 22h13.09A3.455 3.455 0 0 0 22 18.546V5.455A3.455 3.455 0 0 0 18.546 2H5.455ZM4 18.37v.175C4 19.35 4.651 20 5.455 20h13.09C19.35 20 20 19.349 20 18.546v-.132l-4-4-2.293 2.293a1 1 0 0 1-1.488-.082l-3.246-4.057L4 18.37Zm16-2.784V5.455C20 4.65 19.349 4 18.546 4H5.455C4.65 4 4 4.651 4 5.455v9.842l4.24-4.948a1 1 0 0 1 1.54.026l3.303 4.128 2.21-2.21a1 1 0 0 1 1.414 0L20 15.586Z"
      clip-rule="evenodd"
    />
  </symbol>
  <symbol viewBox="0 0 16 16" id="icon-photo-image-small">
    <path d="M10 6a1 1 0 1 0 0-2 1 1 0 0 0 0 2Z" />
    <path
      fill-rule="evenodd"
      d="M1 3.5A2.5 2.5 0 0 1 3.5 1h9A2.5 2.5 0 0 1 15 3.5v9a2.5 2.5 0 0 1-2.5 2.5h-9A2.5 2.5 0 0 1 1 12.5v-9Zm12 0v6.086l-1.293-1.293a1 1 0 0 0-1.414 0L9.108 9.478 6.8 6.4a1 1 0 0 0-1.58-.025L3 9.15V3.5a.5.5 0 0 1 .5-.5h9a.5.5 0 0 1 .5.5Zm-10 9v-.15l2.974-3.717L8.2 11.6a1 1 0 0 0 1.507.107L11 10.414l2 2v.086a.5.5 0 0 1-.5.5h-9a.5.5 0 0 1-.5-.5Z"
      clip-rule="evenodd"
    />
  </symbol>
</svg>
