<?xml version="1.0" encoding="utf-8"?>
<svg xmlns="http://www.w3.org/2000/svg">
    <symbol viewBox="0 0 24 24" id="icon-confirmation">
        <path d="M12 0C5.373 0 0 5.373 0 12s5.373 12 12 12 12-5.373 12-12c0-3.183-1.264-6.235-3.515-8.485A11.996 11.996 0 0012 0zm0 22C6.477 22 2 17.523 2 12S6.477 2 12 2s10 4.477 10 10-4.477 10-10 10zm-2-7.41l7.29-7.3h.01a1 1 0 011.41 1.41l-8 8a1 1 0 01-1.41 0l-4-4a1 1 0 011.41-1.41l3.29 3.3z"></path>
    </symbol>
    <symbol viewBox="0 0 24 24" id="icon-confirmation-filled">
        <path d="M0 12C0 5.373 5.373 0 12 0c3.183 0 6.235 1.264 8.485 3.515A11.996 11.996 0 0124 12c0 6.627-5.373 12-12 12S0 18.627 0 12zm10.71 4.71l8-8h-.01a1 1 0 00-1.41-1.41L10 14.59 6.71 11.3a1 1 0 00-1.41 1.41l4 4a1 1 0 001.41 0z"></path>
    </symbol>
    <symbol viewBox="0 0 24 24" id="icon-attention">
        <path d="M0 12C0 5.373 5.373 0 12 0c6.625.006 11.994 5.375 12 12 0 6.627-5.373 12-12 12S0 18.627 0 12zm2 0c0 5.523 4.477 10 10 10 5.52-.006 9.994-4.48 10-10 0-5.523-4.477-10-10-10S2 6.477 2 12zm10-6a1 1 0 011 1v6a1 1 0 01-2 0V7a1 1 0 011-1zm1 11a1 1 0 11-2 0 1 1 0 012 0z"></path>
    </symbol>
    <symbol viewBox="0 0 24 24" id="icon-attention-filled">
        <path fill-rule="evenodd" d="M12 0C5.373 0 0 5.373 0 12s5.373 12 12 12 12-5.373 12-12C23.994 5.375 18.625.006 12 0zm0 18a1 1 0 110-2 1 1 0 010 2zm1-5V7a1 1 0 00-2 0v6a1 1 0 002 0z" />
    </symbol>
    <symbol viewBox="0 0 24 24" id="icon-information">
        <path d="M0 12C0 5.373 5.373 0 12 0c6.625.006 11.994 5.375 12 12 0 6.627-5.373 12-12 12S0 18.627 0 12zm2 0c0 5.523 4.477 10 10 10 5.52-.006 9.994-4.48 10-10 0-5.523-4.477-10-10-10S2 6.477 2 12zm10-2a1 1 0 011 1v6a1 1 0 01-2 0v-6a1 1 0 011-1zm1-3a1 1 0 11-2 0 1 1 0 012 0z"></path>
    </symbol>
    <symbol viewBox="0 0 24 24" id="icon-information-filled">
        <path d="M12 0C5.373 0 0 5.373 0 12s5.373 12 12 12 12-5.373 12-12C23.994 5.375 18.625.006 12 0zm0 10a1 1 0 011 1v6a1 1 0 01-2 0v-6a1 1 0 011-1zm0-4a1 1 0 110 2 1 1 0 010-2z"></path>
    </symbol>
    <symbol viewBox="0 0 14 10" id="icon-tick">
        <path d="M5 10a.999.999 0 01-.71-.29l-4-4A1 1 0 011.7 4.3L5 7.59 12.29.3a1 1 0 011.41 1.41l-8 8A.999.999 0 015 10z"/>
    </symbol>


    <symbol viewBox="0 0 16 16" id="icon-confirmation-filled-small">
        <path d="M8 0a8 8 0 100 16A8 8 0 008 0zm3.71 6.71l-4 4a1 1 0 01-1.41 0l-2-2a1 1 0 011.41-1.42L7 8.59l3.29-3.29a1 1 0 011.41 1.41h.01z"></path>
    </symbol>
    <symbol viewBox="0 0 16 16" id="icon-confirmation-small">
        <path d="M8 0a8 8 0 110 16A8 8 0 018 0zm0 2a6 6 0 100 12A6 6 0 008 2zm2.29 3.3a1 1 0 011.41 1.41l-4 4a1 1 0 01-1.41 0l-2-2a1.004 1.004 0 011.42-1.42L7 8.59l3.29-3.3z"></path>
    </symbol>
    <symbol viewBox="0 0 16 16" id="icon-attention-filled-small">
        <path d="M8 0a8 8 0 100 16A8 8 0 008 0zm0 12a1 1 0 110-2 1 1 0 010 2zm1-4a1 1 0 11-2 0V5a1 1 0 112 0v3z"></path>
    </symbol>
    <symbol viewBox="0 0 16 16" id="icon-attention-small">
        <path d="M8 0a8 8 0 110 16A8 8 0 018 0zm0 2a6 6 0 100 12A6 6 0 008 2zm0 8a1 1 0 110 2 1 1 0 010-2zm0-6a1 1 0 011 1v3a1 1 0 11-2 0V5a1 1 0 011-1z"></path>
    </symbol>
    <symbol viewBox="0 0 16 16" id="icon-information-filled-small">
        <path d="M8 0a8 8 0 100 16A8 8 0 008 0zm1 11a1 1 0 01-2 0V8a1 1 0 112 0v3zM8 6a1 1 0 110-2 1 1 0 010 2z"></path>
    </symbol>
    <symbol viewBox="0 0 16 16" id="icon-information-small">
        <path d="M8 0a8 8 0 110 16A8 8 0 018 0zm0 2a6 6 0 100 12A6 6 0 008 2zm0 5a1 1 0 011 1v3a1 1 0 01-2 0V8a1 1 0 011-1zm0-3a1 1 0 110 2 1 1 0 010-2z"></path>
    </symbol>
    <symbol id="icon-tick-small" viewBox="0 0 12 9">
        <path fill-rule="evenodd" d="M11.714.29a1 1 0 00-1.41 0l-6.3 6.3-2.29-2.3a1.004 1.004 0 00-1.42 1.42l3 3a1 1 0 001.41 0l7-7a1 1 0 00.01-1.42z"></path>
    </symbol>

 </svg>