<?xml version="1.0" encoding="utf-8"?>
<svg xmlns="http://www.w3.org/2000/svg">
  <symbol viewBox="0 0 18 18" id="icon-close">
    <path
      d="M10.41 9l7.294-7.287A1.004 1.004 0 0016.285.294L9 7.59 1.715.294a1.002 1.002 0 10-1.42 1.42l7.296 7.285-7.295 7.286a1 1 0 000 1.42 1 1 0 001.419 0L9 10.407l7.285 7.296a1 1 0 001.42 0 1 1 0 000-1.419l-7.296-7.286z"
    />
  </symbol>

  <symbol viewBox="0 0 24 24" id="icon-customize">
    <path
      fill-rule="evenodd"
      d="M22 4h-7.17a3.001 3.001 0 0 0-5.66 0H2a1 1 0 0 0 0 2h7.17a3.001 3.001 0 0 0 5.66 0H22a1 1 0 1 0 0-2ZM12 6a1 1 0 1 0 0-2 1 1 0 0 0 0 2Zm10 5h-1.17a3.001 3.001 0 0 0-5.66 0H2a1 1 0 1 0 0 2h13.17a3.001 3.001 0 0 0 5.66 0H22a1 1 0 1 0 0-2Zm-4 2a1 1 0 1 0 0-2 1 1 0 0 0 0 2Zm4 5H8.83a3.001 3.001 0 0 0-5.66 0H2a1 1 0 1 0 0 2h1.17a3.001 3.001 0 0 0 5.66 0H22a1 1 0 1 0 0-2ZM6 20a1 1 0 1 0 0-2 1 1 0 0 0 0 2Z"
      clip-rule="evenodd"
    />
  </symbol>
  <symbol viewBox="0 0 22 22" id="icon-download">
    <path
      d="M11.7 17.71a1 1 0 01-1.41 0L3.3 10.7a1 1 0 011.41-1.41l5.29 5.3V1a1 1 0 112 0v13.59l5.29-5.29a1 1 0 011.41 1.41l-7 7zM0 21a1 1 0 011-1h20a1 1 0 010 2H1a1 1 0 01-1-1z"
    />
  </symbol>
  <symbol id="icon-window" viewBox="0 0 28 25">
    <path
      d="M.497 5.701h15.644c.274 0 .497.222.497.497v.718a.497.497 0 01-.497.497H.497A.497.497 0 010 6.916v-.718c0-.274.222-.497.497-.497zm1.215 0V23.94H0V5.701h1.712zm18.515 7.785v9.939a.552.552 0 01-.552.552h-.699a.552.552 0 01-.552-.552v-9.939c0-.305.247-.552.552-.552h.699c.305 0 .552.247.552.552zM0 22.302h20.209v1.712H0v-1.712zM25.767.161h1.914v16.583h-1.914V.161zm1.914-.147v1.914H11.098V.014h16.583zM26.322 0l1.353 1.353L13.398 15.63l-1.353-1.353L26.322 0z"
    />
  </symbol>
  <symbol id="icon-help" viewBox="0 0 24 24">
    <path
      d="M13 17a1 1 0 10-2 0 1 1 0 002 0zM9.928 9.371C10.152 8.814 10.911 8 12 8c.738 0 1.312.29 1.648.65.337.36.404.737.305 1.034-.117.352-.513.692-1.182 1.07-.096.055-.223.123-.355.194-.2.108-.413.223-.55.305-.133.08-.307.194-.457.339-.13.126-.409.435-.409.908V14a1 1 0 102 0v-1.093c.087-.05.173-.096.274-.149.128-.068.278-.147.482-.263.656-.371 1.712-1.031 2.094-2.179.376-1.126-.008-2.249-.74-3.032C14.375 6.498 13.261 6 12 6 9.89 6 8.515 7.52 8.072 8.629a1 1 0 001.856.742z"
    />
    <path
      d="M12 24c6.627 0 12-5.373 12-12S18.627 0 12 0 0 5.373 0 12s5.373 12 12 12zm0-2C6.477 22 2 17.523 2 12S6.477 2 12 2s10 4.477 10 10-4.477 10-10 10z"
    />
  </symbol>
  <symbol viewBox="0 0 24 24" id="icon-show-secret">
    <path
      fill-rule="evenodd"
      d="M12 17a5 5 0 1 0 0-10 5 5 0 0 0 0 10Zm0-2a3 3 0 1 0 0-6 3 3 0 0 0 0 6Z"
      clip-rule="evenodd"
    />
    <path
      fill-rule="evenodd"
      d="M1.083 12.399c.009.02.018.04.029.06.294.585 1.353 2.424 3.132 4.136C6.036 18.321 8.647 20 12 20c3.354 0 5.964-1.679 7.756-3.405 1.779-1.712 2.838-3.551 3.133-4.136l.029-.061a.995.995 0 0 0-.03-.857c-.294-.585-1.353-2.424-3.132-4.136C17.964 5.679 15.354 4 12 4 8.647 4 6.036 5.679 4.244 7.405c-1.778 1.712-2.838 3.551-3.132 4.136l-.029.06a.994.994 0 0 0 0 .798ZM3.141 12a15.309 15.309 0 0 0 2.49 3.155C7.214 16.679 9.354 18 12.001 18c2.646 0 4.785-1.321 6.368-2.845A15.306 15.306 0 0 0 20.86 12a15.306 15.306 0 0 0-2.49-3.155C16.786 7.321 14.647 6 12 6 9.354 6 7.214 7.321 5.631 8.845A15.308 15.308 0 0 0 3.141 12Z"
      clip-rule="evenodd"
    />
  </symbol>
  <symbol viewBox="0 0 24 24" id="icon-hide-secret">
    <path
      fill-rule="evenodd"
      d="M21.664 4.747a1 1 0 0 0-1.328-1.494L17.593 5.69C16.06 4.714 14.188 4 12 4 8.647 4 6.036 5.679 4.244 7.405c-1.778 1.712-2.838 3.551-3.132 4.136a1.005 1.005 0 0 0 0 .918c.294.585 1.353 2.424 3.132 4.136.17.164.347.327.532.489l-2.44 2.169a1 1 0 1 0 1.328 1.494l18-16ZM6.284 15.743l1.39-1.235a5 5 0 0 1 7.324-6.51l1.028-.915C14.856 6.43 13.511 6 12 6 9.354 6 7.214 7.321 5.631 8.845A15.308 15.308 0 0 0 3.141 12a15.31 15.31 0 0 0 2.49 3.155c.208.2.426.397.653.588Zm7.166-6.37a3 3 0 0 0-4.229 3.76l4.23-3.76Z"
      clip-rule="evenodd"
    />
    <path
      d="M12 20a9.986 9.986 0 0 1-4.085-.878l1.669-1.502c.75.24 1.557.38 2.416.38 2.647 0 4.786-1.321 6.37-2.845A15.306 15.306 0 0 0 20.86 12a15.399 15.399 0 0 0-2.036-2.696l1.487-1.338c1.445 1.536 2.315 3.054 2.578 3.575A1.015 1.015 0 0 1 23 12a.995.995 0 0 1-.111.459c-.295.585-1.354 2.424-3.133 4.136C17.964 18.321 15.354 20 12 20Z"
    />
    <path d="M12 17a4.996 4.996 0 0 1-1.48-.223l6.386-5.747A5 5 0 0 1 12 17Z" />
  </symbol>
  <symbol viewBox="0 0 20 22" id="icon-home">
    <path
      d="M.34 8.252l9-7.999a1 1 0 011.33 0l9 8a1 1 0 01.33.75V21A1 1 0 0119 22h-6a1 1 0 01-1-1v-6.999H8v7A1 1 0 017 22H1a1 1 0 01-1-1V9.002c0-.287.124-.56.34-.75zM18 17.001V9.452l-8-7.109-8 7.109V20h4v-6.999a1 1 0 011-1h6a1 1 0 011 1v7h4v-3z"
    />
  </symbol>
  <symbol viewBox="0 0 20 18" id="icon-menu">
    <path
      d="M1 2h18a1 1 0 000-2H1a1 1 0 000 2zm18 6H1a1 1 0 000 2h18a1 1 0 000-2zM1 16h18a1 1 0 010 2H1a1 1 0 010-2z"
    />
  </symbol>
  <symbol viewBox="0 0 22 24" id="icon-notification">
    <path
      d="M11 0a3 3 0 00-3 3v.59A8 8 0 003 11v3.72L.14 19.49A1 1 0 001 21h7a3 3 0 006 0h7a1 1 0 00.86-1.51L19 14.72V11a8 8 0 00-5-7.41V3a3 3 0 00-3-3zM2.77 19l2.09-3.49A1 1 0 005 15v-4a6 6 0 0112 0v4a1 1 0 00.14.51L19.23 19H2.77zM10 3a1 1 0 112 0v.07a7.23 7.23 0 00-2 0V3zm0 18a1 1 0 102 0h-2z"
    />
  </symbol>
  <symbol viewBox="0 0 4 18" id="icon-overflow">
    <path
      d="M2 4A2 2 0 102.001.001 2 2 0 002 4zm0 7a2 2 0 10.001-3.999A2 2 0 002 11zm2 5a2 2 0 11-3.999.001A2 2 0 014 16z"
    />
  </symbol>
  <symbol viewBox="0 0 18 18" id="icon-refresh">
    <path
      d="M17 7.987a1 1 0 00-1 .998 6.993 6.993 0 01-5.607 6.858 7.001 7.001 0 01-7.841-4.132A6.98 6.98 0 015.058 3.22a7.008 7.008 0 018.832.773H12a1 1 0 100 1.997h4.06a.999.999 0 00.94-.998V.998a1 1 0 00-2 0v1.318a9.012 9.012 0 00-11.313-.555A8.977 8.977 0 00.79 12.694a9.004 9.004 0 0010.108 5.103A8.99 8.99 0 0018 8.985a1 1 0 00-1-.998z"
    />
  </symbol>
  <symbol viewBox="0 0 24 24" id="icon-save">
    <path
      fill-rule="evenodd"
      d="M12 5.467c-.76-.817-1.488-1.395-2.213-1.785C8.798 3.15 7.877 3 7 3 3.153 3 1 6.079 1 9.21c0 2.193 1.262 3.873 2.27 4.948l8 8.526a.996.996 0 0 0 1.46 0l3.998-4.261v-.001l4.001-4.264C21.738 13.083 23 11.403 23 9.21 23 6.079 20.847 3 17 3c-.878 0-1.798.15-2.787.682-.725.39-1.452.968-2.213 1.785Zm-.792 2.144c-.943-1.177-1.716-1.816-2.37-2.168C8.202 5.1 7.622 5 7 5 4.484 5 3 6.942 3 9.21c0 1.408.816 2.606 1.73 3.58L12 20.538l7.27-7.75c.914-.973 1.73-2.171 1.73-3.578C21 6.942 19.516 5 17 5c-.622 0-1.201.1-1.838.443-.654.352-1.427.991-2.37 2.168a1.015 1.015 0 0 1-.381.301 1.002 1.002 0 0 1-1.203-.301Z"
      clip-rule="evenodd"
    />
  </symbol>
  <symbol viewBox="0 0 16 14" id="icon-save-bold">
    <path
      fill-rule="evenodd"
      d="M4.291 0a4.294 4.294 0 00-3.053 7.308l6.035 6.38a1.006 1.006 0 001.454 0l6.015-6.361a4.288 4.288 0 000-6.07A4.382 4.382 0 0011.671 0h-.012c-1.13 0-2.211.457-2.998 1.267A6.745 6.745 0 008 2.084a6.746 6.746 0 00-.661-.817A4.179 4.179 0 004.341 0h-.05zm-.002 2h.052c.586 0 1.156.241 1.544.64.17.18.328.376.469.58l.823 1.194a1 1 0 001.646 0l.823-1.194c.141-.204.299-.4.449-.559a2.2 2.2 0 011.576-.66c.629 0 1.222.241 1.657.67.434.433.672 1.009.672 1.62a2.27 2.27 0 01-.672 1.62l-.019.022-.02.02L8 11.545 2.661 5.902a2.281 2.281 0 01-.478-2.506A2.284 2.284 0 014.289 2z"
    />
  </symbol>
  <symbol viewBox="0 0 24 24" id="icon-save-selected">
    <path
      d="M7 3C3.153 3 1 6.079 1 9.21c0 2.193 1.262 3.873 2.27 4.948l8 8.526a1 1 0 0 0 1.46 0l8-8.526C21.737 13.083 23 11.403 23 9.21 23 6.079 20.847 3 17 3c-.878 0-1.798.15-2.787.682-.725.39-1.452.968-2.213 1.785-.76-.817-1.488-1.395-2.213-1.785C8.798 3.15 7.877 3 7 3Z"
    />
  </symbol>
  <symbol viewBox="0 0 22 22" id="icon-search">
    <path
      d="M2 9a7 7 0 1114 0A7 7 0 012 9m19.703 11.29l-5.67-5.67-.008-.003A8.954 8.954 0 0018 9a9 9 0 00-9-9 9 9 0 00-9 9 9 9 0 009 9 8.958 8.958 0 005.66-2.007l5.663 5.717c.19.187.445.292.71.29a1 1 0 00.67-1.71"
    />
  </symbol>
  <symbol id="icon-search-bold" viewBox="1.2 1.2 21.6 21.6">
    <path
      d="M21.537 22.802h-.054a1.281 1.281 0 01-.822-.356l-7.239-6.825.984-.906a6.295 6.295 0 002.045-4.381 6.294 6.294 0 00-1.664-4.572 6.349 6.349 0 00-4.422-2.066 6.36 6.36 0 00-6.664 6.063 6.3 6.3 0 001.666 4.574 6.349 6.349 0 005.93 1.945 5.58 5.58 0 00.666-.174 1.27 1.27 0 01.44-.06 1.26 1.26 0 011.132.855 1.249 1.249 0 01-.8 1.572 9.053 9.053 0 01-1.08.278l-.183.027a8.834 8.834 0 01-7.945-2.766 8.76 8.76 0 01-2.318-6.363C1.431 4.775 5.6.974 10.478 1.21a8.834 8.834 0 016.151 2.872 8.762 8.762 0 012.316 6.363 8.714 8.714 0 01-1.935 5.127l5.51 5.189a1.248 1.248 0 01-.077 1.662 1.264 1.264 0 01-.906.378"
    />
  </symbol>

  <symbol viewBox="0 0 24 24" id="icon-settings">
    <path
      fill-rule="evenodd"
      d="M9.763 0h4.473c.423 0 .797.276.93.687l.695 2.132c.267.116.528.245.782.384l2.061-.773a.969.969 0 01.338-.062c.292 0 .577.135.767.379l2.788 3.579c.264.337.287.809.057 1.173l-1.202 1.895c.076.28.14.563.193.851l1.884 1.173c.36.224.54.66.447 1.08l-.995 4.464a.989.989 0 01-.862.777l-2.197.22a10.13 10.13 0 01-.531.681l.28 2.242a1.01 1.01 0 01-.548 1.032l-4.028 1.987a.96.96 0 01-1.13-.205l-1.54-1.624c-.059.002-.116.006-.174.01a3.658 3.658 0 01-.25.011c-.086 0-.17-.006-.252-.011-.058-.004-.115-.008-.172-.01l-1.54 1.625a.97.97 0 01-1.13.205l-4.03-1.987c-.38-.187-.6-.602-.547-1.031l.28-2.243a10.112 10.112 0 01-.531-.68l-2.199-.22a.991.991 0 01-.86-.777l-.995-4.462A1.013 1.013 0 01.47 11.42l1.885-1.173c.05-.29.117-.572.191-.852L1.344 7.5a1.023 1.023 0 01.057-1.173l2.789-3.58a.97.97 0 011.104-.317l2.06.773c.256-.14.518-.268.785-.385L8.833.687A.982.982 0 019.763 0zm4.256 3.462L13.544 2h-3.088l-.474 1.462c-.18.55-.58.996-1.1 1.225-.217.096-.43.201-.632.312a1.948 1.948 0 01-1.621.119l-1.41-.53-1.925 2.474.824 1.305c.308.485.398 1.083.25 1.642a7.988 7.988 0 00-.156.69 2.033 2.033 0 01-.92 1.372L2 12.876l.686 3.088 1.51.15a1.967 1.967 0 011.408.825c.143.2.284.382.427.552.373.437.544 1.017.473 1.592l-.191 1.542L9.094 22l1.058-1.12a1.956 1.956 0 011.422-.615h.854c.534 0 1.047.22 1.422.615L14.908 22l2.782-1.375-.192-1.542c-.072-.575.099-1.154.471-1.592.145-.17.285-.351.428-.552a1.969 1.969 0 011.408-.824l1.51-.153.685-3.087-1.292-.804a2.035 2.035 0 01-.92-1.373 8.353 8.353 0 00-.154-.689 2.07 2.07 0 01.248-1.643l.824-1.304-1.925-2.475-1.41.53a1.931 1.931 0 01-1.622-.118 7.802 7.802 0 00-.631-.31 2.014 2.014 0 01-1.099-1.226zM7 12a5 5 0 015-5 5 5 0 015 5 5 5 0 01-5 5 5 5 0 01-5-5zm8 0c0-1.654-1.346-3-3-3s-3 1.346-3 3 1.346 3 3 3 3-1.346 3-3z"
    />
  </symbol>

  <symbol viewBox="0 0 24 24" id="icon-share">
    <path
      d="M13 15V4.414l1.293 1.293a1 1 0 1 0 1.414-1.414l-3-3a1 1 0 0 0-1.414 0l-3 3a1 1 0 0 0 1.414 1.414L11 4.414V15a1 1 0 1 0 2 0Z"
    />
    <path
      d="M4 8a1 1 0 0 0-1 1v12a1 1 0 0 0 1 1h16a1 1 0 0 0 1-1V9a1 1 0 0 0-1-1h-4a1 1 0 1 0 0 2h3v10H5V10h3a1 1 0 1 0 0-2H4Z"
    />
  </symbol>

  <symbol viewBox="0 0 22 18" id="icon-messages">
    <path
      d="M21 0H1a.999.999 0 00-1 1v16a.999.999 0 001 1h20a.999.999 0 001-1V1a1 1 0 00-1-1zm-1 2v14H2V2h18zm-9 10c-.265 0-.52-.106-.707-.293l-6-6a1 1 0 011.414-1.414L11 9.586l5.293-5.293a.999.999 0 111.414 1.414l-6 6A1.002 1.002 0 0111 12z"
    />
  </symbol>

  <symbol viewBox="0 0 24 19" id="icon-send">
    <path
      d="M1 0a1.002 1.002 0 00-.707 1.707L7.04 8.455l.965 9.645a1 1 0 001.767.536l14-17A1 1 0 0023 0H1zm7.212 6.798L3.414 2h17.467L9.756 15.509l-.69-6.903 6.857-3.2a1 1 0 10-.846-1.812L8.212 6.798z"
    />
  </symbol>

  <symbol viewBox="0 0 14 14" id="icon-close-small">
    <path
      d="M8.47 6.977l5.29-5.27a.993.993 0 00-.053-1.352c-.37-.368-.96-.39-1.357-.052l-5.29 5.27L1.77.293a1.007 1.007 0 00-1.42 0 .998.998 0 000 1.415l5.3 5.27-5.3 5.27a.994.994 0 00.416 1.724c.365.088.75-.036.994-.32l5.3-5.27 5.29 5.27c.396.338.988.315 1.357-.052a.993.993 0 00.053-1.353l-5.29-5.27z"
    />
  </symbol>
  <symbol id="icon-help-small" viewBox="0 0 16 16">
    <path
      d="M5.31 5.665c.301-.801 1.233-1.915 2.691-1.915.86 0 1.625.363 2.132.94.505.577.78 1.414.514 2.262a1.561 1.561 0 01-.696.893c-.138.086-.28.152-.403.21l-.027.012a3.09 3.09 0 00-.293.147c-.13.079-.227.133-.307.179l-.045.025v.252a.691.691 0 01-.29.593c-.172.12-.387.157-.585.157-.198 0-.413-.037-.585-.157a.691.691 0 01-.29-.593v-.667c0-.412.228-.678.326-.78l.685-.471c.083-.048.16-.092.217-.127l.22-.129.046-.026c.073-.042.12-.07.154-.095a.23.23 0 00.054-.05.238.238 0 00.032-.071.615.615 0 00-.025-.332c-.163-.181-.45-.339-.834-.339-.207.03-.709.22-1.061.752-.174.465-.683.711-1.145.514-.453-.193-.656-.727-.484-1.184zM9 11a1 1 0 10-2 0 1 1 0 002 0z"
    />
    <path d="M16 8A8 8 0 110 8a8 8 0 0116 0zm-2 0A6 6 0 102 8a6 6 0 0012 0z" />
  </symbol>
  <symbol viewBox="0 0 3 13" id="icon-overflow-small">
    <path
      d="M1.5 10a1.5 1.5 0 110 3 1.5 1.5 0 010-3zm0-5a1.5 1.5 0 110 3 1.5 1.5 0 010-3zm0-5a1.5 1.5 0 110 3 1.5 1.5 0 010-3z"
    />
  </symbol>
  <symbol viewBox="0 0 16 16" id="icon-save-selected-small">
    <path
      d="M6.552 2.483c.48.244.96.588 1.448 1.053.489-.465.968-.81 1.448-1.053A4.409 4.409 0 0 1 11.5 2c1.55 0 2.709.634 3.461 1.554C15.688 4.443 16 5.55 16 6.5c0 .918-.348 1.711-.704 2.292a7.23 7.23 0 0 1-.978 1.237c-4.201 4.335-4.913 5.014-5.628 5.695l-.01.01a.997.997 0 0 1-1.36 0l-.01-.01c-.715-.681-1.426-1.36-5.628-5.695a7.227 7.227 0 0 1-.978-1.237C.348 8.212 0 7.418 0 6.5c0-.95.311-2.057 1.039-2.946C1.79 2.634 2.95 2 4.5 2c.625 0 1.311.107 2.052.483Z"
    />
  </symbol>
  <symbol viewBox="0 0 16 16" id="icon-save-small">
    <path
      fill-rule="evenodd"
      d="M8 3.536a6.136 6.136 0 0 0-1.448-1.053A4.409 4.409 0 0 0 4.5 2c-1.55 0-2.709.634-3.461 1.554C.31 4.443 0 5.55 0 6.5c0 .918.348 1.711.704 2.292.36.586.77 1.023.978 1.237 4.193 4.327 4.91 5.011 5.624 5.691a.996.996 0 0 0 1.388 0c.714-.68 1.43-1.364 5.624-5.69a7.23 7.23 0 0 0 .978-1.238c.356-.58.704-1.374.704-2.292 0-.95-.312-2.057-1.039-2.946C14.21 2.634 13.05 2 11.5 2c-.625 0-1.311.107-2.052.483-.48.244-.96.588-1.448 1.053Zm-.778 2.093c-.635-.753-1.155-1.15-1.574-1.362A2.412 2.412 0 0 0 4.5 4c-.95 0-1.541.366-1.914.82A2.73 2.73 0 0 0 2 6.5c0 .415.161.842.409 1.246.245.398.535.711.71.891 2.97 3.065 4.183 4.289 4.881 4.974.698-.685 1.912-1.91 4.882-4.974.174-.18.464-.493.71-.891.247-.404.408-.83.408-1.246a2.73 2.73 0 0 0-.586-1.68C13.04 4.367 12.45 4 11.5 4c-.375 0-.739.06-1.148.267-.42.213-.94.609-1.574 1.362a.998.998 0 0 1-1.208.274.994.994 0 0 1-.348-.274Z"
      clip-rule="evenodd"
    />
  </symbol>
  <symbol viewBox="0 0 14 14" id="icon-search-small">
    <path
      d="M2 5.5a3.5 3.5 0 117 0 3.5 3.5 0 01-7 0m11.76 6.85l-.021-.01-3.71-3.681-.025-.008A5.465 5.465 0 0011 5.5 5.5 5.5 0 105.5 11a5.47 5.47 0 003.118-.972l3.732 3.732a1 1 0 001.41-1.41"
    />
  </symbol>
  <symbol viewBox="0 0 16 16" id="icon-settings-small">
    <path
      fill-rule="evenodd"
      d="M10.799.652A1 1 0 0 0 9.86 0H6.14c-.42 0-.793.26-.94.652l-.412 1.11-.316.184-.274.157-1.17-.199a1.001 1.001 0 0 0-1.034.486l-.921 1.594-.01.015-.93 1.61A1 1 0 0 0 .23 6.747l.755.911.002.398-.001.283-.757.913a1 1 0 0 0-.096 1.138l.93 1.61.007.01.924 1.6c.21.362.622.556 1.034.486l1.17-.198.268.152.322.188.412 1.11c.146.392.52.652.939.652h3.72c.419 0 .793-.26.939-.652l.412-1.11.321-.187.27-.153 1.169.198c.412.07.825-.124 1.034-.486l.922-1.596.008-.013.93-1.61a1 1 0 0 0-.096-1.138l-.755-.911-.002-.399.001-.282.757-.913a1 1 0 0 0 .096-1.138L14.936 4l-.005-.008-.926-1.602a1.001 1.001 0 0 0-1.034-.486l-1.17.199-.27-.154-.32-.187L10.8.652ZM5.468 12.318l.628.359a1 1 0 0 1 .441.52l.299.803h2.328l.299-.803a1 1 0 0 1 .442-.52l.626-.358.57-.333c.204-.118.441-.16.673-.122l.845.144.582-1.008.008-.013.575-.994-.548-.66a1 1 0 0 1-.23-.642l.004-.748-.003-.633a1 1 0 0 1 .23-.643l.547-.66-.578-.998-.005-.01-.582-1.007-.845.144a1.003 1.003 0 0 1-.672-.122l-.572-.333-.626-.358a1 1 0 0 1-.441-.52L9.164 2H6.836l-.299.803a1 1 0 0 1-.441.52l-.621.355-.577.336c-.203.118-.44.161-.672.122l-.845-.143L2.799 5l-.01.015-.572.992.547.66a1 1 0 0 1 .23.642l-.004.747.003.634a1 1 0 0 1-.23.643l-.547.66.576.996L2.8 11l.582 1.008.845-.144c.232-.039.47.004.672.122l.57.332Z"
      clip-rule="evenodd"
    />
    <path
      fill-rule="evenodd"
      d="M8 9a1 1 0 1 0 .001-2.001A1 1 0 0 0 8 9Zm0 2a3.002 3.002 0 0 0 3.003-3c0-1.657-1.344-3-3.003-3a3.002 3.002 0 0 0-3.003 3c0 1.657 1.344 3 3.003 3Z"
      clip-rule="evenodd"
    />
  </symbol>
  <symbol viewBox="0 0 16 16" id="icon-share-small">
    <path
      d="M7.293.293a1 1 0 0 1 1.414 0l2 2a1 1 0 0 1-1.414 1.414L9 3.414V10a1 1 0 1 1-2 0V3.414l-.293.293a1 1 0 0 1-1.414-1.414l2-2Z"
    />
    <path
      d="M3 6a1 1 0 0 0-1 1v7a1 1 0 0 0 1 1h10a1 1 0 0 0 1-1V7a1 1 0 0 0-1-1h-2a1 1 0 1 0 0 2h1v5H4V8h1a1 1 0 0 0 0-2H3Z"
    />
  </symbol>
  <symbol viewBox="0 0 16 16" id="icon-customize-small">
    <path
      fill-rule="evenodd"
      d="M14 3h-2.17a3.001 3.001 0 0 0-5.66 0H2a1 1 0 0 0 0 2h4.17a3.001 3.001 0 0 0 5.66 0H14a1 1 0 1 0 0-2ZM9 5a1 1 0 1 0 0-2 1 1 0 0 0 0 2Zm-7 6h1.17a3.001 3.001 0 0 1 5.66 0H14a1 1 0 1 1 0 2H8.83a3.001 3.001 0 0 1-5.66 0H2a1 1 0 1 1 0-2Zm4 2a1 1 0 1 1 0-2 1 1 0 0 1 0 2Z"
      clip-rule="evenodd"
    />
  </symbol>
  <symbol viewBox="0 0 16 16" id="icon-hide-secret-small">
    <g clip-path="url(#clip0_49827_77208)">
      <path
        fill-rule="evenodd"
        d="M14.646 2.763a1 1 0 1 0-1.292-1.526L11.45 2.849A7.408 7.408 0 0 0 8 2C5.557 2 3.696 3.169 2.417 4.406A12.134 12.134 0 0 0 .083 7.601a.994.994 0 0 0 .028.857c.236.47.805 1.49 1.724 2.526l-1.48 1.253a1 1 0 0 0 1.291 1.526l13-11ZM3.362 9.692l1.652-1.399a3 3 0 0 1 3.77-3.19l.962-.813A5.364 5.364 0 0 0 8 4c-1.757 0-3.146.831-4.192 1.844A10.14 10.14 0 0 0 2.138 8a10.4 10.4 0 0 0 1.224 1.692Z"
        clip-rule="evenodd"
      />
      <path
        d="m4.316 13.023 1.67-1.412A5.376 5.376 0 0 0 8 12c1.757 0 3.146-.831 4.192-1.844.79-.765 1.349-1.6 1.671-2.156a10.31 10.31 0 0 0-1.394-1.876l1.529-1.293a12.22 12.22 0 0 1 1.92 2.772.995.995 0 0 1-.029.855 12.108 12.108 0 0 1-2.306 3.136C12.304 12.83 10.443 14 8 14a7.441 7.441 0 0 1-3.684-.977Z"
      />
      <path d="M11 8c0-.2-.02-.396-.057-.585l-4.007 3.39A3 3 0 0 0 11 8Z" />
    </g>
    <defs>
      <clipPath id="clip0_49827_77208"><path d="M0 0h16v16H0z" /></clipPath>
    </defs>
  </symbol>
  <symbol viewBox="0 0 24 24" id="icon-search-active">
    <path
      fill-rule="evenodd"
      d="M15.215 17.336a9 9 0 1 1 2.121-2.121l5.725 5.724a1.5 1.5 0 0 1-2.122 2.122l-5.724-5.725ZM16 10a6 6 0 1 1-12 0 6 6 0 0 1 12 0Z"
      clip-rule="evenodd"
    />
  </symbol>
  <symbol viewBox="0 0 16 16" id="icon-show-secret-small">
    <g clip-path="url(#clip0_49827_77203)">
      <path d="M11 8a3 3 0 1 1-6 0 3 3 0 0 1 6 0Z" />
      <path
        fill-rule="evenodd"
        d="m.083 8.399.028.06c.283.562 1.041 1.91 2.306 3.135C3.697 12.83 5.557 14 8 14s4.304-1.169 5.583-2.406a12.135 12.135 0 0 0 2.335-3.197.995.995 0 0 0-.029-.855 12.135 12.135 0 0 0-2.306-3.136C12.304 3.17 10.443 2 8 2S3.696 3.169 2.417 4.406A12.134 12.134 0 0 0 .083 7.601a.994.994 0 0 0 0 .798ZM2.137 8c.323.556.88 1.391 1.671 2.156C4.854 11.17 6.243 12 8 12c1.757 0 3.146-.831 4.192-1.844.79-.765 1.349-1.6 1.671-2.156a10.139 10.139 0 0 0-1.67-2.156C11.145 4.83 9.756 4 8 4c-1.757 0-3.146.831-4.192 1.844A10.14 10.14 0 0 0 2.138 8Z"
        clip-rule="evenodd"
      />
    </g>
    <defs>
      <clipPath id="clip0_49827_77203"><path d="M0 0h16v16H0z" /></clipPath>
    </defs>
  </symbol>
  <symbol viewBox="0 0 24 24" id="icon-zoom-in">
    <path
      fill-rule="evenodd"
      d="M10 17a7 7 0 1 0 0-14 7 7 0 0 0 0 14Zm0 2a8.962 8.962 0 0 0 5.618-1.968l5.675 5.675a1 1 0 0 0 1.414-1.414l-5.675-5.675A9 9 0 1 0 10 19Zm1-12a1 1 0 1 0-2 0v2H7a1 1 0 0 0 0 2h2v2a1 1 0 1 0 2 0v-2h2a1 1 0 1 0 0-2h-2V7Z"
      clip-rule="evenodd"
    />
  </symbol>
  <symbol viewBox="0 0 24 24" id="icon-zoom-out">
    <path
      fill-rule="evenodd"
      d="M10 17a7 7 0 1 0 0-14 7 7 0 0 0 0 14Zm0 2a8.962 8.962 0 0 0 5.618-1.968l5.675 5.675a1 1 0 0 0 1.414-1.414l-5.675-5.675A9 9 0 1 0 10 19ZM7 9a1 1 0 1 0 0 2h6a1 1 0 1 0 0-2H7Z"
      clip-rule="evenodd"
    />
  </symbol>
</svg>
