<?xml version="1.0" encoding="utf-8"?>
<svg xmlns="http://www.w3.org/2000/svg">
    <symbol viewBox="0 0 24 24" id="icon-photo-brightness">
        <path fill-rule="evenodd" d="M12 4a1 1 0 001-1V1a1 1 0 00-2 0v2a1 1 0 001 1zm0 16a1 1 0 00-1 1v2a1 1 0 002 0v-2a1 1 0 00-1-1zm9-9h2a1 1 0 010 2h-2a1 1 0 010-2zM4 12a1 1 0 00-1-1H1a1 1 0 000 2h2a1 1 0 001-1zm15.07-5.65a1 1 0 01-1.41-1.42L19.3 3.3a1 1 0 011.41 1.41l-1.64 1.64zM4.93 17.66l-1.64 1.63A1 1 0 104.7 20.7l1.64-1.64a1 1 0 00-1.41-1.41v.01zm12.782.052a1 1 0 011.358-.052l1.64 1.64a1 1 0 01-1.41 1.41l-1.64-1.64a1 1 0 01.052-1.358zM4.93 6.34a1 1 0 001.41-1.41L4.71 3.29a1.003 1.003 0 10-1.42 1.42l1.64 1.63zM12 6a6 6 0 100 12 6 6 0 000-12zm0 10a4 4 0 110-8 4 4 0 010 8z"></path>
    </symbol>
    <symbol viewBox="0 0 20 24" id="icon-photo-crop">
        <path fill-rule="evenodd" d="M19 15h-3V8a.997.997 0 00-1-1H6V3.414l1.293 1.293a1 1 0 001.414-1.414L5.708.294a1.003 1.003 0 00-1.416 0L1.293 3.293a1 1 0 001.414 1.414L4 3.414V7H1a1 1 0 000 2h3v7a.997.997 0 001 1h9v3.586l-1.293-1.293a1.001 1.001 0 00-1.41.004 1.001 1.001 0 00-.004 1.41l2.999 2.999c.391.39 1.025.39 1.416 0l2.999-2.999a1 1 0 00-1.414-1.414L16 20.586V17h3a1 1 0 000-2zm-5-6H6v6h8V9z"></path>
    </symbol>
    <symbol viewBox="0 0 22 22" id="icon-photo-gallery">
        <path fill-rule="evenodd" d="M21 18H5a1 1 0 01-1-1v-2.943a1.084 1.084 0 010-.114V1a1 1 0 011-1h16a1 1 0 011 1v16a1 1 0 01-1 1zM6 11.236V2h14v9.61L17.69 9.3a1 1 0 00-1.41 0l-2.21 2.21-3.3-4.13A.998.998 0 0010 7a1.1 1.1 0 00-.77.36L6 11.236zm0 3.13L9.99 9.62l3.23 4a1.001 1.001 0 001.49.08L17 11.41l3 3.018V16H6v-1.634zM1 22h11a1 1 0 000-2H2V10a1 1 0 00-2 0v11a1 1 0 001 1zM15.5 7a1.5 1.5 0 10-.001-3.001A1.5 1.5 0 0015.5 7z"></path>
    </symbol>
    <symbol viewBox="0 0 22 24" id="icon-photo-gallery-more">
        <path fill-rule="evenodd" d="M4 4H3a1 1 0 010-2h1V1a1 1 0 012 0v1h1a1 1 0 010 2H6v1a1 1 0 01-2 0V4zm17-2H11a1 1 0 000 2h9v9.59l-2.29-2.29a1 1 0 00-1.41 0l-2.22 2.2-3.3-4.13A1 1 0 0010 9a1.152 1.152 0 00-.78.36L6 13.24V9a1 1 0 00-2 0v10a1 1 0 001 1h16a1 1 0 001-1V3a1 1 0 00-1-1zM6 18v-1.64l4-4.78 3.23 4a1.001 1.001 0 001.49.08L17 13.41l3 3V18H6zm-4 4h10a1 1 0 010 2H1a1 1 0 01-1-1V12a1 1 0 012 0v10zM15.5 9a1.5 1.5 0 10-.001-3.001A1.5 1.5 0 0015.5 9z"></path>
    </symbol>
    <symbol viewBox="0 0 24 21" id="icon-photo-rotate">
        <path fill-rule="evenodd" d="M16.7 1.69L15.39 3a9 9 0 11-7.14 15 1.016 1.016 0 111.5-1.37A7 7 0 1015.44 5l1.26 1.28a1 1 0 01-1.41 1.41l-3-3a1 1 0 010-1.41l3-3a1 1 0 011.41 1.41zm-4.99 6.6l-5-5a1 1 0 00-1.41 0l-5 5a1 1 0 000 1.41l5 5a1 1 0 001.41 0l5-5a1 1 0 000-1.41zM6 12.59L2.41 9 6 5.41 9.59 9 6 12.59z"></path>
    </symbol>
    <symbol viewBox="0 0 22 22" id="icon-photo-select-all">
        <path d="M1 2a1 1 0 100-2 1 1 0 000 2zm8 0a1 1 0 100-2 1 1 0 000 2zM5 4h12a1 1 0 011 1v12a1 1 0 01-1 1H5a1 1 0 01-1-1V5a1 1 0 011-1zm1 12h10V6H6v10zM6 1a1 1 0 11-2 0 1 1 0 012 0zm16 0a1 1 0 11-2 0 1 1 0 012 0zm-5 1a1 1 0 100-2 1 1 0 000 2zm-3-1a1 1 0 11-2 0 1 1 0 012 0zM9 22a1 1 0 100-2 1 1 0 000 2zm-3-1a1 1 0 11-2 0 1 1 0 012 0zm-5 1a1 1 0 100-2 1 1 0 000 2zm21-1a1 1 0 11-2 0 1 1 0 012 0zm-5 1a1 1 0 100-2 1 1 0 000 2zm-3-1a1 1 0 11-2 0 1 1 0 012 0zM1 10a1 1 0 100-2 1 1 0 000 2zm1-5a1 1 0 11-2 0 1 1 0 012 0zM1 18a1 1 0 100-2 1 1 0 000 2zm1-5a1 1 0 11-2 0 1 1 0 012 0zm19-3a1 1 0 100-2 1 1 0 000 2zm1-5a1 1 0 11-2 0 1 1 0 012 0zm-1 13a1 1 0 100-2 1 1 0 000 2zm1-5a1 1 0 11-2 0 1 1 0 012 0z"></path>
    </symbol>
    <symbol viewBox="0 0 23 23" id="icon-photo-select-none">
        <path d="M6 2a1 1 0 100-2 1 1 0 000 2zm4 0a1 1 0 100-2 1 1 0 000 2zm13-1a1 1 0 11-2 0 1 1 0 012 0zm-5 1a1 1 0 100-2 1 1 0 000 2zm-3-1a1 1 0 11-2 0 1 1 0 012 0zm-5 21a1 1 0 100-2 1 1 0 000 2zm-3-1a1 1 0 11-2 0 1 1 0 012 0zm-5 1a1 1 0 100-2 1 1 0 000 2zm13-1a1 1 0 11-2 0 1 1 0 012 0zM2 10a1 1 0 100-2 1 1 0 000 2zm1 7a1 1 0 11-2 0 1 1 0 012 0zm-1-3a1 1 0 100-2 1 1 0 000 2zm21-5a1 1 0 11-2 0 1 1 0 012 0zm-1-3a1 1 0 100-2 1 1 0 000 2zm1 11a1 1 0 11-2 0 1 1 0 012 0zm-1-3a1 1 0 100-2 1 1 0 000 2zM.3 1.299a1 1 0 011.407-.006l20 20a1 1 0 01-1.414 1.414l-1.363-1.362a.995.995 0 11-1.275-1.275L2.93 5.345A.995.995 0 111.655 4.07L.293 2.707a1 1 0 01.006-1.408z"></path>
    </symbol>
    <symbol viewBox="0 0 20 20" id="icon-photo-contrast">
        <path fill-rule="evenodd" d="M10 20c5.523 0 10-4.477 10-10S15.523 0 10 0 0 4.477 0 10s4.477 10 10 10zm8-10a8 8 0 01-8 8V2a8 8 0 018 8z"></path>
    </symbol>
    <symbol viewBox="0 0 16 22" id="icon-photo-flash">
        <path fill-rule="evenodd" d="M6 0h6a1 1 0 01.856 1.514L10.764 5H15a1 1 0 01.888 1.458l-.057.096-9.998 14.998c-.607.91-2.027.323-1.812-.751l1.76-8.802H1.001a1 1 0 01-.94-1.341l.046-.106L5.106.553A1 1 0 016 0zm2.142 5.484L10.232 2H6.618l-4 7.998H7a1 1 0 01.997 1.08l-.017.116-1.008 5.04L13.129 7h-4.13a1 1 0 01-.91-1.413l.053-.102z"></path>
    </symbol>
    <symbol viewBox="0 0 24 20" id="icon-photo-flip-camera">
        <path fill-rule="evenodd" d="M16 0a1 1 0 01.949.684L17.721 3H23a.999.999 0 011 1v15a1 1 0 01-1 1H1a1 1 0 01-1-1V4a.998.998 0 011-1h5.279L7.051.684A1 1 0 018 0zm-.721 2H8.721l-.772 2.316A1 1 0 017 5H2v13h20V5h-5a1 1 0 01-.949-.684L15.279 2zM10 10a1 1 0 110 2h-.829a3.002 3.002 0 004.805 1.258 1 1 0 111.318 1.504 5.003 5.003 0 01-4.587 1.069A4.993 4.993 0 018 14 1 1 0 016 14v-3a1 1 0 011-1h3zm2.135-4a4.99 4.99 0 013.877 1.843A1 1 0 0118 8v3a1 1 0 01-1 1h-3a1 1 0 110-2h.964a3.002 3.002 0 00-4.805-1.258 1 1 0 11-1.318-1.504A4.984 4.984 0 0112.135 6z"></path>
    </symbol>
    <symbol viewBox="0 0 21 20" id="icon-photo-sharpen">
        <path fill-rule="evenodd" d="M9.104.553a1 1 0 011.79 0l8.999 18A1 1 0 0118.998 20H1.002a1 1 0 01-.895-1.448zm.895 2.685L2.62 17.999h14.76L9.999 3.238z"></path>
    </symbol>

 </svg>