<?xml version="1.0" encoding="utf-8"?>
<svg xmlns="http://www.w3.org/2000/svg">
    <symbol id="icon-star-dynamic" viewBox="0 0 22 22">
        <!-- full star -->
        <path d="M11.0418 2.19068C11.3405 1.26977 12.6556 1.26977 12.9544 2.19068L15.0869 9H21.998C22.9684 9 23.3684 9.97367 22.5863 10.5428L16.9857 14.6188L19.1191 21.1958C19.4171 22.1146 18.3532 22.8737 17.5682 22.3024L11.9981 18.2486L6.42795 22.3024C5.64292 22.8737 4.57902 22.1146 4.87705 21.1958L7.01047 14.6188L1.40983 10.5428C0.627778 9.97367 1.04044 9 2.0108 9H8.92191L11.0418 2.19068Z" fill="var(--color-star-rating-full, #ccc)" />
        <!-- full star/half star clipped -->
        <path d="M11.0418 2.19068C11.3405 1.26977 12.6556 1.26977 12.9544 2.19068L15.0869 9H21.998C22.9684 9 23.3684 9.97367 22.5863 10.5428L16.9857 14.6188L19.1191 21.1958C19.4171 22.1146 18.3532 22.8737 17.5682 22.3024L11.9981 18.2486L6.42795 22.3024C5.64292 22.8737 4.57902 22.1146 4.87705 21.1958L7.01047 14.6188L1.40983 10.5428C0.627778 9.97367 1.04044 9 2.0108 9H8.92191L11.0418 2.19068Z" fill="var(--color-star-rating-half, transparent)" clip-path="polygon(0 0, 50% 0, 50% 100%, 0 100%)" />
    </symbol>
    <symbol viewBox="0 0 22 22" id="icon-star-full">
        <path d="M11.0418 2.19068C11.3405 1.26977 12.6556 1.26977 12.9544 2.19068L15.0869 9H21.998C22.9684 9 23.3684 9.97367 22.5863 10.5428L16.9857 14.6188L19.1191 21.1958C19.4171 22.1146 18.3532 22.8737 17.5682 22.3024L11.9981 18.2486L6.42795 22.3024C5.64292 22.8737 4.57902 22.1146 4.87705 21.1958L7.01047 14.6188L1.40983 10.5428C0.627778 9.97367 1.04044 9 2.0108 9H8.92191L11.0418 2.19068Z"/>
    </symbol>
    <symbol viewBox="0 0 22 22" id="icon-star-empty">
        <path d="M11.0418 2.19068C11.3405 1.26977 12.6556 1.26977 12.9544 2.19068L15.0869 9H21.998C22.9684 9 23.3684 9.97367 22.5863 10.5428L16.9857 14.6188L19.1191 21.1958C19.4171 22.1146 18.3532 22.8737 17.5682 22.3024L11.9981 18.2486L6.42795 22.3024C5.64292 22.8737 4.57902 22.1146 4.87705 21.1958L7.01047 14.6188L1.40983 10.5428C0.627778 9.97367 1.04044 9 2.0108 9H8.92191L11.0418 2.19068Z"/>
    </symbol>
    <symbol id="icon-star-half" viewBox="0 0 22 22">
        <path d="M11.0438 2.19068C11.3425 1.26977 12.6576 1.26977 12.9563 2.19068L15.0889 9H22C22.9704 9 23.3703 9.97367 22.5883 10.5428L16.9876 14.6188L19.1211 21.1958C19.4191 22.1146 18.3552 22.8737 17.5702 22.3024L12 18.2486L6.42991 22.3024C5.64488 22.8737 4.58098 22.1146 4.879 21.1958L7.01242 14.6188L1.41178 10.5428C0.629732 9.97367 1.04239 9 2.01275 9H8.92386L11.0438 2.19068Z" style="filter: opacity(0.25)"/>
        <path d="M6.42993 22.3024L12.0001 18.2486V1.5C11.5966 1.5 11.1931 1.73023 11.0438 2.19068L8.92388 9H2.01277C1.04241 9 0.62975 9.97367 1.4118 10.5428L7.01244 14.6188L4.87902 21.1958C4.581 22.1146 5.6449 22.8737 6.42993 22.3024Z" />
    </symbol>
    <symbol id="icon-star-undefined" viewBox="0 0 22 22">
        <path d="M13.6195 11L12.0029 5.83823L10.3959 11H5.43885L9.36259 13.8556L7.73255 18.8808L12.0001 15.775L16.2676 18.8808L14.6375 13.8556L18.5613 11H13.6195ZM22 9C22.9704 9 23.3704 9.97367 22.5883 10.5428L16.9877 14.6188L19.1211 21.1958C19.4191 22.1146 18.3552 22.8737 17.5702 22.3024L12.0001 18.2486L6.42993 22.3024C5.6449 22.8737 4.581 22.1146 4.87902 21.1958L7.01244 14.6188L1.4118 10.5428C0.62975 9.97367 1.04241 9 2.01277 9H8.92388L11.0438 2.19068C11.3425 1.26977 12.6576 1.26977 12.9563 2.19068L15.0889 9H22ZM18.747 20.6853L18.7458 20.6844L18.747 20.6853Z" />
    </symbol>
    <symbol viewBox="0 0 22.917 22" id="icon-thumbs-down">
        <path d="M.005 10.522A3.838 3.838 0 01.783 8c.054-.074.103-.15.15-.228A5.545 5.545 0 01.97 3.598 4.036 4.036 0 014.796 0h4.74c1.428-.002 2.84.288 4.151.85l3.484 1.492V.996c0-.55.448-.996.998-.996h3.873A.959.959 0 0123 .957v13.39a.955.955 0 01-.958.957h-3.833a.959.959 0 01-.958-.956v-.888a2.451 2.451 0 00-2.017 1.315 5.862 5.862 0 01-1.838 2.062c-.695.542-.935.759-.935 1.337v2.87a.955.955 0 01-.958.956h-.959a3.833 3.833 0 01-3.832-3.826v-1.938c0-.72.117-1.435.344-2.118l.243-.727h-4.42a2.875 2.875 0 01-2.874-2.87zm21.079-8.609h-1.916v11.478h1.916V1.913zM2.879 7.653a2.344 2.344 0 01-.532 1.452 2.01 2.01 0 00-.426 1.417c.001.528.43.955.958.956h5.75a.956.956 0 01.908 1.26l-.662 1.985a4.75 4.75 0 00-.247 1.513v1.938a1.916 1.916 0 001.916 1.913v-1.913a3.397 3.397 0 011.673-2.845c.54-.36.986-.843 1.303-1.409a4.427 4.427 0 013.731-2.384v-7.08L12.933 2.61a8.596 8.596 0 00-3.398-.696h-4.74A2.115 2.115 0 002.88 3.826a.948.948 0 01-.1.428 3.675 3.675 0 000 2.97c.067.133.1.28.1.428z"></path>
    </symbol>
    <symbol viewBox="0 0 23 22" id="icon-thumbs-down-selected">
        <path d="M13.687.85l2.948 1.127a.955.955 0 01.616.893v9.565a.955.955 0 01-.958.956c-1.579 0-2.495.427-2.975 1.384a5.862 5.862 0 01-1.838 2.062c-.695.542-.936.759-.936 1.337v2.87a.955.955 0 01-.958.956 3.833 3.833 0 01-3.832-3.826v-1.938c0-.72.115-1.435.344-2.118l.243-.727H2.879a2.875 2.875 0 01-2.874-2.87 3.848 3.848 0 01.776-2.52c.055-.074.105-.15.151-.228A5.55 5.55 0 01.97 3.598 4.035 4.035 0 014.796 0h4.74c1.428-.002 2.84.288 4.151.85zM20.166 0a.998.998 0 00-.999.996v13.312c0 .55.448.996.999.996h1.836c.55 0 .998-.446.998-.996V.996A.998.998 0 0022.002 0h-1.836z"></path>
    </symbol>
    <symbol viewBox="0 0 23 22" id="icon-thumbs-up">
        <path d="M22.995 11.478A3.838 3.838 0 0122.217 14c-.054.074-.103.15-.15.228a5.545 5.545 0 01-.037 4.175A4.036 4.036 0 0118.204 22h-4.74a10.487 10.487 0 01-4.151-.85l-3.484-1.492v1.346c0 .55-.448.996-.998.996H.958A.959.959 0 010 21.043V7.653a.955.955 0 01.958-.957h3.833a.959.959 0 01.958.956v.888a2.451 2.451 0 002.017-1.315 5.862 5.862 0 011.838-2.062c.695-.542.935-.759.935-1.337V.956A.955.955 0 0111.497 0h.959a3.833 3.833 0 013.832 3.826v1.938c0 .72-.117 1.435-.344 2.118l-.243.727h4.42a2.875 2.875 0 012.874 2.87zM1.916 20.087h1.916V8.609H1.916v11.478zm18.205-5.74c.007-.53.195-1.041.532-1.452a2.01 2.01 0 00.426-1.417.959.959 0 00-.958-.956h-5.75a.956.956 0 01-.908-1.26l.662-1.985a4.75 4.75 0 00.247-1.513V3.826a1.916 1.916 0 00-1.916-1.913v1.913a3.397 3.397 0 01-1.673 2.845c-.54.36-.986.843-1.303 1.409a4.427 4.427 0 01-3.731 2.384v7.08l4.318 1.847a8.596 8.596 0 003.398.696h4.74a2.115 2.115 0 001.916-1.913c0-.149.033-.295.1-.428a3.675 3.675 0 000-2.97.948.948 0 01-.1-.428z"></path>
    </symbol>
    <symbol viewBox="0 0 23 22" id="icon-thumbs-up-selected">
        <path d="M22.995 11.478A3.838 3.838 0 0122.217 14c-.054.074-.103.15-.15.228a5.545 5.545 0 01-.037 4.175A4.035 4.035 0 0118.204 22h-4.74a10.487 10.487 0 01-4.151-.85l-2.948-1.127a.955.955 0 01-.616-.893V9.565a.955.955 0 01.958-.956c1.579 0 2.496-.427 2.975-1.384a5.862 5.862 0 011.838-2.062c.695-.542.936-.759.936-1.337V.956A.955.955 0 0113.414 0a3.833 3.833 0 013.832 3.826v1.938c0 .72-.116 1.435-.344 2.118l-.243.727h3.462a2.875 2.875 0 012.874 2.87zM.998 6.696A.998.998 0 000 7.692v13.312c0 .55.447.996.998.996h1.836c.551 0 .998-.446.998-.996V7.692a.998.998 0 00-.998-.996H.998z"></path>
    </symbol>


    <symbol viewBox="0 0 22 22" id="icon-star-full-small">
        <path d="M11.0418 2.19068C11.3405 1.26977 12.6556 1.26977 12.9544 2.19068L15.0869 9H21.998C22.9684 9 23.3684 9.97367 22.5863 10.5428L16.9857 14.6188L19.1191 21.1958C19.4171 22.1146 18.3532 22.8737 17.5682 22.3024L11.9981 18.2486L6.42795 22.3024C5.64292 22.8737 4.57902 22.1146 4.87705 21.1958L7.01047 14.6188L1.40983 10.5428C0.627778 9.97367 1.04044 9 2.0108 9H8.92191L11.0418 2.19068Z"/>
    </symbol>
    <symbol id="icon-star-empty-small" viewBox="0 0 22 22">
        <path d="M11.0438 2.19068C11.3425 1.26977 12.6576 1.26977 12.9563 2.19068L15.0889 9H22C22.9704 9 23.3703 9.97367 22.5883 10.5428L16.9876 14.6188L19.1211 21.1958C19.4191 22.1146 18.3552 22.8737 17.5702 22.3024L12 18.2486L6.42991 22.3024C5.64488 22.8737 4.58098 22.1146 4.879 21.1958L7.01242 14.6188L1.41178 10.5428C0.629732 9.97367 1.04239 9 2.01275 9H8.92386L11.0438 2.19068Z"/>
    </symbol>
    <symbol id="icon-star-half-small" viewBox="0 0 22 22">
        <path d="M11.0438 2.19068C11.3425 1.26977 12.6576 1.26977 12.9563 2.19068L15.0889 9H22C22.9704 9 23.3703 9.97367 22.5883 10.5428L16.9876 14.6188L19.1211 21.1958C19.4191 22.1146 18.3552 22.8737 17.5702 22.3024L12 18.2486L6.42991 22.3024C5.64488 22.8737 4.58098 22.1146 4.879 21.1958L7.01242 14.6188L1.41178 10.5428C0.629732 9.97367 1.04239 9 2.01275 9H8.92386L11.0438 2.19068Z" style="filter: opacity(0.25)"/>
        <path d="M6.42993 22.3024L12.0001 18.2486V1.5C11.5966 1.5 11.1931 1.73023 11.0438 2.19068L8.92388 9H2.01277C1.04241 9 0.62975 9.97367 1.4118 10.5428L7.01244 14.6188L4.87902 21.1958C4.581 22.1146 5.6449 22.8737 6.42993 22.3024Z" />
    </symbol>
    <symbol id="icon-star-undefined-small" viewBox="0 0 22 22">
        <path d="M13.6195 11L12.0029 5.83823L10.3959 11H5.43885L9.36259 13.8556L7.73255 18.8808L12.0001 15.775L16.2676 18.8808L14.6375 13.8556L18.5613 11H13.6195ZM22 9C22.9704 9 23.3704 9.97367 22.5883 10.5428L16.9877 14.6188L19.1211 21.1958C19.4191 22.1146 18.3552 22.8737 17.5702 22.3024L12.0001 18.2486L6.42993 22.3024C5.6449 22.8737 4.581 22.1146 4.87902 21.1958L7.01244 14.6188L1.4118 10.5428C0.62975 9.97367 1.04241 9 2.01277 9H8.92388L11.0438 2.19068C11.3425 1.26977 12.6576 1.26977 12.9563 2.19068L15.0889 9H22ZM18.747 20.6853L18.7458 20.6844L18.747 20.6853Z" />
    </symbol>
    <symbol viewBox="0 0 14 15" id="icon-thumbs-down-selected-small">
        <path d="M8 1c1.104 0 2 .897 2 2.001v.818a5.028 5.028 0 01-.341 1.819L9.129 7H12a2.002 2.002 0 011.987 2.22l-.776 4.075A1.998 1.998 0 0111.235 15H6.927c-1.28 0-2.53-.241-3.717-.716L0 13V8.015l.962-.031.124.001.31.002c.758 0 1.432-.066 1.994-.865l.978-1.236.962-1.215.504-.504L6 4l.074-.224L7 1H8"></path>
    </symbol>
    <symbol viewBox="0 0 16 16" id="icon-thumbs-down-small">
        <path d="M8 16H7a3.005 3.005 0 01-3-3.001v-.82c0-.745.14-1.484.41-2.179H3A3 3 0 01.023 6.628L.8 2.563A2.986 2.986 0 013.765 0h4.31c1.398 0 2.785.266 4.084.786l3.212 1.285A1 1 0 0116 3v4.984a1 1 0 01-.969 1l-1 .032-.126-.001c-1.295-.012-1.3-.011-2.008 1.426a1.009 1.009 0 01-.19.266L9.874 12.54l-.926 2.776A.999.999 0 018 16zM3.765 2a1.002 1.002 0 00-.992.876L1.998 6.94a.97.97 0 00.252.722c.189.216.463.34.75.338h3a1 1 0 01.894 1.447l-.471.944A4.02 4.02 0 006 12.18v.819c0 .553.448 1 1 1.001h.28l.772-2.316a.996.996 0 01.24-.391l1.885-1.884c1.045-2.106 1.355-2.41 3.745-2.394L14 7.013V3.677l-2.583-1.033A8.982 8.982 0 008.074 2H3.765z"></path>
    </symbol>
    <symbol viewBox="0 0 14 14" id="icon-thumbs-up-selected-small">
        <path d="M7.999 0C9.103 0 10 .897 10 2.001v.818a5.028 5.028 0 01-.342 1.819L9.128 6H12a2.002 2.002 0 011.987 2.22l-.776 4.075A1.998 1.998 0 0111.234 14H6.926c-1.28 0-2.53-.241-3.717-.716L0 12V7.015l.961-.031.124.001.31.002c.758 0 1.432-.066 1.994-.865l.978-1.236.962-1.215.504-.504L6 3l.074-.224L7 0h.999"></path>
    </symbol>
    <symbol viewBox="0 0 16 16" id="icon-thumbs-up-small">
        <path d="M12.235 16h-4.31c-1.398 0-2.785-.266-4.084-.786L.629 13.929A1 1 0 010 13V8.016a1 1 0 01.969-1l1-.032.126.001c1.296.013 1.3.01 2.008-1.426.048-.099.113-.188.19-.266L6.126 3.46 7.052.684A.999.999 0 018 0h1a3.005 3.005 0 013 3.001v.82A6.03 6.03 0 0111.59 6H13a3 3 0 012.977 3.372l-.776 4.065A2.986 2.986 0 0112.235 16zM2 12.323l2.583 1.033A8.982 8.982 0 007.926 14h4.309c.503-.001.928-.376.992-.876l.775-4.064a.97.97 0 00-.252-.722A.988.988 0 0013 8h-3a1 1 0 01-.894-1.447l.471-.944A4.02 4.02 0 0010 3.82v-.819c0-.553-.448-1-1-1.001h-.28l-.772 2.316a.996.996 0 01-.24.391L5.822 6.591c-1.045 2.105-1.38 2.391-3.745 2.394L2 8.987v3.336z"></path>
    </symbol>

 </svg>