<?xml version="1.0" encoding="utf-8"?>
<svg xmlns="http://www.w3.org/2000/svg">
  <symbol viewBox="0 0 24 24" id="icon-social-link">
    <g clip-path="url(#clip0_49833_77257)">
      <path
        d="M20.828 3.207c-1.574-1.575-3.95-1.66-5.61.025l-.014.014-4 3.964a1 1 0 1 1-1.408-1.42l3.994-3.96c2.472-2.51 6.124-2.366 8.453-.038 2.344 2.344 2.348 6.053-.027 8.44l-.012.013-4 3.964a1 1 0 0 1-1.408-1.42l3.996-3.96c1.612-1.615 1.595-4.065.036-5.623Z"
      />
      <path
        d="M14.707 9.293a1 1 0 0 1 0 1.414l-4 4a1 1 0 0 1-1.414-1.414l4-4a1 1 0 0 1 1.414 0Z"
      />
      <path
        d="M7.207 9.793a1 1 0 0 1 0 1.414l-4 4c-1.609 1.605-1.594 4.063-.035 5.622 1.557 1.557 4.005 1.577 5.611-.026l.01-.01 4-4a1 1 0 0 1 1.414 1.414l-3.999 3.999c-2.383 2.392-6.105 2.382-8.45.037-2.343-2.343-2.349-6.06.024-8.44l.01-.01 4-4a1 1 0 0 1 1.415 0Z"
      />
    </g>
    <defs>
      <clipPath id="clip0_49833_77257"><path d="M0 0h24v24H0z" /></clipPath>
    </defs>
  </symbol>
  <symbol viewBox="0 0 24 24" id="icon-social-discord">
    <path
      d="M20.317 4.492c-1.53-.69-3.17-1.2-4.885-1.49a.075.075 0 0 0-.079.036c-.21.369-.444.85-.608 1.23a18.566 18.566 0 0 0-5.487 0 12.36 12.36 0 0 0-.617-1.23A.078.078 0 0 0 8.562 3c-1.714.29-3.354.8-4.885 1.491a.07.07 0 0 0-.032.027C.533 9.093-.32 13.555.099 17.961a.08.08 0 0 0 .031.055 20.03 20.03 0 0 0 5.993 2.98.078.078 0 0 0 .084-.026 13.83 13.83 0 0 0 1.226-1.963.074.074 0 0 0-.041-.104 13.201 13.201 0 0 1-1.872-.878.075.075 0 0 1-.008-.125c.126-.093.252-.19.372-.287a.075.075 0 0 1 .078-.01c3.927 1.764 8.18 1.764 12.061 0a.075.075 0 0 1 .079.009c.12.098.245.195.372.288a.075.075 0 0 1-.006.125c-.598.344-1.22.635-1.873.877a.075.075 0 0 0-.041.105c.36.687.772 1.341 1.225 1.962a.077.077 0 0 0 .084.028 19.963 19.963 0 0 0 6.002-2.981.076.076 0 0 0 .032-.054c.5-5.094-.838-9.52-3.549-13.442a.06.06 0 0 0-.031-.028ZM8.02 15.278c-1.182 0-2.157-1.069-2.157-2.38 0-1.312.956-2.38 2.157-2.38 1.21 0 2.176 1.077 2.157 2.38 0 1.312-.956 2.38-2.157 2.38Zm7.975 0c-1.183 0-2.157-1.069-2.157-2.38 0-1.312.955-2.38 2.157-2.38 1.21 0 2.176 1.077 2.157 2.38 0 1.312-.946 2.38-2.157 2.38Z"
    />
  </symbol>
  <symbol id="icon-social-facebook" viewBox="0 0 24 24">
    <path
      d="M24 12.07C24 5.4 18.63 0 12 0S0 5.4 0 12.07C0 18.1 4.39 23.1 10.13 24v-8.44H7.08v-3.49h3.05V9.41c0-3.02 1.79-4.7 4.53-4.7 1.31 0 2.68.24 2.68.24v2.97h-1.51c-1.5 0-1.96.93-1.96 1.89v2.26h3.33l-.53 3.5h-2.8V24C19.61 23.1 24 18.1 24 12.07z"
    />
  </symbol>
  <symbol id="icon-social-messenger" viewBox="0 0 24 24">
    <g clip-path="url(#clip0_41192_49714)">
      <path
        d="M12 0C5.24 0 0 4.952 0 11.64c0 3.499 1.434 6.521 3.769 8.61a.957.957 0 01.322.684l.066 2.136a.96.96 0 001.346.849l2.383-1.05a.958.958 0 01.64-.047c1.132.308 2.3.462 3.474.458 6.76 0 12-4.95 12-11.64S18.76 0 12 0zm7.206 8.956l-3.525 5.594a1.799 1.799 0 01-2.603.48l-2.803-2.103a.72.72 0 00-.868.003l-3.786 2.872c-.505.384-1.165-.221-.827-.758l3.525-5.593a1.8 1.8 0 012.603-.48l2.803 2.103a.72.72 0 00.868-.002l3.786-2.874c.505-.384 1.165.221.827.758z"
      />
    </g>
    <defs>
      <clipPath id="clip0_41192_49714">
        <path
          fill="var(--color-social-icons-foreground, #fff)"
          d="M0 0h24v24H0z"
        />
      </clipPath>
    </defs>
  </symbol>
  <symbol id="icon-social-pinterest" viewBox="0 0 24 24">
    <g clip-path="url(#a)">
      <path
        d="M7.6 23.2A11.5 11.5 0 0 1 5 21.7C2.3 19.7.7 17.1.2 14A11.9 11.9 0 0 1 2 5.4a11.9 11.9 0 0 1 7-5c4.4-1 8.2 0 11.4 3a11.2 11.2 0 0 1 3.4 6.7c.6 4-.5 7.4-3.2 10.3a11.6 11.6 0 0 1-6.7 3.4 11.8 11.8 0 0 1-5.2-.3c-.1 0-.3 0-.2-.2a15 15 0 0 0 2-5l.2-.8c.9 1.2 2.1 1.5 3.5 1.3a5.6 5.6 0 0 0 4-2.4 8 8 0 0 0 1.3-6.4c-.5-2.5-2-4.1-4.3-5a8.4 8.4 0 0 0-7.6.7 6.6 6.6 0 0 0-3.2 5 6.2 6.2 0 0 0 .9 4.2 3.6 3.6 0 0 0 1.4 1.4c.3.2.4.1.5-.2l.3-1.2a.5.5 0 0 0 0-.4 4.7 4.7 0 0 1-.4-5 5 5 0 0 1 4.3-3 5.3 5.3 0 0 1 3.4.8 4.5 4.5 0 0 1 2.1 3.6A7 7 0 0 1 16 15a3.4 3.4 0 0 1-2.3 1.8c-1 .2-1.8-.2-2.2-1a1.7 1.7 0 0 1 0-1.2l.7-2.8c.2-.5.2-1 .2-1.5-.2-1.1-1.2-1.7-2.3-1.1-.7.3-1 1-1.3 1.8-.2.8 0 1.7.2 2.5a.5.5 0 0 1 0 .3l-1.3 5.8a9.3 9.3 0 0 0-.1 2.7v.8z"
      />
    </g>
    <defs>
      <clipPath id="a">
        <path
          fill="var(--color-social-icons-foreground, #fff)"
          d="M0 0h24v24H0z"
        />
      </clipPath>
    </defs>
  </symbol>
  <symbol id="icon-social-reddit" viewBox="0 0 24 24">
    <path d="M12 24a12 12 0 1 0 0-24 12 12 0 0 0 0 24z" />
    <path
      fill="var(--color-social-icons-foreground, #fff)"
      d="M20 12a1.8 1.8 0 0 0-3-1.3 8.7 8.7 0 0 0-4.6-1.5l.8-3.7 2.6.5a1.3 1.3 0 0 0 2.5 0c0-.7-.6-1.3-1.3-1.3-.5 0-.9.3-1.1.7L13 4.8a.3.3 0 0 0-.2 0 .3.3 0 0 0-.2.3l-.9 4.1c-1.8.1-3.5.7-4.7 1.5a1.8 1.8 0 0 0-1.2-.5 1.8 1.8 0 0 0-.7 3.4v.5c0 2.7 3 4.9 7 4.9 3.8 0 7-2.2 7-4.9l-.1-.5a1.8 1.8 0 0 0 1-1.6zM8 13.2a1.3 1.3 0 0 1 2.5 0 1.3 1.3 0 0 1-2.5 0zm7 3.3c-.9.9-2.5 1-3 1s-2.1-.1-3-1a.3.3 0 0 1 0-.4.3.3 0 0 1 .5 0c.5.5 1.7.7 2.5.7.9 0 2-.2 2.5-.7a.3.3 0 0 1 .5 0 .4.4 0 0 1 0 .4zm-.2-2c-.7 0-1.3-.6-1.3-1.3a1.3 1.3 0 0 1 2.5 0c0 .7-.6 1.3-1.3 1.3z"
    />
  </symbol>
  <symbol viewBox="0 0 24 24" id="icon-social-twitter">
    <path
      d="M0 19.855c1.689.19 3.4-.045 4.968-.683a9.83 9.83 0 0 0 2.281-1.3l-.324-.025a4.842 4.842 0 0 1-2.271-.765 4.797 4.797 0 0 1-1.92-2.332c-.014-.042-.023-.086-.043-.128-.019-.042 0-.075.065-.066a4.9 4.9 0 0 0 1.075.068c.323-.015.645-.06.96-.135.019 0 .043 0 .057-.03a4.995 4.995 0 0 1-1.88-.818 4.836 4.836 0 0 1-1.373-1.494 4.51 4.51 0 0 1-.655-2.46 5.027 5.027 0 0 0 2.19.592c-.014-.04-.045-.05-.07-.066a4.814 4.814 0 0 1-1.947-2.798 4.697 4.697 0 0 1 .422-3.355c.023-.036.044-.073.063-.111.028-.068.052-.073.103-.012A13.443 13.443 0 0 0 3.286 5.53a14.172 14.172 0 0 0 5.971 3c.679.16 1.37.268 2.065.324.135 0 .267.018.4.032.07 0 .095 0 .075-.084a4.688 4.688 0 0 1 .39-3.105 4.878 4.878 0 0 1 2.273-2.215 4.91 4.91 0 0 1 2.065-.48 5.002 5.002 0 0 1 2.205.45 4.71 4.71 0 0 1 1.41.977.2.2 0 0 0 .209.06 10.223 10.223 0 0 0 2.91-1.086l.103-.056a4.907 4.907 0 0 1-2.123 2.642A9.87 9.87 0 0 0 24 5.255a.116.116 0 0 1-.038.084 9.735 9.735 0 0 1-2.318 2.332.165.165 0 0 0-.064.067.16.16 0 0 0-.017.09c.022.476.016.953-.02 1.429-.059.718-.176 1.43-.35 2.13-.183.76-.43 1.506-.736 2.23a14.015 14.015 0 0 1-1.883 3.188 13.385 13.385 0 0 1-2.054 2.099 13.155 13.155 0 0 1-2.998 1.866c-.96.43-1.969.748-3.006.947a15.8 15.8 0 0 1-2.511.275 14.565 14.565 0 0 1-3.023-.215 14.198 14.198 0 0 1-3.387-1.06 16.091 16.091 0 0 1-1.566-.834l-.024-.016L0 19.855Z"
    />
  </symbol>
  <symbol id="icon-social-linkedin" viewBox="0 0 22 22">
    <path
      d="M17.4167 0H4.58333C2.05242 0 0 2.05242 0 4.58333V17.4167C0 19.9476 2.05242 22 4.58333 22H17.4167C19.9485 22 22 19.9476 22 17.4167V4.58333C22 2.05242 19.9485 0 17.4167 0ZM7.33333 17.4167H4.58333V7.33333H7.33333V17.4167ZM5.95833 6.171C5.07283 6.171 4.35417 5.44683 4.35417 4.554C4.35417 3.66117 5.07283 2.937 5.95833 2.937C6.84383 2.937 7.5625 3.66117 7.5625 4.554C7.5625 5.44683 6.84475 6.171 5.95833 6.171ZM18.3333 17.4167H15.5833V12.2797C15.5833 9.19233 11.9167 9.42608 11.9167 12.2797V17.4167H9.16667V7.33333H11.9167V8.95125C13.1963 6.58075 18.3333 6.40567 18.3333 11.2209V17.4167Z"
    />
  </symbol>
  <symbol id="icon-social-whatsapp" viewBox="0 0 24 24">
    <path
      fill-rule="evenodd"
      d="M20.5 3.5A11.9 11.9 0 0 0 16.6.9 12 12 0 0 0 12 0 12 12 0 0 0 .2 11.9a11.8 11.8 0 0 0 1.6 6L0 24l6.3-1.7a12 12 0 0 0 5.7 1.5 12 12 0 0 0 12-11.9 11.8 11.8 0 0 0-.9-4.6 11.8 11.8 0 0 0-2.6-3.8zm-8.4 18.3A10 10 0 0 1 7 20.4l-.4-.2-3.7 1 1-3.7-.3-.3a9.8 9.8 0 0 1-1.5-5.3A10 10 0 0 1 16 2.8a10 10 0 0 1 3 2.1 9.8 9.8 0 0 1 2.9 7 10 10 0 0 1-10 9.9zm5.4-7.4-2-1c-.3 0-.5-.1-.7.2l-1 1.1c-.1.2-.3.2-.6.1-.3-.2-1.3-.5-2.4-1.5a8.9 8.9 0 0 1-1.7-2c-.1-.3 0-.5.2-.6l.4-.6c.2-.1.2-.3.3-.5v-.5L9 7c-.2-.6-.4-.5-.6-.5a12 12 0 0 0-.6 0 1.1 1.1 0 0 0-.8.4c-.3.3-1 1-1 2.4 0 1.5 1 3 1.2 3.1.1.2 2.1 3.2 5.1 4.5.6.2 1.1.5 1.7.6a4 4 0 0 0 1.9.1c.6 0 1.7-.7 2-1.4l.2-1.4-.6-.3z"
      clip-rule="evenodd"
    />
  </symbol>
  <symbol viewBox="0 0 24 24" id="icon-social-instagram">
    <path
      d="M23.665 9.5v4.888a.996.996 0 0 0-.012.188c0 .527 0 1.053-.02 1.58-.022.414-.034.828-.071 1.242a8.872 8.872 0 0 1-.318 1.715 6.03 6.03 0 0 1-2.24 3.23 6.658 6.658 0 0 1-2.822 1.154c-.671.107-1.35.166-2.03.179l-.705.023c-.035 0-.068 0-.101.014h-6.82c-.027 0-.053-.011-.076-.011-.374 0-.748-.029-1.12-.043a15.25 15.25 0 0 1-1.218-.092 8.041 8.041 0 0 1-1.752-.409 5.88 5.88 0 0 1-2.131-1.307 5.95 5.95 0 0 1-1.176-1.555 7.747 7.747 0 0 1-.8-2.943 30.242 30.242 0 0 1-.075-1.533 3.393 3.393 0 0 0-.033-.513V8.602c0-.04.014-.08.017-.12.025-.501.035-1.002.063-1.5a10 10 0 0 1 .205-1.61 6.285 6.285 0 0 1 1.474-2.975 6.007 6.007 0 0 1 1.602-1.265A7.628 7.628 0 0 1 6.24.325c.45-.052.9-.068 1.352-.087a27.015 27.015 0 0 1 1.533-.03.567.567 0 0 0 .167-.015h5.27c.033.007.066.01.1.012.602 0 1.201.019 1.804.047.409.019.818.04 1.227.09a8.036 8.036 0 0 1 1.626.362 6.064 6.064 0 0 1 3.429 2.87 7.54 7.54 0 0 1 .785 2.648c.076.635.09 1.274.113 1.912v.863a3.84 3.84 0 0 0 .02.503zm-2.14 2.46V9.204c0-.755-.028-1.51-.075-2.263a7.003 7.003 0 0 0-.236-1.512 3.954 3.954 0 0 0-1.336-2.037 4.113 4.113 0 0 0-1.52-.745 7.859 7.859 0 0 0-1.737-.236 45.252 45.252 0 0 0-1.13-.044c-.62 0-1.241-.017-1.862-.02-1.213 0-2.427-.013-3.64 0-.831.015-1.661 0-2.49.053-.343.016-.686.03-1.027.068a6.034 6.034 0 0 0-1.395.32 3.84 3.84 0 0 0-1.848 1.41 4.398 4.398 0 0 0-.706 1.746 8.664 8.664 0 0 0-.144 1.3 37.9 37.9 0 0 0-.054 1.501 279.18 279.18 0 0 0 0 3.97c0 1.176-.011 2.352.045 3.54.019.367.03.732.068 1.096.046.492.154.977.32 1.442A3.805 3.805 0 0 0 5 21.098a6.053 6.053 0 0 0 1.867.388c.499.033 1 .054 1.5.068a79.38 79.38 0 0 0 1.692.021c1.41 0 2.803.015 4.205 0 .706 0 1.425 0 2.138-.047.398-.02.79-.04 1.176-.094.49-.061.97-.19 1.425-.383a3.762 3.762 0 0 0 1.82-1.63c.326-.6.527-1.259.591-1.938.05-.4.064-.804.085-1.207.03-.635.035-1.27.042-1.905-.007-.811-.016-1.61-.016-2.41z"
    />
    <path
      d="M17.957 11.959a6.047 6.047 0 1 1-12.094-.005 6.047 6.047 0 0 1 12.094.005zm-2.145 0a3.904 3.904 0 0 0-6.658-2.77 3.902 3.902 0 0 0-1.07 1.997 3.902 3.902 0 0 0 .22 2.255A3.902 3.902 0 0 0 13.4 15.56a3.893 3.893 0 0 0 2.412-3.6v-.002zm2.364-7.694a1.41 1.41 0 0 1 1.432 1.411 1.425 1.425 0 0 1-1.692 1.414 1.425 1.425 0 0 1-.734-.385 1.426 1.426 0 0 1-.395-.727 1.425 1.425 0 0 1 1.389-1.713z"
    />
  </symbol>
</svg>
