<?xml version="1.0" encoding="utf-8"?>
<svg xmlns="http://www.w3.org/2000/svg">
    <symbol id="star-rating-0" viewBox="0 0 64 12">
        <path d="M57.522 1.095c.15-.46.807-.46.956 0L59.544 4.5H63c.485 0 .685.487.294.771l-2.8 2.038 1.066 3.289c.15.46-.382.839-.775.553L58 9.124l-2.785 2.027c-.393.286-.925-.094-.776-.553l1.067-3.289-2.8-2.038c-.391-.284-.185-.771.3-.771h3.456l1.06-3.405zM44.522 1.095c.15-.46.807-.46.956 0L46.544 4.5H50c.485 0 .685.487.294.771l-2.8 2.038 1.066 3.289c.15.46-.382.839-.775.553L45 9.124l-2.785 2.027c-.393.286-.925-.094-.776-.553l1.067-3.289-2.8-2.038c-.391-.284-.185-.771.3-.771h3.456l1.06-3.405zM31.522 1.095c.15-.46.807-.46.956 0L33.544 4.5H37c.485 0 .685.487.294.771l-2.8 2.038 1.066 3.289c.15.46-.382.839-.775.553L32 9.124l-2.785 2.027c-.393.286-.924-.094-.776-.553l1.067-3.289-2.8-2.038c-.391-.284-.185-.771.3-.771h3.456l1.06-3.405zM18.522 1.095c.15-.46.807-.46.956 0L20.544 4.5H24c.485 0 .685.487.294.771l-2.8 2.038 1.067 3.289c.148.46-.383.839-.776.553L19 9.124l-2.785 2.027c-.393.286-.925-.094-.775-.553l1.066-3.289-2.8-2.038c-.391-.284-.185-.771.3-.771h3.456l1.06-3.405zM5.522 1.095c.15-.46.807-.46.956 0L7.544 4.5H11c.485 0 .685.487.294.771l-2.8 2.038 1.067 3.289c.149.46-.383.839-.776.553L6 9.124l-2.785 2.027c-.393.286-.925-.094-.776-.553l1.067-3.289-2.8-2.038c-.391-.284-.185-.771.3-.771h3.456l1.06-3.405z" style="opacity: 0.25"/>
    </symbol>
    <symbol id="star-rating-0-5" viewBox="0 0 64 12">
        <path d="M57.522 1.095c.15-.46.807-.46.956 0L59.544 4.5H63c.485 0 .685.487.294.771l-2.8 2.038 1.066 3.289c.15.46-.382.839-.775.553L58 9.124l-2.785 2.027c-.393.286-.925-.094-.776-.553l1.067-3.289-2.8-2.038c-.391-.284-.185-.771.3-.771h3.456l1.06-3.405zM44.522 1.095c.15-.46.807-.46.956 0L46.544 4.5H50c.485 0 .685.487.294.771l-2.8 2.038 1.066 3.289c.15.46-.382.839-.775.553L45 9.124l-2.785 2.027c-.393.286-.925-.094-.776-.553l1.067-3.289-2.8-2.038c-.391-.284-.185-.771.3-.771h3.456l1.06-3.405zM31.522 1.095c.15-.46.807-.46.956 0L33.544 4.5H37c.485 0 .685.487.294.771l-2.8 2.038 1.066 3.289c.15.46-.382.839-.775.553L32 9.124l-2.785 2.027c-.393.286-.924-.094-.776-.553l1.067-3.289-2.8-2.038c-.391-.284-.185-.771.3-.771h3.456l1.06-3.405zM18.522 1.095c.15-.46.807-.46.956 0L20.544 4.5H24c.485 0 .685.487.294.771l-2.8 2.038 1.067 3.289c.148.46-.383.839-.776.553L19 9.124l-2.785 2.027c-.393.286-.925-.094-.775-.553l1.066-3.289-2.8-2.038c-.391-.284-.185-.771.3-.771h3.456l1.06-3.405zM5.522 1.095c.15-.46.807-.46.956 0L7.544 4.5H11c.485 0 .685.487.294.771l-2.8 2.038 1.067 3.289c.149.46-.383.839-.776.553L6 9.124l-2.785 2.027c-.393.286-.925-.094-.776-.553l1.067-3.289-2.8-2.038c-.391-.284-.185-.771.3-.771h3.456l1.06-3.405z" style="opacity: 0.25"/>
        <path d="M3.215 11.151L6 9.124V.75a.493.493 0 00-.478.345L4.462 4.5H1.006c-.485 0-.691.487-.3.771l2.8 2.038-1.066 3.289c-.15.46.382.839.775.553z"/>
    </symbol>
    <symbol id="star-rating-1" viewBox="0 0 64 12" >
        <path d="M57.522 1.095c.15-.46.807-.46.956 0L59.544 4.5H63c.485 0 .685.487.294.771l-2.8 2.038 1.066 3.289c.15.46-.382.839-.775.553L58 9.124l-2.785 2.027c-.393.286-.925-.094-.776-.553l1.067-3.289-2.8-2.038c-.391-.284-.185-.771.3-.771h3.456l1.06-3.405zM44.522 1.095c.15-.46.807-.46.956 0L46.544 4.5H50c.485 0 .685.487.294.771l-2.8 2.038 1.066 3.289c.15.46-.382.839-.775.553L45 9.124l-2.785 2.027c-.393.286-.925-.094-.776-.553l1.067-3.289-2.8-2.038c-.391-.284-.185-.771.3-.771h3.456l1.06-3.405zM31.522 1.095c.15-.46.807-.46.956 0L33.544 4.5H37c.485 0 .685.487.294.771l-2.8 2.038 1.066 3.289c.15.46-.382.839-.775.553L32 9.124l-2.785 2.027c-.393.286-.924-.094-.776-.553l1.067-3.289-2.8-2.038c-.391-.284-.185-.771.3-.771h3.456l1.06-3.405zM18.522 1.095c.15-.46.807-.46.956 0L20.544 4.5H24c.485 0 .685.487.294.771l-2.8 2.038 1.067 3.289c.148.46-.383.839-.776.553L19 9.124l-2.785 2.027c-.393.286-.925-.094-.775-.553l1.066-3.289-2.8-2.038c-.391-.284-.185-.771.3-.771h3.456l1.06-3.405z" style="opacity: 0.25"/>
        <path d="M5.52 1.095c.15-.46.808-.46.957 0L7.543 4.5H11c.485 0 .685.487.294.771l-2.8 2.038 1.067 3.289c.149.46-.383.839-.776.553L6 9.124l-2.785 2.027c-.393.286-.924-.094-.775-.553l1.066-3.289-2.8-2.038c-.391-.284-.185-.771.3-.771h3.456l1.06-3.405z"/>
    </symbol>
    <symbol id="star-rating-1-5" viewBox="0 0 64 12" >
        <path d="M57.522 1.095c.15-.46.807-.46.956 0L59.544 4.5H63c.485 0 .685.487.294.771l-2.8 2.038 1.066 3.289c.15.46-.382.839-.775.553L58 9.124l-2.785 2.027c-.393.286-.925-.094-.776-.553l1.067-3.289-2.8-2.038c-.391-.284-.185-.771.3-.771h3.456l1.06-3.405zM44.522 1.095c.15-.46.807-.46.956 0L46.544 4.5H50c.485 0 .685.487.294.771l-2.8 2.038 1.066 3.289c.15.46-.382.839-.775.553L45 9.124l-2.785 2.027c-.393.286-.925-.094-.776-.553l1.067-3.289-2.8-2.038c-.391-.284-.185-.771.3-.771h3.456l1.06-3.405zM31.522 1.095c.15-.46.807-.46.956 0L33.544 4.5H37c.485 0 .685.487.294.771l-2.8 2.038 1.066 3.289c.15.46-.382.839-.775.553L32 9.124l-2.785 2.027c-.393.286-.924-.094-.776-.553l1.067-3.289-2.8-2.038c-.391-.284-.185-.771.3-.771h3.456l1.06-3.405zM18.522 1.095c.15-.46.807-.46.956 0L20.544 4.5H24c.485 0 .685.487.294.771l-2.8 2.038 1.067 3.289c.148.46-.383.839-.776.553L19 9.124l-2.785 2.027c-.393.286-.925-.094-.775-.553l1.066-3.289-2.8-2.038c-.391-.284-.185-.771.3-.771h3.456l1.06-3.405z" style="opacity: 0.25"/>
        <path d="M16.215 11.151L19 9.124V.75a.493.493 0 00-.478.345L17.462 4.5h-3.456c-.485 0-.691.487-.3.771l2.8 2.038-1.066 3.289c-.15.46.382.839.775.553zM5.52 1.095c.15-.46.808-.46.957 0L7.543 4.5H11c.485 0 .685.487.294.771l-2.8 2.038 1.067 3.289c.149.46-.383.839-.776.553L6 9.124l-2.785 2.027c-.393.286-.924-.094-.775-.553l1.066-3.289-2.8-2.038c-.391-.284-.185-.771.3-.771h3.456l1.06-3.405z"/>
    </symbol>
    <symbol id="star-rating-2" viewBox="0 0 64 12" >
        <path d="M57.522 1.095c.15-.46.807-.46.956 0L59.544 4.5H63c.485 0 .685.487.294.771l-2.8 2.038 1.066 3.289c.15.46-.382.839-.775.553L58 9.124l-2.785 2.027c-.393.286-.925-.094-.776-.553l1.067-3.289-2.8-2.038c-.391-.284-.185-.771.3-.771h3.456l1.06-3.405zM44.522 1.095c.15-.46.807-.46.956 0L46.544 4.5H50c.485 0 .685.487.294.771l-2.8 2.038 1.066 3.289c.15.46-.382.839-.775.553L45 9.124l-2.785 2.027c-.393.286-.925-.094-.776-.553l1.067-3.289-2.8-2.038c-.391-.284-.185-.771.3-.771h3.456l1.06-3.405zM31.522 1.095c.15-.46.807-.46.956 0L33.544 4.5H37c.485 0 .685.487.294.771l-2.8 2.038 1.066 3.289c.15.46-.382.839-.775.553L32 9.124l-2.785 2.027c-.393.286-.924-.094-.776-.553l1.067-3.289-2.8-2.038c-.391-.284-.185-.771.3-.771h3.456l1.06-3.405z" style="opacity: 0.25"/>
        <path d="M18.52 1.095c.15-.46.808-.46.957 0L20.544 4.5h3.455c.485 0 .685.487.294.771l-2.8 2.038 1.067 3.289c.149.46-.383.839-.776.553L19 9.124l-2.785 2.027c-.392.286-.924-.094-.775-.553l1.066-3.289-2.8-2.038c-.391-.284-.185-.771.3-.771h3.456l1.06-3.405zM5.52 1.095c.15-.46.808-.46.957 0L7.543 4.5H11c.485 0 .685.487.294.771l-2.8 2.038 1.067 3.289c.149.46-.383.839-.776.553L6 9.124l-2.785 2.027c-.393.286-.924-.094-.775-.553l1.066-3.289-2.8-2.038c-.391-.284-.185-.771.3-.771h3.456l1.06-3.405z"/>
    </symbol>
    <symbol id="star-rating-2-5" viewBox="0 0 64 12">
        <path d="M57.522 1.095c.15-.46.807-.46.956 0L59.544 4.5H63c.485 0 .685.487.294.771l-2.8 2.038 1.066 3.289c.15.46-.382.839-.775.553L58 9.124l-2.785 2.027c-.393.286-.925-.094-.776-.553l1.067-3.289-2.8-2.038c-.391-.284-.185-.771.3-.771h3.456l1.06-3.405zM44.522 1.095c.15-.46.807-.46.956 0L46.544 4.5H50c.485 0 .685.487.294.771l-2.8 2.038 1.066 3.289c.15.46-.382.839-.775.553L45 9.124l-2.785 2.027c-.393.286-.925-.094-.776-.553l1.067-3.289-2.8-2.038c-.391-.284-.185-.771.3-.771h3.456l1.06-3.405zM31.522 1.095c.15-.46.807-.46.956 0L33.544 4.5H37c.485 0 .685.487.294.771l-2.8 2.038 1.066 3.289c.15.46-.382.839-.775.553L32 9.124l-2.785 2.027c-.393.286-.924-.094-.776-.553l1.067-3.289-2.8-2.038c-.391-.284-.185-.771.3-.771h3.456l1.06-3.405z" style="opacity: 0.25"/>
        <path d="M29.215 11.151L32 9.124V.75a.493.493 0 00-.478.345L30.462 4.5h-3.456c-.485 0-.691.487-.3.771l2.8 2.038-1.067 3.289c-.148.46.383.839.776.553zM18.52 1.095c.15-.46.808-.46.957 0L20.544 4.5h3.455c.485 0 .685.487.294.771l-2.8 2.038 1.067 3.289c.149.46-.383.839-.776.553L19 9.124l-2.785 2.027c-.392.286-.924-.094-.775-.553l1.066-3.289-2.8-2.038c-.391-.284-.185-.771.3-.771h3.456l1.06-3.405zM5.52 1.095c.15-.46.808-.46.957 0L7.543 4.5H11c.485 0 .685.487.294.771l-2.8 2.038 1.067 3.289c.149.46-.383.839-.776.553L6 9.124l-2.785 2.027c-.393.286-.924-.094-.775-.553l1.066-3.289-2.8-2.038c-.391-.284-.185-.771.3-.771h3.456l1.06-3.405z"/>
    </symbol>
    <symbol id="star-rating-3" viewBox="0 0 64 12">
        <path d="M57.522 1.095c.15-.46.807-.46.956 0L59.544 4.5H63c.485 0 .685.487.294.771l-2.8 2.038 1.066 3.289c.15.46-.382.839-.775.553L58 9.124l-2.785 2.027c-.393.286-.925-.094-.776-.553l1.067-3.289-2.8-2.038c-.391-.284-.185-.771.3-.771h3.456l1.06-3.405zM44.522 1.095c.15-.46.807-.46.956 0L46.544 4.5H50c.485 0 .685.487.294.771l-2.8 2.038 1.066 3.289c.15.46-.382.839-.775.553L45 9.124l-2.785 2.027c-.393.286-.925-.094-.776-.553l1.067-3.289-2.8-2.038c-.391-.284-.185-.771.3-.771h3.456l1.06-3.405z" style="opacity: 0.25"/>
        <path d="M31.52 1.095c.15-.46.808-.46.957 0L33.544 4.5h3.455c.485 0 .685.487.294.771l-2.8 2.038 1.067 3.289c.149.46-.383.839-.776.553L32 9.124l-2.785 2.027c-.392.286-.924-.094-.775-.553l1.066-3.289-2.8-2.038c-.391-.284-.185-.771.3-.771h3.456l1.06-3.405zM18.52 1.095c.15-.46.808-.46.957 0L20.544 4.5h3.455c.485 0 .685.487.294.771l-2.8 2.038 1.067 3.289c.149.46-.383.839-.776.553L19 9.124l-2.785 2.027c-.392.286-.924-.094-.775-.553l1.066-3.289-2.8-2.038c-.391-.284-.185-.771.3-.771h3.456l1.06-3.405zM5.52 1.095c.15-.46.808-.46.957 0L7.543 4.5H11c.485 0 .685.487.294.771l-2.8 2.038 1.067 3.289c.149.46-.383.839-.776.553L6 9.124l-2.785 2.027c-.393.286-.924-.094-.775-.553l1.066-3.289-2.8-2.038c-.391-.284-.185-.771.3-.771h3.456l1.06-3.405z" />
    </symbol>
    <symbol id="star-rating-3-5" viewBox="0 0 64 12">
        <path d="M57.522 1.095c.15-.46.807-.46.956 0L59.544 4.5H63c.485 0 .685.487.294.771l-2.8 2.038 1.066 3.289c.15.46-.382.839-.775.553L58 9.124l-2.785 2.027c-.393.286-.925-.094-.776-.553l1.067-3.289-2.8-2.038c-.391-.284-.185-.771.3-.771h3.456l1.06-3.405zM44.522 1.095c.15-.46.807-.46.956 0L46.544 4.5H50c.485 0 .685.487.294.771l-2.8 2.038 1.066 3.289c.15.46-.382.839-.775.553L45 9.124l-2.785 2.027c-.393.286-.925-.094-.776-.553l1.067-3.289-2.8-2.038c-.391-.284-.185-.771.3-.771h3.456l1.06-3.405z" style="opacity: 0.25"/>
        <path d="M42.215 11.151L45 9.124V.75a.493.493 0 00-.478.345L43.462 4.5h-3.456c-.485 0-.691.487-.3.771l2.8 2.038-1.066 3.289c-.15.46.382.839.775.553zM31.52 1.095c.15-.46.808-.46.957 0L33.544 4.5h3.455c.485 0 .685.487.294.771l-2.8 2.038 1.067 3.289c.149.46-.383.839-.776.553L32 9.124l-2.785 2.027c-.392.286-.924-.094-.775-.553l1.066-3.289-2.8-2.038c-.391-.284-.185-.771.3-.771h3.456l1.06-3.405zM18.52 1.095c.15-.46.808-.46.957 0L20.544 4.5h3.455c.485 0 .685.487.294.771l-2.8 2.038 1.067 3.289c.149.46-.383.839-.776.553L19 9.124l-2.785 2.027c-.392.286-.924-.094-.775-.553l1.066-3.289-2.8-2.038c-.391-.284-.185-.771.3-.771h3.456l1.06-3.405zM5.52 1.095c.15-.46.808-.46.957 0L7.543 4.5H11c.485 0 .685.487.294.771l-2.8 2.038 1.067 3.289c.149.46-.383.839-.776.553L6 9.124l-2.785 2.027c-.393.286-.924-.094-.775-.553l1.066-3.289-2.8-2.038c-.391-.284-.185-.771.3-.771h3.456l1.06-3.405z"/>
    </symbol>
    <symbol id="star-rating-4" viewBox="0 0 64 12" >
        <path d="M57.522 1.095c.15-.46.807-.46.956 0L59.544 4.5H63c.485 0 .685.487.294.771l-2.8 2.038 1.066 3.289c.15.46-.382.839-.775.553L58 9.124l-2.785 2.027c-.393.286-.925-.094-.776-.553l1.067-3.289-2.8-2.038c-.391-.284-.185-.771.3-.771h3.456l1.06-3.405z" style="opacity: 0.25"/>
        <path d="M44.52 1.095c.15-.46.808-.46.957 0L46.544 4.5h3.455c.485 0 .685.487.294.771l-2.8 2.038 1.067 3.289c.149.46-.383.839-.776.553L45 9.124l-2.785 2.027c-.392.286-.925-.094-.776-.553l1.067-3.289-2.8-2.038c-.391-.284-.185-.771.3-.771h3.456l1.06-3.405zM31.52 1.095c.15-.46.808-.46.957 0L33.544 4.5h3.455c.485 0 .685.487.294.771l-2.8 2.038 1.067 3.289c.149.46-.383.839-.776.553L32 9.124l-2.785 2.027c-.392.286-.924-.094-.775-.553l1.066-3.289-2.8-2.038c-.391-.284-.185-.771.3-.771h3.456l1.06-3.405zM18.52 1.095c.15-.46.808-.46.957 0L20.544 4.5h3.455c.485 0 .685.487.294.771l-2.8 2.038 1.067 3.289c.149.46-.383.839-.776.553L19 9.124l-2.785 2.027c-.392.286-.924-.094-.775-.553l1.066-3.289-2.8-2.038c-.391-.284-.185-.771.3-.771h3.456l1.06-3.405zM5.52 1.095c.15-.46.808-.46.957 0L7.543 4.5H11c.485 0 .685.487.294.771l-2.8 2.038 1.067 3.289c.149.46-.383.839-.776.553L6 9.124l-2.785 2.027c-.393.286-.924-.094-.775-.553l1.066-3.289-2.8-2.038c-.391-.284-.185-.771.3-.771h3.456l1.06-3.405z"/>
    </symbol>
    <symbol id="star-rating-4-5" viewBox="0 0 64 12">
        <path d="M57.522 1.095c.15-.46.807-.46.956 0L59.544 4.5H63c.485 0 .685.487.294.771l-2.8 2.038 1.066 3.289c.15.46-.382.839-.775.553L58 9.124l-2.785 2.027c-.393.286-.925-.094-.776-.553l1.067-3.289-2.8-2.038c-.391-.284-.185-.771.3-.771h3.456l1.06-3.405z" style="opacity: 0.25"/>
        <path d="M55.215 11.151L58 9.124V.75a.493.493 0 00-.478.345L56.462 4.5h-3.456c-.485 0-.691.487-.3.771l2.8 2.038-1.066 3.289c-.15.46.382.839.775.553zM44.52 1.095c.15-.46.808-.46.957 0L46.544 4.5h3.455c.485 0 .685.487.294.771l-2.8 2.038 1.067 3.289c.149.46-.383.839-.776.553L45 9.124l-2.785 2.027c-.392.286-.925-.094-.776-.553l1.067-3.289-2.8-2.038c-.391-.284-.185-.771.3-.771h3.456l1.06-3.405zM31.52 1.095c.15-.46.808-.46.957 0L33.544 4.5h3.455c.485 0 .685.487.294.771l-2.8 2.038 1.067 3.289c.149.46-.383.839-.776.553L32 9.124l-2.785 2.027c-.392.286-.924-.094-.775-.553l1.066-3.289-2.8-2.038c-.391-.284-.185-.771.3-.771h3.456l1.06-3.405zM18.52 1.095c.15-.46.808-.46.957 0L20.544 4.5h3.455c.485 0 .685.487.294.771l-2.8 2.038 1.067 3.289c.149.46-.383.839-.776.553L19 9.124l-2.785 2.027c-.392.286-.924-.094-.775-.553l1.066-3.289-2.8-2.038c-.391-.284-.185-.771.3-.771h3.456l1.06-3.405zM5.52 1.095c.15-.46.808-.46.957 0L7.543 4.5H11c.485 0 .685.487.294.771l-2.8 2.038 1.067 3.289c.149.46-.383.839-.776.553L6 9.124l-2.785 2.027c-.393.286-.924-.094-.775-.553l1.066-3.289-2.8-2.038c-.391-.284-.185-.771.3-.771h3.456l1.06-3.405z"/>
    </symbol>
    <symbol id="star-rating-5" viewBox="0 0 64 12">
        <path d="M57.52 1.095c.15-.46.808-.46.957 0L59.544 4.5h3.455c.485 0 .685.487.294.771l-2.8 2.038 1.067 3.289c.149.46-.383.839-.776.553L58 9.124l-2.785 2.027c-.392.286-.925-.094-.776-.553l1.067-3.289-2.8-2.038c-.391-.284-.185-.771.3-.771h3.456l1.06-3.405zM44.52 1.095c.15-.46.808-.46.957 0L46.544 4.5h3.455c.485 0 .685.487.294.771l-2.8 2.038 1.067 3.289c.149.46-.383.839-.776.553L45 9.124l-2.785 2.027c-.392.286-.925-.094-.776-.553l1.067-3.289-2.8-2.038c-.391-.284-.185-.771.3-.771h3.456l1.06-3.405zM31.52 1.095c.15-.46.808-.46.957 0L33.544 4.5h3.455c.485 0 .685.487.294.771l-2.8 2.038 1.067 3.289c.149.46-.383.839-.776.553L32 9.124l-2.785 2.027c-.392.286-.924-.094-.775-.553l1.066-3.289-2.8-2.038c-.391-.284-.185-.771.3-.771h3.456l1.06-3.405zM18.52 1.095c.15-.46.808-.46.957 0L20.544 4.5h3.455c.485 0 .685.487.294.771l-2.8 2.038 1.067 3.289c.149.46-.383.839-.776.553L19 9.124l-2.785 2.027c-.392.286-.924-.094-.775-.553l1.066-3.289-2.8-2.038c-.391-.284-.185-.771.3-.771h3.456l1.06-3.405zM5.52 1.095c.15-.46.808-.46.957 0L7.543 4.5H11c.485 0 .685.487.294.771l-2.8 2.038 1.067 3.289c.149.46-.383.839-.776.553L6 9.124l-2.785 2.027c-.393.286-.924-.094-.775-.553l1.066-3.289-2.8-2.038c-.391-.284-.185-.771.3-.771h3.456l1.06-3.405z"/>
    </symbol>
</svg>
