<?xml version="1.0" encoding="utf-8"?>
<svg xmlns="http://www.w3.org/2000/svg">
  <symbol viewBox="0 0 40 40" id="icon-avatar-light" >
    <g clip-path="path('M0 20C0 8.954 8.954 0 20 0s20 8.954 20 20-8.954 20-20 20S0 31.046 0 20z')">
      <path
        d="M0 20C0 8.954 8.954 0 20 0s20 8.954 20 20-8.954 20-20 20S0 31.046 0 20z"
        fill="#F7F7F7"
      />
      <ellipse cx="20" cy="41" rx="13.6" ry="12" fill="#707070"/>
      <circle cx="20" cy="19.4" r="8.4" fill="#707070"/>
    </g>
    <path
      d="M20 38c-9.941 0-18-8.059-18-18h-4c0 12.15 9.85 22 22 22v-4zm18-18c0 9.941-8.059 18-18 18v4c12.15 0 22-9.85 22-22h-4zM20 2c9.941 0 18 8.059 18 18h4C42 7.85 32.15-2 20-2v4zm0-4C7.85-2-2 7.85-2 20h4c0-9.941 8.059-18 18-18v-4z"
      fill="#fff"
    />
  </symbol>
  <symbol id="icon-avatar-filled" viewBox="0 0 22 22">
    <path
      d="M4.075 19.547C4.57 16.409 7.483 14 11 14s6.429 2.409 6.925 5.547A10.954 10.954 0 0111 22c-2.625 0-5.034-.92-6.925-2.453zM15 9a4 4 0 11-8 0 4 4 0 018 0z"
    />
    <path
      d="M11 20a9 9 0 110-18 9 9 0 010 18zm0 2c6.075 0 11-4.925 11-11S17.075 0 11 0 0 4.925 0 11s4.925 11 11 11z"
    />
  </symbol>
  <symbol id="icon-avatar" viewBox="0 0 22 22">
    <path
      d="M15.596 18.74A8.958 8.958 0 0111 20c-1.68 0-3.25-.46-4.596-1.26C7.147 17.177 8.853 16 11 16c2.147 0 3.853 1.177 4.596 2.74zm1.62-1.232C16.05 15.424 13.704 14 11 14s-5.05 1.424-6.216 3.508a9 9 0 1112.432 0zm.575 2.146A10.98 10.98 0 0022 11c0-6.075-4.925-11-11-11S0 4.925 0 11c0 3.45 1.589 6.53 4.075 8.547l.005.004c.59.478 1.23.896 1.912 1.246l.02.01A10.954 10.954 0 0011 22a10.954 10.954 0 006.791-2.346zM11 11a2 2 0 110-4 2 2 0 010 4zm0 2a4 4 0 100-8 4 4 0 000 8z"
    />
  </symbol>
  <symbol id="icon-avatar-dark" fill="none" viewBox="0 0 22 22">
    <g>
      <path
        fill="#fff"
        d="M0 11C0 4.92487 4.92487 0 11 0c6.0751 0 11 4.92487 11 11 0 6.0751-4.9249 11-11 11-6.07513 0-11-4.9249-11-11Z"
      />
      <path
        fill="#333"
        d="M0 11C0 4.92487 4.92487 0 11 0c6.0751 0 11 4.92487 11 11 0 6.0751-4.9249 11-11 11-6.07513 0-11-4.9249-11-11Z"
      />
      <ellipse cx="11" cy="22.55" fill="gray" rx="7.48" ry="6.6" />
      <circle cx="11" cy="10.67" r="4.62" fill="gray" />
    </g>
    <path
      fill="#171717"
      d="M11 20c-4.97056 0-9-4.0294-9-9h-4c0 7.1797 5.8203 13 13 13v-4Zm9-9c0 4.9706-4.0294 9-9 9v4c7.1797 0 13-5.8203 13-13h-4Zm-9-9c4.9706 0 9 4.02944 9 9h4c0-7.1797-5.8203-13-13-13v4Zm0-4C3.8203-2-2 3.8203-2 11h4c0-4.97056 4.02944-9 9-9v-4Z"
    />
  </symbol>
</svg>
