<?xml version="1.0" encoding="utf-8"?>
<svg xmlns="http://www.w3.org/2000/svg">
  <symbol viewBox="0 0 24 24" id="icon-back">
    <path
      d="m6.293 11.292 8-8a1 1 0 1 1 1.414 1.415L8.414 12l7.293 7.293a1 1 0 1 1-1.414 1.414l-8-8a.996.996 0 0 1 0-1.415Z"
    />
  </symbol>
  <symbol viewBox="0 0 24 24" id="icon-carousel-next">
    <path
      d="M17.707 11.293a1 1 0 0 1 .22.33l-.22-.33Zm-.001-.001-7.999-8a1 1 0 0 0-1.414 1.415L15.586 12l-7.293 7.293a1 1 0 1 0 1.414 1.414l8-8a.999.999 0 0 0 .22-1.083"
    />
  </symbol>
  <symbol viewBox="0 0 24 24" id="icon-carousel-prev">
    <path
      d="m6.293 11.292 8-8a1 1 0 1 1 1.414 1.415L8.414 12l7.293 7.293a1 1 0 1 1-1.414 1.414l-8-8a.996.996 0 0 1 0-1.415Z"
    />
  </symbol>
  <symbol viewBox="0 0 14 14" id="icon-pagination-next">
    <path
      d="M13.925 7.354a.994.994 0 00-.22-1.086L7.703.29a1.004 1.004 0 00-1.416.005.994.994 0 00.005 1.41l4.302 4.274H1c-.552 0-1 .446-1 .997 0 .55.448.996 1 .996h9.594l-4.302 4.275a.994.994 0 00.417 1.725c.365.088.75-.036.994-.32l6.002-5.979c.093-.09.168-.2.22-.319z"
    />
  </symbol>
  <symbol viewBox="0 0 14 14" id="icon-pagination-prev">
    <path
      d="M13 6.028H3.41l4.3-4.307a1.011 1.011 0 000-1.426 1.001 1.001 0 00-1.42 0l-6 6.024a1.007 1.007 0 000 1.416l6 6.024a.997.997 0 001.358-.053c.37-.37.392-.965.052-1.363L3.41 8.036H13c.552 0 1-.45 1-1.004 0-.555-.448-1.004-1-1.004z"
    />
  </symbol>
  <symbol id="icon-dropdown" viewBox="1.35 5.7 21.6 12.58">
    <path
      d="M12.186 18.285c-.451-.009-.809-.167-1.075-.441l-9.337-9.6a1.527 1.527 0 01-.424-.999v-.108c.015-.386.166-.741.424-1.008.56-.573 1.529-.57 2.082 0l8.294 8.53 8.292-8.532c.558-.57 1.526-.57 2.08 0 .265.27.416.629.428 1.01v.087c-.012.391-.165.75-.427 1.02l-9.333 9.6a1.443 1.443 0 01-1.004.441"
    />
  </symbol>
  <symbol viewBox="0 0 20 18" id="icon-cta">
    <path
      d="M19.704 8.29L11.706.293a1.004 1.004 0 00-1.42 1.419L16.586 8H1a1 1 0 000 1.998h15.585l-6.298 6.287a1 1 0 000 1.42 1.001 1.001 0 001.42 0l7.997-7.996a1 1 0 000-1.42z"
    />
  </symbol>
</svg>
