<?xml version="1.0" encoding="utf-8"?>
<svg xmlns="http://www.w3.org/2000/svg">
   <symbol viewBox="0 0 15 15" id="icon-arrow-move">
        <path d="M14.704 13.29L3.48 2h9.516a1 1 0 000-2H1a1 1 0 00-1 1v12a1 1 0 002 0V3.35l11.285 11.36a.999.999 0 00.71.29.999.999 0 00.71-1.71z"></path>
    </symbol>

    <symbol viewBox="0 0 20 18" id="icon-arrow-left">
        <path d="M19 8H3.415l6.298-6.287a1.002 1.002 0 00-.45-1.679 1.003 1.003 0 00-.97.26L.297 8.29a1 1 0 000 1.419l7.998 7.995a1.001 1.001 0 001.42 0 1 1 0 000-1.419L3.414 9.999H19a1 1 0 000-2z"></path>
    </symbol>
     <symbol viewBox="0 0 20 18" id="icon-arrow-right">
        <path d="M19.704 8.29L11.706.293a1.004 1.004 0 00-1.42 1.419L16.586 8H1a1 1 0 000 1.998h15.585l-6.298 6.287a1 1 0 000 1.42 1.001 1.001 0 001.42 0l7.997-7.996a1 1 0 000-1.42z"></path>
    </symbol>
    <symbol viewBox="0 0 10 10" id="icon-arrow-right-extra-small">
        <path d="M9.946 5.253a.71.71 0 00-.157-.776L5.502.207A.717.717 0 004.49.21a.71.71 0 00.003 1.007l3.073 3.054H.715A.713.713 0 000 4.983c0 .393.32.711.715.711h6.852L4.494 8.748a.71.71 0 00.298 1.232.716.716 0 00.71-.229l4.287-4.27a.712.712 0 00.157-.228z"></path>
    </symbol>
    <symbol viewBox="0 0 18 10" id="icon-chevron-down">
        <path d="M9 10a.999.999 0 01-.71-.29L.294 1.714a1.003 1.003 0 111.42-1.42L9 7.591 16.287.294a1.004 1.004 0 011.42 1.42L9.71 9.71A.999.999 0 019 10z"></path>
    </symbol>
    <symbol viewBox="0 0 9 5" id="icon-chevron-down-extra-small">
        <path d="M8.813.184a.656.656 0 00-.906 0l-3.406 3.31-3.4-3.31a.658.658 0 00-.912 0 .615.615 0 000 .887l3.856 3.747c.25.243.655.243.906 0l3.856-3.747a.616.616 0 00.006-.887z"></path>
    </symbol>
    <symbol viewBox="0 0 10 18" id="icon-chevron-left">
        <path d="M8.995 18a1.002 1.002 0 01-.709-.29L.296 9.712a1.002 1.002 0 010-1.42L8.286.294a1.002 1.002 0 111.418 1.42l-7.29 7.288 7.29 7.288A1.002 1.002 0 018.995 18z"></path>
    </symbol>
    <symbol viewBox="0 0 10 18" id="icon-chevron-right">
        <path d="M1.005 18A.997.997 0 010 17c0-.267.107-.522.296-.71l7.29-7.288-7.29-7.288A1.003 1.003 0 011.714.294l7.99 7.998a1.002 1.002 0 010 1.42l-7.99 7.998a.997.997 0 01-.71.29z"></path>
    </symbol>
    <symbol viewBox="0 0 18 10" id="icon-chevron-up">
        <path d="M16.995 9.996a1.003 1.003 0 01-.71-.29L8.999 2.414 1.713 9.706a1.004 1.004 0 01-1.42-1.418L8.29.296a1 1 0 011.42 0l7.995 7.992a1 1 0 01-.71 1.708z"></path>
    </symbol>
     <symbol viewBox="0 0 9 5" id="icon-chevron-up-extra-small">
        <path d="M8.8131 4.8163C8.56245 5.05848 8.15764 5.05848 7.90699 4.8163L4.50105 1.50583L1.10153 4.8163C0.849539 5.06123 0.440982 5.06123 0.188992 4.8163C-0.0629975 4.57138 -0.0629975 4.17427 0.188992 3.92935L4.04478 0.181635C4.29543 -0.0605447 4.70024 -0.0605447 4.95089 0.181635L8.80668 3.92935C8.92919 4.04579 8.99878 4.20498 8.99998 4.37152C9.00119 4.53807 8.93391 4.69819 8.8131 4.8163Z"/>
    </symbol>
    <symbol id="icon-arrow-right-bold" viewBox="1.2 2.1 22 21">
        <path d="M11.704 22.098a1.48 1.48 0 01-1.02-.386 1.38 1.38 0 01-.413-.996c0-.375.146-.721.415-.978.411-.397 5.078-4.857 6.494-6.21H2.706c-1.035 0-1.506-.726-1.506-1.4 0-.679.471-1.406 1.506-1.406h14.472c-1.42-1.353-6.02-5.736-6.497-6.213-.292-.291-.445-.635-.442-.996a1.37 1.37 0 01.447-.975c.501-.479 1.354-.681 2.037.003.561.56 9.765 9.334 9.856 9.423l.173.163-.172.162c-.093.09-9.407 8.985-9.86 9.422-.264.258-.639.387-1.016.387"></path>
    </symbol>
    <symbol id="icon-chevron-up-bold" viewBox="1.2 5.7 21.6 12.58">
        <path d="M11.964 5.7c.451.009.809.166 1.075.441l9.336 9.6c.259.268.41.622.425.999v.108a1.528 1.528 0 01-.425 1.008c-.559.573-1.528.57-2.081 0L12 9.326l-8.292 8.531c-.558.57-1.525.57-2.08 0a1.507 1.507 0 01-.428-1.009v-.087c.012-.392.165-.75.428-1.02l9.332-9.6a1.443 1.443 0 011.004-.441"></path>
    </symbol>
    <symbol id="icon-chevron-down-bold" viewBox="1.35 5.7 21.6 12.58">
        <path d="M12.186 18.285c-.451-.009-.809-.167-1.075-.441l-9.337-9.6a1.527 1.527 0 01-.424-.999v-.108c.015-.386.166-.741.424-1.008.56-.573 1.529-.57 2.082 0l8.294 8.53 8.292-8.532c.558-.57 1.526-.57 2.08 0 .265.27.416.629.428 1.01v.087c-.012.391-.165.75-.427 1.02l-9.333 9.6a1.443 1.443 0 01-1.004.441"></path>
    </symbol>
    <symbol viewBox="0 0 14 8" id="icon-chevron-down-small">
        <path d="M13.71.294a1 1 0 00-1.41 0L7.002 5.59 1.713.294A1.004 1.004 0 00.294 1.713l5.998 5.996a1 1 0 001.41 0l5.997-5.996a1 1 0 00.01-1.42z"></path>
    </symbol>
    <symbol viewBox="0 0 8 14" id="icon-chevron-left-small">
        <path d="M7.004 14a.999.999 0 01-.71-.291L.29 7.683a1.007 1.007 0 010-1.416L6.293.241a.998.998 0 011.359.053c.37.371.392.965.052 1.364L2.412 6.97l5.292 5.313c.287.286.375.717.221 1.093a1 1 0 01-.921.624z"></path>
    </symbol>
    <symbol viewBox="0 0 8 14" id="icon-chevron-right-small">
        <path d="M1.005 14a1 1 0 01-.71-1.71l5.296-5.288L.296 1.714A1.004 1.004 0 011.714.294L7.71 6.292a1 1 0 010 1.41L1.714 13.7a.999.999 0 01-.709.3z"></path>
    </symbol>
    <symbol viewBox="0 0 14 8" id="icon-chevron-up-small">
        <path d="M13 8a1.006 1.006 0 01-.714-.29L6.972 2.404 1.658 7.71c-.399.34-.993.317-1.364-.053a.999.999 0 01-.052-1.359L6.269.291a1.007 1.007 0 011.416 0l6.028 6.007a.999.999 0 01.21 1.087c-.156.37-.52.613-.923.615z"></path>
    </symbol>
    <symbol viewBox="0 0 14 14" id="icon-arrow-left-small">
        <path d="M13 6.028H3.41l4.3-4.307a1.011 1.011 0 000-1.426 1.001 1.001 0 00-1.42 0l-6 6.024a1.007 1.007 0 000 1.416l6 6.024a.997.997 0 001.358-.053c.37-.37.392-.965.052-1.363L3.41 8.036H13c.552 0 1-.45 1-1.004 0-.555-.448-1.004-1-1.004z"></path>
    </symbol>
    <symbol viewBox="0 0 11 11" id="icon-arrow-move-small">
        <path d="M10.768 9.34l-7.34-7.33H9.05a1.005 1.005 0 000-2.01H1.005C.45 0 0 .45 0 1.005V9.05a1.005 1.005 0 002.01 0v-5.62l7.33 7.33a1.005 1.005 0 001.418-1.418h.01z"></path>
    </symbol>
    <symbol viewBox="0 0 14 14" id="icon-arrow-right-small">
        <path d="M13.925 7.354a.994.994 0 00-.22-1.086L7.703.29a1.004 1.004 0 00-1.416.005.994.994 0 00.005 1.41l4.302 4.274H1c-.552 0-1 .446-1 .997 0 .55.448.996 1 .996h9.594l-4.302 4.275a.994.994 0 00.417 1.725c.365.088.75-.036.994-.32l6.002-5.979c.093-.09.168-.2.22-.319z"></path>
    </symbol>
 </svg>