<?xml version="1.0" encoding="utf-8"?>
<svg xmlns="http://www.w3.org/2000/svg">
    <symbol viewBox="0 0 58 58" id="icon-bank-large">
        <path d="M55.5 53a2.5 2.5 0 110 5h-53a2.5 2.5 0 110-5h53zm-6-8a2.5 2.5 0 110 5h-41a2.5 2.5 0 110-5h41zM15 19v23h-5V19h5zm11 0v23h-5V19h5zm11 0v23h-5V19h5zm11 0v23h-5V19h5zM30.213.308l20.51 11c2.29 1.228 1.418 4.703-1.182 4.703H8.521c-2.599 0-3.472-3.475-1.18-4.703l20.509-11a2.5 2.5 0 012.363 0zm-1.181 5.04l-10.56 5.663h21.119L29.03 5.348z"></path>
    </symbol>
     <symbol viewBox="0 0 58 60" id="icon-calendar-large">
        <path fill-rule="evenodd" d="M43 .983a3 3 0 013 3l-.001 3.01 9.496.001A2.5 2.5 0 0157.99 9.33l.005.164v47.007a2.5 2.5 0 01-2.5 2.5H2.505a2.5 2.5 0 01-2.5-2.5V9.494a2.5 2.5 0 012.5-2.5h9.494L12 3.983a3 3 0 016 0l-.001 3.01h22L40 3.984a3 3 0 013-3zM52.993 22H5.004L5.005 54h47.989L52.993 22zM17 26a2 2 0 012 2v6a2 2 0 01-2 2h-6a2 2 0 01-2-2v-6a2 2 0 012-2h6zm15 0a2 2 0 012 2v6a2 2 0 01-2 2h-6a2 2 0 01-2-2v-6a2 2 0 012-2h6zm15 0a2 2 0 012 2v6a2 2 0 01-2 2h-6a2 2 0 01-2-2v-6a2 2 0 012-2h6z"></path>
    </symbol>
     <symbol viewBox="0 0 57 57" id="icon-cart-large">
        <path fill-rule="evenodd" d="M18.223 42.106A7.502 7.502 0 0126.563 47h12.881a7.5 7.5 0 110 5H26.563a7.502 7.502 0 01-14.573-2.5 7.502 7.502 0 016.233-7.393zM46.505 47a2.5 2.5 0 100 5 2.5 2.5 0 000-5zm-27.003 0a2.5 2.5 0 10-.001 5 2.5 2.5 0 000-5zM8.502 0c1.152 0 2.157.789 2.428 1.91l1.966 8.089h41.611a2.504 2.504 0 011.95.93c.463.584.642 1.342.49 2.07l-5 23a2.502 2.502 0 01-2.44 2H16.501a2.5 2.5 0 01-2.46-1.91L6.5 5h-4A2.5 2.5 0 012.5 0zm5.606 14.989l4.374 18.01h29.004l3.92-18-37.298-.01z"></path>
    </symbol>
    <symbol viewBox="0 0 58 53" id="icon-chat-large">
        <path d="M49 0a9 9 0 019 8.999v23.996c0 4.631-3.5 8.446-8 8.943v6.054c0 4.025-4.515 6.4-7.833 4.12l-14.72-10.119H9a9 9 0 01-9-8.998V8.999A9 9 0 019 0h40zm0 5H9a4 4 0 00-4 3.999v23.996a4 4 0 004 3.999h20l16 10.998V36.994h4a4 4 0 004-4V9a4 4 0 00-4-4zM15 15.996a5 5 0 110 10 5 5 0 010-10zm14 0a5 5 0 110 10 5 5 0 010-10zm14 0a5 5 0 110 10 5 5 0 010-10z"></path>
    </symbol>
    <symbol viewBox="0 0 58 46" id="icon-credit-card-large">
        <path fill-rule="evenodd" d="M55.5 0C56.88 0 58 1.118 58 2.498v41.004C58 44.882 56.88 46 55.5 46h-53A2.499 2.499 0 010 43.502V2.498C0 1.118 1.12 0 2.5 0zm-2.502 22.982H5v18.023h47.998V22.982zm0-17.987H5.001L5 10.994h47.998v-6z"></path>
    </symbol>
     <symbol viewBox="0 0 58 58" id="icon-event-large">
        <path fill-rule="evenodd" d="M42.182 13.12h13.182A2.64 2.64 0 0158 15.76v10.56a2.64 2.64 0 01-2.636 2.64h-2.637v26.4A2.64 2.64 0 0150.091 58H7.909a2.639 2.639 0 01-2.636-2.64v-26.4H2.636A2.639 2.639 0 010 26.32V15.76c0-1.457 1.18-2.64 2.636-2.64h13.182a7.928 7.928 0 01.264-10.877 8.084 8.084 0 0111.178 0 11.75 11.75 0 011.872 2.508 11.75 11.75 0 011.872-2.508 8.084 8.084 0 0111.178 0 7.928 7.928 0 010 10.877zm-4.013-7.017a2.636 2.636 0 00-3.58-.137 14.694 14.694 0 00-2.953 7.154 15.323 15.323 0 006.67-3.432 2.645 2.645 0 00-.137-3.585zm-18.502-.137a2.632 2.632 0 013.718 0 14.567 14.567 0 012.979 7.154 15.257 15.257 0 01-6.697-3.405 2.639 2.639 0 01.027-3.75h-.027zm11.97 46.754h15.818V28.96H31.636v23.76zm-5.273 0H10.545V28.96h15.819v23.76zM5.273 23.68h47.454V18.4H5.273v5.28z"></path>
    </symbol>
    <symbol viewBox="0 0 58 58" id="icon-gift-large">
        <path fill-rule="evenodd" d="M42.182 13.12h13.182A2.64 2.64 0 0158 15.76v10.56a2.64 2.64 0 01-2.636 2.64h-2.637v26.4A2.64 2.64 0 0150.091 58H7.909a2.639 2.639 0 01-2.636-2.64v-26.4H2.636A2.639 2.639 0 010 26.32V15.76c0-1.457 1.18-2.64 2.636-2.64h13.182a7.928 7.928 0 01.264-10.877 8.084 8.084 0 0111.178 0 11.75 11.75 0 011.872 2.508 11.75 11.75 0 011.872-2.508 8.084 8.084 0 0111.178 0 7.928 7.928 0 010 10.877zm-4.013-7.017a2.636 2.636 0 00-3.58-.137 14.694 14.694 0 00-2.953 7.154 15.323 15.323 0 006.67-3.432 2.645 2.645 0 00-.137-3.585zm-18.502-.137a2.632 2.632 0 013.718 0 14.567 14.567 0 012.979 7.154 15.257 15.257 0 01-6.697-3.405 2.639 2.639 0 01.027-3.75h-.027zm11.97 46.754h15.818V28.96H31.636v23.76zm-5.273 0H10.545V28.96h15.819v23.76zM5.273 23.68h47.454V18.4H5.273v5.28z"></path>
    </symbol>
     <symbol viewBox="0 0 64 64" id="icon-fingerprint-large">
        <path d="M28.089 46.943a35.656 35.656 0 008.891 11.593 2.672 2.672 0 01.283 3.768 2.673 2.673 0 01-3.767.28 40.873 40.873 0 01-10.218-13.323 2.67 2.67 0 014.81-2.318zm3.417-37.412c12.07 0 21.894 9.823 21.894 21.894 0 3.417 2.539 6.37 5.908 6.864a2.668 2.668 0 012.254 3.03c-.214 1.459-1.58 2.487-3.03 2.254-5.97-.878-10.472-6.1-10.472-12.148 0-9.129-7.426-16.554-16.554-16.554-9.129 0-16.554 7.425-16.554 16.554 0 9.302 2.787 18.241 8.06 25.845a2.67 2.67 0 01-2.192 4.192 2.67 2.67 0 01-2.197-1.148c-5.895-8.501-9.011-18.49-9.011-28.89 0-12.07 9.82-21.893 21.894-21.893zm0 19.224a2.671 2.671 0 012.67 2.67c0 9.521 5.172 18.3 13.502 22.909a2.667 2.667 0 011.044 3.628 2.673 2.673 0 01-3.628 1.044 31.527 31.527 0 01-16.258-27.58 2.67 2.67 0 012.67-2.67zm0-9.612c6.772 0 12.28 5.508 12.28 12.282a16.52 16.52 0 0011.323 15.713 2.668 2.668 0 011.696 3.372 2.672 2.672 0 01-3.372 1.695 21.849 21.849 0 01-14.987-20.78c0-3.829-3.113-6.942-6.94-6.942a6.949 6.949 0 00-6.941 6.942c0 2.56.27 5.118.803 7.599a2.668 2.668 0 01-2.045 3.172 2.668 2.668 0 01-3.175-2.046 41.51 41.51 0 01-.923-8.725c0-6.774 5.508-12.282 12.282-12.282zm-23.77-8.409a2.668 2.668 0 114.026 3.506A26.16 26.16 0 005.34 31.424c0 1.042.03 2.078.088 3.103a2.672 2.672 0 01-2.67 2.822 2.669 2.669 0 01-2.662-2.518A60.038 60.038 0 010 31.424a31.502 31.502 0 017.735-20.69zm47.08-.512a31.43 31.43 0 018.195 21.203 2.67 2.67 0 11-5.34 0c0-6.534-2.416-12.79-6.803-17.611a2.668 2.668 0 113.949-3.591zm-7.645-6.144a2.67 2.67 0 01.988 3.644 2.676 2.676 0 01-3.642.988c-8.068-4.627-18.625-4.499-26.585.331a2.663 2.663 0 01-3.666-.894 2.664 2.664 0 01.895-3.666c9.588-5.829 22.289-5.978 32.01-.403z"></path>
    </symbol>
     <symbol viewBox="0 0 42 59" id="icon-location-large">
        <path d="M21 1c11.598 0 21 9.402 21 21 0 4.99-1.231 8.65-3.927 12.507l-.572.79-3.905 4.768c-2.029 2.503-4.307 5.377-5.45 7.062-1.328 1.957-2.91 5.288-4.695 9.939-.86 2.242-4.03 2.247-4.899.008l-.718-1.812c-1.53-3.77-2.893-6.53-4.056-8.248l-.776-1.094C10.255 42.171 4.69 35.54 4.45 35.218l-.523-.725C1.231 30.644 0 26.991 0 22 0 10.402 9.402 1 21 1zm0 5.25C12.302 6.25 5.25 13.302 5.25 22c0 3.855.875 6.484 2.978 9.482l.437.606c.103.138 6.194 7.392 8.967 11.275l.492.707c.793 1.17 1.622 2.659 2.493 4.47l.375.796.367-.778c.85-1.77 1.662-3.229 2.443-4.38l.512-.732c2.794-3.902 8.877-11.148 9.018-11.339l.437-.607c2.104-3.006 2.981-5.644 2.981-9.5 0-8.698-7.052-15.75-15.75-15.75zm0 5.25c5.799 0 10.5 4.701 10.5 10.5S26.799 32.5 21 32.5 10.5 27.799 10.5 22 15.201 11.5 21 11.5zm0 5.25a5.25 5.25 0 100 10.5 5.25 5.25 0 000-10.5z"></path>
    </symbol>
     <symbol viewBox="0 0 58 48" id="icon-messages-large">
        <path d="M55.364 0H2.636C1.937 0 1.266.28.772.781A2.68 2.68 0 000 2.667v42.666c0 .707.277 1.387.772 1.886A2.617 2.617 0 002.636 48h52.728c.7 0 1.37-.28 1.864-.781A2.68 2.68 0 0058 45.333V2.667A2.68 2.68 0 0057.228.78 2.618 2.618 0 0055.364 0zm-2.637 5.333v37.334H5.273V5.333h47.454zM29 32c-.7 0-1.37-.283-1.864-.781l-15.818-16a2.688 2.688 0 01.008-3.763 2.615 2.615 0 013.72-.008L29 25.563l13.954-14.115a2.613 2.613 0 013.728 0 2.688 2.688 0 010 3.77l-15.818 16A2.627 2.627 0 0129 32z"></path>
    </symbol>
    <symbol viewBox="0 0 60 56" id="icon-purchases-large">
        <path d="M55 25H38.791c-4.527 0-8.48 3.417-8.772 7.936A8.5 8.5 0 0038.5 42H55v8H9.5A3.5 3.5 0 016 46.5V16.25a8.48 8.48 0 003.5.75H55v8zm0 12H38.698c-1.895 0-3.594-1.418-3.693-3.311A3.5 3.5 0 0138.5 30H55v7zM6 8.39c.004-.052.021-.101.026-.154C6.164 6.43 7.657 5 9.5 5H50v7H9.5a3.487 3.487 0 01-1.365-.276l-.021-.012a3.361 3.361 0 01-.577-.316c-.08-.053-.149-.124-.225-.184-.102-.083-.208-.16-.3-.254l-.027-.021c-.069-.073-.121-.157-.183-.233-.076-.093-.156-.181-.223-.281-.062-.096-.11-.2-.163-.301-.054-.101-.112-.2-.156-.308-.045-.112-.073-.23-.108-.346-.03-.105-.065-.205-.086-.314-.026-.134-.032-.273-.042-.412C6.019 8.66 6 8.583 6 8.5c0-.016.004-.03.005-.045 0-.021-.006-.043-.005-.065zM57.5 12H55V2c0-1.103-.896-2-2-2H9.75A8.691 8.691 0 001 8.24v38.23A8.51 8.51 0 009.5 55h48a2.5 2.5 0 002.5-2.5v-38a2.5 2.5 0 00-2.5-2.5z"></path>
    </symbol>
     <symbol viewBox="0 0 57 57" id="icon-search-large">
        <path d="M41.095 37.546l15.17 15.17a2.51 2.51 0 11-3.55 3.549l-15.169-15.17A22.993 22.993 0 0123.09 46.18C10.338 46.18 0 35.842 0 23.09S10.338 0 23.09 0s23.09 10.338 23.09 23.09c0 5.472-1.904 10.5-5.085 14.456zM23.09 41.16c9.98 0 18.07-8.09 18.07-18.07S33.07 5.02 23.09 5.02 5.02 13.11 5.02 23.09s8.09 18.07 18.07 18.07z"></path>
    </symbol>
     <symbol viewBox="0 0 57 58" id="icon-store-large">
        <path fill-rule="evenodd" d="M47.551 0c.8 0 1.55.382 2.02 1.027l7.937 10.888c.285.383.463.851.489 1.36l.001.051c.002.026.002.052.002.078v7.68c0 .398-.096.792-.279 1.147a9.368 9.368 0 01-2.71 3.191v30.08A2.499 2.499 0 0152.51 58H5.454a2.499 2.499 0 01-2.5-2.499l-.001-30.107A9.36 9.36 0 01.28 22.231 2.49 2.49 0 010 21.083v-7.68c0-.565.188-1.086.505-1.505L8.43 1.028A2.498 2.498 0 0110.45 0h37.101zM42.25 25.03c-1.772 1.52-4.108 2.392-6.624 2.392-1.669 0-3.258-.384-4.656-1.085v26.665h19.04l.001-25.64c-.373.04-.752.06-1.135.06-2.517 0-4.853-.872-6.626-2.392zM25.97 46.967H7.953v6.036l18.017-.001v-6.035zM15.75 25.03c-1.772 1.52-4.108 2.392-6.625 2.392-.395 0-.787-.022-1.172-.064V41.97H25.97V26.794a10.486 10.486 0 01-3.595.628c-2.516 0-4.852-.873-6.625-2.392zm28.57 4.947a2.65 2.65 0 012.651 2.649v4.697a2.65 2.65 0 01-2.65 2.649h-7.7a2.648 2.648 0 01-2.65-2.649v-4.697a2.648 2.648 0 012.65-2.649h7.7zM53 15.902H5v4.5c.875 1.276 2.378 2.022 4.125 2.022 1.952 0 3.598-.93 4.405-2.488a2.498 2.498 0 014.441 0c.807 1.558 2.453 2.488 4.404 2.488 1.952 0 3.598-.93 4.405-2.488a2.498 2.498 0 014.441 0c.806 1.558 2.454 2.488 4.405 2.488 1.95 0 3.597-.93 4.403-2.488a2.5 2.5 0 014.442-.001c.806 1.559 2.454 2.49 4.405 2.49 1.747 0 3.25-.747 4.124-2.022v-4.5zM46.28 4.997H11.721l-4.307 5.908h43.17L46.28 4.997z"></path>
    </symbol>
    <symbol viewBox="0 0 58 53" id="icon-text-messaging-large">
        <path fill-rule="evenodd" d="M49 0a9 9 0 019 8.999v23.996c0 4.614-3.474 8.418-7.95 8.938l-.05.004v6.055c0 3.956-4.36 6.318-7.66 4.234l-.173-.114-14.72-10.119H9A9 9 0 01.004 33.26L0 32.995V8.999A9 9 0 019 0zm0 5H9a4 4 0 00-4 3.999v23.996a4 4 0 004 3.999h20l16 10.998V36.994h4a4 4 0 004-4V9a4 4 0 00-4-4zM26.5 23.995a2.5 2.5 0 010 5h-14a2.5 2.5 0 010-5h14zm19-10.998a2.5 2.5 0 010 5h-33a2.5 2.5 0 110-5h33z"></path>
    </symbol>
    <symbol viewBox="0 0 61 43" id="icon-watch-large">
        <path fill-rule="evenodd" d="M60.49 22.004L45.487 2.327a5.842 5.842 0 00-10.491 3.52v.66a2.5 2.5 0 005 0v-.66a.84.84 0 011.52-.51L53.45 21.003H39.446a6.5 6.5 0 00-6.41 5.469 7.363 7.363 0 00-5.181 0 6.5 6.5 0 00-6.361-5.47H7.49L19.473 5.337a.84.84 0 011.52.51v.66a2.5 2.5 0 005.001 0v-.66a5.842 5.842 0 00-10.492-3.54L.5 22.005a2.499 2.499 0 002 3.999h.49V36.5A6.51 6.51 0 009.493 43h10.001a8.51 8.51 0 008.502-8.499v-1a2.5 2.5 0 015 0v1A8.51 8.51 0 0041.497 43h10.001A6.51 6.51 0 0058 36.501V26.003h.5a2.5 2.5 0 002-4h-.01zM22.994 34.5a3.5 3.5 0 01-3.5 3.5H9.491a1.5 1.5 0 01-1.5-1.5V26.003h13.502a1.5 1.5 0 011.5 1.5V34.5zm30.005 2a1.5 1.5 0 01-1.5 1.5H41.496a3.5 3.5 0 01-3.5-3.5v-6.998a1.5 1.5 0 011.5-1.5h13.502V36.5z"></path>
    </symbol>
    <symbol viewBox="0 0 64 64" id="icon-pause-filled-large">
        <path fill-rule="evenodd" d="M32 0c17.673 0 32 14.327 32 32 0 17.673-14.327 32-32 32C14.327 64 0 49.673 0 32 0 14.327 14.327 0 32 0zm-8.57 16.93a2.5 2.5 0 00-2.5 2.5v25a2.5 2.5 0 105 0v-25a2.5 2.5 0 00-2.5-2.5zm17 0a2.5 2.5 0 00-2.5 2.5v25a2.5 2.5 0 105 0v-25a2.5 2.5 0 00-2.5-2.5z"></path>
    </symbol>
    <symbol viewBox="0 0 60 60" id="icon-pause-large">
        <path fill-rule="evenodd" d="M30 0c16.569 0 30 13.431 30 30 0 16.569-13.431 30-30 30C13.431 60 0 46.569 0 30 0 13.431 13.431 0 30 0zm0 4C15.64 4 4 15.64 4 30s11.64 26 26 26 26-11.64 26-26S44.36 4 30 4zm-8.5 11a2.5 2.5 0 012.5 2.5v25a2.5 2.5 0 11-5 0v-25a2.5 2.5 0 012.5-2.5zm17 0a2.5 2.5 0 012.5 2.5v25a2.5 2.5 0 11-5 0v-25a2.5 2.5 0 012.5-2.5z"></path>
    </symbol>
     <symbol viewBox="0 0 60 60" id="icon-play-filled-large">
        <path fill-rule="evenodd" d="M30 0l.497.004C46.836.269 60 13.597 60 30l-.004.496C59.731 46.836 46.403 60 30 60l-.496-.004C13.164 59.731 0 46.403 0 29.999 0 13.433 13.432 0 30 0zm-7.793 15.242c-1.103 0-2 .897-2 2v26.39a1.998 1.998 0 001.527 1.944 1.987 1.987 0 001.513-.234l21.111-12.854a2.004 2.004 0 00.041-3.392L23.287 15.559a1.989 1.989 0 00-1.08-.317z"></path>
    </symbol>
    <symbol viewBox="0 0 60 60" id="icon-play-large">
        <path d="M30 0c16.568 0 30 13.432 30 30 0 16.568-13.432 30-30 30C13.432 60 0 46.568 0 30 0 13.432 13.432 0 30 0zm0 4C15.664 4 4 15.664 4 30c0 14.337 11.664 26 26 26 14.337 0 26-11.663 26-26C56 15.664 44.337 4 30 4zm-7.724 11.311c.384 0 .757.11 1.08.317l21.112 13.538a2.003 2.003 0 01-.039 3.392L23.315 45.411a1.994 1.994 0 01-1.513.234 1.98 1.98 0 01-1.235-.903 1.99 1.99 0 01-.292-1.039V17.311c0-1.103.897-2 2-2z"></path>
    </symbol>
</svg>
