<?xml version="1.0" encoding="utf-8"?>
<svg xmlns="http://www.w3.org/2000/svg">
    <symbol viewBox="0 0 20 20" id="icon-add">
        <path d="M19 9h-8V1a1 1 0 00-2 0v8H1a1 1 0 000 2h8v8a1 1 0 002 0v-8h8a1 1 0 000-2z"></path>
    </symbol>
   <symbol id="icon-clear" viewBox="0 0 24 24">
        <path fill-rule="evenodd" d="M0 12C0 5.373 5.373 0 12 0c3.183 0 6.235 1.264 8.485 3.515A11.996 11.996 0 0124 12c0 6.627-5.373 12-12 12S0 18.627 0 12zm17.968 5.233a.996.996 0 00-.32-.989l-4.277-4.27 4.267-4.272a.995.995 0 10-1.403-1.404l-4.267 4.272-4.267-4.281a.998.998 0 10-1.413 1.413l4.278 4.271-4.268 4.281a.995.995 0 101.403 1.404l4.267-4.281 4.278 4.27a.994.994 0 001.722-.414z"/>
    </symbol>
    <symbol viewBox="0 0 22 22" id="icon-edit">
        <path fill-rule="evenodd" d="M15.206 1.166a3.98 3.98 0 115.628 5.628L6.976 20.653a.996.996 0 01-.51.272L1.192 21.98A.995.995 0 01.02 20.81l1.055-5.277a.998.998 0 01.272-.509L15.206 1.166zM16.613 8.2L5.356 19.46l-3.518.703.703-3.518L13.799 5.387l2.814 2.814zm2.814-5.628a1.99 1.99 0 00-2.814 0L15.206 3.98l2.814 2.814 1.407-1.407a1.99 1.99 0 000-2.814z" />
    </symbol>
     <symbol viewBox="0 0 20 2" id="icon-remove">
        <path d="M19 0H1a1 1 0 000 2h18a1 1 0 000-2z"></path>
    </symbol>
    <symbol viewBox="0 0 14 14" id="icon-add-small">
        <path d="M13 6H8V1a1 1 0 10-2 0v5H1a1 1 0 100 2h5v5a1 1 0 002 0V8h5a1 1 0 000-2z"></path>
    </symbol>
   <symbol viewBox="0 0 16 16" id="icon-clear-small">
        <path d="M8 0a8 8 0 100 16A8 8 0 008 0zm3.71 10.29a1 1 0 11-1.41 1.41L8 9.41l-2.29 2.3A1 1 0 014.3 10.3L6.59 8l-2.3-2.29a1.004 1.004 0 011.42-1.42L8 6.59l2.29-2.29a1 1 0 011.41 1.41L9.41 8l2.3 2.29z"></path>
    </symbol>
    <symbol viewBox="0 0 16 16" id="icon-edit-small">
        <path d="M15.087.912a3.127 3.127 0 00-4.414 0l-9.38 9.38a1.001 1.001 0 00-.263.465l-1 4a1 1 0 001.212 1.213l4-1c.176-.044.337-.135.465-.263l9.38-9.38a3.125 3.125 0 000-4.415zm-1.415 1.414c.437.438.438 1.148.001 1.586l-.672.672-1.586-1.586.672-.672a1.121 1.121 0 011.585 0zm-9.184 10.77l-2.114.53.53-2.115L10 4.413l1.586 1.586-7.099 7.097z"></path>
    </symbol>

</svg>