<svg viewBox="0 0 20 12" xmlns="http://www.w3.org/2000/svg">
  <path
    d="M0 2a2 2 0 0 1 2-2h16a2 2 0 0 1 2 2v8a2 2 0 0 1-2 2H2a2 2 0 0 1-2-2V2Z"
    fill="url(#ref-cb-12-colored)"
  />
  <path
    d="M10.763 2.55h4.672a1.632 1.632 0 1 1 0 3.265h-4.672V2.551Zm0 3.635h4.672a1.632 1.632 0 1 1 0 3.265h-4.672V6.185Zm-4.07 0v-.37h3.76a3.64 3.64 0 0 0-3.76-3.264A3.615 3.615 0 0 0 2.933 6a3.614 3.614 0 0 0 3.76 3.449 3.641 3.641 0 0 0 3.76-3.265h-3.76Z"
    fill="#fff"
  />
  <defs>
    <linearGradient
      id="ref-cb-12-colored"
      x1="20"
      y1="0"
      x2=".373"
      y2="13.142"
      gradientUnits="userSpaceOnUse"
    >
      <stop stop-color="#192660" />
      <stop offset=".223" stop-color="#1D5484" />
      <stop offset=".374" stop-color="#1C7E97" />
      <stop offset=".579" stop-color="#1C90A0" />
      <stop offset=".729" stop-color="#089760" />
      <stop offset="1" stop-color="#03944B" />
    </linearGradient>
  </defs>
</svg>
