<svg viewBox="0 0 38 24" xmlns="http://www.w3.org/2000/svg">
  <rect width="38" height="24" rx="2" fill="url(#ref-cb-24-colored)" />
  <path
    d="M32.461 8.519c0-.378-.069-.757-.218-1.124a2.749 2.749 0 0 0-.619-.928 2.426 2.426 0 0 0-.997-.62c-.356-.114-.849-.172-1.48-.172H20.8v5.71h8.348c.619 0 1.112-.057 1.479-.172.367-.114.688-.32.997-.619.275-.275.482-.573.62-.928.148-.39.217-.769.217-1.147Zm0 6.971c0-.378-.069-.757-.218-1.124a2.75 2.75 0 0 0-.619-.928 2.426 2.426 0 0 0-.997-.62c-.356-.114-.849-.171-1.48-.171H20.8v5.687h8.348c.619 0 1.112-.058 1.479-.172.367-.115.688-.321.997-.62.275-.275.482-.573.62-.928a2.99 2.99 0 0 0 .217-1.124ZM19.63 11.363c-.275-3.704-2.912-6.077-7.028-6.077-4.334 0-7.063 2.648-7.063 6.707 0 4.197 2.832 6.72 7.063 6.72 4.14 0 6.765-2.386 7.029-6.078h-7.12v-1.26h7.12v-.012Z"
    fill="#fff"
  />
  <defs>
    <linearGradient
      id="ref-cb-24-colored"
      x1="0"
      y1="5.32"
      x2="36.682"
      y2="24.229"
      gradientUnits="userSpaceOnUse"
    >
      <stop offset=".055" stop-color="#2B307A" />
      <stop offset=".172" stop-color="#2B569C" />
      <stop offset=".304" stop-color="#2B88C9" />
      <stop offset=".406" stop-color="#9EBBDD" />
      <stop offset=".493" stop-color="#E3D2D2" />
      <stop offset=".536" stop-color="#EFBCB8" />
      <stop offset=".616" stop-color="#E87A6E" />
      <stop offset=".691" stop-color="#D73F3B" />
      <stop offset=".946" stop-color="#CC191B" />
    </linearGradient>
  </defs>
</svg>
