<svg viewBox="0 0 50 32" xmlns="http://www.w3.org/2000/svg">
  <path
    d="M0 2a2 2 0 0 1 2-2h46a2 2 0 0 1 2 2v28a2 2 0 0 1-2 2H2a2 2 0 0 1-2-2V2Z"
    fill="url(#ref-cb-32-colored)"
  />
  <path
    d="M27.035 6.802h12.458a4.352 4.352 0 0 1 0 8.705H27.035V6.802Zm0 9.692h12.458a4.352 4.352 0 1 1 0 8.705H27.035v-8.705Zm-10.854 0v-.987h10.026a9.71 9.71 0 0 0-10.026-8.705A9.639 9.639 0 0 0 6.154 16a9.639 9.639 0 0 0 10.027 9.2 9.71 9.71 0 0 0 10.026-8.705H16.181Z"
    fill="#fff"
  />
  <defs>
    <linearGradient
      id="ref-cb-32-colored"
      x1="50"
      y1="0"
      x2="-.978"
      y2="32"
      gradientUnits="userSpaceOnUse"
    >
      <stop stop-color="#192660" />
      <stop offset=".223" stop-color="#1D5484" />
      <stop offset=".374" stop-color="#1C7E97" />
      <stop offset=".579" stop-color="#1C90A0" />
      <stop offset=".729" stop-color="#089760" />
      <stop offset="1" stop-color="#03944B" />
    </linearGradient>
  </defs>
</svg>
