<svg viewBox="0 0 30 18" xmlns="http://www.w3.org/2000/svg">
  <path
    d="M0 2a2 2 0 0 1 2-2h26a2 2 0 0 1 2 2v14a2 2 0 0 1-2 2H2a2 2 0 0 1-2-2V2Z"
    fill="url(#ref-cb-18-colored)"
  />
  <path
    d="M16.145 3.826h7.008a2.448 2.448 0 1 1 0 4.896h-7.008V3.826Zm0 5.451h7.008a2.448 2.448 0 1 1 0 4.897h-7.008V9.277Zm-6.106 0v-.555h5.64a5.461 5.461 0 0 0-5.64-4.896A5.422 5.422 0 0 0 4.4 9a5.422 5.422 0 0 0 5.64 5.174 5.461 5.461 0 0 0 5.64-4.897h-5.64Z"
    fill="#fff"
  />
  <defs>
    <linearGradient
      id="ref-cb-18-colored"
      x1="30"
      y1="0"
      x2=".56"
      y2="19.712"
      gradientUnits="userSpaceOnUse"
    >
      <stop stop-color="#192660" />
      <stop offset=".223" stop-color="#1D5484" />
      <stop offset=".374" stop-color="#1C7E97" />
      <stop offset=".579" stop-color="#1C90A0" />
      <stop offset=".729" stop-color="#089760" />
      <stop offset="1" stop-color="#03944B" />
    </linearGradient>
  </defs>
</svg>
