<svg viewBox="0 0 20 20" xmlns="http://www.w3.org/2000/svg">
  <path
    d="M11.013 1.819c-.234-1.092-1.792-1.092-2.026 0L8.306 4.99A4.317 4.317 0 0 1 4.99 8.306l-3.172.681c-1.092.234-1.092 1.792 0 2.026l3.172.681a4.317 4.317 0 0 1 3.315 3.315l.681 3.172c.234 1.092 1.792 1.092 2.026 0l.681-3.172a4.317 4.317 0 0 1 3.315-3.315l3.172-.681c1.092-.234 1.092-1.792 0-2.026l-3.172-.681a4.317 4.317 0 0 1-3.315-3.315l-.681-3.172Z"
    fill="url(#ref-ai-spectrum-filled-20-colored)"
  />
  <defs>
    <linearGradient
      id="ref-ai-spectrum-filled-20-colored"
      x1="26.984"
      y1="14.065"
      x2="14.21"
      y2="27.71"
      gradientUnits="userSpaceOnUse"
    >
      <stop offset=".098" stop-color="#FFD80E" />
      <stop offset=".267" stop-color="#FF4242" />
      <stop offset=".418" stop-color="#993EE0" />
      <stop offset=".562" stop-color="#0968F6" />
      <stop offset=".785" stop-color="#4EE04B" />
    </linearGradient>
  </defs>
</svg>
