<svg viewBox="0 0 38 24" xmlns="http://www.w3.org/2000/svg">
  <path
    d="M0 2a2 2 0 0 1 2-2h34a2 2 0 0 1 2 2v20a2 2 0 0 1-2 2H2a2 2 0 0 1-2-2V2Z"
    fill="url(#ref-cb-24-colored)"
  />
  <path
    d="M20.526 5.1h9.344a3.264 3.264 0 1 1 0 6.53h-9.344V5.1Zm0 7.27h9.344a3.264 3.264 0 1 1 0 6.528h-9.344V12.37Zm-8.14 0v-.74h7.52a7.282 7.282 0 0 0-7.52-6.53 7.229 7.229 0 0 0-7.52 6.9 7.229 7.229 0 0 0 7.52 6.898 7.282 7.282 0 0 0 7.52-6.528h-7.52Z"
    fill="#fff"
  />
  <defs>
    <linearGradient
      id="ref-cb-24-colored"
      x1="38"
      y1="0"
      x2="-.452"
      y2="24.459"
      gradientUnits="userSpaceOnUse"
    >
      <stop stop-color="#192660" />
      <stop offset=".223" stop-color="#1D5484" />
      <stop offset=".374" stop-color="#1C7E97" />
      <stop offset=".579" stop-color="#1C90A0" />
      <stop offset=".729" stop-color="#089760" />
      <stop offset="1" stop-color="#03944B" />
    </linearGradient>
  </defs>
</svg>
