<svg viewBox="0 0 50 32" xmlns="http://www.w3.org/2000/svg">
  <rect width="50" height="32" rx="2" fill="url(#ref-cb-32-colored)" />
  <path
    d="M42.948 11.36c0-.505-.092-1.01-.29-1.499a3.666 3.666 0 0 0-.826-1.238 3.235 3.235 0 0 0-1.33-.826c-.474-.153-1.131-.23-1.972-.23H27.4v7.614h11.13c.825 0 1.483-.076 1.972-.23.49-.152.917-.427 1.33-.825.367-.367.642-.764.825-1.238a4.23 4.23 0 0 0 .291-1.529Zm0 9.294a3.97 3.97 0 0 0-.29-1.498 3.666 3.666 0 0 0-.826-1.238 3.235 3.235 0 0 0-1.33-.826c-.474-.153-1.131-.23-1.972-.23H27.4v7.584h11.13c.825 0 1.483-.077 1.972-.23.49-.153.917-.428 1.33-.825.367-.367.642-.765.825-1.239.2-.489.291-.993.291-1.498ZM25.84 15.15c-.366-4.938-3.882-8.102-9.37-8.102-5.78 0-9.418 3.531-9.418 8.943 0 5.596 3.776 8.96 9.417 8.96 5.52 0 9.02-3.18 9.372-8.104h-9.494v-1.681h9.494v-.016Z"
    fill="#fff"
  />
  <defs>
    <linearGradient
      id="ref-cb-32-colored"
      x1="0"
      y1="7.093"
      x2="48.532"
      y2="31.782"
      gradientUnits="userSpaceOnUse"
    >
      <stop offset=".055" stop-color="#2B307A" />
      <stop offset=".172" stop-color="#2B569C" />
      <stop offset=".304" stop-color="#2B88C9" />
      <stop offset=".406" stop-color="#9EBBDD" />
      <stop offset=".493" stop-color="#E3D2D2" />
      <stop offset=".536" stop-color="#EFBCB8" />
      <stop offset=".616" stop-color="#E87A6E" />
      <stop offset=".691" stop-color="#D73F3B" />
      <stop offset=".946" stop-color="#CC191B" />
    </linearGradient>
  </defs>
</svg>
