<svg viewBox="0 0 24 24" xmlns="http://www.w3.org/2000/svg">
  <path
    fill-rule="evenodd"
    clip-rule="evenodd"
    d="m12 5.76-.115.538a7.276 7.276 0 0 1-5.587 5.587L5.76 12l.537.115a7.276 7.276 0 0 1 5.587 5.587l.115.537.115-.537a7.276 7.276 0 0 1 5.587-5.587L18.24 12l-.537-.115a7.276 7.276 0 0 1-5.587-5.587L12 5.76ZM13.238 2c-.286-1.334-2.19-1.333-2.476 0l-.833 3.878a5.277 5.277 0 0 1-4.051 4.051L2 10.762c-1.335.286-1.334 2.19 0 2.476l3.877.833a5.277 5.277 0 0 1 4.051 4.051L10.762 22c.286 1.334 2.19 1.334 2.476 0l.833-3.878a5.277 5.277 0 0 1 4.051-4.051L22 13.238c1.334-.286 1.334-2.19 0-2.476l-3.878-.833a5.277 5.277 0 0 1-4.051-4.051L13.238 2Z"
    fill="url(#ref-ai-spectrum-24-colored)"
  />
  <defs>
    <linearGradient
      id="ref-ai-spectrum-24-colored"
      x1="32.758"
      y1="16.968"
      x2="17.145"
      y2="33.645"
      gradientUnits="userSpaceOnUse"
    >
      <stop offset=".098" stop-color="#FFD80E" />
      <stop offset=".267" stop-color="#FF4242" />
      <stop offset=".418" stop-color="#993EE0" />
      <stop offset=".562" stop-color="#0968F6" />
      <stop offset=".785" stop-color="#4EE04B" />
    </linearGradient>
  </defs>
</svg>
