<?xml version="1.0" encoding="utf-8"?>
<svg xmlns="http://www.w3.org/2000/svg" xmlns:xlink="http://www.w3.org/1999/xlink">
    <symbol id="svg-icon-arrow-down" viewBox="0 0 32 32">
        <path d="M15.94 25.294l-15.473-17.229h30.953l-7.742 8.616z"></path>
    </symbol>
    <symbol id="svg-icon-arrow-up" viewBox="0 0 32 32">
        <path d="M16.002 8.509l-14.947 13.913v1.069h29.89v-1.069z"></path>
    </symbol>
    <symbol id="svg-icon-cart" viewBox="0 0 40 32">
        <path d="M39.727 7.727c-0.39-0.624-1.249-1.405-2.966-1.405-1.873-0.078-24.273 0-25.6 0l-1.951-5.229c-0.156-0.468-0.624-0.78-1.093-0.78h-6.634c-0.702 0-1.171 0.468-1.171 1.171s0.468 1.171 1.171 1.171h5.854l7.649 20.293c0.156 0.468 0.624 0.78 1.093 0.78h18.419c0 0 0 0 0 0 0.702 0 1.249-0.39 1.483-1.015 0.156-0.39 1.015-2.732 1.873-5.073 0.859-2.419 1.795-4.917 2.029-5.698 0.624-1.717 0.546-3.2-0.156-4.215zM37.698 11.083c-0.312 0.78-1.171 3.278-2.107 5.698-0.702 1.873-1.327 3.668-1.639 4.605h-17.093l-4.839-12.722c4.371 0 23.024 0 24.663 0 0.39 0 0.859 0.078 1.093 0.39 0.312 0.312 0.234 1.093-0.078 2.029z"></path>
        <path d="M19.902 29.112c0 1.595-1.293 2.888-2.888 2.888s-2.888-1.293-2.888-2.888c0-1.595 1.293-2.888 2.888-2.888s2.888 1.293 2.888 2.888z"></path>
        <path d="M36.761 29.112c0 1.595-1.293 2.888-2.888 2.888s-2.888-1.293-2.888-2.888c0-1.595 1.293-2.888 2.888-2.888s2.888 1.293 2.888 2.888z"></path>
    </symbol>
    <symbol id="svg-icon-check" viewBox="0 0 32 32">
        <path d="M27.813 4.037l-17.008 17.159-6.923-6.924-3.308 3.613 10.232 9.934 20.621-20.466-3.613-3.314z"></path>
    </symbol>
    <symbol id="svg-icon-checkbox" viewBox="0 0 32 32">
        <path class="unchecked" fill="currentColor" d="M25.107 32.030h-18.214c-3.456 0-6.268-2.81-6.268-6.264v-19.529c0-3.456 2.812-6.268 6.268-6.268h18.214c3.456 0 6.268 2.812 6.268 6.268v19.529c0 3.452-2.812 6.264-6.268 6.264zM6.893 1.85c-2.419 0-4.386 1.967-4.386 4.386v19.529c0 2.417 1.967 4.382 4.386 4.382h18.214c2.419 0 4.386-1.965 4.386-4.382v-19.529c0-2.419-1.967-4.386-4.386-4.386h-18.214z"></path>
        <path class="checked" d="M0.543 5.647c0-3.119 2.531-5.647 5.65-5.647h19.309c3.12 0 5.65 2.511 5.65 5.647v20.705c0 3.119-2.531 5.647-5.65 5.647h-19.309c-3.12 0-5.65-2.511-5.65-5.647v-20.705zM5.313 17.587l7.039 6.839 13.831-13.439-2.636-2.561-10.929 10.62-4.442-4.317-2.862 2.858z"></path>
    </symbol>
    <symbol id="svg-icon-checkbox-checked" viewBox="0 0 32 32">
        <path fill="#0654ba" d="M0.543 5.647c0-3.119 2.531-5.647 5.65-5.647h19.309c3.12 0 5.65 2.511 5.65 5.647v20.705c0 3.119-2.531 5.647-5.65 5.647h-19.309c-3.12 0-5.65-2.511-5.65-5.647v-20.705zM5.313 17.587l7.039 6.839 13.831-13.439-2.636-2.561-10.929 10.62-4.442-4.317-2.862 2.858z"></path>
    </symbol>
    <symbol id="svg-icon-checkbox-unchecked" viewBox="0 0 32 32">
        <path fill="#cccccc" d="M25.107 32.030h-18.214c-3.456 0-6.268-2.81-6.268-6.264v-19.529c0-3.456 2.812-6.268 6.268-6.268h18.214c3.456 0 6.268 2.812 6.268 6.268v19.529c0 3.452-2.812 6.264-6.268 6.264zM6.893 1.85c-2.419 0-4.386 1.967-4.386 4.386v19.529c0 2.417 1.967 4.382 4.386 4.382h18.214c2.419 0 4.386-1.965 4.386-4.382v-19.529c0-2.419-1.967-4.386-4.386-4.386h-18.214z"></path>
    </symbol>
    <symbol id="svg-icon-chevron-down" viewBox="0 0 32 32">
        <path d="M3.873 6.636l15.389 15.392-3.264 3.265-15.393-15.393 3.267-3.265zM12.734 22.029l15.393-15.393 3.267 3.265-15.394 15.393-3.265-3.265zM19.263 22.029v0zM15.999 25.294v0z"></path>
    </symbol>
    <symbol id="svg-icon-chevron-left" viewBox="0 0 32 32">
        <path d="M25.137 3.838l-15.393 15.389-3.265-3.264 15.393-15.393 3.265 3.267zM9.745 12.698l15.394 15.393-3.265 3.267-15.394-15.393 3.266-3.266zM9.745 19.227v0zM6.479 15.964v0z"></path>
    </symbol>
    <symbol id="svg-icon-chevron-right" viewBox="0 0 32 32">
        <path d="M7.060 27.985l15.291-15.288 3.244 3.242-15.291 15.291-3.245-3.245zM22.352 19.183l-15.291-15.291 3.245-3.244 15.292 15.292-3.244 3.244zM22.352 12.697v0zM25.596 15.94v0z"></path>
    </symbol>
    <symbol id="svg-icon-chevron-up" viewBox="0 0 32 32">
        <path d="M28.128 25.744l-15.389-15.393 3.263-3.265 15.392 15.394-3.267 3.264zM19.267 10.351l-15.393 15.393-3.267-3.265 15.394-15.393 3.265 3.265zM12.738 10.351v0zM16.002 7.086v0z"></path>
    </symbol>
    <symbol id="svg-icon-chevron-light-left" viewBox="4 0 32 32">
        <path d="M28.176 1.327c-0.468-0.468-1.249-0.468-1.717 0l-14.049 14.049c-0.234 0.234-0.39 0.546-0.39 0.859s0.156 0.624 0.39 0.859l13.581 13.581c0.234 0.234 0.546 0.39 0.859 0.39s0.624-0.156 0.859-0.39c0.468-0.468 0.468-1.249 0-1.717l-12.722-12.722 13.19-13.19c0.468-0.468 0.468-1.249 0-1.717z"></path>
    </symbol>
    <symbol id="svg-icon-chevron-light-right" viewBox="4 0 32 32">
        <path d="M12.41 1.327c0.468-0.468 1.249-0.468 1.717 0l14.049 14.049c0.234 0.234 0.39 0.546 0.39 0.859s-0.156 0.624-0.39 0.859l-13.581 13.581c-0.234 0.234-0.546 0.39-0.859 0.39s-0.624-0.156-0.859-0.39c-0.468-0.468-0.468-1.249 0-1.717l12.722-12.722-13.19-13.19c-0.468-0.468-0.468-1.249 0-1.717z"></path>
    </symbol>
    <symbol id="svg-icon-confirmation" viewBox="0 0 32 32">
        <path fill="#5ba71b" d="M16.009 32c-8.842 0-16.009-7.168-16.009-16.009s7.168-16.009 16.009-16.009c8.842 0 16.009 7.168 16.009 16.009 0 0.007 0 0.013 0 0.020-0.011 8.833-7.174 15.99-16.009 15.99 0 0 0 0 0 0zM16.009 2.319c0 0 0 0 0 0-7.561 0-13.69 6.129-13.69 13.69s6.129 13.69 13.69 13.69c7.561 0 13.69-6.129 13.69-13.69s-6.129-13.69-13.69-13.69z"></path>
        <path fill="#5ba71b" d="M14.841 23.448c-0.001 0-0.003 0-0.004 0-0.247 0-0.473-0.091-0.646-0.242l-6.232-5.305c-0.213-0.182-0.347-0.451-0.347-0.751 0-0.545 0.442-0.987 0.987-0.987 0.245 0 0.469 0.089 0.641 0.237l5.434 4.637 8.181-10.741c0.183-0.238 0.468-0.39 0.788-0.39 0.548 0 0.992 0.444 0.992 0.992 0 0.228-0.077 0.438-0.206 0.605l-8.81 11.573c-0.137 0.199-0.39 0.358-0.682 0.389l-0.116 0z"></path>
    </symbol>
    <symbol id="svg-icon-close" viewBox="0 0 32 32">
        <path d="M31.427 2.846l-2.387-2.387-13.084 13.082-13.082-13.082-2.386 2.387 13.082 13.082-13.082 13.084 2.386 2.386 13.082-13.082 13.084 13.082 2.386-2.386-13.084-13.084z"></path>
    </symbol>
    <symbol id="svg-icon-caution-null" viewBox="0 0 32 32">
        <path d="M29.816 29.073h-27.605c-0.719 0-1.26-0.259-1.526-0.73-0.268-0.471-0.211-1.069 0.158-1.684l13.739-22.898c0.367-0.613 0.876-0.95 1.432-0.95s1.064 0.337 1.431 0.95l13.739 22.898c0.369 0.616 0.427 1.213 0.159 1.684-0.266 0.471-0.808 0.73-1.526 0.73zM16.012 3.478c-0.312 0-0.617 0.222-0.859 0.625l-13.739 22.898c-0.236 0.395-0.291 0.763-0.151 1.012s0.485 0.392 0.946 0.392h27.605c0.46 0 0.805-0.142 0.945-0.392s0.086-0.617-0.151-1.012l-13.738-22.898c-0.242-0.403-0.547-0.625-0.86-0.625z"></path>
        <path d="M16.012 22.008c0.305 0 0.563 0.107 0.777 0.32 0.213 0.214 0.32 0.473 0.32 0.777s-0.113 0.564-0.338 0.777c-0.226 0.213-0.479 0.32-0.759 0.32s-0.533-0.107-0.758-0.32c-0.226-0.213-0.338-0.472-0.338-0.777s0.107-0.564 0.321-0.777c0.213-0.213 0.472-0.32 0.776-0.32zM17.058 16.311c0 2.288-0.47 4.161-1.045 4.161s-1.045-1.872-1.045-4.161 0.47-4.161 1.045-4.161 1.045 1.873 1.045 4.161z"></path>
    </symbol>
    <symbol id="svg-icon-information" viewBox="0 0 32 32">
        <path fill="#0654ba" d="M15.991 12.986c0 0 0 0 0 0-0.625 0-1.132 0.507-1.132 1.132 0 0 0 0 0 0v8.737c0.074 0.56 0.548 0.987 1.122 0.987s1.048-0.427 1.122-0.981l0.001-8.743c0-0 0-0 0-0 0-0.618-0.496-1.121-1.112-1.131z"></path>
        <path fill="#0654ba" d="M17.401 9.146c0 0.748-0.606 1.354-1.354 1.354s-1.354-0.606-1.354-1.354c0-0.748 0.606-1.354 1.354-1.354s1.354 0.606 1.354 1.354z"></path>
        <path fill="#0654ba" d="M15.991 32c-8.842 0-16.009-7.168-16.009-16.009s7.168-16.009 16.009-16.009c8.842 0 16.009 7.168 16.009 16.009 0 0.007 0 0.013 0 0.020-0.011 8.833-7.174 15.99-16.009 15.99 0 0 0 0 0 0zM15.991 2.319c0 0 0 0 0 0-7.561 0-13.69 6.129-13.69 13.69s6.129 13.69 13.69 13.69c7.561 0 13.69-6.129 13.69-13.69s-6.129-13.69-13.69-13.69z"></path>
    </symbol>
    <symbol id="svg-icon-mail" viewBox="0 0 36 32">
        <path d="M35.98 5.776c0-0.078 0-0.078 0-0.156s-0.078-0.078-0.078-0.156c0 0 0 0 0-0.078 0 0 0 0 0 0 0-0.078-0.078-0.078-0.156-0.078 0 0-0.078-0.078-0.078-0.078-0.078 0-0.078 0-0.156-0.078-0.078 0-0.078 0-0.156 0 0 0 0 0-0.078 0h-29.971c0 0 0 0-0.078 0s-0.078 0-0.156 0-0.078 0-0.156 0.078c-0.078 0-0.078 0.078-0.078 0.078-0.078 0-0.078 0.078-0.156 0.078 0 0 0 0 0 0 0 0.078 0 0.078 0 0.078 0 0.078-0.078 0.078-0.078 0.156s0 0.078 0 0.156c0 0 0 0.078 0 0.078v20.215c0 0.39 0.312 0.78 0.78 0.78h29.971c0.39 0 0.781-0.312 0.781-0.78v-20.215c-0.078 0-0.078 0-0.156-0.078zM20.293 16.937l-12.8-10.302h25.6l-12.8 10.302zM6.088 25.366v-17.873l13.58 10.927c0 0 0.078 0.078 0.156 0.078 0.156 0.078 0.312 0.156 0.468 0.156s0.312-0.078 0.468-0.156l13.737-11.005v17.873h-28.41z"></path>
    </symbol>
    <symbol id="svg-icon-menu" viewBox="0 0 32 32">
        <path d="M32.312 7.493h-24.039c-0.624 0-1.171-0.468-1.171-1.171s0.546-1.171 1.171-1.171h24.039c0.624 0 1.171 0.546 1.171 1.171s-0.546 1.171-1.171 1.171z"></path>
        <path d="M32.312 26.849h-24.039c-0.624 0-1.171-0.546-1.171-1.171s0.546-1.171 1.171-1.171h24.039c0.624 0 1.171 0.546 1.171 1.171s-0.546 1.171-1.171 1.171z"></path>
        <path d="M32.312 16.859h-24.039c-0.624 0-1.171-0.546-1.171-1.171s0.546-1.171 1.171-1.171h24.039c0.624 0 1.171 0.546 1.171 1.171s-0.546 1.171-1.171 1.171z"></path>
    </symbol>
    <symbol id="svg-icon-notifications" viewBox="0 0 40 32">
        <path d="M20.371 32c1.639 0 2.966-1.327 2.966-2.888h-5.854c-0.078 1.561 1.249 2.888 2.888 2.888z"></path>
        <path d="M35.746 25.912c0 0-2.888-2.341-4.449-4.137-1.249-1.483-1.249-3.356-1.249-5.776 0-3.2 0.078-7.259-3.59-11.239-1.561-1.717-3.434-2.498-4.683-2.888-0.078-0.78-0.78-1.327-1.561-1.327s-1.405 0.546-1.561 1.327c-1.327 0.39-3.122 1.171-4.683 2.888-3.668 3.981-3.668 8.039-3.59 11.239 0 2.42 0.078 4.293-1.249 5.776-1.561 1.795-4.371 4.137-4.449 4.137-0.312 0.234-0.468 0.702-0.312 1.093s0.468 0.624 0.937 0.624h29.659c0 0 0 0 0 0 0.39 0 0.781-0.234 0.937-0.624 0.312-0.39 0.156-0.859-0.156-1.093zM20.371 25.678h-12.332c0.859-0.78 1.873-1.795 2.654-2.654 1.795-2.029 1.717-4.449 1.717-7.024 0-3.2-0.078-6.478 3.122-9.912 2.029-2.263 4.761-2.576 4.761-2.576s0.078 0 0.078 0c0 0 0 0 0 0s2.732 0.312 4.761 2.576c3.122 3.434 3.122 6.712 3.122 9.912 0 2.576-0.078 4.995 1.717 7.024 0.78 0.859 1.795 1.873 2.654 2.654h-12.254z"></path>
    </symbol>
    <symbol id="svg-icon-priority" viewBox="0 0 32 32">
        <path fill="#dd1e31" d="M15.991 18.996c0 0 0 0 0 0-0.625 0-1.132-0.507-1.132-1.132 0 0 0 0 0 0v-8.737c-0.006-0.043-0.009-0.094-0.009-0.145 0-0.625 0.507-1.132 1.132-1.132s1.132 0.507 1.132 1.132c0 0.051-0.003 0.101-0.010 0.15l0.001 8.732c0 0 0 0 0 0 0 0.618-0.496 1.121-1.112 1.131z"></path>
        <path fill="#dd1e31" d="M17.401 22.855c0 0.748-0.606 1.354-1.354 1.354s-1.354-0.606-1.354-1.354c0-0.748 0.606-1.354 1.354-1.354s1.354 0.606 1.354 1.354z"></path>
        <path fill="#dd1e31" d="M15.991 32c-8.842 0-16.009-7.168-16.009-16.009s7.168-16.009 16.009-16.009c8.842 0 16.009 7.168 16.009 16.009 0 0.007 0 0.013 0 0.020-0.011 8.833-7.174 15.99-16.009 15.99 0 0 0 0 0 0zM15.991 2.319c0 0 0 0 0 0-7.561 0-13.69 6.129-13.69 13.69s6.129 13.69 13.69 13.69c7.561 0 13.69-6.129 13.69-13.69s-6.129-13.69-13.69-13.69z"></path>
    </symbol>
    <symbol id="svg-icon-profile" viewBox="0 0 32 32">
        <path d="M13.643 1.792c0 0 1.672 0 4.719 0 4.652 0 5.305 5.37 5.305 5.37s-0.018 5.652-0.018 6.983c0 0.418-2.919 8.302-2.919 8.302l9.433 4.725c0 0-1.691 2.934-3.544 2.934s-17.363 0.019-21.236 0.019c-1.797 0-3.545-2.953-3.545-2.953l9.476-4.782c0 0-2.971-7.598-2.971-8.245 0-1.663-0.037-7.038-0.037-7.038s0.907-5.316 5.337-5.316z"></path>
    </symbol>
    <symbol id="svg-icon-radio" viewBox="0 0 32 32">
        <path class="unchecked" fill="currentColor" d="M16 31.6c-8.667 0-15.719-6.999-15.719-15.6s7.052-15.6 15.719-15.6 15.719 6.999 15.719 15.6c0 8.604-7.052 15.6-15.719 15.6zM16 2.178c-7.687 0-13.941 6.201-13.941 13.822s6.254 13.822 13.941 13.822 13.941-6.201 13.941-13.822-6.254-13.822-13.941-13.822z"></path>
        <path class="checked-outer" d="M16 31.6c-8.667 0-15.719-6.997-15.719-15.6 0-8.601 7.052-15.6 15.719-15.6s15.719 6.999 15.719 15.6c0 8.604-7.052 15.6-15.719 15.6zM16 2.178c-7.687 0-13.941 6.201-13.941 13.822s6.254 13.822 13.941 13.822 13.941-6.201 13.941-13.822-6.254-13.822-13.941-13.822z"></path>
        <path class="checked-inner" d="M24.139 15.803c0 4.406-3.715 7.979-8.299 7.979s-8.299-3.572-8.299-7.979c0-4.407 3.715-7.979 8.299-7.979s8.299 3.572 8.299 7.979z"></path>
    </symbol>
    <symbol id="svg-icon-radio-checked" viewBox="0 0 32 32">
        <path fill="#0654ba" d="M16 31.6c-8.667 0-15.719-6.997-15.719-15.6 0-8.601 7.052-15.6 15.719-15.6s15.719 6.999 15.719 15.6c0 8.604-7.052 15.6-15.719 15.6zM16 2.178c-7.687 0-13.941 6.201-13.941 13.822s6.254 13.822 13.941 13.822 13.941-6.201 13.941-13.822-6.254-13.822-13.941-13.822z"></path>
        <path fill="#0654ba" d="M24.139 15.803c0 4.406-3.715 7.979-8.299 7.979s-8.299-3.572-8.299-7.979c0-4.407 3.715-7.979 8.299-7.979s8.299 3.572 8.299 7.979z"></path>
    </symbol>
    <symbol id="svg-icon-radio-unchecked" viewBox="0 0 32 32">
        <path fill="#cccccc" d="M16 31.6c-8.667 0-15.719-6.999-15.719-15.6s7.052-15.6 15.719-15.6 15.719 6.999 15.719 15.6c0 8.604-7.052 15.6-15.719 15.6zM16 2.178c-7.687 0-13.941 6.201-13.941 13.822s6.254 13.822 13.941 13.822 13.941-6.201 13.941-13.822-6.254-13.822-13.941-13.822z"></path>
    </symbol>
    <symbol id="svg-icon-search" viewBox="4 0 32 32">
        <path d="M33.327 30.205l-6.79-6.79c1.561-1.873 2.498-4.293 2.498-6.946-0.078-6.010-4.995-11.005-11.083-11.005s-11.005 4.995-11.005 11.005 4.917 11.083 11.005 11.083c2.732 0 5.151-1.015 7.102-2.576l6.79 6.79c0.234 0.234 0.468 0.312 0.702 0.312s0.546-0.078 0.702-0.312c0.468-0.468 0.468-1.171 0.078-1.561zM9.054 16.468c0-4.917 3.98-8.898 8.898-8.898s8.898 3.98 8.898 8.898-3.98 8.976-8.898 8.976c-4.917 0-8.898-3.98-8.898-8.976z"></path>
    </symbol>
    <symbol id="svg-icon-settings" viewBox="0 0 32 32">
        <path d="M29.386 18.233h-1.337c-0.611 0-1.264 0.479-1.448 1.063l-0.768 1.87c-0.289 0.54-0.169 1.341 0.261 1.773l0.953 0.949c0.434 0.434 0.434 1.143 0 1.578l-1.581 1.577c-0.432 0.433-1.142 0.433-1.576 0l-0.947-0.95c-0.435-0.431-1.233-0.55-1.773-0.257l-1.87 0.768c-0.585 0.181-1.064 0.832-1.064 1.445v1.337c0 0.611-0.503 1.113-1.116 1.113h-2.232c-0.614 0-1.116-0.503-1.116-1.113v-1.337c0-0.613-0.477-1.264-1.066-1.445l-1.87-0.768c-0.537-0.293-1.336-0.175-1.767 0.257l-0.953 0.95c-0.434 0.433-1.143 0.433-1.575 0l-1.582-1.577c-0.433-0.436-0.433-1.144 0-1.578l0.95-0.949c0.434-0.431 0.552-1.233 0.261-1.773l-0.77-1.87c-0.179-0.584-0.827-1.063-1.444-1.065h-1.34c-0.613 0-1.116-0.503-1.116-1.117v-2.232c0-0.613 0.503-1.114 1.116-1.114l1.339 0.002c0.616 0 1.264-0.481 1.448-1.066l0.766-1.87c0.293-0.541 0.174-1.337-0.261-1.771l-0.949-0.95c-0.434-0.434-0.434-1.145 0-1.578l1.579-1.577c0.432-0.433 1.14-0.433 1.575 0l0.953 0.948c0.434 0.434 1.229 0.553 1.771 0.261l1.867-0.767c0.588-0.183 1.066-0.835 1.066-1.448v-1.337c0-0.614 0.502-1.117 1.116-1.117h2.232c0.613 0 1.116 0.503 1.116 1.117v1.337c0 0.613 0.479 1.265 1.064 1.448l1.864 0.767c0.544 0.292 1.343 0.172 1.775-0.261l0.951-0.948c0.435-0.433 1.145-0.433 1.576 0l1.581 1.577c0.434 0.433 0.434 1.144 0 1.579l-0.953 0.95c-0.43 0.434-0.55 1.23-0.261 1.771l0.768 1.867c0.184 0.587 0.835 1.067 1.448 1.067h1.337c0.616 0 1.114 0.502 1.114 1.114v2.235c0 0.614-0.497 1.116-1.113 1.116zM16.003 10.824c-2.86 0-5.177 2.317-5.177 5.176s2.317 5.176 5.177 5.176c2.859 0 5.177-2.317 5.177-5.176s-2.317-5.176-5.177-5.176z"></path>
    </symbol>
    <symbol id="svg-icon-star" viewBox="0 0 32 32">
        <path d="M15.999 0.852l4.615 9.975 10.525 1.663-7.57 7.758 1.845 10.901-9.415-5.174-9.417 5.174 1.847-10.901-7.569-7.758 10.525-1.663 4.614-9.975z"></path>
    </symbol>
    <symbol id="svg-icon-trash" viewBox="0 0 28 32">
        <path d="M19.36 21.707c0.002 0 0.004 0 0.006 0 0.453 0 0.827-0.339 0.882-0.778l0-7.258c0-0.491-0.398-0.889-0.889-0.889s-0.889 0.398-0.889 0.889v7.253c0.055 0.443 0.429 0.782 0.882 0.782 0.002 0 0.005 0 0.007-0z"></path>
        <path d="M14.027 21.707c0.002 0 0.004 0 0.006 0 0.453 0 0.827-0.339 0.882-0.778l0-7.258c0-0.491-0.398-0.889-0.889-0.889s-0.889 0.398-0.889 0.889v7.253c0.055 0.443 0.429 0.782 0.882 0.782 0.002 0 0.005 0 0.007-0z"></path>
        <path d="M8.693 21.707c0.002 0 0.004 0 0.006 0 0.453 0 0.827-0.339 0.882-0.778l0-7.258c0-0.491-0.398-0.889-0.889-0.889s-0.889 0.398-0.889 0.889v7.253c0.055 0.443 0.429 0.782 0.882 0.782 0.002 0 0.005 0 0.007-0z"></path>
        <path d="M27.662 5.333h-6.204c0-1.778-0.48-5.333-3.556-5.333h-7.378c-3.058 0-3.556 3.556-3.556 5.333h-6.169c-0.491 0-0.889 0.398-0.889 0.889s0.398 0.889 0.889 0.889h1.671v19.147c0 2.187 2.062 5.742 4.249 5.742h14.933c2.187 0 3.858-3.556 3.858-5.742v-19.147h2.062c0.013 0.001 0.029 0.001 0.044 0.001 0.492 0 0.89-0.398 0.89-0.89 0-0.476-0.374-0.865-0.843-0.889zM10.524 1.778h7.396c1.564 0 1.956 1.778 1.956 3.556h-11.307c0.018-1.778 0.409-3.556 1.956-3.556zM23.804 26.258c0 1.316-0.764 3.964-2.080 3.964h-15.004c-1.316 0-2.453-2.649-2.453-3.964v-19.147h19.556v19.147z"></path>
    </symbol>
    <symbol id="svg-icon-view-detail" viewBox="0 0 32 32">
        <path d="M30.503 19.188c0 0.438-0.358 0.796-0.796 0.796h-27.507c-0.438 0-0.796-0.358-0.796-0.796v-17.325c0-0.438 0.358-0.796 0.796-0.796h27.507c0.438 0 0.796 0.358 0.796 0.796v17.325z"></path>
        <path d="M30.595 30.137c0 0.438-0.358 0.796-0.796 0.796h-27.483c-0.438 0-0.796-0.358-0.796-0.796v-5.803c0-0.438 0.358-0.796 0.796-0.796h27.483c0.438 0 0.796 0.358 0.796 0.796v5.803z"></path>
    </symbol>
    <symbol id="svg-icon-view-grid" viewBox="0 0 32 32">
        <path d="M14.062 13.267c0 0.438-0.358 0.796-0.796 0.796h-11.041c-0.438 0-0.796-0.358-0.796-0.796v-11.039c0-0.438 0.358-0.796 0.796-0.796h11.041c0.438 0 0.796 0.358 0.796 0.796v11.039z"></path>
        <path d="M14.062 29.772c0 0.438-0.358 0.796-0.796 0.796h-11.041c-0.438 0-0.796-0.358-0.796-0.796v-11.037c0-0.438 0.358-0.796 0.796-0.796h11.041c0.438 0 0.796 0.358 0.796 0.796v11.037z"></path>
        <path d="M30.57 13.267c0 0.438-0.358 0.796-0.796 0.796h-11.040c-0.438 0-0.796-0.358-0.796-0.796v-11.039c0-0.438 0.358-0.796 0.796-0.796h11.040c0.438 0 0.796 0.358 0.796 0.796v11.039z"></path>
        <path d="M30.57 29.772c0 0.438-0.358 0.796-0.796 0.796h-11.040c-0.438 0-0.796-0.358-0.796-0.796v-11.037c0-0.438 0.358-0.796 0.796-0.796h11.040c0.438 0 0.796 0.358 0.796 0.796v11.037z"></path>
    </symbol>
    <symbol id="svg-icon-view-list" viewBox="0 0 32 32">
        <path d="M8.202 7.863c0 0.437-0.358 0.795-0.795 0.795h-5.803c-0.438 0-0.795-0.358-0.795-0.795v-5.801c0-0.438 0.358-0.796 0.795-0.796h5.803c0.438 0 0.795 0.358 0.795 0.796v5.801z"></path>
        <path d="M31.192 7.863c0 0.437-0.358 0.795-0.796 0.795h-18.136c-0.438 0-0.796-0.358-0.796-0.795v-5.801c0-0.438 0.358-0.796 0.796-0.796h18.136c0.438 0 0.796 0.358 0.796 0.796v5.801z"></path>
        <path d="M8.202 18.901c0 0.438-0.358 0.796-0.795 0.796h-5.803c-0.438 0-0.795-0.358-0.795-0.796v-5.802c0-0.438 0.358-0.796 0.795-0.796h5.803c0.438 0 0.795 0.358 0.795 0.796v5.802z"></path>
        <path d="M31.192 18.901c0 0.438-0.358 0.796-0.796 0.796h-18.136c-0.438 0-0.796-0.358-0.796-0.796v-5.802c0-0.438 0.358-0.796 0.796-0.796h18.136c0.438 0 0.796 0.358 0.796 0.796v5.802z"></path>
        <path d="M8.202 29.938c0 0.438-0.358 0.796-0.795 0.796h-5.803c-0.438 0-0.795-0.358-0.795-0.796v-5.802c0-0.438 0.358-0.796 0.795-0.796h5.803c0.438 0 0.795 0.358 0.795 0.796v5.802z"></path>
        <path d="M31.192 29.938c0 0.438-0.358 0.796-0.796 0.796h-18.136c-0.438 0-0.796-0.358-0.796-0.796v-5.802c0-0.438 0.358-0.796 0.796-0.796h18.136c0.438 0 0.796 0.358 0.796 0.796v5.802z"></path>
    </symbol>
    <symbol id="svg-icon-window" viewBox="0 0 36 32">
        <path d="M0.663 7.583h20.859c0.366 0 0.663 0.297 0.663 0.663v0.957c0 0.366-0.297 0.663-0.663 0.663h-20.859c-0.366 0-0.663-0.297-0.663-0.663v-0.957c0-0.366 0.297-0.663 0.663-0.663z"></path>
        <path d="M2.282 7.583v24.319h-2.282v-24.319h2.282z"></path>
        <path d="M26.969 17.963v13.252c0 0.407-0.33 0.736-0.736 0.736h-0.933c-0.407 0-0.736-0.33-0.736-0.736v-13.252c0-0.407 0.33-0.736 0.736-0.736h0.933c0.407 0 0.736 0.33 0.736 0.736z"></path>
        <path d="M0 29.718h26.945v2.282h-26.945v-2.282z"></path>
        <path d="M34.356 0.196h2.552v22.11h-2.552v-22.11z"></path>
        <path d="M36.908 0v2.552h-22.11v-2.552h22.11z"></path>
        <path d="M35.096-0.019l1.805 1.805-19.035 19.035-1.805-1.805 19.035-19.035z"></path>
    </symbol>
</svg>
