<?xml version="1.0" encoding="utf-8"?>
<svg xmlns="http://www.w3.org/2000/svg" xmlns:xlink="http://www.w3.org/1999/xlink">
    <symbol id="icon-alert" viewBox="0 0 22 22">
        <path d="M10.975 0C4.914 0 0 4.914 0 10.975S4.914 21.95 10.975 21.95c6.062 0 10.975-4.913 10.975-10.975C21.95 4.913 17.037 0 10.975 0zm-.459 16.966H8.67v-2.764l1.846-.924v3.688zM8.67 13.278V4.984l8.297 4.146-8.297 4.148z"/>
    </symbol>
    <symbol id="icon-arrow-down" viewBox="0 0 24 13">
        <path d="M11.604 12.921L0 0h23.215l-5.807 6.462z"/>
    </symbol>
    <symbol id="icon-arrow-up" viewBox="0 0 24 13">
        <path d="M12.045.029L23.649 12.95H.434l5.807-6.462z"/>
    </symbol>
    <symbol id="icon-auction" viewBox="0 0 23 24">
        <path d="M12.081 20.234H1.504c-.83 0-1.504.674-1.504 1.504v.758C0 23.326.673 24 1.504 24h10.577c.83 0 1.504-.674 1.504-1.504v-.758c0-.83-.674-1.504-1.504-1.504zm.348 2.262a.386.386 0 0 1-.372.373H1.504a.386.386 0 0 1-.373-.372v-.759a.386.386 0 0 1 .372-.373H12.08a.386.386 0 0 1 .373.372l-.024.759zm9.508-6.723L15.051 9.46l2.15-2.15a3.584 3.584 0 0 0 1.042-2.529c0-.986-.398-1.88-1.042-2.53l-1.243-1.243A3.577 3.577 0 0 0 13.466.004a3.58 3.58 0 0 0-2.53 1.042L2.833 9.149a3.584 3.584 0 0 0-1.042 2.529c0 .986.398 1.88 1.042 2.53l1.243 1.243a3.58 3.58 0 0 0 2.529 1.042c.986 0 1.88-.398 2.53-1.042l2.746-2.746 7.035 6.451a2.262 2.262 0 0 0 3.057-3.33l-.036-.053zM8.265 14.604a2.475 2.475 0 0 1-1.734.704 2.473 2.473 0 0 1-1.734-.705l-1.242-1.242a2.471 2.471 0 0 1-.644-1.669c0-.682.274-1.3.719-1.748l8.104-8.104a2.475 2.475 0 0 1 1.734-.704c.675 0 1.286.268 1.734.705l1.242 1.242c.436.447.704 1.059.704 1.734s-.268 1.286-.705 1.734l-8.178 8.053zm12.951 3.605a1.167 1.167 0 0 1-1.593.074l-6.959-6.412 1.591-1.604 6.873 6.339a1.13 1.13 0 0 1 .111 1.605l-.023-.002z"/>
    </symbol>
    <symbol id="icon-autocomplete" viewBox="0 0 22 22">
        <path d="M1.757 2.721a.187.187 0 0 0-.32.132v16.584H.312V.312h18.75v1.125H3.124a.188.188 0 0 0-.134.319L21.766 20.87l-.891.924L1.756 2.72l.001.001zM18.875.5v.75H3.125a.376.376 0 0 0-.268.638l18.648 18.985-.632.655L1.889 2.588a.372.372 0 0 0-.409-.08.375.375 0 0 0-.231.346V19.25h-.75V.5h18.376zm.375-.375H.125v19.5h1.5V2.854l19.254 19.209 1.15-1.192L3.125 1.626H19.25V.125z"/>
    </symbol>
    <symbol id="icon-best-offer" viewBox="0 0 28 24">
        <path d="M26.34 7.152a2.495 2.495 0 0 0-1.802-.766l-.046.001h-2.363V3.105v-.031c0-.846-.351-1.611-.916-2.156a2.99 2.99 0 0 0-2.157-.917H3.105L3.054 0C2.209 0 1.447.351.904.916A3.002 3.002 0 0 0 0 3.065v10.34c0 .84.346 1.599.902 2.143a2.986 2.986 0 0 0 2.104.864l.104-.001h2.074v4.294a.823.823 0 0 0 .001.278.93.93 0 0 0 .299.5.86.86 0 0 0 .543.193h.237l.206-.082.178-.11.191-.068 1.149-.902 2.339-1.846.616-.437c.14.314.329.582.56.806.46.465 1.096.753 1.801.753h4.053c.083.043.155.094.22.151l1.886 1.462 2.845 2.216h.068l.151.096.205.068h.219a.805.805 0 0 0 .507-.179.844.844 0 0 0 .284-.444.997.997 0 0 0 .001-.271l.001-3.1h.793a2.584 2.584 0 0 0 2.584-2.584V8.987v-.006c0-.718-.299-1.365-.778-1.826l-.003-.003zM9.423 17.504l-2.79 2.188v-3.364a.527.527 0 0 0 0-.167 1.223 1.223 0 0 0-.369-.831 1.215 1.215 0 0 0-.907-.288H3.073c-.443 0-.844-.184-1.129-.479a1.568 1.568 0 0 1-.479-1.13V3.103v-.032c0-.443.184-.844.479-1.13a1.566 1.566 0 0 1 1.13-.479H19.056c.443 0 .844.184 1.13.479.296.287.479.687.479 1.13V13.36c0 .906-.735 1.641-1.641 1.641h-5.989a2.918 2.918 0 0 0-.674.227 3.348 3.348 0 0 0-.592.367l-2.346 1.909zm16.26-.328a1.19 1.19 0 0 1-1.19 1.189H23.411c-.585 0-1.063.459-1.093 1.037a.666.666 0 0 0 0 .156v2.459l-.178-.136-3.761-2.94a2.734 2.734 0 0 0-.489-.294 2.372 2.372 0 0 0-.576-.182l-4.036-.002h-.015c-.622 0-1.131-.49-1.161-1.105l.588-.467c.084-.077.178-.145.28-.201a.884.884 0 0 1 .29-.086h5.816A3.104 3.104 0 0 0 22.18 13.5V7.798h2.365c.657 0 1.19.533 1.19 1.19l-.052 8.188zm-11.487-6.755a2.615 2.615 0 0 0-2.498-2.462l-.005-2.489a1.989 1.989 0 0 1 1.364.842.63.63 0 1 0 1.125-.559 3.247 3.247 0 0 0-2.475-1.54l-.013-.11a.63.63 0 0 0-1.258 0 2.613 2.613 0 0 0-2.503 2.555 2.615 2.615 0 0 0 2.497 2.464l.005 2.476a1.988 1.988 0 0 1-1.364-.828.63.63 0 1 0-1.124.559 3.247 3.247 0 0 0 2.475 1.54l.013.001a.63.63 0 0 0 1.258 0 2.614 2.614 0 0 0 2.502-2.441l.001-.008zm-3.761-2.585c-.601-.123-1.258-.465-1.258-1.176 0-.711.643-1.053 1.258-1.176v2.352zm1.258 3.76V9.231c.602.123 1.259.465 1.259 1.176 0 .711-.643 1.066-1.259 1.189z"/>
    </symbol>
    <symbol id="icon-bold" viewBox="0 0 21 25">
        <path d="M0 .011h12a8.839 8.839 0 0 1 5.397 1.495 5.137 5.137 0 0 1 1.99 4.472c.003.029.003.084.003.139a5.124 5.124 0 0 1-.939 2.963 5.916 5.916 0 0 1-2.504 1.975l-.039.014a5.46 5.46 0 0 1 3.418 2.095 6.807 6.807 0 0 1 1.244 4.174l.001.06c0 .927-.189 1.81-.531 2.613a5.436 5.436 0 0 1-1.683 2.072 8.364 8.364 0 0 1-2.801 1.402 14.407 14.407 0 0 1-4.223.529H0V.011zm4.355 10.046h7.097c.04.002.088.002.136.002.937 0 1.798-.324 2.477-.865a3.012 3.012 0 0 0 1.037-2.472 3.058 3.058 0 0 0-.941-2.544 4.279 4.279 0 0 0-2.723-.738l-7.084-.001.001 6.618zm0 10.525h7.646a4.417 4.417 0 0 0 3.093-1 3.59 3.59 0 0 0 1.089-2.816 3.42 3.42 0 0 0-1.094-2.731 4.495 4.495 0 0 0-3.102-.945l-7.631-.001-.001 7.493z"/>
    </symbol>
    <symbol id="icon-box" viewBox="0 0 22 24">
        <path d="M10.693.001L0 6.054v11.653l10.693 5.973 10.64-5.947.08-.027V6.053L10.693 0v.001zm5.28 3.28L5.706 9.148l-1.6-.907 10.267-5.84 1.6.88zm-10.4 6.08v2.56l-1.6-.8V8.454l1.6.907zm5.12-9.04l3.387 1.92-10.24 5.84L.427 6.134 10.694.321h-.001zm-.133 22.96L.267 17.548V6.375l3.44 1.947v2.987l2.133 1.067V9.523l4.747 2.693v11.067l-.027-.002zm-4.587-14l10.267-5.84 4.747 2.693-10.293 5.84-4.72-2.693h-.001zm15.174 8.266l-10.32 5.733V12.213L21.12 6.346v11.2l.027.001zm-3.014-4.48l-5.547 3.2v4.373l5.547-3.227v-4.347.001zm-.266 4.187l-5.013 2.907v-3.76l5.013-2.853v3.707-.001z"/>
    </symbol>
    <symbol id="icon-bulleted-list" viewBox="0 0 24 17">
        <path d="M23.085 9H7.35a.945.945 0 1 1 0-1.89h15.735a.945.945 0 1 1 0 1.89zM2.73 8.25c0 .795-.611 1.44-1.365 1.44S0 9.045 0 8.25c0-.795.611-1.44 1.365-1.44s1.365.645 1.365 1.44zm20.355-6.36H7.35a.93.93 0 0 1-.93-.93V.944.93A.93.93 0 0 1 7.35 0h15.735A.93.93 0 0 1 24 .93v.03a.93.93 0 0 1-.914.93h-.001zM2.73 1.44c0 .795-.611 1.44-1.365 1.44S0 2.235 0 1.44C0 .645.611 0 1.365 0S2.73.645 2.73 1.44zm20.355 14.73H7.35a.945.945 0 1 1 0-1.89h15.735a.945.945 0 1 1 0 1.89zM2.73 15.06c0 .795-.611 1.44-1.365 1.44S0 15.855 0 15.06c0-.795.611-1.44 1.365-1.44s1.365.645 1.365 1.44z"/>
    </symbol>
    <symbol id="icon-call" viewBox="0 0 21 24">
        <path d="M3.71 24a.575.575 0 0 1-.265-.064c-1.42-.723-2.412-1.514-3.316-2.642a.582.582 0 0 1-.123-.444c.409-3.005 2.638-4.981 4.765-6.518a.597.597 0 0 1 .242-.102c.954-.162 1.557.321 2.025.697.512.411.804.586 1.357.383.872-.241 2.022-1.207 2.977-2.476.913-1.213 1.508-2.51 1.553-3.384l.005-.066a1.055 1.055 0 0 0-.046-.339 5.178 5.178 0 0 1-.035-.085c-.112-.248-.356-.431-.639-.643-.465-.349-1.101-.826-1.176-1.792a.577.577 0 0 1 .039-.26c.966-2.44 2.332-5.087 5.144-6.222a.582.582 0 0 1 .461.01c1.264.574 2.369 1.413 3.377 2.565.12.137.169.321.134.5-.701 3.509-1.831 6.576-3.359 9.115-.56.934-2.567 4.144-4.835 6.185-2.077 2.11-4.786 3.975-8.034 5.527a.607.607 0 0 1-.252.056L3.71 24zm-2.507-3.24c.704.832 1.46 1.433 2.518 2.002 3.009-1.467 5.518-3.209 7.461-5.181a1.11 1.11 0 0 1 .05-.047c2.186-1.967 4.214-5.263 4.599-5.904 1.418-2.355 2.479-5.198 3.156-8.456-.781-.846-1.622-1.487-2.561-1.949-2.196.997-3.329 3.134-4.209 5.331.066.338.296.525.696.826.359.269.766.574 1.002 1.094.009.016.029.061.047.108a1.8 1.8 0 0 1 .106.398c.001.006.012.065.012.072.014.118.022.242.018.376l-.005.07c-.058 1.121-.725 2.627-1.786 4.038-1.118 1.485-2.48 2.591-3.556 2.885a2.3 2.3 0 0 1-.792.144c-.746 0-1.249-.404-1.653-.729-.383-.308-.623-.484-.972-.471-1.912 1.395-3.705 3.019-4.131 5.393z"/>
    </symbol>
    <symbol id="icon-camera" viewBox="0 0 22 17">
        <path d="M5.866 5.306H2.639a.774.774 0 0 1-.773-.773V4.16c0-.427.347-.773.773-.773h3.227c.427 0 .773.347.773.773v.373a.774.774 0 0 1-.773.773zM2.64 3.653a.507.507 0 0 0-.507.507v.373c0 .293.24.507.507.507h3.227c.293 0 .507-.24.507-.507V4.16a.507.507 0 0 0-.507-.507H2.64zm9.92 9.227a3.802 3.802 0 0 1-3.787-3.787 3.802 3.802 0 0 1 3.787-3.787 3.802 3.802 0 0 1 3.787 3.787c.027 2.08-1.68 3.787-3.787 3.787zm0-7.307a3.516 3.516 0 0 0-3.52 3.52 3.516 3.516 0 0 0 3.52 3.52 3.516 3.516 0 0 0 3.52-3.52c.027-1.947-1.573-3.52-3.52-3.52zm0 9.253a5.77 5.77 0 0 1-5.76-5.76 5.77 5.77 0 0 1 5.76-5.76 5.77 5.77 0 0 1 5.76 5.76c0 3.2-2.587 5.76-5.76 5.76zm0-11.226c-3.013 0-5.493 2.453-5.493 5.493 0 3.013 2.453 5.493 5.493 5.493a5.485 5.485 0 0 0 5.493-5.493A5.485 5.485 0 0 0 12.56 3.6zm6.96 13.04H1.84A1.844 1.844 0 0 1 0 14.8V3.467c0-1.013.827-1.84 1.84-1.84h1.173C3.066.72 3.813 0 4.72 0h3.013c.907 0 1.68.72 1.707 1.627h10.08c1.013 0 1.84.827 1.84 1.84v11.307c0 1.04-.8 1.867-1.84 1.867v-.001zM1.84 1.893c-.88 0-1.573.72-1.573 1.573v11.307c0 .88.72 1.573 1.573 1.573h17.707c.88 0 1.573-.72 1.573-1.573V3.466c0-.88-.72-1.573-1.573-1.573H9.307c-.053 0-.133-.027-.133-.187 0-.8-.64-1.467-1.467-1.467H4.72c-.8 0-1.467.64-1.467 1.467v.187H1.84z"/>
    </symbol>
    <symbol id="icon-cart" viewBox="0 0 30 24">
        <path d="M29.564 5.561c-.293-.468-.937-1.054-2.224-1.054-1.405-.059-18.207 0-19.202 0L6.675.585A.88.88 0 0 0 5.855 0H.878C.351 0 0 .351 0 .878s.351.878.878.878h4.39l5.738 15.22a.88.88 0 0 0 .82.585h13.817c.527 0 .937-.293 1.112-.761.117-.293.761-2.049 1.405-3.805.644-1.815 1.346-3.688 1.522-4.273.469-1.288.41-2.4-.117-3.161zm-1.522 2.517c-.234.585-.878 2.459-1.58 4.273a107.382 107.382 0 0 0-1.23 3.454h-12.82l-3.63-9.541h18.5c.293 0 .644.059.82.293.234.234.176.82-.059 1.522v-.001zM14.695 21.6a2.166 2.166 0 1 1-4.333 0 2.166 2.166 0 0 1 4.333 0zm12.645 0a2.166 2.166 0 1 1-4.333 0 2.166 2.166 0 0 1 4.333 0z"/>
    </symbol>
    <symbol id="icon-cart-null" viewBox="0 0 23 19">
        <path d="M21.862 14.104H9.702c-.519 0-1.078-.378-1.271-.861L4.919 4.47a.036.036 0 0 0-.004-.009L3.542 1.032c-.121-.303-.514-.57-.841-.57H.231a.23.23 0 1 1 0-.462h2.47c.519 0 1.078.378 1.271.861l1.316 3.287h16.574c.552 0 1.001.449 1.001 1.002v7.951c0 .552-.449 1.002-1.001 1.002v.001zM5.473 4.611l3.387 8.46c.122.304.514.57.841.57h12.16a.54.54 0 0 0 .539-.539V5.151a.54.54 0 0 0-.539-.539H5.472l.001-.001zm14.41 14.335a1.862 1.862 0 0 1-1.854-1.866c0-1.029.832-1.866 1.854-1.866 1.023 0 1.854.837 1.854 1.866a1.862 1.862 0 0 1-1.854 1.866zm0-3.268a1.4 1.4 0 0 0-1.392 1.403 1.4 1.4 0 0 0 1.392 1.403 1.4 1.4 0 0 0 1.392-1.403 1.4 1.4 0 0 0-1.392-1.403zm-8.04 3.268a1.862 1.862 0 0 1-1.855-1.866c0-1.029.832-1.866 1.855-1.866 1.022 0 1.854.837 1.854 1.866a1.862 1.862 0 0 1-1.854 1.866zm0-3.268c-.768 0-1.392.629-1.392 1.403s.624 1.403 1.392 1.403a1.4 1.4 0 0 0 1.392-1.403 1.4 1.4 0 0 0-1.392-1.403zm-5.61-8.25h16.398v.231H6.233v-.231zm1.431 3.164H22.79v.231H7.664v-.231z"/>
    </symbol>
    <symbol id="icon-caution-null" viewBox="0 0 24 20">
        <path d="M21.973 19.696H1.27c-.539 0-.945-.195-1.145-.548-.2-.353-.158-.801.12-1.263L10.546.712c.275-.46.657-.712 1.074-.712.417 0 .798.253 1.074.712L23 17.885c.277.462.32.91.12 1.263-.2.353-.607.548-1.146.548zM11.62.501c-.234 0-.463.167-.644.469L.672 18.143c-.177.296-.218.572-.113.759.105.187.364.294.71.294h20.703c.345 0 .603-.107.71-.294.105-.187.063-.463-.114-.759L12.264.97c-.18-.302-.41-.469-.645-.469h.001zm0 13.897c.228 0 .422.08.583.24a.79.79 0 0 1 .24.583.773.773 0 0 1-.254.583.808.808 0 0 1-.569.24c-.21 0-.4-.08-.569-.24a.77.77 0 0 1-.254-.583c0-.229.08-.423.24-.583.16-.16.354-.24.582-.24h.001zm.784-4.272c0 1.716-.352 3.121-.784 3.121-.432 0-.784-1.404-.784-3.121s.353-3.121.784-3.121c.431 0 .784 1.404.784 3.121z"/>
    </symbol>
    <symbol id="icon-center-aligned" viewBox="0 0 24 17">
        <path d="M22.966 9.195H.826A.946.946 0 0 1 .821 7.32h22.145a.946.946 0 0 1 .005 1.875h-.005zm-4.185-7.32H5.011a.93.93 0 0 1-.915-.93V.93A.93.93 0 0 1 5.01 0h13.756a.93.93 0 0 1 .93.93v.015a.93.93 0 0 1-.914.93h-.001zM18.316 16.5H5.476a.946.946 0 0 1-.005-1.875h12.845a.946.946 0 0 1 .005 1.875h-.005z"/>
    </symbol>
    <symbol id="icon-center-justified" viewBox="0 0 24 17">
        <path d="M23.07 9.195H.93A.946.946 0 0 1 .925 7.32H23.07a.946.946 0 0 1 .005 1.875h-.005zm0-7.32H.93A.93.93 0 0 1 0 .945V.93A.93.93 0 0 1 .93 0h22.14a.93.93 0 0 1 .93.93v.016a.93.93 0 0 1-.93.929zM18.42 16.5H5.58a.946.946 0 0 1-.005-1.875H18.42a.946.946 0 0 1 .005 1.875h-.005z"/>
    </symbol>
    <symbol id="icon-chat" viewBox="0 0 31 24">
        <path d="M1.484 18.271h-.009a.665.665 0 0 1-.531-.263c-.358-.473-.001-1.152.793-2.498a12.95 12.95 0 0 0 .934-1.843C1.106 12.321.071 10.414 0 8.261 0 3.648 5.143 0 11.505 0c5.384 0 9.975 2.635 11.172 6.397l-1.151.345C20.502 3.498 16.257 1.15 11.459 1.15c-5.684 0-10.355 3.187-10.355 7.099a5.993 5.993 0 0 0 2.445 4.59l.155.081c.46.564 0 1.473-.966 3.152l-.426.771a9.101 9.101 0 0 0 1.521-.781A8.168 8.168 0 0 0 5.63 14.55l.272-.365.38.15c.707.294 1.54.545 2.403.712l-.136 1.164a14.515 14.515 0 0 1-2.401-.677c-.441.594-1.045 1.088-1.702 1.505-.827.525-1.74.92-2.715 1.161l-.247.071zm27.785 5.73h-.184a9.116 9.116 0 0 1-2.764-1.173 9.852 9.852 0 0 1-1.752-1.501c-1.548.569-3.33.902-5.19.902h-.054c-5.37 0-9.961-2.635-11.169-6.397l-.288-.92.943.184c.809.16 1.74.252 2.692.253 5.684 0 10.355-3.187 10.355-7.099a4.974 4.974 0 0 0-.252-1.543l-.277-.885.943.173c5.039.943 8.56 4.222 8.56 7.973a7.037 7.037 0 0 1-2.801 5.326c.292.76.62 1.391.993 1.992.749 1.335 1.117 1.968.761 2.439a.666.666 0 0 1-.517.276h.001zm-4.418-4.061l.265.311a8.258 8.258 0 0 0 1.806 1.522c.458.292.946.547 1.457.757l-.364-.725c-.955-1.68-1.427-2.589-.966-3.152l.081-.081a5.995 5.995 0 0 0 2.462-4.59c0-2.992-2.726-5.638-6.742-6.662.044.267.069.575.069.889v.033c0 4.6-5.143 8.248-11.505 8.248a15.925 15.925 0 0 1-1.953-.123c1.538 2.769 5.427 4.702 9.765 4.702h.045c1.848 0 3.612-.359 5.226-1.011l.354-.118z"/>
    </symbol>
    <symbol id="icon-check" viewBox="0 0 24 18">
        <path d="M20.429.001L7.673 12.87 2.481 7.677 0 10.386l7.674 7.45L23.14 2.486 20.43 0z"/>
    </symbol>
    <symbol id="icon-checkbox" viewBox="0 0 32 32">
        <path class="unchecked" fill="currentColor" d="M25.107 32.030h-18.214c-3.456 0-6.268-2.81-6.268-6.264v-19.529c0-3.456 2.812-6.268 6.268-6.268h18.214c3.456 0 6.268 2.812 6.268 6.268v19.529c0 3.452-2.812 6.264-6.268 6.264zM6.893 1.85c-2.419 0-4.386 1.967-4.386 4.386v19.529c0 2.417 1.967 4.382 4.386 4.382h18.214c2.419 0 4.386-1.965 4.386-4.382v-19.529c0-2.419-1.967-4.386-4.386-4.386h-18.214z"></path>
        <path class="checked" d="M0.543 5.647c0-3.119 2.531-5.647 5.65-5.647h19.309c3.12 0 5.65 2.511 5.65 5.647v20.705c0 3.119-2.531 5.647-5.65 5.647h-19.309c-3.12 0-5.65-2.511-5.65-5.647v-20.705zM5.313 17.587l7.039 6.839 13.831-13.439-2.636-2.561-10.929 10.62-4.442-4.317-2.862 2.858z"></path>
    </symbol>
    <symbol id="icon-checkbox-checked" viewBox="0 0 32 32">
        <path d="M0.543 5.647c0-3.119 2.531-5.647 5.65-5.647h19.309c3.12 0 5.65 2.511 5.65 5.647v20.705c0 3.119-2.531 5.647-5.65 5.647h-19.309c-3.12 0-5.65-2.511-5.65-5.647v-20.705zM5.313 17.587l7.039 6.839 13.831-13.439-2.636-2.561-10.929 10.62-4.442-4.317-2.862 2.858z"></path>
    </symbol> 
    <symbol id="icon-checkbox-unchecked" viewBox="0 0 32 32">
        <path d="M25.107 32.030h-18.214c-3.456 0-6.268-2.81-6.268-6.264v-19.529c0-3.456 2.812-6.268 6.268-6.268h18.214c3.456 0 6.268 2.812 6.268 6.268v19.529c0 3.452-2.812 6.264-6.268 6.264zM6.893 1.85c-2.419 0-4.386 1.967-4.386 4.386v19.529c0 2.417 1.967 4.382 4.386 4.382h18.214c2.419 0 4.386-1.965 4.386-4.382v-19.529c0-2.419-1.967-4.386-4.386-4.386h-18.214z"></path>
    </symbol>
    <symbol id="icon-chevron-down" viewBox="0 0 32 32">
        <path d="M3.873 6.636l15.389 15.392-3.264 3.265-15.393-15.393 3.267-3.265zM12.734 22.029l15.393-15.393 3.267 3.265-15.394 15.393-3.265-3.265zM19.263 22.029v0zM15.999 25.294v0z"></path>
    </symbol>
    <symbol id="icon-chevron-left" viewBox="0 0 32 32">
        <path d="M25.137 3.838l-15.393 15.389-3.265-3.264 15.393-15.393 3.265 3.267zM9.745 12.698l15.394 15.393-3.265 3.267-15.394-15.393 3.266-3.266zM9.745 19.227v0zM6.479 15.964v0z"></path>
    </symbol>
    <symbol id="icon-chevron-right" viewBox="0 0 32 32">
        <path d="M7.060 27.985l15.291-15.288 3.244 3.242-15.291 15.291-3.245-3.245zM22.352 19.183l-15.291-15.291 3.245-3.244 15.292 15.292-3.244 3.244zM22.352 12.697v0zM25.596 15.94v0z"></path>
    </symbol>
    <symbol id="icon-chevron-up" viewBox="0 0 32 32">
        <path d="M28.128 25.744l-15.389-15.393 3.263-3.265 15.392 15.394-3.267 3.264zM19.267 10.351l-15.393 15.393-3.267-3.265 15.394-15.393 3.265 3.265zM12.738 10.351v0zM16.002 7.086v0z"></path>
    </symbol>
    <symbol id="icon-chevron-light-left" viewBox="4 0 32 32">
        <path d="M28.176 1.327c-0.468-0.468-1.249-0.468-1.717 0l-14.049 14.049c-0.234 0.234-0.39 0.546-0.39 0.859s0.156 0.624 0.39 0.859l13.581 13.581c0.234 0.234 0.546 0.39 0.859 0.39s0.624-0.156 0.859-0.39c0.468-0.468 0.468-1.249 0-1.717l-12.722-12.722 13.19-13.19c0.468-0.468 0.468-1.249 0-1.717z"></path>
    </symbol>
    <symbol id="icon-chevron-light-right" viewBox="4 0 32 32">
        <path d="M12.41 1.327c0.468-0.468 1.249-0.468 1.717 0l14.049 14.049c0.234 0.234 0.39 0.546 0.39 0.859s-0.156 0.624-0.39 0.859l-13.581 13.581c-0.234 0.234-0.546 0.39-0.859 0.39s-0.624-0.156-0.859-0.39c-0.468-0.468-0.468-1.249 0-1.717l12.722-12.722-13.19-13.19c-0.468-0.468-0.468-1.249 0-1.717z"></path>
    </symbol>
    <symbol id="icon-confirmation" viewBox="0 0 32 32">
        <path fill="#5ba71b" d="M16.009 32c-8.842 0-16.009-7.168-16.009-16.009s7.168-16.009 16.009-16.009c8.842 0 16.009 7.168 16.009 16.009 0 0.007 0 0.013 0 0.020-0.011 8.833-7.174 15.99-16.009 15.99 0 0 0 0 0 0zM16.009 2.319c0 0 0 0 0 0-7.561 0-13.69 6.129-13.69 13.69s6.129 13.69 13.69 13.69c7.561 0 13.69-6.129 13.69-13.69s-6.129-13.69-13.69-13.69z"></path>
        <path fill="#5ba71b" d="M14.841 23.448c-0.001 0-0.003 0-0.004 0-0.247 0-0.473-0.091-0.646-0.242l-6.232-5.305c-0.213-0.182-0.347-0.451-0.347-0.751 0-0.545 0.442-0.987 0.987-0.987 0.245 0 0.469 0.089 0.641 0.237l5.434 4.637 8.181-10.741c0.183-0.238 0.468-0.39 0.788-0.39 0.548 0 0.992 0.444 0.992 0.992 0 0.228-0.077 0.438-0.206 0.605l-8.81 11.573c-0.137 0.199-0.39 0.358-0.682 0.389l-0.116 0z"></path>
    </symbol>
    <symbol id="icon-close" viewBox="0 0 32 32">
        <path d="M31.427 2.846l-2.387-2.387-13.084 13.082-13.082-13.082-2.386 2.387 13.082 13.082-13.082 13.084 2.386 2.386 13.082-13.082 13.084 13.082 2.386-2.386-13.084-13.084z"></path>
    </symbol>
    <symbol id="icon-caution-null" viewBox="0 0 32 32">
        <path d="M29.816 29.073h-27.605c-0.719 0-1.26-0.259-1.526-0.73-0.268-0.471-0.211-1.069 0.158-1.684l13.739-22.898c0.367-0.613 0.876-0.95 1.432-0.95s1.064 0.337 1.431 0.95l13.739 22.898c0.369 0.616 0.427 1.213 0.159 1.684-0.266 0.471-0.808 0.73-1.526 0.73zM16.012 3.478c-0.312 0-0.617 0.222-0.859 0.625l-13.739 22.898c-0.236 0.395-0.291 0.763-0.151 1.012s0.485 0.392 0.946 0.392h27.605c0.46 0 0.805-0.142 0.945-0.392s0.086-0.617-0.151-1.012l-13.738-22.898c-0.242-0.403-0.547-0.625-0.86-0.625z"></path>
        <path d="M16.012 22.008c0.305 0 0.563 0.107 0.777 0.32 0.213 0.214 0.32 0.473 0.32 0.777s-0.113 0.564-0.338 0.777c-0.226 0.213-0.479 0.32-0.759 0.32s-0.533-0.107-0.758-0.32c-0.226-0.213-0.338-0.472-0.338-0.777s0.107-0.564 0.321-0.777c0.213-0.213 0.472-0.32 0.776-0.32zM17.058 16.311c0 2.288-0.47 4.161-1.045 4.161s-1.045-1.872-1.045-4.161 0.47-4.161 1.045-4.161 1.045 1.873 1.045 4.161z"></path>
    </symbol>
    <symbol id="icon-information" viewBox="0 0 32 32">
        <path fill="#0654ba" d="M15.991 12.986c0 0 0 0 0 0-0.625 0-1.132 0.507-1.132 1.132 0 0 0 0 0 0v8.737c0.074 0.56 0.548 0.987 1.122 0.987s1.048-0.427 1.122-0.981l0.001-8.743c0-0 0-0 0-0 0-0.618-0.496-1.121-1.112-1.131z"></path>
        <path fill="#0654ba" d="M17.401 9.146c0 0.748-0.606 1.354-1.354 1.354s-1.354-0.606-1.354-1.354c0-0.748 0.606-1.354 1.354-1.354s1.354 0.606 1.354 1.354z"></path>
        <path fill="#0654ba" d="M15.991 32c-8.842 0-16.009-7.168-16.009-16.009s7.168-16.009 16.009-16.009c8.842 0 16.009 7.168 16.009 16.009 0 0.007 0 0.013 0 0.020-0.011 8.833-7.174 15.99-16.009 15.99 0 0 0 0 0 0zM15.991 2.319c0 0 0 0 0 0-7.561 0-13.69 6.129-13.69 13.69s6.129 13.69 13.69 13.69c7.561 0 13.69-6.129 13.69-13.69s-6.129-13.69-13.69-13.69z"></path>
    </symbol>
    <symbol id="icon-mail" viewBox="0 0 36 32">
        <path d="M35.98 5.776c0-0.078 0-0.078 0-0.156s-0.078-0.078-0.078-0.156c0 0 0 0 0-0.078 0 0 0 0 0 0 0-0.078-0.078-0.078-0.156-0.078 0 0-0.078-0.078-0.078-0.078-0.078 0-0.078 0-0.156-0.078-0.078 0-0.078 0-0.156 0 0 0 0 0-0.078 0h-29.971c0 0 0 0-0.078 0s-0.078 0-0.156 0-0.078 0-0.156 0.078c-0.078 0-0.078 0.078-0.078 0.078-0.078 0-0.078 0.078-0.156 0.078 0 0 0 0 0 0 0 0.078 0 0.078 0 0.078 0 0.078-0.078 0.078-0.078 0.156s0 0.078 0 0.156c0 0 0 0.078 0 0.078v20.215c0 0.39 0.312 0.78 0.78 0.78h29.971c0.39 0 0.781-0.312 0.781-0.78v-20.215c-0.078 0-0.078 0-0.156-0.078zM20.293 16.937l-12.8-10.302h25.6l-12.8 10.302zM6.088 25.366v-17.873l13.58 10.927c0 0 0.078 0.078 0.156 0.078 0.156 0.078 0.312 0.156 0.468 0.156s0.312-0.078 0.468-0.156l13.737-11.005v17.873h-28.41z"></path>
    </symbol>
    <symbol id="icon-menu" viewBox="0 0 21 18">
        <path d="M19.234 2.62H1.205a.862.862 0 0 1-.878-.878c0-.527.41-.878.878-.878h18.029a.9.9 0 0 1 .878.878.9.9 0 0 1-.878.878zm0 14.517H1.205a.9.9 0 0 1-.878-.878.9.9 0 0 1 .878-.878h18.029a.9.9 0 0 1 .878.878.9.9 0 0 1-.878.878zm0-7.493H1.205a.9.9 0 0 1-.878-.878.9.9 0 0 1 .878-.878h18.029a.9.9 0 0 1 .878.878.9.9 0 0 1-.878.878z"/>
    </symbol>
    <symbol id="icon-notifications" viewBox="0 0 40 32">
        <path d="M20.371 32c1.639 0 2.966-1.327 2.966-2.888h-5.854c-0.078 1.561 1.249 2.888 2.888 2.888z"></path>
        <path d="M35.746 25.912c0 0-2.888-2.341-4.449-4.137-1.249-1.483-1.249-3.356-1.249-5.776 0-3.2 0.078-7.259-3.59-11.239-1.561-1.717-3.434-2.498-4.683-2.888-0.078-0.78-0.78-1.327-1.561-1.327s-1.405 0.546-1.561 1.327c-1.327 0.39-3.122 1.171-4.683 2.888-3.668 3.981-3.668 8.039-3.59 11.239 0 2.42 0.078 4.293-1.249 5.776-1.561 1.795-4.371 4.137-4.449 4.137-0.312 0.234-0.468 0.702-0.312 1.093s0.468 0.624 0.937 0.624h29.659c0 0 0 0 0 0 0.39 0 0.781-0.234 0.937-0.624 0.312-0.39 0.156-0.859-0.156-1.093zM20.371 25.678h-12.332c0.859-0.78 1.873-1.795 2.654-2.654 1.795-2.029 1.717-4.449 1.717-7.024 0-3.2-0.078-6.478 3.122-9.912 2.029-2.263 4.761-2.576 4.761-2.576s0.078 0 0.078 0c0 0 0 0 0 0s2.732 0.312 4.761 2.576c3.122 3.434 3.122 6.712 3.122 9.912 0 2.576-0.078 4.995 1.717 7.024 0.78 0.859 1.795 1.873 2.654 2.654h-12.254z"></path>
    </symbol>
    <symbol id="icon-priority" viewBox="0 0 32 32">
        <path fill="#dd1e31" d="M15.991 18.996c0 0 0 0 0 0-0.625 0-1.132-0.507-1.132-1.132 0 0 0 0 0 0v-8.737c-0.006-0.043-0.009-0.094-0.009-0.145 0-0.625 0.507-1.132 1.132-1.132s1.132 0.507 1.132 1.132c0 0.051-0.003 0.101-0.010 0.15l0.001 8.732c0 0 0 0 0 0 0 0.618-0.496 1.121-1.112 1.131z"></path>
        <path fill="#dd1e31" d="M17.401 22.855c0 0.748-0.606 1.354-1.354 1.354s-1.354-0.606-1.354-1.354c0-0.748 0.606-1.354 1.354-1.354s1.354 0.606 1.354 1.354z"></path>
        <path fill="#dd1e31" d="M15.991 32c-8.842 0-16.009-7.168-16.009-16.009s7.168-16.009 16.009-16.009c8.842 0 16.009 7.168 16.009 16.009 0 0.007 0 0.013 0 0.020-0.011 8.833-7.174 15.99-16.009 15.99 0 0 0 0 0 0zM15.991 2.319c0 0 0 0 0 0-7.561 0-13.69 6.129-13.69 13.69s6.129 13.69 13.69 13.69c7.561 0 13.69-6.129 13.69-13.69s-6.129-13.69-13.69-13.69z"></path>
    </symbol>
    <symbol id="icon-profile" viewBox="0 0 32 32">
        <path d="M13.643 1.792c0 0 1.672 0 4.719 0 4.652 0 5.305 5.37 5.305 5.37s-0.018 5.652-0.018 6.983c0 0.418-2.919 8.302-2.919 8.302l9.433 4.725c0 0-1.691 2.934-3.544 2.934s-17.363 0.019-21.236 0.019c-1.797 0-3.545-2.953-3.545-2.953l9.476-4.782c0 0-2.971-7.598-2.971-8.245 0-1.663-0.037-7.038-0.037-7.038s0.907-5.316 5.337-5.316z"></path>
    </symbol>
    <symbol id="icon-radio" viewBox="0 0 32 32">
        <path class="unchecked" fill="currentColor" d="M16 31.6c-8.667 0-15.719-6.999-15.719-15.6s7.052-15.6 15.719-15.6 15.719 6.999 15.719 15.6c0 8.604-7.052 15.6-15.719 15.6zM16 2.178c-7.687 0-13.941 6.201-13.941 13.822s6.254 13.822 13.941 13.822 13.941-6.201 13.941-13.822-6.254-13.822-13.941-13.822z"></path>
        <path class="checked-outer" d="M16 31.6c-8.667 0-15.719-6.997-15.719-15.6 0-8.601 7.052-15.6 15.719-15.6s15.719 6.999 15.719 15.6c0 8.604-7.052 15.6-15.719 15.6zM16 2.178c-7.687 0-13.941 6.201-13.941 13.822s6.254 13.822 13.941 13.822 13.941-6.201 13.941-13.822-6.254-13.822-13.941-13.822z"></path>
        <path class="checked-inner" d="M24.139 15.803c0 4.406-3.715 7.979-8.299 7.979s-8.299-3.572-8.299-7.979c0-4.407 3.715-7.979 8.299-7.979s8.299 3.572 8.299 7.979z"></path>
    </symbol>
    <symbol id="icon-radio-checked" viewBox="0 0 32 32">
        <path d="M16 31.6c-8.667 0-15.719-6.997-15.719-15.6 0-8.601 7.052-15.6 15.719-15.6s15.719 6.999 15.719 15.6c0 8.604-7.052 15.6-15.719 15.6zM16 2.178c-7.687 0-13.941 6.201-13.941 13.822s6.254 13.822 13.941 13.822 13.941-6.201 13.941-13.822-6.254-13.822-13.941-13.822z"></path>
        <path d="M24.139 15.803c0 4.406-3.715 7.979-8.299 7.979s-8.299-3.572-8.299-7.979c0-4.407 3.715-7.979 8.299-7.979s8.299 3.572 8.299 7.979z"></path>
    </symbol>
    <symbol id="icon-radio-unchecked" viewBox="0 0 32 32">
        <path d="M16 31.6c-8.667 0-15.719-6.999-15.719-15.6s7.052-15.6 15.719-15.6 15.719 6.999 15.719 15.6c0 8.604-7.052 15.6-15.719 15.6zM16 2.178c-7.687 0-13.941 6.201-13.941 13.822s6.254 13.822 13.941 13.822 13.941-6.201 13.941-13.822-6.254-13.822-13.941-13.822z"></path>
    </symbol>
    <symbol id="icon-search" viewBox="4 0 32 32">
        <path d="M33.327 30.205l-6.79-6.79c1.561-1.873 2.498-4.293 2.498-6.946-0.078-6.010-4.995-11.005-11.083-11.005s-11.005 4.995-11.005 11.005 4.917 11.083 11.005 11.083c2.732 0 5.151-1.015 7.102-2.576l6.79 6.79c0.234 0.234 0.468 0.312 0.702 0.312s0.546-0.078 0.702-0.312c0.468-0.468 0.468-1.171 0.078-1.561zM9.054 16.468c0-4.917 3.98-8.898 8.898-8.898s8.898 3.98 8.898 8.898-3.98 8.976-8.898 8.976c-4.917 0-8.898-3.98-8.898-8.976z"></path>
    </symbol>
    <symbol id="icon-settings" viewBox="0 0 32 32">
        <path d="M29.386 18.233h-1.337c-0.611 0-1.264 0.479-1.448 1.063l-0.768 1.87c-0.289 0.54-0.169 1.341 0.261 1.773l0.953 0.949c0.434 0.434 0.434 1.143 0 1.578l-1.581 1.577c-0.432 0.433-1.142 0.433-1.576 0l-0.947-0.95c-0.435-0.431-1.233-0.55-1.773-0.257l-1.87 0.768c-0.585 0.181-1.064 0.832-1.064 1.445v1.337c0 0.611-0.503 1.113-1.116 1.113h-2.232c-0.614 0-1.116-0.503-1.116-1.113v-1.337c0-0.613-0.477-1.264-1.066-1.445l-1.87-0.768c-0.537-0.293-1.336-0.175-1.767 0.257l-0.953 0.95c-0.434 0.433-1.143 0.433-1.575 0l-1.582-1.577c-0.433-0.436-0.433-1.144 0-1.578l0.95-0.949c0.434-0.431 0.552-1.233 0.261-1.773l-0.77-1.87c-0.179-0.584-0.827-1.063-1.444-1.065h-1.34c-0.613 0-1.116-0.503-1.116-1.117v-2.232c0-0.613 0.503-1.114 1.116-1.114l1.339 0.002c0.616 0 1.264-0.481 1.448-1.066l0.766-1.87c0.293-0.541 0.174-1.337-0.261-1.771l-0.949-0.95c-0.434-0.434-0.434-1.145 0-1.578l1.579-1.577c0.432-0.433 1.14-0.433 1.575 0l0.953 0.948c0.434 0.434 1.229 0.553 1.771 0.261l1.867-0.767c0.588-0.183 1.066-0.835 1.066-1.448v-1.337c0-0.614 0.502-1.117 1.116-1.117h2.232c0.613 0 1.116 0.503 1.116 1.117v1.337c0 0.613 0.479 1.265 1.064 1.448l1.864 0.767c0.544 0.292 1.343 0.172 1.775-0.261l0.951-0.948c0.435-0.433 1.145-0.433 1.576 0l1.581 1.577c0.434 0.433 0.434 1.144 0 1.579l-0.953 0.95c-0.43 0.434-0.55 1.23-0.261 1.771l0.768 1.867c0.184 0.587 0.835 1.067 1.448 1.067h1.337c0.616 0 1.114 0.502 1.114 1.114v2.235c0 0.614-0.497 1.116-1.113 1.116zM16.003 10.824c-2.86 0-5.177 2.317-5.177 5.176s2.317 5.176 5.177 5.176c2.859 0 5.177-2.317 5.177-5.176s-2.317-5.176-5.177-5.176z"></path>
    </symbol>
    <symbol id="icon-star" viewBox="0 0 32 32">
        <path d="M15.999 0.852l4.615 9.975 10.525 1.663-7.57 7.758 1.845 10.901-9.415-5.174-9.417 5.174 1.847-10.901-7.569-7.758 10.525-1.663 4.614-9.975z"></path>
    </symbol>
    <symbol id="icon-trash" viewBox="0 0 28 32">
        <path d="M19.36 21.707c0.002 0 0.004 0 0.006 0 0.453 0 0.827-0.339 0.882-0.778l0-7.258c0-0.491-0.398-0.889-0.889-0.889s-0.889 0.398-0.889 0.889v7.253c0.055 0.443 0.429 0.782 0.882 0.782 0.002 0 0.005 0 0.007-0z"></path>
        <path d="M14.027 21.707c0.002 0 0.004 0 0.006 0 0.453 0 0.827-0.339 0.882-0.778l0-7.258c0-0.491-0.398-0.889-0.889-0.889s-0.889 0.398-0.889 0.889v7.253c0.055 0.443 0.429 0.782 0.882 0.782 0.002 0 0.005 0 0.007-0z"></path>
        <path d="M8.693 21.707c0.002 0 0.004 0 0.006 0 0.453 0 0.827-0.339 0.882-0.778l0-7.258c0-0.491-0.398-0.889-0.889-0.889s-0.889 0.398-0.889 0.889v7.253c0.055 0.443 0.429 0.782 0.882 0.782 0.002 0 0.005 0 0.007-0z"></path>
        <path d="M27.662 5.333h-6.204c0-1.778-0.48-5.333-3.556-5.333h-7.378c-3.058 0-3.556 3.556-3.556 5.333h-6.169c-0.491 0-0.889 0.398-0.889 0.889s0.398 0.889 0.889 0.889h1.671v19.147c0 2.187 2.062 5.742 4.249 5.742h14.933c2.187 0 3.858-3.556 3.858-5.742v-19.147h2.062c0.013 0.001 0.029 0.001 0.044 0.001 0.492 0 0.89-0.398 0.89-0.89 0-0.476-0.374-0.865-0.843-0.889zM10.524 1.778h7.396c1.564 0 1.956 1.778 1.956 3.556h-11.307c0.018-1.778 0.409-3.556 1.956-3.556zM23.804 26.258c0 1.316-0.764 3.964-2.080 3.964h-15.004c-1.316 0-2.453-2.649-2.453-3.964v-19.147h19.556v19.147z"></path>
    </symbol>
    <symbol id="icon-view-detail" viewBox="0 0 32 32">
        <path d="M30.503 19.188c0 0.438-0.358 0.796-0.796 0.796h-27.507c-0.438 0-0.796-0.358-0.796-0.796v-17.325c0-0.438 0.358-0.796 0.796-0.796h27.507c0.438 0 0.796 0.358 0.796 0.796v17.325z"></path>
        <path d="M30.595 30.137c0 0.438-0.358 0.796-0.796 0.796h-27.483c-0.438 0-0.796-0.358-0.796-0.796v-5.803c0-0.438 0.358-0.796 0.796-0.796h27.483c0.438 0 0.796 0.358 0.796 0.796v5.803z"></path>
    </symbol>
    <symbol id="icon-view-grid" viewBox="0 0 32 32">
        <path d="M14.062 13.267c0 0.438-0.358 0.796-0.796 0.796h-11.041c-0.438 0-0.796-0.358-0.796-0.796v-11.039c0-0.438 0.358-0.796 0.796-0.796h11.041c0.438 0 0.796 0.358 0.796 0.796v11.039z"></path>
        <path d="M14.062 29.772c0 0.438-0.358 0.796-0.796 0.796h-11.041c-0.438 0-0.796-0.358-0.796-0.796v-11.037c0-0.438 0.358-0.796 0.796-0.796h11.041c0.438 0 0.796 0.358 0.796 0.796v11.037z"></path>
        <path d="M30.57 13.267c0 0.438-0.358 0.796-0.796 0.796h-11.040c-0.438 0-0.796-0.358-0.796-0.796v-11.039c0-0.438 0.358-0.796 0.796-0.796h11.040c0.438 0 0.796 0.358 0.796 0.796v11.039z"></path>
        <path d="M30.57 29.772c0 0.438-0.358 0.796-0.796 0.796h-11.040c-0.438 0-0.796-0.358-0.796-0.796v-11.037c0-0.438 0.358-0.796 0.796-0.796h11.040c0.438 0 0.796 0.358 0.796 0.796v11.037z"></path>
    </symbol>
    <symbol id="icon-view-list" viewBox="0 0 32 32">
        <path d="M8.202 7.863c0 0.437-0.358 0.795-0.795 0.795h-5.803c-0.438 0-0.795-0.358-0.795-0.795v-5.801c0-0.438 0.358-0.796 0.795-0.796h5.803c0.438 0 0.795 0.358 0.795 0.796v5.801z"></path>
        <path d="M31.192 7.863c0 0.437-0.358 0.795-0.796 0.795h-18.136c-0.438 0-0.796-0.358-0.796-0.795v-5.801c0-0.438 0.358-0.796 0.796-0.796h18.136c0.438 0 0.796 0.358 0.796 0.796v5.801z"></path>
        <path d="M8.202 18.901c0 0.438-0.358 0.796-0.795 0.796h-5.803c-0.438 0-0.795-0.358-0.795-0.796v-5.802c0-0.438 0.358-0.796 0.795-0.796h5.803c0.438 0 0.795 0.358 0.795 0.796v5.802z"></path>
        <path d="M31.192 18.901c0 0.438-0.358 0.796-0.796 0.796h-18.136c-0.438 0-0.796-0.358-0.796-0.796v-5.802c0-0.438 0.358-0.796 0.796-0.796h18.136c0.438 0 0.796 0.358 0.796 0.796v5.802z"></path>
        <path d="M8.202 29.938c0 0.438-0.358 0.796-0.795 0.796h-5.803c-0.438 0-0.795-0.358-0.795-0.796v-5.802c0-0.438 0.358-0.796 0.795-0.796h5.803c0.438 0 0.795 0.358 0.795 0.796v5.802z"></path>
        <path d="M31.192 29.938c0 0.438-0.358 0.796-0.796 0.796h-18.136c-0.438 0-0.796-0.358-0.796-0.796v-5.802c0-0.438 0.358-0.796 0.796-0.796h18.136c0.438 0 0.796 0.358 0.796 0.796v5.802z"></path>
    </symbol>
    <symbol id="icon-window" viewBox="0 0 36 32">
        <path d="M0.663 7.583h20.859c0.366 0 0.663 0.297 0.663 0.663v0.957c0 0.366-0.297 0.663-0.663 0.663h-20.859c-0.366 0-0.663-0.297-0.663-0.663v-0.957c0-0.366 0.297-0.663 0.663-0.663z"></path>
        <path d="M2.282 7.583v24.319h-2.282v-24.319h2.282z"></path>
        <path d="M26.969 17.963v13.252c0 0.407-0.33 0.736-0.736 0.736h-0.933c-0.407 0-0.736-0.33-0.736-0.736v-13.252c0-0.407 0.33-0.736 0.736-0.736h0.933c0.407 0 0.736 0.33 0.736 0.736z"></path>
        <path d="M0 29.718h26.945v2.282h-26.945v-2.282z"></path>
        <path d="M34.356 0.196h2.552v22.11h-2.552v-22.11z"></path>
        <path d="M36.908 0v2.552h-22.11v-2.552h22.11z"></path>
        <path d="M35.096-0.019l1.805 1.805-19.035 19.035-1.805-1.805 19.035-19.035z"></path>
    </symbol>
</svg>
