<?xml version="1.0" encoding="utf-8"?>
<svg xmlns="http://www.w3.org/2000/svg" xmlns:xlink="http://www.w3.org/1999/xlink">
    <symbol id="icon-alert" viewBox="0 0 22 22">
        <path d="M10.975 0C4.914 0 0 4.914 0 10.975S4.914 21.95 10.975 21.95c6.062 0 10.975-4.913 10.975-10.975C21.95 4.913 17.037 0 10.975 0zm-.459 16.966H8.67v-2.764l1.846-.924v3.688zM8.67 13.278V4.984l8.297 4.146-8.297 4.148z"/>
    </symbol>
    <symbol id="icon-arrow-down" viewBox="0 0 24 13">
        <path d="M11.604 12.921L0 0h23.215l-5.807 6.462z"/>
    </symbol>
    <symbol id="icon-arrow-up" viewBox="0 0 24 13">
        <path d="M12.045.029L23.649 12.95H.434l5.807-6.462z"/>
    </symbol>
    <symbol id="icon-auction" viewBox="0 0 23 24">
        <path d="M12.081 20.234H1.504c-.83 0-1.504.674-1.504 1.504v.758C0 23.326.673 24 1.504 24h10.577c.83 0 1.504-.674 1.504-1.504v-.758c0-.83-.674-1.504-1.504-1.504zm.348 2.262a.386.386 0 0 1-.372.373H1.504a.386.386 0 0 1-.373-.372v-.759a.386.386 0 0 1 .372-.373H12.08a.386.386 0 0 1 .373.372l-.024.759zm9.508-6.723L15.051 9.46l2.15-2.15a3.584 3.584 0 0 0 1.042-2.529c0-.986-.398-1.88-1.042-2.53l-1.243-1.243A3.577 3.577 0 0 0 13.466.004a3.58 3.58 0 0 0-2.53 1.042L2.833 9.149a3.584 3.584 0 0 0-1.042 2.529c0 .986.398 1.88 1.042 2.53l1.243 1.243a3.58 3.58 0 0 0 2.529 1.042c.986 0 1.88-.398 2.53-1.042l2.746-2.746 7.035 6.451a2.262 2.262 0 0 0 3.057-3.33l-.036-.053zM8.265 14.604a2.475 2.475 0 0 1-1.734.704 2.473 2.473 0 0 1-1.734-.705l-1.242-1.242a2.471 2.471 0 0 1-.644-1.669c0-.682.274-1.3.719-1.748l8.104-8.104a2.475 2.475 0 0 1 1.734-.704c.675 0 1.286.268 1.734.705l1.242 1.242c.436.447.704 1.059.704 1.734s-.268 1.286-.705 1.734l-8.178 8.053zm12.951 3.605a1.167 1.167 0 0 1-1.593.074l-6.959-6.412 1.591-1.604 6.873 6.339a1.13 1.13 0 0 1 .111 1.605l-.023-.002z"/>
    </symbol>
    <symbol id="icon-autocomplete" viewBox="0 0 22 22">
        <path d="M1.757 2.721a.187.187 0 0 0-.32.132v16.584H.312V.312h18.75v1.125H3.124a.188.188 0 0 0-.134.319L21.766 20.87l-.891.924L1.756 2.72l.001.001zM18.875.5v.75H3.125a.376.376 0 0 0-.268.638l18.648 18.985-.632.655L1.889 2.588a.372.372 0 0 0-.409-.08.375.375 0 0 0-.231.346V19.25h-.75V.5h18.376zm.375-.375H.125v19.5h1.5V2.854l19.254 19.209 1.15-1.192L3.125 1.626H19.25V.125z"/>
    </symbol>
    <symbol id="icon-best-offer" viewBox="0 0 28 24">
        <path d="M26.34 7.152a2.495 2.495 0 0 0-1.802-.766l-.046.001h-2.363V3.105v-.031c0-.846-.351-1.611-.916-2.156a2.99 2.99 0 0 0-2.157-.917H3.105L3.054 0C2.209 0 1.447.351.904.916A3.002 3.002 0 0 0 0 3.065v10.34c0 .84.346 1.599.902 2.143a2.986 2.986 0 0 0 2.104.864l.104-.001h2.074v4.294a.823.823 0 0 0 .001.278.93.93 0 0 0 .299.5.86.86 0 0 0 .543.193h.237l.206-.082.178-.11.191-.068 1.149-.902 2.339-1.846.616-.437c.14.314.329.582.56.806.46.465 1.096.753 1.801.753h4.053c.083.043.155.094.22.151l1.886 1.462 2.845 2.216h.068l.151.096.205.068h.219a.805.805 0 0 0 .507-.179.844.844 0 0 0 .284-.444.997.997 0 0 0 .001-.271l.001-3.1h.793a2.584 2.584 0 0 0 2.584-2.584V8.987v-.006c0-.718-.299-1.365-.778-1.826l-.003-.003zM9.423 17.504l-2.79 2.188v-3.364a.527.527 0 0 0 0-.167 1.223 1.223 0 0 0-.369-.831 1.215 1.215 0 0 0-.907-.288H3.073c-.443 0-.844-.184-1.129-.479a1.568 1.568 0 0 1-.479-1.13V3.103v-.032c0-.443.184-.844.479-1.13a1.566 1.566 0 0 1 1.13-.479H19.056c.443 0 .844.184 1.13.479.296.287.479.687.479 1.13V13.36c0 .906-.735 1.641-1.641 1.641h-5.989a2.918 2.918 0 0 0-.674.227 3.348 3.348 0 0 0-.592.367l-2.346 1.909zm16.26-.328a1.19 1.19 0 0 1-1.19 1.189H23.411c-.585 0-1.063.459-1.093 1.037a.666.666 0 0 0 0 .156v2.459l-.178-.136-3.761-2.94a2.734 2.734 0 0 0-.489-.294 2.372 2.372 0 0 0-.576-.182l-4.036-.002h-.015c-.622 0-1.131-.49-1.161-1.105l.588-.467c.084-.077.178-.145.28-.201a.884.884 0 0 1 .29-.086h5.816A3.104 3.104 0 0 0 22.18 13.5V7.798h2.365c.657 0 1.19.533 1.19 1.19l-.052 8.188zm-11.487-6.755a2.615 2.615 0 0 0-2.498-2.462l-.005-2.489a1.989 1.989 0 0 1 1.364.842.63.63 0 1 0 1.125-.559 3.247 3.247 0 0 0-2.475-1.54l-.013-.11a.63.63 0 0 0-1.258 0 2.613 2.613 0 0 0-2.503 2.555 2.615 2.615 0 0 0 2.497 2.464l.005 2.476a1.988 1.988 0 0 1-1.364-.828.63.63 0 1 0-1.124.559 3.247 3.247 0 0 0 2.475 1.54l.013.001a.63.63 0 0 0 1.258 0 2.614 2.614 0 0 0 2.502-2.441l.001-.008zm-3.761-2.585c-.601-.123-1.258-.465-1.258-1.176 0-.711.643-1.053 1.258-1.176v2.352zm1.258 3.76V9.231c.602.123 1.259.465 1.259 1.176 0 .711-.643 1.066-1.259 1.189z"/>
    </symbol>
    <symbol id="icon-bold" viewBox="0 0 21 25">
        <path d="M0 .011h12a8.839 8.839 0 0 1 5.397 1.495 5.137 5.137 0 0 1 1.99 4.472c.003.029.003.084.003.139a5.124 5.124 0 0 1-.939 2.963 5.916 5.916 0 0 1-2.504 1.975l-.039.014a5.46 5.46 0 0 1 3.418 2.095 6.807 6.807 0 0 1 1.244 4.174l.001.06c0 .927-.189 1.81-.531 2.613a5.436 5.436 0 0 1-1.683 2.072 8.364 8.364 0 0 1-2.801 1.402 14.407 14.407 0 0 1-4.223.529H0V.011zm4.355 10.046h7.097c.04.002.088.002.136.002.937 0 1.798-.324 2.477-.865a3.012 3.012 0 0 0 1.037-2.472 3.058 3.058 0 0 0-.941-2.544 4.279 4.279 0 0 0-2.723-.738l-7.084-.001.001 6.618zm0 10.525h7.646a4.417 4.417 0 0 0 3.093-1 3.59 3.59 0 0 0 1.089-2.816 3.42 3.42 0 0 0-1.094-2.731 4.495 4.495 0 0 0-3.102-.945l-7.631-.001-.001 7.493z"/>
    </symbol>
    <symbol id="icon-box" viewBox="0 0 22 24">
        <path d="M10.693.001L0 6.054v11.653l10.693 5.973 10.64-5.947.08-.027V6.053L10.693 0v.001zm5.28 3.28L5.706 9.148l-1.6-.907 10.267-5.84 1.6.88zm-10.4 6.08v2.56l-1.6-.8V8.454l1.6.907zm5.12-9.04l3.387 1.92-10.24 5.84L.427 6.134 10.694.321h-.001zm-.133 22.96L.267 17.548V6.375l3.44 1.947v2.987l2.133 1.067V9.523l4.747 2.693v11.067l-.027-.002zm-4.587-14l10.267-5.84 4.747 2.693-10.293 5.84-4.72-2.693h-.001zm15.174 8.266l-10.32 5.733V12.213L21.12 6.346v11.2l.027.001zm-3.014-4.48l-5.547 3.2v4.373l5.547-3.227v-4.347.001zm-.266 4.187l-5.013 2.907v-3.76l5.013-2.853v3.707-.001z"/>
    </symbol>
    <symbol id="icon-bulleted-list" viewBox="0 0 24 17">
        <path d="M23.085 9H7.35a.945.945 0 1 1 0-1.89h15.735a.945.945 0 1 1 0 1.89zM2.73 8.25c0 .795-.611 1.44-1.365 1.44S0 9.045 0 8.25c0-.795.611-1.44 1.365-1.44s1.365.645 1.365 1.44zm20.355-6.36H7.35a.93.93 0 0 1-.93-.93V.944.93A.93.93 0 0 1 7.35 0h15.735A.93.93 0 0 1 24 .93v.03a.93.93 0 0 1-.914.93h-.001zM2.73 1.44c0 .795-.611 1.44-1.365 1.44S0 2.235 0 1.44C0 .645.611 0 1.365 0S2.73.645 2.73 1.44zm20.355 14.73H7.35a.945.945 0 1 1 0-1.89h15.735a.945.945 0 1 1 0 1.89zM2.73 15.06c0 .795-.611 1.44-1.365 1.44S0 15.855 0 15.06c0-.795.611-1.44 1.365-1.44s1.365.645 1.365 1.44z"/>
    </symbol>
    <symbol id="icon-call" viewBox="0 0 21 24">
        <path d="M3.71 24a.575.575 0 0 1-.265-.064c-1.42-.723-2.412-1.514-3.316-2.642a.582.582 0 0 1-.123-.444c.409-3.005 2.638-4.981 4.765-6.518a.597.597 0 0 1 .242-.102c.954-.162 1.557.321 2.025.697.512.411.804.586 1.357.383.872-.241 2.022-1.207 2.977-2.476.913-1.213 1.508-2.51 1.553-3.384l.005-.066a1.055 1.055 0 0 0-.046-.339 5.178 5.178 0 0 1-.035-.085c-.112-.248-.356-.431-.639-.643-.465-.349-1.101-.826-1.176-1.792a.577.577 0 0 1 .039-.26c.966-2.44 2.332-5.087 5.144-6.222a.582.582 0 0 1 .461.01c1.264.574 2.369 1.413 3.377 2.565.12.137.169.321.134.5-.701 3.509-1.831 6.576-3.359 9.115-.56.934-2.567 4.144-4.835 6.185-2.077 2.11-4.786 3.975-8.034 5.527a.607.607 0 0 1-.252.056L3.71 24zm-2.507-3.24c.704.832 1.46 1.433 2.518 2.002 3.009-1.467 5.518-3.209 7.461-5.181a1.11 1.11 0 0 1 .05-.047c2.186-1.967 4.214-5.263 4.599-5.904 1.418-2.355 2.479-5.198 3.156-8.456-.781-.846-1.622-1.487-2.561-1.949-2.196.997-3.329 3.134-4.209 5.331.066.338.296.525.696.826.359.269.766.574 1.002 1.094.009.016.029.061.047.108a1.8 1.8 0 0 1 .106.398c.001.006.012.065.012.072.014.118.022.242.018.376l-.005.07c-.058 1.121-.725 2.627-1.786 4.038-1.118 1.485-2.48 2.591-3.556 2.885a2.3 2.3 0 0 1-.792.144c-.746 0-1.249-.404-1.653-.729-.383-.308-.623-.484-.972-.471-1.912 1.395-3.705 3.019-4.131 5.393z"/>
    </symbol>
    <symbol id="icon-camera" viewBox="0 0 22 17">
        <path d="M5.866 5.306H2.639a.774.774 0 0 1-.773-.773V4.16c0-.427.347-.773.773-.773h3.227c.427 0 .773.347.773.773v.373a.774.774 0 0 1-.773.773zM2.64 3.653a.507.507 0 0 0-.507.507v.373c0 .293.24.507.507.507h3.227c.293 0 .507-.24.507-.507V4.16a.507.507 0 0 0-.507-.507H2.64zm9.92 9.227a3.802 3.802 0 0 1-3.787-3.787 3.802 3.802 0 0 1 3.787-3.787 3.802 3.802 0 0 1 3.787 3.787c.027 2.08-1.68 3.787-3.787 3.787zm0-7.307a3.516 3.516 0 0 0-3.52 3.52 3.516 3.516 0 0 0 3.52 3.52 3.516 3.516 0 0 0 3.52-3.52c.027-1.947-1.573-3.52-3.52-3.52zm0 9.253a5.77 5.77 0 0 1-5.76-5.76 5.77 5.77 0 0 1 5.76-5.76 5.77 5.77 0 0 1 5.76 5.76c0 3.2-2.587 5.76-5.76 5.76zm0-11.226c-3.013 0-5.493 2.453-5.493 5.493 0 3.013 2.453 5.493 5.493 5.493a5.485 5.485 0 0 0 5.493-5.493A5.485 5.485 0 0 0 12.56 3.6zm6.96 13.04H1.84A1.844 1.844 0 0 1 0 14.8V3.467c0-1.013.827-1.84 1.84-1.84h1.173C3.066.72 3.813 0 4.72 0h3.013c.907 0 1.68.72 1.707 1.627h10.08c1.013 0 1.84.827 1.84 1.84v11.307c0 1.04-.8 1.867-1.84 1.867v-.001zM1.84 1.893c-.88 0-1.573.72-1.573 1.573v11.307c0 .88.72 1.573 1.573 1.573h17.707c.88 0 1.573-.72 1.573-1.573V3.466c0-.88-.72-1.573-1.573-1.573H9.307c-.053 0-.133-.027-.133-.187 0-.8-.64-1.467-1.467-1.467H4.72c-.8 0-1.467.64-1.467 1.467v.187H1.84z"/>
    </symbol>
    <symbol id="icon-cart" viewBox="0 0 30 24">
        <path d="M29.564 5.561c-.293-.468-.937-1.054-2.224-1.054-1.405-.059-18.207 0-19.202 0L6.675.585A.88.88 0 0 0 5.855 0H.878C.351 0 0 .351 0 .878s.351.878.878.878h4.39l5.738 15.22a.88.88 0 0 0 .82.585h13.817c.527 0 .937-.293 1.112-.761.117-.293.761-2.049 1.405-3.805.644-1.815 1.346-3.688 1.522-4.273.469-1.288.41-2.4-.117-3.161zm-1.522 2.517c-.234.585-.878 2.459-1.58 4.273a107.382 107.382 0 0 0-1.23 3.454h-12.82l-3.63-9.541h18.5c.293 0 .644.059.82.293.234.234.176.82-.059 1.522v-.001zM14.695 21.6a2.166 2.166 0 1 1-4.333 0 2.166 2.166 0 0 1 4.333 0zm12.645 0a2.166 2.166 0 1 1-4.333 0 2.166 2.166 0 0 1 4.333 0z"/>
    </symbol>
    <symbol id="icon-cart-null" viewBox="0 0 23 19">
        <path d="M21.862 14.104H9.702c-.519 0-1.078-.378-1.271-.861L4.919 4.47a.036.036 0 0 0-.004-.009L3.542 1.032c-.121-.303-.514-.57-.841-.57H.231a.23.23 0 1 1 0-.462h2.47c.519 0 1.078.378 1.271.861l1.316 3.287h16.574c.552 0 1.001.449 1.001 1.002v7.951c0 .552-.449 1.002-1.001 1.002v.001zM5.473 4.611l3.387 8.46c.122.304.514.57.841.57h12.16a.54.54 0 0 0 .539-.539V5.151a.54.54 0 0 0-.539-.539H5.472l.001-.001zm14.41 14.335a1.862 1.862 0 0 1-1.854-1.866c0-1.029.832-1.866 1.854-1.866 1.023 0 1.854.837 1.854 1.866a1.862 1.862 0 0 1-1.854 1.866zm0-3.268a1.4 1.4 0 0 0-1.392 1.403 1.4 1.4 0 0 0 1.392 1.403 1.4 1.4 0 0 0 1.392-1.403 1.4 1.4 0 0 0-1.392-1.403zm-8.04 3.268a1.862 1.862 0 0 1-1.855-1.866c0-1.029.832-1.866 1.855-1.866 1.022 0 1.854.837 1.854 1.866a1.862 1.862 0 0 1-1.854 1.866zm0-3.268c-.768 0-1.392.629-1.392 1.403s.624 1.403 1.392 1.403a1.4 1.4 0 0 0 1.392-1.403 1.4 1.4 0 0 0-1.392-1.403zm-5.61-8.25h16.398v.231H6.233v-.231zm1.431 3.164H22.79v.231H7.664v-.231z"/>
    </symbol>
    <symbol id="icon-caution-null" viewBox="0 0 24 20">
        <path d="M21.973 19.696H1.27c-.539 0-.945-.195-1.145-.548-.2-.353-.158-.801.12-1.263L10.546.712c.275-.46.657-.712 1.074-.712.417 0 .798.253 1.074.712L23 17.885c.277.462.32.91.12 1.263-.2.353-.607.548-1.146.548zM11.62.501c-.234 0-.463.167-.644.469L.672 18.143c-.177.296-.218.572-.113.759.105.187.364.294.71.294h20.703c.345 0 .603-.107.71-.294.105-.187.063-.463-.114-.759L12.264.97c-.18-.302-.41-.469-.645-.469h.001zm0 13.897c.228 0 .422.08.583.24a.79.79 0 0 1 .24.583.773.773 0 0 1-.254.583.808.808 0 0 1-.569.24c-.21 0-.4-.08-.569-.24a.77.77 0 0 1-.254-.583c0-.229.08-.423.24-.583.16-.16.354-.24.582-.24h.001zm.784-4.272c0 1.716-.352 3.121-.784 3.121-.432 0-.784-1.404-.784-3.121s.353-3.121.784-3.121c.431 0 .784 1.404.784 3.121z"/>
    </symbol>
    <symbol id="icon-center-aligned" viewBox="0 0 24 17">
        <path d="M22.966 9.195H.826A.946.946 0 0 1 .821 7.32h22.145a.946.946 0 0 1 .005 1.875h-.005zm-4.185-7.32H5.011a.93.93 0 0 1-.915-.93V.93A.93.93 0 0 1 5.01 0h13.756a.93.93 0 0 1 .93.93v.015a.93.93 0 0 1-.914.93h-.001zM18.316 16.5H5.476a.946.946 0 0 1-.005-1.875h12.845a.946.946 0 0 1 .005 1.875h-.005z"/>
    </symbol>
    <symbol id="icon-center-justified" viewBox="0 0 24 17">
        <path d="M23.07 9.195H.93A.946.946 0 0 1 .925 7.32H23.07a.946.946 0 0 1 .005 1.875h-.005zm0-7.32H.93A.93.93 0 0 1 0 .945V.93A.93.93 0 0 1 .93 0h22.14a.93.93 0 0 1 .93.93v.016a.93.93 0 0 1-.93.929zM18.42 16.5H5.58a.946.946 0 0 1-.005-1.875H18.42a.946.946 0 0 1 .005 1.875h-.005z"/>
    </symbol>
    <symbol id="icon-chat" viewBox="0 0 31 24">
        <path d="M1.484 18.271h-.009a.665.665 0 0 1-.531-.263c-.358-.473-.001-1.152.793-2.498a12.95 12.95 0 0 0 .934-1.843C1.106 12.321.071 10.414 0 8.261 0 3.648 5.143 0 11.505 0c5.384 0 9.975 2.635 11.172 6.397l-1.151.345C20.502 3.498 16.257 1.15 11.459 1.15c-5.684 0-10.355 3.187-10.355 7.099a5.993 5.993 0 0 0 2.445 4.59l.155.081c.46.564 0 1.473-.966 3.152l-.426.771a9.101 9.101 0 0 0 1.521-.781A8.168 8.168 0 0 0 5.63 14.55l.272-.365.38.15c.707.294 1.54.545 2.403.712l-.136 1.164a14.515 14.515 0 0 1-2.401-.677c-.441.594-1.045 1.088-1.702 1.505-.827.525-1.74.92-2.715 1.161l-.247.071zm27.785 5.73h-.184a9.116 9.116 0 0 1-2.764-1.173 9.852 9.852 0 0 1-1.752-1.501c-1.548.569-3.33.902-5.19.902h-.054c-5.37 0-9.961-2.635-11.169-6.397l-.288-.92.943.184c.809.16 1.74.252 2.692.253 5.684 0 10.355-3.187 10.355-7.099a4.974 4.974 0 0 0-.252-1.543l-.277-.885.943.173c5.039.943 8.56 4.222 8.56 7.973a7.037 7.037 0 0 1-2.801 5.326c.292.76.62 1.391.993 1.992.749 1.335 1.117 1.968.761 2.439a.666.666 0 0 1-.517.276h.001zm-4.418-4.061l.265.311a8.258 8.258 0 0 0 1.806 1.522c.458.292.946.547 1.457.757l-.364-.725c-.955-1.68-1.427-2.589-.966-3.152l.081-.081a5.995 5.995 0 0 0 2.462-4.59c0-2.992-2.726-5.638-6.742-6.662.044.267.069.575.069.889v.033c0 4.6-5.143 8.248-11.505 8.248a15.925 15.925 0 0 1-1.953-.123c1.538 2.769 5.427 4.702 9.765 4.702h.045c1.848 0 3.612-.359 5.226-1.011l.354-.118z"/>
    </symbol>
    <symbol id="icon-check" viewBox="0 0 24 18">
        <path fill="#0654ba" d="M20.429.001L7.673 12.87 2.481 7.677 0 10.386l7.674 7.45L23.14 2.486 20.43 0z"/>
    </symbol>
    <symbol id="icon-checkbox-checked" viewBox="0 0 23 24">
        <path d="M0 4.235A4.237 4.237 0 0 1 4.237 0h14.482a4.228 4.228 0 0 1 4.237 4.235v15.529a4.237 4.237 0 0 1-4.237 4.235H4.237A4.228 4.228 0 0 1 0 19.764V4.235zm3.577 8.955l5.279 5.129L19.229 8.24l-1.977-1.921-8.197 7.965-3.332-3.237-2.146 2.143z"/>
    </symbol>
    <symbol id="icon-checkbox-unchecked" viewBox="0 0 23 24">
        <path d="M18.361 24.046H4.701A4.705 4.705 0 0 1 0 19.348V4.701A4.707 4.707 0 0 1 4.701 0h13.66a4.707 4.707 0 0 1 4.701 4.701v14.647a4.706 4.706 0 0 1-4.701 4.698zM4.701 1.411A3.292 3.292 0 0 0 1.412 4.7v14.647a3.291 3.291 0 0 0 3.289 3.287h13.66a3.291 3.291 0 0 0 3.289-3.287V4.7a3.292 3.292 0 0 0-3.289-3.289H4.701z"/>
    </symbol>
    <symbol id="icon-checkout-complete" viewBox="0 0 32 25">
        <path d="M10.733 20.368h-.028c-.502 0-.956.208-1.28.543a1.805 1.805 0 0 0-.543 1.397 1.85 1.85 0 0 0 1.851 1.847 1.802 1.802 0 0 0 1.392-.543 1.78 1.78 0 0 0 .544-1.281v-.029-.013a1.852 1.852 0 0 0-1.852-1.852h-.015l-.069-.069zm10.859 0h-.028c-.502 0-.956.208-1.28.543a1.805 1.805 0 0 0-.543 1.397 1.85 1.85 0 0 0 3.703-.005c.002-.029.002-.063.002-.098 0-.508-.209-.966-.545-1.294a1.78 1.78 0 0 0-1.281-.544h-.029l.001.001zM25.169.098h-.045a6.571 6.571 0 0 0-6.508 7.483L6.96 7.547 5.735 4.275a.748.748 0 0 0-.276-.36.72.72 0 0 0-.419-.141H.723c-.386 0-.7.301-.722.68L0 4.492c0 .203.08.386.21.521a.72.72 0 0 0 .508.208h3.806l4.928 12.974a.599.599 0 0 0 .262.374c.119.08.263.127.418.127H21.995l.035.001c.209 0 .404-.062.567-.17a.895.895 0 0 0 .343-.464l.447-1.176c.241-.64.497-1.346.766-2.116l.571-1.545h.46a6.613 6.613 0 1 0 0-13.226l-.015.098zm0 11.833a5.235 5.235 0 1 1 .002-10.47 5.235 5.235 0 0 1-.002 10.47zm-2.478 2.367c-.232.603-.44 1.174-.626 1.712l-.445 1.253H10.636L7.532 9.078h11.471a6.675 6.675 0 0 0 4.13 3.913l-.442 1.307zm5.93-10.149a.667.667 0 0 0-.918.124l-3.106 4.052-1.963-1.67a.685.685 0 0 0-.933.069.654.654 0 0 0 .069.933l2.506 2.186c.113.095.26.153.421.153h.08a.67.67 0 0 0 .458-.249l3.509-4.609a.655.655 0 0 0-.124-.918l.001-.071z"/>
    </symbol>
    <symbol id="icon-chevron-down" viewBox="0 0 24 14">
        <path d="M2.905-.023l11.542 11.544-2.448 2.449L.455 2.426l2.45-2.449zM9.55 11.521L21.095-.024l2.45 2.449L11.999 13.97 9.55 11.521z"/>
    </symbol>
    <symbol id="icon-chevron-left" viewBox="0 0 14 24">
        <path d="M13.993 2.45L2.449 13.992 0 11.544 11.545 0l2.449 2.45h-.001zM2.449 9.096l11.545 11.545-2.449 2.45L0 11.546l2.449-2.45z"/>
    </symbol>
    <symbol id="icon-chevron-right" viewBox="0 0 14 23">
        <path d="M0 20.502L11.469 9.036l2.433 2.432L2.433 22.936 0 20.502zm11.469-6.601L0 2.433 2.433 0l11.469 11.469-2.433 2.433v-.001z"/>
    </symbol>
    <symbol id="icon-chevron-up" viewBox="0 0 24 14">
        <path d="M20.641 13.993L9.099 2.449 11.547 0l11.544 11.545-2.45 2.448zM13.995 2.449L2.45 13.994 0 11.545 11.546 0l2.449 2.449z"/>
    </symbol>
    <symbol id="icon-chevron-light-left" viewBox="0 0 13 23">
        <path d="M12.118.263a.92.92 0 0 0-1.288 0L.293 10.8c-.176.176-.293.41-.293.644 0 .234.117.468.293.644l10.185 10.185c.176.176.41.293.644.293.234 0 .468-.117.644-.293a.92.92 0 0 0 0-1.288l-9.541-9.54 9.893-9.894a.92.92 0 0 0 0-1.288z"/>
    </symbol>
    <symbol id="icon-chevron-light-right" viewBox="0 0 13 23">
        <path d="M.263.263a.92.92 0 0 1 1.288 0L12.088 10.8c.176.176.293.41.293.644 0 .234-.117.468-.293.644L1.903 22.273c-.176.176-.41.293-.644.293-.234 0-.468-.117-.644-.293a.92.92 0 0 1 0-1.288l9.541-9.54L.263 1.55a.92.92 0 0 1 0-1.288z"/>
    </symbol>
    <symbol id="icon-classified-ad" viewBox="0 0 28 25">
        <path d="M8.999 7.715h5.783a.856.856 0 0 0 0-1.712H8.999a.856.856 0 1 0 0 1.712zm0 9.426h13.924a.856.856 0 1 0 0-1.712H8.999a.856.856 0 1 0 0 1.712zm0-4.704h5.783a.856.856 0 0 0 0-1.712H8.999a.856.856 0 1 0 0 1.712zm9.648 0h3.422a1.727 1.727 0 0 0 1.695-1.726V7.289a1.728 1.728 0 0 0-1.71-1.711h-3.407c-.948 0-1.718.764-1.727 1.71v3.423c0 .954.773 1.727 1.727 1.727v-.001zm0-5.133h3.422v3.406h-3.422V7.304zM25.918.001H6.005a1.71 1.71 0 0 0-1.711 1.711v6.004H1.711A1.71 1.71 0 0 0 0 9.427l.002.083v11.085a3.437 3.437 0 0 0 3.437 3.421h22.495a1.71 1.71 0 0 0 1.711-1.711V1.711A1.71 1.71 0 0 0 25.934 0h-.016v.001zM4.294 22.29h-.872a1.711 1.711 0 0 1-1.711-1.694V9.506h2.582l.001 12.784zm21.64 0H6.005V1.696h19.929V22.29z"/>
    </symbol>
    <symbol id="icon-clear" viewBox="0 0 24 24">
        <path fill="#ccc" d="M12 0C5.373 0 0 5.373 0 12s5.373 12 12 12 12-5.373 12-12S18.627 0 12 0zm4.2 16.245a1.5 1.5 0 0 1-2.116 0l-2.085-2.115-2.13 2.115a1.5 1.5 0 1 1-2.117-2.114l2.117-2.132-2.115-2.115a1.501 1.501 0 1 1 2.116-2.13L12 9.884l2.115-2.115a1.499 1.499 0 0 1 2.693.909c0 .493-.238.93-.604 1.203l-2.089 2.118 2.085 2.115a1.497 1.497 0 0 1 0 2.13v.001z"/>
    </symbol>
    <symbol id="icon-clock" viewBox="0 0 24 24">
        <path d="M12 0C5.422 0 0 5.422 0 12s5.422 12 12 12 12-5.422 12-12S18.578 0 12 0zm0 21.333A9.332 9.332 0 0 1 2.667 12 9.332 9.332 0 0 1 12 2.667 9.332 9.332 0 0 1 21.333 12 9.332 9.332 0 0 1 12 21.333zm3.467-6.577L12 12.445V6.223c0-.711-.622-1.333-1.333-1.333s-1.333.533-1.333 1.333v6.933c0 .444.356.8.711 1.067l4 2.756c.267.178.533.267.8.267.444 0 .8-.178.978-.533.444-.622.267-1.511-.356-1.956v-.001z"/>
    </symbol>
    <symbol id="icon-close" viewBox="0 0 24 24">
        <path d="M23.205 1.79L21.415 0l-9.813 9.812L1.79 0 0 1.79l9.812 9.812L0 21.415l1.79 1.789 9.812-9.811 9.813 9.811 1.79-1.789-9.813-9.813z"/>
    </symbol>
    <symbol id="icon-collections-null" viewBox="0 0 49 24">
        <path d="M26.079 23.983H.344a.34.34 0 0 1-.34-.34V.394A.34.34 0 0 1 .34 0h25.739a.34.34 0 0 1 .34.34v23.249a.34.34 0 0 1-.336.394h-.005.001zM.702 23.321h25.037V.662H.702v22.659zm22.819-1.699H2.919a.34.34 0 0 1-.322-.339V2.827a.34.34 0 0 1 .34-.34h20.584a.34.34 0 0 1 .34.34v18.456a.34.34 0 0 1-.34.34v-.001zm-20.262-.661h19.923V3.077H3.259v17.884zm44.423-9.711H29.011a.34.34 0 0 1-.34-.34V.341a.34.34 0 0 1 .34-.34h18.671a.34.34 0 0 1 .34.34v10.587a.34.34 0 0 1-.339.322h-.001zm-18.366-.698h18.027V.662H29.316v9.89zM45 8.764H31.784a.34.34 0 0 1-.34-.34V2.826a.34.34 0 0 1 .34-.34H45a.34.34 0 0 1 .34.34v5.598a.34.34 0 0 1-.34.34zm-12.877-.662h12.519V3.166H32.123v4.936zm15.398 15.899H28.976a.34.34 0 0 1-.34-.34V13.145a.34.34 0 0 1 .34-.34h18.545a.34.34 0 0 1 .34.34v10.516a.34.34 0 0 1-.34.34zm-18.205-.662H47.2v-9.854H29.316v9.854zm8.941-1.502c-3.863 0-6.903-1.466-6.903-3.326s3.022-3.326 6.903-3.326 6.903 1.466 6.903 3.326-2.987 3.326-6.903 3.326zm0-5.919c-3.38 0-6.241 1.216-6.241 2.665s2.861 2.665 6.241 2.665c3.38 0 6.241-1.216 6.241-2.665s-2.808-2.665-6.241-2.665z"/>
    </symbol>
    <symbol id="icon-comments" viewBox="0 0 25 24">
        <path d="M17.843 24.001a.895.895 0 0 1-.392-.096c-.1-.05-.191-.114-.275-.181l-1.33-1.041a1237.267 1237.267 0 0 1-5.29-4.154 1.668 1.668 0 0 0-.783-.367 5.3 5.3 0 0 0-.779-.079l-5.733-.003A3.264 3.264 0 0 1 0 14.819V3.261A3.265 3.265 0 0 1 3.261 0h17.956a3.265 3.265 0 0 1 3.261 3.261v11.558a3.265 3.265 0 0 1-3.261 3.261H18.66a.892.892 0 0 0-.016.215l-.001 4.644c0 .129-.004.281-.045.442-.097.376-.393.618-.753.618l-.002.002zM3.26 1.175a2.09 2.09 0 0 0-2.088 2.087V14.82a2.09 2.09 0 0 0 2.088 2.088l5.738.003c.34.001.677.048.961.093.475.077.907.275 1.324.605 1.757 1.39 3.521 2.771 5.285 4.151l.898.703.001-4.123c0-.134 0-.228.006-.319.048-.662.522-1.11 1.181-1.113h2.56a2.09 2.09 0 0 0 2.088-2.088V3.262a2.09 2.09 0 0 0-2.087-2.087H3.259h.001z"/>
    </symbol>
    <symbol id="icon-confirmation" viewBox="0 0 24 24">
        <path fill="#5ba71b" d="M12.007 24.014C5.376 24.014 0 18.638 0 12.007 0 5.376 5.376 0 12.007 0c6.631 0 12.007 5.376 12.007 12.007v.015c-.008 6.625-5.381 11.992-12.007 11.992zm0-22.261c-5.671 0-10.268 4.597-10.268 10.268s4.597 10.268 10.268 10.268 10.268-4.597 10.268-10.268S17.678 1.753 12.007 1.753zM11.13 17.6h-.003a.736.736 0 0 1-.485-.182L5.968 13.44a.74.74 0 1 1 .961-1.125l4.076 3.477 6.136-8.056a.744.744 0 1 1 1.181.906l-6.607 8.68a.722.722 0 0 1-.512.292h-.087l.014-.014z"/>
    </symbol>
    <symbol id="icon-feedback-negative" viewBox="0 0 22 22">
        <path fill="#dd1e31" d="M10.969 0C4.911 0 0 4.911 0 10.969s4.911 10.969 10.969 10.969 10.969-4.91 10.969-10.969C21.938 4.912 17.027 0 10.969 0zm4.113 12.339H6.854a1.37 1.37 0 1 1 0-2.74h8.227a1.37 1.37 0 1 1 0 2.74h.001z"/>
    </symbol>
    <symbol id="icon-feedback-neutral" viewBox="0 0 23 23">
        <path fill="#555" d="M11.016 0C4.933 0 0 4.93 0 11.015 0 17.1 4.932 22.031 11.016 22.031S22.032 17.1 22.032 11.015 17.101 0 11.016 0zm4.131 13.769c0 .76-.617 1.376-1.377 1.376H8.262c-.76 0-1.377-.616-1.377-1.376V8.26c0-.76.616-1.377 1.377-1.377h5.508c.76 0 1.377.617 1.377 1.377v5.509z"/>
    </symbol>
    <symbol id="icon-feedback-null" viewBox="0 0 23 23">
        <path d="M10.39 19.911l-.41-.41L21.896 7.585c.64-.64.64-1.681 0-2.321L17.69 1.057a1.627 1.627 0 0 0-1.16-.478c-.44 0-.853.17-1.162.478L3.452 12.974l-.41-.409L14.958.648A2.206 2.206 0 0 1 16.53 0c.595 0 1.152.231 1.571.648l4.206 4.206c.418.418.648.976.648 1.571s-.23 1.152-.648 1.571L10.39 19.912v-.001zM.723 22.908a.678.678 0 0 1-.482-.194.686.686 0 0 1-.189-.559l.7-6.776c.033-.333.237-.761.473-.997l1.913-1.914.41.41-1.913 1.913a1.3 1.3 0 0 0-.308.647L.63 22.214c-.004.039.004.071.023.09.02.019.05.027.09.023l6.776-.699c.198-.02.506-.167.647-.307l1.913-1.914.41.41-1.913 1.913c-.236.236-.665.44-.997.475l-6.777.697a.68.68 0 0 1-.078.005v.001zM13.48 2.536l6.94 6.94-.41.41-6.94-6.94.41-.41zM.784 19.931l2.268 2.268-2.525.18.257-2.448zM15.641 4.806l.205.205L4.718 16.12l-.205-.205L15.641 4.806zm2.307 2.307l.205.205L7.034 18.437l-.205-.205L17.95 7.113zM2.36 13.657l6.94 6.94-.205.205-6.94-6.94.205-.205zM.29 22.955a.288.288 0 0 1-.205-.085.296.296 0 0 1-.084-.234l.495-4.801.577.059-.458 4.447 3.945-.407.06.576-4.3.443a.302.302 0 0 1-.03.002z"/>
    </symbol>
    <symbol id="icon-feedback-positive" viewBox="0 0 23 23">
        <path fill="#5ba71b" d="M11.017 0C4.935 0 0 4.929 0 11.017c0 6.082 4.935 11.016 11.017 11.016s11.016-4.934 11.016-11.016C22.033 4.929 17.099 0 11.017 0zm7.131 11.665c0 .714-.579 1.296-1.299 1.296h-3.885v3.888c0 .712-.586 1.296-1.299 1.296h-1.299a1.297 1.297 0 0 1-1.293-1.296v-3.888H5.182a1.296 1.296 0 0 1-1.293-1.296v-1.299c0-.713.579-1.296 1.293-1.296h3.891V5.182c0-.713.579-1.295 1.293-1.295h1.299c.713 0 1.299.582 1.299 1.295V9.07h3.884c.719 0 1.299.583 1.299 1.296v1.299h.001z"/>
    </symbol>
    <symbol id="icon-fire" viewBox="0 0 19 24">
        <path d="M11.27 9.854C12.459 8.756 13.724 2.182 7.904 0 9.384 5.392-.81 9.055.052 16.174c.38 3.148 3.852 6.475 7.68 7.076-.622-.81-1.175-.981-1.464-2.438-.474-2.385 1.13-4.729 4.087-5.822-.401 3.693 2.646 4.118 2.243 6.887a5.372 5.372 0 0 1-.268 1.055c2.888-.747 5.274-2.493 6.072-5.268 1.122-3.905-.425-8.829-4.031-10.887-.5 1.987-1.913 2.919-3.102 3.077z"/>
    </symbol>
    <symbol id="icon-fixed-price" viewBox="0 0 19 24">
        <path d="M12.584 18.262a2.583 2.583 0 0 0-2.464-2.428l-.005-2.456a1.962 1.962 0 0 1 1.3.826.624.624 0 0 0 1.072-.552 3.21 3.21 0 0 0-2.371-1.52l-.015-.002a.624.624 0 1 0-1.233.003l-.001-.004a2.582 2.582 0 0 0-2.469 2.42 2.583 2.583 0 0 0 2.464 2.434l.005 2.456a1.962 1.962 0 0 1-1.3-.826.624.624 0 1 0-1.112.552 3.21 3.21 0 0 0 2.399 1.52l.014.002a.624.624 0 1 0 1.233-.003l.001.004a2.581 2.581 0 0 0 2.483-2.42l-.001-.006zm-4.953-3.704c0-.707.638-1.04 1.234-1.165v2.33c-.541-.139-1.234-.457-1.234-1.165zm2.469 4.87v-2.331c.596.125 1.235.458 1.235 1.166s-.638 1.04-1.235 1.165zm5.827-10.516V6.138a6.438 6.438 0 0 0-12.86-.014l-.001 2.789A3.179 3.179 0 0 0 0 12.088V20.469a3.177 3.177 0 0 0 3.177 3.177h12.624a3.177 3.177 0 0 0 3.177-3.177V12.131v-.044a3.176 3.176 0 0 0-3.046-3.174l-.005-.001zm-.125 1.387h.001c.981 0 1.776.795 1.776 1.776l-.001.058v8.321c0 .981-.795 1.776-1.776 1.776H3.164a1.776 1.776 0 0 1-1.776-1.776v-8.323l-.001-.056c0-.981.795-1.776 1.776-1.776h12.639zM14.526 8.91H4.453V6.299a3.832 3.832 0 0 1-.007-.249c0-2.617 2.255-4.74 5.036-4.74 2.782 0 5.037 2.123 5.037 4.74 0 .088-.002.174-.008.261l.015 2.599z"/>
    </symbol>
    <symbol id="icon-follow" viewBox="0 0 24 24">
        <path d="M23.362 9.347h-9.345V0H9.345v9.347H0v4.67h9.345v9.348h4.672v-9.348h9.345z"/>
    </symbol>
    <symbol id="icon-glasses-null" viewBox="0 0 58 24">
        <path d="M11.979 24C5.361 23.988 0 18.62 0 12 0 5.373 5.373 0 12 0s12 5.373 12 12c-.012 6.63-5.39 12-12.021 12zm0-23.149C5.878.863.936 5.812.936 11.915c0 6.11 4.953 11.064 11.064 11.064s11.064-4.953 11.064-11.064C23.04 5.807 18.089.863 11.98.851h-.001zM45.319 24c-6.618-.012-11.979-5.38-11.979-12 0-6.627 5.373-12 12-12s12 5.373 12 12c-.012 6.63-5.39 12-12.021 12zm0-23.149c-6.074.048-10.978 4.983-10.978 11.064 0 6.11 4.953 11.064 11.064 11.064 6.08 0 11.015-4.905 11.063-10.974v-.047c0-6.134-4.972-11.106-11.106-11.106h-.045l.002-.001zm-11.511 9.617A.468.468 0 0 1 33.34 10c0-1.681-2.128-3.043-4.723-3.043-2.595 0-4.723 1.362-4.723 3.043a.468.468 0 1 1-.936 0c0-2.128 2.532-3.979 5.66-3.979s5.66 1.787 5.66 3.979c0 .259-.21.468-.468.468h-.002z"/>
    </symbol>
    <symbol id="icon-help" viewBox="0 0 17 24">
        <path d="M8.316 21.161a.582.582 0 0 1-.583-.583c0-3.144.835-4.06 1.892-5.22l.074-.081c.622-.683 1.175-1.103 1.815-1.589a24.687 24.687 0 0 0 2.165-1.804c1.64-1.537 1.735-4.205 1.736-4.232 0-1.034-.17-1.972-.504-2.771a5.65 5.65 0 0 0-1.396-2.009 6.26 6.26 0 0 0-2.157-1.263c-.843-.294-1.797-.444-2.836-.444-1.142 0-2.186.199-3.1.59a6.529 6.529 0 0 0-2.313 1.642 7.495 7.495 0 0 0-1.46 2.515c-.342.969-.504 2.033-.482 3.162a.584.584 0 0 1-.57.595c-.309.027-.588-.249-.595-.57C-.023 7.83.16 6.628.55 5.527A8.65 8.65 0 0 1 2.24 2.622 7.669 7.669 0 0 1 4.961.685C6.022.231 7.221 0 8.521 0c1.17 0 2.254.172 3.222.511.98.344 1.84.849 2.556 1.501a6.793 6.793 0 0 1 1.686 2.42c.394.943.595 2.031.595 3.237-.003.144-.104 3.192-2.105 5.066a25.446 25.446 0 0 1-2.257 1.882c-.619.47-1.108.841-1.658 1.445l-.075.082c-.99 1.086-1.587 1.741-1.587 4.434a.584.584 0 0 1-.583.583h.001zM8.291 24a.582.582 0 0 1-.583-.583v-.742a.583.583 0 1 1 1.166 0v.742a.583.583 0 0 1-.583.583z"/>
    </symbol>
    <symbol id="icon-information" viewBox="0 0 24 24">
        <path fill="#0654ba" d="M12.007 9.753a.849.849 0 0 0-.849.849v6.553a.85.85 0 0 0 1.683.004v-6.557a.849.849 0 0 0-.834-.849zm1.057-2.88a1.016 1.016 0 1 1-2.032 0 1.016 1.016 0 0 1 2.032 0zm-1.057 17.141C5.376 24.014 0 18.638 0 12.007 0 5.376 5.376 0 12.007 0c6.631 0 12.007 5.376 12.007 12.007v.015c-.008 6.625-5.381 11.992-12.007 11.992zm0-22.261c-5.671 0-10.268 4.597-10.268 10.268s4.597 10.268 10.268 10.268 10.268-4.597 10.268-10.268S17.678 1.753 12.007 1.753z"/>
    </symbol>
    <symbol id="icon-italic" viewBox="0 0 14 24">
        <path d="M9.686 23.999H0l.411-2.451h3.206l3.24-19.097h-3.24L4.028 0h9.686l-.411 2.451h-3.206l-3.24 19.097h3.24z"/>
    </symbol>
    <symbol id="item-feedback" viewBox="0 0 24 24">
        <path d="M22.648.962A3.143 3.143 0 0 0 20.381 0l-.05.001H3.236c-.892 0-1.697.368-2.272.961A3.142 3.142 0 0 0 .001 3.23v11.859L0 15.142c0 .888.369 1.69.962 2.26a3.17 3.17 0 0 0 2.266.95h6.2c.13.044.241.11.335.196.127.063.237.137.336.224l2.452 1.965 2.51 1.967 1.283.99.112.084.181.112.209.084h.234c.209 0 .4-.073.549-.197a.924.924 0 0 0 .304-.495.967.967 0 0 0 .001-.305l.001-4.569h2.287a3.249 3.249 0 0 0 3.249-3.249V3.263c.002-.049.005-.105.005-.162 0-.825-.314-1.576-.829-2.141l.001.002zm-.502 2.301v11.826a1.813 1.813 0 0 1-1.813 1.813h-2.456c-.335 0-.64.133-.863.349-.23.218-.377.523-.39.862a.6.6 0 0 0 .001.173l-.001 3.72-.572-.446-2.51-1.966-2.552-1.98a3.463 3.463 0 0 0-.607-.382 2.99 2.99 0 0 0-.698-.229L9.234 17H3.265l-.037.001c-.489 0-.931-.203-1.246-.529a1.73 1.73 0 0 1-.588-1.3l.002-.086V3.264l-.001-.037c0-.489.203-.931.529-1.246a1.726 1.726 0 0 1 1.341-.586h17.067l.037-.001c.489 0 .931.203 1.246.529a1.728 1.728 0 0 1 .53 1.344l.001-.004zm-4.295 3.793l-3.431-.641-1.548-3.221a.923.923 0 0 0-.778-.53h-.005a.921.921 0 0 0-.831.524L9.652 6.443l-3.431.641a.935.935 0 0 0-.488 1.576l2.482 2.496-.558 3.64a.934.934 0 0 0 1.398.96l3.05-1.601 3.054 1.59a.939.939 0 0 0 .953-.003l-.005.002a.893.893 0 0 0 .18-.166.929.929 0 0 0 .21-.76l-.613-3.662 2.455-2.468a.933.933 0 0 0-.482-1.575l-.006-.057zm-8.284 4.1a.931.931 0 0 0-.265-.809l-2.05-2.106 2.789-.544a.935.935 0 0 0 .667-.511l1.286-2.642 1.255 2.636a.94.94 0 0 0 .664.515l2.865.559-1.98 2.05a.934.934 0 0 0-.264.8l.46 3.035-2.441-1.297a.94.94 0 0 0-.869.002l-2.519 1.392.402-3.08z"/>
    </symbol>
    <symbol id="item-paid" viewBox="0 0 35 24">
        <path d="M15.181 8.956a6.043 6.043 0 0 0-3.828 10.567l.142.096a5.999 5.999 0 0 0 3.697 1.263 6.012 6.012 0 0 0 3.511-1.124l.148-.109A6.04 6.04 0 0 0 15.19 8.957l-.009-.001zm0 10.573h-.002c-.933 0-1.8-.282-2.521-.766a2.627 2.627 0 0 1 1.51-1.6c.291.097.608.157.938.157.33 0 .647-.06.94-.169a2.593 2.593 0 0 1 1.487 1.665 4.312 4.312 0 0 1-2.349.712l-.003.001zm-1.284-4.939v-.005a1.269 1.269 0 1 1 1.806 1.15l-.008.003a1.269 1.269 0 0 1-1.798-1.147v-.001zm4.803 3.263a4.075 4.075 0 0 0-1.346-1.607 2.841 2.841 0 0 0 .535-1.652 2.734 2.734 0 1 0-4.968 1.576 3.935 3.935 0 0 0-1.4 1.48 4.329 4.329 0 0 1-.89-2.662 4.531 4.531 0 1 1 8.048 2.857l.021.008zM34.741 7.069a7.16 7.16 0 0 0-14.207-1.176L.727 5.937H.725a.726.726 0 0 0-.723.772V23.17c0 .401.325.725.725.725h28.531c.4 0 .725-.325.725-.725v-9.35c2.796-1.022 4.756-3.657 4.758-6.752v.001zm-7.129 5.663h-.061a5.679 5.679 0 1 1 5.679-5.679v.016a5.678 5.678 0 0 1-5.615 5.663h-.003zm-26.1 9.712v-3.745a4.544 4.544 0 0 1 3.727 3.704l-3.727.041zm27.066 0h-3.64a4.394 4.394 0 0 1 3.553-3.561l.087 3.561zm0-5.045a5.932 5.932 0 0 0-5.056 5.013l-16.844.032a6.053 6.053 0 0 0-5.133-5.222l-.032-9.776h18.941c.18 3.785 3.293 6.786 7.106 6.786.338 0 .671-.023.997-.069l.021 3.236zm2.779-13.11a.724.724 0 0 0-.996.135l-3.369 4.397-2.13-1.813a.735.735 0 0 0-.466-.165.709.709 0 0 0-.472 1.252l2.72 2.372a.702.702 0 0 0 .457.166h.087a.719.719 0 0 0 .497-.271l3.807-5.001a.712.712 0 0 0-.134-1.072h-.001z"/>
    </symbol>
    <symbol id="item-shipped" viewBox="0 0 28 24">
        <path d="M20.729 0a6.415 6.415 0 0 0-5.645 3.385l-10.666.034a.687.687 0 0 0-.606.362L.081 10.312 0 10.42v12.771c0 .395.321.716.716.716H22.365a.717.717 0 0 0 .716-.716V12.367c2.396-.963 4.057-3.267 4.057-5.96A6.406 6.406 0 0 0 20.732.001h-.003V0zM4.837 4.838h9.649a6.192 6.192 0 0 0-.219 1.652c0 1.314.4 2.534 1.085 3.547l-13.528-.022 3.013-5.177zM21.594 22.54H1.391V11.378h15.27a6.263 6.263 0 0 0 3.982 1.419c.326 0 .646-.025.958-.072l-.007 9.815zm-.865-11.054a5.081 5.081 0 1 1 0-10.162 5.081 5.081 0 0 1 0 10.162zm3.351-7.554a.649.649 0 0 0-.891.12l-2.947 3.934-1.906-1.621a.658.658 0 0 0-.905.066.632.632 0 0 0 .066.905l2.366 2.123a.635.635 0 0 0 .409.149h.078a.65.65 0 0 0 .445-.242l3.406-4.474a.633.633 0 0 0-.119-.958l-.002-.002zM2.85 18.162h7.933v-5.324H2.85v5.324zm1.23-4.054h5.527v2.865H4.026l.054-2.865z"/>
    </symbol>
    <symbol id="justified" viewBox="0 0 24 17">
        <path d="M23.085 9.195H.945a.945.945 0 1 1 0-1.89h22.14a.945.945 0 1 1 0 1.89zm0-7.305H.945a.93.93 0 0 1-.93-.93V.944.93A.93.93 0 0 1 .945 0h22.14a.93.93 0 0 1 .93.93v.03a.93.93 0 0 1-.93.93zm0 14.61H.945a.945.945 0 1 1 0-1.89h22.14a.945.945 0 1 1 0 1.89z"/>
    </symbol>
    <symbol id="icon-mail" viewBox="0 0 36 32">
        <path d="M35.98 5.776c0-0.078 0-0.078 0-0.156s-0.078-0.078-0.078-0.156c0 0 0 0 0-0.078 0 0 0 0 0 0 0-0.078-0.078-0.078-0.156-0.078 0 0-0.078-0.078-0.078-0.078-0.078 0-0.078 0-0.156-0.078-0.078 0-0.078 0-0.156 0 0 0 0 0-0.078 0h-29.971c0 0 0 0-0.078 0s-0.078 0-0.156 0-0.078 0-0.156 0.078c-0.078 0-0.078 0.078-0.078 0.078-0.078 0-0.078 0.078-0.156 0.078 0 0 0 0 0 0 0 0.078 0 0.078 0 0.078 0 0.078-0.078 0.078-0.078 0.156s0 0.078 0 0.156c0 0 0 0.078 0 0.078v20.215c0 0.39 0.312 0.78 0.78 0.78h29.971c0.39 0 0.781-0.312 0.781-0.78v-20.215c-0.078 0-0.078 0-0.156-0.078zM20.293 16.937l-12.8-10.302h25.6l-12.8 10.302zM6.088 25.366v-17.873l13.58 10.927c0 0 0.078 0.078 0.156 0.078 0.156 0.078 0.312 0.156 0.468 0.156s0.312-0.078 0.468-0.156l13.737-11.005v17.873h-28.41z"></path>
    </symbol>
    <symbol id="icon-menu" viewBox="0 0 21 18">
        <path d="M19.234 2.62H1.205a.862.862 0 0 1-.878-.878c0-.527.41-.878.878-.878h18.029a.9.9 0 0 1 .878.878.9.9 0 0 1-.878.878zm0 14.517H1.205a.9.9 0 0 1-.878-.878.9.9 0 0 1 .878-.878h18.029a.9.9 0 0 1 .878.878.9.9 0 0 1-.878.878zm0-7.493H1.205a.9.9 0 0 1-.878-.878.9.9 0 0 1 .878-.878h18.029a.9.9 0 0 1 .878.878.9.9 0 0 1-.878.878z"/>
    </symbol>
    <symbol id="icon-notifications" viewBox="0 0 40 32">
        <path d="M20.371 32c1.639 0 2.966-1.327 2.966-2.888h-5.854c-0.078 1.561 1.249 2.888 2.888 2.888z"></path>
        <path d="M35.746 25.912c0 0-2.888-2.341-4.449-4.137-1.249-1.483-1.249-3.356-1.249-5.776 0-3.2 0.078-7.259-3.59-11.239-1.561-1.717-3.434-2.498-4.683-2.888-0.078-0.78-0.78-1.327-1.561-1.327s-1.405 0.546-1.561 1.327c-1.327 0.39-3.122 1.171-4.683 2.888-3.668 3.981-3.668 8.039-3.59 11.239 0 2.42 0.078 4.293-1.249 5.776-1.561 1.795-4.371 4.137-4.449 4.137-0.312 0.234-0.468 0.702-0.312 1.093s0.468 0.624 0.937 0.624h29.659c0 0 0 0 0 0 0.39 0 0.781-0.234 0.937-0.624 0.312-0.39 0.156-0.859-0.156-1.093zM20.371 25.678h-12.332c0.859-0.78 1.873-1.795 2.654-2.654 1.795-2.029 1.717-4.449 1.717-7.024 0-3.2-0.078-6.478 3.122-9.912 2.029-2.263 4.761-2.576 4.761-2.576s0.078 0 0.078 0c0 0 0 0 0 0s2.732 0.312 4.761 2.576c3.122 3.434 3.122 6.712 3.122 9.912 0 2.576-0.078 4.995 1.717 7.024 0.78 0.859 1.795 1.873 2.654 2.654h-12.254z"></path>
    </symbol>
    <symbol id="icon-priority" viewBox="0 0 32 32">
        <path fill="#dd1e31" d="M15.991 18.996c0 0 0 0 0 0-0.625 0-1.132-0.507-1.132-1.132 0 0 0 0 0 0v-8.737c-0.006-0.043-0.009-0.094-0.009-0.145 0-0.625 0.507-1.132 1.132-1.132s1.132 0.507 1.132 1.132c0 0.051-0.003 0.101-0.010 0.15l0.001 8.732c0 0 0 0 0 0 0 0.618-0.496 1.121-1.112 1.131z"></path>
        <path fill="#dd1e31" d="M17.401 22.855c0 0.748-0.606 1.354-1.354 1.354s-1.354-0.606-1.354-1.354c0-0.748 0.606-1.354 1.354-1.354s1.354 0.606 1.354 1.354z"></path>
        <path fill="#dd1e31" d="M15.991 32c-8.842 0-16.009-7.168-16.009-16.009s7.168-16.009 16.009-16.009c8.842 0 16.009 7.168 16.009 16.009 0 0.007 0 0.013 0 0.020-0.011 8.833-7.174 15.99-16.009 15.99 0 0 0 0 0 0zM15.991 2.319c0 0 0 0 0 0-7.561 0-13.69 6.129-13.69 13.69s6.129 13.69 13.69 13.69c7.561 0 13.69-6.129 13.69-13.69s-6.129-13.69-13.69-13.69z"></path>
    </symbol>
    <symbol id="icon-profile" viewBox="0 0 32 32">
        <path d="M13.643 1.792c0 0 1.672 0 4.719 0 4.652 0 5.305 5.37 5.305 5.37s-0.018 5.652-0.018 6.983c0 0.418-2.919 8.302-2.919 8.302l9.433 4.725c0 0-1.691 2.934-3.544 2.934s-17.363 0.019-21.236 0.019c-1.797 0-3.545-2.953-3.545-2.953l9.476-4.782c0 0-2.971-7.598-2.971-8.245 0-1.663-0.037-7.038-0.037-7.038s0.907-5.316 5.337-5.316z"></path>
    </symbol>
    <symbol id="icon-radio" viewBox="0 0 32 32">
        <path class="unchecked" fill="currentColor" d="M16 31.6c-8.667 0-15.719-6.999-15.719-15.6s7.052-15.6 15.719-15.6 15.719 6.999 15.719 15.6c0 8.604-7.052 15.6-15.719 15.6zM16 2.178c-7.687 0-13.941 6.201-13.941 13.822s6.254 13.822 13.941 13.822 13.941-6.201 13.941-13.822-6.254-13.822-13.941-13.822z"></path>
        <path class="checked-outer" d="M16 31.6c-8.667 0-15.719-6.997-15.719-15.6 0-8.601 7.052-15.6 15.719-15.6s15.719 6.999 15.719 15.6c0 8.604-7.052 15.6-15.719 15.6zM16 2.178c-7.687 0-13.941 6.201-13.941 13.822s6.254 13.822 13.941 13.822 13.941-6.201 13.941-13.822-6.254-13.822-13.941-13.822z"></path>
        <path class="checked-inner" d="M24.139 15.803c0 4.406-3.715 7.979-8.299 7.979s-8.299-3.572-8.299-7.979c0-4.407 3.715-7.979 8.299-7.979s8.299 3.572 8.299 7.979z"></path>
    </symbol>
    <symbol id="icon-radio-checked" viewBox="0 0 32 32">
        <path d="M16 31.6c-8.667 0-15.719-6.997-15.719-15.6 0-8.601 7.052-15.6 15.719-15.6s15.719 6.999 15.719 15.6c0 8.604-7.052 15.6-15.719 15.6zM16 2.178c-7.687 0-13.941 6.201-13.941 13.822s6.254 13.822 13.941 13.822 13.941-6.201 13.941-13.822-6.254-13.822-13.941-13.822z"></path>
        <path d="M24.139 15.803c0 4.406-3.715 7.979-8.299 7.979s-8.299-3.572-8.299-7.979c0-4.407 3.715-7.979 8.299-7.979s8.299 3.572 8.299 7.979z"></path>
    </symbol>
    <symbol id="icon-radio-unchecked" viewBox="0 0 32 32">
        <path d="M16 31.6c-8.667 0-15.719-6.999-15.719-15.6s7.052-15.6 15.719-15.6 15.719 6.999 15.719 15.6c0 8.604-7.052 15.6-15.719 15.6zM16 2.178c-7.687 0-13.941 6.201-13.941 13.822s6.254 13.822 13.941 13.822 13.941-6.201 13.941-13.822-6.254-13.822-13.941-13.822z"></path>
    </symbol>
    <symbol id="icon-search" viewBox="4 0 32 32">
        <path d="M33.327 30.205l-6.79-6.79c1.561-1.873 2.498-4.293 2.498-6.946-0.078-6.010-4.995-11.005-11.083-11.005s-11.005 4.995-11.005 11.005 4.917 11.083 11.005 11.083c2.732 0 5.151-1.015 7.102-2.576l6.79 6.79c0.234 0.234 0.468 0.312 0.702 0.312s0.546-0.078 0.702-0.312c0.468-0.468 0.468-1.171 0.078-1.561zM9.054 16.468c0-4.917 3.98-8.898 8.898-8.898s8.898 3.98 8.898 8.898-3.98 8.976-8.898 8.976c-4.917 0-8.898-3.98-8.898-8.976z"></path>
    </symbol>
    <symbol id="icon-settings" viewBox="0 0 32 32">
        <path d="M29.386 18.233h-1.337c-0.611 0-1.264 0.479-1.448 1.063l-0.768 1.87c-0.289 0.54-0.169 1.341 0.261 1.773l0.953 0.949c0.434 0.434 0.434 1.143 0 1.578l-1.581 1.577c-0.432 0.433-1.142 0.433-1.576 0l-0.947-0.95c-0.435-0.431-1.233-0.55-1.773-0.257l-1.87 0.768c-0.585 0.181-1.064 0.832-1.064 1.445v1.337c0 0.611-0.503 1.113-1.116 1.113h-2.232c-0.614 0-1.116-0.503-1.116-1.113v-1.337c0-0.613-0.477-1.264-1.066-1.445l-1.87-0.768c-0.537-0.293-1.336-0.175-1.767 0.257l-0.953 0.95c-0.434 0.433-1.143 0.433-1.575 0l-1.582-1.577c-0.433-0.436-0.433-1.144 0-1.578l0.95-0.949c0.434-0.431 0.552-1.233 0.261-1.773l-0.77-1.87c-0.179-0.584-0.827-1.063-1.444-1.065h-1.34c-0.613 0-1.116-0.503-1.116-1.117v-2.232c0-0.613 0.503-1.114 1.116-1.114l1.339 0.002c0.616 0 1.264-0.481 1.448-1.066l0.766-1.87c0.293-0.541 0.174-1.337-0.261-1.771l-0.949-0.95c-0.434-0.434-0.434-1.145 0-1.578l1.579-1.577c0.432-0.433 1.14-0.433 1.575 0l0.953 0.948c0.434 0.434 1.229 0.553 1.771 0.261l1.867-0.767c0.588-0.183 1.066-0.835 1.066-1.448v-1.337c0-0.614 0.502-1.117 1.116-1.117h2.232c0.613 0 1.116 0.503 1.116 1.117v1.337c0 0.613 0.479 1.265 1.064 1.448l1.864 0.767c0.544 0.292 1.343 0.172 1.775-0.261l0.951-0.948c0.435-0.433 1.145-0.433 1.576 0l1.581 1.577c0.434 0.433 0.434 1.144 0 1.579l-0.953 0.95c-0.43 0.434-0.55 1.23-0.261 1.771l0.768 1.867c0.184 0.587 0.835 1.067 1.448 1.067h1.337c0.616 0 1.114 0.502 1.114 1.114v2.235c0 0.614-0.497 1.116-1.113 1.116zM16.003 10.824c-2.86 0-5.177 2.317-5.177 5.176s2.317 5.176 5.177 5.176c2.859 0 5.177-2.317 5.177-5.176s-2.317-5.176-5.177-5.176z"></path>
    </symbol>
    <symbol id="icon-star" viewBox="0 0 32 32">
        <path d="M15.999 0.852l4.615 9.975 10.525 1.663-7.57 7.758 1.845 10.901-9.415-5.174-9.417 5.174 1.847-10.901-7.569-7.758 10.525-1.663 4.614-9.975z"></path>
    </symbol>
    <symbol id="icon-trash" viewBox="0 0 28 32">
        <path d="M19.36 21.707c0.002 0 0.004 0 0.006 0 0.453 0 0.827-0.339 0.882-0.778l0-7.258c0-0.491-0.398-0.889-0.889-0.889s-0.889 0.398-0.889 0.889v7.253c0.055 0.443 0.429 0.782 0.882 0.782 0.002 0 0.005 0 0.007-0z"></path>
        <path d="M14.027 21.707c0.002 0 0.004 0 0.006 0 0.453 0 0.827-0.339 0.882-0.778l0-7.258c0-0.491-0.398-0.889-0.889-0.889s-0.889 0.398-0.889 0.889v7.253c0.055 0.443 0.429 0.782 0.882 0.782 0.002 0 0.005 0 0.007-0z"></path>
        <path d="M8.693 21.707c0.002 0 0.004 0 0.006 0 0.453 0 0.827-0.339 0.882-0.778l0-7.258c0-0.491-0.398-0.889-0.889-0.889s-0.889 0.398-0.889 0.889v7.253c0.055 0.443 0.429 0.782 0.882 0.782 0.002 0 0.005 0 0.007-0z"></path>
        <path d="M27.662 5.333h-6.204c0-1.778-0.48-5.333-3.556-5.333h-7.378c-3.058 0-3.556 3.556-3.556 5.333h-6.169c-0.491 0-0.889 0.398-0.889 0.889s0.398 0.889 0.889 0.889h1.671v19.147c0 2.187 2.062 5.742 4.249 5.742h14.933c2.187 0 3.858-3.556 3.858-5.742v-19.147h2.062c0.013 0.001 0.029 0.001 0.044 0.001 0.492 0 0.89-0.398 0.89-0.89 0-0.476-0.374-0.865-0.843-0.889zM10.524 1.778h7.396c1.564 0 1.956 1.778 1.956 3.556h-11.307c0.018-1.778 0.409-3.556 1.956-3.556zM23.804 26.258c0 1.316-0.764 3.964-2.080 3.964h-15.004c-1.316 0-2.453-2.649-2.453-3.964v-19.147h19.556v19.147z"></path>
    </symbol>
    <symbol id="icon-view-detail" viewBox="0 0 32 32">
        <path d="M30.503 19.188c0 0.438-0.358 0.796-0.796 0.796h-27.507c-0.438 0-0.796-0.358-0.796-0.796v-17.325c0-0.438 0.358-0.796 0.796-0.796h27.507c0.438 0 0.796 0.358 0.796 0.796v17.325z"></path>
        <path d="M30.595 30.137c0 0.438-0.358 0.796-0.796 0.796h-27.483c-0.438 0-0.796-0.358-0.796-0.796v-5.803c0-0.438 0.358-0.796 0.796-0.796h27.483c0.438 0 0.796 0.358 0.796 0.796v5.803z"></path>
    </symbol>
    <symbol id="icon-view-grid" viewBox="0 0 32 32">
        <path d="M14.062 13.267c0 0.438-0.358 0.796-0.796 0.796h-11.041c-0.438 0-0.796-0.358-0.796-0.796v-11.039c0-0.438 0.358-0.796 0.796-0.796h11.041c0.438 0 0.796 0.358 0.796 0.796v11.039z"></path>
        <path d="M14.062 29.772c0 0.438-0.358 0.796-0.796 0.796h-11.041c-0.438 0-0.796-0.358-0.796-0.796v-11.037c0-0.438 0.358-0.796 0.796-0.796h11.041c0.438 0 0.796 0.358 0.796 0.796v11.037z"></path>
        <path d="M30.57 13.267c0 0.438-0.358 0.796-0.796 0.796h-11.040c-0.438 0-0.796-0.358-0.796-0.796v-11.039c0-0.438 0.358-0.796 0.796-0.796h11.040c0.438 0 0.796 0.358 0.796 0.796v11.039z"></path>
        <path d="M30.57 29.772c0 0.438-0.358 0.796-0.796 0.796h-11.040c-0.438 0-0.796-0.358-0.796-0.796v-11.037c0-0.438 0.358-0.796 0.796-0.796h11.040c0.438 0 0.796 0.358 0.796 0.796v11.037z"></path>
    </symbol>
    <symbol id="icon-view-list" viewBox="0 0 32 32">
        <path d="M8.202 7.863c0 0.437-0.358 0.795-0.795 0.795h-5.803c-0.438 0-0.795-0.358-0.795-0.795v-5.801c0-0.438 0.358-0.796 0.795-0.796h5.803c0.438 0 0.795 0.358 0.795 0.796v5.801z"></path>
        <path d="M31.192 7.863c0 0.437-0.358 0.795-0.796 0.795h-18.136c-0.438 0-0.796-0.358-0.796-0.795v-5.801c0-0.438 0.358-0.796 0.796-0.796h18.136c0.438 0 0.796 0.358 0.796 0.796v5.801z"></path>
        <path d="M8.202 18.901c0 0.438-0.358 0.796-0.795 0.796h-5.803c-0.438 0-0.795-0.358-0.795-0.796v-5.802c0-0.438 0.358-0.796 0.795-0.796h5.803c0.438 0 0.795 0.358 0.795 0.796v5.802z"></path>
        <path d="M31.192 18.901c0 0.438-0.358 0.796-0.796 0.796h-18.136c-0.438 0-0.796-0.358-0.796-0.796v-5.802c0-0.438 0.358-0.796 0.796-0.796h18.136c0.438 0 0.796 0.358 0.796 0.796v5.802z"></path>
        <path d="M8.202 29.938c0 0.438-0.358 0.796-0.795 0.796h-5.803c-0.438 0-0.795-0.358-0.795-0.796v-5.802c0-0.438 0.358-0.796 0.795-0.796h5.803c0.438 0 0.795 0.358 0.795 0.796v5.802z"></path>
        <path d="M31.192 29.938c0 0.438-0.358 0.796-0.796 0.796h-18.136c-0.438 0-0.796-0.358-0.796-0.796v-5.802c0-0.438 0.358-0.796 0.796-0.796h18.136c0.438 0 0.796 0.358 0.796 0.796v5.802z"></path>
    </symbol>
    <symbol id="icon-window" viewBox="0 0 36 32">
        <path d="M0.663 7.583h20.859c0.366 0 0.663 0.297 0.663 0.663v0.957c0 0.366-0.297 0.663-0.663 0.663h-20.859c-0.366 0-0.663-0.297-0.663-0.663v-0.957c0-0.366 0.297-0.663 0.663-0.663z"></path>
        <path d="M2.282 7.583v24.319h-2.282v-24.319h2.282z"></path>
        <path d="M26.969 17.963v13.252c0 0.407-0.33 0.736-0.736 0.736h-0.933c-0.407 0-0.736-0.33-0.736-0.736v-13.252c0-0.407 0.33-0.736 0.736-0.736h0.933c0.407 0 0.736 0.33 0.736 0.736z"></path>
        <path d="M0 29.718h26.945v2.282h-26.945v-2.282z"></path>
        <path d="M34.356 0.196h2.552v22.11h-2.552v-22.11z"></path>
        <path d="M36.908 0v2.552h-22.11v-2.552h22.11z"></path>
        <path d="M35.096-0.019l1.805 1.805-19.035 19.035-1.805-1.805 19.035-19.035z"></path>
    </symbol>
</svg>
