<svg xmlns="http://www.w3.org/2000/svg" width="20" height="12" fill="none" viewBox="0 0 20 12"><rect width="19" height="11" x=".5" y=".5" fill="#fff" stroke="#000" rx="1.5"/><path fill="#263B80" d="M16.488 8.756h-.447c-.022 0-.044-.021-.044-.043l.268-1.63h-.425c-.022 0-.044-.022-.044-.043l.067-.365c0-.043.045-.064.09-.064h1.428c.022 0 .045.021.045.043l-.067.364c0 .043-.045.065-.09.065h-.401L16.6 8.692c-.045.043-.09.064-.112.064Zm-3.238-.472h.134c.357 0 .67-.193.737-.601.067-.386-.156-.601-.536-.601h-.09c-.021 0-.044.021-.044.043l-.2 1.159Zm-.312-1.609c0-.043.045-.064.09-.064h.758c.626 0 1.072.472.96 1.072-.111.601-.692 1.073-1.317 1.073h-.781c-.023 0-.045-.021-.045-.043l.335-2.038Zm2.3 2.081h-.447c-.022 0-.045-.021-.045-.043l.335-2.038c0-.043.045-.064.09-.064h.446c.022 0 .045.021.045.043l-.335 2.038c0 .043-.045.064-.09.064Zm-3.282-1.609-.045.3h.603c.022 0 .044.022.044.044l-.067.364c0 .043-.044.065-.089.065h-.514c-.044 0-.067.021-.089.064l-.045.3h.648c.022 0 .045.022.045.043l-.068.365c0 .043-.044.064-.089.064h-1.16c-.023 0-.046-.021-.046-.043l.335-2.038c0-.043.045-.064.09-.064h1.16c.023 0 .045.021.045.043l-.067.364c0 .043-.044.065-.089.065H12s-.044.021-.044.064Zm-2.01.429h.067c.201 0 .402-.043.447-.28.044-.235-.09-.257-.29-.278h-.09c-.022 0-.044.021-.044.043l-.09.515Zm1.004 1.18h-.602c-.023 0-.045-.021-.068-.043l-.4-.793-.134.773c0 .021-.023.064-.067.064h-.47c-.022 0-.044-.021-.044-.043L9.5 6.676c0-.021.022-.064.067-.064h.826c.447 0 .737.193.67.665a.696.696 0 0 1-.603.6l.513.816c.045.021.023.064-.022.064ZM9.209 7.213c0 .042-.067.064-.09.021-.088-.107-.245-.15-.401-.15a.69.69 0 0 0-.692.6c-.045.344.156.58.513.58a.853.853 0 0 0 .447-.15c.045-.021.09 0 .09.043l-.09.493c0 .022-.023.043-.067.065-.179.043-.313.085-.492.085-.96 0-1.116-.793-1.071-1.137.134-.944.938-1.158 1.429-1.137.156 0 .29.022.446.086a.117.117 0 0 1 .067.107l-.089.494Z"/><path fill="#139AD6" d="M14.68 4.23c-.045.28-.268.28-.47.28h-.11l.09-.516c0-.021.021-.043.066-.043h.045c.134 0 .268 0 .335.086.044.022.066.107.044.193Zm-.09-.708h-.781c-.045 0-.09.043-.112.086l-.312 1.931c0 .043.022.064.067.064h.402c.044 0 .067-.021.067-.064l.089-.558c0-.043.045-.086.111-.086h.246c.513 0 .826-.236.893-.708a.593.593 0 0 0-.09-.493c-.111-.107-.312-.172-.58-.172Z"/><path fill="#263B80" d="M13.34 4.23h-.38c-.045 0-.067.02-.089.042l-.513.73-.224-.708a.124.124 0 0 0-.111-.065h-.38c-.044 0-.067.043-.067.086l.425 1.18-.402.537c-.023.043 0 .107.044.107h.38c.045 0 .067-.022.09-.043l1.25-1.738c.066-.086.021-.129-.023-.129Z"/><path fill="#139AD6" d="M16.42 4.938a.408.408 0 0 1-.423.343c-.112 0-.201-.043-.246-.107a.443.443 0 0 1-.067-.257.408.408 0 0 1 .424-.344c.112 0 .201.043.246.108a.44.44 0 0 1 .067.257Zm.514-.709h-.38c-.022 0-.066.022-.066.043l-.023.107-.022-.043c-.09-.107-.268-.15-.447-.15-.424 0-.78.3-.848.73a.688.688 0 0 0 .134.558c.111.129.268.193.469.193.335 0 .513-.215.513-.215l-.022.108c0 .043.022.064.067.064h.335c.045 0 .09-.043.112-.086l.2-1.244c.045-.043.023-.065-.022-.065Z"/><path fill="#263B80" d="M9.075 4.23c-.044.28-.267.28-.468.28h-.112l.09-.516c0-.021.021-.043.066-.043h.045c.134 0 .268 0 .335.086.044.022.067.107.044.193Zm-.089-.708h-.781c-.045 0-.09.043-.112.086l-.312 1.931c0 .043.022.064.067.064h.38c.044 0 .089-.042.11-.085l.09-.515c0-.043.045-.086.112-.086h.245c.514 0 .826-.236.893-.708a.593.593 0 0 0-.089-.494c-.134-.128-.335-.193-.603-.193Zm1.832 1.416a.408.408 0 0 1-.425.343c-.111 0-.2-.043-.245-.107a.443.443 0 0 1-.067-.257.408.408 0 0 1 .424-.344c.112 0 .201.043.246.108.044.064.067.15.067.257Zm.513-.709h-.38c-.022 0-.067.022-.067.043l-.022.107-.023-.043c-.089-.107-.268-.15-.446-.15-.424 0-.781.3-.849.73a.688.688 0 0 0 .134.558c.112.129.268.193.47.193a.695.695 0 0 0 .513-.215l-.023.108c0 .043.023.064.068.064h.335c.044 0 .089-.043.111-.086l.201-1.244c.045-.043.022-.065-.022-.065Z"/><path fill="#139AD6" d="m17.381 3.585-.313 1.974c0 .043.023.065.068.065h.335c.044 0 .089-.043.111-.086l.313-1.931c0-.043-.023-.065-.067-.065h-.357c-.045-.021-.09 0-.09.043M6.285 4.851c.067-.408 0-.687-.223-.944-.246-.279-.715-.386-1.295-.386H3.07a.26.26 0 0 0-.246.193L2.11 8.005a.139.139 0 0 0 .134.172h1.049l-.067.429c-.022.064.045.15.134.15h.87c.112 0 .202-.064.202-.172v-.042l.156-1.009V7.47a.21.21 0 0 1 .201-.172h.134c.848 0 1.518-.343 1.72-1.287.088-.408.044-.73-.18-.966 0-.086-.089-.15-.178-.193Z"/><path fill="#000" d="M3.873 4.852c.023-.065.067-.129.112-.15.022-.022.067-.022.09-.022H5.39c.157 0 .313 0 .447.022.045 0 .067.021.112.021.044 0 .067.021.111.021.023 0 .045 0 .045.022.067.021.134.043.179.064.067-.407 0-.686-.224-.944-.245-.279-.714-.386-1.295-.386H3.07a.26.26 0 0 0-.246.193L2.11 7.984a.139.139 0 0 0 .134.172h1.05l.268-1.61.312-1.694Z"/><path fill="#232C65" d="M6.285 4.83c.067-.407 0-.686-.224-.944-.245-.279-.714-.386-1.295-.386H3.07a.26.26 0 0 0-.246.193L2.11 7.984a.139.139 0 0 0 .134.172h1.05l.268-1.61v.044a.24.24 0 0 1 .245-.194h.492c.982 0 1.741-.386 1.964-1.48.023-.021.023-.043.023-.086Z"/></svg>