<svg xmlns="http://www.w3.org/2000/svg" width="38" height="24" fill="none" viewBox="0 0 38 24"><rect width="38" height="24" fill="#fff" rx="2"/><rect width="37" height="23" x=".5" y=".5" fill="#fff" stroke="#000" rx="1.5"/><path fill="#fff" d="M9.364 12.144a8.345 8.345 0 1 1 16.69 0 8.345 8.345 0 0 1-8.346 8.345 8.343 8.343 0 0 1-8.344-8.345Z"/><path fill="#004A98" d="M17.72 20.638C12.937 20.66 9 16.786 9 12.07c0-5.156 3.935-8.72 8.72-8.72h2.242C24.688 3.35 29 6.912 29 12.07c0 4.715-4.312 8.568-9.038 8.568H17.72Zm.02-16.572a7.913 7.913 0 1 0 .001 15.826 7.913 7.913 0 0 0 0-15.826ZM15.944 16.66V7.3a5.026 5.026 0 0 0-3.22 4.68 5.02 5.02 0 0 0 3.22 4.68Zm6.812-4.68a5.021 5.021 0 0 0-3.222-4.681v9.363a5.023 5.023 0 0 0 3.222-4.682Z"/></svg>