<svg xmlns="http://www.w3.org/2000/svg" width="30" height="18" fill="none" viewBox="0 0 30 18"><g clip-path="url(#a)"><path fill="#000" d="M27.306 10.359a.75.75 0 0 0-.507.201.678.678 0 0 0-.208.484.65.65 0 0 0 .208.483.721.721 0 0 0 .507.202c.394 0 .714-.307.714-.685a.651.651 0 0 0-.207-.484.723.723 0 0 0-.507-.201Zm-2.351-.529c0-.52-.462-.94-1.032-.94-.57 0-1.032.421-1.032.94 0 .517.463.937 1.033.937.57 0 1.031-.42 1.031-.938Zm.004-1.825h1.139v3.648h-1.139v-.234a2.059 2.059 0 0 1-1.129.334c-1.109 0-2.007-.861-2.007-1.924 0-1.062.898-1.924 2.007-1.924.42 0 .807.123 1.13.334v-.234Zm-5.161-.097c-.454 0-.885.135-1.173.509v-.41H17.49v3.646h1.148V9.737c0-.555.387-.827.855-.827.5 0 .788.287.788.819v1.924h1.138V9.334c0-.849-.704-1.426-1.622-1.426Zm-3.955.572v-.476h-1.166v3.647h1.169V9.948c0-.574.649-.883 1.1-.883h.013v-1.06c-.463 0-.887.19-1.116.474ZM12.94 9.83c0-.52-.463-.94-1.033-.94-.57 0-1.032.421-1.032.94 0 .517.463.937 1.033.937.57 0 1.031-.42 1.031-.938Zm.004-1.825h1.139v3.648h-1.14v-.234c-.321.21-.71.334-1.129.334-1.108 0-2.007-.861-2.007-1.924 0-1.062.899-1.924 2.007-1.924.42 0 .808.123 1.13.334v-.234Zm-4.796 3.648H9.34V6.381H8.148v5.272Zm-5.238.001h1.262V6.38H2.91v5.274ZM7.325 6.38a4.108 4.108 0 0 1-1.292 2.993l1.745 2.281H6.22L4.324 9.176l.49-.352a3.08 3.08 0 0 0 .943-1.078 2.92 2.92 0 0 0 .332-1.366h1.237Z"/><rect width="29" height="17" x=".5" y=".5" stroke="#000" rx="1.5"/></g><defs><clipPath id="a"><path fill="#fff" d="M0 0h30v18H0z"/></clipPath></defs></svg>