<svg xmlns="http://www.w3.org/2000/svg" width="20" height="12" fill="none" viewBox="0 0 20 12"><rect width="19" height="11" x=".5" y=".5" fill="#fff" stroke="#000" rx="1.5"/><path fill="#fff" d="M16.219 8.686c0 1-.837 1.814-1.865 1.814H4.211V3.314c0-1 .836-1.814 1.864-1.814h10.144v7.186Z"/><path fill="url(#a)" d="M12.916 6.843h.77c.022 0 .074-.007.096-.007a.337.337 0 0 0 .271-.336c0-.171-.124-.3-.271-.335-.022-.007-.066-.007-.096-.007h-.77v.685Z"/><path fill="url(#b)" d="M13.598 2.107c-.734 0-1.335.578-1.335 1.3v1.35h1.886c.044 0 .095 0 .132.007.426.021.741.236.741.607 0 .293-.213.543-.609.593v.014c.433.029.764.264.764.629 0 .393-.367.65-.852.65h-2.07V9.9h1.96c.734 0 1.336-.579 1.336-1.3V2.107h-1.953Z"/><path fill="url(#c)" d="M13.958 5.458a.307.307 0 0 0-.272-.308c-.014 0-.051-.007-.073-.007h-.697v.629h.697c.022 0 .066 0 .073-.007a.307.307 0 0 0 .272-.307Z"/><path fill="url(#d)" d="M9.906 2.107c-.734 0-1.336.578-1.336 1.3v1.7c.338-.279.925-.457 1.872-.415.506.022 1.05.158 1.05.158v.55a2.593 2.593 0 0 0-1.013-.286c-.72-.05-1.153.293-1.153.893 0 .607.433.95 1.153.893a2.72 2.72 0 0 0 1.013-.286v.55s-.536.136-1.05.157c-.947.043-1.534-.136-1.872-.414v3h1.96c.734 0 1.336-.579 1.336-1.3v-6.5h-1.96Z"/><path fill="url(#e)" d="M6.214 2.107c-.734 0-1.336.578-1.336 1.3v3.207c.375.178.764.293 1.153.293.462 0 .712-.272.712-.643V4.75h1.145v1.507c0 .585-.375 1.064-1.644 1.064-.771 0-1.373-.164-1.373-.164v2.735h1.96c.734 0 1.336-.578 1.336-1.3V2.107H6.214Z"/><defs><linearGradient id="a" x1="12.261" x2="15.56" y1="7.495" y2="7.495" gradientUnits="userSpaceOnUse"><stop stop-color="#007940"/><stop offset=".229" stop-color="#00873F"/><stop offset=".743" stop-color="#40A737"/><stop offset="1" stop-color="#5CB531"/></linearGradient><linearGradient id="b" x1="12.261" x2="15.56" y1="9.9" y2="9.9" gradientUnits="userSpaceOnUse"><stop stop-color="#007940"/><stop offset=".229" stop-color="#00873F"/><stop offset=".743" stop-color="#40A737"/><stop offset="1" stop-color="#5CB531"/></linearGradient><linearGradient id="c" x1="12.261" x2="15.56" y1="6.451" y2="6.451" gradientUnits="userSpaceOnUse"><stop stop-color="#007940"/><stop offset=".229" stop-color="#00873F"/><stop offset=".743" stop-color="#40A737"/><stop offset="1" stop-color="#5CB531"/></linearGradient><linearGradient id="d" x1="8.551" x2="11.804" y1="9.85" y2="9.85" gradientUnits="userSpaceOnUse"><stop stop-color="#6C2C2F"/><stop offset=".173" stop-color="#882730"/><stop offset=".573" stop-color="#BE1833"/><stop offset=".859" stop-color="#DC0436"/><stop offset="1" stop-color="#E60039"/></linearGradient><linearGradient id="e" x1="4.877" x2="8.226" y1="9.956" y2="9.956" gradientUnits="userSpaceOnUse"><stop stop-color="#1F286F"/><stop offset=".475" stop-color="#004E94"/><stop offset=".826" stop-color="#0066B1"/><stop offset="1" stop-color="#006FBC"/></linearGradient></defs></svg>