<svg xmlns="http://www.w3.org/2000/svg" width="37" height="24" fill="none" viewBox="0 0 37 24"><rect width="36" height="23" x=".5" y=".5" fill="#fff" stroke="#000" rx="1.5"/><path fill="#747474" d="M23.286 10.487c-.122.857-.733.857-1.324.857h-.336l.236-1.6a.19.19 0 0 1 .183-.168h.154c.403 0 .782 0 .978.245.117.147.153.365.109.666Zm-.257-2.237H20.8a.317.317 0 0 0-.305.28l-.901 6.125c-.018.12.07.23.183.23h1.143a.222.222 0 0 0 .214-.196l.256-1.736a.317.317 0 0 1 .306-.28h.705c1.468 0 2.314-.761 2.536-2.27.1-.66.004-1.18-.285-1.542-.316-.4-.878-.61-1.623-.61Z"/><path fill="#2B2B2B" d="M19.48 10.46h-1.073a.305.305 0 0 0-.256.145l-1.48 2.335-.627-2.244a.313.313 0 0 0-.296-.236h-1.055c-.127 0-.216.134-.176.263l1.181 3.715-1.11 1.68c-.087.132 0 .314.152.314h1.071a.305.305 0 0 0 .255-.142l3.566-5.518c.085-.132-.003-.312-.153-.312Z"/><path fill="#747474" d="M28.622 10.46h1.066c.114 0 .202.109.184.23l-.577 3.915a.317.317 0 0 1-.306.28h-.96c-.114 0-.202-.11-.184-.23l.048-.318s-.527.654-1.477.654c-.554 0-1.018-.17-1.344-.581-.354-.447-.499-1.088-.397-1.758.196-1.343 1.203-2.3 2.382-2.3.514 0 1.029.12 1.26.48l.074.115.047-.32a.19.19 0 0 1 .184-.167Zm-1.625 3.318c.617 0 1.101-.439 1.204-1.092.047-.316-.017-.604-.18-.809-.163-.204-.409-.312-.712-.312-.608 0-1.099.453-1.195 1.1-.05.318.01.604.166.804.16.202.408.309.717.309Z"/><path fill="#2B2B2B" d="M4.91 8.25h2.227c.746 0 1.307.211 1.624.61.288.364.384.883.285 1.543-.222 1.509-1.07 2.27-2.537 2.27h-.705a.317.317 0 0 0-.305.28l-.244 1.652a.317.317 0 0 1-.305.28H3.886c-.114 0-.201-.11-.184-.23l.901-6.124a.317.317 0 0 1 .306-.28Zm1.161 3.095c.591 0 1.202 0 1.324-.858.044-.301.008-.519-.109-.666-.196-.245-.576-.245-.978-.245h-.154a.19.19 0 0 0-.183.168l-.236 1.6h.336Zm6.659-.885h1.067c.114 0 .201.109.183.23l-.576 3.915a.317.317 0 0 1-.306.28h-.96c-.115 0-.202-.11-.184-.23l.047-.318s-.527.654-1.477.654c-.553 0-1.018-.17-1.343-.581-.355-.447-.5-1.088-.397-1.758.196-1.343 1.203-2.3 2.381-2.3.514 0 1.03.12 1.26.48l.075.115.046-.32a.19.19 0 0 1 .184-.167Zm-1.624 3.318c.617 0 1.1-.439 1.204-1.092.047-.316-.018-.604-.18-.809-.163-.204-.409-.312-.712-.312-.608 0-1.1.453-1.196 1.1-.05.318.01.604.167.804.16.202.407.309.717.309Z"/><path fill="#747474" d="m30.946 8.418-.915 6.237c-.018.12.07.23.184.23h.92a.317.317 0 0 0 .305-.28l.902-6.125c.017-.12-.07-.23-.184-.23H31.13a.19.19 0 0 0-.183.168Z"/></svg>