<svg xmlns="http://www.w3.org/2000/svg" width="154" height="16" fill="none" viewBox="0 0 154 16"><path fill="#85B717" d="m35.909 4.525-4.887 9.5h-1.77l1.405-2.638-3.678-6.862h1.848l2.708 5.361 2.699-5.361h1.675Z"/><path fill="#000" d="M36.752 4.523h-.13l-.001.18h-.179v.09h.179v.396c0 .15.075.194.208.194a.907.907 0 0 0 .128-.009v-.091a.778.778 0 0 1-.102.009c-.082 0-.102-.04-.102-.111v-.387h.2v-.09h-.2v-.181Zm.373.19c.002.05.005.095.005.141v.52h.131V5.05c0-.198.127-.281.244-.281.122 0 .184.083.184.262v.344h.132v-.306c0-.22.12-.3.236-.3.143 0 .191.107.191.271v.336h.133V4.99c0-.218-.12-.312-.312-.312a.322.322 0 0 0-.28.17.247.247 0 0 0-.248-.17.339.339 0 0 0-.285.146h-.004a1.35 1.35 0 0 0-.005-.12h-.123v.01Z"/><path fill="#796E65" d="M150.84 11.405v-.572h-3.646V8.139h3.367v-.572h-3.367V5.103h3.501V4.53h-4.125v6.874h4.27Zm-5.109 0v-.572h-3.645V8.139h3.366v-.572h-3.366V5.103h3.501V4.53h-4.126v6.874h4.27Zm-7.68 0h.616l.009-6.303h2.203V4.53h-5.078v.572h2.241l.009 6.303Zm-7.983 0h.625v-5.94h.019l3.75 5.94h.79V4.53h-.626v6.046h-.019l-3.828-6.046h-.711v6.875Zm-5.402-1.857-.732 1.857h-.642l2.75-6.875h.73l2.771 6.875h-.683l-.741-1.857h-3.453Zm1.731-4.446-1.529 3.875h3.029l-1.5-3.875Zm-5.878 3.028h-1.721l-.001 3.275h-.625V4.531h2.27c.606 0 1.105.038 1.635.362.481.286.711.78.711 1.438 0 .743-.528 1.275-1.336 1.475v.02c.886.142 1.076.732 1.164 1.532.031.282.052.526.071.739.055.629.087.995.294 1.308h-.721c-.163-.455-.202-.938-.241-1.421v-.008c-.143-1.57-.241-1.846-1.5-1.846Zm-1.721-3.028V7.56h1.337c.885 0 1.981-.058 1.981-1.229 0-1.243-1.103-1.234-1.786-1.229l-.127.001h-1.405Zm-6.05 4.446-.73 1.857h-.645l2.749-6.875h.732l2.77 6.875h-.683l-.742-1.857h-3.451Zm1.732-4.446-1.53 3.875h3.029l-1.499-3.875Zm-8.367-.572v4.456c.02 1.475.856 2.561 2.538 2.561 1.683 0 2.521-1.086 2.54-2.56V4.53h-.626v4.447c-.048 1.247-.769 1.998-1.914 1.998-1.143 0-1.865-.751-1.913-1.998V4.53h-.625Zm-3.4 3.372v.57h1.741v2.218c-.49.143-1.019.286-1.539.286-1.876 0-2.615-1.257-2.615-3.007 0-1.427.625-3.01 2.289-3.01.826 0 1.605.39 1.729 1.268h.713c-.106-1.22-1.288-1.837-2.442-1.837-2.01 0-2.961 1.807-2.961 3.579 0 2.112 1.068 3.579 2.961 3.579.894 0 1.653-.105 2.491-.43V7.902h-2.367Zm-9.419 3.503.01-3.59 3.327 3.59h.856l-3.491-3.77 3.203-3.105h-.789l-3.106 3.029-.01-3.029h-.616v6.875h.616ZM91.716 6.14c-.095-1.237-1.171-1.751-2.306-1.751-2.097 0-2.991 1.695-2.991 3.579 0 1.905.886 3.579 2.991 3.579 1.115 0 2.182-.658 2.384-1.809h-.673c-.173.856-.942 1.237-1.711 1.237-1.78 0-2.317-1.6-2.317-3.007 0-1.41.537-3.009 2.317-3.009.788 0 1.52.343 1.633 1.181h.673Zm-10.08 3.408-.73 1.857h-.646l2.751-6.875h.732l2.77 6.875h-.684l-.74-1.857h-3.453Zm1.732-4.446-1.53 3.875h3.03l-1.5-3.875Zm-5.321 6.303c1.51 0 2.067-.934 2.067-1.837 0-.98-.634-1.59-1.577-1.742v-.02c.73-.171 1.288-.79 1.288-1.551 0-1.095-.903-1.713-1.933-1.713l-2.49-.011v6.874h2.645Zm-2.02-3.846V5.102h1.481c.82.01 1.646.21 1.646 1.21 0 .93-.808 1.247-1.617 1.247h-1.51Zm1.153.571c1.31 0 2.26.18 2.26 1.352 0 1.056-.692 1.37-1.884 1.35h-1.53l.001-2.702h1.153Zm-7.514 3.275h.624v-2.99l2.54-3.885h-.673L70.03 7.853 67.906 4.53h-.8l2.56 3.905v2.97Zm-2.805 0v-.572h-3.645V8.139h3.366v-.572h-3.366V5.103h3.5V4.53h-4.125v6.874h4.27Zm-10.711 0h.625v-5.94h.02l3.75 5.94h.788V4.53h-.624v6.046h-.02L56.862 4.53h-.711v6.875Zm-4.054-7.016c1.992 0 3.097 1.436 3.097 3.579 0 2.143-1.106 3.58-3.097 3.579-1.99 0-3.096-1.437-3.096-3.579 0-2.142 1.106-3.579 3.096-3.579Zm0 .57c-1.73 0-2.423 1.505-2.423 3.009s.693 3.008 2.423 3.007c1.731 0 2.424-1.503 2.424-3.007 0-1.504-.693-3.009-2.424-3.009Zm-10.661 6.446V5.082h.02l2.654 6.323h.624l2.655-6.35h.02v6.35h.624V4.53h-.952l-2.663 5.989L41.81 4.53h-1v6.875h.625Z"/><path fill="#0064D1" d="M13.904 1.513h-1.58v8.269a32.67 32.67 0 0 1-.054 1.614h1.55c.036-.306.054-.631.054-.953.666.807 1.746 1.215 2.893 1.215 2.191 0 3.746-1.551 3.746-3.677 0-2.54-1.956-3.716-3.717-3.716-1.05 0-2.118.265-2.892 1.178v-3.93Zm4.949 6.448c0 1.58-1.006 2.626-2.474 2.626-1.46 0-2.475-1.047-2.475-2.626 0-1.578 1.014-2.626 2.475-2.626 1.468 0 2.474 1.048 2.474 2.626Z"/><path fill="#F4AE02" d="M27.913 11.398c-.04-.405-.053-.855-.053-1.31V6.891c0-1.965-1.586-2.626-3.463-2.626-1.567 0-3.35.425-3.525 2.103h1.661c.073-.673.774-1.064 1.725-1.064 1.28 0 2.02.47 2.02 1.612v.166c-.624 0-1.38.002-2.052.017-2.46.056-3.876.658-3.876 2.363 0 1.177 1.042 2.195 2.986 2.195 1.313 0 2.258-.277 3.053-1.245-.002.33.016.658.053.986h1.47Zm-5.901-2.013c0-.935.89-1.19 2.323-1.237.645-.02 1.362-.025 1.944-.025v.16c0 1.468-.885 2.362-2.543 2.362-1.237 0-1.724-.654-1.724-1.26Z"/><path fill="#E43238" d="M5.976 8.357c.085 1.42 1.074 2.26 2.435 2.26.943 0 1.78-.38 2.061-1.208h1.63c-.317 1.677-2.117 2.248-3.668 2.248-2.818 0-4.068-1.537-4.068-3.61 0-2.28 1.292-3.782 4.094-3.782 2.23 0 3.864 1.155 3.864 3.677v.415H5.976Zm2.418-3.053c-1.23 0-2.212.616-2.384 2.012h4.653c-.061-1.465-1.13-2.012-2.27-2.012Z"/></svg>