<svg xmlns="http://www.w3.org/2000/svg" width="30" height="18" fill="none" viewBox="0 0 30 18"><rect width="30" height="18" fill="#FFB3C7" rx="2"/><path fill="#000" d="M27.223 10.359a.75.75 0 0 0-.507.201.65.65 0 0 0-.208.483.65.65 0 0 0 .208.484.72.72 0 0 0 .506.202c.395 0 .715-.307.715-.685a.653.653 0 0 0-.208-.484.72.72 0 0 0-.506-.201Zm-2.351-.529c0-.52-.462-.94-1.032-.94-.57 0-1.032.421-1.032.94 0 .517.462.937 1.032.937.57 0 1.032-.42 1.032-.938Zm.004-1.825h1.139v3.648h-1.139v-.234a2.058 2.058 0 0 1-1.13.334c-1.108 0-2.007-.861-2.007-1.924 0-1.062.9-1.924 2.008-1.924.419 0 .807.123 1.129.334v-.234Zm-5.161-.097c-.455 0-.885.135-1.174.509v-.41h-1.134v3.646h1.148V9.737c0-.555.388-.827.855-.827.5 0 .79.287.79.819v1.924h1.137V9.334c0-.849-.705-1.426-1.622-1.426Zm-3.955.572v-.475h-1.166v3.646h1.168V9.948c0-.574.65-.883 1.1-.883h.014v-1.06c-.463 0-.888.19-1.116.474Zm-2.904 1.35c0-.52-.462-.94-1.032-.94-.57 0-1.032.421-1.032.94 0 .517.463.937 1.033.937.57 0 1.031-.42 1.031-.938Zm.004-1.825H14v3.648h-1.14v-.234a2.06 2.06 0 0 1-1.13.334c-1.108 0-2.006-.861-2.006-1.924 0-1.062.898-1.924 2.007-1.924.419 0 .807.123 1.13.334v-.234Zm-4.795 3.648h1.192V6.381H8.065v5.272Zm-5.239.001h1.263V6.38H2.827l-.001 5.274ZM7.243 6.38A4.108 4.108 0 0 1 5.95 9.373l1.745 2.281h-1.56L4.242 9.176l.49-.352a3.08 3.08 0 0 0 .942-1.078c.222-.425.336-.893.333-1.366h1.237Z"/></svg>