<svg xmlns="http://www.w3.org/2000/svg" width="50" height="32" fill="none" viewBox="0 0 50 32"><rect width="50" height="32" fill="#fff" rx="2"/><rect width="49" height="31" x=".5" y=".5" fill="#fff" stroke="#000" rx="1.5"/><path fill="#000" d="M35.488 24.688v-1.413c.123.032.4.032.54.032.77 0 1.187-.34 1.44-1.212 0-.016.147-.517.147-.525l-2.929-8.506h1.804l2.05 6.915h.031l2.05-6.915h1.758l-3.037 8.942c-.694 2.06-1.495 2.723-3.176 2.723-.139 0-.555-.017-.678-.04Zm-5.384-8.053c-1.927.113-3.014 1.026-3.014 2.512 0 1.527 1.11 2.56 2.698 2.56 1.064 0 2.09-.597 2.56-1.542h.038v1.398h1.595v-5.857c0-1.705-1.256-2.795-3.222-2.795-2.004 0-3.252 1.13-3.345 2.666h1.573c.146-.76.747-1.244 1.711-1.244 1.017 0 1.626.565 1.626 1.51v.654l-2.22.138Zm2.22 1.074v.67c0 1.107-.91 1.948-2.073 1.948-.895 0-1.48-.485-1.48-1.228 0-.727.562-1.188 1.557-1.26l1.996-.13Zm-17.992-5.638c-.993-.062-1.838.59-2.312.59-.474 0-1.2-.559-1.986-.543-1.022.015-1.97.621-2.49 1.584-1.066 1.928-.281 4.786.757 6.356.504.777 1.11 1.632 1.91 1.601.757-.031 1.053-.513 1.972-.513.918 0 1.185.513 1.986.497.83-.015 1.348-.777 1.852-1.554.578-.885.815-1.74.83-1.787-.015-.015-1.6-.653-1.615-2.564-.015-1.6 1.245-2.361 1.304-2.409-.711-1.102-1.823-1.227-2.208-1.258m12.308 1.664c0-2.27-1.504-3.83-3.662-3.83h-4.17v11.657h1.726V17.58h2.39c2.181 0 3.715-1.567 3.715-3.845Zm-4.125 2.326h-1.98v-4.629h1.988c1.496 0 2.351.84 2.351 2.31 0 1.471-.855 2.32-2.359 2.32Zm-8.799-5.018c.416-.545.698-1.278.623-2.026-.609.032-1.352.421-1.782.967-.387.467-.729 1.23-.64 1.947.684.063 1.367-.358 1.799-.888"/></svg>