<svg xmlns="http://www.w3.org/2000/svg" width="38" height="24" fill="none" viewBox="0 0 38 24"><rect width="38" height="24" fill="#006FCF" rx="2"/><path fill="#fff" d="M19 3h18v18H19z"/><path fill="#006FCF" fill-rule="evenodd" d="M35.31 15.539 37 17.338v-3.583l-1.69 1.784Zm-.517 3.093H37l-2.92-3.096 2.92-3.06h-2.172l-1.803 1.97-1.786-1.97h-2.207l2.902 3.078-2.902 3.078h2.146l1.812-1.987 1.803 1.987Zm-9.323-1.425v-.958h3.474v-1.39H25.47V13.9h3.562v-1.425H23.79v6.157h5.242v-1.425H25.47Zm.571-8.237H24.37l.835-2.014.836 2.014Zm9.297 2.612H37V5.425h-2.586l-1.38 3.835-1.373-3.835h-2.63v6.157h1.663v-4.31l1.583 4.31h1.477l1.584-4.318v4.318Zm-8.198 0h1.891l-2.717-6.157H24.15l-2.718 6.157h1.847l.51-1.231h2.832l.52 1.231ZM37 23v-3.486h-2.654l-1.367-1.511-1.373 1.511h-8.75v-7.042H20.03l3.503-7.928h3.379l1.206 2.716V4.544H32.3l.726 2.046.731-2.046H37V1H15v22h22Z" clip-rule="evenodd"/></svg>