<svg xmlns="http://www.w3.org/2000/svg" width="50" height="32" fill="none" viewBox="0 0 50 32"><rect width="49" height="31" x=".5" y=".5" fill="#fff" stroke="#000" rx="1.5"/><path fill="#0054A5" d="M7.382 23.112h.397V21.6h-.397v1.512ZM26.708 21.6h.422l.357 1.073.35-1.073h.409l-.526 1.455-.096.266a1.087 1.087 0 0 1-.1.202.434.434 0 0 1-.259.182.769.769 0 0 1-.202.024c-.076 0-.15-.008-.224-.024l-.037-.314a.86.86 0 0 0 .169.019c.092 0 .16-.028.205-.083a.583.583 0 0 0 .102-.211l-.57-1.517Zm-8.301 1.512v-.227a.593.593 0 0 1-.215.193.587.587 0 0 1-.551.004.393.393 0 0 1-.174-.189.85.85 0 0 1-.053-.335V21.6h.396v.696c0 .213.008.343.022.391a.213.213 0 0 0 .08.114.242.242 0 0 0 .146.042.308.308 0 0 0 .291-.196c.02-.055.03-.191.03-.408V21.6h.396v1.513h-.368Zm25.856-.725a2.45 2.45 0 0 1-.24.061.714.714 0 0 0-.215.07.168.168 0 0 0-.077.142.213.213 0 0 0 .219.207.338.338 0 0 0 .203-.07.252.252 0 0 0 .094-.134c.01-.034.016-.1.016-.196v-.08Zm-.532-.327-.355-.067a.566.566 0 0 1 .208-.325c.098-.07.244-.105.438-.105.177 0 .308.02.394.063a.393.393 0 0 1 .182.161c.035.065.053.185.053.36l-.004.467c0 .133.006.232.019.295.013.063.036.13.07.203h-.392a1.375 1.375 0 0 1-.052-.163.716.716 0 0 1-.216.15.613.613 0 0 1-.246.05.502.502 0 0 1-.363-.127.426.426 0 0 1-.132-.321.44.44 0 0 1 .06-.229.398.398 0 0 1 .17-.154c.072-.036.177-.067.314-.094a2.09 2.09 0 0 0 .384-.098v-.04c0-.078-.02-.134-.057-.167-.038-.033-.109-.05-.213-.05a.282.282 0 0 0-.166.042.293.293 0 0 0-.096.149Zm-1.09.17c-.003-.118-.032-.208-.089-.269a.271.271 0 0 0-.206-.092.273.273 0 0 0-.215.097.38.38 0 0 0-.084.264h.594Zm-.02.405.392.067a.653.653 0 0 1-.24.333.702.702 0 0 1-.411.114c-.26 0-.454-.086-.579-.259a.877.877 0 0 1-.148-.523c0-.251.065-.448.195-.59a.636.636 0 0 1 .492-.215.66.66 0 0 1 .527.225c.129.15.19.378.185.687h-.994a.408.408 0 0 0 .097.278.3.3 0 0 0 .23.099.244.244 0 0 0 .157-.051.315.315 0 0 0 .097-.165Zm-6.951.05.397-.062a.292.292 0 0 0 .102.176c.052.04.124.06.217.06a.384.384 0 0 0 .23-.057.13.13 0 0 0 .052-.108c0-.03-.01-.056-.028-.076a.315.315 0 0 0-.133-.053c-.32-.071-.524-.137-.61-.196a.391.391 0 0 1-.177-.34c0-.132.05-.243.154-.332.102-.09.262-.134.477-.134.206 0 .358.033.458.1.1.067.169.166.207.297l-.372.07a.233.233 0 0 0-.092-.135.335.335 0 0 0-.193-.046.43.43 0 0 0-.226.044.095.095 0 0 0-.045.081.09.09 0 0 0 .039.074c.036.027.16.064.37.113.212.049.36.108.443.179a.375.375 0 0 1 .125.3.464.464 0 0 1-.172.359c-.114.1-.283.15-.507.15-.204 0-.364-.041-.483-.125a.576.576 0 0 1-.233-.339m-3.55-.455c-.002-.118-.032-.208-.089-.269a.27.27 0 0 0-.206-.092.273.273 0 0 0-.215.097.38.38 0 0 0-.084.264h.594Zm-.02.405.392.067a.653.653 0 0 1-.24.333.702.702 0 0 1-.411.114c-.26 0-.453-.086-.578-.259a.877.877 0 0 1-.148-.523c0-.251.065-.448.194-.59a.636.636 0 0 1 .492-.215.66.66 0 0 1 .527.225c.129.15.19.378.185.687h-.994a.413.413 0 0 0 .097.278.3.3 0 0 0 .23.099.243.243 0 0 0 .157-.051.313.313 0 0 0 .097-.165ZM28.555 21.6h.364v.206c.13-.162.286-.244.467-.244.095 0 .179.02.25.06.07.04.127.1.172.181a.697.697 0 0 1 .213-.18.516.516 0 0 1 .244-.06c.11 0 .202.022.278.067a.413.413 0 0 1 .17.2.85.85 0 0 1 .041.313v.969h-.396v-.866c0-.15-.014-.247-.04-.291a.19.19 0 0 0-.17-.086.266.266 0 0 0-.155.051.285.285 0 0 0-.106.151c-.021.066-.032.17-.032.313v.728h-.396v-.83a1.16 1.16 0 0 0-.022-.286.182.182 0 0 0-.065-.096.204.204 0 0 0-.12-.031.274.274 0 0 0-.269.194 1.09 1.09 0 0 0-.032.313v.736h-.396V21.6Zm-2.52.787c-.05.017-.13.038-.24.061a.714.714 0 0 0-.214.07.168.168 0 0 0-.077.142.2.2 0 0 0 .061.146.213.213 0 0 0 .158.061.338.338 0 0 0 .203-.07.252.252 0 0 0 .094-.134c.01-.034.015-.1.015-.196v-.08Zm-.531-.327-.356-.067a.567.567 0 0 1 .208-.325c.099-.07.245-.105.44-.105.175 0 .307.02.393.063a.393.393 0 0 1 .182.161c.035.065.053.185.053.36l-.004.467c0 .133.006.232.019.295.012.063.036.13.07.203h-.392a1.375 1.375 0 0 1-.052-.163.715.715 0 0 1-.216.15.613.613 0 0 1-.246.05.502.502 0 0 1-.363-.127.426.426 0 0 1-.133-.321.44.44 0 0 1 .06-.229.398.398 0 0 1 .17-.154c.073-.036.178-.067.314-.094.185-.035.313-.067.384-.098v-.04c0-.078-.019-.134-.056-.167-.038-.033-.11-.05-.214-.05a.282.282 0 0 0-.165.042.293.293 0 0 0-.096.149Zm-4.72.296c0 .15.035.266.105.346.07.08.158.12.261.12a.33.33 0 0 0 .26-.12c.07-.08.105-.197.105-.349 0-.149-.035-.263-.105-.343a.332.332 0 0 0-.26-.12c-.103 0-.19.04-.26.12-.071.08-.106.195-.106.346Zm-.405-.022c0-.133.032-.262.097-.387a.672.672 0 0 1 .275-.286.805.805 0 0 1 .397-.099.74.74 0 0 1 .556.224.78.78 0 0 1 .216.566c0 .23-.073.42-.219.57a.733.733 0 0 1-.55.227.856.856 0 0 1-.392-.094.64.64 0 0 1-.283-.277.935.935 0 0 1-.097-.444Zm-6.645-.104c-.003-.118-.032-.208-.089-.269a.271.271 0 0 0-.206-.092.273.273 0 0 0-.215.097.381.381 0 0 0-.084.264h.594Zm-.02.405.392.067a.653.653 0 0 1-.24.333.702.702 0 0 1-.411.114c-.26 0-.453-.086-.579-.259a.877.877 0 0 1-.148-.523c0-.251.065-.448.195-.59a.636.636 0 0 1 .492-.215.66.66 0 0 1 .527.225c.129.15.19.378.185.687h-.994a.408.408 0 0 0 .097.278.3.3 0 0 0 .23.099.244.244 0 0 0 .157-.051.316.316 0 0 0 .097-.165Zm-3.283-.312c0 .161.03.279.092.354a.28.28 0 0 0 .225.112.308.308 0 0 0 .243-.115c.066-.077.099-.19.099-.34 0-.158-.032-.274-.095-.35a.298.298 0 0 0-.24-.115.287.287 0 0 0-.232.112c-.061.075-.092.189-.092.342Zm-.355.888.45.05c.007.056.024.095.052.116.037.03.097.046.177.046a.457.457 0 0 0 .233-.047.194.194 0 0 0 .08-.102.616.616 0 0 0 .018-.183v-.221a.53.53 0 0 1-.445.242c-.2 0-.36-.086-.476-.258a.887.887 0 0 1-.138-.508c0-.254.06-.448.18-.582a.58.58 0 0 1 .45-.201c.184 0 .337.082.457.246v-.21h.368v1.36c0 .179-.014.312-.043.4a.498.498 0 0 1-.123.209.541.541 0 0 1-.21.118 1.095 1.095 0 0 1-.333.043c-.254 0-.434-.044-.54-.133a.419.419 0 0 1-.159-.336c0-.013 0-.03.002-.049Zm30.847-.1h-.396V21.6h.368v.215a.665.665 0 0 1 .17-.202.302.302 0 0 1 .17-.05.49.49 0 0 1 .26.076l-.12.35a.347.347 0 0 0-.186-.066.219.219 0 0 0-.141.047c-.039.03-.07.086-.091.167-.023.081-.034.25-.034.508v.467Zm-6.645 0h-.397v-.773c0-.164-.008-.27-.025-.318a.223.223 0 0 0-.082-.112.231.231 0 0 0-.137-.04.311.311 0 0 0-.183.058.289.289 0 0 0-.111.15 1.34 1.34 0 0 0-.03.349v.686h-.397V21.6h.368v.222a.593.593 0 0 1 .492-.26c.087 0 .167.017.239.049a.402.402 0 0 1 .164.122.47.47 0 0 1 .077.168c.014.063.022.153.022.27v.941Zm-14.631 0h-.397V21.6h.368v.215a.67.67 0 0 1 .17-.202.303.303 0 0 1 .17-.05c.09 0 .178.025.261.076l-.12.35a.347.347 0 0 0-.187-.066.218.218 0 0 0-.141.047c-.039.03-.07.086-.091.167-.022.081-.033.25-.033.508v.467Zm-10.017 0h-.397v-.773c0-.164-.009-.27-.025-.318a.223.223 0 0 0-.082-.112.232.232 0 0 0-.137-.04.311.311 0 0 0-.183.058.287.287 0 0 0-.111.15c-.02.064-.03.18-.03.349v.686h-.397V21.6h.368v.222a.593.593 0 0 1 .492-.26c.087 0 .166.017.239.049a.403.403 0 0 1 .163.122c.037.05.063.105.078.168.014.063.021.153.021.27v.941ZM35.447 21.6v.319h-.27v.611c0 .124.003.197.008.217.005.02.017.037.035.05.018.014.04.02.065.02a.489.489 0 0 0 .156-.038l.035.31a.769.769 0 0 1-.31.06.483.483 0 0 1-.192-.036.279.279 0 0 1-.125-.095.375.375 0 0 1-.055-.156 1.98 1.98 0 0 1-.013-.282v-.661h-.18v-.32h.18v-.302l.397-.236v.539h.27Zm4.031.687-.288-.775-.278.775h.566Zm.765.824h-.45l-.178-.472h-.83l-.17.472h-.441l.798-2.088h.438l.833 2.088Zm-16.614-1.736v.597h.227c.163 0 .273-.01.328-.033a.274.274 0 0 0 .176-.267.275.275 0 0 0-.232-.282 1.88 1.88 0 0 0-.299-.015h-.2Zm-.418 1.736v-2.088h.668c.253 0 .418.01.495.032a.54.54 0 0 1 .296.204c.08.105.12.24.12.407a.69.69 0 0 1-.07.323.572.572 0 0 1-.39.305 2.32 2.32 0 0 1-.43.03h-.271v.787h-.418Zm-7.787 0v-2.088h1.525v.352h-1.108v.465h1.03v.352h-1.03v.567h1.15v.352h-1.567Zm-3.467 0h.396v-2.088h-.396v2.088Zm-4.575-1.719h.397v-.369h-.397v.37Zm-2.108 1.036.405-.041c.024.138.073.24.148.304a.443.443 0 0 0 .301.098c.134 0 .235-.03.303-.087a.258.258 0 0 0 .102-.202.193.193 0 0 0-.043-.126.34.34 0 0 0-.15-.09 5.185 5.185 0 0 0-.331-.091c-.223-.056-.379-.125-.468-.206a.545.545 0 0 1-.19-.42.54.54 0 0 1 .09-.297.559.559 0 0 1 .257-.211c.112-.048.247-.073.405-.073.259 0 .453.058.584.173.13.115.2.269.206.461l-.417.017c-.018-.108-.056-.185-.115-.232-.058-.047-.146-.07-.263-.07a.47.47 0 0 0-.284.075.162.162 0 0 0-.004.257c.052.044.18.09.382.139.202.048.351.098.448.15a.582.582 0 0 1 .228.212c.055.09.082.202.082.334a.623.623 0 0 1-.377.57 1.15 1.15 0 0 1-.448.077c-.261 0-.461-.061-.601-.184-.14-.123-.223-.302-.25-.537"/><path fill="#FEC10E" d="M21.898 10.871a3.8 3.8 0 0 1 2.968 1.434l.625-1.36a5.446 5.446 0 0 0-3.779-1.514 5.437 5.437 0 0 0-5.046 3.38h-1.22l-.72 1.566h1.57a5.39 5.39 0 0 0 .007.97h-.789l-.72 1.565h1.91a5.44 5.44 0 0 0 5.008 3.287 5.448 5.448 0 0 0 3.059-.933v-1.918a3.793 3.793 0 0 1-2.873 1.321 3.81 3.81 0 0 1-3.2-1.757h4l.72-1.565H18.11a4.006 4.006 0 0 1-.023-.97h5.777l.72-1.565h-5.998a3.816 3.816 0 0 1 3.312-1.94"/><path fill="#0054A5" d="M14.03 12.82h-2.7c0-.45-.052-.75-.155-.904-.161-.227-.604-.341-1.33-.341-.705 0-1.172.065-1.4.196-.228.131-.343.417-.343.856 0 .398.102.66.304.786.145.089.337.141.576.157l.544.039c1.167.078 1.896.133 2.187.165.923.094 1.592.343 2.007.746.326.314.521.725.583 1.233.037.303.055.647.055 1.029 0 .88-.083 1.524-.249 1.932-.3.75-.976 1.222-2.027 1.421-.44.084-1.113.126-2.02.126-1.511 0-2.565-.091-3.16-.274-.73-.225-1.212-.68-1.445-1.365-.13-.381-.194-1.017-.194-1.906h2.7v.227c0 .475.135.78.404.916.186.094.41.143.675.149h.992c.507 0 .83-.027.97-.08.248-.098.41-.257.489-.478a1.86 1.86 0 0 0 .062-.526c0-.48-.174-.774-.52-.879-.13-.041-.731-.099-1.806-.172-.863-.063-1.462-.123-1.798-.18-.884-.168-1.473-.513-1.767-1.036-.259-.445-.388-1.117-.388-2.017 0-.685.07-1.234.21-1.648.14-.413.365-.727.675-.941.456-.33 1.038-.523 1.747-.581.59-.052 1.244-.079 1.964-.079 1.133 0 1.94.066 2.422.197 1.175.32 1.762 1.216 1.762 2.689 0 .12-.008.301-.025.542m10.799-.484a3.747 3.747 0 0 0-2.932-1.417 3.786 3.786 0 0 0-3.23 1.847h5.989l-.03.067-.72 1.565-.013.027H18.13a3.987 3.987 0 0 0 .021.876h5.341l-.031.067-.72 1.566-.013.026h-3.943a3.758 3.758 0 0 0 3.113 1.663 3.758 3.758 0 0 0 2.838-1.305l.081-.094v2.069l-.02.014a5.491 5.491 0 0 1-3.085.94 5.478 5.478 0 0 1-5.038-3.287H14.72l.03-.067.721-1.565.013-.027h.766a5.498 5.498 0 0 1-.006-.876h-1.591l.03-.067.72-1.565.013-.027h1.219a5.484 5.484 0 0 1 5.077-3.38c1.428 0 2.782.542 3.81 1.527l.024.023-.014.03-.625 1.36-.032.068-.046-.058Zm-.318.524h-6.006l.04-.07a3.88 3.88 0 0 1 3.352-1.965c1.144 0 2.217.507 2.957 1.394l-.031.067.078-.01a3.773 3.773 0 0 0-.047-.057l.58-1.261.024.023-.01-.054-.014.03a5.39 5.39 0 0 0-3.723-1.478 5.395 5.395 0 0 0-5.003 3.352l-.011.029h-1.222l.012-.027-.042.027h.03l-.677 1.47h-.073l.042.068.03-.067h1.548l-.003.05a5.34 5.34 0 0 0 .007.962l.005.052h-.811l.013-.027-.042.027h.03l-.677 1.471h-.073l.042.068.031-.068h1.867l.013.029a5.384 5.384 0 0 0 4.965 3.258 5.4 5.4 0 0 0 3.013-.91v.024l.02-.038-.02.013V17.47l.081-.091-.081-.031v.122a3.849 3.849 0 0 1-2.827 1.246 3.851 3.851 0 0 1-3.239-1.778l-.047-.073h4.056l-.012.027.042-.027h-.03l.677-1.47h.073l-.042-.068-.03.067H18.07l-.006-.04a4.1 4.1 0 0 1-.023-.982l.004-.042h5.79l-.013.027.042-.027h-.03l.678-1.471Zm4.294 2.046h1.81c.573-.021.922-.066 1.047-.136.172-.095.287-.287.344-.574.037-.19.055-.475.055-.852 0-.462-.036-.805-.11-1.028-.104-.314-.354-.505-.75-.574a5.79 5.79 0 0 0-.562-.016h-1.834v3.18Zm-2.902 5.356V9.333h5.407c.742 0 1.307.062 1.696.184.89.283 1.486.861 1.792 1.735.158.458.237 1.149.237 2.07 0 1.11-.088 1.906-.26 2.39-.348.96-1.062 1.512-2.14 1.655-.126.022-.666.041-1.618.056l-.482.017h-1.73v2.82h-2.902Zm14.751-4.017-1.36-4.737-1.32 4.737h2.68Zm.576 2.128h-3.88l-.522 1.889h-3.002l3.24-10.928h4.377l3.28 10.928h-2.94l-.553-1.889Z"/></svg>