<svg xmlns="http://www.w3.org/2000/svg" width="20" height="12" fill="none" viewBox="0 0 20 12"><g clip-path="url(#a)"><rect width="19" height="11" x=".5" y=".5" fill="#fff" stroke="#000" rx="1.5"/><path fill="#0066CB" d="M9.987 8.446a3.363 3.363 0 0 0 1.223-2.574 3.36 3.36 0 0 0-1.223-2.574A3.854 3.854 0 0 0 7.492 2.4c-2.059 0-3.724 1.554-3.724 3.472s1.665 3.473 3.724 3.473a3.854 3.854 0 0 0 2.495-.899Z"/><path fill="#0066CB" d="M9.987 8.446a3.363 3.363 0 0 0 1.223-2.574 3.359 3.359 0 0 0-1.223-2.574"/><path stroke="#0066CB" stroke-width=".31" d="M9.987 8.446a3.363 3.363 0 0 0 1.223-2.574 3.359 3.359 0 0 0-1.223-2.574"/><path fill="#CC0001" d="M12.487 2.4a3.86 3.86 0 0 0-2.5.898c-.134.115-.26.238-.377.368h.753c.106.117.2.24.282.368H9.328a4.09 4.09 0 0 0-.215.367h1.748c.06.12.11.242.155.368H8.958c-.046.12-.083.243-.11.367h2.279a3.254 3.254 0 0 1-.11 1.838H8.958c.045.126.095.249.155.368h1.749a3.31 3.31 0 0 1-.216.368H9.329c.083.128.183.25.282.367h.752a3.903 3.903 0 0 1-.376.368 3.862 3.862 0 0 0 2.5.899c2.053 0 3.718-1.554 3.718-3.473 0-1.916-1.665-3.471-3.718-3.471Z"/><path fill="#231F20" d="M15.708 7.84c0-.08.07-.144.153-.144.084 0 .154.064.154.143a.15.15 0 0 1-.154.144.15.15 0 0 1-.153-.144Zm.153.109c.063 0 .119-.049.119-.11 0-.06-.056-.109-.119-.109a.11.11 0 0 0-.112.11c0 .06.05.109.112.109Zm-.021-.046h-.028v-.127h.056a.07.07 0 0 1 .035.006.047.047 0 0 1 .014.032c0 .014-.007.027-.021.032l.02.056h-.034l-.014-.05h-.029l.001.05Z"/><path fill="#fff" d="M14.922 6.656c0-.079.07-.143.154-.143.083 0 .153.064.153.143a.15.15 0 0 1-.153.145.15.15 0 0 1-.154-.145Zm.154.11c.03 0 .058-.012.08-.032a.106.106 0 0 0 .031-.078.11.11 0 0 0-.111-.108c-.063 0-.12.049-.12.108 0 .061.057.11.12.11Zm-.021-.046h-.028v-.127h.056a.09.09 0 0 1 .035.007.05.05 0 0 1 .014.032c0 .014-.007.028-.02.032l.02.056h-.034l-.022-.05h-.02l-.001.05Z"/><path fill="#231F20" d="M10.247 5.86c0 .181.105.305.354.399.188.072.221.093.221.158 0 .09-.083.13-.27.13a1.58 1.58 0 0 1-.421-.058l-.06.331.016.003.088.015c.127.014.255.022.383.024.492 0 .719-.151.719-.478 0-.196-.095-.311-.327-.398-.2-.073-.222-.088-.222-.156 0-.077.078-.116.227-.116.094 0 .221.008.337.021l.067-.331a3.906 3.906 0 0 0-.41-.028c-.525-.001-.708.219-.702.484Zm-3.337.979h-.47l.277-1.354-.636 1.354h-.387l-.078-1.346-.31 1.346H4.88l.36-1.76h.736l.01 1.089.51-1.09h.78l-.365 1.76Zm1.5 0h-.387l.01-.149c-.121.117-.275.173-.486.173-.254 0-.426-.159-.426-.39 0-.35.299-.553.813-.553.056 0 .123.004.188.012a.262.262 0 0 0 .022-.094c0-.095-.083-.13-.299-.13a1.82 1.82 0 0 0-.387.04l-.06.015-.045.01.066-.322c.233-.055.382-.076.554-.076.398 0 .608.145.608.42 0 .07-.005.124-.038.283l-.111.599-.011.073-.011.05v.039ZM8.095 6.2a.911.911 0 0 0-.106-.006c-.26 0-.392.073-.392.217 0 .089.066.146.166.146.188 0 .326-.146.332-.357Zm1.836.608c-.155.04-.315.059-.475.058-.52 0-.786-.22-.786-.641 0-.492.343-.854.807-.854.382 0 .625.203.625.52 0 .106-.016.209-.06.354h-.918c-.006.022-.006.031-.006.045 0 .166.138.25.41.25.165 0 .315-.027.48-.09l-.077.358Zm-.226-.853c0-.03.006-.054.006-.073 0-.116-.084-.184-.222-.184-.149 0-.254.091-.293.256l.509.001Zm5.167.235c-.066.476-.426.687-.902.687-.52 0-.73-.296-.73-.66 0-.508.354-.851.908-.851.48 0 .736.283.736.646 0 .088 0 .094-.012.178Zm-.47-.172c0-.15-.067-.291-.255-.291-.238 0-.381.26-.381.49 0 .195.099.325.265.322.1 0 .315-.127.354-.35a.77.77 0 0 0 .017-.17Zm-2.318.803c-.108.03-.22.046-.332.047-.238 0-.366-.11-.366-.315 0-.04 0-.083.011-.128l.028-.14.022-.114.216-1.093h.459l-.067.329h.238l-.067.347h-.237l-.122.599c-.005.026-.005.046-.005.059 0 .074.044.106.155.106a.461.461 0 0 0 .127-.014l-.06.317Z"/><path fill="#fff" d="M12.2 6.72c-.108.03-.22.045-.332.046-.237 0-.365-.11-.365-.314 0-.04.006-.083.01-.129l.028-.14.022-.114.216-1.093h.46l-.067.329h.237l-.066.348h-.238l-.121.598c-.006.026-.006.046-.006.059 0 .074.05.105.16.105a.453.453 0 0 0 .122-.013l-.06.318Z"/><path fill="#231F20" d="m13.39 5.716-.012-.045.095-.224c-.023-.002-.034-.003-.034-.005l-.045-.007a.183.183 0 0 0-.043-.004c-.155 0-.26.063-.405.232l.05-.255h-.482l-.282 1.43h.46c.06-.328.088-.515.127-.67.06-.258.265-.374.415-.348.016.003.027.003.05.01l.027.01.078-.124Z"/><path fill="#fff" d="M13.55 5.317c-.039-.014-.045-.014-.05-.016l-.039-.008c-.016-.002-.032-.004-.05-.004-.148 0-.26.063-.403.233l.044-.218h-.42l-.282 1.432h.465c.166-.875.237-1.029.459-1.029a.49.49 0 0 1 .055.004l.056.01.165-.404Zm-3.187.441c0 .18.11.305.36.4.188.07.215.092.215.157 0 .09-.083.13-.265.13a1.61 1.61 0 0 1-.42-.057l-.067.33.022.003.084.014c.126.015.254.023.381.025.498 0 .725-.15.725-.477 0-.197-.094-.312-.332-.399-.193-.072-.215-.089-.215-.156 0-.077.077-.116.226-.116.095 0 .216.008.338.021l.067-.331a3.908 3.908 0 0 0-.416-.028c-.52 0-.703.22-.703.484Zm-3.336.979h-.465l.277-1.354-.637 1.354h-.42l-.077-1.345-.277 1.345h-.42l.359-1.76h.725l.033 1.09.514-1.09h.753l-.365 1.76Zm1.505 0h-.388l.011-.148c-.116.117-.276.173-.486.173-.25 0-.42-.16-.42-.391 0-.35.298-.552.813-.552.05 0 .116.004.188.01.01-.047.016-.066.016-.093 0-.094-.083-.13-.299-.13a1.78 1.78 0 0 0-.381.04l-.067.015-.038.01.06-.323c.18-.048.367-.073.554-.075.398 0 .608.145.608.42 0 .07-.005.124-.032.283l-.1.509-.017.09-.011.073-.006.05-.005.039ZM8.194 6.1a.898.898 0 0 0-.105-.006c-.26 0-.393.073-.393.218 0 .088.061.146.166.146.189 0 .321-.147.332-.358Zm1.854.606a1.91 1.91 0 0 1-.471.058c-.52 0-.79-.22-.79-.642 0-.49.342-.852.807-.852.381 0 .625.202.625.52 0 .105-.017.208-.056.353h-.918c-.005.022-.005.032-.005.045 0 .166.138.25.404.25.166 0 .316-.027.481-.09l-.077.358Zm-.244-.851V5.78c0-.116-.077-.184-.216-.184-.149 0-.254.09-.298.257h.514Zm5.189.233c-.072.477-.426.688-.901.688-.526 0-.736-.297-.736-.66 0-.508.36-.851.912-.851.481 0 .736.283.736.646a.84.84 0 0 1-.01.177Zm-.48-.183c0-.15-.067-.291-.255-.291-.237 0-.381.261-.381.491 0 .195.099.325.265.322.1 0 .315-.127.354-.35a.848.848 0 0 0 .016-.172Z"/></g><defs><clipPath id="a"><path fill="#fff" d="M0 0h20v12H0z"/></clipPath></defs></svg>