<svg xmlns="http://www.w3.org/2000/svg" width="20" height="12" fill="none" viewBox="0 0 20 12"><rect width="19" height="11" x=".5" y=".5" fill="#fff" stroke="#000" rx="1.5"/><path fill="#F79E1B" d="M15.942 8.137v.12h-.023v-.12h-.051v-.024h.129v.024h-.055Zm.251-.024v.144h-.026v-.11l-.043.095h-.03l-.042-.094v.109h-.027v-.144h.038l.046.102.045-.102h.04Z"/><path fill="#FF5F00" d="M8.121 3.042h3.758v5.832H8.121V3.042Z"/><path fill="#EB001B" d="M8.509 5.958C8.508 4.82 9.058 3.745 10 3.043c-1.6-1.195-3.899-1.021-5.28.4a3.573 3.573 0 0 0 0 5.032c1.381 1.42 3.68 1.594 5.28.4-.943-.703-1.493-1.779-1.491-2.917Z"/><path fill="#F79E1B" d="M16.316 5.958c0 1.42-.853 2.715-2.198 3.336A4.072 4.072 0 0 1 10 8.874c.941-.703 1.491-1.778 1.491-2.916S10.941 3.746 10 3.043a4.072 4.072 0 0 1 4.118-.42c1.344.62 2.197 1.915 2.197 3.335Z"/></svg>