<svg xmlns="http://www.w3.org/2000/svg" width="38" height="24" fill="none" viewBox="0 0 38 24"><path fill="#10299C" d="M0 2a2 2 0 0 1 2-2h34a2 2 0 0 1 2 2v20a2 2 0 0 1-2 2H2a2 2 0 0 1-2-2V2Z"/><path fill="#fff" d="M3.073 19.5h9.221V21h-9.22v-1.5Zm1.273-4.607v.444c0 .393-.26.643-.636.643-.38 0-.637-.25-.637-.643v-.444c0-.393.256-.643.637-.643.375 0 .636.25.636.643Z"/><path fill="#10299C" d="M4.07 14.941v.348c0 .308-.147.504-.36.504-.216 0-.36-.196-.36-.504v-.348c0-.308.144-.504.36-.504.213 0 .36.196.36.505Z"/><path fill="#fff" d="M5.883 14.893v.444c0 .393-.26.643-.636.643-.38 0-.637-.25-.637-.643v-.444c0-.393.256-.643.637-.643.375 0 .636.25.636.643Z"/><path fill="#10299C" d="M5.607 14.941v.348c0 .308-.147.504-.36.504-.216 0-.36-.196-.36-.504v-.348c0-.308.144-.504.36-.504.213 0 .36.196.36.505Z"/><path fill="#fff" d="M7.42 14.893v.444c0 .393-.261.643-.637.643-.38 0-.636-.25-.636-.643v-.444c0-.393.256-.643.636-.643.376 0 .636.25.636.643Z"/><path fill="#10299C" d="M7.144 14.941v.348c0 .308-.148.504-.36.504-.216 0-.361-.196-.361-.504v-.348c0-.308.145-.504.36-.504.213 0 .36.196.36.505Z"/><path fill="#fff" d="M8.956 14.893v.444c0 .393-.26.643-.636.643-.38 0-.636-.25-.636-.643v-.444c0-.393.256-.643.636-.643.376 0 .636.25.636.643Z"/><path fill="#10299C" d="M8.68 14.941v.348c0 .308-.147.504-.36.504-.215 0-.36-.196-.36-.504v-.348c0-.308.145-.504.36-.504.213 0 .36.196.36.505Z"/><path fill="#fff" d="M11.261 14.893v.444c0 .393-.26.643-.636.643-.38 0-.636-.25-.636-.643v-.444c0-.393.256-.643.636-.643.376 0 .636.25.636.643Z"/><path fill="#10299C" d="M10.986 14.941v.348c0 .308-.148.504-.36.504-.216 0-.361-.196-.361-.504v-.348c0-.308.145-.504.36-.504.213 0 .36.196.36.505Z"/><path fill="#fff" d="M12.798 14.893v.444c0 .393-.26.643-.636.643-.38 0-.636-.25-.636-.643v-.444c0-.393.255-.643.636-.643.376 0 .636.25.636.643Z"/><path fill="#10299C" d="M12.522 14.941v.348c0 .308-.147.504-.36.504-.216 0-.36-.196-.36-.504v-.348c0-.308.145-.504.36-.504.213 0 .36.196.36.505Z"/><path fill="#fff" d="M14.335 14.893v.444c0 .393-.26.643-.636.643-.38 0-.636-.25-.636-.643v-.444c0-.393.255-.643.636-.643.376 0 .636.25.636.643Z"/><path fill="#10299C" d="M14.06 14.941v.348c0 .308-.148.504-.361.504-.216 0-.36-.196-.36-.504v-.348c0-.308.144-.504.36-.504.213 0 .36.196.36.505Z"/><path fill="#fff" d="M15.872 14.893v.444c0 .393-.26.643-.636.643-.38 0-.637-.25-.637-.643v-.444c0-.393.256-.643.637-.643.375 0 .636.25.636.643Z"/><path fill="#10299C" d="M15.596 14.941v.348c0 .308-.147.504-.36.504-.216 0-.36-.196-.36-.504v-.348c0-.308.144-.504.36-.504.213 0 .36.196.36.505Z"/><path fill="#fff" d="M18.945 14.893v.444c0 .393-.26.643-.636.643-.38 0-.636-.25-.636-.643v-.444c0-.393.256-.643.636-.643.376 0 .636.25.636.643Z"/><path fill="#10299C" d="M18.67 14.941v.348c0 .308-.148.504-.36.504-.216 0-.361-.196-.361-.504v-.348c0-.308.145-.504.36-.504.213 0 .36.196.36.505Z"/><path fill="#fff" d="M20.482 14.893v.444c0 .393-.26.643-.636.643-.38 0-.637-.25-.637-.643v-.444c0-.393.256-.643.637-.643.375 0 .636.25.636.643Z"/><path fill="#10299C" d="M20.206 14.941v.348c0 .308-.147.504-.36.504-.216 0-.36-.196-.36-.504v-.348c0-.308.144-.504.36-.504.213 0 .36.196.36.505Z"/><path fill="#fff" d="M22.019 14.893v.444c0 .393-.26.643-.636.643-.38 0-.637-.25-.637-.643v-.444c0-.393.256-.643.637-.643.375 0 .636.25.636.643Z"/><path fill="#10299C" d="M21.743 14.941v.348c0 .308-.147.504-.36.504-.216 0-.36-.196-.36-.504v-.348c0-.308.144-.504.36-.504.213 0 .36.196.36.505Z"/><path fill="#fff" d="M23.556 14.893v.444c0 .393-.26.643-.637.643-.38 0-.636-.25-.636-.643v-.444c0-.393.256-.643.636-.643.376 0 .637.25.637.643Z"/><path fill="#10299C" d="M23.28 14.941v.348c0 .308-.148.504-.36.504-.216 0-.361-.196-.361-.504v-.348c0-.308.145-.504.36-.504.213 0 .36.196.36.505Z"/><path fill="#fff" d="M25.86 14.893v.444c0 .393-.26.643-.636.643-.38 0-.636-.25-.636-.643v-.444c0-.393.256-.643.636-.643.376 0 .637.25.637.643Z"/><path fill="#10299C" d="M25.585 14.941v.348c0 .308-.148.504-.36.504-.216 0-.361-.196-.361-.504v-.348c0-.308.145-.504.36-.504.213 0 .36.196.36.505Z"/><path fill="#fff" d="M27.397 14.893v.444c0 .393-.26.643-.636.643-.38 0-.636-.25-.636-.643v-.444c0-.393.256-.643.636-.643.376 0 .636.25.636.643Z"/><path fill="#10299C" d="M27.122 14.941v.348c0 .308-.148.504-.36.504-.216 0-.361-.196-.361-.504v-.348c0-.308.145-.504.36-.504.213 0 .36.196.36.505Z"/><path fill="#fff" d="M28.934 14.893v.444c0 .393-.26.643-.636.643-.38 0-.636-.25-.636-.643v-.444c0-.393.256-.643.636-.643.376 0 .636.25.636.643Z"/><path fill="#10299C" d="M28.659 14.941v.348c0 .308-.148.504-.36.504-.216 0-.361-.196-.361-.504v-.348c0-.308.145-.504.36-.504.213 0 .36.196.36.505Z"/><path fill="#fff" d="M30.47 14.893v.444c0 .393-.26.643-.635.643-.38 0-.637-.25-.637-.643v-.444c0-.393.256-.643.637-.643.375 0 .636.25.636.643Z"/><path fill="#10299C" d="M30.195 14.941v.348c0 .308-.147.504-.36.504-.216 0-.36-.196-.36-.504v-.348c0-.308.144-.504.36-.504.213 0 .36.196.36.505Z"/><path fill="#fff" d="M3.073 6.34c0-.602.5-1.09 1.118-1.09h3.912c.617 0 1.118.488 1.118 1.09v3.82c0 .602-.5 1.09-1.118 1.09H4.19a1.105 1.105 0 0 1-1.118-1.09V6.34Z"/><path fill="#10299C" d="M7.736 9.387V5.214h.28v1.9H9.22v.273H8.015v.727H9.22v.273H8.015v.727H9.22v.273H7.736ZM4.558 7.114H3.073v.272h1.205v.728H3.073v.273h1.205v.727H3.073v.273h1.205v1.9h.28V7.114Z"/><path fill="#fff" d="M26.125 3h9.22v.75h-9.22V3Z"/></svg>