<svg xmlns="http://www.w3.org/2000/svg" width="38" height="24" fill="none" viewBox="0 0 38 24"><rect width="37" height="23" x=".5" y=".5" fill="#fff" stroke="#000" rx="1.5"/><path fill="#F79E1B" d="M30.29 16.274v.24h-.044v-.24h-.097v-.049h.245v.05h-.103Zm.477-.049v.288h-.05v-.218l-.08.188h-.057l-.08-.188v.218h-.053v-.288h.074l.086.206.086-.206h.074Z"/><path fill="#FF5F00" d="M15.43 6.084h7.14v11.663h-7.14V6.084Z"/><path fill="#EB001B" d="M16.167 11.916A7.401 7.401 0 0 1 19 6.086a7.417 7.417 0 1 0 0 11.662 7.398 7.398 0 0 1-2.833-5.832Z"/><path fill="#F79E1B" d="M31 11.916a7.417 7.417 0 0 1-12 5.831 7.416 7.416 0 0 0 0-11.662 7.417 7.417 0 0 1 11.999 5.83v.001H31Z"/></svg>