<svg xmlns="http://www.w3.org/2000/svg" width="30" height="18" fill="none" viewBox="0 0 30 18"><rect width="29" height="17" x=".5" y=".5" fill="#fff" stroke="#000" rx="1.5"/><path fill="#009CDE" d="M19.352 7.884c-.1.664-.605.664-1.094.664h-.278l.195-1.24a.154.154 0 0 1 .152-.13h.127c.333 0 .647 0 .809.19.097.114.126.282.09.516ZM19.14 6.15h-1.843a.257.257 0 0 0-.252.218l-.745 4.746a.154.154 0 0 0 .151.178h.945a.18.18 0 0 0 .177-.151l.212-1.346a.256.256 0 0 1 .253-.217h.583c1.213 0 1.913-.59 2.096-1.76.083-.511.004-.913-.235-1.195-.261-.31-.726-.473-1.342-.473Z"/><path fill="#003087" d="M16.205 7.863h-.887a.256.256 0 0 0-.212.112l-1.223 1.81-.518-1.739a.256.256 0 0 0-.246-.183h-.871a.154.154 0 0 0-.146.204l.977 2.88-.919 1.302a.154.154 0 0 0 .126.243h.886a.256.256 0 0 0 .21-.11l2.95-4.277a.154.154 0 0 0-.127-.242Z"/><path fill="#009CDE" d="M23.417 9.588a.985.985 0 0 1-.996.847c-.256 0-.46-.083-.593-.24-.13-.155-.18-.376-.137-.622a.989.989 0 0 1 .988-.853c.25 0 .454.083.588.242.135.159.189.381.15.626Zm1.23-1.725h-.883a.154.154 0 0 0-.151.13l-.04.248-.06-.09c-.192-.279-.618-.372-1.043-.372-.975 0-1.807.742-1.969 1.783-.084.52.035 1.016.328 1.362.27.319.654.45 1.111.45.786 0 1.222-.506 1.222-.506l-.04.246a.154.154 0 0 0 .152.178h.794a.256.256 0 0 0 .253-.216l.477-3.035a.154.154 0 0 0-.152-.178Z"/><path fill="#003087" d="M6.213 7.884c-.101.665-.606.665-1.095.665H4.84l.195-1.241a.154.154 0 0 1 .152-.13h.127c.333 0 .647 0 .809.19.097.114.126.283.09.516ZM6 6.151H4.158a.257.257 0 0 0-.253.217l-.745 4.746a.154.154 0 0 0 .152.179h.88a.256.256 0 0 0 .252-.217l.201-1.28a.257.257 0 0 1 .253-.218h.583c1.213 0 1.914-.59 2.097-1.76.082-.51.003-.913-.235-1.194C7.08 6.314 6.616 6.15 6 6.15Zm4.277 3.437a.985.985 0 0 1-.996.847c-.256 0-.46-.083-.592-.24-.13-.155-.18-.376-.138-.622a.989.989 0 0 1 .989-.853c.25 0 .453.083.588.242.135.159.188.381.149.626Zm1.23-1.725h-.883a.154.154 0 0 0-.152.13l-.038.248-.062-.09c-.19-.279-.617-.372-1.042-.372-.974 0-1.807.742-1.969 1.783-.084.52.035 1.016.328 1.362.27.319.654.45 1.111.45.786 0 1.222-.506 1.222-.506l-.04.246a.154.154 0 0 0 .152.178h.794a.257.257 0 0 0 .253-.216l.477-3.035a.154.154 0 0 0-.152-.178Z"/><path fill="#009CDE" d="m25.686 6.28-.756 4.834a.154.154 0 0 0 .151.178h.76a.256.256 0 0 0 .254-.216l.745-4.747a.154.154 0 0 0-.151-.179h-.852a.154.154 0 0 0-.151.13Z"/></svg>