<svg width="64" height="64" viewBox="0 0 64 64" fill="none" xmlns="http://www.w3.org/2000/svg"><g clip-path="url(#Pause 64__a)" filter="url(#Pause 64__b)"><g filter="url(#Pause 64__c)"><circle cx="32" cy="32" r="32" fill="#fff" fill-opacity=".88"/></g><path d="M23.5 16a3.5 3.5 0 0 0-3.5 3.5v25a3.5 3.5 0 1 0 7 0v-25a3.5 3.5 0 0 0-3.5-3.5Zm17 0a3.5 3.5 0 0 0-3.5 3.5v25a3.5 3.5 0 1 0 7 0v-25a3.5 3.5 0 0 0-3.5-3.5Z" fill="#191919"/></g><defs><filter id="Pause 64__b" x="-4" y="-4" width="72" height="72" filterUnits="userSpaceOnUse" color-interpolation-filters="sRGB"><feFlood flood-opacity="0" result="BackgroundImageFix"/><feGaussianBlur in="BackgroundImageFix" stdDeviation="2"/><feComposite in2="SourceAlpha" operator="in" result="effect1_backgroundBlur_104959_124338"/><feBlend in="SourceGraphic" in2="effect1_backgroundBlur_104959_124338" result="shape"/></filter><filter id="Pause 64__c" x="-4" y="-4" width="72" height="72" filterUnits="userSpaceOnUse" color-interpolation-filters="sRGB"><feFlood flood-opacity="0" result="BackgroundImageFix"/><feGaussianBlur in="BackgroundImageFix" stdDeviation="2"/><feComposite in2="SourceAlpha" operator="in" result="effect1_backgroundBlur_104959_124338"/><feBlend in="SourceGraphic" in2="effect1_backgroundBlur_104959_124338" result="shape"/></filter><clipPath id="Pause 64__a"><path fill="#fff" d="M0 0h64v64H0z"/></clipPath></defs></svg>