<svg xmlns="http://www.w3.org/2000/svg" width="50" height="32" fill="none" viewBox="0 0 50 32"><g clip-path="url(#a)"><path fill="#E53238" d="M0 0h13v32H0z"/><path fill="#0064D2" d="M13 0h12v32H13z"/><path fill="#86B817" d="M38 0h12v32H38z"/><path fill="#F4C252" d="M25 0h13v32H25z"/><rect width="48" height="30" x="1" y="1" fill="#fff" rx="1"/><path fill="#F5AF02" fill-rule="evenodd" d="M34.304 19.358c0 .561.016 1.115.064 1.614h-1.771c-.048-.41-.065-.819-.065-1.215-.958 1.192-2.097 1.535-3.677 1.535-2.344 0-3.598-1.254-3.598-2.705 0-2.1 1.706-2.842 4.67-2.91.81-.02 1.72-.022 2.472-.022v-.205c0-1.407-.89-1.985-2.434-1.985-1.146 0-1.991.48-2.078 1.31h-2c.21-2.069 2.358-2.592 4.245-2.592 2.262 0 4.172.814 4.172 3.236v3.94Zm-4.247-2.389c-1.727.057-2.8.373-2.8 1.524 0 .746.587 1.554 2.078 1.554 1.998 0 3.064-1.103 3.064-2.911v-.199c-.7 0-1.564.006-2.342.032Z" clip-rule="evenodd"/><path fill="#E53238" fill-rule="evenodd" d="M7.94 17.225c.102 1.75 1.294 2.785 2.933 2.785 1.135 0 2.145-.468 2.484-1.487h1.963c-.381 2.067-2.551 2.769-4.419 2.769-3.396 0-4.9-1.894-4.9-4.447 0-2.81 1.556-4.662 4.931-4.662 2.687 0 4.655 1.423 4.655 4.53v.512H7.939Zm5.646-1.282c-.074-1.803-1.36-2.478-2.734-2.478-1.481 0-2.664.76-2.872 2.478h5.606Z" clip-rule="evenodd"/><path fill="#0064D2" fill-rule="evenodd" d="M15.584 8.79h1.904v4.843c.933-1.126 2.219-1.453 3.484-1.453 2.122 0 4.479 1.45 4.479 4.58 0 2.62-1.875 4.53-4.514 4.53-1.382 0-2.682-.503-3.484-1.497 0 .397-.022.797-.065 1.176H15.52c.032-.612.064-1.374.064-1.99V8.788Zm4.885 11.18c1.77 0 2.98-1.289 2.98-3.235s-1.21-3.236-2.98-3.236c-1.76 0-2.98 1.29-2.98 3.236 0 1.946 1.22 3.236 2.98 3.236Z" clip-rule="evenodd"/><path fill="#86B817" fill-rule="evenodd" d="M44 12.504 38.112 24.21H35.98l1.693-3.25-4.431-8.456h2.228l3.26 6.606 3.252-6.606H44Z" clip-rule="evenodd"/></g><defs><clipPath id="a"><rect width="50" height="32" fill="#fff" rx="2"/></clipPath></defs></svg>