<svg xmlns="http://www.w3.org/2000/svg" width="50" height="32" fill="none" viewBox="0 0 50 32"><path fill="#10299C" d="M0 2a2 2 0 0 1 2-2h46a2 2 0 0 1 2 2v28a2 2 0 0 1-2 2H2a2 2 0 0 1-2-2V2Z"/><path fill="#fff" d="M4.044 26h12.132v2H4.044v-2Zm1.674-6.142v.591c0 .525-.342.858-.837.858-.5 0-.837-.333-.837-.858v-.591c0-.525.337-.858.837-.858.495 0 .837.333.837.858Z"/><path fill="#10299C" d="M5.356 19.922v.463c0 .411-.195.672-.475.672-.283 0-.474-.26-.474-.672v-.463c0-.411.19-.672.474-.672.28 0 .475.26.475.672Z"/><path fill="#fff" d="M7.74 19.858v.591c0 .525-.342.858-.837.858-.5 0-.837-.333-.837-.858v-.591c0-.525.337-.858.837-.858.495 0 .838.333.838.858Z"/><path fill="#10299C" d="M7.378 19.922v.463c0 .411-.194.672-.474.672-.284 0-.475-.26-.475-.672v-.463c0-.411.191-.672.475-.672.28 0 .474.26.474.672Z"/><path fill="#fff" d="M9.762 19.858v.591c0 .525-.342.858-.837.858-.5 0-.837-.333-.837-.858v-.591c0-.525.337-.858.837-.858.495 0 .837.333.837.858Z"/><path fill="#10299C" d="M9.4 19.922v.463c0 .411-.195.672-.475.672-.283 0-.474-.26-.474-.672v-.463c0-.411.19-.672.474-.672.28 0 .475.26.475.672Z"/><path fill="#fff" d="M11.785 19.858v.591c0 .525-.343.858-.838.858-.5 0-.837-.333-.837-.858v-.591c0-.525.337-.858.838-.858.494 0 .837.333.837.858Z"/><path fill="#10299C" d="M11.422 19.922v.463c0 .411-.194.672-.474.672-.284 0-.475-.26-.475-.672v-.463c0-.411.191-.672.475-.672.28 0 .474.26.474.672Z"/><path fill="#fff" d="M14.818 19.858v.591c0 .525-.343.858-.837.858-.5 0-.838-.333-.838-.858v-.591c0-.525.337-.858.838-.858.494 0 .837.333.837.858Z"/><path fill="#10299C" d="M14.455 19.922v.463c0 .411-.194.672-.474.672-.284 0-.475-.26-.475-.672v-.463c0-.411.191-.672.475-.672.28 0 .474.26.474.672Z"/><path fill="#fff" d="M16.84 19.858v.591c0 .525-.343.858-.838.858-.5 0-.837-.333-.837-.858v-.591c0-.525.337-.858.837-.858.495 0 .838.333.838.858Z"/><path fill="#10299C" d="M16.477 19.922v.463c0 .411-.194.672-.474.672-.284 0-.475-.26-.475-.672v-.463c0-.411.191-.672.475-.672.28 0 .474.26.474.672Z"/><path fill="#fff" d="M18.862 19.858v.591c0 .525-.343.858-.837.858-.5 0-.837-.333-.837-.858v-.591c0-.525.336-.858.837-.858.494 0 .837.333.837.858Z"/><path fill="#10299C" d="M18.499 19.922v.463c0 .411-.194.672-.474.672-.284 0-.474-.26-.474-.672v-.463c0-.411.19-.672.474-.672.28 0 .474.26.474.672Z"/><path fill="#fff" d="M20.884 19.858v.591c0 .525-.343.858-.837.858-.5 0-.837-.333-.837-.858v-.591c0-.525.336-.858.837-.858.494 0 .837.333.837.858Z"/><path fill="#10299C" d="M20.521 19.922v.463c0 .411-.194.672-.474.672-.284 0-.474-.26-.474-.672v-.463c0-.411.19-.672.474-.672.28 0 .474.26.474.672Z"/><path fill="#fff" d="M24.928 19.858v.591c0 .525-.343.858-.837.858-.5 0-.837-.333-.837-.858v-.591c0-.525.336-.858.837-.858.494 0 .837.333.837.858Z"/><path fill="#10299C" d="M24.565 19.922v.463c0 .411-.194.672-.474.672-.284 0-.474-.26-.474-.672v-.463c0-.411.19-.672.474-.672.28 0 .474.26.474.672Z"/><path fill="#fff" d="M26.95 19.858v.591c0 .525-.343.858-.837.858-.5 0-.837-.333-.837-.858v-.591c0-.525.336-.858.837-.858.494 0 .837.333.837.858Z"/><path fill="#10299C" d="M26.587 19.922v.463c0 .411-.194.672-.474.672-.284 0-.474-.26-.474-.672v-.463c0-.411.19-.672.474-.672.28 0 .474.26.474.672Z"/><path fill="#fff" d="M28.972 19.858v.591c0 .525-.343.858-.837.858-.5 0-.837-.333-.837-.858v-.591c0-.525.337-.858.837-.858.494 0 .837.333.837.858Z"/><path fill="#10299C" d="M28.61 19.922v.463c0 .411-.195.672-.475.672-.284 0-.474-.26-.474-.672v-.463c0-.411.19-.672.474-.672.28 0 .474.26.474.672Z"/><path fill="#fff" d="M30.994 19.858v.591c0 .525-.343.858-.837.858-.5 0-.837-.333-.837-.858v-.591c0-.525.337-.858.837-.858.494 0 .837.333.837.858Z"/><path fill="#10299C" d="M30.631 19.922v.463c0 .411-.194.672-.474.672-.284 0-.474-.26-.474-.672v-.463c0-.411.19-.672.474-.672.28 0 .474.26.474.672Z"/><path fill="#fff" d="M34.027 19.858v.591c0 .525-.343.858-.837.858-.5 0-.837-.333-.837-.858v-.591c0-.525.337-.858.837-.858.494 0 .837.333.837.858Z"/><path fill="#10299C" d="M33.664 19.922v.463c0 .411-.194.672-.474.672-.283 0-.474-.26-.474-.672v-.463c0-.411.19-.672.474-.672.28 0 .474.26.474.672Z"/><path fill="#fff" d="M36.05 19.858v.591c0 .525-.343.858-.838.858-.5 0-.837-.333-.837-.858v-.591c0-.525.337-.858.837-.858.494 0 .837.333.837.858Z"/><path fill="#10299C" d="M35.687 19.922v.463c0 .411-.195.672-.475.672-.283 0-.474-.26-.474-.672v-.463c0-.411.19-.672.474-.672.28 0 .474.26.474.672Z"/><path fill="#fff" d="M38.072 19.858v.591c0 .525-.343.858-.838.858-.5 0-.837-.333-.837-.858v-.591c0-.525.337-.858.837-.858.495 0 .837.333.837.858Z"/><path fill="#10299C" d="M37.709 19.922v.463c0 .411-.194.672-.475.672-.283 0-.474-.26-.474-.672v-.463c0-.411.19-.672.474-.672.28 0 .475.26.475.672Z"/><path fill="#fff" d="M40.093 19.858v.591c0 .525-.342.858-.837.858-.5 0-.837-.333-.837-.858v-.591c0-.525.337-.858.837-.858.495 0 .837.333.837.858Z"/><path fill="#10299C" d="M39.73 19.922v.463c0 .411-.194.672-.474.672-.283 0-.474-.26-.474-.672v-.463c0-.411.19-.672.474-.672.28 0 .475.26.475.672Z"/><path fill="#fff" d="M4.044 8.455C4.044 7.65 4.702 7 5.514 7h5.148c.812 0 1.47.651 1.47 1.455v5.09c0 .804-.658 1.455-1.47 1.455H5.515c-.813 0-1.47-.651-1.47-1.454V8.454Z"/><path fill="#10299C" d="M10.179 12.515V6.952h.368v2.533h1.585v.364h-1.585v.97h1.585v.363h-1.585v.97h1.585v.364H10.18Zm-4.182-3.03H4.044v.364H5.63v.97H4.044v.363H5.63v.97H4.044v.363H5.63v2.534h.367V9.485Z"/><path fill="#fff" d="M34.375 4h12.132v1H34.375V4Z"/></svg>