<svg xmlns="http://www.w3.org/2000/svg" width="30" height="18" fill="none" viewBox="0 0 30 18"><g clip-path="url(#a)"><rect width="29" height="17" x=".5" y=".5" fill="#fff" stroke="#000" rx="1.5"/><path fill="#0066CB" d="M14.98 12.67a5.044 5.044 0 0 0 1.834-3.862 5.039 5.039 0 0 0-1.834-3.86A5.781 5.781 0 0 0 11.237 3.6c-3.087 0-5.584 2.33-5.584 5.208 0 2.877 2.497 5.209 5.584 5.209a5.781 5.781 0 0 0 3.743-1.348Z"/><path fill="#0066CB" d="M14.98 12.67a5.044 5.044 0 0 0 1.834-3.862 5.038 5.038 0 0 0-1.834-3.86"/><path stroke="#0066CB" stroke-width=".31" d="M14.98 12.67a5.044 5.044 0 0 0 1.834-3.862 5.038 5.038 0 0 0-1.834-3.86"/><path fill="#CC0001" d="M18.73 3.6a5.79 5.79 0 0 0-3.75 1.347c-.2.172-.39.356-.564.552h1.129c.158.175.3.36.423.552h-1.976a6.4 6.4 0 0 0-.323.55h2.622c.091.18.166.363.233.553h-3.087c-.069.18-.124.364-.166.55h3.42c.083.356.124.725.124 1.103a4.8 4.8 0 0 1-.29 1.654h-3.087c.066.19.141.373.232.552h2.623c-.096.19-.204.374-.324.551h-1.976c.125.193.274.377.424.551h1.128c-.175.197-.365.38-.565.553a5.793 5.793 0 0 0 3.75 1.348c3.08 0 5.578-2.331 5.578-5.209 0-2.875-2.498-5.207-5.577-5.207Z"/><path fill="#231F20" d="M23.561 11.76c0-.12.105-.216.23-.216.127 0 .231.096.231.215a.224.224 0 0 1-.23.216.224.224 0 0 1-.23-.216Zm.23.163c.095 0 .179-.072.179-.164 0-.091-.084-.164-.178-.164a.164.164 0 0 0-.168.164c0 .091.074.164.168.164Zm-.031-.069h-.042v-.19h.084c.022 0 .032 0 .053.01a.07.07 0 0 1 .02.047c0 .021-.01.04-.032.048l.032.084h-.052l-.021-.075h-.043v.076Z"/><path fill="#fff" d="M22.383 9.985c0-.119.105-.215.23-.215.126 0 .23.096.23.215a.225.225 0 0 1-.23.216.226.226 0 0 1-.23-.216Zm.23.164a.17.17 0 0 0 .12-.048.159.159 0 0 0 .048-.116.165.165 0 0 0-.168-.164c-.094 0-.178.074-.178.164 0 .091.084.164.178.164Zm-.03-.07h-.042v-.19h.084c.01 0 .032.002.052.012.01.009.021.029.021.047 0 .02-.01.041-.03.049l.03.083h-.052l-.032-.075h-.03l-.002.075Z"/><path fill="#231F20" d="M15.37 8.79c0 .272.158.457.531.598.282.108.332.14.332.237 0 .134-.125.195-.406.195a2.38 2.38 0 0 1-.63-.086l-.092.496.025.005.133.022c.19.02.382.033.573.037.74 0 1.08-.228 1.08-.718 0-.293-.142-.467-.49-.597-.3-.11-.334-.133-.334-.233 0-.117.116-.176.34-.176.141 0 .332.013.506.033l.1-.497a5.858 5.858 0 0 0-.614-.042c-.788-.002-1.062.328-1.053.725Zm-5.004 1.468H9.66l.414-2.031-.954 2.031h-.58l-.117-2.019-.465 2.019H7.32l.54-2.64h1.104l.016 1.634.763-1.635h1.171l-.548 2.641Zm2.249 0h-.58l.016-.223c-.183.176-.415.26-.73.26-.382 0-.64-.239-.64-.586 0-.524.449-.828 1.22-.828.084 0 .184.005.283.016a.392.392 0 0 0 .032-.14c0-.142-.124-.195-.448-.195-.2 0-.423.023-.581.06l-.091.023-.067.014.1-.482a3.34 3.34 0 0 1 .83-.115c.597 0 .913.218.913.63 0 .106-.009.187-.058.425l-.167.898-.016.11-.017.075.001.058Zm-.473-.957a1.367 1.367 0 0 0-.158-.01c-.39 0-.589.11-.589.327 0 .134.1.22.25.22.281 0 .49-.22.497-.537Zm2.755.911a2.873 2.873 0 0 1-.714.087c-.78 0-1.178-.33-1.178-.962 0-.737.514-1.28 1.211-1.28.573 0 .938.304.938.78 0 .159-.026.313-.091.53h-1.378c-.008.033-.008.048-.008.068 0 .25.207.376.614.376.249 0 .473-.041.722-.135l-.116.536Zm-.34-1.28c0-.044.009-.08.009-.108 0-.175-.125-.277-.332-.277-.224 0-.382.137-.44.385h.763Zm7.751.352c-.1.715-.64 1.03-1.353 1.03-.78 0-1.095-.443-1.095-.988 0-.762.532-1.277 1.361-1.277.722 0 1.105.424 1.105.969-.002.132-.002.142-.018.266Zm-.706-.257c0-.225-.1-.437-.381-.437-.357 0-.573.391-.573.736 0 .291.15.487.398.483.15 0 .473-.192.531-.526.017-.076.025-.163.025-.256Zm-3.477 1.205a1.936 1.936 0 0 1-.497.07c-.357 0-.548-.166-.548-.472 0-.06 0-.125.016-.193l.042-.21.033-.17.323-1.64h.689l-.1.493h.356l-.1.521h-.356l-.182.898c-.009.04-.009.069-.009.089 0 .11.067.159.233.159a.693.693 0 0 0 .19-.02l-.09.475Z"/><path fill="#fff" d="M18.3 10.08a1.94 1.94 0 0 1-.498.07c-.356 0-.548-.167-.548-.472 0-.06.009-.125.017-.193l.041-.21.033-.171.324-1.64h.688l-.1.493h.357l-.1.523h-.356l-.182.896c-.01.039-.01.069-.01.088 0 .111.075.159.241.159a.68.68 0 0 0 .183-.02l-.09.477Z"/><path fill="#231F20" d="m20.084 8.574-.017-.067.142-.337c-.034-.003-.05-.004-.05-.006-.042-.008-.059-.012-.067-.012a.275.275 0 0 0-.066-.005c-.233 0-.39.094-.607.348l.075-.383h-.722l-.424 2.145h.689c.091-.492.133-.772.19-1.005.092-.386.399-.562.623-.522.026.004.042.004.075.015l.042.015.117-.186Z"/><path fill="#fff" d="M20.325 7.975c-.058-.021-.067-.021-.075-.023-.034-.008-.058-.011-.058-.013-.025-.003-.05-.006-.074-.006-.224 0-.39.095-.606.35l.066-.326h-.63l-.423 2.147h.697c.249-1.313.356-1.543.688-1.543.026 0 .05.002.084.005l.083.016.248-.607Zm-4.78.662c0 .27.165.458.54.599.281.107.323.139.323.237 0 .133-.125.194-.398.194a2.38 2.38 0 0 1-.63-.085l-.1.495.033.005.124.021a6.1 6.1 0 0 0 .573.037c.746 0 1.087-.226 1.087-.716 0-.295-.141-.467-.498-.597-.29-.11-.323-.134-.323-.234 0-.116.116-.175.34-.175.141 0 .323.011.506.032l.1-.497a5.861 5.861 0 0 0-.623-.042c-.781-.001-1.054.329-1.054.726Zm-5.005 1.468h-.697l.415-2.03-.954 2.03h-.63l-.117-2.017-.415 2.017h-.631l.54-2.64h1.087l.05 1.635.771-1.636h1.13l-.549 2.641Zm2.257 0h-.58l.016-.222c-.174.176-.415.26-.73.26-.374 0-.63-.24-.63-.587 0-.523.448-.828 1.22-.828.074 0 .174.006.281.017.017-.071.025-.101.025-.14 0-.142-.124-.195-.448-.195-.2 0-.423.022-.572.059l-.1.023-.058.014.091-.484c.27-.072.55-.11.83-.113.597 0 .913.218.913.63 0 .105-.009.186-.05.425l-.15.763-.025.137-.016.109-.009.073-.008.06Zm-.506-.956a1.345 1.345 0 0 0-.158-.008c-.39 0-.589.11-.589.326 0 .134.091.22.25.22.282 0 .48-.22.497-.538Zm2.78.911a2.897 2.897 0 0 1-.706.086c-.78 0-1.186-.33-1.186-.962 0-.737.514-1.28 1.211-1.28.573 0 .938.304.938.78 0 .158-.025.313-.083.53h-1.377c-.008.034-.008.049-.008.069 0 .249.207.375.606.375.249 0 .474-.042.722-.136l-.117.537Zm-.365-1.278v-.11c0-.175-.116-.276-.323-.276-.224 0-.382.136-.449.385h.772Zm7.784.351c-.108.714-.639 1.03-1.353 1.03-.788 0-1.104-.445-1.104-.99 0-.76.54-1.276 1.37-1.276.721 0 1.104.424 1.104.969.004.089-.002.178-.017.267Zm-.721-.276c0-.224-.1-.436-.382-.436-.356 0-.572.392-.572.737 0 .292.149.487.398.483.15 0 .473-.191.53-.526.017-.08.026-.165.026-.258Z"/></g><defs><clipPath id="a"><path fill="#fff" d="M0 0h30v18H0z"/></clipPath></defs></svg>