<svg xmlns="http://www.w3.org/2000/svg" width="30" height="18" fill="none" viewBox="0 0 30 18"><rect width="29" height="17" x=".5" y=".5" fill="#fff" stroke="#000" rx="1.5"/><path fill="#4285F4" d="M10.824 8.653c0-.257-.022-.513-.066-.764H7.07v1.45h2.113c-.087.465-.37.884-.782 1.146v.942h1.26c.739-.654 1.163-1.623 1.163-2.774Z"/><path fill="#34A853" d="M7.07 12.338c1.054 0 1.945-.335 2.591-.911l-1.26-.942c-.353.23-.804.36-1.33.36a2.332 2.332 0 0 1-2.195-1.554H3.577v.974c.663 1.272 2.016 2.073 3.493 2.073Z"/><path fill="#3C4043" d="m26.842 7.396-2.922 6.465h-.902l1.086-2.261-1.917-4.204h.95l1.386 3.225h.016l1.353-3.225h.95ZM14.36 6.13v2.292h1.466c.326.01.641-.115.864-.34a1.125 1.125 0 0 0-.027-1.628 1.216 1.216 0 0 0-.837-.324H14.36Zm0 3.098v2.66h-.875V5.324h2.32a2.12 2.12 0 0 1 1.499.57c.793.712.842 1.91.098 2.68l-.098.094c-.408.372-.907.56-1.5.56H14.36Zm4.46 1.282c0 .22.108.425.287.55.196.147.435.226.68.22.369 0 .722-.141.982-.392.288-.262.435-.57.435-.927-.272-.21-.652-.314-1.14-.309-.354 0-.653.084-.892.246-.233.163-.353.367-.353.613Zm1.13-3.26c.646 0 1.156.167 1.53.497.376.33.56.79.56 1.372v2.769h-.836v-.623h-.038c-.364.513-.842.77-1.445.77-.51 0-.945-.147-1.287-.44a1.367 1.367 0 0 1-.516-1.1c0-.466.184-.832.548-1.11.364-.277.853-.413 1.461-.413.522 0 .945.094 1.282.272v-.193a.97.97 0 0 0-.358-.749 1.298 1.298 0 0 0-.842-.309c-.49 0-.875.2-1.157.597l-.771-.466c.412-.58 1.037-.874 1.868-.874Z"/><path fill="#FBBC04" d="M4.876 9.291a2.196 2.196 0 0 1 0-1.444v-.969H3.578a3.616 3.616 0 0 0 0 3.382l1.298-.969Z"/><path fill="#EA4335" d="M7.07 6.292c.56-.01 1.097.194 1.5.565L9.687 5.78A3.855 3.855 0 0 0 7.07 4.8c-1.477 0-2.83.806-3.492 2.078l1.298.974a2.33 2.33 0 0 1 2.194-1.56Z"/></svg>