<svg xmlns="http://www.w3.org/2000/svg" width="20" height="12" fill="none" viewBox="0 0 20 12"><rect width="20" height="12" fill="#fff" rx="1"/><rect width="19" height="11" x=".5" y=".5" fill="#fff" stroke="#000" rx="1.5"/><path fill="#000" d="M14.096 9.257v-.53c.047.012.152.012.205.012.293 0 .451-.127.548-.454 0-.006.056-.194.056-.197l-1.114-3.19h.686l.78 2.593h.01l.78-2.593h.668L15.56 8.252c-.264.772-.569 1.02-1.207 1.02-.053 0-.211-.005-.258-.015ZM12.05 6.238c-.732.043-1.145.385-1.145.942 0 .573.422.96 1.025.96.405 0 .794-.224.973-.578h.014v.524h.607V5.89c0-.64-.478-1.048-1.224-1.048-.762 0-1.237.424-1.272 1h.598c.055-.285.284-.467.65-.467.387 0 .618.212.618.566v.246l-.844.051Zm.844.403v.251c0 .415-.346.73-.788.73-.34 0-.562-.181-.562-.46 0-.273.213-.445.591-.473l.76-.048ZM6.057 4.525c-.377-.023-.698.221-.878.221-.18 0-.457-.21-.755-.204a1.108 1.108 0 0 0-.946.595c-.406.722-.107 1.794.287 2.383.192.291.422.612.726.6.288-.011.4-.192.75-.192.348 0 .45.192.754.187.315-.006.513-.292.704-.583.22-.332.31-.653.315-.67-.005-.006-.608-.245-.613-.962-.006-.6.473-.885.495-.903-.27-.414-.693-.46-.839-.472m4.676.625c0-.85-.57-1.436-1.39-1.436H7.757v4.372h.656V6.592h.908c.829 0 1.412-.587 1.412-1.442Zm-1.567.873h-.752V4.287h.755c.569 0 .894.315.894.866 0 .552-.325.87-.897.87ZM5.823 4.14a1.09 1.09 0 0 0 .237-.76 1.011 1.011 0 0 0-.678.363c-.147.175-.277.462-.243.73.26.024.52-.134.684-.333"/></svg>