<svg xmlns="http://www.w3.org/2000/svg" width="30" height="18" fill="none" viewBox="0 0 30 18"><g clip-path="url(#a)"><rect width="29" height="17" x=".5" y=".5" fill="#fff" stroke="#000" rx="1.5"/><path fill="#fff" d="M7.895 2.25h14.21v13.5H7.895z"/><path fill="#191919" d="M15.001 3.06 9.074 6.612a.515.515 0 0 0-.238.593c.07.225.287.38.534.38h11.276a.552.552 0 0 0 .533-.38.515.515 0 0 0-.237-.593L15 3.06ZM11.29 6.531l3.712-2.224 3.72 2.224H11.29Zm-.361 6.223V8.746h1.11v4.008h-1.11Zm2.349-4.008v4.008h1.11V8.746h-1.11Zm2.349 0v4.008h1.11V8.746h-1.11Zm2.349 0v4.008h1.11V8.746h-1.11Zm-9.161 5.675c0-.291.248-.527.555-.527h11.276c.306 0 .555.236.555.527a.542.542 0 0 1-.555.527H9.37a.542.542 0 0 1-.555-.527Z"/></g><defs><clipPath id="a"><path fill="#fff" d="M0 0h30v18H0z"/></clipPath></defs></svg>