<svg xmlns="http://www.w3.org/2000/svg" width="20" height="12" fill="none" viewBox="0 0 20 12"><g clip-path="url(#a)"><path fill="#E53238" d="M0 0h5v12H0z"/><path fill="#0064D2" d="M5 0h5v12H5z"/><path fill="#86B817" d="M15 0h5v12h-5z"/><path fill="#F4C252" d="M10 0h5v12h-5z"/><rect width="18" height="10" x="1" y="1" fill="#fff" rx="1"/><path fill="#F5AF02" fill-rule="evenodd" d="M13.921 7.258c0 .21.007.418.026.605h-.709a3.741 3.741 0 0 1-.025-.455c-.384.447-.84.575-1.471.575-.938 0-1.44-.47-1.44-1.014 0-.788.683-1.066 1.868-1.092.324-.007.688-.008.99-.008v-.077c0-.527-.357-.744-.975-.744-.458 0-.796.18-.83.491h-.8c.084-.776.943-.972 1.697-.972.905 0 1.67.306 1.67 1.214v1.477Zm-1.698-.896c-.691.022-1.12.14-1.12.572 0 .28.234.582.83.582.8 0 1.226-.413 1.226-1.091V6.35c-.28 0-.625.002-.937.012Z" clip-rule="evenodd"/><path fill="#E53238" fill-rule="evenodd" d="M3.375 6.458c.042.656.518 1.044 1.174 1.044.454 0 .858-.175.993-.557h.786c-.153.775-1.02 1.038-1.768 1.038-1.358 0-1.96-.71-1.96-1.667 0-1.054.622-1.749 1.972-1.749 1.075 0 1.862.534 1.862 1.7v.191H3.375Zm2.26-.48c-.03-.677-.545-.93-1.094-.93-.593 0-1.066.285-1.15.93h2.243Z" clip-rule="evenodd"/><path fill="#0064D2" fill-rule="evenodd" d="M6.433 3.295h.762V5.11c.373-.422.887-.545 1.394-.545.848 0 1.79.544 1.79 1.717 0 .983-.749 1.7-1.805 1.7-.552 0-1.072-.189-1.393-.562 0 .15-.009.3-.026.441h-.748c.013-.23.026-.515.026-.746v-3.82Zm1.954 4.193c.708 0 1.193-.484 1.193-1.214s-.485-1.213-1.193-1.213c-.704 0-1.192.484-1.192 1.213 0 .73.488 1.214 1.192 1.214Z" clip-rule="evenodd"/><path fill="#86B817" fill-rule="evenodd" d="m17.8 4.688-2.356 4.39h-.852l.677-1.22-1.773-3.17h.891l1.305 2.477 1.3-2.477h.808Z" clip-rule="evenodd"/></g><defs><clipPath id="a"><rect width="20" height="12" fill="#fff" rx="2"/></clipPath></defs></svg>