<svg xmlns="http://www.w3.org/2000/svg" width="50" height="32" fill="none" viewBox="0 0 50 32"><rect width="49" height="31" x=".5" y=".5" fill="#fff" stroke="#000" rx="1.5"/><path fill="#2F292B" d="M18.97 14.75h1.1v.225h-.807v.6h.806v.225h-.806v.824h.88v.224h-1.1v-2.097h-.073Zm14.37 0h.293l-.953.975 1.027 1.124h-.294l-.88-.975-.073.075v.9h-.22v-2.173h.22v.899l.88-.824Zm-3.08 2.099h-.22v-2.173h.294c.367 0 .733.075.733.6 0 .299-.22.598-.513.598l.66.975h-.293l-.66-.975v.975Zm0-1.124c.367 0 .587-.075.587-.375 0-.375-.22-.375-.513-.375h-.073v.75Zm-1.246.075c0 .599-.513 1.123-1.1 1.123-.586 0-1.1-.524-1.1-1.123 0-.6.514-1.124 1.1-1.124.587 0 1.1.524 1.1 1.124Zm-1.98 0c0 .45.367.899.88.899.514 0 .88-.375.88-.9 0-.449-.366-.898-.88-.898-.513 0-.88.374-.88.899Zm-5.278 1.049h-.22V14.9h-.514v-.224h1.247v.224h-.513v1.949Zm2.053-.525.66-1.723.66 1.723.586-1.573h.22l-.807 2.247-.66-1.723-.66 1.723-.806-2.247h.22l.587 1.573ZM15.963 14.6l1.613 1.724v-1.648h.22v2.248L16.183 15.2v1.649h-.22V14.6Z"/><path fill="#F99528" d="M11.507 28.8h33.144c2.21 0 2.21-1.837 2.21-1.838V15.016S34.33 24.528 11.507 28.8Z"/><path fill="#001E2D" d="M43.825 8.457c0-1.199-.807-1.873-2.2-1.873h-1.833v6.368h1.246v-2.547h.147l1.686 2.547h1.54l-1.98-2.697c.88-.225 1.394-.824 1.394-1.798Zm-2.493 1.049h-.367V7.558h.367c.733 0 1.173.3 1.173.974.073.6-.367.974-1.173.974Z"/><path fill="#2F292B" d="M44.425 6.884h-.16v.554h.16v-.207l.161.207h.161l-.16-.207c.08-.07.08-.14.08-.208 0-.139-.08-.139-.242-.139Zm0 .07c.121 0 .125.138 0 .138v-.139Z"/><path fill="#2F292B" d="M43.971 7.183c0 .3.22.525.514.525a.507.507 0 0 0 .513-.525c0-.524-.43-.524-.514-.524a.507.507 0 0 0-.513.524Zm.514.375c-.22 0-.367-.15-.367-.375 0-.224.147-.374.366-.374.22 0 .367.15.367.374 0 .15-.146.375-.367.375Z"/><path fill="#001E2D" d="M35.466 12.952h3.52v-1.124h-2.273v-1.723h2.126V9.056h-2.126V7.633h2.273V6.584h-3.52v6.368ZM10.758 6.584h1.246v6.368h-1.246V6.584Zm-3.959 0H4.966v6.368h1.76c.952 0 1.612-.225 2.272-.749a3.187 3.187 0 0 0 1.173-2.472c0-1.873-1.32-3.147-3.372-3.147Zm1.466 4.795c-.367.375-.88.524-1.686.524h-.294V7.708h.294c.806 0 1.246.15 1.686.524.44.375.66.974.66 1.574 0 .524-.22 1.198-.66 1.573Zm6.745-2.397c-.733-.3-.953-.45-.953-.825 0-.374.367-.674.88-.674.367 0 .66.15.953.525l.66-.824a2.78 2.78 0 0 0-1.833-.675c-1.1 0-1.98.75-1.98 1.798 0 .9.367 1.349 1.54 1.723.513.15.733.3.88.375a.79.79 0 0 1 .367.674c0 .525-.44.9-.954.9-.586 0-1.026-.3-1.32-.825l-.806.75c.587.824 1.247 1.198 2.2 1.198 1.246 0 2.126-.899 2.126-2.098 0-1.048-.44-1.498-1.76-2.022Z"/><path fill="url(#a)" d="M25.788 6.434c-1.833 0-3.372 1.499-3.372 3.297 0 1.948 1.466 3.371 3.372 3.371 1.833 0 3.3-1.498 3.3-3.371.073-1.873-1.393-3.297-3.3-3.297Z"/><path fill="#001E2D" d="m31.947 10.854-1.686-4.27h-1.32l2.64 6.518h.66l2.712-6.518h-1.32l-1.686 4.27ZM17.137 9.73c0 1.874 1.466 3.372 3.299 3.372.513 0 .953-.075 1.54-.374v-1.499c-.514.525-.954.675-1.467.675-1.246 0-2.126-.9-2.126-2.173 0-1.199.88-2.173 2.053-2.173.586 0 1.026.225 1.54.75v-1.5c-.514-.299-.954-.374-1.54-.374-1.76 0-3.3 1.424-3.3 3.297Z"/><defs><radialGradient id="a" cx="0" cy="0" r="1" gradientTransform="matrix(3.40639 0 0 3.40297 25.818 9.749)" gradientUnits="userSpaceOnUse"><stop offset=".006" stop-color="#FFF0E5"/><stop offset=".111" stop-color="#FFECDC"/><stop offset=".283" stop-color="#FEE0C4"/><stop offset=".501" stop-color="#FCCC9C"/><stop offset=".753" stop-color="#FAB165"/><stop offset="1" stop-color="#F79329"/></radialGradient></defs></svg>