<svg xmlns="http://www.w3.org/2000/svg" width="30" height="18" fill="none" viewBox="0 0 30 18"><rect width="29" height="17" x=".5" y=".5" fill="#fff" stroke="#000" rx="1.5"/><path fill="#F79E1B" d="M23.914 12.206v.179h-.036v-.18h-.076v-.036h.193v.037h-.081Zm.376-.037v.216h-.04v-.164l-.064.141h-.044l-.063-.14v.163h-.042v-.216h.058l.068.154.069-.154h.058Z"/><path fill="#FF5F00" d="M12.182 4.563h5.637v8.747h-5.637V4.563Z"/><path fill="#EB001B" d="M12.764 8.937c-.002-1.706.823-3.319 2.236-4.372-2.4-1.793-5.848-1.532-7.92.6-2.072 2.13-2.072 5.416 0 7.547 2.072 2.131 5.52 2.392 7.92.6-1.414-1.054-2.239-2.667-2.236-4.375Z"/><path fill="#F79E1B" d="M24.474 8.937c0 2.13-1.28 4.073-3.297 5.004-2.016.93-4.415.686-6.177-.63 1.412-1.055 2.237-2.667 2.237-4.374 0-1.706-.825-3.319-2.237-4.373 1.762-1.316 4.16-1.56 6.177-.63 2.015.93 3.296 2.873 3.296 5.002v.001Z"/></svg>