<svg xmlns="http://www.w3.org/2000/svg" width="30" height="18" fill="none" viewBox="0 0 30 18"><rect width="30" height="18" fill="#fff" rx="2"/><rect width="29" height="17" x=".5" y=".5" fill="#fff" stroke="#000" rx="1.5"/><path fill="#fff" d="M7.392 9.108c0-3.456 2.95-6.258 6.588-6.258 3.639 0 6.588 2.802 6.588 6.258 0 3.457-2.95 6.259-6.588 6.259-3.638.001-6.588-2.802-6.588-6.259Z"/><path fill="#004A98" d="M13.99 15.479c-3.776.016-6.885-2.89-6.885-6.427 0-3.866 3.107-6.54 6.884-6.54h1.77c3.731 0 7.136 2.672 7.136 6.54 0 3.537-3.405 6.427-7.136 6.427h-1.77Zm.015-12.43c-3.45.002-6.246 2.658-6.246 5.936s2.796 5.933 6.246 5.934c3.45 0 6.247-2.656 6.248-5.934-.001-3.277-2.798-5.934-6.248-5.935Zm-1.418 9.446v-7.02c-1.484.543-2.537 1.908-2.541 3.51.003 1.602 1.056 2.967 2.541 3.51Zm5.378-3.51c-.003-1.603-1.057-2.97-2.543-3.511v7.022c1.486-.543 2.54-1.908 2.543-3.511Z"/></svg>