<svg xmlns="http://www.w3.org/2000/svg" width="50" height="32" fill="none" viewBox="0 0 50 32"><g clip-path="url(#a)"><rect width="49" height="31" x=".5" y=".5" fill="#fff" stroke="#000" rx="1.5"/><path fill="#191919" d="M34.57 10.152h-4.785a2.938 2.938 0 0 0 0-3.995 2.91 2.91 0 0 0-4.058 0 4.314 4.314 0 0 0-.68.922 4.314 4.314 0 0 0-.678-.922 2.91 2.91 0 0 0-4.058 0 2.937 2.937 0 0 0-.096 3.995h-4.784a.964.964 0 0 0-.957.97v3.879c0 .535.428.97.957.97h.957v9.697c0 .535.428.97.957.97h15.31a.964.964 0 0 0 .957-.97V15.97h.957a.964.964 0 0 0 .957-.97v-3.879a.964.964 0 0 0-.957-.97Zm-7.541-2.627a.948.948 0 0 1 1.3.05.98.98 0 0 1 .05 1.317 5.54 5.54 0 0 1-2.422 1.26 5.432 5.432 0 0 1 1.072-2.627Zm-5.416 0a.948.948 0 0 1 1.349 0 5.385 5.385 0 0 1 1.081 2.627 5.514 5.514 0 0 1-2.43-1.25.975.975 0 0 1 .01-1.377h-.01Zm10.086 17.173h-5.742v-8.727h5.742v8.727Zm-7.656 0h-5.741v-8.727h5.741v8.727Zm9.57-10.667H16.387v-1.94h17.224v1.94Z"/></g><defs><clipPath id="a"><path fill="#fff" d="M0 0h50v32H0z"/></clipPath></defs></svg>