<svg xmlns="http://www.w3.org/2000/svg" width="20" height="12" fill="none" viewBox="0 0 20 12"><g clip-path="url(#a)"><rect width="20" height="12" fill="#000" rx="1.333"/><path fill="#fff" d="M17.774 6.864a.456.456 0 0 0-.42.633.456.456 0 0 0 .42.284.456.456 0 0 0 .42-.633.455.455 0 0 0-.42-.284ZM16.28 6.51a.642.642 0 0 0-.656-.627.642.642 0 0 0-.656.627c0 .347.294.628.656.628a.642.642 0 0 0 .655-.628Zm.002-1.22h.724v2.44h-.724v-.156a1.261 1.261 0 0 1-.718.223A1.281 1.281 0 0 1 14.29 6.51c0-.71.57-1.287 1.275-1.287.267 0 .514.083.718.224V5.29Zm-3.28-.065c-.289 0-.562.09-.745.34v-.274h-.721v2.44h.73V6.447c0-.37.246-.552.543-.552.318 0 .501.191.501.547V7.73h.723V6.18c0-.569-.448-.955-1.03-.955Zm-2.513.382V5.29h-.741v2.44h.743V6.59c0-.384.412-.59.699-.59h.008v-.71c-.294 0-.564.127-.709.317Zm-1.845.903a.642.642 0 0 0-.656-.627.642.642 0 0 0-.656.627c0 .347.294.628.656.628a.642.642 0 0 0 .656-.628Zm.002-1.22h.724v2.44h-.724v-.156c-.204.14-.451.223-.717.223A1.281 1.281 0 0 1 6.653 6.51c0-.71.571-1.287 1.276-1.287.266 0 .513.083.717.224V5.29ZM5.599 7.73h.758V4.204h-.758V7.73Zm-3.329 0h.802V4.204H2.27V7.73Zm2.807-3.527c0 .763-.295 1.474-.821 2.002l1.109 1.526h-.991L3.169 6.073l.311-.235a2.032 2.032 0 0 0 .81-1.635h.786Z"/></g><defs><clipPath id="a"><rect width="20" height="12" fill="#fff" rx="2"/></clipPath></defs></svg>