<svg xmlns="http://www.w3.org/2000/svg" width="38" height="24" fill="none" viewBox="0 0 38 24"><rect width="37" height="23" x=".5" y=".5" fill="#fff" stroke="#000" rx="1.5"/><path fill="#E21836" d="M11.146 4h6.559c.915 0 1.485.726 1.271 1.62l-3.053 12.762c-.216.891-1.133 1.618-2.05 1.618H7.316c-.914 0-1.485-.727-1.271-1.618L9.1 5.62C9.313 4.726 10.23 4 11.146 4"/><path fill="#00447C" d="M17.676 4h6.839c.83 0 .455.726.26 1.62l-2.768 12.762c-.194.891-.134 1.618-.965 1.618h-6.838c-.832 0-1.347-.727-1.151-1.618L15.82 5.62C16.017 4.726 16.846 4 17.677 4"/><path fill="#007B84" d="M24.166 4h6.56c.916 0 1.486.726 1.27 1.62l-3.053 12.762c-.216.891-1.133 1.618-2.05 1.618h-6.555c-.918 0-1.487-.727-1.272-1.618L22.12 5.62C22.333 4.726 23.249 4 24.166 4"/><path fill="#FEFEFE" d="m21.95 12.03.16-.834s.115-.524.122-.543c0 0 .037-.054.073-.076h.054c.504 0 1.074 0 1.52-.355.304-.243.512-.602.605-1.04.024-.106.042-.234.042-.361a.805.805 0 0 0-.121-.462c-.228-.344-.681-.35-1.205-.353l-.258.002c-.67.01-.939.007-1.05-.008l-.026.146-.24 1.204-.602 2.676c.585-.008.825-.008.926.004Zm-9.274-4.007c-.634.007-.821 0-.881-.015a661 661 0 0 1-.452 2.25c-.092.432-.159.74-.386.938a.658.658 0 0 1-.455.17c-.281 0-.445-.15-.473-.436l-.005-.098.086-.58s.449-1.943.529-2.2a.183.183 0 0 0 .006-.029c-.873.009-1.028 0-1.039-.015-.006.02-.027.141-.027.141l-.459 2.19-.039.185-.076.607c0 .18.033.327.098.452.209.394.804.453 1.141.453.434 0 .842-.1 1.117-.282.477-.304.602-.78.713-1.203v-.002l.053-.217s.462-2.017.54-2.28l.002-.004a.077.077 0 0 1 .007-.025Zm1.573 1.628a1.146 1.146 0 0 0-.648.218l-.046.03.06-.234-.033-.04c-.362.08-.462.095-.766.142l-.067.01-.03.021c-.041.373-.078.653-.233 1.386-.058.27-.12.543-.18.812l.016.034a8.8 8.8 0 0 1 .798-.015l.026-.03.027-.155a21.52 21.52 0 0 1 .14-.744c.046-.236.108-.558.142-.69.08-.04.159-.08.234-.08.175 0 .158.161.15.231v.005a9.026 9.026 0 0 1-.14.798l-.044.204-.05.232-.047.214.014.03c.362-.02.472-.02.781-.015l.037-.03c.056-.35.072-.445.171-.955l.05-.234c.097-.46.146-.692.072-.882-.077-.212-.263-.263-.434-.263Zm1.694.493.063-.013.008.018.005.019-.048.211-.06.267c-.015.075-.032.15-.048.224l-.055.254-.066.318-.048.236c-.01.052-.015.09-.024.15l-.023.157-.018.016-.016.014-.163-.002a8.616 8.616 0 0 0-.623.015l-.043.002-.01-.016-.01-.018c.04-.17.066-.242.087-.304l.009-.026c.024-.069.046-.137.088-.334.054-.257.088-.435.11-.592.019-.112.03-.212.044-.316l.014-.115.014-.012.014-.014c.187-.028.304-.047.425-.068.108-.015.217-.038.374-.07Zm.068-.66c-.175-.112-.482-.077-.689.077-.206.151-.23.365-.055.478.172.109.48.076.685-.079.205-.154.231-.366.059-.477Zm2.046 2.163c-.273.313-.635.418-.989.418-.139 0-.353-.019-.502-.088-.483-.211-.406-.778-.34-1.094.067-.309.177-.631.414-.87.331-.329.755-.348.933-.348.295 0 .58.072.742.295.106.146.19.387.082.901-.033.156-.13.533-.34.786Zm-1.017-.74a1.9 1.9 0 0 0-.05.381c.003.246.157.246.182.246.087 0 .166-.061.232-.162.095-.138.166-.46.18-.547.087-.391.073-.635-.12-.635-.246 0-.342.327-.424.717Zm2.269 1.078-.028.03a8.264 8.264 0 0 0-.796.015l-.016-.034c.06-.27.122-.542.18-.812.155-.733.19-1.013.233-1.386l.028-.021.075-.012c.298-.045.4-.06.76-.14l.03.04-.056.233c.063-.042.129-.084.194-.121a1.14 1.14 0 0 1 .498-.126c.168 0 .356.051.435.263.073.19.023.422-.074.881l-.049.235c-.102.51-.117.604-.171.955l-.038.03a7.958 7.958 0 0 0-.78.015L19.72 12l.054-.246.045-.2.042-.205c.068-.316.133-.684.14-.797v-.004c.008-.07.025-.232-.15-.232a.548.548 0 0 0-.231.078l-.003.002a18.5 18.5 0 0 0-.134.649l-.041.208a22.38 22.38 0 0 0-.11.6l-.023.132Zm3.34-3.285.008-.061.004-.047.102.011s.526.05.538.05c.208.087.294.311.234.603a.87.87 0 0 1-.42.6c-.17.092-.378.1-.592.1h-.139l.01-.06.255-1.196Zm1.335 2.23c-.067.31-.145.877.336 1.08.153.07.29.09.43.083.147-.009.284-.088.41-.203l-.034.141.022.03a11.8 11.8 0 0 1 .827-.012l.034-.028.006-.04c.053-.333.106-.67.242-1.309l.21-.95-.011-.035c-.387.078-.49.094-.862.151l-.029.025-.01.094a.543.543 0 0 0-.272-.24c-.165-.07-.554.02-.888.348-.234.235-.347.556-.411.864Zm1.236-.688c.156 0 .238.155.221.42l-.044.214c-.018.085-.038.17-.057.254l-.02.085a.849.849 0 0 1-.091.2.414.414 0 0 1-.302.156c-.024 0-.176 0-.181-.242-.002-.12.021-.245.05-.38.083-.384.178-.707.424-.707Zm3.817-.558-.03-.037a8.463 8.463 0 0 1-.803.149l-.026.028-.002.006-.002.011-.002-.006c-.142.355-.205.475-.267.594-.051.1-.103.197-.2.431v-.031l-.002-.032-.053-1.113-.034-.037-.256.055a5.272 5.272 0 0 1-.524.094l-.029.028a.14.14 0 0 0-.005.027c0 .005 0 .01-.002.016l.003.006c.036.202.037.209.059.4a51.709 51.709 0 0 0 .095.794l.016.147c.027.24.048.42.085.84-.104.186-.175.324-.24.45-.09.175-.17.327-.31.555l.002.004-.17.29c-.019.03-.036.05-.061.06a.24.24 0 0 1-.111.017h-.094l-.14.501.48.01a.585.585 0 0 0 .552-.335l.301-.557h-.005l.032-.04c.203-.47 1.743-3.325 1.743-3.325ZM23.78 16.27h.203l-.157.554h-.201l-.047.171h-.716l.049-.17H21.46l.145-.514h.148l.762-2.727.152-.55h.728l-.076.277s.194-.15.379-.202c.152-.044.904-.064 1.156-.07v-.002h.78l.007.314c-.005.053.037.078.128.078h.158l-.144.517h-.421c-.364.028-.502-.14-.493-.331l-.008-.308-.079.277h-.25l-.751 2.686Zm-.393-2.14c.12-.035.299-.046.299-.046l.14-.5h-.58l-.193.686s.218-.105.334-.14Zm-.29 1.034c.12-.03.302-.054.302-.054l.14-.5h-.582l-.2.715s.222-.122.34-.16Zm-.023 1.112.167-.603h-.58l-.168.603h.581Zm2.236-1.666h-.837l.142-.519h2.33l-.144.52h-.782l-.122.42h.784l-.13.46h-.847l-.15.194h.343l.084.58.006.041c.005.036.008.061.021.08.018.02.12.03.18.03h.105l-.159.565h-.264c-.036 0-.088-.003-.157-.006l-.03-.001a.327.327 0 0 1-.146-.061c-.014-.01-.028-.018-.042-.026a.27.27 0 0 1-.138-.197l-.083-.578-.385.57c-.123.18-.288.318-.568.318h-.539l.142-.504h.206c.06 0 .111-.025.15-.047a.235.235 0 0 0 .114-.103l.563-.855h-.743l.128-.46h.848l.12-.42Zm-7.91 1.783.196-.702h.803l.147-.523h-.804l.123-.432h.786l.145-.506H16.83l-.142.506h.447l-.12.432h-.447l-.149.532h.447l-.26.929c-.03.104.002.153.032.2a.616.616 0 0 1 .016.027.218.218 0 0 0 .144.113c.079.02.133.03.206.03h.906l.161-.578-.401.06c-.078 0-.293-.01-.27-.088Zm-.11-2.964.203-.398h.8l-.14.29h.806l-.146.529h-1.102l-.119.111a.136.136 0 0 1-.073.044c-.016.005-.035.01-.063.026a.754.754 0 0 1-.362.101h-.353l.142-.508h.107c.089 0 .15-.009.181-.03a.458.458 0 0 0 .119-.165Zm1.829 2.974c-.019-.029-.005-.08.023-.187l.302-1.077h1.07c.157-.002.27-.004.343-.01a.666.666 0 0 0 .257-.093.5.5 0 0 0 .187-.187c.047-.069.121-.22.185-.453l.379-1.362-1.112.007s-.342.055-.493.115c-.152.067-.369.255-.369.255l.1-.374h-.686l-.961 3.444c-.034.133-.057.23-.062.289-.002.055.057.11.104.155l.018.017c.045.036.107.04.17.043l.054.003c.086.007.208.012.376.012h.527l.163-.59-.473.047a.122.122 0 0 1-.102-.054Zm1.644-1.99-.072.242h-.017a.459.459 0 0 0-.131.002h-.974l.069-.245h1.125Zm-.9-.813h1.134l-.081.292s-.535-.006-.62.011c-.377.07-.597.288-.597.288l.164-.59Zm.809 1.94a.13.13 0 0 0 .044-.075l.067-.23h.524l-.064.327c-.027.102-.05.178-.122.244a.474.474 0 0 1-.369.142l-.381.017-.003.37c-.004.082.012.093.027.102.003.002.007.004.01.008a.135.135 0 0 0 .048.032l.002.001.12-.008.364-.021-.15.54h-.418c-.293 0-.51-.008-.58-.068-.07-.049-.08-.109-.079-.213l.027-1.441h.667l-.01.295h.16c.056 0 .093-.006.116-.022Z"/></svg>