<svg xmlns="http://www.w3.org/2000/svg" width="50" height="32" fill="none" viewBox="0 0 50 32"><rect width="49" height="31" x=".5" y=".5" fill="#fff" stroke="#000" rx="1.5"/><path fill="#fff" d="M40.547 23.162c0 2.667-2.092 4.838-4.661 4.838h-25.36V8.838C10.526 6.171 12.618 4 15.187 4h25.36v19.162Z"/><path fill="url(#a)" d="M32.29 18.248h1.926c.055 0 .184-.02.239-.02.367-.075.679-.418.679-.894 0-.458-.312-.8-.68-.896-.054-.019-.165-.019-.238-.019H32.29v1.829Z"/><path fill="url(#b)" d="M33.996 5.62c-1.835 0-3.34 1.542-3.34 3.466v3.6h4.716c.11 0 .239 0 .33.019 1.065.057 1.854.628 1.854 1.619 0 .78-.532 1.447-1.523 1.58v.039c1.082.076 1.908.705 1.908 1.676 0 1.048-.917 1.733-2.129 1.733h-5.174V26.4h4.9c1.834 0 3.339-1.543 3.339-3.467V5.62h-4.881Z"/><path fill="url(#c)" d="M34.895 14.552a.8.8 0 0 0-.679-.819c-.037 0-.128-.019-.184-.019H32.29v1.676h1.743c.056 0 .166 0 .184-.019a.801.801 0 0 0 .679-.819Z"/><path fill="url(#d)" d="M24.766 5.62c-1.835 0-3.34 1.542-3.34 3.466v4.533c.844-.743 2.312-1.219 4.68-1.105 1.265.058 2.623.42 2.623.42V14.4c-.678-.362-1.486-.686-2.532-.762-1.798-.133-2.88.781-2.88 2.381 0 1.62 1.082 2.533 2.88 2.381 1.046-.076 1.854-.419 2.532-.762v1.467s-1.34.362-2.624.419c-2.367.114-3.835-.362-4.679-1.105v8h4.9c1.835 0 3.34-1.543 3.34-3.467V5.62h-4.9Z"/><path fill="url(#e)" d="M15.536 5.62c-1.835 0-3.34 1.542-3.34 3.466v8.552c.936.476 1.909.781 2.881.781 1.156 0 1.78-.724 1.78-1.714v-4.038h2.863v4.019c0 1.562-.936 2.838-4.11 2.838-1.928 0-3.432-.438-3.432-.438v7.295h4.9c1.834 0 3.339-1.543 3.339-3.467V5.62h-4.881Z"/><defs><linearGradient id="a" x1="30.653" x2="38.899" y1="19.986" y2="19.986" gradientUnits="userSpaceOnUse"><stop stop-color="#007940"/><stop offset=".229" stop-color="#00873F"/><stop offset=".743" stop-color="#40A737"/><stop offset="1" stop-color="#5CB531"/></linearGradient><linearGradient id="b" x1="30.653" x2="38.899" y1="26.401" y2="26.401" gradientUnits="userSpaceOnUse"><stop stop-color="#007940"/><stop offset=".229" stop-color="#00873F"/><stop offset=".743" stop-color="#40A737"/><stop offset="1" stop-color="#5CB531"/></linearGradient><linearGradient id="c" x1="30.653" x2="38.899" y1="17.202" y2="17.202" gradientUnits="userSpaceOnUse"><stop stop-color="#007940"/><stop offset=".229" stop-color="#00873F"/><stop offset=".743" stop-color="#40A737"/><stop offset="1" stop-color="#5CB531"/></linearGradient><linearGradient id="d" x1="21.379" x2="29.511" y1="26.267" y2="26.267" gradientUnits="userSpaceOnUse"><stop stop-color="#6C2C2F"/><stop offset=".173" stop-color="#882730"/><stop offset=".573" stop-color="#BE1833"/><stop offset=".859" stop-color="#DC0436"/><stop offset="1" stop-color="#E60039"/></linearGradient><linearGradient id="e" x1="12.192" x2="20.566" y1="26.552" y2="26.552" gradientUnits="userSpaceOnUse"><stop stop-color="#1F286F"/><stop offset=".475" stop-color="#004E94"/><stop offset=".826" stop-color="#0066B1"/><stop offset="1" stop-color="#006FBC"/></linearGradient></defs></svg>