<svg xmlns="http://www.w3.org/2000/svg" width="38" height="24" fill="none" viewBox="0 0 38 24"><rect width="37" height="23" x=".5" y=".5" fill="#fff" stroke="#000" rx="1.5"/><path fill="#2F292B" d="M14.417 11.063h.836v.169h-.613v.45h.613v.168h-.613v.618h.668v.168h-.835v-1.573h-.056Zm10.921 0h.223l-.724.73.78.843h-.223l-.668-.73-.056.056v.674h-.167v-1.63h.167v.675l.668-.618Zm-2.34 1.573h-.167v-1.63h.223c.278 0 .557.057.557.45 0 .225-.167.45-.39.45l.502.73H23.5l-.502-.73v.73Zm0-.842c.279 0 .446-.057.446-.282 0-.28-.167-.28-.39-.28h-.056v.562Zm-.948.056a.86.86 0 0 1-.835.843.86.86 0 0 1-.836-.843c0-.45.39-.843.836-.843a.86.86 0 0 1 .836.843Zm-1.504 0a.68.68 0 0 0 .669.674c.39 0 .669-.281.669-.674a.68.68 0 0 0-.67-.675c-.39 0-.668.281-.668.675Zm-4.012.786h-.167v-1.46h-.39v-.17h.947v.17h-.39v1.46Zm1.561-.393.501-1.292.502 1.292.445-1.18h.168l-.613 1.686-.502-1.293-.502 1.293-.612-1.686h.167l.445 1.18Zm-5.963-1.293 1.226 1.293v-1.236h.167v1.686L12.3 11.4v1.236h-.167v-1.685Z"/><path fill="#F99528" d="M8.746 21.6h25.189c1.68 0 1.68-1.378 1.68-1.378v-8.96S26.09 18.396 8.744 21.6Z"/><path fill="#001E2D" d="M33.307 6.343c0-.9-.613-1.405-1.672-1.405h-1.393v4.776h.947v-1.91h.112l1.281 1.91h1.17l-1.504-2.023c.669-.168 1.059-.618 1.059-1.348Zm-1.895.786h-.278V5.67h.278c.557 0 .892.224.892.73.055.45-.279.73-.892.73Z"/><path fill="#2F292B" d="M33.763 5.163h-.122v.416h.122v-.156l.123.156h.122l-.123-.156c.062-.052.062-.104.062-.156 0-.104-.062-.104-.184-.104Zm0 .052c.092 0 .095.104 0 .104v-.104Z"/><path fill="#2F292B" d="M33.418 5.387c0 .225.167.394.39.394s.39-.169.39-.394c0-.393-.326-.393-.39-.393a.382.382 0 0 0-.39.393Zm.39.281c-.167 0-.278-.112-.278-.28 0-.17.111-.282.278-.282.167 0 .279.113.279.281 0 .113-.112.281-.279.281Z"/><path fill="#001E2D" d="M26.954 9.714h2.675v-.843h-1.727V7.58h1.616v-.787h-1.616V5.725h1.727v-.787h-2.675v4.776ZM8.176 4.938h.947v4.776h-.947V4.938Zm-3.009 0H3.774v4.776H5.11c.725 0 1.226-.168 1.728-.562a2.38 2.38 0 0 0 .891-1.854c0-1.405-1.003-2.36-2.563-2.36ZM6.28 8.534c-.278.281-.668.394-1.281.394h-.223V5.78H5c.613 0 .947.112 1.281.393.335.281.502.73.502 1.18 0 .394-.167.9-.502 1.18Zm5.128-1.798c-.557-.225-.725-.337-.725-.618 0-.28.28-.506.67-.506.278 0 .5.113.723.394l.502-.618a2.13 2.13 0 0 0-1.393-.506c-.836 0-1.505.562-1.505 1.348 0 .675.279 1.012 1.17 1.293.39.112.558.225.67.28a.591.591 0 0 1 .278.507c0 .393-.334.674-.725.674-.445 0-.78-.225-1.003-.618l-.612.562c.445.618.947.899 1.671.899.947 0 1.616-.675 1.616-1.574 0-.786-.334-1.123-1.337-1.517Z"/><path fill="url(#a)" d="M19.599 4.826c-1.393 0-2.563 1.124-2.563 2.472 0 1.461 1.114 2.529 2.563 2.529a2.508 2.508 0 0 0 2.508-2.529c.055-1.405-1.06-2.472-2.508-2.472Z"/><path fill="#001E2D" d="m24.28 8.14-1.282-3.202h-1.003l2.006 4.889h.502l2.061-4.889h-1.003L24.28 8.141Zm-11.256-.842a2.508 2.508 0 0 0 2.507 2.529c.39 0 .725-.056 1.17-.281V8.422c-.39.393-.724.506-1.114.506-.947 0-1.616-.675-1.616-1.63 0-.899.669-1.63 1.56-1.63.446 0 .78.17 1.17.563V5.107c-.39-.225-.724-.281-1.17-.281-1.337 0-2.507 1.067-2.507 2.472Z"/><defs><radialGradient id="a" cx="0" cy="0" r="1" gradientTransform="matrix(2.58886 0 0 2.55223 19.622 7.312)" gradientUnits="userSpaceOnUse"><stop offset=".006" stop-color="#FFF0E5"/><stop offset=".111" stop-color="#FFECDC"/><stop offset=".283" stop-color="#FEE0C4"/><stop offset=".501" stop-color="#FCCC9C"/><stop offset=".753" stop-color="#FAB165"/><stop offset="1" stop-color="#F79329"/></radialGradient></defs></svg>