<svg xmlns="http://www.w3.org/2000/svg" width="20" height="12" fill="none" viewBox="0 0 20 12"><rect width="19" height="11" x=".5" y=".5" fill="#fff" stroke="#000" rx="1.5"/><g clip-path="url(#a)"><path fill="#252526" d="M17.993 5.446a.502.502 0 0 0-.141-.019.422.422 0 0 0-.37.218V5.44h-.325v1.446h.326v-.77c0-.268.178-.379.362-.379a.578.578 0 0 1 .145.016l.003-.304v-.002Zm-1.076.804c.007-.05.01-.1.009-.15 0-.404-.307-.687-.698-.687a.735.735 0 0 0-.744.727v.018c0 .44.292.756.735.756.297 0 .547-.142.652-.338l-.256-.142a.44.44 0 0 1-.375.19c-.227 0-.387-.14-.421-.373l1.098-.001ZM15.837 6a.373.373 0 0 1 .38-.307c.197 0 .352.127.37.308h-.75Zm-.566.25a.84.84 0 0 0 .01-.15c0-.404-.308-.687-.698-.687a.735.735 0 0 0-.744.727v.018c0 .44.292.756.734.756.299 0 .548-.142.652-.338l-.255-.142a.44.44 0 0 1-.375.19c-.228 0-.387-.14-.421-.373l1.097-.001ZM14.191 6a.373.373 0 0 1 .382-.307c.196 0 .35.127.369.308h-.75Zm-.573.06c0-.403-.197-.649-.566-.649a.585.585 0 0 0-.47.216v-.189h-.33v1.446h.33V6.1c0-.244.175-.397.384-.397.209 0 .32.141.32.381v.8h.332v-.826Zm-1.588.102a.734.734 0 0 0-.75-.75.746.746 0 0 0-.746.745v.011c0 .43.31.744.747.744a.74.74 0 0 0 .75-.73v-.02Zm-1.17 0c0-.246.181-.444.42-.437.266.008.43.192.425.437-.006.244-.184.436-.424.436a.422.422 0 0 1-.421-.436Zm-.686-.723-.4 1.03-.356-1.03h-.372l.535 1.445-.222.507h.354l.815-1.952h-.354Zm-1.644.719a.448.448 0 0 1-.438.459h-.02c-.253 0-.422-.197-.422-.459a.459.459 0 0 1 .452-.455c.255 0 .427.197.427.455Zm0-.72v.19c-.096-.127-.25-.217-.48-.217-.4 0-.732.354-.732.77 0 .414.286.73.67.73.25 0 .437-.088.54-.236v.21h.323V5.437h-.322ZM6.116 6.884V6.22h.286c.532 0 .851-.297.851-.74 0-.419-.324-.662-.79-.662h-.692v2.066h.345Zm.332-1.758c.273 0 .459.126.459.393 0 .246-.206.394-.477.394h-.314v-.787h.332Z"/><path fill="#FED0BE" d="M2.09 5.831h-.002V5.78h.002a.055.055 0 0 1 0 .051Z"/><path fill="#FE4700" d="M2.09 5.83v-.051a1.537 1.537 0 0 1 .518-1.104c.014.001.02.013.028.022.052.063.109.123.161.186.01.013.022.026.034.038.004.004.01.008.006.015-.012.017-.029.03-.044.046a1.16 1.16 0 0 0-.226 1.36.016.016 0 0 1 .002.007c0 .008-.008.01-.014.014-.029.018-.06.032-.09.048-.062.032-.123.065-.185.095-.006.003-.012.01-.02.002-.024-.04-.04-.084-.058-.128a1.562 1.562 0 0 1-.112-.55Z"/><path fill="#FD4A00" d="m2.837 4.932-.121-.138-.097-.11c-.003-.005-.007-.007-.011-.01a.775.775 0 0 1 .098-.078c.007-.002.01.005.013.01l.159.217.025.035c.004.005.008.01.007.017-.008.013-.022.02-.033.03l-.029.022c-.003.003-.006.008-.011.005Z"/><path fill="#E1D401" d="M4.08 4.384a.58.58 0 0 1 .1.04c.005.005.001.01 0 .014-.038.091-.077.18-.113.272-.005.011-.008.024-.02.031-.006.002-.012-.001-.018-.004a2.776 2.776 0 0 0-.05-.019c-.005-.002-.011-.002-.013-.009a10.98 10.98 0 0 0 .106-.313c.001-.005.003-.01.008-.012Z"/><path fill="#07A1DA" d="M4.953 6.478a.65.65 0 0 1-.043.084c-.014 0-.023-.009-.033-.015l-.22-.125c-.016-.01-.035-.016-.047-.033a.171.171 0 0 1 .034-.064c.007-.002.012.002.018.005.077.039.154.074.231.113.016.008.034.014.05.023.004.003.011.004.01.012Z"/><path fill="#F04C4E" d="M2.784 7.083c-.025-.015-.05-.029-.071-.048l.07-.099.121-.166.01-.015c.022.009.043.02.059.04a.021.021 0 0 1-.005.013l-.169.263c-.003.005-.005.015-.015.012Z"/><path fill="#20DA85" d="M5.084 5.555c.008.03.011.062.014.093l-.164.019-.16.018c-.007 0-.012.006-.016.01-.003.001-.006 0-.006-.003-.004-.024-.01-.048-.008-.073.013-.006.026-.006.039-.008.092-.016.183-.032.275-.046a.062.062 0 0 0 .026-.01Z"/><path fill="#FC5000" d="M2.747 4.566a.554.554 0 0 1 .065-.042c.01-.003.013.006.016.012.034.056.07.112.103.169l.06.099a.021.021 0 0 1 .004.012.118.118 0 0 1-.051.034c-.015-.009-.022-.025-.031-.039a46.393 46.393 0 0 0-.166-.245Z"/><path fill="#E4CD01" d="m4.08 4.384-.072.214-.033.099c-.002.005-.001.012-.01.012-.015.005-.028-.006-.042-.008-.006-.001-.012-.003-.014-.01.02-.054.03-.11.047-.164.015-.048.027-.095.04-.143.002-.009.003-.019.012-.023a.467.467 0 0 1 .072.023Z"/><path fill="#DED701" d="M4.045 4.737c.016-.018.02-.04.03-.061l.104-.25.001-.005a.284.284 0 0 1 .062.027c.01.006.004.012.002.018-.017.04-.039.079-.056.118-.025.055-.053.109-.078.164-.003.006-.005.013-.013.015-.018-.005-.037-.01-.052-.026Z"/><path fill="#B7D91B" d="M4.537 4.63c.02.013.037.029.053.045.005.006.001.01-.003.015-.028.034-.058.065-.086.098-.04.048-.084.093-.124.14-.003.004-.005.008-.01.01-.005 0-.01-.003-.014-.007-.01-.012-.027-.017-.034-.033.044-.053.086-.106.128-.16.027-.033.055-.066.08-.1.003-.003.006-.007.01-.008Z"/><path fill="#FA5600" d="m2.994 4.819-.087-.143a38.187 38.187 0 0 0-.086-.14c-.002-.005-.005-.009-.01-.009.022-.014.043-.028.066-.038.014.017.023.037.033.056l.128.232c.002.005.006.01.004.015-.011.014-.028.02-.044.028-.001.001-.003 0-.005-.001Z"/><path fill="#25DA7B" d="M5.06 5.437c.007.018.009.037.013.056.004.012-.004.014-.013.016l-.15.032c-.05.01-.1.023-.152.033-.007.001-.015.004-.022-.002a.09.09 0 0 1-.01-.046c.002-.007.01-.009.016-.01l.297-.078c.007-.002.014-.006.021-.001Z"/><path fill="#FC480B" d="M2.327 6.629c-.014-.019-.024-.04-.035-.06.03-.02.064-.038.096-.057l.176-.102a.114.114 0 0 0 .025-.018c.012.004.012.015.017.023.006.007.01.016.012.025-.001.009-.009.011-.015.015-.052.035-.105.068-.157.101l-.101.065c-.005.003-.01.009-.017.007Z"/><path fill="#FD4805" d="M2.59 6.392c-.01.017-.027.022-.041.03a19.3 19.3 0 0 1-.23.133c-.008.005-.016.012-.027.012l-.033-.06c.006.004.011 0 .015-.002l.283-.148c.003-.002.007-.003.009-.007.014.01.021.024.023.042Z"/><path fill="#F94917" d="m2.4 6.732-.04-.057c.015-.015.034-.025.051-.037.075-.053.151-.104.225-.157a.018.018 0 0 1 .007-.003c.017.01.024.026.032.042-.001.008-.008.01-.013.014l-.228.175c-.006.004-.01.01-.016.013-.006.004-.01.01-.018.01Z"/><path fill="#E5C801" d="M4.008 4.359c-.015.04-.024.083-.035.124a5.909 5.909 0 0 0-.053.19c-.002.006-.004.013-.011.016a.056.056 0 0 1-.048-.011l.021-.09.058-.247.068.018Z"/><path fill="#22DA7F" d="M4.737 5.569c.018.003.034-.004.05-.007a8.01 8.01 0 0 0 .276-.058c.008-.002.01-.006.01-.013a.26.26 0 0 1 .011.062c0 .011-.008.011-.015.012l-.144.024-.166.03c-.005 0-.009 0-.013-.003a.055.055 0 0 1-.009-.048Z"/><path fill="#BBD919" d="M4.45 4.566c.02.01.035.023.051.036-.002.016-.014.026-.023.037l-.167.222c-.005.006-.008.015-.018.017a.079.079 0 0 1-.04-.028l.004-.008c.062-.088.121-.177.182-.265.003-.004.006-.01.012-.01Z"/><path fill="#1CD390" d="M5.105 5.733a.532.532 0 0 1 .002.078c-.007.006-.015.005-.024.005h-.28c-.013 0-.026.005-.04 0-.012-.023-.01-.046-.004-.07.003-.001.005 0 .006.002.003.014.013.012.023.011.03-.001.061 0 .092-.003.067-.005.133-.005.2-.009.012 0 .02-.003.025-.014Z"/><path fill="#FA4911" d="M2.644 6.477c-.008.01-.02.018-.03.025l-.2.137c-.017.012-.033.027-.053.035a5.009 5.009 0 0 0-.033-.047l.275-.176c.005-.003.011-.006.014-.012.016.008.021.023.027.038Z"/><path fill="#F8491E" d="m2.4 6.731.15-.116c.042-.031.082-.063.123-.095a.06.06 0 0 1 .03.036c-.01.017-.026.027-.04.04-.07.057-.14.113-.208.172-.004.004-.01.01-.017.008A.352.352 0 0 1 2.4 6.73Z"/><path fill="#F95C00" d="m3.042 4.791-.084-.153-.078-.143c0-.002 0-.004-.002-.007a.321.321 0 0 1 .05-.026c.006.003.008.009.01.014l.138.275c.003.006.008.012.006.02a.054.054 0 0 1-.04.02Z"/><path fill="#E7B801" d="m3.791 4.314.057.009c.005.007.003.014.001.021-.016.099-.032.198-.05.296-.001.009 0 .02-.01.024-.016.002-.03.003-.044-.007 0-.03.006-.06.01-.09.009-.076.02-.151.03-.227 0-.009 0-.018.006-.026Z"/><path fill="#1DD68C" d="M5.105 5.735c.003.015-.005.018-.02.018-.053.003-.106.002-.16.006a1.766 1.766 0 0 1-.131.006h-.006c-.015.001-.024-.005-.028-.018-.007-.008-.006-.016-.001-.024.007-.006.017-.006.026-.007l.213-.017.081-.006a.075.075 0 0 0 .023-.006c.004.015.003.032.003.048Z"/><path fill="#BFD816" d="m4.451 4.569-.16.234c-.012.017-.021.035-.037.048a.043.043 0 0 1-.034-.02c0-.014.01-.023.017-.034l.156-.247c.003-.004.005-.01.01-.01.018.006.032.018.048.029Z"/><path fill="#D9D804" d="M4.097 4.76c.01-.006.01-.017.015-.026l.035-.073.095-.2c.002-.004.005-.008.001-.013a.31.31 0 0 1 .054.027l-.001.009-.106.202-.05.096a.053.053 0 0 1-.043-.022Z"/><path fill="#F66800" d="M3.015 4.423a.286.286 0 0 1 .053-.021c.008-.001.008.006.01.01l.097.26c.006.017.015.033.017.051a.055.055 0 0 1-.04.017c-.006-.003-.008-.01-.01-.016l-.119-.282-.008-.02Z"/><path fill="#059CE1" d="M4.611 6.389c.034.025.072.042.108.063.063.038.127.073.19.11-.009.014-.015.03-.026.044-.006.004-.01 0-.014-.003a42.693 42.693 0 0 1-.277-.171l-.005-.004a.058.058 0 0 1 .024-.04Z"/><path fill="#E7B301" d="M3.79 4.316c0 .03-.005.059-.01.088l-.013.103-.013.1a1.953 1.953 0 0 0-.005.039c0 .004.001.009-.003.012-.014.008-.027.004-.04-.003-.008-.018 0-.037.001-.055.009-.08.014-.159.023-.238.002-.017.001-.035.004-.052l.057.006Z"/><path fill="#FC4D00" d="M2.746 4.566c.012.007.017.02.024.03a11.202 11.202 0 0 1 .173.253c-.01.011-.018.024-.036.026-.01-.024-.029-.043-.044-.064l-.152-.209-.006-.006a.238.238 0 0 1 .041-.03Z"/><path fill="#0191F2" d="M4.844 6.666a.134.134 0 0 1-.027.038c-.007.004-.011 0-.016-.003a8.313 8.313 0 0 0-.221-.162l-.033-.026c-.005-.003-.01-.007-.01-.014a.068.068 0 0 1 .024-.031c.01.001.016.007.023.013.074.052.15.102.224.153l.028.02c.004.002.01.005.008.012Z"/><path fill="#F86000" d="m3.08 4.77-.006-.016-.138-.277-.007-.016a.303.303 0 0 1 .045-.02c.007-.001.008.005.01.01l.13.282c.003.006.006.012.004.02-.01.01-.02.02-.037.017Z"/><path fill="#0C8DF1" d="m4.787 6.743-.03.039c-.01.004-.014-.004-.019-.008-.038-.03-.076-.063-.114-.095-.04-.033-.08-.068-.12-.1-.006-.005-.012-.01-.014-.017a.059.059 0 0 1 .026-.034c.054.04.108.084.161.126l.1.079c.004.002.009.005.01.01Z"/><path fill="#1ED889" d="M5.102 5.685c0 .006-.001.01-.008.01l-.074.006-.14.012c-.028.002-.056.005-.085.006-.012 0-.023.004-.035.003-.01-.008-.008-.017-.003-.027 0-.009.002-.014.012-.015l.137-.015.123-.014c.017-.001.034-.004.05-.006.007-.001.014-.002.02.002.001.013.004.026.003.039Z"/><path fill="#E54F8D" d="M3.216 7.272a.234.234 0 0 1-.047-.012c-.004-.006 0-.012.001-.018l.083-.277c.004-.012.004-.026.014-.037a.052.052 0 0 1 .04.01c.002.004 0 .008 0 .013l-.08.304c-.002.007 0 .016-.011.017Z"/><path fill="#F74A29" d="M2.503 6.85c-.014-.01-.024-.024-.035-.038l.17-.151c.024-.022.05-.042.072-.065a.044.044 0 0 1 .017-.012c.014.004.02.016.026.028 0 .007-.004.012-.009.016-.059.059-.12.116-.18.173l-.037.035c-.007.006-.013.015-.024.014Z"/><path fill="#D953D5" d="M3.755 7.315a.187.187 0 0 1-.05.005c-.009-.018-.006-.038-.007-.056l-.014-.187c-.002-.022-.005-.045-.005-.068 0-.024-.003-.025-.026-.026-.01 0-.018 0-.027-.003-.002-.001-.002-.003-.001-.005.001 0-.001 0 0 0a.377.377 0 0 1 .095-.004c.01.017.007.036.01.054l.016.152.013.124c0 .005 0 .01-.004.014Z"/><path fill="#E6BE01" d="M3.787 4.663c.012-.008.007-.021.01-.032l.035-.207.016-.1a.211.211 0 0 1 .05.01c.005.013 0 .026-.003.038-.02.095-.04.19-.058.285a.034.034 0 0 1-.006.015c-.016.002-.03.003-.043-.01v.001Z"/><path fill="#1BD094" d="M4.763 5.816c.115-.007.23 0 .344-.003v.05c-.009.008-.02.006-.03.005-.057-.004-.114-.004-.171-.007-.043-.002-.086 0-.129-.005-.005 0-.01 0-.015-.004-.005-.012-.007-.024 0-.036h.001Z"/><path fill="#16C4A8" d="M5.09 6.04a.276.276 0 0 1-.009.053.05.05 0 0 0-.023-.01c-.093-.017-.188-.033-.281-.051-.012-.002-.024-.002-.036-.005-.002-.016-.002-.031.01-.044.011-.004.022 0 .033.002l.285.041.016.004c.004.001.008.003.005.01Z"/><path fill="#F74923" d="m2.727 6.585-.058.053-.045.04c-.039.035-.078.07-.118.103l-.02.021a.028.028 0 0 1-.018.01.242.242 0 0 1-.03-.035c.03-.022.057-.049.087-.071.027-.02.052-.044.078-.066.031-.026.065-.05.094-.079l.006-.004c.015.003.02.016.024.028Z"/><path fill="#1ACE98" d="M4.763 5.85c.04 0 .079.002.118.003.03.001.061 0 .091.003.045.003.09.003.136.005l-.004.051c-.003.003-.008.002-.012.002l-.163-.011c-.04-.003-.08-.006-.12-.007a.139.139 0 0 1-.049-.007c-.006-.013-.008-.027.003-.04Z"/><path fill="#EF4C55" d="M2.783 7.082c.013-.006.016-.018.023-.028.045-.07.09-.14.133-.21.011-.017.023-.032.032-.05.016-.001.026.007.034.02 0 .006-.002.01-.005.015-.054.09-.108.179-.16.269-.004.005-.006.012-.015.01a.321.321 0 0 1-.042-.026Z"/><path fill="#5A77E7" d="M4.427 7.077a.265.265 0 0 1-.044.027c-.005 0-.007-.004-.01-.008-.054-.092-.11-.182-.165-.273-.002-.004-.005-.008-.005-.014a.051.051 0 0 1 .034-.021c.013.013.021.03.031.045l.155.235c.002.003.004.006.004.01v-.001Z"/><path fill="#08A4D6" d="M4.954 6.478c-.012-.012-.028-.016-.043-.023-.038-.02-.077-.037-.116-.056a13.397 13.397 0 0 1-.14-.068l-.011-.004c-.002-.015.007-.025.015-.035.01-.003.017.002.026.006.091.043.184.083.275.125.006.003.013.004.015.011a.267.267 0 0 1-.021.044Z"/><path fill="#F14B49" d="M2.914 6.755c-.002.017-.015.028-.024.04-.055.073-.107.147-.16.221-.006.007-.01.015-.018.019-.012-.008-.024-.016-.034-.026-.003-.008.002-.013.006-.017l.193-.25c.003-.003.005-.007.01-.009.013.003.022.01.027.022Z"/><path fill="#F76400" d="M3.116 4.752c-.004-.02-.014-.036-.022-.053a40.523 40.523 0 0 0-.113-.248c-.002-.004-.003-.01-.008-.012a.175.175 0 0 1 .042-.018c.005 0 .006.004.008.007l.075.182.054.126a.036.036 0 0 1-.036.016Z"/><path fill="#E84E7B" d="M3.083 7.23a.204.204 0 0 1-.041-.015c-.006-.008 0-.015.002-.021l.091-.228.025-.06c.002-.005.004-.01.009-.013.013-.002.022.005.032.011.006.008.001.016-.001.023l-.062.169-.044.12c-.002.006-.002.014-.011.014Z"/><path fill="#E6C201" d="M3.83 4.672a118.589 118.589 0 0 1 .068-.338l.042.008c.006.009 0 .017-.001.024l-.05.215-.02.086c-.002.004-.003.009-.007.01-.013.007-.023.003-.032-.006v.001Z"/><path fill="#058FF2" d="m4.787 6.743-.137-.106a4.92 4.92 0 0 1-.12-.094c-.004-.004-.011-.007-.013-.014a.039.039 0 0 1 .024-.03c.004.015.02.02.03.028.048.036.097.07.145.105l.09.068a.019.019 0 0 0 .011.004.276.276 0 0 1-.03.039Z"/><path fill="#EA9F00" d="M3.526 4.306a.262.262 0 0 1 .06-.003c.006.007.004.015.005.023v.163c-.001.046.003.091.003.137 0 .007 0 .015-.003.021a.074.074 0 0 1-.058.005l.001-.005c.017-.004.015-.018.015-.03a5.763 5.763 0 0 1-.01-.188c0-.035-.003-.07-.005-.105a.033.033 0 0 0-.008-.018Z"/><path fill="#B9D91A" d="M4.293 4.877c.015-.012.024-.029.036-.044l.173-.23c.015.006.024.018.036.027-.015.025-.035.046-.053.068l-.102.128-.054.067a.011.011 0 0 1-.009.005.033.033 0 0 1-.027-.021Z"/><path fill="#F56E00" d="M3.19 4.723 3.1 4.48c-.01-.026-.018-.054-.032-.079a.225.225 0 0 1 .042-.015c.01 0 .01.007.013.013.014.035.023.07.036.106l.064.189c.002.005.004.01.002.017-.009.01-.02.016-.034.012Z"/><path fill="#E64F86" d="m3.268 6.93-.074.249-.024.08c-.016-.003-.032-.006-.047-.014 0-.008.005-.016.007-.024l.098-.295.004-.008c.014-.001.027 0 .037.011Z"/><path fill="#19CB9C" d="M4.76 5.89c.044.003.088.004.131.009l.058.003.144.01.011.002-.003.042c-.005.007-.012.005-.019.004l-.102-.01c-.059-.006-.118-.01-.177-.017-.016-.002-.032 0-.047-.006-.005-.013-.007-.026.004-.037Z"/><path fill="#E94D74" d="M3.17 6.895c-.021.043-.037.09-.055.134l-.07.176-.003.01a.217.217 0 0 1-.045-.017c-.002-.004 0-.008.002-.011l.124-.284c.004-.008.006-.017.014-.022.013 0 .025.003.033.014Z"/><path fill="#EE8D00" d="M3.357 4.323c.013-.004.027-.004.04-.006.012-.003.014.006.015.014l.017.129c.007.058.017.115.023.173.002.01.004.021-.007.028-.01.003-.02.007-.03.003-.004-.004-.005-.01-.006-.015l-.052-.326Z"/><path fill="#ED9200" d="M3.443 4.66c.007-.004.007-.01.006-.017l-.016-.118-.014-.102a11.422 11.422 0 0 1-.011-.095c-.001-.006-.005-.01-.01-.01a.19.19 0 0 1 .05-.006c.01.001.008.008.008.014l.03.282c.001.015.006.03 0 .046-.012.01-.027.011-.043.006Z"/><path fill="#0FB4BF" d="M5.04 6.262a.113.113 0 0 1-.012.038c-.007.006-.014.002-.02 0l-.273-.094c-.012-.004-.025-.007-.035-.015 0-.014.002-.026.012-.035.023 0 .044.011.066.018.078.024.155.049.234.072a.118.118 0 0 1 .02.007c.003.001.01.002.008.01v-.001Z"/><path fill="#F18000" d="M3.228 4.351a.225.225 0 0 1 .048-.012c.007.005.007.011.008.017l.067.306a.025.025 0 0 1 .001.013.037.037 0 0 1-.034.01c-.009-.005-.01-.014-.012-.023l-.065-.265-.013-.046Z"/><path fill="#F24B46" d="m2.887 6.735-.165.214c-.015.02-.033.036-.043.06a.277.277 0 0 1-.039-.03c.013-.021.03-.039.044-.057l.13-.157c.014-.018.027-.039.047-.053.013.003.022.01.026.023Z"/><path fill="#E151A4" d="M3.384 7.308c-.016-.002-.032-.003-.048-.008a21.555 21.555 0 0 0 .056-.318c.001-.008.002-.017.009-.023a.04.04 0 0 1 .035.008c.002.015-.002.03-.005.045l-.037.263c-.002.011 0 .024-.01.033Z"/><path fill="#EA4D6F" d="M3.136 6.883c-.027.055-.05.111-.074.167l-.066.149a.218.218 0 0 1-.042-.021l.028-.059c.038-.078.074-.157.111-.235.003-.006.005-.012.01-.017.014 0 .025.005.033.017Z"/><path fill="#E9A300" d="M3.589 4.65c-.004-.116-.003-.23-.003-.345h.044c.003.003.003.007.003.011-.002.035 0 .07-.001.104-.003.058-.002.116-.003.174-.001.018 0 .038-.007.056a.032.032 0 0 1-.033 0Z"/><path fill="#EB9A00" d="M3.526 4.305c.01-.001.012.003.013.013 0 .054.004.108.006.162.002.047.004.093.008.14.002.023 0 .024-.02.03-.006.005-.01.004-.016 0-.004-.005-.004-.011-.004-.018 0-.047-.008-.094-.01-.142-.002-.05-.009-.099-.01-.149-.001-.013-.002-.026-.015-.033.016-.004.032-.003.048-.003Z"/><path fill="#EC9600" d="M3.478 4.309c.01-.001.016.002.017.014.003.019.002.038.004.057.005.06.007.121.013.181.003.03.006.06.005.09-.01.01-.02.01-.032.003l-.011-.108a1.796 1.796 0 0 0-.018-.17c-.003-.016-.003-.033-.004-.049 0-.005.002-.011-.004-.015.01-.004.02-.003.03-.003Z"/><path fill="#EB4D69" d="m3.104 6.868-.022.05-.096.202c-.007.013-.012.028-.019.042-.003.006-.006.012-.012.016l-.038-.019c0-.004.003-.008.005-.012.046-.094.095-.186.141-.28.003-.005.005-.012.011-.015.013 0 .024.004.03.016Z"/><path fill="#E8AE01" d="M3.735 4.31c.005.011.003.023.002.035-.005.052-.012.103-.015.155-.003.043-.01.086-.014.129v.025c-.012.007-.023.003-.035-.003-.004-.006-.003-.013-.003-.02 0-.042.006-.083.008-.124.001-.037.005-.074.007-.111 0-.023.004-.046.004-.069a.03.03 0 0 1 .006-.02c.013-.001.026.001.04.003Z"/><path fill="#17C6A3" d="M5.09 6.037c0-.007-.006-.005-.01-.006l-.19-.029c-.046-.007-.092-.012-.14-.018-.006-.011-.001-.021.003-.031.008-.008.017-.007.027-.006l.258.031c.016.002.032.003.047.006.01.002.016.007.011.018a.115.115 0 0 1-.005.036Z"/><path fill="#F08400" d="m3.35 4.675-.035-.16a40.958 40.958 0 0 1-.038-.176.252.252 0 0 1 .044-.01c.004.004.004.008.005.012l.058.308c.001.006.004.013 0 .02-.01.008-.02.012-.033.006Z"/><path fill="#2ADA75" d="m5.06 5.436-.24.062c-.027.007-.054.016-.081.021a.012.012 0 0 0-.011.007c-.012-.009-.011-.021-.012-.034.007-.01.019-.01.029-.014L5 5.403c.012-.003.025-.005.037-.01.004 0 .008-.002.012.001l.011.042Z"/><path fill="#E74E81" d="M3.232 6.92c0 .003 0 .007-.002.011l-.05.15-.05.15c-.001.005-.001.013-.009.015a.17.17 0 0 1-.039-.015c.008-.006.009-.015.012-.023l.071-.198c.011-.03.023-.058.032-.088.001-.005.005-.01.002-.015.014-.004.023.004.033.012Z"/><path fill="#14C0AD" d="M4.743 6.025c.018-.007.035.002.052.004l.208.038.068.012c.007 0 .011.004.01.012a.134.134 0 0 1-.005.035c-.01.002-.02-.003-.03-.004l-.285-.06c-.009-.002-.017 0-.025-.001-.003-.013-.002-.025.007-.036Z"/><path fill="#E2509E" d="M3.402 6.961c-.01.029-.012.058-.018.087l-.019.113-.022.13c-.001.004 0 .008-.007.009a.183.183 0 0 1-.038-.006c-.003-.005-.002-.01 0-.015l.061-.303c.002-.007.003-.015.008-.022.013-.003.025-.002.035.007Z"/><path fill="#E45094" d="M3.217 7.274c.008-.01.008-.023.012-.034l.078-.3c.013-.004.023.002.033.01 0 .02-.008.04-.012.06l-.06.262c-.001.005 0 .013-.009.013a.191.191 0 0 1-.042-.011Z"/><path fill="#F37600" d="M3.152 4.371a.245.245 0 0 1 .041-.012c.012.019.015.04.02.061l.049.172c.008.03.015.06.024.089.001.004.002.008 0 .012a.044.044 0 0 1-.034.01c-.01-.016-.013-.034-.018-.05-.026-.09-.055-.177-.082-.266-.001-.005-.004-.01 0-.015Z"/><path fill="#EF8900" d="m3.384 4.667-.03-.155-.032-.165v-.019a.105.105 0 0 1 .035-.006c.006 0 .005.005.006.01l.022.138.026.161c.001.01 0 .02.005.03-.01.01-.02.012-.033.006Z"/><path fill="#F27B00" d="m3.285 4.693-.065-.235-.027-.098a.124.124 0 0 1 .035-.009c.006 0 .006.006.007.01.015.05.025.1.038.15l.039.158.006.015c-.01.008-.02.012-.033.008Z"/><path fill="#94D92F" d="M4.752 4.838c.011.01.018.022.027.033-.005.012-.016.016-.024.023-.05.04-.098.08-.147.118-.03.023-.057.048-.087.07-.003.002-.006.005-.01.005-.013-.005-.02-.015-.025-.028l.118-.1.135-.114c.003-.004.007-.009.013-.007Z"/><path fill="#A5D925" d="M4.677 4.756c.01.008.019.019.027.029.004.008-.002.012-.006.016l-.093.086c-.02.018-.038.037-.059.055l-.08.074c-.004.003-.007.006-.012.007a.039.039 0 0 1-.024-.026c.051-.051.102-.104.154-.154l.081-.078c.003-.004.006-.008.012-.008Z"/><path fill="#E051AA" d="M3.383 7.309c.01-.062.018-.125.027-.187l.017-.11c.002-.015.003-.03.007-.044.008-.007.017-.002.025 0 .009.005.01.014.008.022l-.021.182-.014.122c-.002.018-.005.02-.02.018-.01 0-.019 0-.028-.003Z"/><path fill="#6374E6" d="m4.204 6.81.179.294c-.011.01-.025.013-.036.02-.009-.003-.011-.012-.015-.02a33.19 33.19 0 0 1-.146-.256c-.005-.008-.012-.014-.01-.024.007-.009.015-.017.028-.015Z"/><path fill="#F54A36" d="M2.584 6.93a.14.14 0 0 1-.026-.027c.01-.017.024-.03.037-.043.058-.06.115-.123.175-.182.008-.008.013-.02.025-.026.012.003.018.011.023.022-.002.014-.013.022-.022.032-.05.058-.103.114-.154.172-.014.016-.027.032-.043.046-.004.004-.007.01-.014.006Z"/><path fill="#F47200" d="m3.151 4.37.08.26.022.07c-.008.01-.018.014-.03.01l-.082-.241c-.007-.024-.014-.048-.023-.071-.002-.005-.003-.011-.009-.013a.18.18 0 0 1 .043-.014Z"/><path fill="#DB53D0" d="M3.651 6.978c.033 0 .032 0 .033.033.002.051.007.102.011.153l.007.085c0 .024.005.047.003.07a.403.403 0 0 1-.065.003V7.32c.021-.004.02-.02.019-.034-.003-.066-.005-.131-.009-.196l-.003-.092c0-.007 0-.014.004-.02Z"/><path fill="#8CD933" d="m4.51 5.086.113-.091.156-.124a.166.166 0 0 1 .023.03c.002.008-.005.01-.01.014l-.169.128c-.026.02-.052.042-.079.06-.005.004-.009.008-.016.008-.01-.005-.018-.013-.018-.025Z"/><path fill="#AAD922" d="M4.676 4.755c-.03.031-.06.06-.092.09l-.14.14c-.004.004-.007.01-.015.01a.028.028 0 0 1-.021-.02.277.277 0 0 1 .032-.037c.062-.061.12-.126.183-.187.008-.008.013-.02.023-.026.011.01.021.019.03.03Z"/><path fill="#F64A2E" d="M2.503 6.85a.217.217 0 0 0 .029-.023c.05-.048.099-.097.15-.144l.06-.058c.004-.004.009-.007.009-.014.013.004.02.013.025.025 0 .007-.007.011-.011.016l-.133.133c-.03.03-.058.061-.09.09-.002.003-.004.007-.01.005-.01-.01-.02-.018-.029-.03Z"/><path fill="#D355D9" d="M3.755 7.314c-.004-.035-.01-.071-.011-.107-.002-.033-.008-.066-.01-.1-.002-.031-.007-.063-.01-.094l-.005-.041c.007-.012.017-.007.027-.006.008.004.01.012.01.02l.024.183.016.125c.001.006.002.013-.005.017-.012 0-.024.004-.036.003Z"/><path fill="#5279E8" d="M4.427 7.075c-.01-.005-.013-.015-.019-.024a82.342 82.342 0 0 1-.168-.257c-.002-.002-.002-.004-.003-.007.006-.01.014-.018.027-.019.06.091.125.18.186.27l.011.014c-.01.01-.022.016-.034.023Z"/><path fill="#36DA6A" d="M5.016 5.294c.004.011.01.023.012.035-.007.008-.016.01-.025.013-.093.03-.186.064-.28.095-.007.002-.013.006-.02.01a.042.042 0 0 1-.012-.037c.008-.008.019-.009.028-.012.093-.036.188-.07.281-.104.005-.002.01-.005.016 0Z"/><path fill="#E35099" d="M3.259 7.285c.01-.026.013-.054.02-.081l.034-.15.02-.09.006-.014c.01-.003.019 0 .027.005 0 .017-.006.033-.01.049l-.056.278a.17.17 0 0 1-.003.012c-.013 0-.026-.005-.039-.009Z"/><path fill="#3881EB" d="M4.584 6.955a.15.15 0 0 1-.029.025c-.009 0-.013-.007-.017-.012l-.158-.194c-.013-.017-.025-.033-.04-.048-.003-.003-.006-.006-.006-.011a.044.044 0 0 1 .025-.022c.017.014.03.033.045.05l.126.146c.019.022.04.041.054.066Z"/><path fill="#F34B40" d="m2.86 6.713-.115.14-.092.113-.013.012a.167.167 0 0 1-.03-.024c.01-.017.024-.03.037-.045.049-.058.098-.115.149-.172.013-.015.023-.033.04-.044a.03.03 0 0 1 .025.02Z"/><path fill="#836BE2" d="M4.213 7.193a.207.207 0 0 1-.04.017c-.011-.01-.014-.026-.02-.04l-.062-.152-.044-.106c-.003-.007-.007-.014-.004-.023.008-.006.017-.013.029-.012.018.034.031.07.047.104l.085.193.01.019Z"/><path fill="#8A69E1" d="M4.044 6.89c.006.028.019.053.03.08.024.057.048.116.07.174.01.023.022.043.027.067a.154.154 0 0 1-.035.015c-.01-.008-.01-.02-.015-.03l-.105-.277a.033.033 0 0 1-.004-.014c.007-.012.018-.016.031-.014Z"/><path fill="#EE4C5A" d="M2.825 7.108c.016-.015.025-.036.036-.055a23.375 23.375 0 0 0 .142-.239c.011-.004.017.004.023.01.005.008.002.014-.002.02l-.123.219c-.01.015-.017.031-.026.046-.005.007-.008.015-.015.02l-.035-.02Z"/><path fill="#79D93E" d="M4.843 4.959c.008.01.015.02.022.032a.978.978 0 0 1-.075.05l-.204.134-.01.005c-.01-.007-.018-.015-.019-.028l.103-.072.165-.114c.005-.004.01-.01.018-.008Z"/><path fill="#DF51AF" d="M3.413 7.312c.009.002.012-.002.013-.01l.008-.065.014-.117.01-.088.005-.04c.001-.008.004-.016-.005-.022.012-.008.022-.001.034.001.005.004.005.01.004.015-.003.055-.01.11-.014.164-.004.05-.01.1-.013.149 0 .006 0 .013-.005.018h-.009c-.005-.003-.01 0-.015-.002-.009 0-.018 0-.027-.003Z"/><path fill="#B2D91E" d="M4.367 4.937c.014-.024.035-.043.053-.063.037-.04.072-.082.108-.122l.055-.062c.004-.005.008-.008.008-.015.01.008.02.016.03.026.001.006-.003.009-.006.012-.037.04-.075.08-.112.122-.033.036-.067.07-.099.107-.005.006-.01.013-.018.015-.01-.003-.017-.009-.019-.02Z"/><path fill="#0DAFC5" d="m4.701 6.19.307.107c.006.002.013.005.02.004a.2.2 0 0 1-.015.039 2.329 2.329 0 0 1-.073-.026l-.237-.088c-.005-.002-.01-.003-.013-.008a.025.025 0 0 1 .011-.027Z"/><path fill="#9167E0" d="m4.014 6.903.066.172c.019.05.04.1.056.151a.076.076 0 0 1-.026.009c-.009.004-.011-.001-.014-.008l-.055-.154-.052-.147-.003-.013c.008-.01.017-.013.028-.01Z"/><path fill="#9AD92B" d="m4.752 4.838-.108.092-.108.091-.04.034c-.003.002-.005.004-.009.004-.011-.002-.016-.01-.019-.02l.096-.086.094-.084c.02-.018.041-.035.06-.054.003-.003.006-.006.01-.004a.156.156 0 0 1 .024.027Z"/><path fill="#776FE3" d="M4.279 7.162c-.012.01-.026.01-.039.018-.006-.004-.008-.011-.01-.017l-.131-.28c-.004-.006-.006-.013 0-.02.006-.005.013-.011.022-.009.005.004.007.01.01.015.03.064.064.126.095.19.011.024.021.048.034.07a.11.11 0 0 0 .019.033Z"/><path fill="#7D6DE3" d="M4.1 6.867c-.003.004-.003.008 0 .013l.065.14c.025.054.052.107.075.162a.11.11 0 0 1-.027.011c-.014-.005-.015-.02-.02-.03a11.856 11.856 0 0 1-.083-.19c-.013-.032-.03-.062-.04-.094.009-.009.017-.017.03-.013Z"/><path fill="#0296EB" d="M4.844 6.665c-.007-.012-.02-.017-.03-.024a10.65 10.65 0 0 0-.194-.133l-.058-.04c-.002-.01.005-.016.011-.023.007-.002.013.002.018.005l.253.164c.008.005.016.01.022.018a.206.206 0 0 1-.022.033Z"/><path fill="#F54A31" d="m2.533 6.88.08-.08c.053-.056.11-.108.162-.165.01.003.017.01.02.02-.025.03-.054.056-.08.084a9.173 9.173 0 0 0-.123.129c-.012.012-.022.025-.035.036-.01-.007-.017-.016-.025-.024Z"/><path fill="#2EDA71" d="m5.048 5.396-.237.07-.08.022c-.004.001-.01.002-.012.006-.01-.004-.008-.013-.01-.02 0-.01.007-.014.015-.017l.225-.07.072-.023c.006-.002.012-.005.018 0 .004.01.008.02.01.032Z"/><path fill="#1F88EE" d="M4.697 6.848a.136.136 0 0 1-.025.027c-.009.002-.012-.005-.017-.01-.058-.058-.116-.117-.175-.174-.015-.016-.03-.033-.048-.047a.016.016 0 0 1-.007-.01c.004-.01.01-.019.02-.023.012.007.022.018.032.028.042.04.083.08.126.119l.085.08.01.01Z"/><path fill="#18C99F" d="M5.096 6c0-.007-.001-.01-.01-.012-.021-.005-.043-.005-.064-.008l-.088-.011-.087-.01-.064-.008c-.01-.001-.02-.003-.028.002-.007-.01-.003-.02.003-.03.043.001.085.007.127.012l.074.006.114.011.029.001c0 .016 0 .032-.005.048h-.001Z"/><path fill="#3CDA66" d="M5.016 5.294c-.025.006-.047.018-.071.026l-.209.076c-.015.005-.029.013-.045.015-.01-.006-.011-.014-.01-.024.017-.014.038-.018.057-.026l.188-.073.065-.025c.004-.002.008-.005.012-.001l.013.033Z"/><path fill="#10B6BB" d="M5.04 6.262c-.02-.014-.043-.016-.065-.024l-.151-.046-.112-.035c-.005-.01-.002-.02.006-.028.008-.002.015.002.023.004.083.025.168.048.252.072l.044.013c.006.002.015.003.011.013a.104.104 0 0 1-.008.03Z"/><path fill="#80D93A" d="M4.843 4.957c-.037.022-.07.048-.105.072-.057.038-.112.078-.169.117l-.012.005c-.01-.002-.012-.01-.014-.018.001-.006.006-.01.011-.014l.253-.184c.005-.003.01-.009.017-.005l.019.027Z"/><path fill="#B55DDD" d="M3.96 7.28a.074.074 0 0 1-.026.007c-.012.003-.013-.007-.014-.013l-.015-.064c-.015-.08-.035-.157-.052-.237-.002-.008-.006-.016.002-.023.009-.005.018-.01.028-.006.014.065.031.13.047.195l.031.126c.002.006.003.011 0 .016Z"/><path fill="#72D942" d="M4.575 5.179c.037-.029.077-.051.115-.077.053-.036.107-.07.16-.105a.028.028 0 0 1 .014-.006.103.103 0 0 1 .017.027c-.003.008-.01.01-.016.014l-.244.152c-.01.006-.02.014-.03.019-.011-.004-.015-.013-.015-.024Z"/><path fill="#32DA6E" d="M5.038 5.363c-.032.007-.063.02-.094.03l-.222.068c-.006.002-.01.005-.01.013-.01-.007-.013-.016-.009-.028.003-.009.01-.01.017-.012l.195-.065.113-.039.01.033Z"/><path fill="#E8AB01" d="M3.695 4.308c-.005.053-.005.107-.011.16l-.003.048c-.001.045-.009.09-.006.136-.015.008-.032.007-.043-.002.009-.007.01-.015.011-.026.004-.06.006-.118.008-.177.002-.04.005-.081.005-.122 0-.012-.011-.013-.014-.02l.053.002Z"/><path fill="#407FEA" d="M4.334 6.716c.04.048.08.096.118.144l.087.106c.004.006.01.012.016.015a.145.145 0 0 1-.027.021c-.01.001-.014-.007-.02-.013l-.126-.164-.06-.077c-.003-.005-.009-.01-.008-.017.004-.009.01-.014.02-.015Z"/><path fill="#47DA5E" d="M4.977 5.197c.005.008.01.017.012.027-.003.007-.01.009-.015.011-.093.038-.185.078-.278.117a.122.122 0 0 0-.022.012c-.01-.006-.012-.016-.014-.027.002-.008.008-.011.014-.014l.187-.083c.032-.014.065-.026.096-.043.006-.003.013-.009.02 0Z"/><path fill="#EC4C64" d="M3.074 6.854c-.02.041-.04.083-.062.125-.03.056-.058.114-.087.17-.002.004-.003.009-.008.01a.103.103 0 0 1-.03-.014c.011-.03.028-.056.043-.083l.08-.15c.01-.02.023-.04.032-.062.002-.004.004-.008.008-.01.011 0 .02.003.024.014Z"/><path fill="#4E7BE8" d="M4.461 7.054c-.006-.001-.01-.005-.013-.01l-.152-.22-.027-.04c-.003-.004-.006-.008-.005-.013.002-.012.011-.014.02-.016l.193.265.01.015a.093.093 0 0 1-.025.019H4.46Z"/><path fill="#86D936" d="M4.824 4.932c-.024.01-.044.03-.066.045a6.97 6.97 0 0 0-.153.112c-.02.015-.043.026-.06.046-.011-.004-.018-.012-.018-.024.026-.015.049-.035.072-.052.042-.032.085-.063.126-.096.025-.021.054-.038.077-.061l.023.03Z"/><path fill="#2687EE" d="M4.426 6.633c.01.014.023.023.035.034.068.066.135.135.202.202l.009.006a.1.1 0 0 1-.023.023c-.007.001-.01-.004-.014-.008-.057-.056-.111-.115-.168-.172l-.051-.053c-.004-.004-.008-.007-.009-.013a.029.029 0 0 1 .02-.02Z"/><path fill="#F44B3B" d="m2.838 6.696-.063.07-.066.077-.084.099a.044.044 0 0 1-.014.013.159.159 0 0 1-.027-.024c.012-.003.018-.013.026-.021l.107-.12.095-.107a.013.013 0 0 0 .004-.008c.012.002.018.01.022.02Z"/><path fill="#E8A701" d="M3.643 4.305c.019 0 .018.011.018.025 0 .04-.004.078-.004.117-.001.046-.005.091-.006.136 0 .019-.003.038-.003.056 0 .013-.008.01-.015.01-.004.004-.008.004-.011 0 .004-.06 0-.121.003-.182.003-.047.001-.094.003-.14 0-.008.002-.015.003-.022h.012Z"/><path fill="#118CF0" d="M4.492 6.562c.013.018.032.03.049.044.034.03.068.057.103.086l.107.089.005.001a.111.111 0 0 1-.023.027c-.016-.003-.024-.016-.035-.026l-.185-.162c-.011-.009-.02-.02-.032-.029-.004-.003-.007-.007-.006-.012.002-.01.006-.017.016-.019Z"/><path fill="#9FD928" d="m4.728 4.81-.06.054a26.98 26.98 0 0 0-.132.117l-.057.05c-.003.003-.006.006-.01.006-.011 0-.015-.008-.016-.017l.03-.026.154-.145.059-.052c.004-.004.008-.008.008-.014a.155.155 0 0 1 .025.027Z"/><path fill="#9766DF" d="M3.986 6.911c.02.047.035.096.053.145l.06.171c.002.006.006.007.01.007a.115.115 0 0 1-.036.011c-.008 0-.007-.006-.009-.01-.028-.09-.058-.177-.087-.266-.006-.017-.013-.033-.015-.051.007-.006.015-.01.025-.007Z"/><path fill="#3383EC" d="m4.584 6.956-.07-.079-.067-.078-.088-.104c.002-.012.01-.016.02-.02l.13.145c.029.032.056.065.086.096.005.005.01.011.013.019-.006.01-.017.013-.024.02Z"/><path fill="#DC53CC" d="M3.651 6.978c0 .061.005.123.007.184 0 .046.004.092.005.138 0 .014-.001.023-.018.02l-.006.002h-.006c-.009-.018-.005-.038-.007-.056-.002-.013-.001-.026 0-.039.001-.062-.005-.124-.004-.187 0-.015-.003-.03-.003-.044 0-.006 0-.013.005-.018h.027Z"/><path fill="#0399E7" d="m4.866 6.633-.086-.054-.195-.127c-.003-.002-.006-.004-.01-.004-.002-.011.003-.017.013-.02.023.007.041.023.062.036l.229.14c0 .002.003.001.004.002a2.243 2.243 0 0 0-.017.027Z"/><path fill="#12BBB5" d="M5.066 6.167a.108.108 0 0 1-.008.03c-.006.004-.012 0-.019 0l-.222-.059-.076-.02c-.006-.002-.012-.003-.017-.007-.005-.01 0-.02.006-.028a.01.01 0 0 1 .007 0c.103.027.208.05.312.076.006.002.013.002.017.008Z"/><path fill="#AD5FDD" d="m3.96 7.278-.039-.156-.04-.166a.017.017 0 0 1 .001-.014c.006-.008.013-.008.021-.005.009.014.01.031.015.046l.071.265a.073.073 0 0 0 .01.02.138.138 0 0 1-.04.01Z"/><path fill="#9C64DF" d="M3.964 6.92c.008.013.01.03.015.044l.085.254c.003.01.003.02.01.029-.01.005-.02.007-.03.01-.006-.003-.007-.01-.009-.015l-.084-.273-.008-.026c-.002-.007-.004-.013.001-.019.006-.004.012-.01.02-.004Z"/><path fill="#6873E5" d="m4.178 6.823.078.138.092.163c-.008.007-.018.01-.027.015-.006-.002-.008-.008-.01-.013l-.106-.194-.046-.083c-.002-.005-.005-.009-.003-.014.005-.008.011-.014.022-.012Z"/><path fill="#7071E4" d="M4.278 7.163c-.01 0-.011-.008-.015-.014l-.1-.203c-.014-.03-.03-.059-.042-.09.003-.01.01-.013.021-.012.015.021.024.045.036.068.04.073.078.147.116.22.003.007.008.012.005.02a.07.07 0 0 1-.02.011Z"/><path fill="#4EDA59" d="M4.977 5.197c-.017-.003-.029.01-.042.016-.085.036-.168.074-.252.11-.008.004-.016.006-.021.014-.01-.003-.01-.012-.011-.02.001-.01.009-.013.016-.016.056-.027.113-.052.17-.08.035-.018.072-.034.108-.05.006-.003.013-.01.02 0a.12.12 0 0 1 .012.026Z"/><path fill="#477DE9" d="M4.486 7.034c-.018-.016-.03-.037-.044-.057l-.153-.21c-.002-.004-.005-.007-.004-.012.001-.01.008-.013.017-.014.012.008.018.02.025.03l.175.231c.003.005.007.009.008.014-.006.009-.016.012-.024.018Z"/><path fill="#DD52BC" d="M3.553 7.322c-.01 0-.022.001-.033-.002a.131.131 0 0 1 0-.037c.005-.065.006-.13.01-.196.002-.037.008-.075.002-.113.012-.007.022-.005.032.004.006.022.003.044.002.066l-.002.016c.002.055-.004.11-.003.165 0 .028-.004.055-.003.083 0 .005 0 .01-.004.014Z"/><path fill="#11B9B8" d="M4.725 6.11c.048.011.095.023.143.036l.19.05a.16.16 0 0 1-.01.035c0-.007-.007-.008-.012-.01l-.269-.076-.048-.015c-.004-.008-.002-.015.006-.02Z"/><path fill="#DF52B4" d="M3.464 7.317c.001-.047.007-.094.012-.14l.006-.077.011-.117c0-.004 0-.007-.002-.01.01-.008.02-.006.028.002.004.011 0 .022 0 .033-.002.048-.007.097-.01.146-.002.033-.006.066-.007.099 0 .016-.003.031-.003.047 0 .02-.003.02-.023.018h-.012Z"/><path fill="#DE52B7" d="M3.476 7.316c.013.002.017-.003.018-.018.003-.051.009-.103.011-.154.001-.03.006-.06.007-.091.001-.027.004-.053.006-.08.005-.004.01-.004.014 0 .007.004.007.01.006.016a2.614 2.614 0 0 1-.008.16c-.002.025 0 .05-.003.076-.003.029-.003.058-.004.086 0 .003 0 .006-.003.008-.015-.001-.03.001-.045-.003Z"/><path fill="#178BEF" d="M4.477 6.578c.007.018.025.026.038.039.026.025.055.048.083.072l.135.12c-.003.009-.011.013-.018.02-.007.004-.01-.002-.014-.006-.05-.048-.102-.093-.154-.14-.026-.024-.05-.048-.078-.07-.005-.005-.01-.01-.01-.016a.022.022 0 0 1 .019-.019Z"/><path fill="#60DA4D" d="M4.915 5.074a.1.1 0 0 1 .014.027c-.014.014-.032.021-.049.03-.082.043-.164.087-.245.132l-.009.003c-.009-.004-.011-.013-.013-.022.002-.006.006-.007.01-.01.087-.05.173-.098.26-.145.01-.005.019-.016.032-.014Z"/><path fill="#A363DE" d="M3.945 6.925c-.004.01.002.018.004.027l.074.239.02.065a.086.086 0 0 1-.026.008c-.007-.002-.008-.01-.01-.015-.03-.1-.058-.202-.087-.303a.021.021 0 0 1 0-.013c.006-.008.015-.012.025-.008Z"/><path fill="#D3D808" d="M4.139 4.783c0-.007.003-.013.006-.018l.141-.271.01-.017c.01.002.017.007.024.012.004.006 0 .011-.003.016l-.1.183-.05.093c-.003.005-.005.01-.01.013-.009 0-.016 0-.018-.01v-.001Z"/><path fill="#BC5BDD" d="M3.857 6.948a.014.014 0 0 0-.002.01l.07.312c.001.006.002.012.01.013a.071.071 0 0 1-.027.006c-.012.003-.013-.006-.015-.013a1.373 1.373 0 0 1-.018-.088l-.045-.216a.139.139 0 0 1-.002-.015l.001-.005c.008-.005.017-.01.028-.004Z"/><path fill="#2E84ED" d="M4.609 6.938a8.424 8.424 0 0 1-.068-.073l-.035-.04-.119-.132a.024.024 0 0 1-.007-.014c.001-.009.007-.012.015-.013.012.006.018.019.028.028.042.042.082.086.123.13l.087.093-.024.02Z"/><path fill="#C758DC" d="M3.88 7.297a.108.108 0 0 1-.036.008c-.004-.004-.004-.01-.004-.014l-.052-.307a.032.032 0 0 1 0-.02c.008-.008.017-.01.027-.006l.042.231.017.09c0 .006.004.012.006.019Z"/><path fill="#0CADC9" d="m4.69 6.216.135.05.141.052c.016.006.033.01.047.02a.073.073 0 0 1-.009.024.022.022 0 0 1-.014-.002c-.1-.04-.203-.079-.304-.12l-.003-.002c-.003-.01 0-.016.008-.022Z"/><path fill="#0BAACD" d="M4.683 6.237c.025.004.046.017.068.026l.225.087.028.012a.075.075 0 0 1-.009.024c-.006.005-.01.001-.016 0-.093-.04-.186-.077-.278-.115-.01-.004-.019-.007-.025-.016-.003-.008 0-.014.007-.018Z"/><path fill="#5BDA51" d="M4.626 5.263c.01-.009.022-.015.034-.021l.26-.14.01-.003.011.024c-.005.01-.016.014-.026.018l-.133.068-.13.066c-.006.003-.01.008-.014.012-.01-.005-.015-.013-.012-.024Z"/><path fill="#D056DA" d="M3.791 7.311c.007-.01 0-.022 0-.033l-.024-.182-.015-.116a.011.011 0 0 0-.006-.01c.006-.011.015-.007.024-.006.006.003.007.009.007.014l.046.309c0 .008.004.016-.005.021l-.027.003Z"/><path fill="#2A85ED" d="M4.633 6.915a.068.068 0 0 1-.031-.027c-.017-.021-.038-.038-.055-.06-.022-.026-.048-.049-.071-.075-.027-.03-.057-.056-.081-.088 0-.01.005-.014.014-.015l.005.006.088.092.136.139.012.01a.075.075 0 0 1-.018.019v-.001Z"/><path fill="#DD52C0" d="M3.553 7.323c0-.051.002-.102.004-.153.001-.037 0-.075.002-.112.003-.026.002-.053.003-.08.007-.006.014-.005.022 0 .004.007.003.014.003.022 0 .062.002.124 0 .186l-.003.12c0 .006 0 .012-.004.017h-.027Z"/><path fill="#C4D812" d="M4.403 4.538c-.026.047-.056.09-.084.136l-.095.15-.003.006c-.01.002-.016-.004-.021-.012.013-.028.031-.054.047-.08.04-.068.081-.134.122-.2.003-.006.006-.012.013-.014a.073.073 0 0 1 .02.014h.001Z"/><path fill="#DC53C4" d="M3.58 7.323c0-.115.005-.23.003-.344.007-.007.014-.006.022-.001a7.952 7.952 0 0 1 .006.32c0 .008.002.017-.005.025H3.58Z"/><path fill="#C7D810" d="m4.382 4.525-.176.29-.004.004c-.01.002-.016-.003-.02-.012l.119-.204.046-.08c.003-.005.006-.01.012-.013l.023.015Z"/><path fill="#1B8AEF" d="m4.46 6.598.082.076c.018.015.034.032.051.047.04.034.077.07.115.105a.012.012 0 0 0 .007.003c-.003.008-.014.01-.018.018-.004 0-.006-.002-.009-.004l-.105-.1-.11-.104-.028-.026c0-.01.005-.015.015-.015Z"/><path fill="#DC53C7" d="M3.606 7.323c0-.115.001-.23-.003-.345.007-.005.014-.005.02 0h.001c0 .047.002.095.004.142.002.04 0 .08.002.12l.003.082h-.027Z"/><path fill="#09A5D4" d="m4.975 6.434-.262-.117c-.018-.008-.034-.02-.053-.023-.003-.01.003-.016.008-.021.006-.002.012.001.017.003.085.037.17.075.255.11.016.008.033.012.046.024l-.01.024h-.001Z"/><path fill="#A861DE" d="m3.922 6.933.03.107.062.216c0 .003.002.005.003.008A.038.038 0 0 1 4 7.27c-.009.001-.01-.005-.012-.01-.02-.08-.042-.158-.063-.237-.008-.028-.017-.056-.021-.085.004-.007.01-.009.018-.005Z"/><path fill="#56DA54" d="M4.638 5.288c0-.006.003-.01.008-.013l.107-.053c.033-.017.064-.035.097-.051l.091-.046.012.02c-.003.008-.01.01-.016.014-.095.047-.19.092-.285.14a.019.019 0 0 1-.008.002c-.006-.003-.01-.007-.005-.013Z"/><path fill="#0AA7D0" d="m4.986 6.41-.11-.047-.167-.072a2.577 2.577 0 0 1-.04-.018c-.002-.008 0-.014.007-.018.05.024.104.043.155.065.05.022.102.042.153.063a.024.024 0 0 0 .011.003c-.002.008-.004.017-.009.024Z"/><path fill="#6DDA45" d="M4.59 5.2c.007-.01.018-.014.028-.02l.202-.127.061-.037c.003.008.012.012.012.02-.002.008-.008.01-.013.014l-.27.161c-.004.002-.007.005-.01.005-.008-.003-.013-.007-.01-.015Z"/><path fill="#CC57DB" d="M3.818 7.308c.007-.01 0-.022-.001-.033l-.029-.188c-.006-.037-.01-.076-.015-.114 0-.002-.002-.004-.004-.006.006-.01.014-.007.022-.002.001.03.009.06.013.091l.029.17c.004.027.011.052.012.079l-.027.004Z"/><path fill="#CCD80C" d="m4.36 4.509-.084.143-.081.14c-.003.005-.006.01-.011.014-.008 0-.014-.002-.016-.01.01-.025.026-.048.04-.072l.119-.213c.003-.005.005-.011.012-.014.007.002.012.01.02.011Z"/><path fill="#13BDB1" d="m5.066 6.167-.134-.033a6.195 6.195 0 0 1-.185-.044.065.065 0 0 1-.016-.007c-.003-.007 0-.013.007-.016.023 0 .044.008.067.013.082.018.164.038.247.055.007.002.015.002.02.008a.06.06 0 0 1-.005.024Z"/><path fill="#6D72E4" d="m4.3 7.15-.106-.205c-.016-.03-.033-.058-.047-.088l-.005-.014c.002-.008.007-.01.015-.008l.042.081.079.143.042.08c-.005.006-.014.007-.02.011Z"/><path fill="#52DA56" d="M4.644 5.298c.046-.025.094-.048.142-.07l.022-.012c.048-.025.098-.044.145-.072.005.008.01.017.012.027-.004-.004-.008-.002-.012 0l-.144.068-.14.065c-.007.003-.013.006-.016.013-.009-.003-.012-.01-.009-.019Z"/><path fill="#AED920" d="M4.649 4.727a.083.083 0 0 1-.02.027l-.19.194c-.01.01-.018.023-.03.03-.008 0-.012-.004-.013-.012.012-.022.031-.038.049-.056.047-.048.092-.1.14-.147a.844.844 0 0 0 .039-.043c.003-.003.005-.008.011-.006l.014.013Z"/><path fill="#437EEA" d="M4.51 7.016c-.025-.026-.044-.055-.065-.083l-.128-.168-.015-.024c0-.008.007-.011.014-.011.008.018.023.032.035.047l.108.14.054.07c.005.006.01.011.016.014l-.02.015Z"/><path fill="#66DA4A" d="m4.915 5.074-.237.134-.063.035c-.008 0-.008-.006-.009-.01 0-.01.007-.013.013-.017.041-.025.083-.047.124-.071l.142-.083c.006-.004.012-.01.02-.006l.01.018Z"/><path fill="#CFD80A" d="m4.338 4.498-.092.164-.065.117a.063.063 0 0 1-.013.02c-.006.001-.01 0-.011-.007.039-.072.079-.143.117-.215.016-.03.034-.057.046-.088a.032.032 0 0 1 .018.01v-.001Z"/><path fill="#69DA48" d="M4.906 5.057c-.033.015-.062.034-.093.052l-.18.104c-.009.006-.022.007-.024.02-.008-.002-.012-.007-.009-.015.014-.013.03-.021.047-.03.06-.038.122-.074.184-.11l.063-.039c.005.006.01.011.012.018Z"/><path fill="#13BEB0" d="m5.072 6.143-.13-.027-.158-.035-.048-.012c-.001-.002-.001-.004.001-.006.005-.008.012-.006.018-.005l.228.049.078.015c.005.001.01.002.014.006 0 .005 0 .01-.003.015Z"/><path fill="#43DA61" d="M4.674 5.365c0-.01.008-.01.014-.013l.265-.11.036-.017a.033.033 0 0 1 .006.018c-.004.009-.012.01-.02.014l-.277.112a.064.064 0 0 0-.018.012c-.008-.003-.01-.008-.006-.015Z"/><path fill="#41DA62" d="M4.68 5.38c0-.006.002-.01.008-.012l.134-.054.174-.071.008.018c-.08.03-.158.062-.237.093l-.084.032c-.004-.001-.005-.003-.003-.006Z"/><path fill="#ED4C5F" d="M2.86 7.13c.013-.028.029-.054.044-.08l.084-.149.032-.055c.003-.006.01-.012.004-.02.009-.004.013.002.017.008.002.008-.002.014-.006.02-.05.088-.098.178-.147.267-.004.007-.006.016-.016.015a.018.018 0 0 1-.011-.006Z"/><path fill="#AFD920" d="m4.635 4.712-.102.11-.038.04c-.032.036-.065.069-.098.103-.006-.001-.012-.001-.01-.01.035-.037.071-.074.105-.113l.05-.053c.026-.03.055-.058.08-.089l.013.012Z"/><path fill="#ED4C60" d="M2.871 7.137c.017-.014.022-.035.033-.053l.125-.227c.004-.007.009-.014.01-.022.007-.002.01.001.011.007l-.111.21-.045.084c-.002.003-.003.007-.007.009a.04.04 0 0 1-.016-.009Z"/><path fill="#C25ADC" d="M3.88 7.297c-.007 0-.008-.006-.009-.012l-.058-.314c-.001-.004-.001-.008.002-.012.003-.006.008-.009.015-.004v.003c-.003.005-.002.01-.001.016l.058.299.006.021c-.004.003-.008.003-.013.003Z"/><path fill="#C25ADC" d="M3.893 7.293c-.01-.001-.008-.01-.009-.015-.016-.08-.03-.161-.048-.242l-.011-.065c-.002-.005-.004-.013.005-.015l.027.121.04.2c.002.007.003.013.01.013-.004.003-.009.003-.014.003Z"/><path fill="#DF52B4" d="M3.44 7.315c.004 0 .01-.002.014.002-.005 0-.01.002-.015-.002Z"/></g><defs><clipPath id="a"><path fill="#fff" d="M2.087 4.307h15.906v3.087H2.087z"/></clipPath></defs></svg>