<?xml version="1.0" encoding="utf-8"?>
<svg xmlns="http://www.w3.org/2000/svg">
  <symbol id="icon-star-dynamic" viewBox="0 0 22 22">
    <!-- full star -->
    <path
      d="M11.0418 2.19068C11.3405 1.26977 12.6556 1.26977 12.9544 2.19068L15.0869 9H21.998C22.9684 9 23.3684 9.97367 22.5863 10.5428L16.9857 14.6188L19.1191 21.1958C19.4171 22.1146 18.3532 22.8737 17.5682 22.3024L11.9981 18.2486L6.42795 22.3024C5.64292 22.8737 4.57902 22.1146 4.87705 21.1958L7.01047 14.6188L1.40983 10.5428C0.627778 9.97367 1.04044 9 2.0108 9H8.92191L11.0418 2.19068Z"
      fill="var(--color-star-rating-full, #ccc)"
    />
    <!-- full star/half star clipped -->
    <path
      d="M11.0418 2.19068C11.3405 1.26977 12.6556 1.26977 12.9544 2.19068L15.0869 9H21.998C22.9684 9 23.3684 9.97367 22.5863 10.5428L16.9857 14.6188L19.1191 21.1958C19.4171 22.1146 18.3532 22.8737 17.5682 22.3024L11.9981 18.2486L6.42795 22.3024C5.64292 22.8737 4.57902 22.1146 4.87705 21.1958L7.01047 14.6188L1.40983 10.5428C0.627778 9.97367 1.04044 9 2.0108 9H8.92191L11.0418 2.19068Z"
      fill="var(--color-star-rating-half, transparent)"
      clip-path="polygon(0 0, 50% 0, 50% 100%, 0 100%)"
    />
  </symbol>
  <symbol viewBox="0 0 22 22" id="icon-star-full">
    <path
      d="M11.0418 2.19068C11.3405 1.26977 12.6556 1.26977 12.9544 2.19068L15.0869 9H21.998C22.9684 9 23.3684 9.97367 22.5863 10.5428L16.9857 14.6188L19.1191 21.1958C19.4171 22.1146 18.3532 22.8737 17.5682 22.3024L11.9981 18.2486L6.42795 22.3024C5.64292 22.8737 4.57902 22.1146 4.87705 21.1958L7.01047 14.6188L1.40983 10.5428C0.627778 9.97367 1.04044 9 2.0108 9H8.92191L11.0418 2.19068Z"
    />
  </symbol>
  <symbol viewBox="0 0 22 22" id="icon-star-empty">
    <path
      d="M11.0418 2.19068C11.3405 1.26977 12.6556 1.26977 12.9544 2.19068L15.0869 9H21.998C22.9684 9 23.3684 9.97367 22.5863 10.5428L16.9857 14.6188L19.1191 21.1958C19.4171 22.1146 18.3532 22.8737 17.5682 22.3024L11.9981 18.2486L6.42795 22.3024C5.64292 22.8737 4.57902 22.1146 4.87705 21.1958L7.01047 14.6188L1.40983 10.5428C0.627778 9.97367 1.04044 9 2.0108 9H8.92191L11.0418 2.19068Z"
    />
  </symbol>
  <symbol id="icon-star-half" viewBox="0 0 22 22">
    <path
      d="M11.0438 2.19068C11.3425 1.26977 12.6576 1.26977 12.9563 2.19068L15.0889 9H22C22.9704 9 23.3703 9.97367 22.5883 10.5428L16.9876 14.6188L19.1211 21.1958C19.4191 22.1146 18.3552 22.8737 17.5702 22.3024L12 18.2486L6.42991 22.3024C5.64488 22.8737 4.58098 22.1146 4.879 21.1958L7.01242 14.6188L1.41178 10.5428C0.629732 9.97367 1.04239 9 2.01275 9H8.92386L11.0438 2.19068Z"
      style="filter: opacity(0.25)"
    />
    <path
      d="M6.42993 22.3024L12.0001 18.2486V1.5C11.5966 1.5 11.1931 1.73023 11.0438 2.19068L8.92388 9H2.01277C1.04241 9 0.62975 9.97367 1.4118 10.5428L7.01244 14.6188L4.87902 21.1958C4.581 22.1146 5.6449 22.8737 6.42993 22.3024Z"
    />
  </symbol>
  <symbol id="icon-star-undefined" viewBox="0 0 22 22">
    <path
      d="M13.6195 11L12.0029 5.83823L10.3959 11H5.43885L9.36259 13.8556L7.73255 18.8808L12.0001 15.775L16.2676 18.8808L14.6375 13.8556L18.5613 11H13.6195ZM22 9C22.9704 9 23.3704 9.97367 22.5883 10.5428L16.9877 14.6188L19.1211 21.1958C19.4191 22.1146 18.3552 22.8737 17.5702 22.3024L12.0001 18.2486L6.42993 22.3024C5.6449 22.8737 4.581 22.1146 4.87902 21.1958L7.01244 14.6188L1.4118 10.5428C0.62975 9.97367 1.04241 9 2.01277 9H8.92388L11.0438 2.19068C11.3425 1.26977 12.6576 1.26977 12.9563 2.19068L15.0889 9H22ZM18.747 20.6853L18.7458 20.6844L18.747 20.6853Z"
    />
  </symbol>
  <symbol viewBox="0 0 24 24" id="icon-thumbs-down">
    <path
      fill-rule="evenodd"
      d="M17.237 15C15.178 16.037 12 17.817 12 22a1 1 0 0 1-1 1h-.117c-.908.002-2.18.003-3.188-.668C6.533 21.557 6 20.132 6 18c0-.622.148-1.466.342-2.242.063-.251.134-.507.21-.758H4c-.61 0-1.167-.106-1.642-.37a2.37 2.37 0 0 1-1.018-1.116c-.192-.423-.27-.875-.305-1.283C1 11.831 1 11.406 1 11.023V11c0-1.145.407-3.523 1.261-5.626.43-1.058 1-2.116 1.745-2.926C4.76 1.63 5.757 1 7 1h5c.71 0 1.487.254 2.176.55.713.305 1.443.705 2.089 1.093A30.646 30.646 0 0 1 18.326 4H22a1 1 0 0 1 1 1v9a1 1 0 0 1-1 1h-4.763Zm-7.185 5.98c-.553-.031-.947-.112-1.247-.312C8.467 20.443 8 19.868 8 18c0-.378.102-1.034.283-1.757.177-.708.402-1.372.604-1.78a.992.992 0 0 0 .105-.587A1 1 0 0 0 7.981 13H4c-.39 0-.583-.07-.67-.118a.376.376 0 0 1-.17-.196c-.058-.127-.106-.324-.133-.63A12.58 12.58 0 0 1 3 11c0-.855.343-2.977 1.114-4.874.383-.942.844-1.759 1.364-2.324C5.99 3.245 6.493 3 7 3h5.007c.292.002.762.122 1.38.388.6.257 1.245.607 1.849.97A28.676 28.676 0 0 1 17 5.51V13a.995.995 0 0 0-.466.115l-.035.018c-1.86.93-5.942 2.97-6.447 7.848ZM21 13V6h-2v7h2Z"
      clip-rule="evenodd"
    />
  </symbol>
  <symbol viewBox="0 0 24 24" id="icon-thumbs-down-selected">
    <path
      d="M19 5h2a1 1 0 0 1 1 1v7a1 1 0 0 1-1 1h-2V5Zm-2-.703C15.682 3.41 13.372 2 12 2H7c-3.5 0-5 7-5 9 0 1.6 0 3 2 3h4c-.5 1-1 3-1 4 0 3.666 1.68 3.972 3.5 3.998a.518.518 0 0 0 .514-.498c.255-4.619 4.027-6.52 5.965-7.49a.1.1 0 0 1 .021-.007V4.297Z"
    />
  </symbol>
  <symbol viewBox="0 0 24 24" id="icon-thumbs-up">
    <path
      fill-rule="evenodd"
      d="M6.763 9C8.822 7.963 12 6.184 12 2a1 1 0 0 1 1-1h.117c.908-.001 2.18-.003 3.188.668C17.467 2.443 18 3.868 18 6c0 .623-.148 1.466-.342 2.243-.063.25-.134.506-.21.757H20c.61 0 1.167.106 1.642.37.492.273.817.673 1.018 1.116.192.423.27.876.305 1.283.035.4.035.825.035 1.209V13c0 1.146-.407 3.523-1.261 5.627-.43 1.057-1 2.116-1.745 2.925C19.24 22.37 18.243 23 17 23h-5c-.71 0-1.487-.254-2.176-.55a17.887 17.887 0 0 1-2.089-1.092A30.666 30.666 0 0 1 5.674 20H2a1 1 0 0 1-1-1v-9a1 1 0 0 1 1-1h4.763Zm7.185-5.98c.553.031.947.112 1.247.312.338.225.805.8.805 2.668 0 .378-.102 1.034-.283 1.758-.177.707-.402 1.37-.604 1.78a.993.993 0 0 0-.105.586 1 1 0 0 0 1.01.876H20c.39 0 .583.07.67.118.071.04.121.09.17.196.058.127.106.325.133.63.026.304.027.646.027 1.056 0 .855-.343 2.977-1.114 4.874-.383.942-.844 1.759-1.364 2.324-.513.557-1.015.802-1.522.802h-5.007c-.292-.002-.762-.122-1.38-.388-.6-.256-1.245-.607-1.849-.97A28.677 28.677 0 0 1 7 18.49V11a.995.995 0 0 0 .466-.114l.035-.018c1.86-.93 5.942-2.97 6.447-7.848ZM5 11v7H3v-7h2Z"
      clip-rule="evenodd"
    />
  </symbol>
  <symbol viewBox="0 0 24 24" id="icon-thumbs-up-selected">
    <path
      d="M5 19H3a1 1 0 0 1-1-1v-7a1 1 0 0 1 1-1h2v9Zm2 .703C8.318 20.59 10.628 22 12 22h5c3.5 0 5-7 5-9 0-1.6 0-3-2-3h-4c.5-1 1-3 1-4 0-3.666-1.68-3.972-3.5-3.998a.518.518 0 0 0-.514.498c-.255 4.618-4.027 6.52-5.965 7.49A.097.097 0 0 1 7 9.996v9.706Z"
    />
  </symbol>

  <symbol viewBox="0 0 22 22" id="icon-star-full-small">
    <path
      d="M11.0418 2.19068C11.3405 1.26977 12.6556 1.26977 12.9544 2.19068L15.0869 9H21.998C22.9684 9 23.3684 9.97367 22.5863 10.5428L16.9857 14.6188L19.1191 21.1958C19.4171 22.1146 18.3532 22.8737 17.5682 22.3024L11.9981 18.2486L6.42795 22.3024C5.64292 22.8737 4.57902 22.1146 4.87705 21.1958L7.01047 14.6188L1.40983 10.5428C0.627778 9.97367 1.04044 9 2.0108 9H8.92191L11.0418 2.19068Z"
    />
  </symbol>
  <symbol id="icon-star-empty-small" viewBox="0 0 22 22">
    <path
      d="M11.0438 2.19068C11.3425 1.26977 12.6576 1.26977 12.9563 2.19068L15.0889 9H22C22.9704 9 23.3703 9.97367 22.5883 10.5428L16.9876 14.6188L19.1211 21.1958C19.4191 22.1146 18.3552 22.8737 17.5702 22.3024L12 18.2486L6.42991 22.3024C5.64488 22.8737 4.58098 22.1146 4.879 21.1958L7.01242 14.6188L1.41178 10.5428C0.629732 9.97367 1.04239 9 2.01275 9H8.92386L11.0438 2.19068Z"
    />
  </symbol>
  <symbol id="icon-star-half-small" viewBox="0 0 22 22">
    <path
      d="M11.0438 2.19068C11.3425 1.26977 12.6576 1.26977 12.9563 2.19068L15.0889 9H22C22.9704 9 23.3703 9.97367 22.5883 10.5428L16.9876 14.6188L19.1211 21.1958C19.4191 22.1146 18.3552 22.8737 17.5702 22.3024L12 18.2486L6.42991 22.3024C5.64488 22.8737 4.58098 22.1146 4.879 21.1958L7.01242 14.6188L1.41178 10.5428C0.629732 9.97367 1.04239 9 2.01275 9H8.92386L11.0438 2.19068Z"
      style="filter: opacity(0.25)"
    />
    <path
      d="M6.42993 22.3024L12.0001 18.2486V1.5C11.5966 1.5 11.1931 1.73023 11.0438 2.19068L8.92388 9H2.01277C1.04241 9 0.62975 9.97367 1.4118 10.5428L7.01244 14.6188L4.87902 21.1958C4.581 22.1146 5.6449 22.8737 6.42993 22.3024Z"
    />
  </symbol>
  <symbol id="icon-star-undefined-small" viewBox="0 0 22 22">
    <path
      d="M13.6195 11L12.0029 5.83823L10.3959 11H5.43885L9.36259 13.8556L7.73255 18.8808L12.0001 15.775L16.2676 18.8808L14.6375 13.8556L18.5613 11H13.6195ZM22 9C22.9704 9 23.3704 9.97367 22.5883 10.5428L16.9877 14.6188L19.1211 21.1958C19.4191 22.1146 18.3552 22.8737 17.5702 22.3024L12.0001 18.2486L6.42993 22.3024C5.6449 22.8737 4.581 22.1146 4.87902 21.1958L7.01244 14.6188L1.4118 10.5428C0.62975 9.97367 1.04241 9 2.01277 9H8.92388L11.0438 2.19068C11.3425 1.26977 12.6576 1.26977 12.9563 2.19068L15.0889 9H22ZM18.747 20.6853L18.7458 20.6844L18.747 20.6853Z"
    />
  </symbol>
  <symbol viewBox="0 0 16 16" id="icon-thumbs-down-selected-small">
    <path
      d="M4 12.01c0 1.87.874 2.867 2.623 2.989a.476.476 0 0 0 .482-.35c.93-3.17 1.481-3.71 3.876-5.627a.068.068 0 0 1 .042-.015H14a1 1 0 0 0 1-1.001V4.002a1 1 0 0 0-1-1h-2.98a.054.054 0 0 1-.034-.01C10.771 2.84 8.151 1 7 1H4C1.9 1 1 6.004 1 7.205c0 .96 0 1.802 1.2 1.802H5c-.333.667-1 2.001-1 3.002Z"
    />
  </symbol>
  <symbol viewBox="0 0 16 16" id="icon-thumbs-down-small">
    <path
      fill-rule="evenodd"
      d="M4.043 14.957c.749.749 1.789 1.04 2.934 1.043a1 1 0 0 0 .991-.748c.495-1.728.833-2.583 1.292-3.245.43-.622 1-1.128 2.092-2.007H15a1.012 1.012 0 0 0 .5-.134A1.004 1.004 0 0 0 16 9V3a1 1 0 0 0-1-1h-3.687a25.46 25.46 0 0 0-1.356-.862A13.63 13.63 0 0 0 8.53.395C8.08.2 7.52 0 7 0H4c-.964 0-1.673.58-2.144 1.186-.475.61-.828 1.388-1.088 2.135C.25 4.808 0 6.47 0 7.201v.02c0 .225 0 .495.023.753.023.265.075.587.217.9.151.334.401.643.78.854.363.201.77.272 1.18.272h1.248l-.006.016C3.222 10.59 3 11.312 3 12c0 1.154.29 2.204 1.043 2.957Zm1.187-6.93A.993.993 0 0 0 4.98 8H2.2a1.08 1.08 0 0 1-.157-.01c-.01-.04-.02-.1-.028-.191A7.205 7.205 0 0 1 2 7.2c0-.47.2-1.908.657-3.221.227-.653.493-1.2.777-1.564C3.723 2.045 3.914 2 4 2h3.005c.086.002.323.054.728.23.379.164.803.392 1.21.632a22.403 22.403 0 0 1 1.45.933l.016.012c.165.12.369.193.59.193H14v4h-2.99a.996.996 0 0 0-.636.22c-1.228.983-2.099 1.695-2.759 2.648-.559.808-.938 1.744-1.343 3.067-.399-.081-.652-.229-.815-.392C5.211 13.297 5 12.846 5 12c0-.312.112-.756.308-1.266.186-.482.41-.935.577-1.269a1.002 1.002 0 0 0-.655-1.439Z"
      clip-rule="evenodd"
    />
  </symbol>
  <symbol viewBox="0 0 16 16" id="icon-thumbs-up-selected-small">
    <path
      d="M12 3.99c0-1.87-.874-2.867-2.623-2.989a.476.476 0 0 0-.482.35c-.93 3.17-1.481 3.71-3.876 5.627a.068.068 0 0 1-.042.015H2a1 1 0 0 0-1 1.001v4.004a1 1 0 0 0 1 1h2.98c.013 0 .024.003.034.01C5.229 13.16 7.849 15 9 15h3c2.1 0 3-5.004 3-6.205 0-.96 0-1.802-1.2-1.802H11c.333-.667 1-2.001 1-3.002Z"
    />
  </symbol>
  <symbol viewBox="0 0 16 16" id="icon-thumbs-up-small">
    <path
      fill-rule="evenodd"
      d="M8.125.516a.994.994 0 0 0-.093.232c-.495 1.729-.833 2.583-1.292 3.246-.43.621-1 1.128-2.092 2.006H1a1.01 1.01 0 0 0-.5.134A1.004 1.004 0 0 0 0 7v6a1 1 0 0 0 1 1h3.687a24.973 24.973 0 0 0 1.356.862c.442.26.944.533 1.427.743C7.92 15.8 8.48 16 9 16h3c.964 0 1.672-.58 2.144-1.185.475-.61.828-1.389 1.088-2.136C15.75 11.192 16 9.531 16 8.8v-.02c0-.226 0-.496-.023-.753a2.75 2.75 0 0 0-.217-.9 1.822 1.822 0 0 0-.78-.855c-.363-.2-.77-.272-1.18-.272h-1.248l.006-.016C12.778 5.411 13 4.688 13 4c0-1.154-.29-2.203-1.043-2.957C11.21.295 10.168.004 9.023 0a.993.993 0 0 0-.643.215.995.995 0 0 0-.255.3ZM11.02 8h2.78c.072 0 .123.005.157.01.01.04.02.1.028.191.014.162.015.349.015.6 0 .469-.2 1.907-.657 3.22-.227.653-.493 1.2-.777 1.565-.289.37-.48.414-.566.414H8.995c-.086-.002-.323-.053-.728-.23a11.416 11.416 0 0 1-1.21-.632 22.37 22.37 0 0 1-1.45-.933l-.016-.011a.996.996 0 0 0-.59-.194H2V8h2.99a.996.996 0 0 0 .509-.133l.018-.01c.038-.024.074-.05.11-.077 1.227-.982 2.098-1.695 2.758-2.648.559-.807.938-1.744 1.343-3.067.399.082.652.23.815.392.246.247.457.697.457 1.543 0 .312-.112.756-.308 1.266-.186.483-.41.935-.578 1.27a.997.997 0 0 0 .035.99A1.001 1.001 0 0 0 11.02 8Z"
      clip-rule="evenodd"
    />
  </symbol>
</svg>
