<?xml version="1.0" encoding="utf-8"?>
<svg xmlns="http://www.w3.org/2000/svg">
    <symbol viewBox="0 0 24 20" id="icon-camera">
        <path d="M24 4v15a1 1 0 01-1 1H1a1 1 0 01-1-1V4a.998.998 0 011-1h5.279L7.051.684A1 1 0 018 0h8a1 1 0 01.949.684L17.721 3H23a.999.999 0 011 1zM2 5v13h20V5h-5a1 1 0 01-.949-.684L15.279 2H8.721l-.772 2.316A1 1 0 017 5H2zm10 1a5 5 0 105 5 5.006 5.006 0 00-5-5zm0 8a3 3 0 110-6 3 3 0 010 6z"></path>
    </symbol>
    <symbol viewBox="0 0 16 22" id="icon-mic">
        <path d="M13.01 9c0 2.761-2.235 5-4.992 5a4.997 4.997 0 01-4.992-5V5c0-2.761 2.236-5 4.992-5a4.997 4.997 0 014.993 5v4zm-4.992 3a2.998 2.998 0 002.996-3V5c0-1.657-1.341-3-2.996-3a2.998 2.998 0 00-2.995 3v4c0 1.657 1.34 3 2.995 3zm6.787.021a1.001 1.001 0 011.031 1.529 8.987 8.987 0 01-6.82 4.39V20h1.998a1 1 0 010 2H5.023a1 1 0 010-2H7.02v-2.06A8.985 8.985 0 01.2 13.56a1.001 1.001 0 01.751-1.6.998.998 0 01.907.49A6.987 6.987 0 008.018 16a6.987 6.987 0 006.15-3.55c.148-.222.376-.376.637-.429z"></path>
    </symbol>
    <symbol viewBox="0 0 14 22" id="icon-mobile">
        <path fill-rule="evenodd" d="M11 0a3 3 0 013 3v16a3 3 0 01-3 3H3a3 3 0 01-3-3V3a3 3 0 013-3zm1 16H2v3a1 1 0 00.883.993L3 20h8a1 1 0 001-1v-3zm-4 1a1 1 0 010 2H6a1 1 0 010-2h2zm4-12H2v9h10V5zm-1-3H3a1 1 0 00-1 1h10a1 1 0 00-1-1z"></path>
    </symbol>
    <symbol viewBox="0 0 22 22" id="icon-mobile-signal">
        <path fill-rule="evenodd" d="M11 0a3 3 0 013 3v16a3 3 0 01-3 3H3a3 3 0 01-3-3V3a3 3 0 013-3zm1 16H2v3a1 1 0 00.883.993L3 20h8a1 1 0 001-1v-3zm-4 1a1 1 0 010 2H6a1 1 0 010-2h2zm4-12H2v9h10V5zm7.613-3.79A5.991 5.991 0 0122 6a5.991 5.991 0 01-2.384 4.788 1 1 0 11-1.206-1.595A3.992 3.992 0 0020 6a3.992 3.992 0 00-1.592-3.194 1 1 0 111.205-1.596zM16.71 3.294C17.54 4.13 18 4.957 18 6c0 1.044-.459 1.871-1.292 2.706a1 1 0 01-1.416-1.412C15.787 6.797 16 6.414 16 6c0-.413-.213-.797-.709-1.294a1 1 0 011.418-1.412zM11 2H3a1 1 0 00-1 1h10a1 1 0 00-1-1z"></path>
    </symbol>
    <symbol id="icon-print" viewBox="0 0 24 24">
        <path d="M17 9a1 1 0 100 2h3a1 1 0 100-2h-3z" />
        <path d="M5 2.222C5 .995 5.995 0 7.222 0h9.556C18.005 0 19 .995 19 2.222V6h2.778C23.005 6 24 6.995 24 8.222v8.556A2.222 2.222 0 0121.778 19H19v2.778A2.222 2.222 0 0116.778 24H7.222A2.222 2.222 0 015 21.778V19H2.222A2.222 2.222 0 010 16.777V8.223C0 6.995.995 6 2.222 6H5V2.222zM5 17v-3H4a1 1 0 110-2h16a1 1 0 110 2h-1v3h2.778c.123 0 .222-.1.222-.223V8.223C22 8.1 21.9 8 21.778 8H2.222C2.1 8 2 8.1 2 8.222v8.556c0 .122.1.222.222.222H5zm2 4.778c0 .123.1.222.222.222h9.556c.123 0 .222-.1.222-.222V14H7v7.778zM17 2.222C17 2.1 16.9 2 16.778 2H7.222C7.1 2 7 2.1 7 2.222V6h10V2.222z" />
    </symbol>
    <symbol id="icon-security-key" viewBox="0 0 24 24">
        <path d="M8 5V1.2A1.2 1.2 0 019.2 0h5.6A1.2 1.2 0 0116 1.2V5h.8A1.2 1.2 0 0118 6.2V19a5 5 0 01-5 5h-2a5 5 0 01-5-5V6.2A1.2 1.2 0 017.2 5H8zm2 0h4V2h-4v3zM8 7v12a3 3 0 003 3h2a3 3 0 003-3V7H8z" />
        <path d="M12 12a1 1 0 100 2 1 1 0 000-2zm-3 1a3 3 0 116 0 3 3 0 01-6 0z" />
    </symbol>

    </symbol>
        <symbol viewBox="0 0 16 14" id="icon-camera-small">
        <path d="M10 0a1 1 0 01.895.553L11.618 2H15a1 1 0 011 1v10a1 1 0 01-1 1H1a1 1 0 01-1-1V3a1 1 0 011-1h3.382L5.105.553A1 1 0 016 0zm-.618 2H6.618l-.723 1.447A1 1 0 015 4H2v8h12V4h-3a1 1 0 01-.895-.553L9.382 2zM8 5a3 3 0 110 6 3 3 0 010-6zm0 2a1 1 0 100 2 1 1 0 000-2z"></path>
    </symbol>
    <symbol viewBox="0 0 12 16" id="icon-mic-small">
        <path d="M1.01 7.954c.367.005.701.21.871.536a4.657 4.657 0 004.125 2.5c1.731 0 3.32-.963 4.124-2.5a.998.998 0 011.367-.36 1 1 0 01.369 1.37 6.723 6.723 0 01-4.858 3.42V15c0 .552-.446 1-.997 1a.999.999 0 01-.998-1v-2.08A6.723 6.723 0 01.156 9.49a1.002 1.002 0 01.855-1.536zM6.01 0a2.996 2.996 0 012.993 3v3c0 1.657-1.34 3-2.992 3a2.996 2.996 0 01-2.993-3V3c0-1.657 1.34-3 2.993-3zm0 2a.999.999 0 00-.997 1v3a.999.999 0 101.995 0V3c0-.552-.446-1-.997-1z"></path>
    </symbol>


</svg>