<?xml version="1.0" encoding="utf-8"?>
<svg xmlns="http://www.w3.org/2000/svg">
    <symbol viewBox="0 0 8 14" id="icon-breadcrumb">
        <path d="M1.005 14a1 1 0 01-.71-1.71l5.296-5.288L.296 1.714A1.004 1.004 0 011.714.294L7.71 6.292a1 1 0 010 1.41L1.714 13.7a.999.999 0 01-.709.3z"></path>
    </symbol>
    <symbol id="icon-radio-checked" viewBox="0 0 18 18">
        <path d="M9 0a9 9 0 110 18A9 9 0 019 0zm0 1a8 8 0 100 16A8 8 0 009 1zm0 3a5 5 0 110 10A5 5 0 019 4z"></path>
    </symbol>
    <symbol id="icon-radio-checked-large" viewBox="0 0 24 24">
        <path fill-rule="evenodd" d="M12 0C5.373 0 0 5.372 0 12c0 6.627 5.373 12 12 12s12-5.373 12-12c0-6.628-5.373-12-12-12m0 1c6.066 0 11 4.935 11 11s-4.934 11-11 11S1 18.065 1 12 5.934 1 12 1zm0 4a7 7 0 100 14 7 7 0 000-14z"></path>
    </symbol>
    <symbol id="icon-radio-unchecked" viewBox="0 0 18 18">
        <path d="M9 18A9 9 0 119 0a9 9 0 010 18zM9 1a8 8 0 100 16A8 8 0 009 1z"></path>
    </symbol>
    <symbol id="icon-radio-unchecked-large" viewBox="0 0 24 24">
        <path d="M12 0C5.373 0 0 5.372 0 12c0 6.627 5.373 12 12 12s12-5.373 12-12c0-6.628-5.373-12-12-12m0 1c6.066 0 11 4.935 11 11s-4.934 11-11 11S1 18.065 1 12 5.934 1 12 1"></path>
    </symbol>
    <symbol viewBox="0 0 24 24" id="icon-stepper-confirmation">
        <path d="M0 12C0 5.373 5.373 0 12 0c3.183 0 6.235 1.264 8.485 3.515A11.996 11.996 0 0124 12c0 6.627-5.373 12-12 12S0 18.627 0 12zm10.71 4.71l8-8h-.01a1 1 0 00-1.41-1.41L10 14.59 6.71 11.3a1 1 0 00-1.41 1.41l4 4a1 1 0 001.41 0z"></path>
    </symbol>
    <symbol viewBox="0 0 24 24" id="icon-stepper-information">
        <path d="M0 12C0 5.373 5.373 0 12 0c6.625.006 11.994 5.375 12 12 0 6.627-5.373 12-12 12S0 18.627 0 12zm2 0c0 5.523 4.477 10 10 10 5.52-.006 9.994-4.48 10-10 0-5.523-4.477-10-10-10S2 6.477 2 12zm10-2a1 1 0 011 1v6a1 1 0 01-2 0v-6a1 1 0 011-1zm1-3a1 1 0 11-2 0 1 1 0 012 0z"></path>
    </symbol>
    <symbol viewBox="0 0 24 24" id="icon-stepper-attention">
        <path d="M0 12C0 5.373 5.373 0 12 0c6.625.006 11.994 5.375 12 12 0 6.627-5.373 12-12 12S0 18.627 0 12zm2 0c0 5.523 4.477 10 10 10 5.52-.006 9.994-4.48 10-10 0-5.523-4.477-10-10-10S2 6.477 2 12zm10-6a1 1 0 011 1v6a1 1 0 01-2 0V7a1 1 0 011-1zm1 11a1 1 0 11-2 0 1 1 0 012 0z"></path>
    </symbol>
    <symbol id="icon-eek-range-arrow" viewBox="0 0 5 6">
        <path fill-rule="evenodd" clip-rule="evenodd" d="M2.32203 0.108736L1.0202 2.6473C0.951945 2.78038 1.04859 2.93856 1.19816 2.93856H1.95692V5.99786H3.04303V2.93856H3.80182C3.95139 2.93856 4.04804 2.78038 3.97979 2.6473L2.67796 0.108736C2.60361 -0.0362453 2.39638 -0.0362455 2.32203 0.108736Z" fill="black"/>
    </symbol>
    <symbol  id="icon-eek-arrow" viewBox="0 0 11 28">
        <path d="M0 27.75H1.13239C1.76009 27.75 2.35161 27.4145 2.73099 26.8434L10.342 15.3851C10.886 14.5662 10.886 13.4338 10.342 12.6149L2.73099 1.15661C2.35161 0.585476 1.76009 0.25 1.13239 0.25H3.09944e-06" stroke="black" stroke-width="1"/>
    </symbol>
    <symbol id="icon-spinner" viewBox="0 0 24 24" fill="none">
        <path fill-rule="evenodd" clip-rule="evenodd" d="M12 2C10.0222 2 8.08879 2.58649 6.4443 3.6853C4.79981 4.78412 3.51809 6.3459 2.76121 8.17317C2.00433 10.0004 1.8063 12.0111 2.19215 13.9509C2.578 15.8907 3.53041 17.6725 4.92894 19.0711C6.32746 20.4696 8.10929 21.422 10.0491 21.8079C11.9889 22.1937 13.9996 21.9957 15.8268 21.2388C17.6541 20.4819 19.2159 19.2002 20.3147 17.5557C21.4135 15.9112 22 13.9778 22 12C22 11.4477 22.4477 11 23 11C23.5523 11 24 11.4477 24 12C24 14.3734 23.2962 16.6935 21.9776 18.6668C20.6591 20.6402 18.7849 22.1783 16.5922 23.0866C14.3995 23.9948 11.9867 24.2324 9.65892 23.7694C7.33115 23.3064 5.19295 22.1635 3.51472 20.4853C1.83649 18.8071 0.693605 16.6689 0.230582 14.3411C-0.232441 12.0133 0.00519943 9.60051 0.913451 7.4078C1.8217 5.21509 3.35977 3.34094 5.33316 2.02236C7.30655 0.703788 9.62663 0 12 0C12.5523 0 13 0.447715 13 1C13 1.55228 12.5523 2 12 2Z" fill="var(--color-spinner-icon-foreground, #E5E5E5)"/>
        <path fill-rule="evenodd" clip-rule="evenodd" d="M14.1805 1.17194C14.3381 0.642616 14.895 0.341274 15.4243 0.498872C17.3476 1.07149 19.0965 2.11729 20.5111 3.54055C21.9257 4.96382 22.9609 6.71912 23.5217 8.64584C23.6761 9.17611 23.3714 9.73112 22.8411 9.88549C22.3108 10.0399 21.7558 9.73512 21.6015 9.20485C21.134 7.59925 20.2715 6.13651 19.0926 4.95045C17.9138 3.76439 16.4563 2.8929 14.8536 2.41572C14.3243 2.25812 14.0229 1.70126 14.1805 1.17194Z" fill="var(--color-spinner-icon-background, #3665F3)"/>
    </symbol>
    <symbol id="icon-spinner-large" viewBox="0 0 40 40">
        <path fill-rule="evenodd" clip-rule="evenodd" d="M20 3C16.6377 3 13.351 3.99703 10.5553 5.86502C7.75968 7.733 5.58075 10.388 4.29406 13.4944C3.00737 16.6007 2.67071 20.0189 3.32666 23.3165C3.98261 26.6142 5.6017 29.6433 7.97919 32.0208C10.3567 34.3983 13.3858 36.0174 16.6835 36.6734C19.9812 37.3293 23.3993 36.9926 26.5056 35.706C29.612 34.4193 32.267 32.2403 34.135 29.4447C36.003 26.6491 37 23.3623 37 20C37 19.1716 37.6716 18.5 38.5 18.5C39.3284 18.5 40 19.1716 40 20C40 23.9556 38.827 27.8224 36.6294 31.1114C34.4318 34.4004 31.3082 36.9638 27.6537 38.4776C23.9992 39.9913 19.9778 40.3874 16.0982 39.6157C12.2186 38.844 8.65492 36.9392 5.85787 34.1421C3.06082 31.3451 1.15601 27.7814 0.384303 23.9018C-0.387401 20.0222 0.00866568 16.0009 1.52242 12.3463C3.03617 8.69181 5.59962 5.56824 8.8886 3.37061C12.1776 1.17298 16.0444 0 20 0C20.8284 0 21.5 0.671573 21.5 1.5C21.5 2.32843 20.8284 3 20 3Z" fill="var(--color-spinner-icon-foreground, #E5E5E5)"/>
        <path fill-rule="evenodd" clip-rule="evenodd" d="M23.3386 1.74203C23.553 0.941827 24.3755 0.466954 25.1757 0.681366C28.5668 1.59001 31.659 3.37528 34.1415 5.85775C36.6239 8.34021 38.4092 11.4324 39.3179 14.8235C39.5323 15.6237 39.0574 16.4462 38.2572 16.6606C37.457 16.875 36.6345 16.4002 36.4201 15.6C35.6477 12.7175 34.1302 10.0892 32.0201 7.97907C29.9101 5.86897 27.2817 4.35149 24.3993 3.57914C23.5991 3.36473 23.1242 2.54223 23.3386 1.74203Z" fill="var(--color-spinner-icon-background, #3665F3)"/>
   </symbol>
    <symbol id="icon-checkbox-checked-large" viewBox="0 0 24 24">
        <path fill-rule="evenodd" clip-rule="evenodd" d="M4 0C1.79086 0 0 1.79086 0 4V20C0 22.2091 1.79086 24 4 24H20C22.2091 24 24 22.2091 24 20V4C24 1.79086 22.2091 0 20 0H4ZM10.71 16.71C10.32 17.098 9.69 17.098 9.3 16.71L5.3 12.71C4.96 12.313 4.983 11.722 5.352 11.352C5.722 10.983 6.313 10.96 6.71 11.3L10 14.59L17.29 7.3C17.687 6.96 18.278 6.983 18.648 7.352C19.017 7.722 19.04 8.313 18.7 8.71H18.71L10.71 16.71Z"/>
    </symbol>
    <symbol id="icon-checkbox-checked" viewBox="0 0 18 18">
        <path d="M0 6.4C0 4.15979 0 3.03969 0.435974 2.18404C0.819467 1.43139 1.43139 0.819467 2.18404 0.435974C3.03969 0 4.15979 0 6.4 0H11.6C13.8402 0 14.9603 0 15.816 0.435974C16.5686 0.819467 17.1805 1.43139 17.564 2.18404C18 3.03969 18 4.15979 18 6.4V11.6C18 13.8402 18 14.9603 17.564 15.816C17.1805 16.5686 16.5686 17.1805 15.816 17.564C14.9603 18 13.8402 18 11.6 18H6.4C4.15979 18 3.03969 18 2.18404 17.564C1.43139 17.1805 0.819467 16.5686 0.435974 15.816C0 14.9603 0 13.8402 0 11.6V6.4ZM14.71 4.29C14.32 3.90228 13.69 3.90228 13.3 4.29L7 10.59L4.71 8.29C4.31788 7.89788 3.68212 7.89788 3.29 8.29C2.89788 8.68212 2.89788 9.31788 3.29 9.71L6.29 12.71C6.68004 13.0977 7.30996 13.0977 7.7 12.71L14.7 5.71C14.8906 5.52357 14.9989 5.26872 15.0008 5.00208C15.0027 4.73544 14.898 4.4791 14.71 4.29Z"/>
    </symbol>
    <symbol id="icon-checkbox-unchecked-large" viewBox="0 0 24 24">
        <path d="M17.6 1C18.7366 1 19.5289 1.00078 20.1458 1.05118C20.7509 1.10062 21.0986 1.19279 21.362 1.32698C21.9265 1.6146 22.3854 2.07354 22.673 2.63803C22.8072 2.90138 22.8994 3.24907 22.9488 3.85424C22.9992 4.47108 23 5.26339 23 6.4V17.6C23 18.7366 22.9992 19.5289 22.9488 20.1458C22.8994 20.7509 22.8072 21.0986 22.673 21.362C22.3854 21.9265 21.9265 22.3854 21.362 22.673C21.0986 22.8072 20.7509 22.8994 20.1458 22.9488C19.5289 22.9992 18.7366 23 17.6 23H6.4C5.26339 23 4.47108 22.9992 3.85424 22.9488C3.24907 22.8994 2.90138 22.8072 2.63803 22.673C2.07354 22.3854 1.6146 21.9265 1.32698 21.362C1.19279 21.0986 1.10062 20.7509 1.05118 20.1458C1.00078 19.5289 1 18.7366 1 17.6V6.4C1 5.26339 1.00078 4.47108 1.05118 3.85424C1.10062 3.24907 1.19279 2.90138 1.32698 2.63803C1.6146 2.07354 2.07354 1.6146 2.63803 1.32698C2.90138 1.19279 3.24907 1.10062 3.85424 1.05118C4.47108 1.00078 5.26339 1 6.4 1H17.6ZM0.435974 2.18404C0 3.03969 0 4.15979 0 6.4V17.6C0 19.8402 0 20.9603 0.435974 21.816C0.819467 22.5686 1.43139 23.1805 2.18404 23.564C3.03969 24 4.15979 24 6.4 24H17.6C19.8402 24 20.9603 24 21.816 23.564C22.5686 23.1805 23.1805 22.5686 23.564 21.816C24 20.9603 24 19.8402 24 17.6V6.4C24 4.15979 24 3.03969 23.564 2.18404C23.1805 1.43139 22.5686 0.819467 21.816 0.435974C20.9603 0 19.8402 0 17.6 0H6.4C4.15979 0 3.03969 0 2.18404 0.435974C1.43139 0.819467 0.819467 1.43139 0.435974 2.18404Z"/>
    </symbol>
    <symbol id="icon-checkbox-unchecked" viewBox="0 0 18 18">
        <path d="M6.4 17H11.6C12.7366 17 13.5289 16.9992 14.1458 16.9488C14.7509 16.8994 15.0986 16.8072 15.362 16.673C15.9265 16.3854 16.3854 15.9265 16.673 15.362C16.8072 15.0986 16.8994 14.7509 16.9488 14.1458C16.9992 13.5289 17 12.7366 17 11.6V6.4C17 5.26339 16.9992 4.47108 16.9488 3.85424C16.8994 3.24907 16.8072 2.90138 16.673 2.63803C16.3854 2.07354 15.9265 1.6146 15.362 1.32698C15.0986 1.19279 14.7509 1.10062 14.1458 1.05118C13.5289 1.00078 12.7366 1 11.6 1H6.4C5.26339 1 4.47108 1.00078 3.85424 1.05118C3.24907 1.10062 2.90138 1.19279 2.63803 1.32698C2.07354 1.6146 1.6146 2.07354 1.32698 2.63803C1.19279 2.90138 1.10062 3.24907 1.05118 3.85424C1.00078 4.47108 1 5.26339 1 6.4V11.6C1 12.7366 1.00078 13.5289 1.05118 14.1458C1.10062 14.7509 1.19279 15.0986 1.32698 15.362C1.6146 15.9265 2.07354 16.3854 2.63803 16.673C2.90138 16.8072 3.24907 16.8994 3.85424 16.9488C4.47108 16.9992 5.26339 17 6.4 17ZM0.435974 15.816C0 14.9603 0 13.8402 0 11.6V6.4C0 4.15979 0 3.03969 0.435974 2.18404C0.819467 1.43139 1.43139 0.819467 2.18404 0.435974C3.03969 0 4.15979 0 6.4 0H11.6C13.8402 0 14.9603 0 15.816 0.435974C16.5686 0.819467 17.1805 1.43139 17.564 2.18404C18 3.03969 18 4.15979 18 6.4V11.6C18 13.8402 18 14.9603 17.564 15.816C17.1805 16.5686 16.5686 17.1805 15.816 17.564C14.9603 18 13.8402 18 11.6 18H6.4C4.15979 18 3.03969 18 2.18404 17.564C1.43139 17.1805 0.819467 16.5686 0.435974 15.816Z" />
    </symbol>
    <symbol id="icon-checkbox-mixed" viewBox="0 0 18 18">
        <rect width="18" height="18" rx="4" />
        <rect x="4" y="8" width="10" height="2" fill="var(--color-checkbox-mixed-foreground, #ffffff)"/>
    </symbol>
    <symbol id="icon-checkbox-mixed-large" viewBox="0 0 24 24">
        <rect width="24" height="24" rx="4" />
        <rect x="4" y="11" width="16" height="2" rx="1" fill="var(--color-checkbox-mixed-foreground, #ffffff)"/>
    </symbol>
    <symbol id="icon-checkbox-square-checked" viewBox="0 0 18 18">
        <path d="M0 0h18v18H0V0zm14.71 4.29a1 1 0 00-1.41 0L7 10.59l-2.29-2.3a1.004 1.004 0 00-1.42 1.42l3 3a1 1 0 001.41 0l7-7a1 1 0 00.01-1.42z"></path>
    </symbol>
    <symbol id="icon-checkbox-square-checked-large" viewBox="0 0 24 24">
        <path fill-rule="evenodd" d="M0 0h24v24H0V0zm9.3 16.71a1 1 0 001.41 0l8-8h-.01a1 1 0 00-1.41-1.41L10 14.59 6.71 11.3a1 1 0 00-1.41 1.41l4 4z"></path>
    </symbol>
    <symbol id="icon-checkbox-square-unchecked" viewBox="0 0 18 18">
        <path d="M18 0v18H0V0h18zm-1 1H1v16h16V1z"></path>
    </symbol>
    <symbol id="icon-checkbox-square-unchecked-large" viewBox="0 0 24 24">
        <path d="M24 0v24H0V0h24zm-1 1H1v22h22V1z"></path>
    </symbol>
    <symbol id="icon-circle" viewBox="0 0 24 24">
        <path d="M0 12c0 6.627 5.373 12 12 12 3.183 0 6.235-1.264 8.485-3.515A11.996 11.996 0 0024 12c0-6.627-5.373-12-12-12S0 5.373 0 12zm2 0a10.001 10.001 0 1119.999.002A10.001 10.001 0 012 12z"/>
    </symbol>
</svg>