<svg xmlns="http://www.w3.org/2000/svg" width="50" height="32" fill="none" viewBox="0 0 50 32"><rect width="50" height="32" fill="#006FCF" rx="2"/><path fill="#fff" d="M25 4h23.684v24H25z"/><path fill="#006FCF" fill-rule="evenodd" d="m46.46 20.719 2.224 2.398V18.34l-2.224 2.38Zm-.68 4.124h2.904l-3.841-4.128 3.841-4.081h-2.858l-2.372 2.627-2.35-2.627H38.2l3.819 4.105-3.82 4.104h2.825l2.384-2.65 2.372 2.65Zm-12.267-1.9v-1.278h4.57v-1.853h-4.57v-1.278H38.2v-1.9h-6.898v8.21H38.2v-1.9h-4.687Zm.751-10.983h-2.199l1.1-2.686 1.1 2.686Zm12.233 3.483h2.187v-8.21h-3.402l-1.817 5.114-1.806-5.113H38.2v8.209h2.187V9.697l2.084 5.746h1.944l2.083-5.758v5.758Zm-10.786 0h2.488l-3.576-8.21h-2.847l-3.576 8.21h2.43l.672-1.642h3.726l.683 1.642Zm12.973 15.224v-4.648h-3.492l-1.798-2.015-1.807 2.015H30.073v-9.39h-3.717l4.61-10.571h4.446l1.587 3.622V6.058H42.5l.956 2.73.962-2.73h4.265V1.333H19.737v29.334h28.947Z" clip-rule="evenodd"/></svg>