<svg xmlns="http://www.w3.org/2000/svg" width="50" height="32" fill="none" viewBox="0 0 50 32"><rect width="49" height="31" x=".5" y=".5" fill="#fff" stroke="#000" rx="1.5"/><path fill="#747474" d="M32.254 14.016c-.168 1.181-1.01 1.181-1.823 1.181h-.464l.325-2.205a.262.262 0 0 1 .252-.232h.212c.555 0 1.079 0 1.348.339.162.202.212.502.15.917Zm-.354-3.082h-3.07a.437.437 0 0 0-.422.386l-1.242 8.439c-.024.166.096.317.253.317h1.575a.305.305 0 0 0 .295-.27l.352-2.393a.437.437 0 0 1 .422-.386h.971c2.023 0 3.19-1.048 3.495-3.128.137-.909.006-1.624-.392-2.124-.436-.55-1.21-.84-2.237-.84Z"/><path fill="#2B2B2B" d="M27.009 13.979H25.53a.42.42 0 0 0-.353.2l-2.038 3.218-.865-3.092a.43.43 0 0 0-.408-.326h-1.453c-.175 0-.299.185-.243.362l1.628 5.12-1.53 2.314c-.12.182.001.433.209.433h1.477a.42.42 0 0 0 .35-.197l4.915-7.602c.117-.182-.004-.43-.21-.43Z"/><path fill="#747474" d="M39.028 17.046c-.142.9-.809 1.504-1.66 1.504-.426 0-.767-.147-.987-.425-.217-.276-.3-.669-.23-1.107.133-.892.81-1.516 1.647-1.516.418 0 .757.148.98.43.226.283.315.678.25 1.114Zm2.049-3.067h-1.47a.262.262 0 0 0-.252.231l-.065.44-.103-.16c-.319-.495-1.028-.66-1.736-.66-1.625 0-3.013 1.32-3.283 3.17-.14.923.06 1.805.548 2.42.448.567 1.089.802 1.851.802a2.746 2.746 0 0 0 2.036-.902l-.066.439c-.025.166.096.317.253.317h1.324c.21 0 .389-.164.421-.385l.795-5.395c.024-.167-.096-.317-.253-.317Z"/><path fill="#2B2B2B" d="M10.354 14.016c-.167 1.181-1.01 1.181-1.823 1.181h-.464l.325-2.205a.262.262 0 0 1 .253-.232h.212c.555 0 1.078 0 1.348.338.161.203.21.503.15.918ZM10 10.934H6.93a.437.437 0 0 0-.422.386l-1.242 8.44c-.024.166.096.317.253.317h1.466c.21 0 .389-.164.422-.386l.335-2.277a.437.437 0 0 1 .421-.386h.972c2.022 0 3.19-1.048 3.495-3.128.137-.909.005-1.624-.392-2.124-.437-.55-1.21-.84-2.238-.84Zm7.128 6.112c-.142.9-.808 1.504-1.659 1.504-.427 0-.768-.147-.987-.425-.218-.276-.3-.669-.23-1.107.132-.892.81-1.516 1.647-1.516.418 0 .757.148.98.43.225.283.314.678.25 1.114Zm2.049-3.067h-1.47a.262.262 0 0 0-.253.231l-.064.44-.103-.16c-.318-.495-1.028-.66-1.737-.66-1.624 0-3.011 1.32-3.282 3.17-.14.923.06 1.805.548 2.42.448.567 1.089.802 1.851.802 1.31 0 2.036-.902 2.036-.902l-.066.439c-.024.166.096.317.253.317h1.324c.21 0 .389-.164.422-.385l.794-5.395c.024-.167-.096-.317-.253-.317Z"/><path fill="#747474" d="m42.81 11.165-1.26 8.593c-.025.167.095.317.252.317h1.268c.21 0 .388-.163.421-.385l1.243-8.44c.024-.166-.096-.316-.253-.316h-1.419a.263.263 0 0 0-.252.232Z"/></svg>