<svg xmlns="http://www.w3.org/2000/svg" width="38" height="24" fill="none" viewBox="0 0 38 24"><g clip-path="url(#a)"><rect width="37" height="23" x=".5" y=".5" fill="#fff" stroke="#000" rx="1.5"/><path fill="#0066CB" d="M18.975 16.892a6.862 6.862 0 0 0 0-10.296 7.104 7.104 0 0 0-4.74-1.796c-3.912 0-7.075 3.108-7.075 6.944 0 3.837 3.163 6.945 7.074 6.945a7.104 7.104 0 0 0 4.741-1.797Z"/><path fill="#0066CB" d="M18.975 16.893a6.87 6.87 0 0 0 2.323-5.149 6.861 6.861 0 0 0-2.323-5.147"/><path stroke="#0066CB" stroke-width=".31" d="M18.975 16.893a6.87 6.87 0 0 0 2.323-5.149 6.861 6.861 0 0 0-2.323-5.147"/><path fill="#CC0001" d="M23.726 4.8a7.115 7.115 0 0 0-5.466 2.533h1.43c.2.232.38.478.536.734h-2.502a8.672 8.672 0 0 0-.41.735h3.322c.115.239.21.484.294.736h-3.91c-.087.24-.157.485-.21.735h4.331c.106.474.159.966.159 1.47a6.67 6.67 0 0 1-.369 2.205h-3.91c.085.253.179.498.294.736h3.322c-.12.254-.258.5-.41.735h-2.502c.158.258.347.502.536.735h1.43a7.779 7.779 0 0 1-.716.736 7.119 7.119 0 0 0 4.75 1.798c3.9 0 7.065-3.108 7.065-6.945 0-3.834-3.163-6.943-7.064-6.943Z"/><path fill="#231F20" d="M29.844 15.679a.29.29 0 0 1 .292-.287.29.29 0 0 1 .292.287.29.29 0 0 1-.292.287.29.29 0 0 1-.292-.287Zm.292.219a.225.225 0 0 0 .226-.22.225.225 0 0 0-.226-.218.214.214 0 0 0-.212.219c0 .122.093.219.212.219Zm-.04-.092h-.053v-.254h.107c.027 0 .04 0 .066.012a.096.096 0 0 1 .026.064c0 .028-.014.055-.04.065l.04.111h-.066l-.027-.1h-.054v.102Z"/><path fill="#fff" d="M28.352 13.313a.29.29 0 0 1 .292-.286.29.29 0 0 1 .292.286.291.291 0 0 1-.584 0Zm.291.219a.21.21 0 0 0 .152-.065.216.216 0 0 0 .06-.154.214.214 0 0 0-.212-.218.226.226 0 0 0-.225.218c0 .122.107.219.226.219Zm-.039-.092h-.052v-.254h.106a.15.15 0 0 1 .066.015.094.094 0 0 1 .027.063c0 .028-.013.055-.039.065l.04.11h-.067l-.04-.099h-.04v.1Z"/><path fill="#231F20" d="M19.47 11.72c0 .362.2.61.672.797.357.145.42.187.42.316 0 .18-.158.26-.515.26-.262 0-.515-.035-.799-.114l-.115.661.032.006.168.03c.241.028.484.044.726.049.936 0 1.367-.304 1.367-.956 0-.392-.18-.623-.62-.797-.38-.146-.423-.177-.423-.311 0-.156.147-.234.43-.234.18 0 .422.018.642.044l.127-.663a7.047 7.047 0 0 0-.778-.056c-.999-.003-1.346.438-1.335.967Zm-6.34 1.957h-.893l.525-2.708-1.208 2.708h-.736l-.147-2.691-.59 2.691h-.809l.684-3.52h1.398l.02 2.179.967-2.18h1.483l-.694 3.521Zm2.85 0h-.737l.021-.297c-.231.235-.525.347-.925.347-.483 0-.81-.318-.81-.782 0-.699.569-1.104 1.546-1.104.106 0 .232.007.357.022a.543.543 0 0 0 .042-.186c0-.19-.158-.261-.568-.261a3.31 3.31 0 0 0-.736.08l-.115.03-.085.019.127-.643c.441-.11.725-.153 1.05-.153.758 0 1.158.291 1.158.84 0 .141-.011.25-.074.568l-.211 1.197-.02.145-.022.101.002.077Zm-.6-1.275a1.65 1.65 0 0 0-.2-.013c-.495 0-.746.147-.746.435 0 .178.126.292.315.292.357.002.62-.292.63-.714Zm3.49 1.214c-.296.078-.6.117-.905.116-.987 0-1.492-.44-1.492-1.282 0-.984.65-1.707 1.534-1.707.725 0 1.188.405 1.188 1.04 0 .212-.032.417-.116.707h-1.744c-.011.043-.011.063-.011.09 0 .332.262.501.778.501.315 0 .6-.054.915-.18l-.148.715Zm-.431-1.706c0-.06.011-.108.011-.145 0-.233-.158-.37-.42-.37-.284 0-.484.183-.558.514l.967.001Zm9.818.47c-.127.952-.81 1.373-1.714 1.373-.988 0-1.387-.592-1.387-1.319 0-1.016.673-1.702 1.725-1.702.913 0 1.398.566 1.398 1.292-.001.176-.001.189-.022.355Zm-.894-.344c0-.3-.127-.583-.483-.583-.452 0-.726.522-.726.982 0 .388.19.65.505.643.189 0 .598-.255.672-.701.022-.1.032-.216.032-.34Zm-4.404 1.607a2.36 2.36 0 0 1-.63.093c-.452 0-.695-.221-.695-.63 0-.08 0-.166.021-.256l.053-.281.042-.227.41-2.187h.871l-.126.658h.451l-.126.695h-.451l-.23 1.197c-.012.054-.012.092-.012.118 0 .148.085.213.294.213a.836.836 0 0 0 .242-.027l-.114.634Z"/><path fill="#fff" d="M23.18 13.44a2.36 2.36 0 0 1-.63.093c-.452 0-.695-.223-.695-.63 0-.08.011-.166.021-.257l.053-.28.042-.228.41-2.186h.871l-.126.658h.451l-.126.696H23l-.23 1.195c-.012.052-.012.092-.012.118 0 .148.095.212.304.212a.821.821 0 0 0 .232-.028l-.114.637Z"/><path fill="#231F20" d="m25.44 11.432-.021-.09.179-.449c-.043-.003-.064-.005-.064-.008-.053-.01-.074-.015-.085-.015a.334.334 0 0 0-.083-.008c-.294 0-.494.126-.768.464l.095-.51h-.916l-.536 2.86h.872c.116-.656.169-1.03.242-1.34.115-.515.504-.749.789-.697.032.007.053.007.094.022l.053.02.148-.25Z"/><path fill="#fff" d="M25.745 10.634c-.074-.029-.085-.029-.095-.032-.042-.01-.073-.014-.073-.017a.759.759 0 0 0-.095-.007c-.283 0-.494.127-.767.466l.084-.435h-.798l-.536 2.863h.883c.315-1.75.451-2.058.872-2.058a.87.87 0 0 1 .105.008l.106.021.314-.81Zm-6.055.882c0 .36.21.61.683.799.357.143.41.185.41.315 0 .178-.158.259-.504.259-.27 0-.539-.038-.799-.113l-.126.66.042.006.158.029c.24.028.483.045.725.05.946 0 1.378-.303 1.378-.955 0-.394-.18-.623-.631-.797-.368-.146-.41-.178-.41-.312 0-.155.148-.233.43-.233.18 0 .41.015.642.043l.127-.663a7.054 7.054 0 0 0-.789-.056c-.99-.001-1.336.439-1.336.968Zm-6.34 1.957h-.882l.526-2.706-1.21 2.706h-.798l-.147-2.689-.525 2.69h-.8l.683-3.522h1.378l.062 2.181.978-2.18h1.43l-.694 3.52Zm2.86 0h-.736l.021-.296c-.22.236-.525.346-.925.346-.473 0-.798-.318-.798-.782 0-.697.567-1.104 1.545-1.104.095 0 .221.009.357.022.021-.094.032-.134.032-.186 0-.19-.158-.26-.568-.26-.253 0-.536.03-.725.078l-.126.031-.074.02.116-.646a4.069 4.069 0 0 1 1.05-.15c.758 0 1.158.29 1.158.839 0 .14-.012.248-.063.567l-.19 1.018-.032.181-.021.146-.011.098-.01.078Zm-.64-1.273a1.63 1.63 0 0 0-.2-.011c-.495 0-.746.147-.746.435 0 .178.115.292.315.292.358 0 .61-.293.63-.716Zm3.52 1.212a3.494 3.494 0 0 1-.894.116c-.987 0-1.503-.44-1.503-1.283 0-.982.652-1.706 1.535-1.706.725 0 1.187.405 1.187 1.04 0 .21-.031.417-.105.707h-1.744c-.01.045-.01.065-.01.09 0 .333.262.502.768.502.315 0 .6-.056.913-.182l-.147.716Zm-.462-1.703v-.147c0-.232-.147-.368-.41-.368-.283 0-.483.182-.568.514l.978.001Zm9.86.468c-.138.952-.81 1.375-1.714 1.375-.998 0-1.398-.595-1.398-1.32 0-1.015.683-1.703 1.734-1.703.914 0 1.399.566 1.399 1.292.005.12-.003.238-.021.356Zm-.914-.367c0-.3-.127-.582-.484-.582-.45 0-.724.522-.724.982 0 .39.188.65.504.644.189 0 .598-.254.672-.7.02-.107.032-.22.032-.344Z"/></g><defs><clipPath id="a"><path fill="#fff" d="M0 0h38v24H0z"/></clipPath></defs></svg>