<svg xmlns="http://www.w3.org/2000/svg" width="30" height="18" fill="none" viewBox="0 0 30 18"><g clip-path="url(#a)"><rect width="29" height="17" x=".5" y=".5" fill="#fff" stroke="#000" rx="1.5"/><path fill="#191919" d="M20.742 5.547h-2.87a1.723 1.723 0 0 0 0-2.366 1.762 1.762 0 0 0-2.435 0c-.16.163-.297.346-.408.546-.11-.2-.248-.383-.408-.546a1.762 1.762 0 0 0-2.434 0 1.722 1.722 0 0 0-.057 2.366H9.258a.574.574 0 0 0-.575.574v2.297c0 .317.258.574.575.574h.574v5.741c0 .317.257.575.574.575h9.187a.574.574 0 0 0 .574-.575V8.992h.574a.574.574 0 0 0 .574-.574V6.12a.574.574 0 0 0-.574-.574ZM16.218 3.99a.575.575 0 0 1 .81.81 3.34 3.34 0 0 1-1.454.746 3.193 3.193 0 0 1 .644-1.556Zm-3.25 0a.574.574 0 0 1 .81 0c.352.45.576.988.648 1.556a3.325 3.325 0 0 1-1.458-.74.574.574 0 0 1 .005-.816h-.005Zm6.051 10.168h-3.445V8.992h3.445v5.167Zm-4.593 0h-3.445V8.992h3.445v5.167Zm5.742-6.316H9.833V6.695h10.335v1.148Z"/></g><defs><clipPath id="a"><path fill="#fff" d="M0 0h30v18H0z"/></clipPath></defs></svg>