<svg xmlns="http://www.w3.org/2000/svg" width="50" height="32" fill="none" viewBox="0 0 50 32"><rect width="49" height="31" x=".5" y=".5" fill="#fff" stroke="#000" rx="1.5"/><path fill="#000" d="m46.69 13.741-1.35-.775-1.368-.784c-.905-.52-2.028.137-2.028 1.185v.174c0 .1.054.182.136.237l.634.364c.172.1.398-.027.398-.227v-.42c0-.21.227-.337.399-.237l1.25.72 1.24.72a.268.268 0 0 1 0 .466l-1.24.72-1.25.72a.267.267 0 0 1-.399-.236v-.21c0-1.049-1.132-1.705-2.028-1.186l-1.368.785-1.35.775a1.374 1.374 0 0 0 0 2.371l1.35.775 1.368.785c.905.52 2.028-.137 2.028-1.186v-.173c0-.1-.054-.183-.136-.237l-.634-.365a.268.268 0 0 0-.398.228v.42c0 .21-.227.337-.399.237l-1.25-.721-1.24-.72a.267.267 0 0 1 0-.466l1.24-.72 1.25-.72c.182-.1.399.027.399.237v.21c0 1.048 1.132 1.705 2.028 1.185l1.368-.784 1.35-.776a1.374 1.374 0 0 0 0-2.37Zm-8.84.256-3.16 6.566h-1.313l1.186-2.453-1.856-4.113h1.34l1.196 2.754 1.303-2.754h1.304Zm-20.684 1.915c-.081-.602-.57-.967-1.15-.967-.57 0-1.041.356-1.168.967h2.318Zm-2.318.73c.082.693.57 1.085 1.196 1.085a1.25 1.25 0 0 0 1.095-.602h1.196c-.281.985-1.16 1.623-2.31 1.623-1.394 0-2.381-.985-2.381-2.398 0-1.405 1.032-2.426 2.409-2.426 1.376 0 2.381 1.021 2.381 2.426 0 .1-.009.2-.027.3h-3.559v-.008Zm16.247-.311c0-.784-.562-1.331-1.26-1.331-.697 0-1.258.556-1.258 1.331 0 .767.561 1.332 1.259 1.332.697 0 1.259-.547 1.259-1.332Zm.018 2.326v-.602a1.85 1.85 0 0 1-1.458.684c-1.268 0-2.228-1.021-2.228-2.408 0-1.367.996-2.416 2.255-2.416a1.83 1.83 0 0 1 1.43.675v-.584h1.142v4.66l-1.141-.009Zm-10.994-4.204s.29-.538.996-.538c.308 0 .498.11.498.11v1.185s-.425-.265-.824-.21c-.39.055-.643.42-.643.903v2.754H18.97v-4.66h1.14l.01.456ZM6.308 16.331c0-.784-.561-1.331-1.258-1.331-.698 0-1.26.556-1.26 1.331 0 .767.562 1.332 1.26 1.332.697 0 1.258-.547 1.258-1.332Zm.01 2.326v-.602a1.85 1.85 0 0 1-1.459.684c-1.267 0-2.227-1.021-2.227-2.408 0-1.367.996-2.416 2.255-2.416a1.83 1.83 0 0 1 1.43.675v-.584h1.141v4.66l-1.14-.009Zm19.515-2.326c0-.756-.561-1.331-1.259-1.331-.697 0-1.258.556-1.258 1.331 0 .767.561 1.332 1.258 1.332.689 0 1.26-.575 1.26-1.332Zm-3.667 4.232v-6.566h1.14v.602a1.83 1.83 0 0 1 1.459-.693c1.25 0 2.227 1.03 2.227 2.407 0 1.368-.996 2.417-2.255 2.417-.58 0-1.068-.237-1.394-.62v2.453h-1.177Zm-9.183-2.937c-.399 0-.508-.146-.508-.538v-2.07h.734v-1.021h-.733v-1.131h-1.169v1.14H9.804v-.465c0-.393.145-.539.552-.539h.254V12.1h-.561c-.96 0-1.413.319-1.413 1.286v.62h-.652v1.012h.652v3.648h1.168v-3.648h1.503v2.28c0 .948.362 1.359 1.304 1.359h.598v-1.03h-.226Z"/></svg>