<svg xmlns="http://www.w3.org/2000/svg" width="30" height="18" fill="none" viewBox="0 0 30 18"><rect width="29" height="17" x=".5" y=".5" fill="#fff" stroke="#000" rx="1.5"/><path fill="#191919" d="M20.082 10.694h-3.388c-.339 0-.565-.226-.565-.564 0-.34.226-.565.565-.565h3.388v1.13Zm-9.6 2.824c-.338 0-.564-.226-.564-.565V6.63c.17.056.395.113.565.113h9.6v1.694h-3.389c-.96 0-1.694.734-1.694 1.694s.734 1.694 1.694 1.694h3.388v1.694h-9.6Zm8.47-7.906h-8.47c-.338 0-.564-.226-.564-.564 0-.34.226-.565.565-.565h8.47v1.13Zm1.13-1.694c0-.339-.226-.564-.565-.564h-9.034c-.96 0-1.694.734-1.694 1.694v7.905c0 .96.734 1.694 1.694 1.694h10.164c.339 0 .565-.226.565-.565V6.177c0-.339-.226-.565-.565-.565h-.565V3.918Z"/></svg>