<svg xmlns="http://www.w3.org/2000/svg" width="20" height="12" fill="none" viewBox="0 0 20 12"><rect width="20" height="12" fill="#006FCF" rx="2"/><path fill="#fff" d="M10 1.5h9.474v9H10z"/><path fill="#006FCF" fill-rule="evenodd" d="m18.584 7.77.89.899V6.878l-.89.891Zm-.272 1.546h1.162l-1.537-1.548 1.537-1.53H18.33l-.95.985-.94-.985h-1.16l1.528 1.539-1.528 1.54h1.13l.953-.995.949.994Zm-4.907-.712v-.48h1.829V7.43h-1.829v-.48h1.875v-.712h-2.76v3.078h2.76v-.712h-1.875Zm.3-4.12h-.879l.44-1.006.44 1.007ZM18.6 5.792h.875V2.713h-1.361l-.727 1.917-.722-1.917H15.28V5.79h.875V3.636l.833 2.155h.777l.834-2.16v2.16Zm-4.315 0h.996l-1.43-3.078h-1.14L11.28 5.79h.972l.269-.616h1.49l.273.616Zm5.19 5.709V9.757h-1.397l-.72-.755-.722.755H12.03V6.236h-1.486l1.843-3.964h1.779L14.8 3.63V2.272h2.202l.382 1.023.384-1.023h1.707V.5H7.894v11h11.58Z" clip-rule="evenodd"/></svg>