<svg xmlns="http://www.w3.org/2000/svg" width="20" height="12" fill="none" viewBox="0 0 20 12"><rect width="19" height="11" x=".5" y=".5" fill="#fff" stroke="#000" rx="1.5"/><path fill="#0054A5" d="M3.234 8.568h.152v-.544h-.152v.544Zm7.422-.544h.162l.137.387.134-.387h.157l-.202.524-.037.096a.382.382 0 0 1-.038.073.16.16 0 0 1-.1.065.423.423 0 0 1-.164 0l-.013-.113a.352.352 0 0 0 .065.007c.035 0 .061-.01.078-.03a.205.205 0 0 0 .04-.076l-.219-.546Zm-3.188.544v-.081a.237.237 0 0 1-.294.07.146.146 0 0 1-.067-.067.289.289 0 0 1-.02-.12v-.346h.152v.25c0 .077.003.124.008.141a.077.077 0 0 0 .03.041c.016.01.034.016.057.016.026 0 .05-.007.07-.02a.104.104 0 0 0 .042-.051.554.554 0 0 0 .011-.147v-.23h.152v.544h-.14Zm9.929-.26a.994.994 0 0 1-.092.022.288.288 0 0 0-.082.025c-.02.014-.03.03-.03.051 0 .02.008.038.024.053a.085.085 0 0 0 .06.022.136.136 0 0 0 .078-.026.09.09 0 0 0 .036-.048.27.27 0 0 0 .006-.07v-.03Zm-.204-.118-.136-.024a.203.203 0 0 1 .08-.117.304.304 0 0 1 .168-.038.38.38 0 0 1 .151.023.148.148 0 0 1 .07.058c.014.023.02.066.02.13l-.001.168c0 .048.002.083.007.106a.302.302 0 0 0 .027.073h-.15a.461.461 0 0 1-.02-.059.248.248 0 0 1-.177.072.201.201 0 0 1-.14-.045.149.149 0 0 1-.051-.116.15.15 0 0 1 .023-.083.15.15 0 0 1 .065-.055.536.536 0 0 1 .12-.034.85.85 0 0 0 .148-.035v-.015c0-.028-.007-.048-.021-.06-.015-.012-.042-.018-.082-.018a.114.114 0 0 0-.064.016.105.105 0 0 0-.037.053Zm-.418.061a.14.14 0 0 0-.035-.097.107.107 0 0 0-.079-.033.108.108 0 0 0-.082.035.131.131 0 0 0-.032.095h.228Zm-.008.146.15.024a.237.237 0 0 1-.092.12.284.284 0 0 1-.158.041c-.1 0-.174-.03-.222-.093a.302.302 0 0 1-.057-.188c0-.09.025-.162.075-.213a.252.252 0 0 1 .189-.077c.085 0 .153.027.202.08.05.055.073.137.071.248h-.381a.141.141 0 0 0 .037.1.12.12 0 0 0 .088.036.098.098 0 0 0 .06-.019.113.113 0 0 0 .038-.059Zm-2.669.018.152-.022c.007.028.02.049.04.063.02.015.047.022.083.022a.161.161 0 0 0 .088-.02.046.046 0 0 0 .02-.04.037.037 0 0 0-.01-.027.126.126 0 0 0-.052-.019.855.855 0 0 1-.234-.07.139.139 0 0 1-.068-.123c0-.048.02-.087.059-.12.04-.032.1-.048.183-.048.08 0 .138.012.176.036a.19.19 0 0 1 .08.107l-.143.026a.084.084 0 0 0-.036-.05.136.136 0 0 0-.074-.016.174.174 0 0 0-.087.016.034.034 0 0 0-.017.03c0 .01.005.018.015.026.014.01.061.023.143.04a.437.437 0 0 1 .17.065.131.131 0 0 1 .047.108c0 .05-.022.093-.066.13-.043.035-.108.053-.194.053a.334.334 0 0 1-.186-.045.207.207 0 0 1-.09-.122m-1.362-.164a.144.144 0 0 0-.035-.097.107.107 0 0 0-.079-.033.108.108 0 0 0-.082.035.132.132 0 0 0-.033.095h.229Zm-.008.146.15.024a.237.237 0 0 1-.092.12.283.283 0 0 1-.158.041c-.1 0-.174-.03-.222-.093a.301.301 0 0 1-.057-.188c0-.09.025-.162.075-.213a.252.252 0 0 1 .189-.077c.085 0 .153.027.202.08.05.055.073.137.071.248h-.381a.141.141 0 0 0 .037.1.119.119 0 0 0 .088.036.098.098 0 0 0 .06-.019.112.112 0 0 0 .038-.059Zm-1.362-.373h.14V8.1a.229.229 0 0 1 .275-.067.17.17 0 0 1 .067.066.265.265 0 0 1 .081-.066.209.209 0 0 1 .094-.021.22.22 0 0 1 .107.024c.029.017.05.04.065.072a.3.3 0 0 1 .016.113v.349h-.152v-.312c0-.054-.006-.09-.016-.105-.014-.02-.036-.03-.065-.03a.107.107 0 0 0-.06.018.103.103 0 0 0-.04.054.371.371 0 0 0-.012.113v.262h-.153v-.3a.391.391 0 0 0-.008-.102.065.065 0 0 0-.025-.034.082.082 0 0 0-.046-.012.114.114 0 0 0-.063.018.1.1 0 0 0-.04.052.368.368 0 0 0-.012.113v.265h-.153v-.545Zm-.968.284a.982.982 0 0 1-.092.022.288.288 0 0 0-.082.025c-.02.014-.03.03-.03.051 0 .02.008.038.024.053a.085.085 0 0 0 .06.022.135.135 0 0 0 .078-.026.09.09 0 0 0 .036-.048.276.276 0 0 0 .006-.07v-.03Zm-.204-.118-.136-.024a.204.204 0 0 1 .08-.117.305.305 0 0 1 .168-.038.38.38 0 0 1 .151.023.149.149 0 0 1 .07.058c.014.023.02.066.02.13l-.001.168c0 .048.002.083.007.106a.299.299 0 0 0 .027.073h-.15a.495.495 0 0 1-.02-.059.248.248 0 0 1-.178.072.2.2 0 0 1-.14-.045.149.149 0 0 1-.05-.116.15.15 0 0 1 .023-.083.15.15 0 0 1 .065-.055.535.535 0 0 1 .12-.034.848.848 0 0 0 .148-.035v-.015c0-.028-.007-.048-.021-.06-.015-.012-.042-.018-.082-.018a.114.114 0 0 0-.064.016.105.105 0 0 0-.037.053Zm-1.813.107c0 .054.014.095.041.124a.13.13 0 0 0 .1.043c.04 0 .074-.014.1-.043.027-.029.04-.07.04-.125 0-.054-.013-.095-.04-.124a.131.131 0 0 0-.1-.043.132.132 0 0 0-.1.043c-.027.029-.04.07-.04.125Zm-.155-.008c0-.048.013-.095.038-.14a.25.25 0 0 1 .105-.103.325.325 0 0 1 .153-.035c.086 0 .158.027.213.08a.271.271 0 0 1 .083.204.275.275 0 0 1-.084.206.291.291 0 0 1-.211.081.347.347 0 0 1-.15-.034.24.24 0 0 1-.11-.1.319.319 0 0 1-.037-.16Zm-2.551-.038a.14.14 0 0 0-.035-.097.107.107 0 0 0-.079-.033.108.108 0 0 0-.082.035.131.131 0 0 0-.032.095h.228Zm-.008.146.15.024a.236.236 0 0 1-.092.12.283.283 0 0 1-.158.041c-.1 0-.174-.03-.222-.093a.302.302 0 0 1-.057-.188c0-.09.025-.162.075-.213a.252.252 0 0 1 .189-.077c.085 0 .153.027.202.08.05.055.074.137.071.248h-.381a.141.141 0 0 0 .037.1.12.12 0 0 0 .088.036.098.098 0 0 0 .06-.019.113.113 0 0 0 .038-.059Zm-1.261-.112c0 .058.012.1.035.127a.11.11 0 0 0 .086.04.122.122 0 0 0 .094-.04.184.184 0 0 0 .038-.124c0-.056-.012-.098-.037-.126a.118.118 0 0 0-.092-.04.113.113 0 0 0-.089.04c-.023.027-.035.068-.035.123Zm-.137.32.173.017c.003.02.01.035.02.042.014.011.037.017.068.017.04 0 .07-.006.09-.017a.07.07 0 0 0 .03-.037.209.209 0 0 0 .007-.066v-.08a.207.207 0 0 1-.17.088.214.214 0 0 1-.184-.093.305.305 0 0 1-.053-.183c0-.092.024-.161.07-.21a.23.23 0 0 1 .172-.072c.071 0 .13.03.176.089v-.076h.141v.49a.464.464 0 0 1-.016.144.177.177 0 0 1-.047.075.212.212 0 0 1-.081.043.447.447 0 0 1-.128.015c-.097 0-.166-.016-.207-.048a.147.147 0 0 1-.061-.12v-.018Zm11.847-.036h-.152v-.545h.141v.078a.245.245 0 0 1 .065-.073.121.121 0 0 1 .066-.018.2.2 0 0 1 .1.027l-.047.126a.14.14 0 0 0-.071-.023.088.088 0 0 0-.054.016.115.115 0 0 0-.035.06.804.804 0 0 0-.013.183v.169Zm-2.552 0h-.152V8.29a.414.414 0 0 0-.01-.114.081.081 0 0 0-.031-.04.093.093 0 0 0-.053-.015.125.125 0 0 0-.07.02.105.105 0 0 0-.043.055.456.456 0 0 0-.011.126v.247h-.153v-.545h.142v.08a.233.233 0 0 1 .188-.093c.034 0 .065.006.092.017a.153.153 0 0 1 .063.044.156.156 0 0 1 .03.06.428.428 0 0 1 .008.098v.339Zm-5.619 0h-.152v-.545h.14v.078a.245.245 0 0 1 .066-.073.122.122 0 0 1 .066-.018.2.2 0 0 1 .1.027l-.047.126a.14.14 0 0 0-.071-.023.088.088 0 0 0-.054.016.115.115 0 0 0-.035.06.813.813 0 0 0-.013.183v.169Zm-3.847 0h-.152V8.29a.413.413 0 0 0-.01-.114.08.08 0 0 0-.031-.04.093.093 0 0 0-.053-.015.125.125 0 0 0-.07.02.104.104 0 0 0-.043.055.451.451 0 0 0-.011.126v.247h-.153v-.545h.142v.08a.233.233 0 0 1 .189-.093c.033 0 .064.006.091.017a.154.154 0 0 1 .063.044.156.156 0 0 1 .03.06.43.43 0 0 1 .008.098v.339Zm9.915-.544v.115h-.103v.22c0 .045 0 .07.002.078a.032.032 0 0 0 .014.018.043.043 0 0 0 .025.007.198.198 0 0 0 .06-.014l.013.112a.312.312 0 0 1-.119.022.196.196 0 0 1-.074-.013.107.107 0 0 1-.048-.034.13.13 0 0 1-.02-.057.674.674 0 0 1-.006-.101V8.14h-.069v-.115h.07v-.11l.152-.084v.194h.103Zm1.548.248-.11-.28-.107.28h.217Zm.294.297h-.173l-.068-.17h-.319l-.065.17h-.17l.307-.752h.168l.32.752Zm-6.38-.625v.214h.087a.43.43 0 0 0 .126-.011.099.099 0 0 0 .068-.096.095.095 0 0 0-.026-.069.112.112 0 0 0-.064-.033.8.8 0 0 0-.114-.005h-.077Zm-.16.625v-.752h.256a.98.98 0 0 1 .19.011.208.208 0 0 1 .114.074c.03.037.045.086.045.146a.235.235 0 0 1-.026.117.21.21 0 0 1-.067.074.237.237 0 0 1-.083.035.96.96 0 0 1-.165.011h-.104v.284h-.16Zm-2.992 0v-.752h.586v.127h-.425v.167h.395v.126h-.395v.205h.44v.127h-.6Zm-1.331 0h.152v-.752h-.152v.752Zm-1.757-.619h.153v-.133h-.153v.133Zm-.81.371.156-.015c.01.05.028.086.057.11a.177.177 0 0 0 .116.035c.051 0 .09-.01.116-.031.026-.021.039-.045.039-.073a.067.067 0 0 0-.016-.046.133.133 0 0 0-.058-.032 2.12 2.12 0 0 0-.127-.033.443.443 0 0 1-.18-.074.191.191 0 0 1-.038-.258.212.212 0 0 1 .098-.076.415.415 0 0 1 .156-.026c.1 0 .174.02.224.062.05.041.077.097.08.166l-.16.006c-.008-.039-.022-.066-.045-.083-.022-.017-.056-.026-.101-.026a.19.19 0 0 0-.11.027.054.054 0 0 0-.024.047c0 .018.007.033.023.046.02.016.07.032.147.05a.795.795 0 0 1 .172.054.219.219 0 0 1 .088.076.217.217 0 0 1 .031.12.224.224 0 0 1-.145.205.469.469 0 0 1-.172.028.354.354 0 0 1-.23-.066.284.284 0 0 1-.097-.193"/><path fill="#FEC10E" d="M8.809 4.162c.46 0 .87.201 1.14.516l.24-.489a2.167 2.167 0 0 0-1.452-.545c-.878 0-1.63.504-1.938 1.217h-.468l-.277.563h.603a1.821 1.821 0 0 0 .003.35h-.303l-.277.563h.734c.317.695 1.059 1.184 1.923 1.184.436 0 .84-.124 1.175-.336v-.691c-.27.292-.664.476-1.103.476-.514 0-.966-.252-1.23-.633h1.537l.276-.563H7.354a1.356 1.356 0 0 1-.009-.35h2.219l.276-.563H7.537a1.484 1.484 0 0 1 1.272-.699"/><path fill="#0054A5" d="M5.787 4.863H4.75c0-.162-.02-.27-.06-.325-.061-.082-.232-.123-.51-.123-.271 0-.45.023-.538.07-.088.048-.131.15-.131.309 0 .143.038.237.116.283.056.032.13.05.221.056l.21.014c.448.028.727.048.84.06.354.034.61.123.77.268a.7.7 0 0 1 .224.444c.014.11.021.233.021.37 0 .317-.032.55-.096.696-.115.27-.374.44-.778.512a4.82 4.82 0 0 1-.775.045c-.581 0-.986-.033-1.214-.099-.28-.08-.466-.244-.555-.491-.05-.137-.075-.366-.075-.686h1.037v.082c0 .17.052.28.155.33a.635.635 0 0 0 .26.053h.38c.195 0 .32-.01.373-.029a.297.297 0 0 0 .188-.172.626.626 0 0 0 .023-.19c0-.172-.066-.278-.2-.316-.049-.015-.28-.035-.693-.062a8.742 8.742 0 0 1-.69-.065c-.34-.06-.566-.184-.679-.373-.1-.16-.149-.402-.149-.726 0-.246.027-.444.08-.593a.653.653 0 0 1 .26-.339c.175-.119.399-.188.67-.209a9.13 9.13 0 0 1 .755-.028c.435 0 .746.023.93.07.452.116.677.438.677.968 0 .044-.003.109-.01.196m4.148-.173a1.476 1.476 0 0 0-1.126-.51c-.505 0-.978.253-1.24.664h2.299l-.011.024-.277.563-.005.01H7.361a1.336 1.336 0 0 0 .008.316H9.42l-.011.024-.277.563-.005.01H7.613a1.47 1.47 0 0 0 1.196.599c.416 0 .814-.171 1.09-.47l.03-.034v.745l-.007.005a2.21 2.21 0 0 1-1.185.338c-.843 0-1.602-.464-1.935-1.183h-.749l.011-.024.277-.563.005-.01h.294a1.854 1.854 0 0 1-.002-.316h-.611l.011-.024.277-.563.005-.01h.468a1.99 1.99 0 0 1 .757-.873 2.206 2.206 0 0 1 1.192-.344c.55 0 1.069.195 1.464.55l.01.008-.006.011-.24.49-.013.024-.017-.02Zm-.123.188H7.507l.015-.026a1.51 1.51 0 0 1 1.287-.707c.44 0 .851.183 1.135.502l-.012.024.03-.003a1.538 1.538 0 0 0-.018-.02l.223-.455.01.008-.005-.02-.005.012a2.146 2.146 0 0 0-1.43-.532 2.17 2.17 0 0 0-1.172.338 1.955 1.955 0 0 0-.749.868l-.004.01h-.47l.005-.009-.016.01h.011l-.26.53h-.028l.017.023.011-.024h.595l-.002.019a1.797 1.797 0 0 0 .003.346l.002.019h-.312l.005-.01-.016.01h.011l-.26.53h-.027l.016.023.012-.024h.717l.004.01c.325.713 1.074 1.174 1.907 1.174.415 0 .815-.114 1.157-.328v.009l.008-.014-.008.005v-.638l.032-.033-.032-.011v.044a1.525 1.525 0 0 1-1.085.448c-.502 0-.967-.239-1.244-.64l-.018-.026h1.558l-.005.01.016-.01h-.011l.26-.53h.027l-.016-.023-.011.024H7.339l-.003-.015a1.383 1.383 0 0 1-.009-.353l.002-.016h2.224l-.005.01.016-.01h-.011l.26-.53Zm1.65.736h.694c.22-.008.355-.024.403-.049.066-.034.11-.103.132-.207a1.65 1.65 0 0 0 .021-.306c0-.167-.014-.29-.042-.37-.04-.114-.136-.182-.288-.207a2.374 2.374 0 0 0-.216-.006h-.704v1.145Zm-1.115 1.928V3.608h2.077c.284 0 .502.022.651.066.342.102.57.31.688.625.06.165.091.413.091.745 0 .4-.034.686-.1.86-.133.346-.407.545-.821.596a8.818 8.818 0 0 1-.622.02l-.185.007h-.664v1.015h-1.115Zm5.665-1.446L15.49 4.39l-.507 1.705h1.03Zm.221.766h-1.49l-.2.68H13.39l1.244-3.934h1.682l1.26 3.934h-1.13l-.213-.68Z"/></svg>