<svg xmlns="http://www.w3.org/2000/svg" width="38" height="24" fill="none" viewBox="0 0 38 24"><rect width="37" height="23" x=".5" y=".5" fill="#fff" stroke="#000" rx="1.5"/><g clip-path="url(#a)"><path fill="#252526" d="M35.911 10.872a1.058 1.058 0 0 0-.298-.04c-.298 0-.635.171-.777.46v-.433h-.687v3.044h.687v-1.622c0-.564.376-.796.764-.796.102-.002.205.008.304.032l.007-.641v-.004Zm-2.268 1.693c.017-.105.023-.212.02-.318 0-.849-.648-1.445-1.47-1.445a1.55 1.55 0 0 0-1.568 1.53v.038c0 .926.616 1.593 1.548 1.593.626 0 1.153-.298 1.374-.712l-.538-.298c-.143.233-.447.398-.79.398-.48 0-.817-.292-.888-.784l2.312-.002Zm-2.275-.525c.091-.402.39-.648.803-.648.414 0 .74.266.778.648h-1.581Zm-1.189.525a1.88 1.88 0 0 0 .02-.318c0-.849-.648-1.445-1.47-1.445a1.55 1.55 0 0 0-1.569 1.53v.038c0 .926.616 1.593 1.548 1.593.629 0 1.153-.298 1.373-.712l-.537-.298c-.142.233-.447.398-.79.398-.48 0-.817-.292-.888-.784l2.313-.002Zm-2.276-.525c.091-.402.39-.648.803-.648.415 0 .74.266.778.648h-1.58Zm-1.21.126c0-.848-.414-1.365-1.192-1.365-.408 0-.783.175-.99.455v-.398h-.694v3.045h.694v-1.65c0-.512.369-.836.809-.836.44 0 .674.298.674.803v1.685h.7v-1.739Zm-3.343.214c0-.9-.68-1.58-1.58-1.58a1.57 1.57 0 0 0-1.574 1.57v.024c0 .907.654 1.567 1.574 1.567a1.559 1.559 0 0 0 1.58-1.536v-.044Zm-2.467 0c0-.517.382-.934.887-.919.558.017.906.405.894.92-.012.515-.389.92-.894.92s-.887-.402-.887-.92Zm-1.444-1.521-.843 2.17-.751-2.17h-.784l1.127 3.044-.466 1.07h.745l1.716-4.114h-.744Zm-3.466 1.515a.943.943 0 0 1-.921.967h-.044c-.531 0-.887-.415-.887-.967a.968.968 0 0 1 .952-.959c.537 0 .9.415.9.959Zm0-1.516v.398c-.2-.265-.525-.455-1.01-.455-.842 0-1.542.745-1.542 1.62 0 .874.602 1.541 1.412 1.541.525 0 .92-.187 1.137-.498v.44h.68v-3.046h-.677Zm-5.085 3.046v-1.4h.602c1.12 0 1.794-.626 1.794-1.56 0-.882-.682-1.393-1.664-1.393h-1.457v4.353h.725Zm.7-3.706c.576 0 .967.266.967.83 0 .518-.434.829-1.005.829h-.662v-1.66h.7Z"/><path fill="#FED0BE" d="M2.405 11.685H2.4v-.106h.005a.115.115 0 0 1 0 .107Z"/><path fill="#FE4700" d="M2.405 11.685v-.107c.011-.207.03-.414.077-.617a3.238 3.238 0 0 1 .701-1.393 2.55 2.55 0 0 1 .313-.314c.03.002.043.028.058.046.11.134.23.259.34.392.022.028.045.054.07.08.009.008.02.016.014.031-.026.036-.061.065-.093.097a2.442 2.442 0 0 0-.72 1.432 2.237 2.237 0 0 0-.023.309 2.55 2.55 0 0 0 .267 1.122c.002.005.004.01.004.015-.002.018-.016.023-.028.03-.062.038-.127.068-.191.1-.13.069-.258.138-.389.202-.012.007-.026.021-.04.004-.052-.085-.089-.177-.126-.269a3.29 3.29 0 0 1-.234-1.16Z"/><path fill="#FD4A00" d="m3.978 9.798-.256-.289-.203-.234a.143.143 0 0 0-.023-.02A1.63 1.63 0 0 1 3.7 9.09c.017-.003.021.011.028.02l.335.46.053.073c.008.01.017.02.014.036-.016.027-.046.04-.07.061-.018.017-.04.033-.06.05-.006.004-.012.015-.023.008Z"/><path fill="#E1D401" d="M6.594 8.64c.074.019.144.048.213.08.008.013 0 .023-.004.033-.078.19-.16.38-.237.572-.009.024-.016.05-.04.065-.014.004-.026-.002-.039-.008a5.89 5.89 0 0 0-.106-.04c-.01-.003-.023-.005-.026-.019.064-.178.122-.359.18-.539.013-.04.026-.08.042-.12.004-.01.007-.02.017-.025Z"/><path fill="#07A1DA" d="M8.435 13.05a1.37 1.37 0 0 1-.092.178c-.028.001-.047-.019-.07-.031l-.462-.265c-.035-.02-.075-.033-.099-.068a.36.36 0 0 1 .07-.136c.016-.003.027.005.04.011.16.081.324.157.486.237.034.017.07.031.104.05.01.005.024.008.023.026v-.001Z"/><path fill="#F04C4E" d="M3.865 14.323c-.05-.032-.104-.06-.15-.1l.15-.208c.084-.117.168-.235.254-.351.008-.01.012-.022.021-.031.047.019.09.042.123.082.002.012-.004.02-.01.029l-.355.554c-.007.012-.01.032-.033.025Z"/><path fill="#20DA85" d="M8.71 11.108c.017.064.023.13.03.194-.115.016-.232.028-.347.04-.111.013-.223.027-.335.039-.016.002-.025.012-.036.022-.006.001-.01-.002-.012-.007-.008-.052-.02-.102-.016-.155.026-.01.055-.012.082-.016.193-.033.386-.067.58-.097a.13.13 0 0 0 .055-.02Z"/><path fill="#FC5000" d="M3.79 9.028a.965.965 0 0 1 .136-.089c.021-.007.026.012.034.024.072.119.145.237.216.356.041.07.085.138.126.208.004.008.01.016.01.026a.25.25 0 0 1-.109.072c-.032-.019-.046-.053-.065-.082l-.345-.504a.028.028 0 0 1-.004-.011Z"/><path fill="#E4CD01" d="m6.594 8.64-.15.449-.07.209c-.003.01-.002.025-.019.025-.033.011-.06-.013-.091-.018-.011-.001-.025-.005-.029-.02.042-.112.065-.23.1-.345.03-.1.057-.2.084-.302.005-.018.006-.038.025-.048a.985.985 0 0 1 .15.049Z"/><path fill="#DED701" d="M6.524 9.386c.032-.037.042-.084.061-.128.074-.174.146-.35.22-.525l.002-.012a.6.6 0 0 1 .132.057c.019.012.007.026.002.039-.035.084-.08.165-.118.248-.052.116-.11.229-.163.344-.006.013-.011.028-.027.032-.04-.011-.08-.022-.109-.054Z"/><path fill="#B7D91B" d="M7.558 9.161c.042.026.078.06.113.093.01.013.001.023-.007.033-.058.07-.122.137-.182.206-.085.1-.176.195-.26.295-.007.007-.011.015-.02.019-.013.002-.023-.005-.03-.013-.022-.026-.059-.037-.072-.071.092-.11.18-.223.27-.335.056-.071.116-.14.17-.212.005-.007.01-.014.018-.016v.001Z"/><path fill="#FA5600" d="m4.31 9.554-.182-.301c-.06-.1-.121-.198-.182-.297-.005-.008-.01-.017-.021-.017.046-.03.09-.059.14-.08.03.035.048.077.07.117.09.163.179.327.267.49.006.01.014.019.01.032-.024.029-.06.041-.092.058-.004.003-.008 0-.011-.003Z"/><path fill="#25DA7B" d="M8.66 10.858c.014.038.018.079.026.119.01.025-.008.03-.027.034-.105.023-.21.047-.314.068-.107.021-.214.048-.321.067-.016.003-.033.01-.048-.003a.19.19 0 0 1-.022-.097c.007-.015.022-.019.036-.022.208-.053.416-.109.625-.163.014-.004.03-.012.045-.003Z"/><path fill="#FC480B" d="M2.906 13.365c-.03-.039-.051-.084-.074-.126.064-.043.133-.08.201-.12.124-.07.246-.144.371-.213.02-.011.036-.025.054-.039.024.007.024.032.036.048a.15.15 0 0 1 .024.053c-.003.018-.019.024-.031.032-.11.072-.221.142-.331.213-.07.046-.143.09-.213.136-.011.007-.02.018-.036.014v.002Z"/><path fill="#FD4805" d="M3.458 12.87c-.018.035-.055.046-.085.063-.16.095-.322.188-.483.28-.018.01-.035.026-.059.026a13.51 13.51 0 0 1-.068-.125c.013.007.023-.002.032-.007l.595-.31c.007-.004.014-.008.018-.016.03.021.046.051.05.088v.001Z"/><path fill="#F94917" d="m3.058 13.584-.083-.119c.032-.032.071-.054.108-.08.157-.11.317-.218.474-.33a.037.037 0 0 1 .014-.006c.034.02.05.054.066.09-.002.015-.015.02-.026.029-.16.124-.32.246-.482.368-.012.008-.021.02-.033.028s-.02.021-.038.019Z"/><path fill="#E5C801" d="M6.444 8.59c-.032.086-.05.175-.074.261-.04.133-.075.267-.112.4-.004.014-.007.028-.023.035a.118.118 0 0 1-.1-.024c.012-.064.029-.126.044-.189.042-.172.08-.346.121-.52l.144.038Z"/><path fill="#22DA7F" d="M7.98 11.14c.037.008.071-.007.106-.015.156-.03.312-.065.468-.1.037-.008.074-.017.112-.023.016-.002.02-.011.02-.025a.544.544 0 0 1 .025.13c0 .024-.018.024-.032.026l-.303.05-.35.062a.034.034 0 0 1-.027-.005.115.115 0 0 1-.02-.1Z"/><path fill="#BBD919" d="M7.377 9.028c.04.02.073.048.106.076-.005.033-.03.054-.048.078l-.352.467c-.01.014-.018.031-.038.035a.166.166 0 0 1-.084-.06.045.045 0 0 1 .008-.016c.13-.184.255-.371.383-.556.006-.01.012-.02.025-.023Z"/><path fill="#1CD390" d="M8.754 11.484c.007.054.006.11.005.164-.015.014-.034.01-.05.01h-.591c-.028 0-.056.01-.083 0-.027-.048-.02-.097-.01-.146.007-.004.011 0 .013.004.006.028.026.025.048.024.064-.004.129-.003.194-.008.14-.01.28-.011.42-.018.025-.001.042-.008.053-.03Z"/><path fill="#FA4911" d="M3.57 13.05c-.017.022-.041.036-.064.052-.14.096-.279.191-.418.288-.037.026-.072.056-.113.075a9.391 9.391 0 0 0-.07-.1l.579-.371c.01-.007.024-.011.03-.025.035.016.044.05.057.08Z"/><path fill="#F8491E" d="m3.058 13.584.318-.245.257-.2a.132.132 0 0 1 .065.076c-.022.035-.057.057-.088.082-.144.122-.292.24-.435.363-.01.01-.021.022-.038.018a.746.746 0 0 1-.08-.095Z"/><path fill="#F95C00" d="m4.41 9.497-.176-.322-.164-.301-.005-.015a.678.678 0 0 1 .107-.056c.011.007.015.02.02.03l.29.58c.006.012.016.025.012.04a.114.114 0 0 1-.085.044h.001Z"/><path fill="#E7B801" d="m5.987 8.497.12.018c.011.014.006.03.003.045-.035.208-.069.415-.105.622-.004.02-.002.04-.023.052-.032.004-.064.006-.09-.016-.003-.064.012-.126.02-.189.018-.16.042-.319.061-.479.002-.018.001-.037.014-.053Z"/><path fill="#1DD68C" d="M8.754 11.484c.006.033-.01.038-.04.04-.112.006-.225.004-.338.012a3.742 3.742 0 0 1-.276.011h-.013c-.03.003-.05-.01-.058-.037-.015-.016-.012-.033-.004-.05.017-.014.037-.014.057-.016l.447-.036c.057-.005.114-.005.171-.012a.155.155 0 0 0 .048-.013c.01.033.006.068.006.101Z"/><path fill="#BFD816" d="M7.377 9.028c-.113.165-.224.33-.338.494-.024.035-.043.073-.077.102a.09.09 0 0 1-.072-.044c.002-.029.022-.048.037-.07.109-.175.22-.348.329-.522.006-.008.009-.018.02-.022.037.016.068.04.1.062h.001Z"/><path fill="#D9D804" d="M6.631 9.436c.02-.014.022-.037.032-.056l.074-.155.2-.419c.004-.01.01-.018.002-.029.038.017.077.033.112.057.003.007.001.013-.001.018-.075.142-.147.285-.223.427-.036.066-.07.135-.107.201a.113.113 0 0 1-.088-.046v.002Z"/><path fill="#F66800" d="M4.352 8.72a.603.603 0 0 1 .111-.044c.018-.002.018.013.02.023.07.182.139.364.206.546.013.036.033.07.036.109a.115.115 0 0 1-.084.035c-.013-.007-.016-.02-.022-.033-.084-.198-.166-.397-.249-.595-.006-.014-.013-.026-.018-.04Z"/><path fill="#059CE1" d="M7.715 12.863c.071.052.151.09.227.134.133.078.268.154.402.23-.02.03-.033.066-.058.094-.011.007-.02 0-.028-.006-.195-.12-.39-.24-.584-.362a.025.025 0 0 1-.01-.008.121.121 0 0 1 .05-.083Z"/><path fill="#E7B301" d="M5.987 8.497c-.003.062-.012.123-.02.185-.011.072-.02.145-.03.217l-.027.21a4.02 4.02 0 0 0-.01.082c-.001.009.002.019-.007.026-.03.015-.056.008-.083-.006-.017-.04-.003-.079.002-.117.017-.167.028-.334.048-.5.005-.037.002-.074.009-.11.04.005.079.01.118.013Z"/><path fill="#FC4D00" d="M3.79 9.028c.024.015.034.04.05.062.09.13.18.26.267.392.031.047.063.094.097.14-.021.025-.039.053-.075.056-.024-.05-.061-.091-.093-.136-.105-.148-.214-.293-.321-.439-.003-.005-.009-.009-.013-.013a.5.5 0 0 1 .088-.062Z"/><path fill="#0191F2" d="M8.204 13.448a.282.282 0 0 1-.057.08c-.013.008-.023 0-.033-.007-.155-.115-.309-.23-.466-.342-.024-.017-.045-.037-.07-.053-.01-.007-.02-.016-.019-.03a.143.143 0 0 1 .05-.066c.019.002.033.016.048.027.156.11.314.215.472.322l.059.042c.009.006.02.011.016.026Z"/><path fill="#F86000" d="m4.491 9.454-.014-.034-.29-.582c-.006-.011-.01-.023-.015-.034a.639.639 0 0 1 .094-.044c.016-.001.018.012.022.021.09.199.182.397.273.594.006.013.013.026.01.042-.022.023-.044.042-.08.037Z"/><path fill="#0C8DF1" d="m8.085 13.609-.063.08c-.02.01-.03-.007-.04-.016-.081-.065-.16-.133-.24-.2l-.253-.212c-.012-.01-.025-.018-.03-.035a.124.124 0 0 1 .055-.07c.115.085.227.175.34.264l.211.166c.008.006.018.011.02.023Z"/><path fill="#1ED889" d="M8.749 11.383c0 .011-.003.019-.017.02l-.155.013-.294.024c-.06.005-.12.011-.18.013-.025 0-.05.008-.074.007-.022-.016-.019-.036-.007-.056-.002-.02.005-.03.025-.032.096-.01.192-.02.289-.032l.258-.03a1.84 1.84 0 0 0 .107-.013c.014-.002.028-.003.04.006.004.027.01.053.008.08Z"/><path fill="#E54F8D" d="M4.777 14.725a.496.496 0 0 1-.099-.026c-.009-.012-.001-.024.002-.036.057-.195.115-.39.174-.584.008-.026.01-.056.03-.078a.11.11 0 0 1 .084.02c.005.01.002.019 0 .028l-.168.642c-.003.013-.001.032-.023.034Z"/><path fill="#F74A29" d="M3.274 13.835a.53.53 0 0 1-.074-.082c.12-.107.241-.21.36-.318.05-.046.102-.088.15-.137.01-.01.022-.02.036-.024.03.008.041.034.055.058.001.015-.01.025-.018.034-.125.124-.253.244-.382.364l-.075.074c-.015.013-.028.032-.052.03v.001Z"/><path fill="#D953D5" d="M5.912 14.812a.394.394 0 0 1-.106.012c-.017-.038-.012-.08-.015-.12l-.03-.392c-.003-.047-.008-.095-.01-.143 0-.051-.005-.054-.054-.056-.02 0-.039.003-.057-.005-.004-.003-.004-.006-.003-.01.004-.002-.001-.001.003-.002a.797.797 0 0 1 .198-.007c.023.035.015.075.02.113.014.107.023.213.035.32l.027.262c.001.01 0 .02-.008.03v-.002Z"/><path fill="#E6BE01" d="M5.979 9.23c.023-.017.015-.045.019-.067l.075-.436c.012-.07.022-.141.033-.211.036.002.071.011.106.019.01.028-.002.056-.007.082-.042.2-.082.4-.122.6-.003.012-.005.023-.013.032-.032.005-.064.006-.09-.02h-.001Z"/><path fill="#1BD094" d="M8.035 11.654c.241-.015.483-.003.724-.007v.107c-.019.015-.042.01-.063.008-.12-.008-.24-.008-.361-.013-.09-.005-.18-.002-.27-.011-.012-.001-.023 0-.033-.009-.01-.025-.013-.05.002-.075Z"/><path fill="#16C4A8" d="M8.723 12.125a.584.584 0 0 1-.019.113.105.105 0 0 0-.048-.02c-.198-.038-.396-.072-.594-.109-.024-.004-.05-.004-.074-.01-.005-.034-.004-.066.02-.093.024-.008.047 0 .07.003.2.029.4.06.6.088a.22.22 0 0 1 .033.007c.01.004.017.008.012.02Z"/><path fill="#F74923" d="m3.747 13.274-.12.112-.097.085c-.081.074-.164.146-.247.218-.016.013-.03.029-.045.043a.06.06 0 0 1-.037.022c-.022-.024-.044-.048-.063-.075.065-.046.12-.102.183-.15.057-.043.11-.091.165-.138.065-.056.136-.106.198-.166l.012-.009c.032.007.041.034.05.06v-.002Z"/><path fill="#1ACE98" d="M8.034 11.729c.083 0 .166.005.248.008.064.002.128 0 .192.005.095.007.19.007.285.012l-.007.107c-.008.006-.017.004-.026.004-.114-.01-.228-.016-.342-.024-.084-.005-.168-.012-.252-.015a.334.334 0 0 1-.104-.013c-.014-.03-.018-.058.006-.084Z"/><path fill="#EF4C55" d="M3.865 14.323c.026-.012.034-.038.048-.06l.281-.442c.022-.034.048-.067.066-.105.033-.002.054.017.071.043.001.012-.004.022-.01.032-.114.187-.226.376-.338.565-.007.01-.012.026-.03.023a.673.673 0 0 1-.088-.056Z"/><path fill="#5A77E7" d="M7.325 14.31a.557.557 0 0 1-.092.058c-.01-.002-.015-.01-.02-.018-.115-.192-.233-.382-.348-.574-.005-.01-.012-.018-.01-.029a.108.108 0 0 1 .071-.045c.027.028.044.064.065.095.11.164.216.33.326.494.004.007.009.012.009.02Z"/><path fill="#08A4D6" d="M8.435 13.05c-.025-.024-.059-.034-.09-.049-.08-.04-.163-.077-.244-.117a16.065 16.065 0 0 1-.295-.144l-.023-.008c-.004-.031.014-.052.032-.072.02-.007.036.004.053.012.193.09.388.174.581.262.012.006.026.01.031.024a.56.56 0 0 1-.045.093Z"/><path fill="#F14B49" d="M4.14 13.634c-.004.035-.031.058-.05.084-.115.154-.226.31-.337.466-.011.014-.02.031-.038.039a.471.471 0 0 1-.07-.055c-.008-.016.003-.027.011-.036.136-.175.27-.351.407-.525.006-.007.01-.015.02-.019a.07.07 0 0 1 .057.046Z"/><path fill="#F76400" d="M4.567 9.417c-.01-.04-.03-.075-.046-.112l-.239-.52c-.004-.01-.006-.02-.016-.026a.37.37 0 0 1 .088-.038c.01 0 .014.008.017.015l.158.382c.037.09.075.178.113.267a.075.075 0 0 1-.075.032Z"/><path fill="#E84E7B" d="M4.495 14.637a.427.427 0 0 1-.086-.033c-.012-.015 0-.03.005-.043l.191-.48.053-.127c.004-.01.008-.021.019-.028.026-.003.046.012.067.025.012.016.003.032-.002.047-.043.119-.088.237-.13.356l-.093.255c-.004.011-.005.028-.024.027v.001Z"/><path fill="#E6C201" d="m6.068 9.247.129-.633.015-.08.088.019c.012.017 0 .034-.002.05l-.106.452-.043.18c-.002.01-.005.02-.013.024-.027.012-.048.005-.068-.013Z"/><path fill="#058FF2" d="M8.085 13.609a126.943 126.943 0 0 1-.54-.421c-.01-.009-.026-.014-.03-.03a.082.082 0 0 1 .05-.063c.01.032.043.04.066.059.1.076.202.148.303.222l.189.142a.04.04 0 0 0 .025.01.583.583 0 0 1-.063.08Z"/><path fill="#EA9F00" d="M5.429 8.476a.552.552 0 0 1 .126-.004c.014.013.01.031.01.047 0 .115.002.23 0 .344-.001.096.009.192.008.287 0 .016.001.032-.007.046a.155.155 0 0 1-.122.01c-.001-.005 0-.01.003-.011.036-.009.032-.037.03-.062-.007-.132-.015-.264-.019-.396-.002-.074-.007-.148-.011-.221a.07.07 0 0 0-.017-.04Z"/><path fill="#B9D91A" d="M7.044 9.68c.031-.025.05-.06.074-.091.123-.16.243-.323.365-.485.031.012.05.038.076.057-.032.052-.073.096-.11.143l-.216.27-.113.141a.024.024 0 0 1-.019.01.07.07 0 0 1-.057-.044Z"/><path fill="#F56E00" d="m4.722 9.353-.193-.51c-.02-.055-.037-.114-.066-.167a.473.473 0 0 1 .088-.031c.02-.002.022.015.027.028.03.072.05.148.076.222.047.132.09.265.135.397.004.012.01.024.005.037-.02.02-.042.034-.071.024h-.001Z"/><path fill="#E64F86" d="m4.886 14.003-.157.526-.05.17c-.034-.008-.069-.015-.1-.03.002-.018.01-.034.015-.05.069-.208.139-.415.207-.623.002-.005.004-.011.008-.017.03-.001.056.002.077.025Z"/><path fill="#19CB9C" d="M8.029 11.81c.091.007.184.009.275.019.04.004.08.002.121.006.101.01.203.013.304.02.008 0 .016.004.024.006l-.006.087c-.01.016-.027.01-.04.009l-.215-.02c-.124-.012-.25-.023-.373-.037-.033-.003-.067 0-.099-.013-.012-.026-.015-.053.008-.077Z"/><path fill="#E94D74" d="M4.678 13.93c-.043.092-.077.189-.116.283l-.148.37c-.003.007-.003.015-.004.021a.461.461 0 0 1-.095-.036c-.004-.008 0-.016.003-.024.089-.198.174-.399.262-.598.007-.016.013-.035.03-.046.026.002.052.006.069.03Z"/><path fill="#EE8D00" d="M5.072 8.514c.028-.008.057-.008.086-.013.025-.005.028.013.03.03.012.09.026.18.037.271.014.122.034.243.049.365.002.022.008.045-.017.06-.02.006-.04.013-.06.005-.01-.008-.013-.019-.015-.03-.035-.23-.074-.459-.11-.688Z"/><path fill="#ED9200" d="M5.255 9.221c.015-.008.014-.022.013-.035l-.034-.25a27.831 27.831 0 0 1-.054-.415c-.001-.013-.009-.019-.02-.02a.402.402 0 0 1 .107-.012c.019.001.015.017.016.028l.061.593c.004.033.014.066.003.1a.09.09 0 0 1-.09.01l-.002.001Z"/><path fill="#0FB4BF" d="M8.616 12.595a.237.237 0 0 1-.025.08c-.014.011-.028.005-.041 0l-.576-.198c-.025-.008-.052-.015-.073-.032 0-.028.004-.054.026-.074.048.002.092.025.138.038.164.05.328.103.492.151a.248.248 0 0 1 .041.015c.009.004.021.005.02.02h-.002Z"/><path fill="#F18000" d="M4.803 8.57a.473.473 0 0 1 .101-.024c.013.008.014.023.017.035.048.215.093.43.14.643.003.01.005.019.003.028-.02.022-.046.025-.073.023-.018-.012-.02-.032-.024-.05l-.138-.558-.026-.097Z"/><path fill="#F24B46" d="M4.084 13.591c-.116.15-.233.3-.348.452-.031.04-.07.076-.09.125a.584.584 0 0 1-.082-.064c.026-.043.06-.08.092-.118.091-.11.18-.221.272-.331.032-.038.057-.082.1-.111.027.005.047.02.056.047Z"/><path fill="#E151A4" d="M5.13 14.798c-.034-.004-.069-.008-.101-.017a45.044 45.044 0 0 0 .117-.67c.003-.016.004-.035.02-.047a.086.086 0 0 1 .072.015c.006.033-.004.065-.009.096l-.079.553c-.003.024 0 .051-.02.07Z"/><path fill="#EA4D6F" d="M4.61 13.904c-.056.115-.104.234-.155.35l-.14.314a.457.457 0 0 1-.088-.043c.018-.042.038-.083.058-.124.08-.164.156-.33.234-.496.006-.012.01-.025.021-.034.03-.002.052.01.07.034Z"/><path fill="#E9A300" d="M5.561 9.197c-.009-.242-.006-.484-.006-.725h.094c.006.006.005.015.005.024-.004.073.002.146-.002.219-.007.122-.003.244-.007.366-.001.039 0 .08-.013.117-.024.013-.048.015-.072 0h.001Z"/><path fill="#EB9A00" d="M5.429 8.476c.02-.002.026.007.027.027 0 .114.01.228.013.342.004.098.009.196.017.295.004.05 0 .05-.044.062-.01.011-.02.01-.032.003-.01-.012-.008-.026-.008-.04 0-.1-.017-.198-.022-.298-.004-.105-.018-.21-.022-.314-.001-.028-.002-.055-.03-.071.034-.009.068-.006.101-.006Z"/><path fill="#EC9600" d="M5.328 8.482c.021-.002.032.005.036.03.005.04.004.08.008.121.011.127.015.254.027.382.006.063.012.126.011.189-.02.021-.044.02-.069.006l-.023-.228a6.268 6.268 0 0 1-.014-.146 3.79 3.79 0 0 0-.023-.213c-.006-.033-.006-.068-.009-.102-.001-.01.004-.023-.007-.032.02-.007.041-.005.062-.006Z"/><path fill="#EB4D69" d="m4.541 13.873-.046.105-.203.425-.04.088c-.006.013-.012.027-.026.034l-.079-.04c0-.009.006-.017.01-.025.097-.198.2-.392.298-.589.005-.012.01-.025.022-.032.028 0 .05.009.064.034Z"/><path fill="#E8AE01" d="M5.868 8.484c.012.024.008.05.006.074-.011.109-.025.217-.032.327-.005.09-.02.18-.03.27v.054c-.026.014-.049.005-.072-.006-.009-.013-.007-.028-.007-.042 0-.088.012-.175.016-.262.003-.078.011-.156.015-.234.002-.048.008-.096.008-.144 0-.015.002-.031.014-.043.027-.003.055.003.081.006h.001Z"/><path fill="#17C6A3" d="M8.723 12.125c-.001-.016-.013-.013-.023-.014-.132-.02-.265-.042-.397-.061-.098-.014-.196-.026-.295-.039-.013-.023-.004-.044.005-.065.016-.016.037-.014.056-.011.181.023.364.042.545.065.033.004.066.005.1.012.02.004.032.015.022.037a.242.242 0 0 1-.012.076Z"/><path fill="#F08400" d="M5.06 9.253a71.112 71.112 0 0 1-.156-.707.528.528 0 0 1 .094-.019c.007.006.008.014.01.023l.122.648c.003.015.008.029.002.044-.021.016-.044.025-.071.011Z"/><path fill="#2ADA75" d="M8.659 10.858c-.169.044-.337.087-.505.132-.057.014-.114.033-.172.044a.03.03 0 0 0-.023.013c-.024-.018-.023-.044-.024-.07.014-.022.04-.023.06-.03.18-.05.359-.102.538-.157.026-.008.052-.012.078-.021.008-.003.016-.005.024.001l.025.088h-.001Z"/><path fill="#E74E81" d="M4.81 13.98c0 .008 0 .016-.003.024l-.107.316-.103.315c-.004.012-.004.028-.02.033a.356.356 0 0 1-.081-.031c.016-.013.018-.033.024-.05l.15-.416c.023-.061.049-.121.067-.185.003-.01.011-.02.004-.032.03-.008.05.008.07.025v.001Z"/><path fill="#14C0AD" d="M7.992 12.098c.038-.015.073.004.109.01l.438.078.144.026c.013.002.022.01.021.026a.28.28 0 0 1-.012.074c-.022.003-.041-.006-.061-.01-.2-.041-.402-.083-.602-.127-.018-.004-.035.002-.052 0-.007-.028-.005-.054.015-.076Z"/><path fill="#E2509E" d="M5.167 14.067c-.02.06-.025.122-.037.182-.015.08-.026.16-.04.239l-.048.272c-.001.009 0 .019-.013.02a.393.393 0 0 1-.08-.013c-.008-.01-.004-.02-.002-.03.044-.213.085-.426.13-.638.004-.016.006-.034.016-.048.027-.005.052-.004.075.016Z"/><path fill="#E45094" d="M4.778 14.725c.017-.02.018-.047.025-.072l.164-.63c.028-.01.05.003.07.019 0 .044-.016.085-.025.128l-.126.552c-.002.01-.001.026-.019.027a.4.4 0 0 1-.089-.024Z"/><path fill="#F37600" d="M4.64 8.615a.516.516 0 0 1 .088-.025c.025.04.032.085.043.13l.101.36c.018.063.033.126.052.188.002.008.004.016 0 .024a.093.093 0 0 1-.072.02c-.02-.032-.028-.069-.038-.104-.056-.187-.117-.372-.172-.559-.004-.01-.01-.022-.002-.032v-.002Z"/><path fill="#EF8900" d="m5.13 9.24-.064-.325L5 8.567c-.003-.013-.002-.026-.003-.04a.221.221 0 0 1 .075-.013c.013.001.012.01.014.02l.045.291.055.34c.003.02.001.044.011.063-.02.02-.042.026-.068.013Z"/><path fill="#F27B00" d="m4.923 9.29-.138-.494-.057-.207a.262.262 0 0 1 .074-.019c.013 0 .012.012.015.02.031.105.054.211.08.317l.082.332.012.032c-.02.016-.042.026-.069.018Z"/><path fill="#94D92F" d="M8.01 9.598c.023.02.038.046.057.07-.01.023-.033.033-.051.048-.103.083-.205.167-.31.248-.06.048-.118.101-.182.147-.007.005-.013.01-.022.011-.028-.01-.043-.032-.052-.06l.248-.21.284-.24c.008-.008.015-.02.03-.014H8.01Z"/><path fill="#A5D925" d="M7.852 9.424c.022.017.04.039.057.06.008.017-.004.026-.013.035l-.195.18c-.042.038-.081.078-.124.115-.057.051-.112.106-.17.156-.007.007-.014.014-.024.015-.025-.01-.045-.026-.052-.054.109-.108.215-.218.325-.324l.17-.165c.008-.008.014-.016.026-.017Z"/><path fill="#E051AA" d="m5.13 14.798.056-.393c.012-.078.026-.155.036-.233.004-.031.005-.063.014-.092.018-.015.035-.004.053 0 .019.012.02.03.017.047l-.044.382-.03.258c-.005.037-.01.042-.04.038a.175.175 0 0 1-.062-.007Z"/><path fill="#6374E6" d="m6.858 13.748.376.62c-.023.02-.051.028-.076.044-.017-.008-.022-.027-.031-.042l-.308-.541c-.01-.016-.024-.03-.02-.05.015-.019.031-.036.059-.031Z"/><path fill="#F54A36" d="M3.445 14.003a.27.27 0 0 1-.056-.056c.02-.035.051-.063.078-.091.123-.128.242-.259.368-.383.019-.018.03-.043.055-.055.024.007.038.024.048.046-.004.03-.03.047-.047.068-.107.122-.218.24-.325.362-.03.033-.057.067-.089.097-.009.008-.016.02-.031.012Z"/><path fill="#F47200" d="m4.64 8.615.17.548.044.146c-.017.021-.037.03-.063.02l-.171-.507c-.017-.05-.031-.1-.05-.15-.004-.01-.005-.022-.019-.026a.38.38 0 0 1 .09-.03Z"/><path fill="#DB53D0" d="M5.692 14.104c.069 0 .067 0 .07.07.004.108.015.215.023.322.005.06.01.12.013.18.003.05.012.1.007.149a.839.839 0 0 1-.137.005c0-.002 0-.006.002-.006.043-.007.039-.04.038-.072-.007-.137-.01-.275-.017-.412-.003-.065-.008-.129-.008-.194 0-.014-.002-.03.01-.041Z"/><path fill="#8CD933" d="m7.5 10.12.24-.192.327-.262a.35.35 0 0 1 .05.063c.003.018-.012.023-.022.031-.12.09-.236.182-.356.27-.056.042-.109.088-.166.127-.01.007-.02.016-.033.016-.023-.01-.039-.027-.04-.053Z"/><path fill="#AAD922" d="M7.852 9.424c-.062.066-.127.128-.193.191-.1.096-.196.196-.294.294-.01.009-.017.022-.033.022a.059.059 0 0 1-.045-.044.582.582 0 0 1 .067-.078c.132-.128.254-.264.385-.392.018-.018.029-.041.05-.055.023.019.044.04.063.063Z"/><path fill="#F64A2E" d="M3.275 13.835a.453.453 0 0 0 .06-.049c.104-.101.208-.204.315-.302.044-.04.085-.083.128-.124.008-.008.018-.015.018-.028.028.007.043.027.054.051-.002.016-.015.025-.025.035l-.279.28c-.063.062-.123.129-.189.19-.006.005-.009.014-.02.01-.021-.02-.045-.037-.062-.062Z"/><path fill="#D355D9" d="M5.912 14.812c-.008-.075-.02-.15-.023-.225-.004-.07-.017-.14-.022-.21-.004-.066-.014-.133-.021-.2l-.01-.086c.015-.025.037-.013.057-.012.018.009.02.026.022.042l.05.385c.013.088.02.176.034.263.002.014.003.028-.012.036-.025.003-.05.01-.075.008Z"/><path fill="#5279E8" d="M7.326 14.31c-.02-.012-.028-.033-.04-.051l-.355-.541-.005-.015c.012-.022.03-.038.057-.039.127.192.262.378.39.569.007.01.019.017.024.028-.021.02-.046.034-.071.049Z"/><path fill="#36DA6A" d="M8.566 10.557c.01.025.021.049.025.076-.014.016-.034.02-.052.027-.196.065-.392.135-.588.198-.015.006-.028.015-.042.02-.024-.02-.03-.046-.027-.076.017-.015.04-.018.06-.026.196-.074.394-.144.592-.218.01-.004.02-.01.032 0Z"/><path fill="#E35099" d="M4.866 14.75c.022-.056.03-.115.043-.172l.072-.315.042-.188c.003-.011.008-.021.012-.032.02-.005.04 0 .057.012.001.035-.013.068-.02.102-.038.195-.079.39-.118.586a.353.353 0 0 1-.006.024c-.029 0-.055-.01-.082-.018Z"/><path fill="#3881EB" d="M7.657 14.06a.315.315 0 0 1-.06.05c-.02.003-.027-.012-.036-.023-.111-.137-.224-.272-.333-.41-.027-.034-.054-.069-.084-.1-.006-.007-.013-.014-.014-.024a.093.093 0 0 1 .053-.046c.037.03.065.07.096.105l.265.307c.04.046.084.088.114.14h-.001Z"/><path fill="#F34B40" d="m4.028 13.545-.244.298-.193.236c-.008.01-.018.016-.027.025a.355.355 0 0 1-.062-.05c.02-.036.05-.064.075-.095.104-.122.208-.243.314-.363.028-.031.05-.069.087-.092.024.005.042.017.05.041Z"/><path fill="#836BE2" d="M6.875 14.555a.436.436 0 0 1-.087.037c-.022-.023-.028-.055-.04-.083-.045-.107-.087-.215-.13-.322l-.092-.222c-.007-.016-.016-.03-.01-.048.018-.015.036-.028.06-.027.038.072.067.146.1.22l.18.406.02.039Z"/><path fill="#8A69E1" d="M6.52 13.917c.013.058.04.111.062.166.052.122.102.245.15.368.019.047.045.091.056.141a.328.328 0 0 1-.075.032c-.02-.017-.021-.042-.03-.063-.074-.195-.146-.39-.222-.583-.004-.01-.009-.02-.009-.03.016-.025.038-.033.066-.03h.002Z"/><path fill="#EE4C5A" d="M3.953 14.38c.034-.034.052-.078.076-.117l.223-.374.076-.13c.024-.009.035.009.05.021.01.016.003.03-.005.044-.088.153-.173.307-.26.459-.02.032-.036.066-.055.098-.01.015-.016.032-.03.043-.025-.014-.05-.03-.074-.045Z"/><path fill="#79D93E" d="M8.202 9.85a.433.433 0 0 1 .046.068c-.05.039-.104.073-.157.107-.144.092-.286.188-.43.28-.007.004-.013.01-.022.01-.021-.014-.038-.031-.039-.059l.217-.152.347-.24c.011-.008.022-.02.038-.015Z"/><path fill="#DF51AF" d="M5.191 14.806c.018.003.026-.006.029-.023l.016-.136.03-.245.02-.185.011-.086c.002-.016.008-.034-.01-.046.024-.017.047-.003.07.003.01.008.01.02.01.031-.007.115-.021.23-.03.345-.009.105-.02.21-.028.314-.001.013 0 .027-.01.038H5.28c-.01-.006-.022.001-.031-.005-.02 0-.039.002-.057-.006Z"/><path fill="#B2D91E" d="M7.2 9.807c.03-.05.074-.09.112-.134.077-.085.151-.171.227-.257.038-.043.076-.087.116-.13.008-.01.017-.018.016-.032a.448.448 0 0 1 .062.056c.004.011-.004.018-.01.024-.079.086-.16.17-.237.257-.068.076-.14.149-.208.226-.01.012-.02.026-.039.03-.02-.005-.035-.017-.039-.04Z"/><path fill="#0DAFC5" d="m7.904 12.444.645.222c.014.005.027.011.042.01a.418.418 0 0 1-.03.082 4.88 4.88 0 0 1-.153-.054l-.501-.186c-.01-.004-.02-.007-.026-.017-.004-.024.002-.043.023-.057Z"/><path fill="#9167E0" d="m6.456 13.945.14.361c.039.106.083.21.118.319a.16.16 0 0 1-.056.019c-.017.008-.024-.002-.029-.017-.04-.108-.076-.217-.115-.325l-.11-.31c-.003-.008-.007-.017-.006-.027.015-.02.035-.025.06-.02h-.002Z"/><path fill="#9AD92B" d="m8.01 9.598-.227.193-.228.192-.084.07c-.005.005-.011.01-.019.01-.024-.005-.033-.024-.04-.045l.201-.178.199-.177c.042-.039.087-.074.128-.115.005-.005.012-.012.021-.007a.33.33 0 0 1 .05.056v.001Z"/><path fill="#776FE3" d="M7.014 14.492c-.024.02-.055.023-.081.038-.013-.009-.018-.023-.024-.036-.09-.196-.183-.391-.274-.588-.007-.014-.013-.029 0-.043.014-.011.028-.024.047-.019.01.008.015.02.02.032.065.134.135.265.2.4.025.05.046.1.072.149.012.023.023.046.04.067Z"/><path fill="#7D6DE3" d="M6.638 13.867c-.007.01-.006.018-.002.029.047.098.093.195.138.294.052.113.11.225.158.34a.23.23 0 0 1-.057.024c-.03-.012-.03-.043-.04-.065-.06-.133-.119-.266-.176-.4-.029-.065-.063-.128-.084-.197.017-.018.035-.034.063-.026Z"/><path fill="#0296EB" d="M8.205 13.448c-.015-.025-.043-.037-.065-.052-.135-.094-.27-.188-.408-.279-.042-.027-.081-.058-.123-.084-.004-.023.011-.035.025-.048.015-.005.026.004.037.01.177.116.354.232.533.346.016.01.034.02.046.036a.437.437 0 0 1-.046.07Z"/><path fill="#F54A31" d="M3.337 13.898c.056-.057.114-.112.17-.17.111-.117.23-.227.34-.347a.06.06 0 0 1 .043.042c-.053.063-.114.118-.17.178l-.258.27c-.024.026-.046.055-.074.076-.02-.013-.035-.031-.052-.049Z"/><path fill="#2EDA71" d="m8.634 10.77-.5.147-.167.048c-.01.002-.02.003-.027.013-.021-.009-.016-.028-.02-.044 0-.02.013-.029.03-.034.159-.048.316-.1.474-.148.05-.016.1-.034.151-.049.013-.003.026-.011.04 0 .007.022.016.044.02.068Z"/><path fill="#1F88EE" d="M7.895 13.828a.286.286 0 0 1-.053.058c-.019.004-.026-.011-.036-.021l-.367-.367c-.033-.033-.064-.068-.102-.098a.034.034 0 0 1-.014-.023c.008-.02.019-.038.04-.046.027.014.047.037.069.058.088.083.176.168.265.25l.18.169a.09.09 0 0 1 .019.02Z"/><path fill="#18C99F" d="M8.735 12.049c.002-.016-.002-.024-.02-.028-.045-.009-.09-.01-.135-.016a5.837 5.837 0 0 0-.185-.023l-.184-.021-.135-.017c-.02-.002-.04-.006-.058.004-.015-.022-.007-.042.006-.062.09.002.179.014.268.024l.154.013.24.024.062.001c-.001.034-.002.068-.01.1h-.003Z"/><path fill="#3CDA66" d="M8.566 10.557c-.052.012-.1.036-.15.054l-.439.16c-.031.012-.06.028-.094.031-.02-.011-.025-.03-.02-.05.034-.03.078-.038.119-.054.131-.051.262-.104.395-.155l.136-.052c.009-.004.017-.01.027-.002l.026.069Z"/><path fill="#10B6BB" d="M8.617 12.595c-.041-.028-.09-.034-.137-.05-.105-.034-.212-.065-.318-.098-.079-.023-.157-.049-.235-.072-.01-.023-.004-.042.012-.059.017-.004.032.003.048.008.176.053.354.101.531.151l.093.028c.012.004.032.006.024.028a.217.217 0 0 1-.018.064Z"/><path fill="#80D93A" d="M8.203 9.85c-.078.044-.147.1-.221.15-.12.08-.237.164-.355.247-.008.005-.017.006-.026.01-.022-.004-.026-.02-.03-.038.003-.013.013-.021.023-.029l.533-.387c.01-.008.02-.02.036-.01l.04.056Z"/><path fill="#B55DDD" d="M6.344 14.737a.155.155 0 0 1-.056.013c-.024.006-.025-.014-.028-.027-.01-.045-.023-.09-.032-.135-.033-.167-.074-.331-.11-.498-.003-.017-.012-.034.004-.05.019-.01.038-.02.06-.011.029.137.066.273.1.409.021.089.04.178.064.267.003.01.007.022-.002.033Z"/><path fill="#72D942" d="M7.64 10.314c.077-.06.162-.108.242-.162.112-.075.225-.148.338-.222a.058.058 0 0 1 .029-.012.217.217 0 0 1 .035.057c-.006.016-.021.022-.034.03-.172.105-.342.215-.515.32-.02.012-.04.028-.063.04-.022-.01-.03-.028-.031-.052H7.64Z"/><path fill="#32DA6E" d="M8.614 10.702c-.067.016-.132.041-.198.062l-.468.145c-.013.004-.022.01-.02.026-.022-.014-.028-.034-.019-.058.005-.019.022-.02.036-.025l.41-.137.237-.082.024.069h-.002Z"/><path fill="#E8AB01" d="M5.787 8.478c-.011.112-.01.225-.025.337-.004.034-.004.068-.005.102-.003.095-.02.19-.014.286-.03.016-.067.015-.089-.004.018-.014.022-.032.024-.054l.016-.374c.003-.085.01-.171.01-.257 0-.025-.023-.026-.03-.042l.113.005Z"/><path fill="#407FEA" d="m7.132 13.552.249.302c.06.075.12.15.182.225.01.012.02.024.034.031a.304.304 0 0 1-.056.045c-.022.002-.03-.016-.041-.029l-.266-.344c-.042-.055-.086-.108-.127-.163-.008-.01-.018-.02-.017-.035.008-.02.02-.031.042-.032Z"/><path fill="#47DA5E" d="M8.484 10.357c.01.018.02.036.025.056-.005.015-.019.019-.032.024l-.585.246a.26.26 0 0 0-.046.026c-.022-.012-.026-.035-.03-.057.004-.017.018-.023.03-.029.132-.057.263-.116.394-.175.067-.03.137-.056.202-.09.012-.007.027-.02.041-.001Z"/><path fill="#EC4C64" d="M4.479 13.841c-.044.088-.086.177-.132.263-.063.119-.122.24-.183.36-.004.008-.006.018-.016.022a.217.217 0 0 1-.063-.032c.023-.062.059-.117.09-.175.054-.105.112-.209.168-.314.023-.044.048-.086.068-.13.004-.009.009-.018.017-.022.023-.001.041.006.05.028Z"/><path fill="#4E7BE8" d="M7.399 14.262c-.013-.001-.02-.01-.027-.02l-.321-.466-.056-.082c-.007-.008-.014-.016-.011-.028.004-.024.024-.029.044-.033l.405.558c.007.01.015.02.02.032a.194.194 0 0 1-.053.039h-.001Z"/><path fill="#86D936" d="M8.163 9.793c-.051.023-.092.062-.138.094-.109.078-.218.156-.324.236-.042.032-.09.056-.124.097-.025-.008-.039-.024-.039-.051.054-.031.102-.072.151-.11.089-.067.178-.132.265-.201.054-.044.113-.08.163-.129l.047.064Z"/><path fill="#2687EE" d="M7.325 13.375c.019.03.048.048.073.072.143.14.284.284.427.425.005.005.01.009.017.013-.015.018-.028.036-.047.049-.015.003-.022-.01-.03-.018-.121-.118-.235-.242-.354-.36-.037-.037-.072-.076-.108-.113-.008-.008-.017-.016-.018-.028a.054.054 0 0 1 .04-.04Z"/><path fill="#F44B3B" d="M3.98 13.508c-.044.05-.089.098-.132.148l-.14.163-.177.207c-.009.01-.017.021-.03.028a.338.338 0 0 1-.056-.05c.025-.007.038-.03.054-.046l.227-.251.2-.226a.027.027 0 0 0 .007-.016c.026.003.038.021.046.043Z"/><path fill="#E8A701" d="M5.675 8.472c.04-.001.038.024.038.054 0 .082-.007.164-.008.246-.003.095-.01.191-.012.287-.001.039-.006.078-.005.118 0 .026-.019.018-.033.02-.008.008-.016.008-.024 0 .009-.128.001-.256.008-.383.005-.099.002-.197.005-.296 0-.016.004-.031.007-.046h.025-.001Z"/><path fill="#118CF0" d="M7.463 13.225c.028.039.07.063.104.093.07.062.144.121.217.182l.225.186.012.004a.234.234 0 0 1-.05.056c-.033-.006-.05-.034-.073-.054l-.39-.341c-.023-.02-.043-.042-.067-.061-.009-.006-.015-.015-.013-.027.005-.019.013-.035.035-.04v.002Z"/><path fill="#9FD928" d="m7.961 9.541-.128.112a56.662 56.662 0 0 0-.397.354c-.006.006-.012.012-.021.011-.023 0-.031-.016-.034-.037.022-.017.044-.034.065-.053l.324-.305c.04-.038.081-.074.122-.111.009-.007.018-.015.018-.028.019.018.038.035.052.057Z"/><path fill="#9766DF" d="M6.4 13.964c.042.1.074.203.11.305.045.12.087.24.129.36.004.013.01.014.02.014a.261.261 0 0 1-.076.025c-.016 0-.016-.014-.019-.024-.06-.186-.122-.371-.184-.557-.012-.036-.026-.07-.03-.108.014-.014.03-.022.05-.014v-.001Z"/><path fill="#3383EC" d="m7.657 14.06-.146-.165-.141-.165a73 73 0 0 1-.187-.22c.005-.023.023-.034.043-.04.09.102.18.204.272.304.062.067.12.136.182.201.012.012.024.024.028.04-.013.02-.035.029-.051.045Z"/><path fill="#DC53CC" d="M5.693 14.104c-.001.13.011.26.014.39.001.096.01.191.01.289.001.029-.001.05-.038.042-.003 0-.007.003-.011.005h-.013c-.019-.038-.01-.08-.016-.12-.004-.026-.001-.054 0-.08.004-.132-.01-.263-.007-.394 0-.031-.008-.062-.006-.094.001-.013-.001-.027.01-.038h.056Z"/><path fill="#0399E7" d="M8.249 13.378c-.06-.039-.121-.076-.181-.114a60.779 60.779 0 0 1-.41-.267c-.007-.005-.014-.01-.023-.009-.003-.023.008-.036.03-.044.048.017.087.051.13.077l.481.297c.003.002.007.002.01.002a5.676 5.676 0 0 0-.036.057h-.001Z"/><path fill="#12BBB5" d="M8.672 12.393a.226.226 0 0 1-.017.064c-.013.008-.026.002-.04-.002-.155-.038-.311-.082-.467-.122-.054-.013-.106-.03-.16-.042-.013-.003-.026-.005-.037-.015-.01-.022 0-.04.012-.059a.02.02 0 0 1 .016 0c.218.057.438.104.657.16.013.004.026.005.036.017Z"/><path fill="#AD5FDD" d="m6.344 14.737-.081-.328-.086-.35a.036.036 0 0 1 .004-.03c.011-.016.027-.017.044-.01.017.03.022.065.03.098l.15.556a.154.154 0 0 0 .02.045c-.025.011-.053.014-.081.019Z"/><path fill="#9C64DF" d="M6.35 13.98c.018.028.023.062.033.093l.179.534c.006.02.006.043.02.06-.019.012-.04.016-.061.021-.014-.005-.016-.018-.02-.03-.058-.191-.119-.382-.176-.574-.006-.018-.015-.037-.02-.056-.002-.013-.006-.027.004-.039.013-.01.025-.02.042-.009Z"/><path fill="#6873E5" d="m6.8 13.78.164.29.194.342c-.017.015-.038.02-.057.031-.012-.004-.015-.016-.02-.026-.076-.135-.148-.273-.224-.409l-.096-.175c-.005-.01-.01-.018-.007-.03.011-.016.024-.03.047-.024Z"/><path fill="#7071E4" d="M7.014 14.492c-.02-.002-.024-.018-.031-.031-.07-.142-.139-.285-.21-.426a3.323 3.323 0 0 1-.09-.188c.007-.022.023-.029.044-.027.031.044.051.095.077.142.084.154.162.31.243.465.006.013.016.025.012.04a.146.146 0 0 1-.045.025Z"/><path fill="#4EDA59" d="M8.484 10.357c-.036-.007-.06.02-.088.033-.178.076-.354.155-.53.233-.016.007-.035.01-.045.027-.022-.007-.021-.025-.024-.042.004-.02.02-.027.035-.034.118-.056.239-.11.357-.168.075-.037.153-.071.23-.106.012-.006.027-.02.04 0 .01.017.019.036.025.056Z"/><path fill="#477DE9" d="M7.45 14.223c-.037-.034-.062-.08-.092-.12l-.322-.443c-.006-.008-.01-.015-.01-.025.003-.021.018-.027.037-.03.025.016.037.043.053.065l.368.486c.007.009.015.017.017.03-.013.017-.035.023-.05.037Z"/><path fill="#DD52BC" d="M5.486 14.83c-.023 0-.046.003-.07-.005a.276.276 0 0 1 0-.078c.01-.137.013-.275.021-.412.006-.079.016-.158.005-.238.024-.015.046-.01.067.007.013.046.006.093.004.14 0 .011-.004.023-.003.034.004.116-.009.232-.006.348 0 .058-.01.116-.007.175 0 .01-.001.02-.01.029Z"/><path fill="#11B9B8" d="M7.953 12.274c.1.026.2.05.3.077.134.034.268.07.402.106a.334.334 0 0 1-.02.074c-.002-.016-.016-.017-.028-.02l-.565-.162-.1-.031c-.01-.018-.005-.032.011-.044Z"/><path fill="#DF52B4" d="M5.298 14.817c.002-.099.014-.198.024-.296.006-.054.009-.108.014-.161l.023-.247a.036.036 0 0 0-.005-.02c.022-.017.042-.013.06.005.009.022 0 .045 0 .067-.005.103-.015.206-.022.308-.004.07-.011.14-.014.21-.002.032-.007.065-.008.099 0 .04-.004.043-.047.036H5.3Z"/><path fill="#DE52B7" d="M5.323 14.818c.028.005.037-.005.04-.036.004-.108.017-.217.022-.325.003-.065.011-.128.014-.192l.012-.168c.01-.009.021-.01.031.002.013.007.013.019.013.032a5.516 5.516 0 0 1-.018.335c-.005.054-.001.108-.007.163-.005.06-.005.12-.007.18 0 .006-.001.012-.007.016-.032-.002-.063.003-.094-.007Z"/><path fill="#178BEF" d="M7.433 13.263c.015.038.052.055.08.081.055.054.116.102.175.153l.284.25c-.006.02-.024.03-.037.044-.016.009-.024-.004-.032-.012-.105-.101-.214-.198-.322-.296-.055-.05-.108-.1-.165-.149-.01-.008-.02-.017-.023-.032.006-.02.018-.035.04-.039Z"/><path fill="#60DA4D" d="M8.353 10.094a.208.208 0 0 1 .031.056c-.029.03-.068.045-.103.063a32 32 0 0 0-.517.278c-.006.002-.011.006-.018.007-.02-.01-.025-.028-.027-.047.002-.012.013-.015.021-.02.182-.104.364-.207.548-.305.021-.012.038-.035.066-.031v-.001Z"/><path fill="#A363DE" d="M6.313 13.992c-.01.02.002.038.008.056.05.168.103.336.155.504l.044.136a.181.181 0 0 1-.056.019c-.015-.006-.018-.02-.022-.034-.062-.211-.12-.424-.182-.636a.045.045 0 0 1-.002-.027c.015-.018.032-.027.055-.018Z"/><path fill="#D3D808" d="M6.72 9.48c-.002-.015.006-.027.012-.038l.298-.572.02-.034c.02.003.035.014.05.024.01.013 0 .025-.005.035l-.209.384c-.036.065-.07.132-.108.197-.006.01-.01.02-.021.026-.017 0-.033 0-.037-.022Z"/><path fill="#BC5BDD" d="M6.124 14.042a.03.03 0 0 0-.004.024l.148.655c.003.013.004.025.02.028a.152.152 0 0 1-.057.013c-.025.006-.026-.014-.03-.03-.016-.06-.027-.121-.039-.183-.028-.153-.063-.303-.094-.455l-.005-.031c0-.004 0-.007.003-.01.017-.013.035-.024.058-.01Z"/><path fill="#2E84ED" d="M7.708 14.016a17.56 17.56 0 0 1-.141-.153c-.025-.028-.048-.057-.074-.085l-.25-.277a.05.05 0 0 1-.016-.03c.003-.019.016-.024.031-.028.026.013.039.04.059.06.09.088.172.182.26.273l.182.196-.05.044Z"/><path fill="#C758DC" d="M6.176 14.774a.226.226 0 0 1-.076.016c-.009-.007-.009-.019-.01-.029-.038-.215-.072-.431-.11-.647a.068.068 0 0 1 .003-.04c.015-.018.034-.021.055-.015l.09.488c.01.062.023.124.033.187.003.015.01.027.015.041Z"/><path fill="#0CADC9" d="m7.881 12.499.284.104.296.11c.035.013.07.02.1.044a.155.155 0 0 1-.02.05c-.01.003-.02 0-.03-.004-.212-.086-.427-.166-.639-.252l-.008-.005c-.006-.02 0-.035.017-.047Z"/><path fill="#0BAACD" d="M7.866 12.544c.051.008.095.035.142.053.159.06.316.123.474.185l.06.025a.158.158 0 0 1-.02.05c-.012.01-.023.003-.035-.002l-.585-.241c-.019-.008-.04-.014-.053-.032-.004-.017 0-.03.017-.038Z"/><path fill="#5BDA51" d="M7.746 10.495c.021-.02.047-.032.071-.045l.55-.294.018-.006.025.05c-.012.022-.035.029-.055.039l-.281.142-.272.138c-.013.006-.02.018-.03.027-.022-.01-.031-.027-.026-.05Z"/><path fill="#D056DA" d="M5.988 14.804c.015-.023 0-.047-.002-.07-.014-.128-.032-.255-.049-.384l-.031-.243c-.002-.01-.006-.018-.014-.023.014-.022.033-.014.052-.011.012.006.013.018.015.029.032.217.065.434.095.65.003.017.01.034-.01.045l-.056.007Z"/><path fill="#2A85ED" d="M7.759 13.972c-.03-.01-.048-.035-.065-.056-.035-.046-.079-.082-.116-.126-.047-.055-.101-.104-.15-.158-.056-.063-.118-.12-.17-.186 0-.02.012-.03.03-.032.003.004.006.01.01.013l.186.193.286.292.026.023a.155.155 0 0 1-.037.038v-.001Z"/><path fill="#DD52C0" d="M5.486 14.83c0-.107.005-.214.008-.321.002-.079-.002-.158.005-.237.005-.056.004-.112.005-.168.016-.013.031-.012.047 0 .009.014.007.03.007.045 0 .132.003.263-.001.393-.003.085-.004.169-.005.253 0 .013 0 .025-.01.035h-.056Z"/><path fill="#C4D812" d="M7.277 8.967c-.056.097-.118.19-.178.285l-.2.315c-.003.004-.004.01-.005.015-.022.002-.036-.008-.046-.026.028-.06.067-.113.1-.17.084-.141.17-.28.256-.421.007-.011.013-.025.028-.03a.22.22 0 0 1 .044.031Z"/><path fill="#DC53C4" d="M5.543 14.83c0-.242.01-.483.006-.725.015-.014.03-.012.046-.001.008.012.008.025.008.04.006.21.007.421.006.632 0 .018.004.038-.01.054h-.057Z"/><path fill="#C7D810" d="m7.233 8.936-.372.61c-.002.004-.006.006-.009.008-.02.004-.032-.007-.04-.024.082-.144.166-.287.25-.43.032-.056.063-.112.097-.168a.072.072 0 0 1 .024-.028l.05.031Z"/><path fill="#1B8AEF" d="M7.395 13.303c.058.054.114.108.174.16.036.032.07.067.107.1.082.071.16.147.24.22.005.005.01.007.017.008-.008.017-.03.02-.038.037-.008 0-.014-.005-.02-.01l-.221-.21-.232-.217a1.028 1.028 0 0 1-.058-.056c0-.021.01-.032.03-.031l.001-.001Z"/><path fill="#DC53C7" d="M5.599 14.83c0-.242.001-.484-.007-.726.015-.012.029-.012.044-.001 0 .1.004.2.008.3.004.084.001.168.005.252l.006.174H5.6Z"/><path fill="#09A5D4" d="m8.48 12.958-.552-.248c-.037-.017-.07-.042-.111-.048-.007-.02.006-.033.017-.045.013-.003.025.003.036.008.178.078.357.156.537.233.033.014.069.024.097.05l-.023.05Z"/><path fill="#A861DE" d="M6.263 14.01c.02.074.04.15.062.224l.132.455.007.018a.08.08 0 0 1-.037.012c-.017.002-.02-.011-.024-.023l-.134-.498c-.016-.059-.035-.117-.044-.178.01-.015.022-.019.038-.01Z"/><path fill="#56DA54" d="M7.77 10.544c0-.013.005-.02.017-.027l.225-.112c.069-.036.135-.074.205-.107.065-.031.129-.063.192-.098l.023.044c-.004.016-.02.022-.032.028-.2.099-.401.194-.6.295a.04.04 0 0 1-.018.005c-.012-.006-.019-.014-.01-.028H7.77Z"/><path fill="#0AA7D0" d="m8.503 12.907-.231-.097c-.118-.05-.235-.102-.351-.153l-.086-.038c-.004-.016 0-.03.016-.038.107.051.218.09.327.137.106.046.214.09.32.134a.052.052 0 0 0 .025.006c-.006.017-.009.034-.019.05Z"/><path fill="#6DDA45" d="M7.67 10.364c.015-.023.04-.033.06-.046a43.9 43.9 0 0 1 .425-.266l.128-.077c.007.015.026.024.026.043-.004.015-.016.021-.028.028l-.57.34c-.006.004-.013.009-.021.01-.015-.006-.025-.014-.019-.033Z"/><path fill="#CC57DB" d="M6.044 14.797c.015-.023.001-.047-.002-.07-.018-.132-.04-.263-.06-.395l-.033-.24c0-.005-.005-.009-.007-.013.013-.022.029-.016.045-.006.003.066.018.129.029.193l.059.358c.009.056.024.11.026.166l-.056.008Z"/><path fill="#CCD80C" d="m7.183 8.905-.174.3-.172.297c-.006.01-.011.022-.024.028-.016.002-.028-.003-.033-.02.023-.053.055-.101.084-.153.082-.15.167-.297.25-.447.007-.012.013-.024.026-.031.016.004.025.023.044.025h-.001Z"/><path fill="#13BDB1" d="m8.672 12.393-.283-.069c-.13-.03-.26-.059-.388-.093a.136.136 0 0 1-.035-.013c-.007-.017 0-.028.015-.036.048.001.093.018.14.029.174.037.347.079.521.116.015.003.031.004.043.016a.128.128 0 0 1-.013.05Z"/><path fill="#6D72E4" d="M7.058 14.468c-.074-.145-.147-.29-.223-.433-.032-.062-.068-.122-.098-.185-.005-.01-.007-.02-.011-.03.004-.016.016-.02.031-.016.03.057.059.114.09.17.054.101.11.201.165.301l.09.168c-.012.013-.03.017-.044.025Z"/><path fill="#52DA56" d="M7.784 10.57c.097-.055.197-.103.297-.15.016-.008.033-.015.048-.024.1-.054.206-.093.304-.152.01.018.02.036.026.056-.01-.007-.017-.003-.026.001l-.302.142-.297.139c-.013.006-.026.012-.033.027-.018-.008-.025-.02-.018-.04Z"/><path fill="#AED920" d="M7.789 9.361a.173.173 0 0 1-.042.057l-.398.405c-.02.02-.035.049-.062.064-.016 0-.024-.01-.026-.026.026-.046.065-.08.102-.117.099-.1.191-.208.292-.308.028-.028.055-.059.082-.09.006-.006.011-.016.023-.011l.029.026Z"/><path fill="#437EEA" d="M7.501 14.185c-.05-.054-.09-.116-.136-.175l-.269-.354-.032-.05c.003-.018.015-.025.031-.025.016.04.047.068.072.1.075.1.153.198.229.296.038.049.075.099.114.147a.092.092 0 0 0 .032.03l-.04.03H7.5Z"/><path fill="#66DA4A" d="m8.354 10.094-.5.28-.132.076c-.017 0-.017-.012-.02-.023 0-.02.016-.027.03-.034.085-.052.173-.1.26-.151.099-.059.199-.117.3-.174.012-.007.024-.021.042-.012l.02.038Z"/><path fill="#CFD80A" d="m7.139 8.88-.193.345-.137.245c-.008.015-.015.03-.028.041-.013.005-.022.003-.024-.012.083-.151.167-.302.248-.454.032-.062.071-.12.097-.185.014.003.025.012.037.02Z"/><path fill="#69DA48" d="M8.333 10.056c-.067.031-.13.072-.195.109-.127.072-.253.146-.379.22-.018.011-.045.015-.05.042-.016-.005-.025-.014-.019-.032.029-.027.065-.044.098-.064.129-.078.259-.154.388-.231l.134-.081c.01.011.019.023.023.038Z"/><path fill="#13BEB0" d="m8.686 12.343-.273-.058-.335-.074-.1-.024c-.003-.005-.003-.01.002-.013.01-.016.024-.013.038-.01l.48.103.163.032c.011.003.023.004.031.013 0 .01-.001.02-.007.03v.001Z"/><path fill="#43DA61" d="M7.846 10.708c.002-.02.018-.022.03-.027l.557-.233c.026-.01.051-.023.077-.034a.069.069 0 0 1 .013.037c-.008.018-.026.022-.043.029-.194.079-.389.156-.582.236a.137.137 0 0 0-.04.026c-.016-.007-.018-.018-.012-.032v-.002Z"/><path fill="#41DA62" d="M7.859 10.74c-.002-.013.005-.02.016-.024l.282-.115.366-.15.017.038-.498.197c-.058.023-.118.044-.178.066-.008-.001-.01-.006-.005-.012Z"/><path fill="#ED4C5F" d="M4.028 14.424c.026-.058.06-.113.091-.17.058-.104.118-.207.178-.311.022-.039.045-.077.066-.116.007-.014.02-.025.01-.043.018-.008.027.004.035.018.004.015-.005.028-.012.04-.105.188-.207.376-.31.564-.008.014-.013.032-.034.03a.038.038 0 0 1-.024-.012Z"/><path fill="#AFD920" d="m7.76 9.335-.213.227c-.026.03-.055.057-.081.086-.066.074-.136.143-.204.215-.012-.003-.024-.003-.022-.02.075-.078.15-.156.221-.238.033-.037.07-.072.102-.11.056-.063.118-.12.17-.186l.027.025Z"/><path fill="#ED4C60" d="M4.05 14.437c.035-.03.047-.073.068-.11.09-.159.177-.32.265-.48.008-.014.018-.028.02-.045.014-.006.021.002.024.014l-.234.443-.094.176c-.004.008-.007.015-.016.019a.083.083 0 0 1-.033-.018Z"/><path fill="#C25ADC" d="M6.175 14.774c-.016 0-.018-.013-.02-.026l-.123-.66a.034.034 0 0 1 .005-.027c.008-.013.018-.018.031-.007v.005c-.005.011-.003.023-.001.034l.122.63c.003.015.01.03.012.045-.007.006-.017.005-.026.005v.002Z"/><path fill="#C25ADC" d="M6.202 14.769c-.02-.002-.016-.02-.019-.032-.033-.17-.064-.34-.1-.51-.01-.045-.015-.091-.025-.137-.002-.01-.008-.026.011-.03.02.084.038.17.057.254.03.14.058.281.086.422.003.013.004.025.02.026-.008.007-.02.006-.03.007Z"/><path fill="#DF52B4" d="M5.248 14.812c.01.001.021-.004.031.005-.01 0-.022.002-.031-.005Z"/></g><defs><clipPath id="a"><path fill="#fff" d="M2.4 8.47h33.511v6.502H2.4z"/></clipPath></defs></svg>