<svg xmlns="http://www.w3.org/2000/svg" width="30" height="18" fill="none" viewBox="0 0 30 18"><rect width="29" height="17" x=".5" y=".5" fill="#fff" stroke="#000" rx="1.5"/><g clip-path="url(#a)"><path fill="#252526" d="M28.101 8.117a.818.818 0 0 0-.23-.03c-.23 0-.491.132-.6.356v-.336h-.532v2.353h.531V9.206c0-.435.29-.615.59-.615a.94.94 0 0 1 .236.025l.005-.496v-.003Zm-1.753 1.31c.012-.082.018-.164.015-.246 0-.656-.5-1.117-1.136-1.117a1.197 1.197 0 0 0-1.212 1.183v.03c0 .715.476 1.23 1.196 1.23.484 0 .892-.23 1.062-.55l-.416-.23c-.11.18-.345.307-.61.307-.37 0-.631-.225-.686-.606l1.787-.001Zm-1.759-.406c.07-.31.301-.5.621-.5s.572.205.601.5H24.59Zm-.919.406c.011-.082.016-.164.014-.246 0-.656-.5-1.117-1.136-1.117a1.197 1.197 0 0 0-1.212 1.183v.03c0 .715.476 1.23 1.197 1.23.485 0 .89-.23 1.06-.55l-.415-.23c-.11.18-.345.307-.61.307-.371 0-.631-.225-.686-.606l1.787-.001Zm-1.76-.406c.07-.31.301-.5.621-.5s.572.205.601.5H21.91Zm-.934.097c0-.656-.32-1.055-.92-1.055-.317 0-.607.136-.767.352v-.308h-.536v2.353h.536V9.185c0-.395.285-.646.626-.646.34 0 .52.23.52.621v1.302h.541V9.118Zm-2.584.166c0-.696-.525-1.222-1.221-1.222a1.216 1.216 0 0 0-1.217 1.214v.018c0 .701.506 1.211 1.217 1.211a1.204 1.204 0 0 0 1.221-1.187v-.034Zm-1.907 0c0-.4.296-.723.686-.711.431.013.7.313.69.711-.009.398-.3.711-.69.711-.39 0-.686-.31-.686-.711Zm-1.116-1.177-.652 1.678-.58-1.678h-.606l.871 2.354-.36.826h.576l1.326-3.18h-.575ZM12.69 9.279a.728.728 0 0 1-.712.747h-.034c-.41 0-.686-.32-.686-.747a.748.748 0 0 1 .736-.74c.416 0 .696.32.696.74Zm0-1.172v.308c-.155-.205-.406-.352-.781-.352-.65 0-1.192.576-1.192 1.252s.466 1.192 1.092 1.192c.405 0 .71-.146.879-.386v.34h.525V8.108h-.523ZM8.76 10.46V9.38h.465c.867 0 1.387-.484 1.387-1.207 0-.68-.527-1.076-1.286-1.076H8.199v3.365h.56Zm.54-2.864c.446 0 .748.206.748.642 0 .4-.335.64-.776.64H8.76V7.597h.54Z"/><path fill="#FED0BE" d="M2.204 8.747H2.2v-.082h.004a.089.089 0 0 1 0 .083Z"/><path fill="#FE4700" d="M2.204 8.747v-.083a2.505 2.505 0 0 1 .601-1.554c.075-.086.154-.17.243-.244.023.003.033.022.045.037.085.103.177.2.262.303a.798.798 0 0 0 .055.061c.006.007.015.013.01.025-.02.027-.047.05-.071.074a1.889 1.889 0 0 0-.557 1.108 1.73 1.73 0 0 0-.018.239 1.971 1.971 0 0 0 .207.868.026.026 0 0 1 .003.011c-.002.014-.013.018-.022.024-.048.028-.099.052-.148.077-.1.053-.2.106-.3.156-.01.005-.02.016-.032.003-.04-.066-.068-.137-.097-.208a2.544 2.544 0 0 1-.18-.897Z"/><path fill="#FD4A00" d="m3.42 7.287-.197-.223-.158-.181c-.005-.006-.012-.01-.018-.016.05-.046.102-.09.16-.127.012-.002.016.009.021.016l.259.355.041.056c.006.009.013.017.011.029-.013.02-.036.03-.054.047l-.046.038c-.006.004-.01.012-.019.006Z"/><path fill="#E1D401" d="M5.444 6.391a.95.95 0 0 1 .164.064c.007.009 0 .016-.002.024-.061.148-.125.294-.184.443-.007.018-.012.039-.03.05-.012.003-.021-.002-.03-.006a4.563 4.563 0 0 0-.083-.031c-.008-.003-.018-.004-.02-.015.05-.138.094-.277.14-.417l.031-.093c.003-.008.006-.015.014-.019Z"/><path fill="#07A1DA" d="M6.867 9.803a1.058 1.058 0 0 1-.071.137c-.022.001-.037-.014-.054-.024l-.358-.205c-.027-.015-.057-.025-.076-.053a.279.279 0 0 1 .055-.105c.011-.002.02.004.03.01.124.062.25.12.376.182.026.014.054.025.08.039.008.004.02.006.018.02Z"/><path fill="#F04C4E" d="M3.334 10.787c-.04-.025-.081-.047-.116-.078l.115-.16c.065-.09.13-.182.197-.272.006-.008.01-.017.016-.024a.22.22 0 0 1 .095.064c.002.009-.003.015-.007.022l-.275.429c-.005.008-.008.024-.025.019Z"/><path fill="#20DA85" d="M7.08 8.3c.012.05.017.1.023.15-.09.013-.18.022-.268.032l-.26.03c-.012.001-.02.009-.027.017-.005 0-.009-.001-.01-.006-.006-.04-.016-.079-.012-.12.02-.008.042-.009.063-.012.15-.025.299-.052.448-.075A.1.1 0 0 0 7.08 8.3Z"/><path fill="#FC5000" d="M3.274 6.692c.034-.025.068-.05.106-.069.016-.005.02.01.026.019.056.092.113.183.167.275l.098.161c.003.006.007.013.007.02a.193.193 0 0 1-.084.056c-.024-.015-.035-.041-.05-.063a76.642 76.642 0 0 0-.27-.4Z"/><path fill="#E4CD01" d="m5.444 6.391-.117.348-.054.162c-.002.007-.002.019-.014.02-.026.008-.047-.01-.07-.014-.01-.002-.02-.004-.023-.016.032-.087.05-.178.077-.267.024-.077.044-.155.065-.233.003-.014.004-.03.02-.037a.71.71 0 0 1 .116.037Z"/><path fill="#DED701" d="M5.388 6.97c.026-.03.033-.066.048-.1l.17-.406.002-.01c.036.011.07.026.102.045.014.009.005.02.001.03-.027.065-.062.127-.09.191-.041.09-.086.177-.127.267-.005.01-.009.021-.021.025-.03-.01-.061-.018-.084-.042Z"/><path fill="#B7D91B" d="M6.189 6.795c.032.02.06.046.087.071.007.011.001.019-.005.026l-.14.16c-.067.077-.137.15-.203.228-.004.005-.008.012-.015.014-.01.002-.018-.003-.023-.01-.017-.02-.045-.029-.056-.055.072-.085.14-.172.21-.259.043-.055.089-.108.13-.164.004-.005.008-.01.015-.012v.001Z"/><path fill="#FA5600" d="m3.676 7.098-.14-.232a65.937 65.937 0 0 0-.141-.23c-.004-.006-.008-.013-.016-.013.035-.022.07-.045.108-.062.023.027.037.06.054.09l.207.38c.004.007.01.014.007.024-.019.023-.046.032-.071.046-.003.001-.006 0-.008-.003Z"/><path fill="#25DA7B" d="M7.04 8.107c.011.03.014.061.02.092.008.02-.005.024-.02.027-.081.017-.162.036-.243.052-.083.017-.165.037-.248.052-.013.003-.025.008-.037-.002a.147.147 0 0 1-.017-.075c.005-.012.016-.015.027-.017.162-.041.322-.085.484-.126.01-.003.023-.01.034-.002Z"/><path fill="#FC480B" d="M2.591 10.046c-.024-.03-.04-.065-.057-.097.05-.034.103-.062.156-.093.095-.055.19-.112.286-.165.015-.009.028-.02.042-.03.018.005.018.024.028.037a.116.116 0 0 1 .018.04c-.002.015-.014.02-.024.026l-.256.164c-.054.036-.11.07-.165.105-.008.006-.015.015-.027.012Z"/><path fill="#FD4805" d="M3.018 9.663c-.014.027-.043.036-.066.05l-.374.215c-.014.008-.026.02-.045.02a10.474 10.474 0 0 1-.052-.096c.01.005.017-.002.024-.006l.46-.24c.006-.003.011-.005.014-.012a.09.09 0 0 1 .038.069Z"/><path fill="#F94917" d="m2.709 10.215-.064-.092c.024-.024.055-.041.083-.061.122-.086.245-.169.367-.255a.029.029 0 0 1 .01-.006c.027.016.04.043.052.07-.002.012-.012.016-.02.023l-.373.284c-.01.007-.017.015-.026.022-.009.006-.016.016-.029.015Z"/><path fill="#E5C801" d="M5.327 6.354c-.024.066-.038.134-.057.202-.03.102-.058.205-.086.308-.004.011-.006.022-.018.028a.091.091 0 0 1-.078-.02c.01-.048.023-.096.035-.145l.093-.402.111.03v-.001Z"/><path fill="#22DA7F" d="M6.515 8.325c.028.007.055-.005.081-.011.121-.024.242-.05.362-.077.03-.007.058-.014.087-.018.013-.002.016-.01.015-.02a.393.393 0 0 1 .02.101c0 .018-.014.018-.025.02l-.234.039-.271.047a.026.026 0 0 1-.02-.003.089.089 0 0 1-.015-.078Z"/><path fill="#BBD919" d="M6.049 6.692c.03.015.056.037.082.059-.004.025-.023.041-.037.06l-.273.361c-.008.01-.013.024-.029.027a.128.128 0 0 1-.065-.045.027.027 0 0 1 .007-.013c.1-.143.196-.287.296-.43.004-.008.008-.017.019-.018Z"/><path fill="#1CD390" d="M7.114 8.591a.866.866 0 0 1 .004.127c-.012.01-.026.008-.04.008h-.456c-.021 0-.043.008-.064 0-.02-.037-.016-.075-.007-.113.005-.003.008 0 .009.003.005.022.02.02.037.018.05-.002.1-.002.15-.005.109-.008.218-.01.326-.015.019 0 .032-.006.04-.023Z"/><path fill="#FA4911" d="M3.106 9.802c-.014.017-.033.028-.05.04l-.323.223c-.029.02-.056.044-.088.058a8.147 8.147 0 0 0-.053-.077l.447-.287c.008-.005.019-.009.023-.02.027.013.034.039.044.063Z"/><path fill="#F8491E" d="m2.71 10.215.245-.189c.067-.05.133-.103.2-.155.024.012.04.034.05.059-.017.027-.044.044-.068.064-.112.094-.227.184-.337.28-.008.007-.016.017-.03.014a.567.567 0 0 1-.06-.073Z"/><path fill="#F95C00" d="m3.754 7.055-.136-.25-.127-.232-.003-.012a.524.524 0 0 1 .082-.043c.009.005.012.015.016.023l.224.449c.005.01.012.019.01.031a.088.088 0 0 1-.066.034Z"/><path fill="#E7B801" d="m4.974 6.281.092.014c.01.011.005.023.003.035-.027.16-.053.321-.082.481-.002.015 0 .032-.017.04-.025.004-.05.005-.07-.012-.002-.05.01-.097.015-.146l.048-.37c.002-.014.001-.03.01-.042h.001Z"/><path fill="#1DD68C" d="M7.114 8.591c.004.026-.008.03-.03.03-.088.006-.175.004-.263.01-.07.005-.142.01-.213.01h-.01c-.024.002-.04-.008-.045-.03-.012-.012-.01-.025-.003-.039.013-.01.029-.01.044-.011l.346-.028c.044-.004.088-.005.132-.01a.121.121 0 0 0 .037-.01c.007.026.004.052.004.078Z"/><path fill="#BFD816" d="M6.05 6.692c-.088.128-.175.256-.263.382-.018.027-.033.057-.059.079a.07.07 0 0 1-.056-.034c.002-.022.017-.037.029-.055l.254-.403c.005-.006.007-.014.016-.017.028.012.052.03.078.048Z"/><path fill="#D9D804" d="M5.473 7.007c.015-.01.016-.028.024-.043l.057-.12.155-.323c.003-.008.007-.015.001-.023.03.013.06.026.087.044.003.005.001.01 0 .014-.059.11-.115.22-.173.33-.028.051-.054.104-.083.156a.087.087 0 0 1-.068-.036v.001Z"/><path fill="#F66800" d="M3.71 6.455a.466.466 0 0 1 .086-.035c.013-.002.013.01.016.017l.158.423c.01.028.026.054.028.084a.09.09 0 0 1-.065.027c-.01-.005-.012-.016-.017-.026-.065-.153-.128-.306-.192-.46l-.014-.03Z"/><path fill="#059CE1" d="M6.31 9.658c.055.04.117.069.175.103.103.061.207.12.311.178-.016.024-.026.051-.045.073-.008.005-.015 0-.022-.005a69.039 69.039 0 0 1-.459-.286.094.094 0 0 1 .04-.064Z"/><path fill="#E7B301" d="M4.974 6.281c-.003.048-.01.095-.017.143l-.022.169-.021.161a3.162 3.162 0 0 0-.008.064c0 .007.002.015-.005.02-.023.012-.044.006-.064-.005-.013-.03-.002-.06.001-.09.014-.129.022-.258.038-.387.003-.028 0-.057.006-.084l.092.01Z"/><path fill="#FC4D00" d="M3.274 6.692c.019.011.027.032.039.048a18.254 18.254 0 0 1 .281.412c-.016.018-.03.04-.058.043-.018-.04-.047-.071-.072-.105-.08-.115-.165-.227-.248-.34l-.01-.01a.388.388 0 0 1 .068-.048Z"/><path fill="#0191F2" d="M6.689 10.11a.219.219 0 0 1-.044.062c-.01.006-.018 0-.026-.006a20.94 20.94 0 0 0-.36-.264c-.018-.013-.035-.028-.054-.041-.008-.005-.015-.012-.015-.024a.11.11 0 0 1 .038-.05c.015.002.026.012.038.02.12.085.243.167.365.25l.045.032c.007.005.016.01.013.02v.001Z"/><path fill="#F86000" d="m3.818 7.021-.011-.026-.225-.45c-.005-.008-.008-.018-.011-.027a.495.495 0 0 1 .072-.034c.013 0 .014.01.018.017l.21.46c.005.01.01.02.008.032-.017.018-.034.033-.061.028Z"/><path fill="#0C8DF1" d="m6.596 10.234-.049.063c-.015.007-.022-.006-.03-.013-.063-.05-.124-.103-.186-.154l-.196-.164c-.01-.008-.02-.015-.022-.028a.096.096 0 0 1 .042-.054c.088.066.175.136.262.204l.164.129c.006.005.013.009.015.017Z"/><path fill="#1ED889" d="M7.11 8.513c0 .009-.003.015-.014.016-.04.002-.08.006-.12.01l-.227.019c-.047.003-.093.008-.14.01-.019 0-.037.006-.057.005-.016-.013-.014-.028-.005-.044-.001-.014.004-.023.02-.024l.223-.025.2-.023c.027-.002.055-.006.083-.01a.04.04 0 0 1 .03.004c.003.021.007.041.007.062Z"/><path fill="#E54F8D" d="M4.038 11.098a.388.388 0 0 1-.076-.02c-.007-.01-.002-.02.001-.028l.135-.452c.006-.02.007-.043.023-.06a.085.085 0 0 1 .065.016c.003.007.001.014 0 .02l-.13.497c-.003.01 0 .025-.018.027Z"/><path fill="#F74A29" d="M2.877 10.41a.428.428 0 0 1-.057-.064c.092-.082.186-.163.278-.246.038-.035.079-.068.116-.105a.071.071 0 0 1 .028-.02c.023.007.031.027.042.046.001.011-.007.019-.014.026-.097.096-.195.188-.295.281-.02.019-.038.04-.059.057-.011.01-.02.025-.04.024Z"/><path fill="#D953D5" d="M4.917 11.165a.309.309 0 0 1-.083.01c-.013-.03-.01-.062-.011-.093a64.82 64.82 0 0 1-.023-.303c-.003-.037-.007-.074-.008-.111 0-.04-.004-.042-.042-.044-.015 0-.03.003-.044-.004-.003-.001-.004-.004-.002-.007.003-.001-.002-.001.002-.001a.61.61 0 0 1 .153-.006c.017.027.012.058.016.087l.027.248.02.202a.032.032 0 0 1-.005.023Z"/><path fill="#E6BE01" d="M4.969 6.848c.018-.013.011-.034.014-.052l.059-.337.025-.163c.028.002.055.009.082.015.008.022-.002.043-.006.063l-.094.465a.051.051 0 0 1-.01.024c-.025.003-.05.004-.07-.015Z"/><path fill="#1BD094" d="M6.558 8.722c.186-.01.373-.001.56-.004V8.8c-.015.012-.033.008-.049.007-.093-.006-.186-.006-.28-.01-.069-.004-.139-.002-.209-.01-.008 0-.017 0-.025-.006-.008-.02-.01-.04.002-.059Z"/><path fill="#16C4A8" d="M7.09 9.087a.452.452 0 0 1-.015.087.08.08 0 0 0-.037-.015c-.153-.03-.306-.055-.46-.084-.018-.004-.038-.004-.056-.008-.004-.026-.004-.05.015-.072.018-.006.037 0 .055.003l.463.068a.17.17 0 0 1 .026.005c.007.003.013.006.008.016Z"/><path fill="#F74923" d="m3.242 9.976-.094.086c-.024.023-.05.044-.074.066a7.697 7.697 0 0 1-.192.168c-.012.01-.023.023-.034.034a.047.047 0 0 1-.029.017c-.017-.02-.034-.038-.048-.058.05-.036.093-.08.141-.116.044-.033.085-.07.128-.107.05-.043.105-.082.153-.128.002-.003.006-.005.01-.007.024.005.031.026.039.046v-.001Z"/><path fill="#1ACE98" d="M6.558 8.78c.064.001.128.005.192.007.049.002.099 0 .148.004.074.005.147.005.22.01l-.005.082c-.006.004-.014.003-.02.003l-.265-.018c-.065-.004-.13-.01-.195-.012a.276.276 0 0 1-.08-.01c-.01-.023-.014-.045.005-.065Z"/><path fill="#EF4C55" d="M3.333 10.787c.02-.01.026-.03.037-.046l.218-.342c.017-.027.037-.052.05-.082.026 0 .043.013.056.034a.042.042 0 0 1-.009.024l-.26.437c-.006.009-.01.02-.023.018a.516.516 0 0 1-.069-.043Z"/><path fill="#5A77E7" d="M6.01 10.777a.428.428 0 0 1-.072.045c-.008-.002-.012-.008-.015-.014-.089-.149-.18-.296-.27-.444-.004-.007-.008-.014-.008-.022a.084.084 0 0 1 .056-.036c.02.022.033.05.05.074.085.127.167.256.252.382.003.005.007.01.007.015Z"/><path fill="#08A4D6" d="M6.867 9.803c-.02-.02-.046-.027-.07-.038-.062-.031-.126-.06-.189-.09a21.802 21.802 0 0 1-.227-.112l-.019-.007c-.003-.024.011-.04.025-.055.016-.005.028.003.042.009.148.07.3.134.449.203.009.005.02.007.024.018a.435.435 0 0 1-.035.072Z"/><path fill="#F14B49" d="M3.546 10.254c-.003.027-.025.045-.04.065-.088.119-.174.24-.26.36-.008.011-.015.024-.03.03-.018-.013-.037-.025-.053-.042-.006-.012.002-.02.009-.028l.314-.406c.005-.006.009-.012.016-.014.02.004.036.014.044.035Z"/><path fill="#F76400" d="M3.875 6.993c-.007-.03-.023-.058-.035-.086l-.185-.403c-.003-.007-.005-.016-.012-.02a.286.286 0 0 1 .068-.03c.007 0 .01.007.013.012l.122.296.087.206a.058.058 0 0 1-.058.025Z"/><path fill="#E84E7B" d="M3.82 11.03a.329.329 0 0 1-.066-.025c-.01-.013 0-.024.004-.034l.148-.37.04-.1c.004-.007.007-.016.015-.02.02-.004.036.008.052.018.01.013.002.025-.002.037-.032.091-.067.183-.1.274l-.072.198c-.003.009-.004.022-.018.02v.002Z"/><path fill="#E6C201" d="m5.037 6.861.1-.49.011-.06.068.013c.01.014 0 .027-.002.04l-.081.349-.033.14c-.002.007-.004.014-.011.018-.02.01-.037.003-.052-.01Z"/><path fill="#058FF2" d="m6.596 10.235-.222-.173a9.348 9.348 0 0 1-.195-.153c-.009-.007-.02-.011-.023-.023a.064.064 0 0 1 .039-.049c.007.025.033.032.05.045.077.06.157.115.235.173l.146.11a.03.03 0 0 0 .02.006.45.45 0 0 1-.05.063Z"/><path fill="#EA9F00" d="M4.542 6.265a.427.427 0 0 1 .098-.003c.01.01.008.024.008.036v.266c-.001.074.006.149.005.223 0 .012.002.024-.005.035a.12.12 0 0 1-.094.007c-.001-.004 0-.008.002-.008.028-.007.025-.028.024-.048-.006-.102-.012-.204-.015-.306-.002-.057-.006-.114-.01-.171a.054.054 0 0 0-.012-.03Z"/><path fill="#B9D91A" d="M5.792 7.196c.024-.019.039-.046.057-.07l.283-.375c.024.01.039.03.058.044-.024.04-.056.074-.085.11a69.3 69.3 0 0 1-.167.21l-.087.108a.018.018 0 0 1-.015.008.054.054 0 0 1-.044-.034Z"/><path fill="#F56E00" d="m3.996 6.944-.149-.395c-.016-.043-.028-.088-.05-.129a.366.366 0 0 1 .067-.024c.016-.001.017.012.021.021.024.056.038.115.059.172.036.102.069.205.104.307.003.01.007.019.004.029-.015.016-.032.026-.055.019Z"/><path fill="#E64F86" d="m4.122 10.54-.12.406-.04.132c-.026-.006-.052-.012-.077-.024.002-.013.008-.026.012-.038l.16-.482a.038.038 0 0 1 .006-.013c.023-.001.044.002.06.02v-.001Z"/><path fill="#19CB9C" d="M6.553 8.844c.07.005.142.006.213.014.031.003.062.002.094.005.078.007.156.01.234.015.007 0 .013.003.019.005l-.005.068c-.008.012-.02.007-.03.006l-.167-.016c-.096-.009-.192-.017-.288-.028-.026-.002-.052 0-.077-.01-.009-.02-.012-.041.006-.06Z"/><path fill="#E94D74" d="M3.962 10.483c-.034.07-.06.146-.09.218-.04.096-.077.191-.114.287-.003.005-.003.011-.004.017a.355.355 0 0 1-.073-.029c-.003-.006 0-.012.002-.018.069-.154.135-.309.203-.462.005-.013.01-.028.023-.036.02.002.04.004.053.023Z"/><path fill="#EE8D00" d="M4.267 6.295c.022-.007.044-.007.067-.01.019-.005.021.01.023.022l.029.21c.01.095.026.188.037.283.002.017.006.034-.013.045-.015.006-.03.011-.047.005a.031.031 0 0 1-.01-.024l-.086-.532Z"/><path fill="#ED9200" d="M4.407 6.841c.012-.006.011-.017.01-.027l-.026-.193-.022-.167a18.585 18.585 0 0 1-.02-.154c0-.01-.006-.014-.015-.015a.31.31 0 0 1 .083-.01c.014.001.012.013.013.022.014.153.031.306.047.459.002.025.01.05.002.076a.071.071 0 0 1-.07.009h-.002Z"/><path fill="#0FB4BF" d="M7.007 9.45a.183.183 0 0 1-.02.062c-.01.01-.021.004-.031 0a75.45 75.45 0 0 0-.445-.153c-.02-.006-.04-.011-.057-.025 0-.021.003-.041.02-.057.038.002.071.02.107.03.127.038.253.08.38.117a.192.192 0 0 1 .032.01c.007.004.016.005.015.017Z"/><path fill="#F18000" d="M4.058 6.338a.366.366 0 0 1 .078-.019c.01.007.01.018.013.027.037.166.072.333.11.498 0 .007.003.014 0 .022-.015.016-.035.019-.056.017-.014-.009-.015-.024-.018-.038l-.107-.432-.02-.075Z"/><path fill="#F24B46" d="M3.502 10.22c-.09.117-.18.233-.268.35-.025.032-.054.06-.07.097a.456.456 0 0 1-.064-.05c.02-.033.047-.061.072-.09l.21-.257c.024-.03.044-.063.077-.086.021.005.036.016.043.037Z"/><path fill="#E151A4" d="M4.311 11.155c-.026-.004-.052-.007-.077-.014a35.165 35.165 0 0 0 .09-.518c.002-.013.003-.027.015-.037a.07.07 0 0 1 .056.012c.005.025-.003.05-.006.074l-.062.428c-.002.019 0 .04-.015.055Z"/><path fill="#EA4D6F" d="M3.908 10.463c-.043.089-.08.18-.12.27l-.107.243a.358.358 0 0 1-.07-.033l.046-.096c.062-.127.12-.256.181-.384.005-.009.008-.019.016-.026a.06.06 0 0 1 .054.026Z"/><path fill="#E9A300" d="M4.644 6.823c-.006-.187-.004-.374-.005-.561h.073c.005.005.004.012.004.018-.003.057.001.114-.002.17-.005.094-.002.188-.005.283 0 .03 0 .061-.01.09-.019.01-.037.012-.055 0Z"/><path fill="#EB9A00" d="M4.542 6.265c.016-.001.02.006.02.021 0 .088.008.176.011.265.003.076.007.151.013.227.003.039 0 .04-.033.049-.008.008-.017.007-.025.002-.008-.01-.007-.02-.007-.03 0-.078-.013-.154-.016-.232-.004-.08-.014-.161-.018-.243 0-.02 0-.042-.022-.054.025-.007.051-.005.077-.005Z"/><path fill="#EC9600" d="M4.465 6.27c.017-.002.025.004.028.023.004.031.003.062.006.094.009.098.012.196.02.295.006.049.01.097.01.146-.017.016-.035.016-.054.005l-.018-.177a4.86 4.86 0 0 1-.01-.112 2.936 2.936 0 0 0-.019-.165c-.004-.026-.004-.053-.006-.079-.001-.008.003-.018-.006-.025.015-.005.032-.004.048-.004Z"/><path fill="#EB4D69" d="M3.856 10.439c-.012.027-.023.054-.036.08l-.157.33-.03.068c-.005.01-.01.02-.02.026l-.062-.03c0-.008.005-.014.008-.02.075-.153.155-.303.23-.456.005-.009.008-.02.018-.025.021 0 .039.007.049.027Z"/><path fill="#E8AE01" d="M4.882 6.271c.01.019.006.039.004.057-.008.085-.018.168-.024.253-.004.07-.015.14-.023.21v.04c-.02.012-.038.005-.056-.003-.007-.01-.005-.022-.005-.033 0-.068.009-.135.012-.203.003-.06.009-.12.011-.18.002-.038.007-.075.007-.112 0-.012.002-.024.01-.033.022-.003.043.002.064.004Z"/><path fill="#17C6A3" d="M7.09 9.087c-.001-.012-.01-.01-.018-.01a16.288 16.288 0 0 0-.307-.048l-.228-.03c-.01-.018-.004-.034.004-.05.012-.013.028-.01.043-.01.14.019.281.034.421.051.026.003.051.005.077.01.016.003.025.01.018.029 0 .02-.004.04-.01.058Z"/><path fill="#F08400" d="m4.257 6.866-.058-.26a66.641 66.641 0 0 1-.063-.287.408.408 0 0 1 .073-.014c.005.004.006.01.007.017l.095.502c.002.01.006.022.002.033-.017.013-.035.02-.055.009Z"/><path fill="#2ADA75" d="m7.04 8.107-.39.102c-.045.012-.088.026-.133.034a.025.025 0 0 0-.018.01C6.48 8.24 6.48 8.22 6.48 8.2c.01-.017.03-.018.046-.023.139-.04.277-.079.416-.121.02-.006.04-.01.06-.017.007-.002.013-.004.019.001l.019.068Z"/><path fill="#E74E81" d="M4.063 10.522c0 .006 0 .012-.002.018l-.083.245-.08.243c-.003.01-.003.021-.014.026a.277.277 0 0 1-.064-.024c.012-.01.014-.025.02-.039.037-.107.076-.214.115-.322.018-.047.037-.094.052-.143.002-.008.008-.015.003-.025.023-.005.038.007.053.02Z"/><path fill="#14C0AD" d="M6.524 9.067c.03-.012.057.002.085.007l.339.06.11.02c.011.002.018.008.017.02 0 .02-.003.039-.01.058-.016.002-.031-.005-.047-.008-.155-.032-.31-.064-.465-.098-.014-.003-.027 0-.04 0-.006-.022-.004-.042.011-.059Z"/><path fill="#E2509E" d="M4.34 10.59c-.015.045-.02.093-.028.14-.012.061-.02.123-.031.184l-.037.21c-.002.008 0 .015-.01.016a.3.3 0 0 1-.063-.01c-.006-.007-.003-.015 0-.023.033-.165.065-.33.1-.494.003-.012.004-.025.011-.036.022-.004.041-.004.059.012Z"/><path fill="#E45094" d="M4.038 11.098c.014-.016.015-.037.02-.056l.127-.486c.021-.008.038 0 .055.013-.001.035-.013.066-.02.1l-.098.426c-.002.009-.001.02-.015.022a.311.311 0 0 1-.068-.02v.001Z"/><path fill="#F37600" d="M3.934 6.373A.4.4 0 0 1 4 6.353c.02.03.025.066.034.1l.078.28c.014.048.025.096.04.145.001.006.003.012 0 .018a.072.072 0 0 1-.056.016c-.015-.025-.022-.053-.03-.08-.042-.145-.09-.289-.133-.433-.002-.008-.007-.017 0-.025v-.001Z"/><path fill="#EF8900" d="m4.31 6.856-.048-.252-.052-.268-.001-.031a.17.17 0 0 1 .057-.01c.01 0 .01.008.011.015l.035.225.043.263c.002.016 0 .034.008.05-.016.014-.033.018-.053.009Z"/><path fill="#F27B00" d="m4.15 6.894-.106-.382L4 6.352a.203.203 0 0 1 .058-.014c.01 0 .009.009.011.016.024.08.042.163.062.244l.063.257c.002.008.006.016.01.025-.016.012-.033.02-.054.014Z"/><path fill="#94D92F" d="M6.54 7.133c.017.015.028.036.043.053-.008.019-.026.026-.04.038-.08.064-.158.13-.239.192-.047.037-.092.078-.141.113-.005.004-.01.009-.017.01a.074.074 0 0 1-.04-.048c.065-.053.128-.108.192-.162l.22-.186c.005-.005.01-.014.022-.01Z"/><path fill="#A5D925" d="M6.416 6.998c.017.013.03.03.045.047.006.012-.004.02-.011.027l-.15.139c-.033.03-.063.06-.096.089-.045.04-.087.082-.132.12-.005.006-.01.011-.019.012-.019-.008-.034-.02-.04-.042.085-.083.167-.168.252-.25l.132-.128c.005-.006.01-.012.02-.013Z"/><path fill="#E051AA" d="m4.31 11.155.044-.305c.009-.06.02-.12.028-.18.003-.024.004-.048.01-.071.015-.012.028-.003.042 0 .014.009.015.023.013.036l-.035.296-.023.2c-.003.028-.007.031-.03.029a.15.15 0 0 1-.048-.006Z"/><path fill="#6374E6" d="m5.647 10.342.291.48c-.017.015-.04.022-.058.034-.014-.007-.018-.021-.024-.033a54.6 54.6 0 0 1-.239-.418c-.007-.013-.018-.024-.016-.04.013-.013.025-.027.046-.023Z"/><path fill="#F54A36" d="M3.009 10.54a.23.23 0 0 1-.044-.044c.017-.027.04-.049.061-.07.095-.1.187-.2.285-.296.014-.014.022-.034.042-.043.019.005.03.019.037.035-.003.024-.022.037-.036.053-.083.094-.169.186-.252.28a.978.978 0 0 1-.068.075c-.007.006-.013.016-.025.01Z"/><path fill="#F47200" d="m3.932 6.373.131.424.034.113c-.013.016-.028.023-.048.014-.044-.13-.09-.26-.133-.391-.013-.039-.024-.078-.039-.116-.003-.008-.003-.018-.014-.02a.293.293 0 0 1 .07-.024Z"/><path fill="#DB53D0" d="M4.747 10.618c.053-.001.051-.001.054.054.003.083.011.166.018.249.003.046.008.092.01.139.002.038.009.076.005.115a.649.649 0 0 1-.106.004l.001-.005c.034-.005.03-.03.03-.055-.005-.107-.008-.213-.014-.32-.002-.049-.006-.099-.006-.149 0-.01 0-.023.008-.032Z"/><path fill="#8CD933" d="m6.144 7.536.185-.148.254-.202a.26.26 0 0 1 .038.048c.002.014-.01.018-.017.024l-.275.21c-.043.031-.084.067-.129.097-.008.005-.015.012-.025.012-.018-.008-.03-.02-.03-.04l-.001-.001Z"/><path fill="#AAD922" d="M6.416 6.998a3.49 3.49 0 0 1-.15.148c-.077.074-.151.151-.227.227-.007.007-.013.017-.025.017a.046.046 0 0 1-.035-.034.449.449 0 0 1 .052-.06c.102-.099.196-.204.298-.303.013-.014.022-.032.038-.043.018.015.034.03.049.049Z"/><path fill="#F64A2E" d="M2.877 10.41a.355.355 0 0 0 .046-.038c.081-.079.161-.158.244-.234.034-.031.066-.064.1-.096.005-.006.013-.011.013-.021.022.005.033.02.042.04-.002.012-.012.018-.02.026l-.215.216c-.049.048-.095.1-.146.147-.005.004-.007.012-.016.009-.017-.016-.035-.03-.048-.049Z"/><path fill="#D355D9" d="M4.916 11.165c-.007-.058-.015-.116-.018-.174-.003-.054-.013-.108-.017-.162-.003-.052-.01-.103-.017-.155l-.007-.066c.011-.02.029-.01.044-.01.014.007.015.02.017.033l.039.297c.01.068.015.137.026.204.002.01.003.021-.01.027-.019.003-.038.008-.057.007Z"/><path fill="#5279E8" d="M6.01 10.777c-.015-.01-.022-.026-.031-.04l-.274-.418-.005-.011c.01-.018.023-.03.045-.03.098.147.202.292.302.439.005.008.014.013.018.022a.331.331 0 0 1-.055.037v.001Z"/><path fill="#36DA6A" d="M6.968 7.875c.008.019.017.037.02.058-.01.012-.026.016-.04.02-.152.051-.303.105-.455.155-.012.004-.022.01-.033.015-.018-.016-.023-.036-.02-.06.013-.011.03-.013.046-.019.152-.058.305-.112.457-.169.008-.003.017-.007.025 0Z"/><path fill="#E35099" d="M4.107 11.117c.016-.043.022-.089.033-.133.02-.08.037-.162.056-.244l.032-.145a.109.109 0 0 1 .01-.025c.015-.004.03 0 .043.01.001.027-.01.052-.015.078l-.092.454a.283.283 0 0 1-.004.018c-.022 0-.043-.007-.064-.013Z"/><path fill="#3881EB" d="M6.266 10.583a.244.244 0 0 1-.047.04c-.015.002-.02-.01-.028-.019-.086-.105-.173-.21-.257-.317-.021-.026-.042-.053-.065-.077-.005-.006-.01-.01-.011-.018a.072.072 0 0 1 .04-.037c.03.024.052.054.075.082l.205.238c.03.035.065.067.088.108Z"/><path fill="#F34B40" d="m3.46 10.185-.19.23a9.073 9.073 0 0 1-.148.183l-.021.02a.273.273 0 0 1-.048-.04c.015-.027.038-.049.058-.073.08-.094.16-.188.243-.28.021-.024.038-.054.067-.072.018.004.032.013.038.032Z"/><path fill="#836BE2" d="M5.661 10.966a.341.341 0 0 1-.067.03c-.017-.019-.022-.043-.03-.066-.036-.082-.068-.165-.102-.248l-.071-.172c-.005-.012-.013-.024-.007-.037.013-.011.028-.022.046-.02.03.055.052.112.078.169l.138.314.016.03Z"/><path fill="#8A69E1" d="M5.385 10.473c.011.045.031.086.049.128.04.094.078.19.116.285.014.037.035.07.043.11a.249.249 0 0 1-.058.024c-.015-.013-.017-.033-.023-.05-.057-.15-.113-.3-.172-.45-.003-.008-.007-.015-.007-.023.012-.02.03-.026.051-.024h.001Z"/><path fill="#EE4C5A" d="M3.401 10.83c.026-.025.04-.06.059-.09l.173-.289.058-.1c.018-.007.027.006.038.016.008.013.003.024-.003.034l-.202.355c-.014.025-.027.051-.042.076-.007.011-.012.024-.023.033l-.057-.035Z"/><path fill="#79D93E" d="M6.687 7.327a.334.334 0 0 1 .036.053c-.04.03-.08.057-.122.083-.111.071-.22.145-.332.216-.005.004-.01.008-.017.008-.017-.01-.03-.024-.03-.045l.168-.117.267-.186c.01-.006.018-.016.03-.012Z"/><path fill="#DF51AF" d="M4.359 11.16c.014.002.02-.004.022-.018l.013-.104.022-.19.016-.143.009-.067c.001-.012.005-.026-.009-.035.02-.014.037-.002.055.002.008.007.008.015.008.024-.006.09-.017.178-.024.267l-.021.243c-.001.01 0 .02-.008.03h-.015c-.007-.005-.016 0-.024-.005-.015 0-.03.002-.044-.005v.001Z"/><path fill="#B2D91E" d="M5.912 7.294c.023-.039.057-.07.087-.103l.175-.199.09-.1c.006-.008.013-.014.012-.025a.347.347 0 0 1 .048.043c.003.009-.003.014-.008.019-.06.066-.123.132-.183.199-.053.058-.109.114-.16.174-.01.01-.017.02-.03.024-.017-.005-.028-.014-.031-.031Z"/><path fill="#0DAFC5" d="m6.456 9.333.499.173c.01.003.021.008.033.007a.324.324 0 0 1-.024.063 3.788 3.788 0 0 1-.118-.042l-.388-.143c-.007-.003-.015-.006-.02-.013-.003-.019.002-.034.018-.044Z"/><path fill="#9167E0" d="M5.336 10.495c.037.093.073.185.108.279.03.082.065.163.092.246a.123.123 0 0 1-.043.015c-.014.006-.019-.002-.023-.013l-.089-.251-.085-.24c-.002-.006-.005-.013-.005-.02.012-.016.028-.02.046-.016Z"/><path fill="#9AD92B" d="m6.54 7.133-.177.149-.176.149-.065.054c-.004.003-.008.007-.015.007-.018-.004-.025-.018-.03-.034l.155-.138c.051-.046.103-.09.154-.137.032-.03.067-.057.099-.088.004-.005.009-.01.016-.006a.254.254 0 0 1 .038.043Z"/><path fill="#776FE3" d="M5.768 10.918c-.018.015-.042.017-.062.029-.01-.007-.014-.018-.018-.028l-.213-.454c-.005-.012-.01-.023 0-.034.011-.009.022-.018.037-.014.008.006.011.015.016.024.05.104.104.205.154.31.02.037.035.077.055.115.01.018.018.035.031.051Z"/><path fill="#7D6DE3" d="M5.478 10.434c-.005.007-.004.014-.001.022l.107.228c.04.088.084.174.121.263a.176.176 0 0 1-.044.019c-.023-.01-.023-.033-.031-.051a19.209 19.209 0 0 1-.136-.309c-.022-.05-.048-.1-.065-.152.014-.014.027-.027.049-.02Z"/><path fill="#0296EB" d="M6.69 10.11c-.012-.02-.033-.028-.051-.04-.105-.073-.21-.145-.316-.216-.032-.02-.062-.044-.094-.065-.003-.017.008-.027.019-.037.011-.004.02.003.028.008.137.09.274.18.412.267.013.008.027.016.036.028a.337.337 0 0 1-.035.055Z"/><path fill="#F54A31" d="M2.925 10.458c.043-.044.088-.086.13-.13.087-.092.18-.177.264-.27a.047.047 0 0 1 .033.033c-.04.049-.088.091-.132.137l-.199.21c-.018.02-.035.042-.057.058-.016-.01-.027-.024-.04-.037Z"/><path fill="#2EDA71" d="m7.021 8.04-.386.113-.13.037c-.007.002-.015.002-.02.01-.017-.007-.013-.022-.016-.034 0-.016.01-.022.024-.026.122-.038.243-.078.366-.115.039-.012.077-.026.117-.037.01-.003.02-.01.03-.001.006.017.013.035.015.053Z"/><path fill="#1F88EE" d="M6.45 10.404a.22.22 0 0 1-.042.045c-.014.003-.02-.009-.027-.017-.095-.094-.189-.19-.284-.283-.026-.026-.05-.053-.079-.075a.027.027 0 0 1-.011-.019c.006-.015.015-.029.031-.035.021.01.037.028.054.044.067.065.135.13.204.194l.14.13.014.016Z"/><path fill="#18C99F" d="M7.1 9.028c0-.012-.003-.018-.017-.021-.035-.007-.07-.008-.104-.013l-.143-.017-.143-.017-.104-.013c-.015-.001-.03-.004-.045.004-.012-.018-.005-.034.005-.049.07.002.138.011.207.019l.12.01.185.018c.016.002.032.001.048.002-.001.026-.002.052-.009.077Z"/><path fill="#3CDA66" d="M6.969 7.875c-.04.009-.077.028-.116.041-.113.04-.226.083-.34.124-.024.009-.047.022-.073.024-.016-.009-.019-.023-.015-.04.027-.021.06-.028.092-.04l.305-.12c.036-.014.07-.028.106-.04.007-.004.013-.008.02-.002l.02.053Z"/><path fill="#10B6BB" d="M7.008 9.45c-.032-.021-.07-.026-.106-.038-.082-.027-.165-.05-.247-.076l-.181-.056c-.008-.017-.003-.032.01-.045.012-.004.024.002.037.006.136.04.273.078.41.117l.072.022c.01.003.024.004.019.021a.17.17 0 0 1-.014.05Z"/><path fill="#80D93A" d="M6.688 7.327c-.06.035-.114.078-.171.117-.092.062-.183.127-.275.19-.005.004-.013.006-.02.008-.016-.002-.02-.015-.022-.029.002-.01.01-.017.017-.022l.412-.3c.008-.006.016-.015.028-.008l.03.044Z"/><path fill="#B55DDD" d="M5.25 11.107a.12.12 0 0 1-.043.01c-.019.005-.02-.01-.022-.021-.008-.035-.018-.069-.025-.104-.025-.129-.057-.257-.085-.385-.002-.013-.009-.027.003-.04.015-.007.03-.014.047-.008.022.106.05.211.076.317l.05.206c.003.009.005.017-.001.026Z"/><path fill="#72D942" d="M6.252 7.686c.06-.046.125-.083.187-.125L6.7 7.39a.045.045 0 0 1 .023-.01c.01.014.02.028.027.044-.005.013-.016.018-.027.024-.133.081-.264.166-.397.246-.017.01-.032.023-.049.032-.018-.007-.024-.022-.025-.04Z"/><path fill="#32DA6E" d="M7.006 7.986c-.053.013-.103.033-.154.048l-.361.112c-.011.004-.018.009-.017.02-.016-.01-.02-.025-.014-.044.004-.014.017-.016.028-.02l.316-.106c.062-.02.123-.042.184-.063l.019.053h-.001Z"/><path fill="#E8AB01" d="M4.819 6.267c-.01.087-.009.174-.02.26a1.05 1.05 0 0 0-.003.08c-.002.073-.015.146-.011.22-.024.013-.052.012-.069-.003.014-.01.017-.025.018-.042l.013-.29c.002-.065.007-.131.007-.197 0-.02-.017-.02-.022-.033l.087.004Z"/><path fill="#407FEA" d="m5.86 10.19.192.234.14.174c.008.01.015.018.027.024a.23.23 0 0 1-.044.034c-.016.002-.023-.011-.031-.022-.069-.088-.138-.176-.206-.266-.032-.042-.066-.083-.098-.126-.006-.008-.015-.016-.013-.027.006-.015.016-.024.032-.025Z"/><path fill="#47DA5E" d="M6.905 7.72a.183.183 0 0 1 .02.043c-.004.012-.015.015-.024.019-.152.062-.302.127-.453.19a.198.198 0 0 0-.036.02c-.017-.01-.02-.027-.023-.044.003-.013.014-.018.024-.023.102-.044.203-.09.304-.135.052-.023.106-.043.156-.07.01-.005.021-.014.032 0Z"/><path fill="#EC4C64" d="M3.807 10.414c-.034.068-.066.137-.102.204-.049.091-.094.185-.141.278-.003.006-.005.014-.013.017a.169.169 0 0 1-.048-.024c.017-.048.045-.091.069-.136.042-.081.087-.162.13-.243.018-.034.037-.066.053-.1.003-.008.006-.014.013-.018.018 0 .032.005.04.022Z"/><path fill="#4E7BE8" d="M6.066 10.74c-.01-.001-.016-.008-.021-.015a108.462 108.462 0 0 0-.292-.424c-.005-.007-.01-.013-.008-.022.003-.018.018-.022.034-.026l.313.432c.006.008.012.015.015.024a.151.151 0 0 1-.04.03h-.001Z"/><path fill="#86D936" d="M6.657 7.284c-.04.017-.072.048-.108.072-.084.06-.168.12-.25.183-.032.025-.07.043-.096.075-.02-.007-.03-.019-.03-.04.042-.024.079-.055.117-.084.068-.052.137-.103.204-.156.042-.034.088-.062.126-.1l.037.05Z"/><path fill="#2687EE" d="M6.01 10.054c.013.023.036.037.055.055.111.109.22.22.33.33l.013.01a.158.158 0 0 1-.036.037c-.012.002-.017-.008-.024-.014-.093-.091-.18-.187-.273-.279l-.083-.087c-.006-.006-.013-.012-.014-.021.005-.016.014-.027.031-.031Z"/><path fill="#F44B3B" d="M3.422 10.156c-.034.039-.069.076-.102.115l-.108.126-.137.16c-.007.008-.014.017-.023.021a.26.26 0 0 1-.044-.038c.02-.005.03-.022.042-.035l.175-.195.155-.174a.021.021 0 0 0 .006-.013c.02.003.03.017.035.033Z"/><path fill="#E8A701" d="M4.733 6.262c.03-.001.03.018.03.042 0 .063-.006.127-.007.19-.002.074-.007.148-.01.222 0 .03-.004.06-.004.09 0 .022-.014.015-.025.017-.006.006-.013.006-.018 0 .006-.099 0-.198.006-.297.004-.076.001-.152.004-.229 0-.011.003-.023.005-.035h.02-.001Z"/><path fill="#118CF0" d="M6.116 9.938c.021.03.053.048.08.071.055.049.111.094.168.141l.174.144c.002.002.006.002.009.003a.18.18 0 0 1-.039.044c-.025-.005-.039-.027-.056-.042-.1-.088-.2-.177-.302-.264-.018-.015-.033-.033-.052-.047a.026.026 0 0 1-.01-.02c.004-.015.01-.028.027-.031Z"/><path fill="#9FD928" d="m6.5 7.089-.099.087a43.897 43.897 0 0 0-.306.273c-.005.005-.01.01-.017.009-.018 0-.024-.013-.026-.029l.05-.041.25-.236.095-.086c.007-.005.014-.012.014-.021.015.013.03.027.04.044Z"/><path fill="#9766DF" d="M5.293 10.51c.032.076.057.156.085.235.034.092.067.186.099.279.003.01.008.01.016.01-.019.01-.039.015-.059.02-.013 0-.012-.011-.014-.019l-.143-.43c-.01-.028-.02-.055-.023-.084.011-.01.023-.017.04-.011h-.001Z"/><path fill="#3383EC" d="m6.265 10.583-.113-.127-.109-.128-.144-.17c.004-.018.017-.026.033-.031l.21.235c.048.052.093.106.141.156.009.01.018.019.022.031-.01.015-.028.022-.04.034Z"/><path fill="#DC53CC" d="M4.746 10.618c0 .1.009.2.01.3.002.075.008.15.01.224 0 .023-.002.039-.03.033-.003 0-.006.002-.01.004h-.01c-.013-.03-.007-.062-.011-.092a.266.266 0 0 1 0-.063c.002-.101-.008-.203-.006-.304 0-.025-.006-.049-.004-.073 0-.01-.001-.02.008-.03h.043Z"/><path fill="#0399E7" d="m6.724 10.056-.14-.088a48.344 48.344 0 0 1-.317-.207c-.006-.003-.01-.007-.018-.006-.002-.019.006-.029.023-.034.037.013.067.039.1.06.125.075.249.152.373.229l.007.001-.028.044Z"/><path fill="#12BBB5" d="M7.05 9.295a.175.175 0 0 1-.013.049c-.01.006-.02.001-.03-.001-.121-.03-.241-.064-.362-.095-.042-.01-.082-.023-.124-.033-.01-.002-.02-.004-.029-.01-.007-.019 0-.033.01-.047a.016.016 0 0 1 .012 0c.169.044.34.081.508.124.01.003.02.004.028.013Z"/><path fill="#AD5FDD" d="m5.25 11.107-.063-.254-.066-.27a.028.028 0 0 1 .003-.023c.008-.013.02-.014.034-.008.013.023.017.05.023.075l.116.43a.118.118 0 0 0 .016.035c-.02.01-.042.011-.063.015Z"/><path fill="#9C64DF" d="M5.255 10.521c.013.023.017.049.025.073l.138.412c.006.016.006.034.017.047-.015.01-.032.012-.049.016-.01-.004-.012-.014-.014-.023-.045-.148-.093-.295-.137-.444-.004-.014-.011-.028-.015-.043-.002-.01-.005-.021.003-.03.01-.008.02-.016.032-.007Z"/><path fill="#6873E5" d="m5.603 10.366.127.225.15.264c-.013.012-.03.017-.044.025-.01-.003-.012-.013-.016-.02-.058-.105-.114-.211-.173-.316l-.074-.136c-.004-.007-.008-.014-.006-.023.01-.013.02-.023.037-.019Z"/><path fill="#7071E4" d="M5.767 10.918c-.014-.002-.018-.014-.023-.025l-.163-.33a2.564 2.564 0 0 1-.07-.145c.006-.016.019-.022.035-.02.024.034.04.073.06.11.064.119.125.24.187.36.005.01.013.018.01.03a.113.113 0 0 1-.035.02Z"/><path fill="#4EDA59" d="M6.905 7.72c-.028-.006-.046.016-.068.025-.137.059-.274.12-.41.18-.013.006-.027.009-.035.022-.016-.006-.016-.02-.018-.033.003-.015.015-.02.027-.026.091-.044.184-.085.276-.13.058-.029.118-.055.177-.083.01-.004.021-.016.031 0a.194.194 0 0 1 .02.044Z"/><path fill="#477DE9" d="M6.106 10.71c-.03-.027-.049-.062-.071-.093l-.25-.343a.035.035 0 0 1-.007-.02c.002-.016.014-.02.028-.022.02.012.029.033.042.05l.284.376a.05.05 0 0 1 .013.022c-.01.014-.027.018-.039.03Z"/><path fill="#DD52BC" d="M4.587 11.179c-.018 0-.036.002-.054-.004a.214.214 0 0 1-.001-.06c.009-.107.01-.213.017-.32.004-.06.012-.121.004-.183.018-.011.035-.008.052.006.01.035.004.072.003.108 0 .009-.003.017-.003.026.003.09-.007.18-.005.269.001.045-.007.09-.005.135 0 .008-.001.017-.008.023Z"/><path fill="#11B9B8" d="m6.495 9.202.232.06c.104.026.207.054.31.081a.26.26 0 0 1-.015.058c-.001-.013-.012-.013-.021-.016l-.437-.124-.078-.025c-.008-.014-.004-.025.009-.034Z"/><path fill="#DF52B4" d="M4.442 11.17c.001-.078.01-.154.018-.23.005-.042.007-.083.01-.125l.019-.19c0-.007 0-.012-.004-.017.017-.012.032-.009.046.004.007.018.001.036 0 .053-.003.08-.011.159-.016.238-.004.054-.01.108-.011.162-.002.025-.006.05-.006.077 0 .03-.004.033-.037.028a.3.3 0 0 1-.019 0Z"/><path fill="#DE52B7" d="M4.46 11.17c.023.004.03-.004.031-.028.004-.084.014-.168.018-.252.002-.05.008-.099.01-.148l.01-.13c.008-.007.016-.007.024.001.01.006.01.015.01.026a4.256 4.256 0 0 1-.014.259c-.004.041-.001.083-.005.125-.004.046-.004.093-.006.14 0 .004 0 .01-.006.012-.024-.002-.048.002-.072-.005Z"/><path fill="#178BEF" d="M6.092 9.967c.012.03.04.042.061.063.044.041.09.078.136.118l.22.193c-.005.016-.019.023-.03.034-.011.007-.017-.003-.023-.01-.082-.077-.166-.152-.25-.228-.042-.038-.083-.078-.127-.115-.008-.006-.016-.013-.018-.024.005-.016.014-.028.032-.03Z"/><path fill="#60DA4D" d="M6.804 7.516a.17.17 0 0 1 .024.044c-.022.023-.052.034-.08.049-.134.07-.267.142-.4.214-.004.002-.008.005-.013.005-.015-.007-.02-.02-.022-.035.003-.01.01-.012.017-.016.14-.08.281-.16.424-.236.016-.009.03-.027.05-.024Z"/><path fill="#A363DE" d="M5.226 10.53c-.008.017.001.03.006.045l.12.389.034.105a.14.14 0 0 1-.044.014c-.011-.004-.013-.015-.016-.025l-.141-.492a.035.035 0 0 1-.002-.022c.012-.013.025-.02.043-.013Z"/><path fill="#D3D808" d="M5.54 7.041c0-.011.006-.02.01-.029l.23-.442.017-.027a.097.097 0 0 1 .039.02c.007.01 0 .018-.005.026l-.162.297c-.027.05-.054.102-.083.152-.005.008-.008.016-.017.02-.013.001-.025 0-.028-.016Z"/><path fill="#BC5BDD" d="M5.08 10.57a.023.023 0 0 0-.002.018l.114.507c.002.01.003.02.015.022a.117.117 0 0 1-.043.01c-.02.004-.021-.011-.024-.023-.012-.047-.02-.095-.03-.142-.022-.118-.049-.235-.072-.353l-.005-.024a.01.01 0 0 1 .003-.007c.013-.01.027-.018.044-.008Z"/><path fill="#2E84ED" d="m6.305 10.55-.109-.12c-.02-.02-.037-.043-.057-.064l-.194-.215a.04.04 0 0 1-.011-.023c.001-.014.011-.019.023-.021.02.01.03.03.046.045.069.069.133.142.2.212l.142.151-.04.034Z"/><path fill="#C758DC" d="M5.12 11.136a.176.176 0 0 1-.059.012c-.007-.006-.007-.015-.008-.022-.029-.167-.055-.334-.084-.5a.053.053 0 0 1 .002-.032c.011-.013.026-.016.042-.011l.07.377.026.145c.001.011.007.02.01.031Z"/><path fill="#0CADC9" d="m6.44 9.376.219.08.23.086c.026.01.053.016.075.034a.12.12 0 0 1-.014.038.036.036 0 0 1-.023-.003c-.164-.066-.33-.128-.494-.195-.003 0-.004-.002-.007-.004-.004-.015 0-.027.014-.036Z"/><path fill="#0BAACD" d="M6.427 9.411c.04.007.074.027.11.041l.366.143.047.02a.121.121 0 0 1-.015.039c-.01.007-.019.001-.027-.002l-.453-.187c-.014-.006-.03-.01-.04-.024-.004-.014-.002-.024.012-.03Z"/><path fill="#5BDA51" d="M6.334 7.827c.016-.015.036-.025.055-.035l.425-.227c.004-.003.009-.003.014-.005l.02.039c-.01.016-.028.022-.043.03l-.217.109-.211.107c-.01.005-.016.014-.023.02-.017-.007-.024-.02-.02-.038Z"/><path fill="#D056DA" d="M4.975 11.159c.011-.018 0-.037-.002-.054-.01-.1-.024-.198-.038-.297l-.024-.188a.021.021 0 0 0-.01-.018c.01-.017.025-.011.04-.008.009.004.01.013.011.022l.074.503c.002.013.008.026-.008.035l-.043.005Z"/><path fill="#2A85ED" d="M6.345 10.515c-.023-.007-.037-.027-.05-.043-.028-.035-.061-.063-.09-.097-.036-.043-.079-.081-.116-.123-.043-.048-.092-.092-.132-.143 0-.016.01-.023.024-.025l.007.01.144.149.221.226.02.018a.12.12 0 0 1-.028.03v-.002Z"/><path fill="#DD52C0" d="M4.587 11.179c0-.083.003-.166.006-.248.002-.061-.001-.123.004-.184.004-.043.003-.086.004-.13.012-.01.024-.009.036 0 .007.011.005.024.005.036 0 .101.003.202 0 .303-.003.066-.004.13-.004.196 0 .01 0 .02-.008.027h-.044Z"/><path fill="#C4D812" d="M5.971 6.645c-.042.075-.09.147-.137.22l-.155.244-.004.011c-.017.002-.027-.006-.035-.02.022-.046.051-.087.077-.13.065-.11.132-.218.198-.327.006-.009.01-.019.021-.022a.12.12 0 0 1 .034.023h.001Z"/><path fill="#DC53C4" d="M4.63 11.18c0-.188.008-.375.005-.562.011-.01.024-.01.036 0 .006.008.005.02.005.03.006.163.006.326.005.49 0 .013.003.028-.008.04H4.63v.001Z"/><path fill="#C7D810" d="m5.937 6.62-.287.473-.007.006c-.016.003-.025-.005-.031-.019.063-.111.129-.221.193-.332l.076-.13a.056.056 0 0 1 .018-.022l.038.024Z"/><path fill="#1B8AEF" d="M6.064 9.998c.044.042.088.084.134.124l.083.077c.063.055.124.114.186.17a.02.02 0 0 0 .012.006c-.006.013-.023.016-.029.03-.006 0-.01-.005-.015-.008a52.222 52.222 0 0 0-.171-.162l-.18-.169a3.605 3.605 0 0 1-.045-.043c0-.017.008-.025.025-.025Z"/><path fill="#DC53C7" d="M4.673 11.179c0-.187.002-.374-.005-.562.012-.009.023-.009.034 0 0 .077.003.155.007.231.002.066 0 .13.003.195l.005.135h-.044Z"/><path fill="#09A5D4" d="m6.901 9.731-.426-.192c-.03-.012-.055-.032-.087-.036-.005-.016.005-.026.014-.036.01-.002.019.003.028.007l.415.18c.025.01.053.018.075.038l-.018.04Z"/><path fill="#A861DE" d="m5.187 10.544.048.174.102.352.005.014a.062.062 0 0 1-.029.009c-.013.002-.015-.009-.018-.018l-.103-.385c-.013-.045-.027-.09-.035-.137.008-.012.018-.015.03-.009Z"/><path fill="#56DA54" d="M6.354 7.865c-.002-.01.003-.017.012-.021l.174-.087c.053-.028.105-.057.159-.083.05-.024.1-.049.148-.075l.018.034c-.003.012-.015.016-.025.021-.154.077-.31.15-.464.228a.03.03 0 0 1-.014.004c-.01-.005-.014-.01-.008-.021Z"/><path fill="#0AA7D0" d="m6.92 9.692-.18-.075-.27-.118-.067-.03c-.003-.013 0-.023.012-.03.083.04.169.07.253.107l.248.103a.04.04 0 0 0 .019.005c-.005.013-.007.026-.015.038Z"/><path fill="#6DDA45" d="M6.276 7.725c.01-.017.03-.025.045-.035l.33-.206.099-.06c.004.012.019.019.02.034-.004.011-.013.016-.022.022a39.2 39.2 0 0 0-.44.262c-.006.003-.011.007-.018.008-.011-.004-.019-.011-.014-.025Z"/><path fill="#CC57DB" d="M5.018 11.154c.012-.018.001-.037-.001-.054l-.047-.306c-.01-.062-.017-.124-.025-.186 0-.004-.004-.007-.006-.01.01-.016.022-.012.035-.005.002.051.014.1.022.15.015.093.032.184.046.277.007.043.019.084.02.128l-.043.006Z"/><path fill="#CCD80C" d="m5.899 6.597-.135.232-.133.23c-.005.008-.009.017-.018.02-.013.003-.022-.001-.026-.014.018-.041.043-.079.065-.118.063-.116.13-.23.194-.346.005-.01.009-.019.02-.024.012.003.019.018.033.02Z"/><path fill="#13BDB1" d="m7.051 9.295-.219-.054c-.1-.023-.2-.046-.3-.072a.107.107 0 0 1-.027-.01c-.005-.013 0-.021.011-.028.038.001.073.014.109.022.134.03.268.061.403.09.012.003.024.003.033.013a.099.099 0 0 1-.01.039Z"/><path fill="#6D72E4" d="m5.802 10.899-.172-.335c-.026-.048-.053-.095-.076-.143l-.01-.022c.004-.013.013-.017.025-.014l.07.133.127.232.07.13c-.01.01-.023.012-.034.019Z"/><path fill="#52DA56" d="M6.364 7.884c.074-.042.152-.079.23-.116.012-.006.025-.011.037-.018.077-.042.16-.072.234-.117a.155.155 0 0 1 .02.043c-.006-.005-.012-.003-.02 0l-.233.11-.23.108c-.01.005-.02.009-.025.02-.014-.005-.02-.015-.014-.03Z"/><path fill="#AED920" d="M6.368 6.95a.133.133 0 0 1-.033.044l-.307.313c-.017.016-.028.038-.048.05-.013 0-.02-.008-.02-.02.02-.037.05-.063.078-.091.077-.078.148-.161.226-.238.022-.022.043-.046.064-.07.004-.005.008-.012.017-.009l.023.02Z"/><path fill="#437EEA" d="M6.144 10.68c-.039-.042-.07-.09-.105-.135-.07-.09-.139-.183-.208-.274l-.025-.039c.002-.013.012-.019.024-.019.013.03.037.053.056.078.058.077.118.152.177.228.03.038.058.077.088.114a.073.073 0 0 0 .025.023l-.031.023Z"/><path fill="#66DA4A" d="m6.804 7.516-.386.218-.103.058c-.013 0-.013-.01-.014-.018 0-.015.011-.02.022-.027.066-.04.134-.077.2-.116l.233-.135c.01-.005.019-.016.032-.009l.016.03Z"/><path fill="#CFD80A" d="m5.865 6.577-.15.267-.105.19a.102.102 0 0 1-.022.032c-.01.003-.016.002-.018-.01.064-.117.129-.233.191-.351.026-.048.056-.093.075-.143.011.002.02.01.03.016h-.001Z"/><path fill="#69DA48" d="M6.789 7.487c-.053.024-.101.056-.151.084-.099.056-.196.113-.293.171-.015.008-.035.011-.04.032-.012-.004-.019-.011-.014-.025.022-.021.05-.034.076-.05l.3-.178a12.9 12.9 0 0 0 .103-.063.084.084 0 0 1 .019.03v-.001Z"/><path fill="#13BEB0" d="m7.06 9.256-.21-.045c-.086-.02-.173-.038-.26-.057l-.076-.02c-.003-.003-.003-.006.001-.009.007-.012.019-.01.03-.008l.37.08.127.025c.008.002.017.003.024.01a.038.038 0 0 1-.006.023Z"/><path fill="#43DA61" d="M6.412 7.991c0-.015.014-.017.023-.021l.43-.18.06-.026c.006.008.01.018.01.029-.006.014-.02.016-.033.022-.15.06-.3.12-.45.183a.105.105 0 0 0-.03.02c-.013-.006-.015-.014-.01-.025V7.99Z"/><path fill="#41DA62" d="M6.422 8.015c-.002-.01.004-.014.012-.018l.219-.088.283-.116.013.029-.385.152-.138.052c-.006-.002-.007-.005-.004-.01Z"/><path fill="#ED4C5F" d="M3.459 10.865c.02-.045.046-.088.07-.13.045-.082.092-.162.138-.242l.051-.09c.005-.01.016-.02.008-.033.014-.006.02.003.027.014.003.012-.004.022-.01.031l-.24.436c-.005.01-.01.025-.026.024a.03.03 0 0 1-.018-.01Z"/><path fill="#AFD920" d="m6.346 6.93-.165.175c-.02.023-.043.044-.063.067-.051.057-.105.11-.158.166-.009-.002-.018-.003-.017-.016.058-.06.116-.12.171-.183.026-.03.054-.056.08-.086.042-.048.09-.093.131-.144l.02.02Z"/><path fill="#ED4C60" d="M3.476 10.875c.027-.023.036-.056.053-.085.07-.123.137-.247.205-.37.006-.012.013-.023.015-.036.011-.004.016.001.019.011-.06.114-.12.229-.182.343l-.072.136c-.003.005-.006.011-.012.014a.064.064 0 0 1-.026-.014Z"/><path fill="#C25ADC" d="M5.12 11.136c-.013 0-.014-.01-.016-.02-.03-.17-.063-.34-.095-.511a.026.026 0 0 1 .004-.02c.006-.01.014-.015.024-.006v.004c-.004.008-.003.017-.001.026.03.162.063.325.095.487.002.012.007.023.009.035-.006.005-.013.004-.02.004v.001Z"/><path fill="#C25ADC" d="M5.14 11.132c-.015-.002-.012-.016-.014-.025-.026-.131-.05-.263-.078-.394-.007-.035-.012-.071-.02-.106 0-.009-.005-.02.01-.024.014.066.03.131.043.197l.067.326c.002.01.003.02.016.02-.007.006-.015.005-.023.006Z"/><path fill="#DF52B4" d="M4.402 11.165c.008.001.017-.003.024.004-.008 0-.017.001-.024-.004Z"/></g><defs><clipPath id="a"><path fill="#fff" d="M2.2 6.26h25.901v5.026H2.2z"/></clipPath></defs></svg>