<svg xmlns="http://www.w3.org/2000/svg" width="38" height="24" fill="none" viewBox="0 0 38 24"><rect width="37" height="23" x=".5" y=".5" fill="#fff" stroke="#000" rx="1.5"/><path fill="#fff" d="M30.816 17.371c0 2-1.59 3.629-3.543 3.629H8V6.629C8 4.629 9.59 3 11.542 3h19.274v14.371Z"/><path fill="url(#a)" d="M24.54 13.686h1.464c.042 0 .14-.014.181-.014a.666.666 0 0 0 .517-.672.69.69 0 0 0-.517-.671c-.041-.014-.125-.014-.18-.014H24.54v1.37Z"/><path fill="url(#b)" d="M25.837 4.214c-1.395 0-2.538 1.157-2.538 2.6v2.7h3.584c.084 0 .181 0 .25.015.81.042 1.41.471 1.41 1.214 0 .586-.405 1.086-1.158 1.186v.028c.823.057 1.45.529 1.45 1.257 0 .786-.697 1.3-1.617 1.3h-3.933V19.8h3.723c1.395 0 2.539-1.157 2.539-2.6V4.214h-3.71Z"/><path fill="url(#c)" d="M26.52 10.914a.603.603 0 0 0-.516-.614c-.028 0-.097-.014-.14-.014H24.54v1.257h1.325c.042 0 .125 0 .14-.014a.603.603 0 0 0 .515-.615Z"/><path fill="url(#d)" d="M18.822 4.214c-1.395 0-2.538 1.157-2.538 2.6v3.4c.641-.557 1.757-.914 3.556-.828.962.043 1.994.314 1.994.314v1.1c-.516-.271-1.13-.514-1.924-.571-1.367-.1-2.19.585-2.19 1.785 0 1.215.823 1.9 2.19 1.786.795-.057 1.408-.314 1.924-.571v1.1s-1.018.271-1.994.314c-1.799.086-2.915-.272-3.556-.829v6h3.724c1.394 0 2.538-1.157 2.538-2.6v-13h-3.724Z"/><path fill="url(#e)" d="M11.807 4.214c-1.394 0-2.538 1.157-2.538 2.6v6.415c.711.357 1.45.585 2.19.585.878 0 1.352-.543 1.352-1.285V9.5h2.176v3.014c0 1.172-.711 2.129-3.124 2.129-1.464 0-2.608-.329-2.608-.329v5.472h3.724c1.394 0 2.538-1.157 2.538-2.6V4.214h-3.71Z"/><defs><linearGradient id="a" x1="23.296" x2="29.563" y1="14.99" y2="14.99" gradientUnits="userSpaceOnUse"><stop stop-color="#007940"/><stop offset=".229" stop-color="#00873F"/><stop offset=".743" stop-color="#40A737"/><stop offset="1" stop-color="#5CB531"/></linearGradient><linearGradient id="b" x1="23.296" x2="29.564" y1="19.801" y2="19.801" gradientUnits="userSpaceOnUse"><stop stop-color="#007940"/><stop offset=".229" stop-color="#00873F"/><stop offset=".743" stop-color="#40A737"/><stop offset="1" stop-color="#5CB531"/></linearGradient><linearGradient id="c" x1="23.296" x2="29.563" y1="12.902" y2="12.902" gradientUnits="userSpaceOnUse"><stop stop-color="#007940"/><stop offset=".229" stop-color="#00873F"/><stop offset=".743" stop-color="#40A737"/><stop offset="1" stop-color="#5CB531"/></linearGradient><linearGradient id="d" x1="16.248" x2="22.429" y1="19.7" y2="19.7" gradientUnits="userSpaceOnUse"><stop stop-color="#6C2C2F"/><stop offset=".173" stop-color="#882730"/><stop offset=".573" stop-color="#BE1833"/><stop offset=".859" stop-color="#DC0436"/><stop offset="1" stop-color="#E60039"/></linearGradient><linearGradient id="e" x1="9.266" x2="15.63" y1="19.914" y2="19.914" gradientUnits="userSpaceOnUse"><stop stop-color="#1F286F"/><stop offset=".475" stop-color="#004E94"/><stop offset=".826" stop-color="#0066B1"/><stop offset="1" stop-color="#006FBC"/></linearGradient></defs></svg>