<svg xmlns="http://www.w3.org/2000/svg" width="30" height="18" fill="none" viewBox="0 0 30 18"><rect width="29" height="17" x=".5" y=".5" fill="#fff" stroke="#000" rx="1.5"/><path fill="#E21836" d="M8.8 3h5.177c.723 0 1.173.545 1.004 1.215l-2.41 9.572c-.17.668-.894 1.213-1.618 1.213H5.776c-.722 0-1.172-.545-1.004-1.213l2.412-9.572C7.352 3.545 8.076 3 8.799 3"/><path fill="#00447C" d="M13.955 3h5.399c.655 0 .36.545.205 1.215l-2.185 9.572c-.153.668-.105 1.213-.762 1.213h-5.399c-.656 0-1.063-.545-.908-1.213l2.185-9.572C12.645 3.545 13.3 3 13.955 3"/><path fill="#007B84" d="M19.079 3h5.178c.724 0 1.173.545 1.003 1.215l-2.41 9.572c-.17.668-.895 1.213-1.618 1.213h-5.176c-.724 0-1.173-.545-1.004-1.213l2.411-9.572c.169-.67.892-1.215 1.616-1.215"/><path fill="#FEFEFE" d="m17.33 9.023.125-.626s.091-.393.097-.407c0 0 .029-.04.057-.057h.042c.399 0 .849 0 1.201-.266.24-.183.404-.452.477-.78.02-.08.033-.176.033-.271a.582.582 0 0 0-.095-.347c-.18-.258-.538-.263-.951-.265l-.204.002c-.529.007-.741.005-.828-.006l-.022.11-.19.903-.474 2.006c.462-.005.651-.005.731.004Zm-7.323-3.006c-.5.006-.648 0-.695-.011l-.357 1.688c-.073.324-.125.554-.305.703a.535.535 0 0 1-.36.128c-.221 0-.35-.113-.372-.327l-.004-.074.067-.436s.355-1.456.418-1.649a.143.143 0 0 0 .005-.022c-.69.007-.812 0-.82-.011a2.345 2.345 0 0 0-.022.106L7.2 7.754l-.03.139-.06.455a.69.69 0 0 0 .076.339c.165.296.636.34.902.34.342 0 .664-.075.881-.211.377-.229.476-.586.564-.903v-.001l.04-.163s.366-1.513.428-1.71v-.003a.056.056 0 0 1 .006-.019Zm1.242 1.22a.943.943 0 0 0-.393.096c-.04.02-.079.045-.118.069l-.036.022.047-.175-.026-.03c-.286.06-.365.071-.605.106l-.053.008-.024.016a8.7 8.7 0 0 1-.183 1.039l-.143.609.013.026c.29-.016.378-.016.63-.012l.02-.023.022-.116c.017-.095.034-.183.085-.432l.026-.125c.036-.177.085-.419.112-.518a.46.46 0 0 1 .184-.06c.138 0 .125.12.119.173v.004c-.007.085-.058.36-.11.598l-.036.153-.04.174-.036.161.01.023c.286-.016.374-.016.618-.012l.028-.023c.045-.262.057-.333.136-.716l.04-.175c.075-.345.114-.52.056-.661-.061-.16-.208-.198-.343-.198Zm1.337.371.05-.01.006.014.004.014-.037.158-.047.2a16.843 16.843 0 0 1-.082.359l-.052.238c-.02.087-.03.137-.038.178a2.05 2.05 0 0 0-.019.112l-.018.117-.014.012-.013.011-.128-.001c-.081-.001-.145-.002-.207 0a7.227 7.227 0 0 0-.285.011l-.035.002-.007-.013-.009-.013c.033-.127.053-.181.07-.228l.007-.02c.018-.051.036-.102.069-.25a6.09 6.09 0 0 0 .087-.444c.015-.084.024-.159.034-.237l.012-.087.01-.008.012-.011a15.015 15.015 0 0 0 .63-.104Zm.054-.496c-.138-.083-.38-.057-.543.059-.163.113-.182.274-.044.358.136.082.379.058.54-.059.163-.116.183-.275.047-.358Zm1.616 1.623c-.216.235-.502.314-.781.314a1.09 1.09 0 0 1-.397-.066c-.381-.159-.32-.584-.268-.82.053-.232.14-.474.327-.653.261-.247.596-.261.736-.261.234 0 .459.054.586.221.084.11.15.29.065.676-.026.117-.102.4-.268.59Zm-.803-.555c-.022.101-.04.195-.04.286.002.185.124.185.144.185.069 0 .13-.046.183-.122.075-.103.13-.345.143-.41.067-.294.056-.476-.096-.476-.194 0-.27.245-.334.537Zm1.791.809-.022.022a6.833 6.833 0 0 0-.628.012l-.013-.026c.048-.202.096-.406.142-.609a9.1 9.1 0 0 0 .184-1.04l.022-.015.06-.009c.234-.034.315-.046.599-.105l.023.03-.044.175c.05-.032.102-.064.154-.091a.94.94 0 0 1 .393-.095c.133 0 .28.038.344.198.057.142.018.316-.06.66l-.038.177c-.08.382-.092.452-.135.716l-.03.022a6.583 6.583 0 0 0-.616.012L15.57 9c.013-.062.028-.123.042-.184l.035-.15.034-.154c.053-.237.105-.513.11-.598v-.003c.006-.053.02-.174-.118-.174-.06 0-.12.029-.183.059h-.002c-.025.095-.07.315-.106.488l-.032.156a13.57 13.57 0 0 0-.087.45l-.018.098Zm2.637-2.464.006-.046.003-.035.08.009.426.037c.164.065.232.233.184.452a.656.656 0 0 1-.332.45c-.134.069-.298.075-.467.075h-.11l.01-.046.2-.896Zm1.054 1.672c-.053.233-.115.658.265.81a.73.73 0 0 0 .34.063.554.554 0 0 0 .323-.153l-.027.107.017.022c.273-.011.358-.011.654-.01l.026-.02.005-.03c.042-.25.084-.503.192-.982.054-.238.109-.475.165-.712l-.009-.027c-.305.059-.387.07-.68.114l-.023.018-.009.071a.422.422 0 0 0-.214-.18c-.13-.053-.437.015-.7.26-.186.177-.275.418-.325.649Zm.976-.516c.123 0 .188.117.174.315a11.134 11.134 0 0 1-.08.351l-.016.065a.624.624 0 0 1-.072.149.333.333 0 0 1-.237.117c-.02 0-.14 0-.144-.181 0-.09.017-.184.04-.286.065-.287.14-.53.335-.53Zm3.013-.418-.024-.027a7.004 7.004 0 0 1-.634.11l-.02.022-.002.005a.091.091 0 0 1-.002.008v-.005a4.047 4.047 0 0 1-.211.446c-.041.074-.082.148-.158.323a1.321 1.321 0 0 1-.002-.047l-.042-.835-.027-.027-.202.04c-.14.03-.201.043-.414.07l-.023.022a.103.103 0 0 0-.003.02l-.002.013.002.004c.029.15.03.156.047.3l.018.151c.008.076.019.152.029.228.01.072.02.145.028.216l.013.11c.021.18.037.316.067.63a8.48 8.48 0 0 0-.19.338c-.072.131-.134.245-.244.416l.001.003-.134.217c-.015.023-.029.039-.048.046a.198.198 0 0 1-.088.012h-.074l-.11.376.378.007a.464.464 0 0 0 .436-.25l.238-.418h-.004l.025-.03c.16-.353 1.376-2.494 1.376-2.494Zm-4.15 4.94h.16l-.123.415h-.159l-.037.128h-.565l.038-.128h-1.146l.115-.385h.116l.602-2.045.12-.412h.575l-.06.207s.153-.113.299-.151c.12-.033.714-.048.913-.053h.615l.006.234c-.004.04.03.058.101.058h.125l-.114.388h-.332c-.288.021-.397-.105-.39-.248l-.006-.23-.062.207h-.197l-.594 2.014Zm-.31-1.606c.095-.025.236-.034.236-.034l.11-.375h-.457l-.152.515s.171-.08.264-.106Zm-.229.776c.095-.022.238-.04.238-.04l.111-.375h-.459l-.157.535s.174-.091.267-.12Zm-.018.834.132-.452h-.457l-.133.452h.458Zm1.766-1.25h-.661l.112-.389h1.84l-.115.39h-.617l-.096.315h.619l-.103.345h-.668l-.12.146h.272l.066.435.005.03c.004.027.006.046.017.06.013.015.095.024.142.024h.083l-.126.423h-.209c-.028 0-.069-.002-.124-.005h-.023a.266.266 0 0 1-.115-.047.56.56 0 0 0-.033-.019.203.203 0 0 1-.11-.147l-.065-.434-.304.427a.514.514 0 0 1-.448.239h-.426l.112-.378h.163a.258.258 0 0 0 .119-.035.184.184 0 0 0 .09-.077l.443-.642h-.586l.1-.345h.67l.096-.315Zm-6.245 1.338.155-.527h.634l.116-.392h-.635l.097-.324h.62l.115-.38h-1.552l-.113.38h.353l-.094.324h-.353l-.118.399h.353l-.206.697c-.023.077.002.115.026.15a.427.427 0 0 1 .013.02.17.17 0 0 0 .114.085.668.668 0 0 0 .162.023h.715l.127-.434-.316.044c-.062 0-.231-.007-.213-.065Zm-.088-2.224.161-.298h.632l-.111.217h.636l-.115.397h-.87l-.094.084c-.024.024-.038.027-.057.033a.189.189 0 0 0-.05.02.619.619 0 0 1-.286.075h-.278l.112-.381h.084c.07 0 .119-.007.143-.023a.344.344 0 0 0 .093-.124Zm1.445 2.232c-.015-.022-.004-.06.018-.141l.238-.808h.845c.124-.001.213-.003.27-.007a.542.542 0 0 0 .204-.07.385.385 0 0 0 .148-.14c.036-.052.095-.165.146-.34l.298-1.021-.877.005s-.27.04-.39.086c-.12.05-.29.191-.29.191l.079-.28h-.542l-.76 2.582a1.64 1.64 0 0 0-.048.217c-.002.042.045.083.082.116l.014.013c.036.028.085.03.135.033l.042.002c.068.005.164.009.297.009h.416l.128-.443-.373.036a.097.097 0 0 1-.08-.04Zm1.297-1.494-.056.182h-.013a.38.38 0 0 0-.104.002h-.77l.055-.184h.888Zm-.71-.609h.896l-.065.219s-.422-.004-.49.008c-.297.053-.47.216-.47.216l.13-.443Zm.638 1.455a.098.098 0 0 0 .036-.056l.052-.173h.414l-.05.245c-.022.077-.04.134-.097.184a.384.384 0 0 1-.291.106l-.301.012-.002.278c-.003.062.01.07.02.077a.04.04 0 0 1 .009.005.1.1 0 0 0 .038.025h.001l.096-.005.287-.016-.12.404h-.33c-.23 0-.401-.005-.457-.05-.055-.037-.063-.082-.062-.16l.021-1.08h.527l-.008.22h.127c.043 0 .072-.004.09-.016Z"/></svg>