<svg xmlns="http://www.w3.org/2000/svg" width="30" height="18" fill="none" viewBox="0 0 30 18"><rect width="30" height="18" fill="#fff" rx="2"/><rect width="29" height="17" x=".5" y=".5" fill="#fff" stroke="#000" rx="1.5"/><path fill="#000" d="M21.293 13.887v-.795c.074.018.24.018.323.018.463 0 .713-.19.865-.681 0-.01.088-.291.088-.296l-1.757-4.785h1.082l1.23 3.89h.019l1.23-3.89h1.054l-1.822 5.03c-.416 1.16-.897 1.532-1.905 1.532-.084 0-.333-.01-.407-.023Zm-3.23-4.53c-1.157.064-1.809.577-1.809 1.413 0 .86.666 1.44 1.619 1.44.638 0 1.253-.336 1.535-.867h.023v.786h.958V8.835c0-.96-.754-1.573-1.933-1.573-1.203 0-1.952.636-2.008 1.5h.944c.088-.427.448-.7 1.027-.7.61 0 .976.318.976.85v.368l-1.332.077Zm1.332.604v.378c0 .622-.546 1.095-1.245 1.095-.536 0-.888-.273-.888-.691 0-.409.338-.668.935-.709l1.198-.073ZM8.6 6.79c-.597-.035-1.103.332-1.388.332-.285 0-.72-.314-1.191-.306a1.761 1.761 0 0 0-1.494.892c-.64 1.084-.17 2.692.453 3.575.303.437.667.918 1.147.9.454-.017.632-.288 1.183-.288.55 0 .711.288 1.191.28.498-.01.81-.438 1.112-.875.347-.498.489-.979.498-1.005-.01-.009-.96-.367-.97-1.442-.008-.9.747-1.329.783-1.355-.427-.62-1.094-.69-1.325-.708m7.384.936c0-1.277-.901-2.154-2.196-2.154h-2.502v6.557h1.036v-2.24h1.433c1.31 0 2.23-.882 2.23-2.163ZM13.51 9.034h-1.188V6.431h1.193c.897 0 1.41.472 1.41 1.3 0 .826-.513 1.303-1.415 1.303ZM8.23 6.212c.249-.307.418-.719.374-1.14-.366.018-.812.237-1.07.544-.232.263-.437.692-.384 1.095.41.035.82-.201 1.08-.5"/></svg>