<svg xmlns="http://www.w3.org/2000/svg" width="30" height="18" fill="none" viewBox="0 0 30 18"><rect width="29" height="17" x=".5" y=".5" fill="#fff" stroke="#000" rx="1.5"/><path fill="#263B80" d="M24.732 13.135h-.67c-.033 0-.067-.032-.067-.064l.402-2.447h-.636c-.034 0-.067-.032-.067-.064l.1-.547c0-.064.067-.096.134-.096h2.143c.034 0 .067.032.067.064l-.1.547c0 .064-.067.096-.134.096H25.3l-.4 2.416c-.067.064-.134.096-.167.096Zm-4.857-.709h.201c.536 0 1.005-.29 1.105-.901.101-.58-.234-.902-.803-.902h-.134c-.034 0-.067.033-.067.065l-.302 1.738Zm-.468-2.413c0-.064.067-.096.134-.096h1.139c.938 0 1.607.707 1.44 1.609-.168.901-1.038 1.61-1.976 1.61h-1.172c-.034 0-.067-.033-.067-.065l.502-3.058Zm3.449 3.122h-.67c-.033 0-.067-.032-.067-.064l.503-3.058c0-.064.067-.096.134-.096h.67c.033 0 .067.032.067.064l-.503 3.058c0 .064-.067.096-.134.096Zm-4.923-2.413-.067.45h.905c.033 0 .067.032.067.065l-.101.547c0 .064-.067.096-.134.096h-.77c-.067 0-.1.032-.134.097l-.067.45h.97c.034 0 .068.032.068.065l-.1.547c0 .064-.068.096-.134.096h-1.742c-.034 0-.067-.032-.067-.064l.502-3.058c0-.064.067-.096.134-.096h1.742c.033 0 .067.032.067.064l-.1.547c0 .064-.068.096-.135.096H18s-.067.033-.067.098Zm-3.013.642h.1c.301 0 .603-.064.67-.418.067-.354-.134-.386-.436-.419h-.133c-.034 0-.068.033-.068.065l-.134.772Zm1.506 1.771h-.905c-.033 0-.067-.032-.1-.064l-.603-1.191-.2 1.159c0 .032-.034.096-.102.096h-.703c-.034 0-.067-.032-.067-.064l.502-3.058c0-.032.034-.096.101-.096h1.24c.669 0 1.104.29 1.004.998-.067.45-.402.837-.905.9l.77 1.224c.068.032.035.096-.032.096Zm-2.612-2.316c0 .064-.101.096-.134.032-.134-.161-.368-.226-.603-.226-.536 0-.97.386-1.038.902-.067.515.235.869.77.869.235 0 .469-.097.67-.225.067-.032.134 0 .134.064l-.134.74c0 .032-.034.065-.1.097-.269.064-.47.128-.738.128-1.44 0-1.674-1.19-1.607-1.705.201-1.417 1.406-1.738 2.143-1.706.235 0 .436.032.67.129.067.032.1.096.1.16l-.133.74Z"/><path fill="#139AD6" d="M22.02 6.345c-.068.418-.403.418-.704.418h-.168l.134-.772c0-.032.034-.065.1-.065h.068c.2 0 .402 0 .502.13.067.031.1.16.067.289Zm-.135-1.062h-1.172c-.067 0-.134.064-.167.128l-.47 2.897c0 .064.034.097.102.097h.602c.067 0 .101-.033.101-.097l.134-.837c0-.064.067-.129.167-.129h.368c.77 0 1.24-.354 1.34-1.062.067-.322 0-.547-.134-.74-.167-.16-.469-.257-.87-.257Z"/><path fill="#263B80" d="M20.01 6.344h-.57c-.067 0-.1.032-.133.064l-.77 1.095-.335-1.063a.186.186 0 0 0-.168-.096h-.569c-.067 0-.1.064-.1.129L18 8.243l-.603.805c-.033.064 0 .16.067.16h.57c.067 0 .1-.032.133-.064l1.876-2.607c.1-.129.033-.193-.034-.193Z"/><path fill="#139AD6" d="M24.631 7.407a.612.612 0 0 1-.636.515c-.167 0-.302-.065-.368-.161a.665.665 0 0 1-.101-.386.612.612 0 0 1 .636-.515c.168 0 .302.064.369.16a.67.67 0 0 1 .1.387Zm.77-1.064h-.569c-.033 0-.1.033-.1.065l-.034.16-.034-.064c-.133-.16-.401-.225-.67-.225-.636 0-1.171.45-1.272 1.094-.067.322.034.612.2.837.168.193.403.29.704.29.503 0 .77-.322.77-.322l-.033.161c0 .064.033.097.1.097h.503c.067 0 .134-.065.167-.13l.302-1.866c.067-.064.033-.097-.034-.097Z"/><path fill="#263B80" d="M13.613 6.345c-.067.418-.402.418-.703.418h-.168l.134-.772c0-.032.034-.065.1-.065h.068c.2 0 .402 0 .502.13.067.031.1.16.067.289Zm-.134-1.062h-1.172c-.067 0-.134.064-.167.128l-.469 2.897c0 .064.034.097.1.097h.57c.067 0 .134-.065.167-.13l.134-.771c0-.065.067-.13.167-.13h.369c.77 0 1.239-.353 1.34-1.061.066-.322 0-.547-.135-.74-.2-.194-.502-.29-.904-.29Zm2.748 2.124a.613.613 0 0 1-.637.515c-.167 0-.301-.065-.368-.161a.665.665 0 0 1-.1-.386c.066-.322.3-.515.636-.515.167 0 .301.064.368.16a.67.67 0 0 1 .1.387Zm.769-1.064h-.57c-.033 0-.1.033-.1.065l-.033.16-.034-.064c-.134-.16-.402-.225-.67-.225-.636 0-1.172.45-1.272 1.094-.067.322.033.612.2.837.168.193.402.29.704.29.502 0 .77-.322.77-.322l-.034.161c0 .064.034.097.101.097h.503c.067 0 .134-.065.167-.13l.302-1.866c.067-.064.033-.097-.034-.097Z"/><path fill="#139AD6" d="m26.072 5.378-.47 2.961c0 .064.034.096.101.096h.503c.067 0 .134-.064.167-.128l.47-2.897c0-.064-.034-.096-.102-.096h-.535c-.068-.033-.134 0-.134.064M9.427 7.277c.1-.611 0-1.03-.335-1.416-.368-.418-1.071-.58-1.942-.58H4.605a.389.389 0 0 0-.369.29l-1.072 6.437a.208.208 0 0 0 .201.258H4.94l-.1.643c-.034.097.067.226.2.226h1.307c.167 0 .301-.097.301-.258v-.064l.235-1.513v-.096a.314.314 0 0 1 .301-.257h.201c1.273 0 2.278-.515 2.58-1.931.133-.612.066-1.095-.269-1.449 0-.129-.134-.225-.268-.29Z"/><path fill="#000" d="M5.81 7.278c.034-.097.1-.194.168-.226.033-.032.1-.032.133-.032h1.976c.235 0 .47 0 .67.032.067 0 .1.032.168.032.067 0 .1.033.167.033.034 0 .067 0 .067.032.1.032.201.064.268.096.1-.611 0-1.03-.335-1.416-.368-.418-1.071-.579-1.942-.579H4.605a.389.389 0 0 0-.369.29l-1.072 6.437a.208.208 0 0 0 .201.257H4.94l.402-2.414.47-2.542Z"/><path fill="#232C65" d="M9.427 7.245c.1-.611 0-1.03-.335-1.416-.368-.418-1.071-.579-1.942-.579H4.605a.389.389 0 0 0-.369.29l-1.072 6.437a.208.208 0 0 0 .201.257H4.94l.402-2.414v.064a.36.36 0 0 1 .369-.29h.737c1.473 0 2.612-.579 2.947-2.22.033-.032.033-.064.033-.129Z"/></svg>