<svg xmlns="http://www.w3.org/2000/svg" width="20" height="12" fill="none" viewBox="0 0 20 12"><g clip-path="url(#a)"><rect width="20" height="12" fill="#FFB3C7" rx="2"/><path fill="#000" d="M17.769 6.864a.456.456 0 0 0-.42.633.456.456 0 0 0 .42.284.456.456 0 0 0 .42-.633.456.456 0 0 0-.42-.284Zm-1.494-.354a.642.642 0 0 0-.656-.627.642.642 0 0 0-.656.627c0 .347.294.628.656.628a.642.642 0 0 0 .656-.628Zm.002-1.22h.724v2.44h-.724v-.156a1.262 1.262 0 0 1-.717.223 1.281 1.281 0 0 1-1.276-1.287c0-.71.571-1.287 1.276-1.287.266 0 .513.083.717.224V5.29Zm-3.279-.065c-.29 0-.563.09-.746.34v-.274h-.72v2.44h.729V6.447c0-.37.246-.552.543-.552.318 0 .501.191.501.547V7.73h.723V6.18c0-.569-.447-.955-1.03-.955Zm-2.514.382V5.29h-.74v2.44h.742V6.59c0-.384.412-.59.699-.59h.008v-.71c-.294 0-.563.127-.709.317Zm-1.845.903a.642.642 0 0 0-.656-.627.642.642 0 0 0-.656.627c0 .347.294.628.657.628a.642.642 0 0 0 .655-.628Zm.003-1.22h.724v2.44h-.724v-.156a1.27 1.27 0 0 1-.718.223A1.281 1.281 0 0 1 6.648 6.51c0-.71.571-1.287 1.276-1.287.266 0 .513.083.718.224V5.29ZM5.594 7.73h.758V4.204h-.758V7.73Zm-3.329 0h.803V4.204h-.802V7.73Zm2.807-3.527c0 .763-.295 1.474-.82 2.002L5.36 7.731h-.99L3.163 6.073l.312-.235a2.032 2.032 0 0 0 .81-1.635h.786Z"/></g><defs><clipPath id="a"><rect width="20" height="12" fill="#fff" rx="2"/></clipPath></defs></svg>