<svg xmlns="http://www.w3.org/2000/svg" width="38" height="24" fill="none" viewBox="0 0 38 24"><rect width="37" height="23" x=".5" y=".5" fill="#fff" stroke="#000" rx="1.5"/><path fill="#4285F4" d="M13.71 11.537c0-.342-.028-.684-.083-1.019H8.956v1.933h2.676a2.33 2.33 0 0 1-.99 1.529v1.256h1.596c.935-.872 1.472-2.164 1.472-3.699Z"/><path fill="#34A853" d="M8.956 16.45c1.334 0 2.463-.446 3.282-1.214L10.64 13.98c-.447.307-1.018.481-1.685.481-1.294 0-2.388-.886-2.78-2.073H4.53v1.299a4.941 4.941 0 0 0 4.425 2.763Z"/><path fill="#3C4043" d="m34 9.862-3.702 8.62h-1.142l1.376-3.016-2.428-5.604h1.204l1.754 4.3h.02l1.714-4.3H34ZM18.189 8.173v3.057h1.858c.412.014.811-.154 1.093-.454a1.555 1.555 0 0 0-.034-2.17 1.5 1.5 0 0 0-1.06-.433H18.19Zm0 4.132v3.545H17.08V7.098h2.938a2.613 2.613 0 0 1 1.9.76 2.552 2.552 0 0 1 .123 3.574l-.124.126c-.516.495-1.149.747-1.899.747h-1.83Zm5.649 1.709a.91.91 0 0 0 .364.733c.248.196.55.3.86.293a1.75 1.75 0 0 0 1.246-.523c.364-.349.55-.76.55-1.235-.344-.28-.825-.42-1.445-.412-.447 0-.825.112-1.128.328-.296.216-.447.489-.447.816Zm1.43-4.347c.82 0 1.466.223 1.941.663.475.44.709 1.053.709 1.828v3.692h-1.06v-.83h-.048c-.46.684-1.066 1.026-1.83 1.026-.647 0-1.197-.196-1.63-.587a1.863 1.863 0 0 1-.654-1.465c0-.621.234-1.11.694-1.48.462-.37 1.08-.551 1.851-.551.66 0 1.198.125 1.624.363v-.258a1.32 1.32 0 0 0-.454-.999 1.596 1.596 0 0 0-1.066-.411c-.62 0-1.108.265-1.466.795l-.977-.62c.523-.776 1.314-1.166 2.367-1.166Z"/><path fill="#FBBC04" d="M6.176 12.388a3.073 3.073 0 0 1 0-1.926V9.171H4.532a5.046 5.046 0 0 0 0 4.509l1.644-1.292Z"/><path fill="#EA4335" d="M8.956 8.39a2.645 2.645 0 0 1 1.899.753l1.417-1.438A4.744 4.744 0 0 0 8.956 6.4a4.948 4.948 0 0 0-4.424 2.771l1.644 1.298c.392-1.193 1.486-2.08 2.78-2.08Z"/></svg>