<svg viewBox="0 0 16 16" xmlns="http://www.w3.org/2000/svg">
  <path
    fill-rule="evenodd"
    clip-rule="evenodd"
    d="M6.682 4.104a3.358 3.358 0 0 1-2.578 2.578l-2.467.53c-.85.182-.85 1.394 0 1.576l2.467.53a3.358 3.358 0 0 1 2.578 2.578l.53 2.467c.182.85 1.394.85 1.576 0l.53-2.467a3.358 3.358 0 0 1 2.578-2.578l2.467-.53c.85-.182.85-1.394 0-1.576l-2.467-.53a3.358 3.358 0 0 1-2.578-2.578l-.53-2.467c-.182-.85-1.394-.85-1.576 0l-.53 2.467ZM8 6.145A5.364 5.364 0 0 1 6.145 8 5.364 5.364 0 0 1 8 9.855 5.364 5.364 0 0 1 9.855 8 5.364 5.364 0 0 1 8 6.145Z"
  />
</svg>
