<svg xmlns="http://www.w3.org/2000/svg" width="50" height="32" fill="none" viewBox="0 0 50 32"><rect width="49" height="31" x=".5" y=".5" fill="#fff" stroke="#000" rx="1.5"/><path fill="#E21836" d="M14.666 5.333h8.63c1.204 0 1.953.969 1.672 2.161l-4.017 17.015c-.284 1.188-1.49 2.158-2.695 2.158h-8.63c-1.202 0-1.953-.97-1.672-2.158l4.02-17.015c.28-1.192 1.486-2.16 2.692-2.16"/><path fill="#00447C" d="M23.259 5.333h8.997c1.092 0 .6.969.343 2.161l-3.642 17.015c-.256 1.188-.176 2.158-1.27 2.158h-8.998c-1.094 0-1.772-.97-1.515-2.158l3.643-17.015c.258-1.192 1.349-2.16 2.442-2.16"/><path fill="#007B84" d="M31.798 5.333h8.63c1.206 0 1.956.969 1.672 2.161l-4.017 17.015c-.284 1.188-1.49 2.158-2.697 2.158H26.76c-1.207 0-1.956-.97-1.673-2.158l4.018-17.015c.281-1.192 1.486-2.16 2.693-2.16"/><path fill="#FEFEFE" d="M28.882 16.04c.03-.16.208-1.112.21-1.112 0 0 .152-.698.161-.723 0 0 .048-.073.096-.102h.07c.664 0 1.414 0 2.002-.473.4-.325.673-.804.795-1.386a2.33 2.33 0 0 0 .055-.483c0-.223-.041-.444-.16-.616-.3-.459-.896-.467-1.585-.47l-.34.003c-.881.011-1.235.008-1.38-.011l-.035.195-.316 1.605-.792 3.567c.77-.01 1.086-.01 1.219.006Zm-12.203-5.342c-.834.009-1.08 0-1.16-.02-.03.157-.592 2.998-.594 3-.12.575-.21.985-.509 1.25a.859.859 0 0 1-.598.228c-.37 0-.585-.201-.621-.582l-.007-.131.112-.775s.59-2.59.697-2.931a.25.25 0 0 0 .008-.04c-1.15.012-1.353 0-1.367-.02a5.237 5.237 0 0 0-.036.189L12 13.784l-.052.248-.1.81c0 .24.043.436.128.601.275.526 1.059.605 1.502.605.571 0 1.107-.133 1.47-.376.627-.406.792-1.04.939-1.604v-.002l.068-.29s.608-2.69.712-3.04l.001-.006a.106.106 0 0 1 .01-.032Zm2.07 2.17c-.147 0-.415.038-.656.168-.067.037-.131.08-.197.123l-.06.039.079-.311-.043-.052a11.89 11.89 0 0 1-1.009.187l-.088.014-.04.028c-.054.497-.103.871-.306 1.848-.077.36-.157.723-.238 1.083l.022.045c.483-.028.63-.028 1.05-.02l.034-.04.036-.207c.03-.17.056-.326.143-.769l.042-.222c.06-.315.141-.744.186-.921.105-.054.209-.106.308-.106.23 0 .207.215.198.308v.006c-.01.15-.097.642-.185 1.064l-.058.272-.066.31-.061.285.018.04a10.15 10.15 0 0 1 1.028-.02l.048-.04c.073-.468.095-.593.226-1.273l.065-.313c.128-.612.192-.922.095-1.175-.102-.283-.346-.351-.571-.351Zm2.228.658.084-.018.01.024.006.025a65.69 65.69 0 0 1-.14.637l-.065.3c-.024.112-.049.225-.072.338l-.087.424c-.032.154-.05.243-.063.315a3.94 3.94 0 0 0-.031.2 18.05 18.05 0 0 1-.031.208l-.023.022-.022.019-.213-.002c-.135-.002-.242-.004-.346 0-.14.002-.278.009-.475.02l-.057.002-.012-.022-.015-.023c.055-.226.088-.323.116-.405l.011-.035c.032-.092.06-.183.116-.445.072-.343.116-.58.145-.79.025-.15.04-.283.058-.422l.019-.153.018-.015.019-.02c.245-.037.4-.062.559-.09.142-.02.285-.05.491-.094Zm.09-.882c-.23-.148-.634-.101-.906.104-.271.201-.302.487-.073.638.226.144.632.101.901-.106.27-.205.305-.489.078-.636Zm2.693 2.886c-.36.416-.837.557-1.302.557-.182 0-.465-.026-.661-.118-.636-.281-.534-1.037-.446-1.458.087-.412.231-.842.544-1.16.436-.439.993-.464 1.227-.464.39 0 .764.095.977.393.14.195.25.516.108 1.202-.044.207-.17.71-.447 1.048Zm-1.338-.987c-.037.18-.068.345-.066.508.003.328.205.328.24.328.114 0 .217-.082.304-.217.125-.183.218-.614.238-.73.113-.52.094-.845-.159-.845-.323 0-.45.436-.557.956Zm2.985 1.437-.037.04a10.71 10.71 0 0 0-1.048.02l-.021-.045c.08-.36.16-.723.238-1.083.203-.977.25-1.35.306-1.848l.036-.028.1-.016c.391-.06.526-.08.998-.185l.04.052-.074.311c.085-.057.17-.113.256-.162.24-.13.509-.168.656-.168.221 0 .468.068.572.351.095.253.03.563-.098 1.175l-.064.313c-.134.68-.153.805-.225 1.273l-.05.04a10.106 10.106 0 0 0-1.026.02l-.018-.04c.022-.11.047-.219.071-.328l.059-.267.055-.272c.09-.422.175-.913.184-1.064v-.005c.01-.093.033-.31-.196-.31-.101 0-.202.052-.305.105l-.004.002c-.041.167-.117.558-.177.866l-.054.277c-.089.47-.114.618-.145.8l-.03.176ZM29.8 11.6l.011-.081.005-.063.134.015.709.067c.273.116.386.414.307.804-.072.356-.282.655-.553.8-.224.122-.497.132-.779.132h-.182l.014-.08.334-1.593Zm1.757 2.972c-.089.414-.19 1.17.442 1.44.201.094.382.122.565.112.194-.011.374-.118.54-.271l-.045.189.029.04a15.38 15.38 0 0 1 1.089-.016l.044-.038.009-.053c.069-.445.138-.893.318-1.745.091-.424.182-.845.276-1.267l-.015-.047a18.81 18.81 0 0 1-1.134.202l-.037.033-.015.125a.718.718 0 0 0-.357-.32c-.217-.094-.728.026-1.168.464-.309.313-.457.741-.541 1.152Zm1.627-.917c.205 0 .313.207.29.56l-.058.286c-.024.114-.05.226-.076.338l-.026.115a1.14 1.14 0 0 1-.12.265.542.542 0 0 1-.396.21c-.032 0-.232 0-.239-.323a2.427 2.427 0 0 1 .066-.508c.11-.51.235-.943.559-.943Zm5.021-.743-.039-.049c-.503.112-.595.13-1.057.198l-.034.037-.002.01-.003.014-.002-.008c-.188.473-.27.633-.351.791a6.147 6.147 0 0 0-.263.575l-.002-.042c0-.013 0-.026-.002-.042l-.07-1.484-.044-.049c-.144.03-.25.054-.337.074-.232.051-.336.074-.69.124l-.038.037c-.003.012-.004.024-.006.037l-.002.022.003.007c.048.269.05.278.077.534l.03.268c.015.135.032.27.049.405.016.129.032.257.046.385l.022.195c.036.321.063.562.112 1.12-.138.249-.231.433-.317.6-.119.234-.222.437-.407.741l.003.005-.223.386c-.026.04-.049.069-.081.08a.31.31 0 0 1-.146.023h-.124l-.184.669.63.012a.768.768 0 0 0 .728-.446l.396-.743h-.007l.042-.052c.267-.628 2.293-4.434 2.293-4.434Zm-6.915 8.78h.267l-.207.74h-.264l-.063.229h-.94l.063-.229h-1.91l.19-.684h.195l1.003-3.636.2-.733h.959l-.1.37s.255-.202.497-.27c.2-.059 1.19-.086 1.522-.093v-.003h1.025l.01.418c-.007.07.049.104.169.104h.208l-.19.69h-.554c-.479.037-.661-.188-.649-.442l-.01-.41-.104.369h-.328l-.99 3.58Zm-.517-2.852a2.27 2.27 0 0 1 .393-.061l.184-.667h-.762l-.254.915s.286-.141.44-.188Zm-.382 1.379c.157-.04.397-.072.397-.072l.185-.667h-.766l-.262.953s.29-.163.446-.214Zm-.03 1.482.22-.803h-.763l-.221.803h.764Zm2.942-2.22h-1.101l.187-.693h3.066l-.19.692h-1.029l-.16.561h1.031l-.171.614h-1.115l-.198.259h.452l.11.773.009.055c.006.047.01.081.027.105.024.027.16.042.238.042h.138l-.21.752h-.348c-.047 0-.115-.003-.206-.007l-.038-.002c-.077-.008-.138-.047-.193-.082a.92.92 0 0 0-.055-.034.359.359 0 0 1-.183-.262l-.108-.772-.508.76c-.16.241-.378.425-.746.425h-.71l.187-.672h.271a.411.411 0 0 0 .198-.063.312.312 0 0 0 .15-.137l.74-1.14h-.977l.168-.614h1.116l.158-.56Zm-10.407 2.377.257-.937h1.057l.193-.696h-1.058l.162-.577h1.034l.191-.674h-2.586l-.188.674h.588l-.157.577h-.59l-.195.708h.588l-.343 1.239a.281.281 0 0 0 .043.267.826.826 0 0 1 .022.036.287.287 0 0 0 .19.15c.103.026.174.041.27.041h1.192l.212-.771-.528.08c-.102 0-.385-.014-.354-.117Zm-.146-3.953.267-.53h1.054l-.186.385h1.061l-.192.706h-1.45l-.156.149a.178.178 0 0 1-.096.058.337.337 0 0 0-.083.036.983.983 0 0 1-.476.134h-.465l.187-.678h.14c.117 0 .198-.012.24-.04a.609.609 0 0 0 .155-.22Zm2.407 3.966c-.025-.039-.007-.107.03-.25l.397-1.435h1.409a8.56 8.56 0 0 0 .45-.014.868.868 0 0 0 .34-.125.662.662 0 0 0 .245-.248c.061-.092.16-.293.244-.604l.498-1.816-1.463.01s-.45.072-.648.152c-.2.09-.486.34-.486.34l.132-.498h-.903l-1.265 4.591a3.069 3.069 0 0 0-.082.386c-.002.074.075.147.137.206l.024.023c.059.049.14.053.225.058.023 0 .046.002.07.004a6.3 6.3 0 0 0 .495.015h.694l.213-.787-.622.064a.16.16 0 0 1-.134-.072Zm2.162-2.654-.093.322c-.005.003-.011.002-.023 0a.6.6 0 0 0-.173.004h-1.282l.091-.326h1.48Zm-1.183-1.083h1.492l-.107.389s-.703-.008-.816.015a1.61 1.61 0 0 0-.785.384l.216-.788ZM27.2 20.72a.174.174 0 0 0 .059-.1l.088-.307h.69l-.085.436c-.036.137-.066.238-.16.326a.62.62 0 0 1-.486.189l-.502.022-.004.493c-.004.111.017.125.035.137l.014.01a.176.176 0 0 0 .064.044h.001l.16-.01.478-.028-.198.72h-.55c-.385 0-.67-.01-.763-.091-.093-.064-.105-.145-.104-.283l.036-1.922h.877l-.012.393h.21c.073 0 .122-.008.152-.029Z"/></svg>