<svg viewBox="0 0 20 20" xmlns="http://www.w3.org/2000/svg">
  <path
    fill-rule="evenodd"
    clip-rule="evenodd"
    d="M10 0a1 1 0 0 1 1 1v1a1 1 0 1 1-2 0V1a1 1 0 0 1 1-1ZM3.636 5.05l-.707-.707a1 1 0 0 1 1.414-1.414l.707.707A1 1 0 0 1 3.636 5.05ZM3 10a1 1 0 0 1-1 1H1a1 1 0 1 1 0-2h1a1 1 0 0 1 1 1Zm1.343 7.071.707-.707a1 1 0 1 0-1.414-1.414l-.707.707a1 1 0 1 0 1.414 1.414ZM10 17a1 1 0 0 1 1 1v1a1 1 0 1 1-2 0v-1a1 1 0 0 1 1-1Zm4.95-.637.707.707a1 1 0 0 0 1.414-1.414l-.707-.707a1 1 0 1 0-1.414 1.414ZM20 10a1 1 0 0 1-1 1h-1a1 1 0 1 1 0-2h1a1 1 0 0 1 1 1Zm-3.636-4.95.707-.707a1 1 0 0 0-1.414-1.414l-.707.707a1 1 0 1 0 1.414 1.414ZM7 10a3 3 0 1 1 6 0 3 3 0 0 1-6 0Zm3-5a5 5 0 1 0 0 10 5 5 0 0 0 0-10Z"
  />
</svg>
