<svg xmlns="http://www.w3.org/2000/svg" width="30" height="18" fill="none" viewBox="0 0 30 18"><g clip-path="url(#a)"><path fill="#E53238" d="M0 0h7.8v18H0z"/><path fill="#0064D2" d="M7.8 0H15v18H7.8z"/><path fill="#86B817" d="M22.8 0H30v18h-7.2z"/><path fill="#F4C252" d="M15 0h7.8v18H15z"/><rect width="28" height="16" x="1" y="1" fill="#fff" rx="1"/><path fill="#F5AF02" fill-rule="evenodd" d="M20.582 10.89c0 .315.01.626.039.907h-1.063a5.602 5.602 0 0 1-.039-.683c-.574.67-1.258.863-2.206.863-1.406 0-2.159-.706-2.159-1.522 0-1.182 1.024-1.598 2.802-1.637a75.47 75.47 0 0 1 1.484-.012v-.115c0-.792-.535-1.117-1.461-1.117-.688 0-1.195.27-1.247.737h-1.2c.127-1.164 1.415-1.458 2.547-1.458 1.357 0 2.503.458 2.503 1.82v2.216Zm-2.548-1.345c-1.036.032-1.68.21-1.68.857 0 .42.353.874 1.247.874 1.199 0 1.838-.62 1.838-1.637v-.112c-.42 0-.938.004-1.405.018Z" clip-rule="evenodd"/><path fill="#E53238" fill-rule="evenodd" d="M4.764 9.69c.061.984.776 1.566 1.76 1.566.681 0 1.287-.264 1.49-.837h1.178c-.229 1.163-1.53 1.558-2.651 1.558-2.038 0-2.94-1.065-2.94-2.502 0-1.58.933-2.622 2.958-2.622 1.612 0 2.793.8 2.793 2.548v.288H4.764Zm3.388-.722c-.045-1.014-.816-1.394-1.64-1.394-.89 0-1.6.427-1.724 1.394h3.364Z" clip-rule="evenodd"/><path fill="#0064D2" fill-rule="evenodd" d="M9.35 4.944h1.143v2.724c.56-.633 1.331-.817 2.09-.817 1.274 0 2.687.816 2.687 2.576 0 1.474-1.124 2.548-2.708 2.548-.829 0-1.609-.282-2.09-.841 0 .223-.013.448-.04.661h-1.12c.02-.344.039-.773.039-1.12v-5.73Zm2.931 6.29c1.062 0 1.789-.726 1.789-1.82 0-1.095-.727-1.82-1.789-1.82-1.055 0-1.788.725-1.788 1.82 0 1.094.733 1.82 1.788 1.82Z" clip-rule="evenodd"/><path fill="#86B817" fill-rule="evenodd" d="m26.4 7.033-3.533 6.585h-1.279l1.016-1.828-2.659-4.757h1.337l1.956 3.717 1.951-3.717H26.4Z" clip-rule="evenodd"/></g><defs><clipPath id="a"><rect width="30" height="18" fill="#fff" rx="2"/></clipPath></defs></svg>