<svg xmlns="http://www.w3.org/2000/svg" width="50" height="32" fill="none" viewBox="0 0 50 32"><g clip-path="url(#a)"><rect width="49" height="31" x=".5" y=".5" fill="#fff" stroke="#000" rx="1.5"/><path fill="#0066CB" d="M24.967 22.523c1.938-1.726 3.053-4.23 3.057-6.865-.003-2.634-1.118-5.138-3.057-6.863A9.277 9.277 0 0 0 18.73 6.4c-5.145 0-9.308 4.144-9.308 9.258 0 5.116 4.163 9.26 9.308 9.26a9.277 9.277 0 0 0 6.238-2.395Z"/><path fill="#0066CB" d="M24.967 22.523c1.938-1.726 3.053-4.23 3.057-6.864-.003-2.635-1.118-5.138-3.057-6.864"/><path stroke="#0066CB" stroke-width=".31" d="M24.967 22.523c1.938-1.726 3.053-4.23 3.057-6.864-.003-2.635-1.118-5.138-3.057-6.864"/><path fill="#CC0001" d="M31.218 6.4a9.291 9.291 0 0 0-7.192 3.377h1.882c.263.31.499.638.705.98h-3.292a11.78 11.78 0 0 0-.54.98h4.371c.152.318.276.644.388.98h-5.146a7.54 7.54 0 0 0-.276.98h5.7a9.18 9.18 0 0 1 .208 1.96 9.014 9.014 0 0 1-.485 2.94h-5.145c.111.337.236.664.387.982h4.371a8.803 8.803 0 0 1-.539.98h-3.293c.209.343.457.67.706.98h1.88c-.29.35-.608.676-.94.981a9.296 9.296 0 0 0 6.25 2.397c5.131 0 9.295-4.144 9.295-9.26 0-5.111-4.162-9.257-9.295-9.257Z"/><path fill="#231F20" d="M39.269 20.905a.385.385 0 0 1 .768 0 .384.384 0 0 1-.768 0Zm.384.292c.157 0 .297-.13.297-.292a.298.298 0 0 0-.297-.292c-.157 0-.28.13-.28.292 0 .163.123.292.28.292Zm-.053-.123h-.07v-.338h.14c.036 0 .052 0 .088.017a.13.13 0 0 1 .034.084c0 .038-.018.073-.053.086l.053.15h-.087l-.036-.135h-.07v.136Z"/><path fill="#fff" d="M37.305 17.75a.384.384 0 0 1 .768 0 .386.386 0 0 1-.384.385.388.388 0 0 1-.384-.385Zm.384.292a.27.27 0 0 0 .199-.086.29.29 0 0 0 .08-.206.284.284 0 0 0-.28-.29.3.3 0 0 0-.296.29c0 .163.14.292.297.292Zm-.052-.123h-.07v-.338h.141c.018 0 .053.004.087.02a.127.127 0 0 1 .036.085c0 .036-.018.073-.052.086l.052.148h-.087l-.054-.133h-.051l-.002.133Z"/><path fill="#231F20" d="M25.617 15.626c0 .484.264.814.885 1.064.47.192.554.249.554.421 0 .239-.209.346-.678.346-.346 0-.678-.046-1.051-.152l-.152.882.042.008.221.04c.318.037.637.059.956.065 1.231 0 1.798-.405 1.798-1.275 0-.522-.236-.83-.817-1.063-.498-.194-.555-.235-.555-.414 0-.207.194-.312.567-.312.235 0 .553.023.844.058l.166-.883a9.146 9.146 0 0 0-1.023-.075c-1.314-.003-1.771.583-1.756 1.29Zm-8.341 2.61h-1.175l.691-3.61-1.59 3.61h-.968l-.194-3.589-.774 3.59H12.2l.9-4.695h1.84l.027 2.906 1.272-2.906h1.95l-.913 4.694Zm3.75 0h-.969l.028-.396c-.305.313-.691.462-1.217.462-.636 0-1.066-.424-1.066-1.042 0-.932.748-1.472 2.034-1.472.139 0 .305.01.47.03a.737.737 0 0 0 .055-.25c0-.253-.209-.347-.748-.347-.332 0-.705.041-.968.107l-.152.04-.111.025.166-.857c.581-.147.954-.204 1.383-.204.996 0 1.522.388 1.522 1.12 0 .188-.014.332-.096.757l-.278 1.596-.027.194-.028.134.002.103Zm-.79-1.7a2.144 2.144 0 0 0-.263-.017c-.65 0-.98.195-.98.58 0 .237.165.39.414.39.47.001.817-.39.83-.954Zm4.592 1.619a4.506 4.506 0 0 1-1.19.154c-1.299 0-1.964-.587-1.964-1.71 0-1.31.858-2.275 2.02-2.275.953 0 1.562.54 1.562 1.387 0 .282-.042.556-.152.942H22.81c-.014.058-.014.084-.014.12 0 .443.345.669 1.023.669.415 0 .79-.073 1.204-.24l-.194.953Zm-.566-2.275c0-.08.014-.144.014-.194 0-.31-.208-.492-.553-.492-.373 0-.636.244-.733.685l1.272.001Zm12.918.626c-.166 1.27-1.065 1.832-2.255 1.832-1.3 0-1.825-.79-1.825-1.76 0-1.354.886-2.269 2.27-2.269 1.202 0 1.84.755 1.84 1.723-.002.235-.002.252-.03.474Zm-1.176-.458c0-.4-.167-.777-.636-.777-.594 0-.954.696-.954 1.31 0 .517.248.865.663.857.249 0 .788-.34.885-.935.029-.135.042-.289.042-.455ZM30.21 18.19c-.27.08-.55.122-.83.125-.594 0-.914-.295-.914-.84 0-.107 0-.221.027-.342l.07-.375.055-.302.539-2.916h1.147l-.166.877h.594l-.166.927h-.594l-.303 1.597c-.015.07-.015.122-.015.157 0 .197.111.283.387.283.107.004.215-.008.318-.036l-.15.845Z"/><path fill="#fff" d="M30.5 17.92c-.27.08-.549.121-.83.124-.594 0-.913-.297-.913-.839 0-.108.014-.222.027-.343l.07-.375.055-.303.539-2.914h1.147l-.166.877h.594l-.166.928h-.594l-.304 1.593c-.014.07-.014.123-.014.158 0 .197.124.281.4.281.103.003.206-.01.305-.036l-.15.849Z"/><path fill="#231F20" d="m33.473 15.242-.027-.119.235-.598c-.056-.005-.084-.007-.084-.012-.07-.013-.097-.02-.111-.02a.426.426 0 0 0-.11-.01c-.387 0-.65.168-1.01.618l.124-.68h-1.204l-.705 3.814h1.147c.152-.876.221-1.373.318-1.787.152-.687.664-.998 1.038-.929.042.008.07.008.124.028l.07.027.195-.332Z"/><path fill="#fff" d="M33.875 14.178c-.097-.038-.111-.038-.124-.041-.057-.014-.097-.02-.097-.024-.042-.005-.083-.01-.125-.01-.372 0-.65.17-1.01.622l.111-.58h-1.05l-.706 3.818h1.162c.415-2.334.594-2.744 1.148-2.744.042 0 .082.004.139.01l.139.028.413-1.079Zm-7.967 1.177c0 .48.276.814.9 1.064.469.191.538.247.538.421 0 .238-.208.345-.663.345-.355 0-.71-.05-1.05-.15l-.167.88.055.008.208.038c.317.038.635.06.954.067 1.244 0 1.812-.403 1.812-1.274 0-.525-.235-.83-.83-1.062-.483-.194-.538-.237-.538-.416 0-.206.193-.31.566-.31.236 0 .54.02.844.056l.167-.884a9.168 9.168 0 0 0-1.038-.074c-1.303-.002-1.758.585-1.758 1.291Zm-8.341 2.609h-1.162l.692-3.608-1.591 3.608h-1.05l-.195-3.585-.69 3.585h-1.053l.9-4.694h1.812l.082 2.907L16.6 13.27h1.881l-.913 4.694Zm3.763.001h-.97l.028-.395c-.29.313-.69.46-1.217.46-.623 0-1.05-.424-1.05-1.042 0-.93.747-1.472 2.033-1.472.124 0 .29.012.47.03.027-.126.042-.18.042-.249 0-.252-.208-.346-.747-.346-.333 0-.706.04-.954.104l-.167.042-.096.024.151-.86a5.271 5.271 0 0 1 1.383-.2c.996 0 1.523.387 1.523 1.119 0 .187-.015.331-.083.755l-.25 1.358-.042.242-.027.194-.015.131-.013.105Zm-.845-1.7a2.084 2.084 0 0 0-.263-.014c-.65 0-.981.195-.981.58 0 .237.151.39.415.39.47 0 .802-.392.83-.956Zm4.634 1.618a4.54 4.54 0 0 1-1.177.155c-1.3 0-1.977-.587-1.977-1.711 0-1.31.857-2.275 2.02-2.275.953 0 1.562.54 1.562 1.386 0 .282-.042.557-.14.943h-2.294c-.013.06-.013.087-.013.121 0 .443.345.669 1.01.669.415 0 .79-.075 1.203-.243l-.194.955Zm-.609-2.27v-.197c0-.31-.194-.49-.539-.49-.373 0-.636.242-.747.684l1.286.002Zm12.974.623c-.181 1.27-1.066 1.833-2.255 1.833-1.314 0-1.84-.792-1.84-1.76 0-1.353.899-2.27 2.282-2.27 1.203 0 1.84.754 1.84 1.723.007.158-.003.317-.027.474Zm-1.203-.49c0-.399-.166-.775-.636-.775-.594 0-.954.696-.954 1.31 0 .518.249.866.664.858.248 0 .788-.34.884-.935.028-.14.042-.293.042-.457Z"/></g><defs><clipPath id="a"><path fill="#fff" d="M0 0h50v32H0z"/></clipPath></defs></svg>