<svg xmlns="http://www.w3.org/2000/svg" width="20" height="12" fill="none" viewBox="0 0 20 12"><g clip-path="url(#a)"><path fill="#10299C" d="M0 1.01C0 .453.452 0 1.01 0h17.98C19.547 0 20 .452 20 1.01v9.98A1.01 1.01 0 0 1 18.99 12H1.01A1.01 1.01 0 0 1 0 10.99V1.01Z"/><path fill="#fff" d="M1.537 9.75h4.61v.75h-4.61v-.75Zm.636-2.303v.221c0 .197-.13.322-.318.322-.19 0-.318-.125-.318-.322v-.221c0-.197.128-.322.318-.322.188 0 .318.125.318.322Z"/><path fill="#10299C" d="M2.035 7.47v.174c0 .155-.073.252-.18.252-.108 0-.18-.097-.18-.252v-.173c0-.154.072-.252.18-.252.107 0 .18.098.18.252Z"/><path fill="#fff" d="M2.941 7.447v.221c0 .197-.13.322-.318.322-.19 0-.318-.125-.318-.322v-.221c0-.197.128-.322.318-.322.188 0 .318.125.318.322Z"/><path fill="#10299C" d="M2.804 7.47v.174c0 .155-.074.252-.18.252-.108 0-.18-.097-.18-.252v-.173c0-.154.072-.252.18-.252.106 0 .18.098.18.252Z"/><path fill="#fff" d="M3.71 7.447v.221c0 .197-.13.322-.318.322-.19 0-.318-.125-.318-.322v-.221c0-.197.127-.322.318-.322.188 0 .318.125.318.322Z"/><path fill="#10299C" d="M3.572 7.47v.174c0 .155-.074.252-.18.252-.108 0-.18-.097-.18-.252v-.173c0-.154.072-.252.18-.252.106 0 .18.098.18.252Z"/><path fill="#fff" d="M4.478 7.447v.221c0 .197-.13.322-.318.322-.19 0-.318-.125-.318-.322v-.221c0-.197.128-.322.318-.322.188 0 .318.125.318.322Z"/><path fill="#10299C" d="M4.34 7.47v.174c0 .155-.073.252-.18.252-.108 0-.18-.097-.18-.252v-.173c0-.154.072-.252.18-.252.107 0 .18.098.18.252Z"/><path fill="#fff" d="M5.63 7.447v.221c0 .197-.13.322-.317.322-.19 0-.318-.125-.318-.322v-.221c0-.197.127-.322.318-.322.188 0 .318.125.318.322Z"/><path fill="#10299C" d="M5.493 7.47v.174c0 .155-.074.252-.18.252-.108 0-.18-.097-.18-.252v-.173c0-.154.072-.252.18-.252.106 0 .18.098.18.252Z"/><path fill="#fff" d="M6.399 7.447v.221c0 .197-.13.322-.318.322-.19 0-.318-.125-.318-.322v-.221c0-.197.128-.322.318-.322.188 0 .318.125.318.322Z"/><path fill="#10299C" d="M6.261 7.47v.174c0 .155-.073.252-.18.252-.108 0-.18-.097-.18-.252v-.173c0-.154.072-.252.18-.252.107 0 .18.098.18.252Z"/><path fill="#fff" d="M7.167 7.447v.221c0 .197-.13.322-.318.322-.19 0-.318-.125-.318-.322v-.221c0-.197.128-.322.318-.322.188 0 .318.125.318.322Z"/><path fill="#10299C" d="M7.03 7.47v.174c0 .155-.074.252-.18.252-.108 0-.18-.097-.18-.252v-.173c0-.154.072-.252.18-.252.106 0 .18.098.18.252Z"/><path fill="#fff" d="M7.936 7.447v.221c0 .197-.13.322-.318.322-.19 0-.318-.125-.318-.322v-.221c0-.197.128-.322.318-.322.188 0 .318.125.318.322Z"/><path fill="#10299C" d="M7.798 7.47v.174c0 .155-.074.252-.18.252-.108 0-.18-.097-.18-.252v-.173c0-.154.072-.252.18-.252.106 0 .18.098.18.252Z"/><path fill="#fff" d="M9.473 7.447v.221c0 .197-.13.322-.318.322-.19 0-.318-.125-.318-.322v-.221c0-.197.127-.322.318-.322.188 0 .318.125.318.322Z"/><path fill="#10299C" d="M9.335 7.47v.174c0 .155-.074.252-.18.252-.108 0-.18-.097-.18-.252v-.173c0-.154.072-.252.18-.252.106 0 .18.098.18.252Z"/><path fill="#fff" d="M10.24 7.447v.221c0 .197-.13.322-.317.322-.19 0-.318-.125-.318-.322v-.221c0-.197.128-.322.318-.322.188 0 .318.125.318.322Z"/><path fill="#10299C" d="M10.103 7.47v.174c0 .155-.074.252-.18.252-.108 0-.18-.097-.18-.252v-.173c0-.154.072-.252.18-.252.106 0 .18.098.18.252Z"/><path fill="#fff" d="M11.01 7.447v.221c0 .197-.13.322-.319.322-.19 0-.318-.125-.318-.322v-.221c0-.197.128-.322.318-.322.188 0 .318.125.318.322Z"/><path fill="#10299C" d="M10.872 7.47v.174c0 .155-.074.252-.18.252-.108 0-.18-.097-.18-.252v-.173c0-.154.072-.252.18-.252.106 0 .18.098.18.252Z"/><path fill="#fff" d="M11.778 7.447v.221c0 .197-.13.322-.318.322-.19 0-.318-.125-.318-.322v-.221c0-.197.128-.322.318-.322.188 0 .318.125.318.322Z"/><path fill="#10299C" d="M11.64 7.47v.174c0 .155-.074.252-.18.252-.108 0-.18-.097-.18-.252v-.173c0-.154.072-.252.18-.252.106 0 .18.098.18.252Z"/><path fill="#fff" d="M12.93 7.447v.221c0 .197-.13.322-.318.322-.19 0-.318-.125-.318-.322v-.221c0-.197.128-.322.318-.322.188 0 .318.125.318.322Z"/><path fill="#10299C" d="M12.793 7.47v.174c0 .155-.074.252-.18.252-.108 0-.18-.097-.18-.252v-.173c0-.154.072-.252.18-.252.106 0 .18.098.18.252Z"/><path fill="#fff" d="M13.699 7.447v.221c0 .197-.13.322-.318.322-.19 0-.318-.125-.318-.322v-.221c0-.197.127-.322.318-.322.188 0 .318.125.318.322Z"/><path fill="#10299C" d="M13.561 7.47v.174c0 .155-.074.252-.18.252-.108 0-.18-.097-.18-.252v-.173c0-.154.072-.252.18-.252.106 0 .18.098.18.252Z"/><path fill="#fff" d="M14.467 7.447v.221c0 .197-.13.322-.318.322-.19 0-.318-.125-.318-.322v-.221c0-.197.128-.322.318-.322.188 0 .318.125.318.322Z"/><path fill="#10299C" d="M14.33 7.47v.174c0 .155-.075.252-.181.252-.108 0-.18-.097-.18-.252v-.173c0-.154.072-.252.18-.252.106 0 .18.098.18.252Z"/><path fill="#fff" d="M15.235 7.447v.221c0 .197-.13.322-.318.322-.19 0-.318-.125-.318-.322v-.221c0-.197.128-.322.318-.322.188 0 .318.125.318.322Z"/><path fill="#10299C" d="M15.098 7.47v.174c0 .155-.074.252-.18.252-.108 0-.18-.097-.18-.252v-.173c0-.154.072-.252.18-.252.106 0 .18.098.18.252Z"/><path fill="#fff" d="M1.537 3.17c0-.3.25-.545.558-.545h1.956c.309 0 .56.244.56.545v1.91c0 .3-.251.545-.56.545H2.095a.552.552 0 0 1-.558-.545V3.17Z"/><path fill="#10299C" d="M3.868 4.696V2.609h.14v.95h.602v.137h-.602v.363h.602v.137h-.602v.363h.602v.137h-.742ZM2.279 3.56h-.742v.136h.602v.363h-.602v.137h.602v.363h-.602v.137h.602v.95h.14V3.559Z"/><path fill="#fff" d="M14 2h4.61v.375H14V2Z"/></g><defs><clipPath id="a"><rect width="20" height="12" fill="#fff" rx="2"/></clipPath></defs></svg>