<svg xmlns="http://www.w3.org/2000/svg" width="38" height="24" fill="none" viewBox="0 0 38 24"><rect width="38" height="24" fill="#000" rx="2"/><path fill="#fff" d="M34.482 13.812a.91.91 0 0 0-.838 1.261.908.908 0 0 0 .838.566c.5 0 .905-.41.905-.914a.91.91 0 0 0-.905-.913Zm-2.977-.706c0-.692-.585-1.252-1.307-1.252s-1.308.561-1.308 1.252c0 .69.586 1.25 1.308 1.25.723 0 1.307-.56 1.307-1.25Zm.005-2.432h1.442v4.863H31.51v-.311c-.42.29-.92.445-1.43.445-1.405 0-2.543-1.148-2.543-2.565s1.138-2.566 2.543-2.566c.53 0 1.022.164 1.43.446v-.312Zm-6.537-.13c-.576 0-1.121.18-1.487.678v-.547H22.05v4.862h1.454v-2.555c0-.739.491-1.101 1.083-1.101.634 0 1 .382 1 1.091v2.565h1.44v-3.092c0-1.131-.892-1.9-2.054-1.9Zm-5.01.762v-.633h-1.477v4.862h1.48v-2.27c0-.767.823-1.178 1.393-1.178h.017v-1.414c-.586 0-1.123.253-1.413.633Zm-3.678 1.8c0-.692-.585-1.252-1.307-1.252s-1.308.561-1.308 1.252c0 .69.586 1.25 1.308 1.25.723 0 1.307-.56 1.307-1.25Zm.005-2.432h1.443v4.863H16.29v-.311c-.408.28-.9.445-1.43.445-1.405 0-2.543-1.148-2.543-2.565s1.138-2.566 2.543-2.566c.53 0 1.022.164 1.43.446v-.312Zm-6.074 4.863h1.51V8.508h-1.51v7.03Zm-6.636.002h1.6V8.506h-1.6v7.033Zm5.595-7.033c0 1.523-.588 2.94-1.637 3.992l2.21 3.041H7.775l-2.402-3.304.62-.47a4.05 4.05 0 0 0 1.616-3.259h1.567Z"/></svg>