<svg xmlns="http://www.w3.org/2000/svg" width="51" height="33" fill="none" viewBox="0 0 51 33"><g clip-path="url(#a)"><rect width="49" height="31" x="1.333" y=".88" fill="#fff" stroke="#000" rx="1.5"/><path fill="#1434CB" d="m21.62 10.753-4.823 11.605H13.65l-2.374-9.262c-.144-.57-.268-.78-.707-1.02-.716-.391-1.898-.759-2.936-.987l.07-.336h5.065c.646 0 1.226.433 1.373 1.183l1.254 6.715 3.098-7.898h3.127Zm12.33 7.817c.013-3.063-4.2-3.232-4.17-4.6.008-.417.402-.86 1.262-.973.427-.056 1.602-.1 2.936.52l.523-2.462a7.912 7.912 0 0 0-2.786-.515c-2.942 0-5.013 1.578-5.03 3.837-.02 1.67 1.477 2.603 2.606 3.158 1.16.569 1.55.934 1.545 1.442-.008.78-.926 1.123-1.783 1.136-1.497.024-2.364-.408-3.057-.732l-.54 2.542c.696.322 1.98.603 3.311.617 3.128 0 5.174-1.558 5.183-3.971m7.77 3.79h2.754L42.07 10.752h-2.542a1.346 1.346 0 0 0-.763.23 1.363 1.363 0 0 0-.503.621l-4.468 10.754h3.126l.62-1.733h3.82l.36 1.733Zm-3.32-4.114 1.567-4.358.902 4.358h-2.47Zm-12.525-7.493-2.462 11.605h-2.977l2.463-11.605h2.976Z"/></g><defs><clipPath id="a"><path fill="#fff" d="M.833.38h50v32h-50v-32Z"/></clipPath></defs></svg>