<svg xmlns="http://www.w3.org/2000/svg" width="20" height="12" fill="none" viewBox="0 0 20 12"><g clip-path="url(#a)"><rect width="19" height="11" x=".5" y=".5" stroke="#000" rx="1.5"/><path fill="#000" d="M17.79 6.864a.455.455 0 0 0-.455.458.457.457 0 0 0 .454.459.456.456 0 0 0 .42-.633.455.455 0 0 0-.42-.284Zm-1.495-.354a.642.642 0 0 0-.656-.627.642.642 0 0 0-.656.627c0 .347.294.628.657.628a.642.642 0 0 0 .655-.628Zm.003-1.22h.723v2.44h-.723v-.156a1.261 1.261 0 0 1-.718.223 1.281 1.281 0 0 1-1.276-1.287c0-.71.572-1.287 1.276-1.287.266 0 .513.083.718.224V5.29Zm-3.28-.065c-.289 0-.563.09-.746.34v-.274h-.72v2.44h.73V6.447c0-.37.245-.552.543-.552.318 0 .5.191.5.547V7.73h.724V6.18c0-.568-.448-.954-1.031-.954Zm-2.513.382V5.29h-.742v2.439h.743v-1.14c0-.384.413-.59.7-.59h.008v-.71c-.294 0-.564.128-.71.318ZM8.66 6.51a.642.642 0 0 0-.656-.627.642.642 0 0 0-.656.627c0 .347.294.628.656.628a.642.642 0 0 0 .655-.628Zm.002-1.22h.724v2.44h-.724v-.156c-.205.14-.451.223-.718.223A1.281 1.281 0 0 1 6.67 6.51c0-.71.57-1.287 1.275-1.287.267 0 .513.083.718.224V5.29ZM5.615 7.73h.757V4.204h-.757V7.73Zm-3.329 0h.802V4.204h-.802V7.73Zm2.806-3.527c0 .763-.295 1.474-.82 2.002L5.38 7.731h-.99L3.185 6.073l.31-.235a2.032 2.032 0 0 0 .811-1.635h.786Z"/></g><defs><clipPath id="a"><path fill="#fff" d="M0 0h20v12H0z"/></clipPath></defs></svg>