<svg xmlns="http://www.w3.org/2000/svg" width="50" height="32" fill="none" viewBox="0 0 50 32"><rect width="49" height="31" x=".5" y=".5" fill="#fff" stroke="#000" rx="1.5"/><path fill="#4285F4" d="M18.04 15.383c0-.456-.037-.912-.11-1.359h-6.146v2.578h3.521a3.11 3.11 0 0 1-1.303 2.038v1.675h2.1c1.231-1.164 1.937-2.885 1.937-4.932Z"/><path fill="#34A853" d="M11.784 21.934c1.756 0 3.24-.596 4.318-1.62l-2.1-1.675c-.589.41-1.34.643-2.218.643-1.702 0-3.142-1.182-3.658-2.764H5.962v1.73c1.105 2.262 3.36 3.686 5.822 3.686Z"/><path fill="#3C4043" d="m44.737 13.15-4.87 11.492h-1.503l1.81-4.02-3.196-7.473h1.585l2.308 5.732h.027l2.255-5.732h1.584Zm-20.804-2.253v4.076h2.444a1.88 1.88 0 0 0 1.44-.605c.76-.81.742-2.112-.046-2.894a1.96 1.96 0 0 0-1.394-.577h-2.444Zm0 5.51v4.727h-1.458V9.464h3.866a3.413 3.413 0 0 1 2.498 1.014 3.436 3.436 0 0 1 .164 4.765l-.163.168c-.68.66-1.512.995-2.5.995h-2.407Zm7.432 2.279c0 .39.181.754.48.977.326.26.724.4 1.132.39.615 0 1.204-.25 1.638-.697.48-.465.725-1.014.725-1.647-.453-.372-1.087-.558-1.902-.55-.588 0-1.086.15-1.484.438-.39.289-.589.652-.589 1.089Zm1.884-5.797c1.077 0 1.928.298 2.552.884.625.586.933 1.405.933 2.438v4.923H35.34v-1.108h-.064c-.606.912-1.403 1.368-2.408 1.368-.85 0-1.575-.26-2.145-.781a2.498 2.498 0 0 1-.86-1.955c0-.828.308-1.48.914-1.973.607-.493 1.421-.735 2.435-.735.87 0 1.575.168 2.137.484v-.344a1.77 1.77 0 0 0-.598-1.33 2.085 2.085 0 0 0-1.403-.55c-.815 0-1.458.354-1.928 1.061l-1.286-.828c.688-1.033 1.73-1.554 3.114-1.554Z"/><path fill="#FBBC04" d="M8.126 16.518a4.15 4.15 0 0 1 0-2.569v-1.721H5.963a6.808 6.808 0 0 0 0 6.011l2.163-1.721Z"/><path fill="#EA4335" d="M11.784 11.186a3.456 3.456 0 0 1 2.498 1.005l1.865-1.917a6.198 6.198 0 0 0-4.363-1.74c-2.463 0-4.717 1.433-5.821 3.694l2.163 1.73c.516-1.59 1.956-2.772 3.658-2.772Z"/></svg>