<svg viewBox="0 0 30 18" xmlns="http://www.w3.org/2000/svg">
  <rect width="30" height="18" rx="2" fill="url(#ref-cb-18-colored)" />
  <path
    d="M25.096 6.389a2.24 2.24 0 0 0-.163-.843 2.062 2.062 0 0 0-.465-.696 1.82 1.82 0 0 0-.748-.465c-.267-.086-.636-.129-1.11-.129h-6.26v4.282h6.26c.465 0 .835-.042 1.11-.128.275-.086.516-.241.748-.465.207-.206.361-.43.465-.696.111-.292.163-.576.163-.86Zm0 5.229a2.24 2.24 0 0 0-.163-.843 2.062 2.062 0 0 0-.465-.697 1.82 1.82 0 0 0-.748-.464c-.267-.086-.636-.129-1.11-.129h-6.26v4.265h6.26c.465 0 .835-.043 1.11-.129a1.87 1.87 0 0 0 .748-.464 1.98 1.98 0 0 0 .465-.697 2.24 2.24 0 0 0 .163-.842Zm-9.623-3.096c-.207-2.778-2.184-4.558-5.272-4.558-3.25 0-5.297 1.987-5.297 5.03 0 3.148 2.124 5.04 5.297 5.04 3.105 0 5.074-1.789 5.272-4.558h-5.34V8.53h5.34v-.008Z"
    fill="#fff"
  />
  <defs>
    <linearGradient
      id="ref-cb-18-colored"
      x1="0"
      y1="3.99"
      x2="28.317"
      y2="19.356"
      gradientUnits="userSpaceOnUse"
    >
      <stop offset=".055" stop-color="#2B307A" />
      <stop offset=".172" stop-color="#2B569C" />
      <stop offset=".304" stop-color="#2B88C9" />
      <stop offset=".406" stop-color="#9EBBDD" />
      <stop offset=".493" stop-color="#E3D2D2" />
      <stop offset=".536" stop-color="#EFBCB8" />
      <stop offset=".616" stop-color="#E87A6E" />
      <stop offset=".691" stop-color="#D73F3B" />
      <stop offset=".946" stop-color="#CC191B" />
    </linearGradient>
  </defs>
</svg>
