<svg xmlns="http://www.w3.org/2000/svg" width="30" height="18" fill="none" viewBox="0 0 30 18"><rect width="29" height="17" x=".5" y=".5" fill="#fff" stroke="#000" rx="3.5"/><path fill="url(#a)" d="M29.022 18H.978c-.54-.002-.976-.422-.978-.942V.942C0 .424.44 0 .978 0h28.044c.538 0 .978.424.978.942v16.116c0 .518-.44.942-.978.942Z"/><path fill="#E59331" d="M23.645 11.656h1.724v2.99h-1.724v-2.99Z"/><path fill="#CF4C3C" d="M23.755 13.152a1.86 1.86 0 0 1 .758-1.496c-.858-.648-2.099-.506-2.775.318a1.86 1.86 0 0 0 .33 2.673 2.043 2.043 0 0 0 2.445 0 1.86 1.86 0 0 1-.758-1.495Z"/><path fill="#EDB837" d="M27.716 13.152c0 .505-.209.99-.58 1.348a2.019 2.019 0 0 1-1.4.559c-.445 0-.876-.146-1.223-.412.474-.362.751-.913.751-1.495 0-.583-.276-1.134-.751-1.496.858-.648 2.099-.506 2.775.318.281.341.428.753.428 1.178Z"/><path fill="#264186" d="M22.8 16.313h6.6v1.125h-6.6z"/><path fill="#D5D0C7" d="M6.54 8.865H3.85a.594.594 0 0 1-.61-.59v-1.6c0-.33.268-.589.61-.589h2.69c.342 0 .611.26.611.589v1.6c0 .33-.269.59-.611.59Z"/><path stroke="#968A81" stroke-width=".15" d="M7.078 7.063H5.99s-.245.342 0 .86c0 0-.281.412.037.895"/><path fill="#968A81" d="M5.99 7.9h1.076v.117H5.99v-.118Zm-1.553.977-.049-.024c.269-.53.061-.895.061-.895v-.024c.11-.623-.012-.859-.012-.859v-.024c.196-.588-.049-.906-.049-.906l.049-.036c.012.012.257.342.061.954.025.058.11.306.013.87.024.072.183.437-.074.944Z"/><path fill="#968A81" d="M4.706 6.357h.978v.118h-.978v-.118Zm-.199.738-1.137.01.002.118 1.136-.01v-.118Zm0 .87-1.136.012.001.118 1.137-.011-.001-.118Zm1.177.594h-.978v.117h.978V8.56Z"/><path fill="#B4C5A5" d="M3.85 8.923h2.69c.38 0 .672-.294.672-.647V6.675c0-.353-.305-.648-.672-.648H3.85c-.366 0-.672.295-.672.648v1.6a.666.666 0 0 0 .673.648ZM3.462 6.3a.56.56 0 0 1 .39-.155H6.54a.56.56 0 0 1 .39.155c.103.1.16.234.16.375v1.6a.52.52 0 0 1-.16.376.56.56 0 0 1-.39.155H3.85a.538.538 0 0 1-.55-.53V6.675c0-.14.058-.276.161-.375Z"/><path fill="#83FFEC" d="M2.14 3.65c0-.801.537-1.06 1.185-1.06.868 0 1.112.565 1.111.93v.236h-1.82c0 .377.292.636.696.636.502 0 .6-.342.6-.342h.477s-.062.624-1.052.624c-.831 0-1.198-.4-1.198-1.024Zm1.808-.201c0-.342-.256-.565-.648-.565-.33 0-.672.212-.672.565h1.32Z"/><path fill="#83FFEC" d="M4.437 4.273v-2.46h.452v1.106s.196-.33.831-.33c.673 0 1.076.46 1.076 1.036 0 .613-.428 1.048-1.076 1.048-.61 0-.83-.341-.83-.341 0 .13-.013.27-.013.27h-.452s.012-.188.012-.33Zm1.883-.647c0-.412-.27-.73-.71-.73-.488 0-.708.377-.72.73 0 .389.256.742.72.742.392 0 .71-.295.71-.742Z"/><path fill="#83FFEC" d="M6.919 3.178c0-.082.061-.588 1.027-.588.464 0 .99.13 1.003.752v.966c0 .106.012.282.012.282h-.428s-.012-.141-.012-.282c0 0-.22.365-.893.365-.501 0-.868-.224-.868-.648 0-.423.403-.635 1.15-.635h.562v-.094c0-.27-.245-.412-.563-.412-.489 0-.513.294-.513.294h-.477Zm1.553.624v-.13c-.734 0-1.223.013-1.223.354 0 .188.147.353.489.353.624 0 .734-.412.734-.577Z"/><path fill="#83FFEC" d="M8.68 2.672h.537L10 4.179l.782-1.507h.489L9.853 5.344H9.34l.403-.741L8.68 2.672Z"/><defs><linearGradient id="a" x1="29.965" x2="29.965" y1="18.006" y2=".03" gradientUnits="userSpaceOnUse"><stop stop-color="#243E83"/><stop offset="1" stop-color="#4573B9"/></linearGradient></defs></svg>