<svg xmlns="http://www.w3.org/2000/svg" width="50" height="32" fill="none" viewBox="0 0 50 32"><g clip-path="url(#a)"><rect width="49" height="31" x=".5" y=".5" fill="#fff" stroke="#000" rx="1.5"/><path fill="#fff" d="M13.158 4h23.684v24H13.158z"/><path fill="#191919" d="m25.002 5.44-9.88 6.315a.943.943 0 0 0-.395 1.053.927.927 0 0 0 .89.678H34.41a.927.927 0 0 0 .889-.678.943.943 0 0 0-.396-1.053L25.002 5.44Zm-6.185 6.17 6.186-3.954 6.2 3.955H18.817Zm-.602 11.063v-7.125h1.85v7.125h-1.85Zm3.915-7.125v7.125h1.85v-7.125h-1.85Zm3.916 0v7.125h1.85v-7.125h-1.85Zm3.914 0v7.125h1.851v-7.125h-1.85ZM14.691 25.637c0-.517.414-.937.925-.937H34.41c.51 0 .925.42.925.938a.931.931 0 0 1-.925.937H15.616a.931.931 0 0 1-.925-.938Z"/></g><defs><clipPath id="a"><path fill="#fff" d="M0 0h50v32H0z"/></clipPath></defs></svg>