<?xml version="1.0" standalone="no"?>
<!DOCTYPE svg PUBLIC "-//W3C//DTD SVG 1.1//EN" "http://www.w3.org/Graphics/SVG/1.1/DTD/svg11.dtd" >
<svg xmlns="http://www.w3.org/2000/svg" xmlns:xlink="http://www.w3.org/1999/xlink" version="1.1">
<metadata>
Created by Christoph Koeberlin (http://christoph.koe.berlin)
Copyright (c) 2016 Swiss Typefaces Sarl. All rights reserved.
</metadata>
<defs>
<font id="Font" horiz-adv-x="584" >
  <font-face 
    font-family="Font"
    font-weight="600"
    font-stretch="normal"
    units-per-em="1000"
    panose-1="2 11 7 4 0 0 0 0 0 0"
    ascent="800"
    descent="-200"
    x-height="538"
    cap-height="745"
    bbox="-167 -317 1104 965"
    underline-thickness="100"
    underline-position="-98"
    unicode-range="U+000D-FB02"
  />
<missing-glyph horiz-adv-x="512" 
 />
    <glyph glyph-name=".notdef" horiz-adv-x="512" 
 />
    <glyph glyph-name="glyph1" horiz-adv-x="0" 
 />
    <glyph glyph-name="uni000D" unicode="&#xd;" horiz-adv-x="238" 
 />
    <glyph glyph-name="space" unicode=" " horiz-adv-x="238" 
 />
    <glyph glyph-name="exclam" unicode="!" horiz-adv-x="330" 
d="M234 745v-494h-138v494h138zM165 177q40 0 67.5 -27.5t27.5 -67.5t-27.5 -67.5t-67.5 -27.5t-67.5 27.5t-27.5 67.5t27.5 67.5t67.5 27.5z" />
    <glyph glyph-name="quotedbl" unicode="&#x22;" horiz-adv-x="353" 
d="M20 745h145l-20 -259h-106zM188 745h145l-20 -259h-106z" />
    <glyph glyph-name="numbersign" unicode="#" horiz-adv-x="737" 
d="M567 450l-20 -151h138l-11 -106h-141l-26 -193h-124l26 193h-133l-26 -193h-124l26 193h-137l13 106h138l20 151h-134l11 107h138l25 188h124l-25 -188h133l25 188h124l-25 -188h140l-13 -107h-142zM443 450h-133l-20 -151h133z" />
    <glyph glyph-name="dollar" unicode="$" horiz-adv-x="636" 
d="M344 -12v-114h-57v115q-73 6 -129.5 40t-87.5 90t-30 127h136q0 -67 31.5 -104.5t79.5 -44.5v229l-38 9q-86 21 -142 72.5t-56 141.5q0 65 33.5 110.5t87.5 69t115 27.5v112h57v-113q72 -6 126.5 -39t84 -86.5t29.5 -120.5h-134q0 60 -30 95.5t-76 42.5v-208l8 -2
q107 -25 174.5 -74t67.5 -149q0 -68 -34 -117.5t-91 -77t-125 -31.5zM287 453v196q-43 -2 -74.5 -26t-31.5 -67q0 -39 27 -65t71 -36zM465 205q0 43 -30 67t-91 40v-217q51 2 86 30t35 80z" />
    <glyph glyph-name="percent" unicode="%" horiz-adv-x="996" 
d="M70 589q0 76 47.5 122t122.5 46t122.5 -46t47.5 -122v-103q0 -76 -47.5 -121.5t-122.5 -45.5t-122.5 45.5t-47.5 121.5v103zM777 745l-440 -745h-117l440 745h117zM240 408q31 0 49.5 21t18.5 57v103q0 36 -18.5 57.5t-49.5 21.5t-50 -21.5t-19 -57.5v-103
q0 -36 18.5 -57t50.5 -21zM586 257q0 76 47.5 122t122.5 46t122.5 -46t47.5 -122v-103q0 -76 -47.5 -121.5t-122.5 -45.5t-122.5 45.5t-47.5 121.5v103zM756 76q31 0 49.5 21t18.5 57v103q0 36 -18.5 57.5t-49.5 21.5t-50 -21.5t-19 -57.5v-103q0 -36 18.5 -57t50.5 -21z
" />
    <glyph glyph-name="ampersand" unicode="&#x26;" horiz-adv-x="807" 
d="M787 328h-174v-89q0 -123 -79 -187.5t-209 -64.5q-80 0 -142.5 27.5t-97.5 78.5t-35 120q0 58 32 107.5t91 72.5q-43 24 -70 67.5t-27 96.5q0 61 32 106.5t88.5 69.5t130.5 24q122 0 195.5 -58t82.5 -161h-144q-5 55 -39.5 81t-88.5 26q-53 0 -86.5 -28t-33.5 -73
q0 -44 33 -73.5t88 -29.5h453v-113zM475 328h-139q-69 0 -108.5 -32.5t-39.5 -83.5t41.5 -82t96.5 -31q68 0 108.5 33.5t40.5 98.5v97z" />
    <glyph glyph-name="quotesingle" unicode="'" horiz-adv-x="185" 
d="M20 745h145l-20 -259h-106z" />
    <glyph glyph-name="parenleft" unicode="(" horiz-adv-x="291" 
d="M300 745q-53 -87 -87.5 -213t-34.5 -257q0 -132 34.5 -257.5t87.5 -212.5h-126q-53 79 -95.5 206.5t-42.5 263.5t42.5 264t95.5 206h126z" />
    <glyph glyph-name="parenright" unicode=")" horiz-adv-x="291" 
d="M117 -195h-126q53 87 87.5 212.5t34.5 257.5q0 131 -34.5 257t-87.5 213h126q53 -78 95.5 -206t42.5 -264t-42.5 -263.5t-95.5 -206.5z" />
    <glyph glyph-name="asterisk" unicode="*" horiz-adv-x="380" 
d="M327 679l33 -87l-102 -35l61 -85l-72 -54l-65 87l-59 -87l-78 53l61 85l-100 36l32 87l97 -38v104h93v-104z" />
    <glyph glyph-name="plus" unicode="+" horiz-adv-x="690" 
d="M408 115h-125v207h-216v120h216v212h125v-212h215v-120h-215v-207z" />
    <glyph glyph-name="comma" unicode="," horiz-adv-x="274" 
d="M103 -7q-27 10 -44 34.5t-17 54.5q0 40 27.5 67.5t67.5 27.5t67.5 -27.5t27.5 -67.5q0 -25 -11.5 -50t-51.5 -90l-65 -107h-91z" />
    <glyph glyph-name="hyphen" unicode="-" horiz-adv-x="431" 
d="M381 327v-120h-331v120h331z" />
    <glyph glyph-name="period" unicode="." horiz-adv-x="274" 
d="M137 177q40 0 67.5 -27.5t27.5 -67.5t-27.5 -67.5t-67.5 -27.5t-67.5 27.5t-27.5 67.5t27.5 67.5t67.5 27.5z" />
    <glyph glyph-name="slash" unicode="/" horiz-adv-x="553" 
d="M537 745l-377 -745h-144l377 745h144z" />
    <glyph glyph-name="zero" unicode="0" horiz-adv-x="682" 
d="M341 -13q-83 0 -148 34.5t-101.5 98.5t-36.5 149v206q0 85 36.5 149t101.5 98.5t148 34.5q82 0 147 -34.5t102 -98.5t37 -149v-206q0 -85 -37 -149t-102 -98.5t-147 -34.5zM192 475v-206q0 -77 40.5 -122t108.5 -45q67 0 107.5 45t40.5 122v206q0 77 -40.5 122t-107.5 45
q-68 0 -108.5 -45t-40.5 -122z" />
    <glyph glyph-name="one" unicode="1" horiz-adv-x="373" 
d="M154 623h-133v122h271v-745h-138v623z" />
    <glyph glyph-name="two" unicode="2" horiz-adv-x="604" 
d="M260 336l39 30q110 84 110 178q0 49 -30.5 75t-74.5 26q-57 0 -89 -33t-33 -101h-136q0 74 32.5 130t91.5 86t136 30q65 0 119.5 -22t88.5 -69.5t34 -119.5q0 -91 -52 -157.5t-141 -129.5q-64 -45 -97 -76t-42 -67h339v-116h-502v49q0 61 29 111.5t70 88t108 87.5z" />
    <glyph glyph-name="three" unicode="3" horiz-adv-x="634" 
d="M168 234q2 -64 43 -98t102 -34q55 0 93 29t38 81q0 51 -39.5 84t-108.5 33h-51v113h53q55 0 89 30.5t34 73.5q0 45 -31 70.5t-80 25.5q-58 0 -91 -32.5t-36 -96.5h-139q8 112 78 178t188 66q112 0 180.5 -53t68.5 -145q0 -52 -27.5 -96.5t-71.5 -68.5q59 -23 91 -72.5
t32 -108.5q0 -68 -37 -119.5t-100 -79t-139 -27.5q-118 0 -194 64.5t-84 182.5h139z" />
    <glyph glyph-name="four" unicode="4" horiz-adv-x="683" 
d="M26 174v108l349 463h159l-342 -454h194v168h137v-168h134v-117h-134v-174h-137v174h-360z" />
    <glyph glyph-name="five" unicode="5" horiz-adv-x="635" 
d="M179 229q4 -59 41.5 -93t93.5 -34q54 0 94 35.5t40 100.5q0 44 -19.5 75t-50.5 47t-64 16q-85 0 -119 -60h-139l66 429h429v-122h-316l-29 -176q53 44 143 44q61 0 115.5 -29.5t88 -86.5t33.5 -137q0 -77 -37 -134t-99 -87t-135 -30q-75 0 -135 28t-97.5 82.5
t-42.5 131.5h139z" />
    <glyph glyph-name="six" unicode="6" horiz-adv-x="654" 
d="M138 439l243 306h162l-201 -254q9 0 27 -2q107 -12 170.5 -79.5t63.5 -170.5q0 -76 -34.5 -133t-97.5 -88t-144 -31t-144 31t-97.5 88t-34.5 133q0 48 19 93t68 107zM466 239q0 60 -39.5 98.5t-99.5 38.5t-99.5 -38.5t-39.5 -98.5t39.5 -98.5t99.5 -38.5t99.5 38.5
t39.5 98.5z" />
    <glyph glyph-name="seven" unicode="7" horiz-adv-x="604" 
d="M578 745v-122l-391 -623h-148l391 623h-404v122h552z" />
    <glyph glyph-name="eight" unicode="8" horiz-adv-x="638" 
d="M172 395q-43 24 -70.5 67.5t-27.5 95.5q0 61 32 106t88 69t125 24t125 -24t88 -69t32 -106q0 -52 -27.5 -95.5t-70.5 -67.5q55 -23 86 -73t31 -108q0 -69 -33.5 -120.5t-93.5 -79t-137 -27.5t-137 27.5t-93.5 79t-33.5 120.5q0 58 31 108t86 73zM319 643q-48 0 -78.5 -27
t-30.5 -73q0 -45 31 -73.5t78 -28.5t78 28.5t31 73.5q0 46 -30.5 73t-78.5 27zM319 332q-53 0 -90 -33t-37 -84t36.5 -82.5t90.5 -31.5t90.5 31.5t36.5 82.5t-37 84t-90 33z" />
    <glyph glyph-name="nine" unicode="9" horiz-adv-x="654" 
d="M516 305l-243 -306h-162l201 254q-9 0 -27 2q-107 12 -170.5 79.5t-63.5 170.5q0 76 34.5 133t97.5 88t144 31t144 -31t97.5 -88t34.5 -133q0 -48 -19 -93t-68 -107zM188 505q0 -60 39.5 -98.5t99.5 -38.5t99.5 38.5t39.5 98.5t-39.5 98.5t-99.5 38.5t-99.5 -38.5
t-39.5 -98.5z" />
    <glyph glyph-name="colon" unicode=":" horiz-adv-x="342" 
d="M181 177q40 0 67.5 -27.5t27.5 -67.5t-27.5 -67.5t-67.5 -27.5t-67.5 27.5t-27.5 67.5t27.5 67.5t67.5 27.5zM181 551q40 0 67.5 -27.5t27.5 -67.5t-27.5 -67.5t-67.5 -27.5t-67.5 27.5t-27.5 67.5t27.5 67.5t67.5 27.5z" />
    <glyph glyph-name="semicolon" unicode=";" horiz-adv-x="342" 
d="M181 551q40 0 67.5 -27.5t27.5 -67.5t-27.5 -67.5t-67.5 -27.5t-67.5 27.5t-27.5 67.5t27.5 67.5t67.5 27.5zM147 -7q-27 10 -44 34.5t-17 54.5q0 40 27.5 67.5t67.5 27.5t67.5 -27.5t27.5 -67.5q0 -25 -11.5 -50t-51.5 -90l-65 -107h-91z" />
    <glyph glyph-name="equal" unicode="=" horiz-adv-x="690" 
d="M599 442h-508v120h508v-120zM599 201h-508v121h508v-121z" />
    <glyph glyph-name="question" unicode="?" horiz-adv-x="626" 
d="M435 389q-35 -13 -52.5 -26.5t-24 -34t-6.5 -56.5v-21h-135v24q0 55 12 90.5t41 60.5t81 44q57 20 80.5 40.5t23.5 52.5q0 39 -35.5 60.5t-95.5 21.5q-154 0 -157 -125h-137q0 111 80 174t216 63q75 0 136.5 -21t97.5 -63.5t36 -102.5q0 -65 -44 -110t-117 -71zM291 177
q40 0 67.5 -27.5t27.5 -67.5t-27.5 -67.5t-67.5 -27.5t-67.5 27.5t-27.5 67.5t27.5 67.5t67.5 27.5z" />
    <glyph glyph-name="at" unicode="@" horiz-adv-x="837" 
d="M439 725q100 0 179.5 -35t126.5 -106.5t47 -177.5q0 -78 -26 -135.5t-67.5 -87.5t-87.5 -30q-41 0 -69 24t-34 68q-48 -89 -152 -89q-63 0 -105.5 45t-42.5 134q0 59 25 112.5t72 86.5t108 33q41 0 71 -20.5t44 -55.5l3 24q1 14 5 35h71l-29 -218q-3 -25 -3 -45
q0 -33 11 -47.5t34 -14.5q26 0 47.5 21.5t34.5 61.5t13 94q0 122 -76 187.5t-202 65.5q-91 0 -161.5 -40.5t-110 -111t-39.5 -157.5q0 -84 34.5 -149t97 -101t144.5 -36q51 0 96.5 10.5t93.5 32.5l28 -67q-48 -24 -105 -36.5t-113 -12.5q-104 0 -185 46t-126 128.5
t-45 187.5t51.5 191t141.5 135.5t200 49.5zM378 229q57 0 90 48t33 117q0 46 -23 72t-64 26q-54 0 -86.5 -46.5t-32.5 -111.5q0 -52 21.5 -78.5t61.5 -26.5z" />
    <glyph glyph-name="A" unicode="A" horiz-adv-x="737" 
d="M501 190h-274l-69 -190h-142l280 745h144l281 -745h-151zM457 312l-93 258l-93 -258h186z" />
    <glyph glyph-name="B" unicode="B" horiz-adv-x="669" 
d="M351 745q70 0 123.5 -27.5t82.5 -74t29 -101.5q0 -95 -73 -146q56 -24 89.5 -70t33.5 -112q0 -64 -33.5 -112.5t-94 -75t-138.5 -26.5h-299v745h280zM437 533q0 42 -31.5 69t-81.5 27h-110v-193h110q51 0 82 27.5t31 69.5zM487 220q0 47 -35 75t-95 28h-143v-207h143
q60 0 95 28.5t35 75.5z" />
    <glyph glyph-name="C" unicode="C" horiz-adv-x="808" 
d="M413 757q92 0 167.5 -34.5t126 -98t70.5 -147.5h-152q-22 77 -75.5 116t-134.5 39q-70 0 -123 -33.5t-81.5 -93t-28.5 -133.5t28.5 -133.5t81.5 -93t123 -33.5q81 0 134.5 39t75.5 116h152q-20 -84 -70.5 -147.5t-126 -98t-167.5 -34.5q-110 0 -197 50.5t-136 138.5
t-49 196t49 196t136 138.5t197 50.5z" />
    <glyph glyph-name="D" unicode="D" horiz-adv-x="756" 
d="M318 745q130 0 223 -47.5t141 -132t48 -192.5t-48 -192.5t-141 -132.5t-224 -48h-246v745h247zM214 117h111q80 0 137.5 33t87 91t29.5 132t-29.5 131.5t-87 90.5t-137.5 33h-111v-511z" />
    <glyph glyph-name="E" unicode="E" 
d="M534 745v-122h-320v-181h263v-122h-263v-198h320v-122h-463v745h463z" />
    <glyph glyph-name="F" unicode="F" horiz-adv-x="539" 
d="M529 745v-122h-315v-181h262v-122h-262v-320h-143v745h458z" />
    <glyph glyph-name="G" unicode="G" horiz-adv-x="840" 
d="M412 -13q-109 0 -196 50.5t-136 138.5t-49 196t48.5 196t135 138.5t195.5 50.5q92 0 168 -33.5t127 -95t69 -143.5h-150q-20 71 -74.5 109t-136.5 38q-71 0 -123 -34t-80 -93t-28 -133t27.5 -133.5t80 -93t124.5 -33.5q97 0 154.5 43t62.5 127h-268v123h406v-405h-129v88
q-38 -50 -96.5 -75.5t-131.5 -25.5z" />
    <glyph glyph-name="H" unicode="H" horiz-adv-x="749" 
d="M214 745v-303h321v303h143v-745h-143v320h-321v-320h-143v745h143z" />
    <glyph glyph-name="I" unicode="I" horiz-adv-x="285" 
d="M214 745v-745h-143v745h143z" />
    <glyph glyph-name="J" unicode="J" horiz-adv-x="569" 
d="M158 214q0 -52 28.5 -79.5t72.5 -27.5t72.5 27.5t28.5 79.5v409h-234v122h377v-508q0 -116 -66 -183t-183 -67q-76 0 -129.5 31t-80.5 82.5t-29 113.5h143z" />
    <glyph glyph-name="K" unicode="K" horiz-adv-x="701" 
d="M514 0l-300 304v-304h-143v745h143v-336l277 336h164l-312 -373l359 -372h-188z" />
    <glyph glyph-name="L" unicode="L" horiz-adv-x="527" 
d="M214 745v-623h297v-122h-440v745h143z" />
    <glyph glyph-name="M" unicode="M" horiz-adv-x="907" 
d="M279 745l176 -585l171 585h210v-745h-133v595l-178 -595h-142l-179 595v-595h-133v745h208z" />
    <glyph glyph-name="N" unicode="N" horiz-adv-x="753" 
d="M206 523v-523h-135v745h133l343 -523v523h135v-745h-133z" />
    <glyph glyph-name="O" unicode="O" horiz-adv-x="834" 
d="M417 757q111 0 199 -50t137.5 -138t49.5 -197t-49.5 -197t-137.5 -138t-199 -50t-199 50t-137.5 138t-49.5 197t49.5 197t137.5 138t199 50zM417 632q-69 0 -122.5 -33t-83 -92.5t-29.5 -134.5t29.5 -134.5t83 -92.5t122.5 -33t122.5 33t83 92.5t29.5 134.5t-29.5 134.5
t-83 92.5t-122.5 33z" />
    <glyph glyph-name="P" unicode="P" horiz-adv-x="651" 
d="M382 745q86 0 145 -29.5t88.5 -80.5t29.5 -114t-29.5 -114t-88.5 -80.5t-145 -29.5h-168v-297h-143v745h311zM496 521q0 48 -34.5 78t-93.5 30h-154v-216h154q59 0 93.5 30t34.5 78z" />
    <glyph glyph-name="Q" unicode="Q" horiz-adv-x="841" 
d="M685 87l96 -71v-164l-217 161q-69 -26 -147 -26q-111 0 -199 50t-137.5 138t-49.5 197t49.5 197t137.5 138t199 50t199 -50t137.5 -138t49.5 -197q0 -86 -31 -159.5t-87 -125.5zM417 112q69 0 122.5 33t83 92.5t29.5 134.5t-29.5 134.5t-83 92.5t-122.5 33t-122.5 -33
t-83 -92.5t-29.5 -134.5t29.5 -134.5t83 -92.5t122.5 -33z" />
    <glyph glyph-name="R" unicode="R" horiz-adv-x="726" 
d="M541 0l-278 311h-49v-311h-143v745h273q128 0 195.5 -60t67.5 -157q0 -77 -43 -132t-127 -75l288 -321h-184zM214 427h116q60 0 94 27t34 74t-34 74t-94 27h-116v-202z" />
    <glyph glyph-name="S" unicode="S" horiz-adv-x="650" 
d="M178 236q12 -72 53.5 -101t107.5 -29q59 0 96.5 25.5t37.5 71.5q0 79 -130 107l-72 15q-105 21 -165 75t-60 143q0 66 36.5 114.5t98.5 74t136 25.5q70 0 130.5 -29t99.5 -81.5t46 -120.5h-142q-8 57 -47.5 84t-92.5 27q-60 0 -93.5 -25t-33.5 -63q0 -40 29 -62.5
t85 -33.5l72 -15q115 -24 178 -78t63 -146q0 -72 -37 -123t-100.5 -77.5t-140.5 -26.5q-124 0 -204 66t-93 183h142z" />
    <glyph glyph-name="T" unicode="T" horiz-adv-x="592" 
d="M11 623v122h570v-122h-214v-623h-143v623h-213z" />
    <glyph glyph-name="U" unicode="U" horiz-adv-x="730" 
d="M65 745h143v-467q0 -83 40.5 -127t116.5 -44t116.5 44t40.5 127v467h143v-474q0 -86 -37.5 -150.5t-105 -99t-157.5 -34.5t-157.5 34.5t-105 99t-37.5 150.5v474z" />
    <glyph glyph-name="V" unicode="V" horiz-adv-x="740" 
d="M171 745l203 -556l198 556h152l-280 -745h-146l-282 745h155z" />
    <glyph glyph-name="W" unicode="W" horiz-adv-x="992" 
d="M184 745l108 -548l121 548h167l131 -551l99 551h146l-151 -745h-169l-140 580l-140 -580h-169l-151 745h148z" />
    <glyph glyph-name="X" unicode="X" horiz-adv-x="739" 
d="M547 0l-181 264l-185 -264h-161l266 381l-249 364h172l164 -239l167 239h162l-249 -356l266 -389h-172z" />
    <glyph glyph-name="Y" unicode="Y" horiz-adv-x="763" 
d="M382 454l212 291h163l-307 -415v-330h-143v332l-301 413h167z" />
    <glyph glyph-name="Z" unicode="Z" horiz-adv-x="664" 
d="M434 623h-370v122h544v-112l-392 -511h403v-122h-579v112z" />
    <glyph glyph-name="bracketleft" unicode="[" horiz-adv-x="354" 
d="M328 745v-100h-134v-740h134v-100h-257v940h257z" />
    <glyph glyph-name="bracketright" unicode="]" horiz-adv-x="354" 
d="M283 -195h-257v100h134v740h-134v100h257v-940z" />
    <glyph glyph-name="underscore" unicode="_" horiz-adv-x="504" 
d="M476 -30v-121h-448v121h448z" />
    <glyph glyph-name="grave" unicode="`" horiz-adv-x="308" 
d="M168 745l155 -116h-171l-159 116h175z" />
    <glyph glyph-name="a" unicode="a" 
d="M232 -13q-56 0 -98.5 22.5t-65.5 60.5t-23 82q0 78 65 118t188 60q53 8 72 20t19 39q0 32 -26 48.5t-66 16.5q-51 0 -84.5 -27.5t-35.5 -72.5h-119q1 55 30.5 100.5t83 72t123.5 26.5q107 0 168 -47t61 -162v-344h-125v62q-23 -36 -65.5 -55.5t-101.5 -19.5zM278 237
q-53 -15 -72.5 -32t-19.5 -46q0 -33 24 -52t62 -19q57 0 89.5 27t32.5 84v73q-36 -14 -73 -23.5t-43 -11.5z" />
    <glyph glyph-name="b" unicode="b" horiz-adv-x="653" 
d="M206 0h-138v745h138v-272q24 38 70.5 58t93.5 20q68 0 127 -35t94.5 -99.5t35.5 -147.5t-35.5 -147.5t-94.5 -99.5t-127 -35q-47 0 -93.5 20t-70.5 58v-65zM198 269q0 -53 19.5 -92t52.5 -59.5t73 -20.5q62 0 102.5 46t40.5 126t-40.5 126t-102.5 46q-40 0 -73 -20.5
t-52.5 -59.5t-19.5 -92z" />
    <glyph glyph-name="c" unicode="c" horiz-adv-x="603" 
d="M307 551q104 0 177 -59t93 -159h-141q-12 51 -45.5 77t-83.5 26q-66 0 -104 -47t-38 -120t38 -120t104 -47q50 0 83.5 26t45.5 77h141q-20 -100 -93 -159t-177 -59q-81 0 -145 36.5t-100 101t-36 144.5t36 144.5t100 101t145 36.5z" />
    <glyph glyph-name="d" unicode="d" horiz-adv-x="653" 
d="M283 551q47 0 93.5 -20t70.5 -58v272h138v-745h-138v65q-24 -38 -70.5 -58t-93.5 -20q-68 0 -127 35t-94.5 99.5t-35.5 147.5t35.5 147.5t94.5 99.5t127 35zM455 269q0 53 -19.5 92t-52.5 59.5t-73 20.5q-62 0 -102.5 -46t-40.5 -126t40.5 -126t102.5 -46q40 0 73 20.5
t52.5 59.5t19.5 92z" />
    <glyph glyph-name="e" unicode="e" horiz-adv-x="605" 
d="M579 231h-413q9 -57 48.5 -94t96.5 -37q47 0 76 18t46 57h140q-25 -87 -97 -137.5t-170 -50.5q-81 0 -144.5 36.5t-99.5 101t-36 144.5t36 144t99.5 101t144.5 37q84 0 147 -40.5t96 -113t30 -166.5zM439 326q-6 57 -45 87.5t-91 30.5q-50 0 -87 -32t-47 -86h270z" />
    <glyph glyph-name="f" unicode="f" horiz-adv-x="356" 
d="M6 437v101h85v8q0 101 52 155t149 54q23 0 58 -5v-111q-13 2 -36 2q-45 0 -65 -21.5t-20 -73.5v-8h118v-101h-118v-437h-138v437h-85z" />
    <glyph glyph-name="g" unicode="g" horiz-adv-x="659" 
d="M194 -39q12 -30 42.5 -45t74.5 -15q142 0 142 131v43q-24 -38 -70 -57t-94 -19q-69 0 -128 33.5t-94 96.5t-35 146t35 146t94 96.5t128 33.5q48 0 94 -19t70 -57v63h138v-481q0 -140 -77 -202.5t-210 -62.5q-90 0 -158 43t-85 126h133zM316 441q-63 0 -103 -43.5
t-40 -122.5t40 -122.5t103 -43.5t104 43.5t41 122.5t-41 122.5t-104 43.5z" />
    <glyph glyph-name="h" unicode="h" horiz-adv-x="595" 
d="M206 745v-272q23 41 60.5 59.5t89.5 18.5q91 0 135 -54.5t44 -156.5v-340h-138v317q0 63 -24.5 93t-68.5 30q-45 0 -71.5 -30.5t-26.5 -92.5v-317h-138v745h138z" />
    <glyph glyph-name="i" unicode="i" horiz-adv-x="274" 
d="M206 538v-538h-138v538h138zM220 692q0 -34 -24.5 -59t-58.5 -25t-58.5 25t-24.5 59t24.5 58.5t58.5 24.5t58.5 -24.5t24.5 -58.5z" />
    <glyph glyph-name="j" unicode="j" horiz-adv-x="278" 
d="M224 692q0 -34 -24.5 -59t-58.5 -25t-58.5 25t-24.5 59t24.5 58.5t58.5 24.5t58.5 -24.5t24.5 -58.5zM-39 -86q21 -3 37 -3q40 0 56.5 21.5t16.5 77.5v528h138v-524q0 -119 -44.5 -167t-136.5 -48q-35 0 -67 4v111z" />
    <glyph glyph-name="k" unicode="k" horiz-adv-x="589" 
d="M428 0l-222 226v-226h-138v745h138v-436l204 229h157l-233 -257l264 -281h-170z" />
    <glyph glyph-name="l" unicode="l" horiz-adv-x="274" 
d="M206 745v-745h-138v745h138z" />
    <glyph glyph-name="m" unicode="m" horiz-adv-x="920" 
d="M68 0v538h138v-65q23 41 60.5 59.5t89.5 18.5q114 0 155 -89q28 44 74 66.5t98 22.5q177 0 177 -211v-340h-138v317q0 123 -91 123q-45 0 -71.5 -30.5t-26.5 -92.5v-317h-138v317q0 123 -91 123q-45 0 -71.5 -30.5t-26.5 -92.5v-317h-138z" />
    <glyph glyph-name="n" unicode="n" horiz-adv-x="595" 
d="M206 538v-65q23 41 60.5 59.5t89.5 18.5q91 0 135 -54.5t44 -156.5v-340h-138v317q0 63 -24.5 93t-68.5 30q-45 0 -71.5 -30.5t-26.5 -92.5v-317h-138v538h138z" />
    <glyph glyph-name="o" unicode="o" horiz-adv-x="624" 
d="M26 269q0 82 37 146t102 100t147 36t147 -36t102 -100t37 -146t-37 -146t-102 -100t-147 -36t-147 36t-102 100t-37 146zM166 269q0 -73 40 -120t106 -47t106 47t40 120t-40 120t-106 47t-106 -47t-40 -120z" />
    <glyph glyph-name="p" unicode="p" horiz-adv-x="653" 
d="M206 538v-65q24 38 70.5 58t93.5 20q68 0 127 -35t94.5 -99.5t35.5 -147.5t-35.5 -147.5t-94.5 -99.5t-127 -35q-47 0 -93.5 20t-70.5 58v-260h-138v733h138zM343 441q-40 0 -73 -20.5t-52.5 -59.5t-19.5 -92t19.5 -92t52.5 -59.5t73 -20.5q62 0 102.5 46t40.5 126
t-40.5 126t-102.5 46z" />
    <glyph glyph-name="q" unicode="q" horiz-adv-x="653" 
d="M283 -13q-68 0 -127 35t-94.5 99.5t-35.5 147.5t35.5 147.5t94.5 99.5t127 35q47 0 93.5 -20t70.5 -58v65h138v-733h-138v260q-24 -38 -70.5 -58t-93.5 -20zM310 441q-62 0 -102.5 -46t-40.5 -126t40.5 -126t102.5 -46q40 0 73 20.5t52.5 59.5t19.5 92t-19.5 92
t-52.5 59.5t-73 20.5z" />
    <glyph glyph-name="r" unicode="r" horiz-adv-x="391" 
d="M204 538v-99q47 99 151 99q10 0 30 -2v-129h-52q-66 0 -96.5 -26.5t-30.5 -98.5v-282h-138v538h136z" />
    <glyph glyph-name="s" unicode="s" horiz-adv-x="545" 
d="M166 177q18 -87 117 -87q40 0 67.5 16t27.5 43q0 28 -22 44t-66 24l-68 12q-80 14 -128.5 56.5t-48.5 109.5q0 46 29 82.5t78 57t107 20.5q93 0 157 -40t77 -135h-125q-19 75 -109 75q-38 0 -63 -15.5t-25 -40.5q0 -48 75 -62l63 -11q93 -17 146 -54.5t53 -109.5
q0 -54 -30.5 -94t-82.5 -60.5t-115 -20.5q-100 0 -165 46.5t-79 143.5h130z" />
    <glyph glyph-name="t" unicode="t" horiz-adv-x="388" 
d="M92 437h-86v101h86v114l138 88v-202h122v-101h-122v-207q0 -64 17 -96.5t68 -32.5q8 0 36 4v-112q-28 -6 -75 -6q-92 0 -138 54t-46 172v224z" />
    <glyph glyph-name="u" unicode="u" horiz-adv-x="608" 
d="M60 221v317h138v-309q0 -64 27 -95q26 -32 79 -32t79 32q27 32 27 95v309h138v-317q0 -65 -16.5 -109.5t-50.5 -72.5q-61 -52 -177 -52t-177 52q-34 28 -50.5 72.5t-16.5 109.5z" />
    <glyph glyph-name="v" unicode="v" horiz-adv-x="554" 
d="M151 538l130 -381l130 381h137l-197 -538h-145l-200 538h145z" />
    <glyph glyph-name="w" unicode="w" horiz-adv-x="746" 
d="M143 538l72 -372l84 372h147l85 -371l72 371h137l-127 -538h-142l-98 408l-99 -408h-142l-126 538h137z" />
    <glyph glyph-name="x" unicode="x" horiz-adv-x="555" 
d="M394 0l-121 173l-127 -173h-140l198 271l-187 267h154l112 -159l116 159h141l-188 -257l197 -281h-155z" />
    <glyph glyph-name="y" unicode="y" horiz-adv-x="565" 
d="M6 538h151l126 -364l136 364h140l-293 -733h-140l82 207z" />
    <glyph glyph-name="z" unicode="z" horiz-adv-x="528" 
d="M319 429h-267v109h432v-109l-283 -320h291v-109h-456v109z" />
    <glyph glyph-name="braceleft" unicode="{" horiz-adv-x="405" 
d="M122 107q0 51 -22.5 82.5t-69.5 31.5v109q47 0 69.5 31.5t22.5 82.5v118q0 101 51 142t158 41h48v-100h-28q-49 0 -70 -20.5t-21 -60.5v-141q0 -64 -31 -99t-82 -47v-3q51 -12 82 -47t31 -99v-142q0 -40 21 -60.5t70 -20.5h28v-100h-48q-107 0 -158 41t-51 142v119z" />
    <glyph glyph-name="bar" unicode="|" horiz-adv-x="257" 
d="M186 745v-835h-115v835h115z" />
    <glyph glyph-name="braceright" unicode="}" horiz-adv-x="405" 
d="M26 -195v100h28q49 0 70 20.5t21 60.5v142q0 64 31 99t82 47v3q-51 12 -82 47t-31 99v141q0 40 -21 60.5t-70 20.5h-28v100h48q107 0 158 -41t51 -142v-118q0 -51 22.5 -82.5t69.5 -31.5v-109q-47 0 -69.5 -31.5t-22.5 -82.5v-119q0 -101 -51 -142t-158 -41h-48z" />
    <glyph glyph-name="uni00A0" unicode="&#xa0;" horiz-adv-x="238" 
 />
    <glyph glyph-name="exclamdown" unicode="&#xa1;" horiz-adv-x="330" 
d="M165 551q40 0 67.5 -27.5t27.5 -67.5t-27.5 -67.5t-67.5 -27.5t-67.5 27.5t-27.5 67.5t27.5 67.5t67.5 27.5zM234 316v-511h-138v511h138z" />
    <glyph glyph-name="sterling" unicode="&#xa3;" horiz-adv-x="667" 
d="M232 554q0 -30 11.5 -58t34.5 -72l10 -18h192v-107h-153v-11q0 -49 -25 -95.5t-63 -74.5l1 -2h365v-116h-543v117q60 20 95 65t35 102q0 10 -1 15h-139v107h95q-27 47 -41 84.5t-14 81.5q0 57 35.5 99t95 64t127.5 22q126 0 195 -71t67 -191h-135q0 78 -34.5 114
t-92.5 36q-51 0 -84.5 -23.5t-33.5 -67.5z" />
    <glyph glyph-name="yen" unicode="&#xa5;" horiz-adv-x="762" 
d="M508 412h124v-110h-185v-70h185v-111h-185v-121h-138v121h-185v111h185v70h-185v110h127l-243 333h165l209 -291l212 291h160z" />
    <glyph glyph-name="dieresis" unicode="&#xa8;" horiz-adv-x="411" 
d="M85 759q30 0 51 -20.5t21 -50.5t-21 -51t-51 -21t-51 21t-21 51t21 50.5t51 20.5zM326 759q30 0 51 -20.5t21 -50.5t-21 -51t-51 -21t-51 21t-21 51t21 50.5t51 20.5z" />
    <glyph glyph-name="copyright" unicode="&#xa9;" horiz-adv-x="898" 
d="M832 369q0 -111 -51 -198t-138.5 -135.5t-193.5 -48.5t-193.5 48.5t-138.5 135.5t-51 198q0 112 51 200t138.5 137t193.5 49t193.5 -49t138.5 -137t51 -200zM747 369q0 91 -38.5 161t-106.5 108.5t-153 38.5q-83 0 -151 -38.5t-107.5 -109t-39.5 -160.5
q0 -89 39.5 -158.5t107.5 -108t151 -38.5q85 0 153 38.5t106.5 108t38.5 158.5zM451 582q75 0 127.5 -40.5t69.5 -110.5h-95q-11 38 -36 56t-65 18q-52 0 -82.5 -36.5t-30.5 -94.5q0 -57 30.5 -93.5t82.5 -36.5q80 0 101 74h95q-17 -70 -69.5 -110.5t-127.5 -40.5
q-60 0 -107 27t-73.5 74.5t-26.5 105.5q0 59 26.5 106.5t73.5 74.5t107 27z" />
    <glyph glyph-name="guillemotleft" unicode="&#xab;" horiz-adv-x="576" 
d="M195 502h125l-125 -229l125 -230h-125l-159 230zM415 502h125l-125 -229l125 -230h-125l-159 230z" />
    <glyph glyph-name="uni00AD" unicode="&#xad;" horiz-adv-x="431" 
d="M381 327v-120h-331v120h331z" />
    <glyph glyph-name="macron" unicode="&#xaf;" horiz-adv-x="369" 
d="M28 737h313v-95h-313v95z" />
    <glyph glyph-name="degree" unicode="&#xb0;" horiz-adv-x="349" 
d="M336 597q0 -43 -21.5 -80t-59 -59t-81.5 -22q-43 0 -80 22t-58.5 59t-21.5 80q0 44 21.5 81t58.5 58.5t80 21.5q44 0 81.5 -21.5t59 -58.5t21.5 -81zM250 597q0 33 -21.5 56t-54.5 23q-32 0 -52.5 -23t-20.5 -56t20.5 -56t52.5 -23q33 0 54.5 23t21.5 56z" />
    <glyph glyph-name="acute" unicode="&#xb4;" horiz-adv-x="308" 
d="M323 745l-159 -116h-171l155 116h175z" />
    <glyph glyph-name="periodcentered" unicode="&#xb7;" horiz-adv-x="274" 
d="M137 365q40 0 67.5 -27.5t27.5 -67.5t-27.5 -67.5t-67.5 -27.5t-67.5 27.5t-27.5 67.5t27.5 67.5t67.5 27.5z" />
    <glyph glyph-name="cedilla" unicode="&#xb8;" horiz-adv-x="268" 
d="M103 -145q24 0 40 7t16 22q0 13 -11 20.5t-29 7.5q-25 0 -38 -9l-30 17l51 83h53l-32 -51q18 3 40 3q33 -1 55 -20t22 -48q0 -38 -34.5 -60t-81.5 -22q-57 0 -96 19l17 45q26 -14 58 -14z" />
    <glyph glyph-name="guillemotright" unicode="&#xbb;" horiz-adv-x="576" 
d="M161 273l-125 229h125l159 -229l-159 -230h-125zM381 273l-125 229h125l159 -229l-159 -230h-125z" />
    <glyph glyph-name="questiondown" unicode="&#xbf;" horiz-adv-x="586" 
d="M317 551q40 0 67.5 -27.5t27.5 -67.5t-27.5 -67.5t-67.5 -27.5t-67.5 27.5t-27.5 67.5t27.5 67.5t67.5 27.5zM171 160q35 13 52.5 26.5t24 34t6.5 56.5v21h135v-24q0 -55 -12 -90.5t-41 -60.5t-81 -44q-57 -20 -80.5 -40.5t-23.5 -52.5q0 -39 35.5 -60.5t95.5 -21.5
q154 0 157 125h137q0 -111 -80 -174t-216 -63q-75 0 -136.5 21t-97.5 63.5t-36 102.5q0 65 44 110t117 71z" />
    <glyph glyph-name="Agrave" unicode="&#xc0;" horiz-adv-x="737" 
d="M501 190h-274l-69 -190h-142l280 745h144l281 -745h-151zM457 312l-93 258l-93 -258h186zM446 803h-167l-157 113h176z" />
    <glyph glyph-name="Aacute" unicode="&#xc1;" horiz-adv-x="737" 
d="M501 190h-274l-69 -190h-142l280 745h144l281 -745h-151zM457 312l-93 258l-93 -258h186zM287 803l148 113h176l-157 -113h-167z" />
    <glyph glyph-name="Acircumflex" unicode="&#xc2;" horiz-adv-x="737" 
d="M432 803l-63 49l-66 -49h-146l140 113h145l137 -113h-147zM501 190h-274l-69 -190h-142l280 745h144l281 -745h-151zM457 312l-93 258l-93 -258h186z" />
    <glyph glyph-name="Atilde" unicode="&#xc3;" horiz-adv-x="737" 
d="M501 190h-274l-69 -190h-142l280 745h144l281 -745h-151zM457 312l-93 258l-93 -258h186zM569 923q-12 -72 -52.5 -99.5t-83.5 -27.5q-23 0 -40 6.5t-37 17.5q-16 9 -26 13t-21 4q-40 0 -48 -41h-94q12 73 52.5 100t84.5 27q23 0 38 -6t35 -17q14 -9 25 -13t24 -4
q40 0 50 40h93z" />
    <glyph glyph-name="Adieresis" unicode="&#xc4;" horiz-adv-x="737" 
d="M501 190h-274l-69 -190h-142l280 745h144l281 -745h-151zM457 312l-93 258l-93 -258h186zM248 932q30 0 51 -20.5t21 -50.5t-21 -51t-51 -21t-51 21t-21 51t21 50.5t51 20.5zM489 932q30 0 51 -20.5t21 -50.5t-21 -51t-51 -21t-51 21t-21 51t21 50.5t51 20.5z" />
    <glyph glyph-name="Aring" unicode="&#xc5;" horiz-adv-x="737" 
d="M501 190h-274l-69 -190h-142l280 745h144l281 -745h-151zM457 312l-93 258l-93 -258h186zM368 795q-38 0 -64 24.5t-26 60.5q0 37 26.5 61t63.5 24q38 0 64.5 -24t26.5 -61t-26 -61t-65 -24zM368 838q18 0 30.5 12t12.5 30t-12.5 30.5t-30.5 12.5q-17 0 -30 -12.5
t-13 -30.5t13 -30t30 -12z" />
    <glyph glyph-name="AE" unicode="&#xc6;" horiz-adv-x="957" 
d="M587 623v-181h263v-122h-263v-198h320v-122h-463v197h-209l-121 -197h-151l481 745h463v-122h-320zM444 320v219l-134 -219h134z" />
    <glyph glyph-name="Ccedilla" unicode="&#xc7;" horiz-adv-x="808" 
d="M413 757q92 0 167.5 -34.5t126 -98t70.5 -147.5h-152q-22 77 -75.5 116t-134.5 39q-70 0 -123 -33.5t-81.5 -93t-28.5 -133.5t28.5 -133.5t81.5 -93t123 -33.5q81 0 134.5 39t75.5 116h152q-20 -84 -70.5 -147.5t-126 -98t-167.5 -34.5q-110 0 -197 50.5t-136 138.5
t-49 196t49 196t136 138.5t197 50.5zM351 -144q24 0 40 7t16 22q0 13 -11 20.5t-29 7.5q-25 0 -38 -9l-30 17l51 83h53l-32 -51q18 3 40 3q33 -1 55 -20t22 -48q0 -38 -34.5 -60t-81.5 -22q-57 0 -96 19l17 45q26 -14 58 -14z" />
    <glyph glyph-name="Egrave" unicode="&#xc8;" 
d="M534 745v-122h-320v-181h263v-122h-263v-198h320v-122h-463v745h463zM403 803h-167l-157 113h176z" />
    <glyph glyph-name="Eacute" unicode="&#xc9;" 
d="M534 745v-122h-320v-181h263v-122h-263v-198h320v-122h-463v745h463zM194 803l148 113h176l-157 -113h-167z" />
    <glyph glyph-name="Ecircumflex" unicode="&#xca;" 
d="M534 745v-122h-320v-181h263v-122h-263v-198h320v-122h-463v745h463zM374 803l-63 49l-66 -49h-146l140 113h145l137 -113h-147z" />
    <glyph glyph-name="Edieresis" unicode="&#xcb;" 
d="M534 745v-122h-320v-181h263v-122h-263v-198h320v-122h-463v745h463zM185 932q30 0 51 -20.5t21 -50.5t-21 -51t-51 -21t-51 21t-21 51t21 50.5t51 20.5zM426 932q30 0 51 -20.5t21 -50.5t-21 -51t-51 -21t-51 21t-21 51t21 50.5t51 20.5z" />
    <glyph glyph-name="Igrave" unicode="&#xcc;" horiz-adv-x="285" 
d="M214 745v-745h-143v745h143zM221 803h-167l-157 113h176z" />
    <glyph glyph-name="Iacute" unicode="&#xcd;" horiz-adv-x="285" 
d="M214 745v-745h-143v745h143zM41 803l148 113h176l-157 -113h-167z" />
    <glyph glyph-name="Icircumflex" unicode="&#xce;" horiz-adv-x="285" 
d="M214 745v-745h-143v745h143zM207 803l-63 49l-66 -49h-146l140 113h145l137 -113h-147z" />
    <glyph glyph-name="Idieresis" unicode="&#xcf;" horiz-adv-x="285" 
d="M214 745v-745h-143v745h143zM23 932q30 0 51 -20.5t21 -50.5t-21 -51t-51 -21t-51 21t-21 51t21 50.5t51 20.5zM264 932q30 0 51 -20.5t21 -50.5t-21 -51t-51 -21t-51 21t-21 51t21 50.5t51 20.5z" />
    <glyph glyph-name="Eth" unicode="&#xd0;" horiz-adv-x="797" 
d="M771 373q0 -108 -48 -192.5t-141 -132.5t-224 -48h-246v308h-86v116h86v321h247q130 0 223 -47.5t141 -132t48 -192.5zM620 373q0 74 -29.5 131.5t-87 90.5t-137.5 33h-111v-204h128v-116h-128v-191h111q80 0 137.5 33t87 91t29.5 132z" />
    <glyph glyph-name="Ntilde" unicode="&#xd1;" horiz-adv-x="753" 
d="M206 523v-523h-135v745h133l343 -523v523h135v-745h-133zM587 923q-12 -72 -52.5 -99.5t-83.5 -27.5q-23 0 -40 6.5t-37 17.5q-16 9 -26 13t-21 4q-40 0 -48 -41h-94q12 73 52.5 100t84.5 27q23 0 38 -6t35 -17q14 -9 25 -13t24 -4q40 0 50 40h93z" />
    <glyph glyph-name="Ograve" unicode="&#xd2;" horiz-adv-x="834" 
d="M417 757q111 0 199 -50t137.5 -138t49.5 -197t-49.5 -197t-137.5 -138t-199 -50t-199 50t-137.5 138t-49.5 197t49.5 197t137.5 138t199 50zM417 632q-69 0 -122.5 -33t-83 -92.5t-29.5 -134.5t29.5 -134.5t83 -92.5t122.5 -33t122.5 33t83 92.5t29.5 134.5t-29.5 134.5
t-83 92.5t-122.5 33zM515 803h-167l-157 113h176z" />
    <glyph glyph-name="Oacute" unicode="&#xd3;" horiz-adv-x="834" 
d="M417 757q111 0 199 -50t137.5 -138t49.5 -197t-49.5 -197t-137.5 -138t-199 -50t-199 50t-137.5 138t-49.5 197t49.5 197t137.5 138t199 50zM417 632q-69 0 -122.5 -33t-83 -92.5t-29.5 -134.5t29.5 -134.5t83 -92.5t122.5 -33t122.5 33t83 92.5t29.5 134.5t-29.5 134.5
t-83 92.5t-122.5 33zM336 803l148 113h176l-157 -113h-167z" />
    <glyph glyph-name="Ocircumflex" unicode="&#xd4;" horiz-adv-x="834" 
d="M481 803l-63 49l-66 -49h-146l140 113h145l137 -113h-147zM417 757q111 0 199 -50t137.5 -138t49.5 -197t-49.5 -197t-137.5 -138t-199 -50t-199 50t-137.5 138t-49.5 197t49.5 197t137.5 138t199 50zM417 632q-69 0 -122.5 -33t-83 -92.5t-29.5 -134.5t29.5 -134.5
t83 -92.5t122.5 -33t122.5 33t83 92.5t29.5 134.5t-29.5 134.5t-83 92.5t-122.5 33z" />
    <glyph glyph-name="Otilde" unicode="&#xd5;" horiz-adv-x="834" 
d="M618 923q-12 -72 -52.5 -99.5t-83.5 -27.5q-23 0 -40 6.5t-37 17.5q-16 9 -26 13t-21 4q-40 0 -48 -41h-94q12 73 52.5 100t84.5 27q23 0 38 -6t35 -17q14 -9 25 -13t24 -4q40 0 50 40h93zM417 757q111 0 199 -50t137.5 -138t49.5 -197t-49.5 -197t-137.5 -138t-199 -50
t-199 50t-137.5 138t-49.5 197t49.5 197t137.5 138t199 50zM417 632q-69 0 -122.5 -33t-83 -92.5t-29.5 -134.5t29.5 -134.5t83 -92.5t122.5 -33t122.5 33t83 92.5t29.5 134.5t-29.5 134.5t-83 92.5t-122.5 33z" />
    <glyph glyph-name="Odieresis" unicode="&#xd6;" horiz-adv-x="834" 
d="M297 932q30 0 51 -20.5t21 -50.5t-21 -51t-51 -21t-51 21t-21 51t21 50.5t51 20.5zM538 932q30 0 51 -20.5t21 -50.5t-21 -51t-51 -21t-51 21t-21 51t21 50.5t51 20.5zM417 757q111 0 199 -50t137.5 -138t49.5 -197t-49.5 -197t-137.5 -138t-199 -50t-199 50t-137.5 138
t-49.5 197t49.5 197t137.5 138t199 50zM417 632q-69 0 -122.5 -33t-83 -92.5t-29.5 -134.5t29.5 -134.5t83 -92.5t122.5 -33t122.5 33t83 92.5t29.5 134.5t-29.5 134.5t-83 92.5t-122.5 33z" />
    <glyph glyph-name="multiply" unicode="&#xd7;" horiz-adv-x="690" 
d="M582 225l-80 -81l-161 160l-159 -159l-73 72l159 161l-157 157l81 80l157 -157l160 160l72 -74l-159 -159z" />
    <glyph glyph-name="Oslash" unicode="&#xd8;" horiz-adv-x="834" 
d="M803 372q0 -109 -49.5 -197t-137.5 -138t-199 -50q-130 0 -229 69l-80 -95l-55 47l80 95q-49 52 -75.5 121t-26.5 148q0 109 49.5 197t137.5 138t199 50q123 0 218 -61l73 86l56 -46l-72 -86q53 -52 82 -123.5t29 -154.5zM226 212l322 381q-56 39 -131 39
q-69 0 -122.5 -33t-83 -92.5t-29.5 -134.5q0 -92 44 -160zM652 372q0 99 -51 171l-326 -385q60 -46 142 -46q69 0 122.5 33t83 92.5t29.5 134.5z" />
    <glyph glyph-name="Ugrave" unicode="&#xd9;" horiz-adv-x="730" 
d="M65 745h143v-467q0 -83 40.5 -127t116.5 -44t116.5 44t40.5 127v467h143v-474q0 -86 -37.5 -150.5t-105 -99t-157.5 -34.5t-157.5 34.5t-105 99t-37.5 150.5v474zM468 803h-167l-157 113h176z" />
    <glyph glyph-name="Uacute" unicode="&#xda;" horiz-adv-x="730" 
d="M65 745h143v-467q0 -83 40.5 -127t116.5 -44t116.5 44t40.5 127v467h143v-474q0 -86 -37.5 -150.5t-105 -99t-157.5 -34.5t-157.5 34.5t-105 99t-37.5 150.5v474zM249 803l148 113h176l-157 -113h-167z" />
    <glyph glyph-name="Ucircumflex" unicode="&#xdb;" horiz-adv-x="730" 
d="M429 803l-63 49l-66 -49h-146l140 113h145l137 -113h-147zM65 745h143v-467q0 -83 40.5 -127t116.5 -44t116.5 44t40.5 127v467h143v-474q0 -86 -37.5 -150.5t-105 -99t-157.5 -34.5t-157.5 34.5t-105 99t-37.5 150.5v474z" />
    <glyph glyph-name="Udieresis" unicode="&#xdc;" horiz-adv-x="730" 
d="M244 932q30 0 51 -20.5t21 -50.5t-21 -51t-51 -21t-51 21t-21 51t21 50.5t51 20.5zM485 932q30 0 51 -20.5t21 -50.5t-21 -51t-51 -21t-51 21t-21 51t21 50.5t51 20.5zM65 745h143v-467q0 -83 40.5 -127t116.5 -44t116.5 44t40.5 127v467h143v-474q0 -86 -37.5 -150.5
t-105 -99t-157.5 -34.5t-157.5 34.5t-105 99t-37.5 150.5v474z" />
    <glyph glyph-name="Yacute" unicode="&#xdd;" horiz-adv-x="763" 
d="M382 454l212 291h163l-307 -415v-330h-143v332l-301 413h167zM299 803l148 113h176l-157 -113h-167z" />
    <glyph glyph-name="Thorn" unicode="&#xde;" horiz-adv-x="671" 
d="M214 745v-147h168q86 0 145 -29.5t88.5 -80.5t29.5 -114t-29.5 -114t-88.5 -80.5t-145 -29.5h-168v-150h-143v745h143zM497 374q0 48 -34.5 78t-93.5 30h-155v-216h155q59 0 93.5 30t34.5 78z" />
    <glyph glyph-name="germandbls" unicode="&#xdf;" horiz-adv-x="664" 
d="M68 470q0 77 15 123.5t45 76.5q68 68 209 68q109 0 176.5 -46.5t67.5 -139.5q0 -54 -23.5 -90.5t-54.5 -51.5q52 -19 87 -69t35 -125q0 -109 -71.5 -169t-191.5 -60q-64 0 -119 13l21 111q20 -7 45.5 -11t47.5 -4q58 0 93 32t35 87q0 69 -46 98t-129 29h-19v111h14
q71 0 105.5 21t34.5 70q0 42 -29 66t-82 24q-69 0 -100 -41q-14 -18 -21 -46t-7 -76v-471h-138v470z" />
    <glyph glyph-name="agrave" unicode="&#xe0;" 
d="M232 -13q-56 0 -98.5 22.5t-65.5 60.5t-23 82q0 78 65 118t188 60q53 8 72 20t19 39q0 32 -26 48.5t-66 16.5q-51 0 -84.5 -27.5t-35.5 -72.5h-119q1 55 30.5 100.5t83 72t123.5 26.5q107 0 168 -47t61 -162v-344h-125v62q-23 -36 -65.5 -55.5t-101.5 -19.5zM278 237
q-53 -15 -72.5 -32t-19.5 -46q0 -33 24 -52t62 -19q57 0 89.5 27t32.5 84v73q-36 -14 -73 -23.5t-43 -11.5zM235 745l155 -116h-171l-159 116h175z" />
    <glyph glyph-name="aacute" unicode="&#xe1;" 
d="M232 -13q-56 0 -98.5 22.5t-65.5 60.5t-23 82q0 78 65 118t188 60q53 8 72 20t19 39q0 32 -26 48.5t-66 16.5q-51 0 -84.5 -27.5t-35.5 -72.5h-119q1 55 30.5 100.5t83 72t123.5 26.5q107 0 168 -47t61 -162v-344h-125v62q-23 -36 -65.5 -55.5t-101.5 -19.5zM278 237
q-53 -15 -72.5 -32t-19.5 -46q0 -33 24 -52t62 -19q57 0 89.5 27t32.5 84v73q-36 -14 -73 -23.5t-43 -11.5zM540 745l-159 -116h-171l155 116h175z" />
    <glyph glyph-name="acircumflex" unicode="&#xe2;" 
d="M232 -13q-56 0 -98.5 22.5t-65.5 60.5t-23 82q0 78 65 118t188 60q53 8 72 20t19 39q0 32 -26 48.5t-66 16.5q-51 0 -84.5 -27.5t-35.5 -72.5h-119q1 55 30.5 100.5t83 72t123.5 26.5q107 0 168 -47t61 -162v-344h-125v62q-23 -36 -65.5 -55.5t-101.5 -19.5zM278 237
q-53 -15 -72.5 -32t-19.5 -46q0 -33 24 -52t62 -19q57 0 89.5 27t32.5 84v73q-36 -14 -73 -23.5t-43 -11.5zM359 629l-63 44l-63 -44h-144l147 116h119l148 -116h-144z" />
    <glyph glyph-name="atilde" unicode="&#xe3;" 
d="M232 -13q-56 0 -98.5 22.5t-65.5 60.5t-23 82q0 78 65 118t188 60q53 8 72 20t19 39q0 32 -26 48.5t-66 16.5q-51 0 -84.5 -27.5t-35.5 -72.5h-119q1 55 30.5 100.5t83 72t123.5 26.5q107 0 168 -47t61 -162v-344h-125v62q-23 -36 -65.5 -55.5t-101.5 -19.5zM278 237
q-53 -15 -72.5 -32t-19.5 -46q0 -33 24 -52t62 -19q57 0 89.5 27t32.5 84v73q-36 -14 -73 -23.5t-43 -11.5zM500 745q-12 -78 -49.5 -102.5t-83.5 -24.5q-23 0 -40 6.5t-41 19.5q-19 10 -28.5 14t-21.5 4q-41 0 -49 -44h-95q12 78 49.5 102.5t83.5 24.5q23 0 40 -6.5
t37 -18.5q17 -10 28 -14.5t25 -4.5q42 0 50 44h95z" />
    <glyph glyph-name="adieresis" unicode="&#xe4;" 
d="M232 -13q-56 0 -98.5 22.5t-65.5 60.5t-23 82q0 78 65 118t188 60q53 8 72 20t19 39q0 32 -26 48.5t-66 16.5q-51 0 -84.5 -27.5t-35.5 -72.5h-119q1 55 30.5 100.5t83 72t123.5 26.5q107 0 168 -47t61 -162v-344h-125v62q-23 -36 -65.5 -55.5t-101.5 -19.5zM278 237
q-53 -15 -72.5 -32t-19.5 -46q0 -33 24 -52t62 -19q57 0 89.5 27t32.5 84v73q-36 -14 -73 -23.5t-43 -11.5zM170 759q30 0 51 -20.5t21 -50.5t-21 -51t-51 -21t-51 21t-21 51t21 50.5t51 20.5zM411 759q30 0 51 -20.5t21 -50.5t-21 -51t-51 -21t-51 21t-21 51t21 50.5
t51 20.5z" />
    <glyph glyph-name="aring" unicode="&#xe5;" 
d="M232 -13q-56 0 -98.5 22.5t-65.5 60.5t-23 82q0 78 65 118t188 60q53 8 72 20t19 39q0 32 -26 48.5t-66 16.5q-51 0 -84.5 -27.5t-35.5 -72.5h-119q1 55 30.5 100.5t83 72t123.5 26.5q107 0 168 -47t61 -162v-344h-125v62q-23 -36 -65.5 -55.5t-101.5 -19.5zM278 237
q-53 -15 -72.5 -32t-19.5 -46q0 -33 24 -52t62 -19q57 0 89.5 27t32.5 84v73q-36 -14 -73 -23.5t-43 -11.5zM297 607q-40 0 -67.5 25.5t-27.5 63.5t27.5 63.5t67.5 25.5q39 0 66.5 -25.5t27.5 -63.5t-27.5 -63.5t-66.5 -25.5zM297 656q17 0 29 11.5t12 28.5q0 18 -12 29.5
t-29 11.5t-29 -11.5t-12 -29.5q0 -17 12 -28.5t29 -11.5z" />
    <glyph glyph-name="ae" unicode="&#xe6;" horiz-adv-x="963" 
d="M458 88q-36 -49 -87.5 -75t-123.5 -26q-63 0 -108.5 22.5t-69.5 59.5t-24 81q0 78 61.5 117.5t191.5 62.5q53 9 72 20t19 40q0 30 -25.5 47t-66.5 17q-51 0 -84.5 -27.5t-35.5 -72.5h-119q1 55 30.5 100.5t83 72t123.5 26.5q67 0 112.5 -17.5t70.5 -58.5q74 74 186 74
q84 0 147 -40.5t96 -113t30 -166.5h-414q11 -58 50 -95t96 -37q47 0 76 18.5t46 57.5h140q-25 -87 -97 -137.5t-170 -50.5q-67 0 -119.5 26.5t-86.5 74.5zM797 326q-6 57 -45 87.5t-91 30.5q-50 0 -87.5 -32t-47.5 -86h271zM278 237q-53 -15 -72.5 -32t-19.5 -47
q0 -32 23.5 -51t62.5 -19q57 0 89.5 27t32.5 84v73q-36 -14 -73 -23.5t-43 -11.5z" />
    <glyph glyph-name="ccedilla" unicode="&#xe7;" horiz-adv-x="603" 
d="M307 551q104 0 177 -59t93 -159h-141q-12 51 -45.5 77t-83.5 26q-66 0 -104 -47t-38 -120t38 -120t104 -47q50 0 83.5 26t45.5 77h141q-20 -100 -93 -159t-177 -59q-81 0 -145 36.5t-100 101t-36 144.5t36 144.5t100 101t145 36.5zM258 -145q24 0 40 7t16 22
q0 13 -11 20.5t-29 7.5q-25 0 -38 -9l-30 17l51 83h53l-32 -51q18 3 40 3q33 -1 55 -20t22 -48q0 -38 -34.5 -60t-81.5 -22q-57 0 -96 19l17 45q26 -14 58 -14z" />
    <glyph glyph-name="egrave" unicode="&#xe8;" horiz-adv-x="605" 
d="M579 231h-413q9 -57 48.5 -94t96.5 -37q47 0 76 18t46 57h140q-25 -87 -97 -137.5t-170 -50.5q-81 0 -144.5 36.5t-99.5 101t-36 144.5t36 144t99.5 101t144.5 37q84 0 147 -40.5t96 -113t30 -166.5zM439 326q-6 57 -45 87.5t-91 30.5q-50 0 -87 -32t-47 -86h270z
M249 745l155 -116h-171l-159 116h175z" />
    <glyph glyph-name="eacute" unicode="&#xe9;" horiz-adv-x="605" 
d="M579 231h-413q9 -57 48.5 -94t96.5 -37q47 0 76 18t46 57h140q-25 -87 -97 -137.5t-170 -50.5q-81 0 -144.5 36.5t-99.5 101t-36 144.5t36 144t99.5 101t144.5 37q84 0 147 -40.5t96 -113t30 -166.5zM439 326q-6 57 -45 87.5t-91 30.5q-50 0 -87 -32t-47 -86h270z
M568 745l-159 -116h-171l155 116h175z" />
    <glyph glyph-name="ecircumflex" unicode="&#xea;" horiz-adv-x="605" 
d="M366 629l-63 44l-63 -44h-144l147 116h119l148 -116h-144zM579 231h-413q9 -57 48.5 -94t96.5 -37q47 0 76 18t46 57h140q-25 -87 -97 -137.5t-170 -50.5q-81 0 -144.5 36.5t-99.5 101t-36 144.5t36 144t99.5 101t144.5 37q84 0 147 -40.5t96 -113t30 -166.5zM439 326
q-6 57 -45 87.5t-91 30.5q-50 0 -87 -32t-47 -86h270z" />
    <glyph glyph-name="edieresis" unicode="&#xeb;" horiz-adv-x="605" 
d="M182 759q30 0 51 -20.5t21 -50.5t-21 -51t-51 -21t-51 21t-21 51t21 50.5t51 20.5zM423 759q30 0 51 -20.5t21 -50.5t-21 -51t-51 -21t-51 21t-21 51t21 50.5t51 20.5zM579 231h-413q9 -57 48.5 -94t96.5 -37q47 0 76 18t46 57h140q-25 -87 -97 -137.5t-170 -50.5
q-81 0 -144.5 36.5t-99.5 101t-36 144.5t36 144t99.5 101t144.5 37q84 0 147 -40.5t96 -113t30 -166.5zM439 326q-6 57 -45 87.5t-91 30.5q-50 0 -87 -32t-47 -86h270z" />
    <glyph glyph-name="igrave" unicode="&#xec;" horiz-adv-x="274" 
d="M206 538v-538h-138v538h138zM77 745l155 -116h-171l-159 116h175z" />
    <glyph glyph-name="iacute" unicode="&#xed;" horiz-adv-x="274" 
d="M206 538v-538h-138v538h138zM381 745l-159 -116h-171l155 116h175z" />
    <glyph glyph-name="icircumflex" unicode="&#xee;" horiz-adv-x="274" 
d="M206 538v-538h-138v538h138zM201 629l-63 44l-63 -44h-144l147 116h119l148 -116h-144z" />
    <glyph glyph-name="idieresis" unicode="&#xef;" horiz-adv-x="274" 
d="M206 538v-538h-138v538h138zM18 759q30 0 51 -20.5t21 -50.5t-21 -51t-51 -21t-51 21t-21 51t21 50.5t51 20.5zM259 759q30 0 51 -20.5t21 -50.5t-21 -51t-51 -21t-51 21t-21 51t21 50.5t51 20.5z" />
    <glyph glyph-name="eth" unicode="&#xf0;" horiz-adv-x="611" 
d="M580 311q0 -103 -35.5 -176t-100.5 -110.5t-151 -37.5q-73 0 -134 35t-97 99t-36 148q0 83 35 147.5t93 99.5t125 35q105 0 161 -76l1 1q-35 84 -129 152l-71 -44l-57 27l79 49q-25 15 -65 33l53 96q61 -29 113 -66l71 45l58 -28l-84 -52q171 -151 171 -377zM449 269
q0 79 -41 125.5t-103 46.5t-103 -46.5t-41 -125.5t41 -125.5t103 -46.5t103 46.5t41 125.5z" />
    <glyph glyph-name="ntilde" unicode="&#xf1;" horiz-adv-x="595" 
d="M206 538v-65q23 41 60.5 59.5t89.5 18.5q91 0 135 -54.5t44 -156.5v-340h-138v317q0 63 -24.5 93t-68.5 30q-45 0 -71.5 -30.5t-26.5 -92.5v-317h-138v538h138zM523 745q-12 -78 -49.5 -102.5t-83.5 -24.5q-23 0 -40 6.5t-41 19.5q-19 10 -28.5 14t-21.5 4q-41 0 -49 -44
h-95q12 78 49.5 102.5t83.5 24.5q23 0 40 -6.5t37 -18.5q17 -10 28 -14.5t25 -4.5q42 0 50 44h95z" />
    <glyph glyph-name="ograve" unicode="&#xf2;" horiz-adv-x="624" 
d="M26 269q0 82 37 146t102 100t147 36t147 -36t102 -100t37 -146t-37 -146t-102 -100t-147 -36t-147 36t-102 100t-37 146zM166 269q0 -73 40 -120t106 -47t106 47t40 120t-40 120t-106 47t-106 -47t-40 -120zM247 745l155 -116h-171l-159 116h175z" />
    <glyph glyph-name="oacute" unicode="&#xf3;" horiz-adv-x="624" 
d="M26 269q0 82 37 146t102 100t147 36t147 -36t102 -100t37 -146t-37 -146t-102 -100t-147 -36t-147 36t-102 100t-37 146zM166 269q0 -73 40 -120t106 -47t106 47t40 120t-40 120t-106 47t-106 -47t-40 -120zM562 745l-159 -116h-171l155 116h175z" />
    <glyph glyph-name="ocircumflex" unicode="&#xf4;" horiz-adv-x="624" 
d="M375 629l-63 44l-63 -44h-144l147 116h119l148 -116h-144zM26 269q0 82 37 146t102 100t147 36t147 -36t102 -100t37 -146t-37 -146t-102 -100t-147 -36t-147 36t-102 100t-37 146zM166 269q0 -73 40 -120t106 -47t106 47t40 120t-40 120t-106 47t-106 -47t-40 -120z" />
    <glyph glyph-name="otilde" unicode="&#xf5;" horiz-adv-x="624" 
d="M26 269q0 82 37 146t102 100t147 36t147 -36t102 -100t37 -146t-37 -146t-102 -100t-147 -36t-147 36t-102 100t-37 146zM166 269q0 -73 40 -120t106 -47t106 47t40 120t-40 120t-106 47t-106 -47t-40 -120zM514 745q-12 -78 -49.5 -102.5t-83.5 -24.5q-23 0 -40 6.5
t-41 19.5q-19 10 -28.5 14t-21.5 4q-41 0 -49 -44h-95q12 78 49.5 102.5t83.5 24.5q23 0 40 -6.5t37 -18.5q17 -10 28 -14.5t25 -4.5q42 0 50 44h95z" />
    <glyph glyph-name="odieresis" unicode="&#xf6;" horiz-adv-x="624" 
d="M191 759q30 0 51 -20.5t21 -50.5t-21 -51t-51 -21t-51 21t-21 51t21 50.5t51 20.5zM432 759q30 0 51 -20.5t21 -50.5t-21 -51t-51 -21t-51 21t-21 51t21 50.5t51 20.5zM26 269q0 82 37 146t102 100t147 36t147 -36t102 -100t37 -146t-37 -146t-102 -100t-147 -36t-147 36
t-102 100t-37 146zM166 269q0 -73 40 -120t106 -47t106 47t40 120t-40 120t-106 47t-106 -47t-40 -120z" />
    <glyph glyph-name="oslash" unicode="&#xf8;" horiz-adv-x="624" 
d="M598 269q0 -82 -37 -146t-102 -100t-147 -36q-93 0 -164 46l-70 -81l-49 43l69 80q-34 37 -53 87t-19 107q0 82 37 146t102 100t147 36q88 0 160 -43l67 77l51 -42l-67 -77q36 -37 55.5 -87.5t19.5 -109.5zM187 177l204 236q-34 23 -79 23q-66 0 -106 -47t-40 -120
q0 -53 21 -92zM458 269q0 55 -23 95l-205 -237q34 -25 82 -25q66 0 106 47t40 120z" />
    <glyph glyph-name="ugrave" unicode="&#xf9;" horiz-adv-x="608" 
d="M60 221v317h138v-309q0 -64 27 -95q26 -32 79 -32t79 32q27 32 27 95v309h138v-317q0 -65 -16.5 -109.5t-50.5 -72.5q-61 -52 -177 -52t-177 52q-34 28 -50.5 72.5t-16.5 109.5zM258 745l155 -116h-171l-159 116h175z" />
    <glyph glyph-name="uacute" unicode="&#xfa;" horiz-adv-x="608" 
d="M60 221v317h138v-309q0 -64 27 -95q26 -32 79 -32t79 32q27 32 27 95v309h138v-317q0 -65 -16.5 -109.5t-50.5 -72.5q-61 -52 -177 -52t-177 52q-34 28 -50.5 72.5t-16.5 109.5zM543 745l-159 -116h-171l155 116h175z" />
    <glyph glyph-name="ucircumflex" unicode="&#xfb;" horiz-adv-x="608" 
d="M366 629l-63 44l-63 -44h-144l147 116h119l148 -116h-144zM60 221v317h138v-309q0 -64 27 -95q26 -32 79 -32t79 32q27 32 27 95v309h138v-317q0 -65 -16.5 -109.5t-50.5 -72.5q-61 -52 -177 -52t-177 52q-34 28 -50.5 72.5t-16.5 109.5z" />
    <glyph glyph-name="udieresis" unicode="&#xfc;" horiz-adv-x="608" 
d="M183 759q30 0 51 -20.5t21 -50.5t-21 -51t-51 -21t-51 21t-21 51t21 50.5t51 20.5zM424 759q30 0 51 -20.5t21 -50.5t-21 -51t-51 -21t-51 21t-21 51t21 50.5t51 20.5zM60 221v317h138v-309q0 -64 27 -95q26 -32 79 -32t79 32q27 32 27 95v309h138v-317
q0 -65 -16.5 -109.5t-50.5 -72.5q-61 -52 -177 -52t-177 52q-34 28 -50.5 72.5t-16.5 109.5z" />
    <glyph glyph-name="yacute" unicode="&#xfd;" horiz-adv-x="565" 
d="M6 538h151l126 -364l136 364h140l-293 -733h-140l82 207zM519 745l-159 -116h-171l155 116h175z" />
    <glyph glyph-name="thorn" unicode="&#xfe;" horiz-adv-x="653" 
d="M68 -195v940h138v-272q24 38 70.5 58t93.5 20q68 0 127 -35t94.5 -99.5t35.5 -147.5t-35.5 -147.5t-94.5 -99.5t-127 -35q-47 0 -93.5 20t-70.5 58v-260h-138zM343 441q-40 0 -73 -20.5t-52.5 -59.5t-19.5 -92t19.5 -92t52.5 -59.5t73 -20.5t73 20.5t52.5 59.5t19.5 92
t-19.5 92t-52.5 59.5t-73 20.5z" />
    <glyph glyph-name="ydieresis" unicode="&#xff;" horiz-adv-x="565" 
d="M6 538h151l126 -364l136 364h140l-293 -733h-140l82 207zM165 759q30 0 51 -20.5t21 -50.5t-21 -51t-51 -21t-51 21t-21 51t21 50.5t51 20.5zM406 759q30 0 51 -20.5t21 -50.5t-21 -51t-51 -21t-51 21t-21 51t21 50.5t51 20.5z" />
    <glyph glyph-name="Abreve" unicode="&#x102;" horiz-adv-x="737" 
d="M501 190h-274l-69 -190h-142l280 745h144l281 -745h-151zM457 312l-93 258l-93 -258h186zM367 799q-159 0 -168 117h97q3 -24 20 -35t52 -11t52.5 11t20.5 35h97q-6 -60 -49 -88.5t-122 -28.5z" />
    <glyph glyph-name="Amacron" unicode="&#x100;" horiz-adv-x="737" 
d="M501 190h-274l-69 -190h-142l280 745h144l281 -745h-151zM457 312l-93 258l-93 -258h186zM212 907h313v-95h-313v95z" />
    <glyph glyph-name="Aogonek" unicode="&#x104;" horiz-adv-x="737" 
d="M673 -106q20 0 48 8v-82q-35 -8 -74 -8q-59 0 -98.5 23t-39.5 69q0 55 61 96l-69 190h-274l-69 -190h-142l280 745h144l281 -745q-50 -24 -71.5 -39t-21.5 -33q0 -34 45 -34zM457 312l-93 258l-93 -258h186z" />
    <glyph glyph-name="Cacute" unicode="&#x106;" horiz-adv-x="808" 
d="M413 757q92 0 167.5 -34.5t126 -98t70.5 -147.5h-152q-22 77 -75.5 116t-134.5 39q-70 0 -123 -33.5t-81.5 -93t-28.5 -133.5t28.5 -133.5t81.5 -93t123 -33.5q81 0 134.5 39t75.5 116h152q-20 -84 -70.5 -147.5t-126 -98t-167.5 -34.5q-110 0 -197 50.5t-136 138.5
t-49 196t49 196t136 138.5t197 50.5zM311 803l148 113h176l-157 -113h-167z" />
    <glyph glyph-name="Ccaron" unicode="&#x10c;" horiz-adv-x="808" 
d="M340 916l66 -49l63 49h147l-137 -113h-145l-140 113h146zM413 757q92 0 167.5 -34.5t126 -98t70.5 -147.5h-152q-22 77 -75.5 116t-134.5 39q-70 0 -123 -33.5t-81.5 -93t-28.5 -133.5t28.5 -133.5t81.5 -93t123 -33.5q81 0 134.5 39t75.5 116h152q-20 -84 -70.5 -147.5
t-126 -98t-167.5 -34.5q-110 0 -197 50.5t-136 138.5t-49 196t49 196t136 138.5t197 50.5z" />
    <glyph glyph-name="Ccircumflex" unicode="&#x108;" horiz-adv-x="808" 
d="M413 757q92 0 167.5 -34.5t126 -98t70.5 -147.5h-152q-22 77 -75.5 116t-134.5 39q-70 0 -123 -33.5t-81.5 -93t-28.5 -133.5t28.5 -133.5t81.5 -93t123 -33.5q81 0 134.5 39t75.5 116h152q-20 -84 -70.5 -147.5t-126 -98t-167.5 -34.5q-110 0 -197 50.5t-136 138.5
t-49 196t49 196t136 138.5t197 50.5zM479 803l-63 49l-66 -49h-146l140 113h145l137 -113h-147z" />
    <glyph glyph-name="Cdotaccent" unicode="&#x10a;" horiz-adv-x="808" 
d="M413 757q92 0 167.5 -34.5t126 -98t70.5 -147.5h-152q-22 77 -75.5 116t-134.5 39q-70 0 -123 -33.5t-81.5 -93t-28.5 -133.5t28.5 -133.5t81.5 -93t123 -33.5q81 0 134.5 39t75.5 116h152q-20 -84 -70.5 -147.5t-126 -98t-167.5 -34.5q-110 0 -197 50.5t-136 138.5
t-49 196t49 196t136 138.5t197 50.5zM407 932q30 0 51 -20.5t21 -50.5t-21 -51t-51 -21t-51 21t-21 51t21 50.5t51 20.5z" />
    <glyph glyph-name="Dcaron" unicode="&#x10e;" horiz-adv-x="756" 
d="M318 745q130 0 223 -47.5t141 -132t48 -192.5t-48 -192.5t-141 -132.5t-224 -48h-246v745h247zM214 117h111q80 0 137.5 33t87 91t29.5 132t-29.5 131.5t-87 90.5t-137.5 33h-111v-511zM283 916l66 -49l63 49h147l-137 -113h-145l-140 113h146z" />
    <glyph glyph-name="Dcroat" unicode="&#x110;" horiz-adv-x="797" 
d="M771 373q0 -108 -48 -192.5t-141 -132.5t-224 -48h-246v308h-86v116h86v321h247q130 0 223 -47.5t141 -132t48 -192.5zM620 373q0 74 -29.5 131.5t-87 90.5t-137.5 33h-111v-204h128v-116h-128v-191h111q80 0 137.5 33t87 91t29.5 132z" />
    <glyph glyph-name="Ebreve" unicode="&#x114;" 
d="M534 745v-122h-320v-181h263v-122h-263v-198h320v-122h-463v745h463zM309 799q-159 0 -168 117h97q3 -24 20 -35t52 -11t52.5 11t20.5 35h97q-6 -60 -49 -88.5t-122 -28.5z" />
    <glyph glyph-name="Ecaron" unicode="&#x11a;" 
d="M534 745v-122h-320v-181h263v-122h-263v-198h320v-122h-463v745h463zM245 916l66 -49l63 49h147l-137 -113h-145l-140 113h146z" />
    <glyph glyph-name="Emacron" unicode="&#x112;" 
d="M534 745v-122h-320v-181h263v-122h-263v-198h320v-122h-463v745h463zM149 907h313v-95h-313v95z" />
    <glyph glyph-name="Eogonek" unicode="&#x118;" 
d="M441 -72q0 -34 45 -34q20 0 48 8v-82q-35 -8 -74 -8q-59 0 -98.5 23t-39.5 69q0 29 18.5 54t50.5 42h143q-50 -24 -71.5 -39t-21.5 -33zM534 745v-122h-320v-181h263v-122h-263v-198h320v-122h-463v745h463z" />
    <glyph glyph-name="Edotaccent" unicode="&#x116;" 
d="M534 745v-122h-320v-181h263v-122h-263v-198h320v-122h-463v745h463zM307 932q30 0 51 -20.5t21 -50.5t-21 -51t-51 -21t-51 21t-21 51t21 50.5t51 20.5z" />
    <glyph glyph-name="Gbreve" unicode="&#x11e;" horiz-adv-x="840" 
d="M412 -13q-109 0 -196 50.5t-136 138.5t-49 196t48.5 196t135 138.5t195.5 50.5q92 0 168 -33.5t127 -95t69 -143.5h-150q-20 71 -74.5 109t-136.5 38q-71 0 -123 -34t-80 -93t-28 -133t27.5 -133.5t80 -93t124.5 -33.5q97 0 154.5 43t62.5 127h-268v123h406v-405h-129v88
q-38 -50 -96.5 -75.5t-131.5 -25.5zM411 799q-159 0 -168 117h97q3 -24 20 -35t52 -11t52.5 11t20.5 35h97q-6 -60 -49 -88.5t-122 -28.5z" />
    <glyph glyph-name="Gcircumflex" unicode="&#x11c;" horiz-adv-x="840" 
d="M412 -13q-109 0 -196 50.5t-136 138.5t-49 196t48.5 196t135 138.5t195.5 50.5q92 0 168 -33.5t127 -95t69 -143.5h-150q-20 71 -74.5 109t-136.5 38q-71 0 -123 -34t-80 -93t-28 -133t27.5 -133.5t80 -93t124.5 -33.5q97 0 154.5 43t62.5 127h-268v123h406v-405h-129v88
q-38 -50 -96.5 -75.5t-131.5 -25.5zM475 803l-63 49l-66 -49h-146l140 113h145l137 -113h-147z" />
    <glyph glyph-name="uni0122" unicode="&#x122;" horiz-adv-x="840" 
d="M412 -13q-109 0 -196 50.5t-136 138.5t-49 196t48.5 196t135 138.5t195.5 50.5q92 0 168 -33.5t127 -95t69 -143.5h-150q-20 71 -74.5 109t-136.5 38q-71 0 -123 -34t-80 -93t-28 -133t27.5 -133.5t80 -93t124.5 -33.5q97 0 154.5 43t62.5 127h-268v123h406v-405h-129v88
q-38 -50 -96.5 -75.5t-131.5 -25.5zM389 -205q-20 7 -31.5 24t-11.5 39q0 27 19.5 47t47.5 20q27 0 46.5 -20t19.5 -47q0 -18 -8.5 -36t-35.5 -63l-45 -76h-65z" />
    <glyph glyph-name="Gdotaccent" unicode="&#x120;" horiz-adv-x="840" 
d="M412 -13q-109 0 -196 50.5t-136 138.5t-49 196t48.5 196t135 138.5t195.5 50.5q92 0 168 -33.5t127 -95t69 -143.5h-150q-20 71 -74.5 109t-136.5 38q-71 0 -123 -34t-80 -93t-28 -133t27.5 -133.5t80 -93t124.5 -33.5q97 0 154.5 43t62.5 127h-268v123h406v-405h-129v88
q-38 -50 -96.5 -75.5t-131.5 -25.5zM412 932q30 0 51 -20.5t21 -50.5t-21 -51t-51 -21t-51 21t-21 51t21 50.5t51 20.5z" />
    <glyph glyph-name="Hbar" unicode="&#x126;" horiz-adv-x="800" 
d="M780 525h-78v-525h-143v320h-321v-320h-143v525h-75v100h75v120h143v-120h321v120h143v-120h78v-100zM559 525h-321v-83h321v83z" />
    <glyph glyph-name="Hcircumflex" unicode="&#x124;" horiz-adv-x="749" 
d="M214 745v-303h321v303h143v-745h-143v320h-321v-320h-143v745h143zM440 803l-63 49l-66 -49h-146l140 113h145l137 -113h-147z" />
    <glyph glyph-name="Ibreve" unicode="&#x12c;" horiz-adv-x="285" 
d="M214 745v-745h-143v745h143zM142 799q-159 0 -168 117h97q3 -24 20 -35t52 -11t52.5 11t20.5 35h97q-6 -60 -49 -88.5t-122 -28.5z" />
    <glyph glyph-name="Idotaccent" unicode="&#x130;" horiz-adv-x="285" 
d="M214 745v-745h-143v745h143zM143 932q30 0 51 -20.5t21 -50.5t-21 -51t-51 -21t-51 21t-21 51t21 50.5t51 20.5z" />
    <glyph glyph-name="Imacron" unicode="&#x12a;" horiz-adv-x="285" 
d="M214 745v-745h-143v745h143zM-13 907h313v-95h-313v95z" />
    <glyph glyph-name="Iogonek" unicode="&#x12e;" horiz-adv-x="285" 
d="M214 745v-745h-143v745h143zM122 -72q0 -34 45 -34q20 0 48 8v-82q-35 -8 -74 -8q-59 0 -98.5 23t-39.5 69q0 29 18.5 54t50.5 42h143q-50 -24 -71.5 -39t-21.5 -33z" />
    <glyph glyph-name="Itilde" unicode="&#x128;" horiz-adv-x="285" 
d="M214 745v-745h-143v745h143zM344 923q-12 -72 -52.5 -99.5t-83.5 -27.5q-23 0 -40 6.5t-37 17.5q-16 9 -26 13t-21 4q-40 0 -48 -41h-94q12 73 52.5 100t84.5 27q23 0 38 -6t35 -17q14 -9 25 -13t24 -4q40 0 50 40h93z" />
    <glyph glyph-name="uni1ECA" unicode="&#x1eca;" horiz-adv-x="285" 
d="M214 745v-745h-143v745h143zM142 -46q30 0 51 -20.5t21 -50.5t-21 -51t-51 -21t-51 21t-21 51t21 50.5t51 20.5z" />
    <glyph glyph-name="Jcircumflex" unicode="&#x134;" horiz-adv-x="569" 
d="M158 214q0 -52 28.5 -79.5t72.5 -27.5t72.5 27.5t28.5 79.5v409h-234v122h377v-508q0 -116 -66 -183t-183 -67q-76 0 -129.5 31t-80.5 82.5t-29 113.5h143zM378 803l-63 49l-66 -49h-146l140 113h145l137 -113h-147z" />
    <glyph glyph-name="uni0136" unicode="&#x136;" horiz-adv-x="701" 
d="M514 0l-300 304v-304h-143v745h143v-336l277 336h164l-312 -373l359 -372h-188zM327 -205q-20 7 -31.5 24t-11.5 39q0 27 19.5 47t47.5 20q27 0 46.5 -20t19.5 -47q0 -18 -8.5 -36t-35.5 -63l-45 -76h-65z" />
    <glyph glyph-name="Lacute" unicode="&#x139;" horiz-adv-x="527" 
d="M214 745v-623h297v-122h-440v745h143zM31 803l148 113h176l-157 -113h-167z" />
    <glyph glyph-name="Lcaron" unicode="&#x13d;" horiz-adv-x="527" 
d="M214 745v-623h297v-122h-440v745h143zM318 575l30 170h130l-70 -170h-90z" />
    <glyph glyph-name="uni013B" unicode="&#x13b;" horiz-adv-x="527" 
d="M214 745v-623h297v-122h-440v745h143zM276 -205q-20 7 -31.5 24t-11.5 39q0 27 19.5 47t47.5 20q27 0 46.5 -20t19.5 -47q0 -18 -8.5 -36t-35.5 -63l-45 -76h-65z" />
    <glyph glyph-name="Ldot" unicode="&#x13f;" horiz-adv-x="527" 
d="M214 745v-623h297v-122h-440v745h143zM379 505q30 0 51 -20.5t21 -50.5t-21 -51t-51 -21t-51 21t-21 51t21 50.5t51 20.5z" />
    <glyph glyph-name="Lslash" unicode="&#x141;" horiz-adv-x="559" 
d="M543 122v-122h-440v254l-97 -61v125l97 61v366h143v-275l169 107v-126l-169 -107v-222h297z" />
    <glyph glyph-name="Nacute" unicode="&#x143;" horiz-adv-x="753" 
d="M206 523v-523h-135v745h133l343 -523v523h135v-745h-133zM255 803l148 113h176l-157 -113h-167z" />
    <glyph glyph-name="Ncaron" unicode="&#x147;" horiz-adv-x="753" 
d="M206 523v-523h-135v745h133l343 -523v523h135v-745h-133zM315 916l66 -49l63 49h147l-137 -113h-145l-140 113h146z" />
    <glyph glyph-name="uni0145" unicode="&#x145;" horiz-adv-x="753" 
d="M206 523v-523h-135v745h133l343 -523v523h135v-745h-133zM350 -205q-20 7 -31.5 24t-11.5 39q0 27 19.5 47t47.5 20q27 0 46.5 -20t19.5 -47q0 -18 -8.5 -36t-35.5 -63l-45 -76h-65z" />
    <glyph glyph-name="OE" unicode="&#x152;" horiz-adv-x="1154" 
d="M417 -13q-111 0 -199 50t-137.5 138t-49.5 197t49.5 197t137.5 138t199 50q130 0 224 -79v67h463v-122h-320v-181h263v-122h-263v-198h320v-122h-463v66q-94 -79 -224 -79zM417 112q69 0 122.5 33t83 92.5t29.5 134.5t-29.5 134.5t-83 92.5t-122.5 33t-122.5 -33
t-83 -92.5t-29.5 -134.5t29.5 -134.5t83 -92.5t122.5 -33z" />
    <glyph glyph-name="Obreve" unicode="&#x14e;" horiz-adv-x="834" 
d="M416 799q-159 0 -168 117h97q3 -24 20 -35t52 -11t52.5 11t20.5 35h97q-6 -60 -49 -88.5t-122 -28.5zM417 757q111 0 199 -50t137.5 -138t49.5 -197t-49.5 -197t-137.5 -138t-199 -50t-199 50t-137.5 138t-49.5 197t49.5 197t137.5 138t199 50zM417 632q-69 0 -122.5 -33
t-83 -92.5t-29.5 -134.5t29.5 -134.5t83 -92.5t122.5 -33t122.5 33t83 92.5t29.5 134.5t-29.5 134.5t-83 92.5t-122.5 33z" />
    <glyph glyph-name="Ohungarumlaut" unicode="&#x150;" horiz-adv-x="834" 
d="M417 757q111 0 199 -50t137.5 -138t49.5 -197t-49.5 -197t-137.5 -138t-199 -50t-199 50t-137.5 138t-49.5 197t49.5 197t137.5 138t199 50zM417 632q-69 0 -122.5 -33t-83 -92.5t-29.5 -134.5t29.5 -134.5t83 -92.5t122.5 -33t122.5 33t83 92.5t29.5 134.5t-29.5 134.5
t-83 92.5t-122.5 33zM245 803l148 113h176l-157 -113h-167zM467 803l148 113h176l-157 -113h-167z" />
    <glyph glyph-name="Omacron" unicode="&#x14c;" horiz-adv-x="834" 
d="M260 907h313v-95h-313v95zM417 757q111 0 199 -50t137.5 -138t49.5 -197t-49.5 -197t-137.5 -138t-199 -50t-199 50t-137.5 138t-49.5 197t49.5 197t137.5 138t199 50zM417 632q-69 0 -122.5 -33t-83 -92.5t-29.5 -134.5t29.5 -134.5t83 -92.5t122.5 -33t122.5 33
t83 92.5t29.5 134.5t-29.5 134.5t-83 92.5t-122.5 33z" />
    <glyph glyph-name="uni1ECC" unicode="&#x1ecc;" horiz-adv-x="834" 
d="M417 -46q30 0 51 -20.5t21 -50.5t-21 -51t-51 -21t-51 21t-21 51t21 50.5t51 20.5zM417 757q111 0 199 -50t137.5 -138t49.5 -197t-49.5 -197t-137.5 -138t-199 -50t-199 50t-137.5 138t-49.5 197t49.5 197t137.5 138t199 50zM417 632q-69 0 -122.5 -33t-83 -92.5
t-29.5 -134.5t29.5 -134.5t83 -92.5t122.5 -33t122.5 33t83 92.5t29.5 134.5t-29.5 134.5t-83 92.5t-122.5 33z" />
    <glyph glyph-name="Racute" unicode="&#x154;" horiz-adv-x="726" 
d="M541 0l-278 311h-49v-311h-143v745h273q128 0 195.5 -60t67.5 -157q0 -77 -43 -132t-127 -75l288 -321h-184zM214 427h116q60 0 94 27t34 74t-34 74t-94 27h-116v-202zM210 803l148 113h176l-157 -113h-167z" />
    <glyph glyph-name="Rcaron" unicode="&#x158;" horiz-adv-x="726" 
d="M541 0l-278 311h-49v-311h-143v745h273q128 0 195.5 -60t67.5 -157q0 -77 -43 -132t-127 -75l288 -321h-184zM214 427h116q60 0 94 27t34 74t-34 74t-94 27h-116v-202zM256 916l66 -49l63 49h147l-137 -113h-145l-140 113h146z" />
    <glyph glyph-name="uni0156" unicode="&#x156;" horiz-adv-x="726" 
d="M541 0l-278 311h-49v-311h-143v745h273q128 0 195.5 -60t67.5 -157q0 -77 -43 -132t-127 -75l288 -321h-184zM214 427h116q60 0 94 27t34 74t-34 74t-94 27h-116v-202zM334 -205q-20 7 -31.5 24t-11.5 39q0 27 19.5 47t47.5 20q27 0 46.5 -20t19.5 -47q0 -18 -8.5 -36
t-35.5 -63l-45 -76h-65z" />
    <glyph glyph-name="Sacute" unicode="&#x15a;" horiz-adv-x="650" 
d="M178 236q12 -72 53.5 -101t107.5 -29q59 0 96.5 25.5t37.5 71.5q0 79 -130 107l-72 15q-105 21 -165 75t-60 143q0 66 36.5 114.5t98.5 74t136 25.5q70 0 130.5 -29t99.5 -81.5t46 -120.5h-142q-8 57 -47.5 84t-92.5 27q-60 0 -93.5 -25t-33.5 -63q0 -40 29 -62.5
t85 -33.5l72 -15q115 -24 178 -78t63 -146q0 -72 -37 -123t-100.5 -77.5t-140.5 -26.5q-124 0 -204 66t-93 183h142zM221 803l148 113h176l-157 -113h-167z" />
    <glyph glyph-name="Scaron" unicode="&#x160;" horiz-adv-x="650" 
d="M178 236q12 -72 53.5 -101t107.5 -29q59 0 96.5 25.5t37.5 71.5q0 79 -130 107l-72 15q-105 21 -165 75t-60 143q0 66 36.5 114.5t98.5 74t136 25.5q70 0 130.5 -29t99.5 -81.5t46 -120.5h-142q-8 57 -47.5 84t-92.5 27q-60 0 -93.5 -25t-33.5 -63q0 -40 29 -62.5
t85 -33.5l72 -15q115 -24 178 -78t63 -146q0 -72 -37 -123t-100.5 -77.5t-140.5 -26.5q-124 0 -204 66t-93 183h142zM263 916l66 -49l63 49h147l-137 -113h-145l-140 113h146z" />
    <glyph glyph-name="Scedilla" unicode="&#x15e;" horiz-adv-x="650" 
d="M178 236q12 -72 53.5 -101t107.5 -29q59 0 96.5 25.5t37.5 71.5q0 79 -130 107l-72 15q-105 21 -165 75t-60 143q0 66 36.5 114.5t98.5 74t136 25.5q70 0 130.5 -29t99.5 -81.5t46 -120.5h-142q-8 57 -47.5 84t-92.5 27q-60 0 -93.5 -25t-33.5 -63q0 -40 29 -62.5
t85 -33.5l72 -15q115 -24 178 -78t63 -146q0 -72 -37 -123t-100.5 -77.5t-140.5 -26.5q-124 0 -204 66t-93 183h142zM291 -144q24 0 40 7t16 22q0 13 -11 20.5t-29 7.5q-25 0 -38 -9l-30 17l51 83h53l-32 -51q18 3 40 3q33 -1 55 -20t22 -48q0 -38 -34.5 -60t-81.5 -22
q-57 0 -96 19l17 45q26 -14 58 -14z" />
    <glyph glyph-name="Scircumflex" unicode="&#x15c;" horiz-adv-x="650" 
d="M178 236q12 -72 53.5 -101t107.5 -29q59 0 96.5 25.5t37.5 71.5q0 79 -130 107l-72 15q-105 21 -165 75t-60 143q0 66 36.5 114.5t98.5 74t136 25.5q70 0 130.5 -29t99.5 -81.5t46 -120.5h-142q-8 57 -47.5 84t-92.5 27q-60 0 -93.5 -25t-33.5 -63q0 -40 29 -62.5
t85 -33.5l72 -15q115 -24 178 -78t63 -146q0 -72 -37 -123t-100.5 -77.5t-140.5 -26.5q-124 0 -204 66t-93 183h142zM382 803l-63 49l-66 -49h-146l140 113h145l137 -113h-147z" />
    <glyph glyph-name="uni0218" unicode="&#x218;" horiz-adv-x="650" 
d="M178 236q12 -72 53.5 -101t107.5 -29q59 0 96.5 25.5t37.5 71.5q0 79 -130 107l-72 15q-105 21 -165 75t-60 143q0 66 36.5 114.5t98.5 74t136 25.5q70 0 130.5 -29t99.5 -81.5t46 -120.5h-142q-8 57 -47.5 84t-92.5 27q-60 0 -93.5 -25t-33.5 -63q0 -40 29 -62.5
t85 -33.5l72 -15q115 -24 178 -78t63 -146q0 -72 -37 -123t-100.5 -77.5t-140.5 -26.5q-124 0 -204 66t-93 183h142zM308 -205q-20 7 -31.5 24t-11.5 39q0 27 19.5 47t47.5 20q27 0 46.5 -20t19.5 -47q0 -18 -8.5 -36t-35.5 -63l-45 -76h-65z" />
    <glyph glyph-name="Tcaron" unicode="&#x164;" horiz-adv-x="592" 
d="M11 623v122h570v-122h-214v-623h-143v623h-213zM231 916l66 -49l63 49h147l-137 -113h-145l-140 113h146z" />
    <glyph glyph-name="uni0162" unicode="&#x162;" horiz-adv-x="592" 
d="M11 623v122h570v-122h-214v-623h-143v623h-213zM266 -205q-20 7 -31.5 24t-11.5 39q0 27 19.5 47t47.5 20q27 0 46.5 -20t19.5 -47q0 -18 -8.5 -36t-35.5 -63l-45 -76h-65z" />
    <glyph glyph-name="uni021A" unicode="&#x21a;" horiz-adv-x="592" 
d="M11 623v122h570v-122h-214v-623h-143v623h-213zM266 -205q-20 7 -31.5 24t-11.5 39q0 27 19.5 47t47.5 20q27 0 46.5 -20t19.5 -47q0 -18 -8.5 -36t-35.5 -63l-45 -76h-65z" />
    <glyph glyph-name="Ubreve" unicode="&#x16c;" horiz-adv-x="730" 
d="M364 799q-159 0 -168 117h97q3 -24 20 -35t52 -11t52.5 11t20.5 35h97q-6 -60 -49 -88.5t-122 -28.5zM65 745h143v-467q0 -83 40.5 -127t116.5 -44t116.5 44t40.5 127v467h143v-474q0 -86 -37.5 -150.5t-105 -99t-157.5 -34.5t-157.5 34.5t-105 99t-37.5 150.5v474z" />
    <glyph glyph-name="Uhungarumlaut" unicode="&#x170;" horiz-adv-x="730" 
d="M65 745h143v-467q0 -83 40.5 -127t116.5 -44t116.5 44t40.5 127v467h143v-474q0 -86 -37.5 -150.5t-105 -99t-157.5 -34.5t-157.5 34.5t-105 99t-37.5 150.5v474zM168 803l148 113h176l-157 -113h-167zM390 803l148 113h176l-157 -113h-167z" />
    <glyph glyph-name="Umacron" unicode="&#x16a;" horiz-adv-x="730" 
d="M209 907h313v-95h-313v95zM65 745h143v-467q0 -83 40.5 -127t116.5 -44t116.5 44t40.5 127v467h143v-474q0 -86 -37.5 -150.5t-105 -99t-157.5 -34.5t-157.5 34.5t-105 99t-37.5 150.5v474z" />
    <glyph glyph-name="Uogonek" unicode="&#x172;" horiz-adv-x="730" 
d="M65 745h143v-467q0 -83 40.5 -127t116.5 -44t116.5 44t40.5 127v467h143v-474q0 -86 -37.5 -150.5t-105 -99t-157.5 -34.5t-157.5 34.5t-105 99t-37.5 150.5v474zM357 -72q0 -34 45 -34q20 0 48 8v-82q-35 -8 -74 -8q-59 0 -98.5 23t-39.5 69q0 29 18.5 54t50.5 42h143
q-50 -24 -71.5 -39t-21.5 -33z" />
    <glyph glyph-name="Uring" unicode="&#x16e;" horiz-adv-x="730" 
d="M65 745h143v-467q0 -83 40.5 -127t116.5 -44t116.5 44t40.5 127v467h143v-474q0 -86 -37.5 -150.5t-105 -99t-157.5 -34.5t-157.5 34.5t-105 99t-37.5 150.5v474zM365 795q-38 0 -64 24.5t-26 60.5q0 37 26.5 61t63.5 24q38 0 64.5 -24t26.5 -61t-26 -61t-65 -24z
M365 838q18 0 30.5 12t12.5 30t-12.5 30.5t-30.5 12.5q-17 0 -30 -12.5t-13 -30.5t13 -30t30 -12z" />
    <glyph glyph-name="Utilde" unicode="&#x168;" horiz-adv-x="730" 
d="M65 745h143v-467q0 -83 40.5 -127t116.5 -44t116.5 44t40.5 127v467h143v-474q0 -86 -37.5 -150.5t-105 -99t-157.5 -34.5t-157.5 34.5t-105 99t-37.5 150.5v474zM576 923q-12 -72 -52.5 -99.5t-83.5 -27.5q-23 0 -40 6.5t-37 17.5q-16 9 -26 13t-21 4q-40 0 -48 -41h-94
q12 73 52.5 100t84.5 27q23 0 38 -6t35 -17q14 -9 25 -13t24 -4q40 0 50 40h93z" />
    <glyph glyph-name="uni1EE4" unicode="&#x1ee4;" horiz-adv-x="730" 
d="M65 745h143v-467q0 -83 40.5 -127t116.5 -44t116.5 44t40.5 127v467h143v-474q0 -86 -37.5 -150.5t-105 -99t-157.5 -34.5t-157.5 34.5t-105 99t-37.5 150.5v474zM365 -46q30 0 51 -20.5t21 -50.5t-21 -51t-51 -21t-51 21t-21 51t21 50.5t51 20.5z" />
    <glyph glyph-name="Wacute" unicode="&#x1e82;" horiz-adv-x="992" 
d="M184 745l108 -548l121 548h167l131 -551l99 551h146l-151 -745h-169l-140 580l-140 -580h-169l-151 745h148zM417 803l148 113h176l-157 -113h-167z" />
    <glyph glyph-name="Wcircumflex" unicode="&#x174;" horiz-adv-x="992" 
d="M560 803l-63 49l-66 -49h-146l140 113h145l137 -113h-147zM184 745l108 -548l121 548h167l131 -551l99 551h146l-151 -745h-169l-140 580l-140 -580h-169l-151 745h148z" />
    <glyph glyph-name="Wdieresis" unicode="&#x1e84;" horiz-adv-x="992" 
d="M375 932q30 0 51 -20.5t21 -50.5t-21 -51t-51 -21t-51 21t-21 51t21 50.5t51 20.5zM616 932q30 0 51 -20.5t21 -50.5t-21 -51t-51 -21t-51 21t-21 51t21 50.5t51 20.5zM184 745l108 -548l121 548h167l131 -551l99 551h146l-151 -745h-169l-140 580l-140 -580h-169
l-151 745h148z" />
    <glyph glyph-name="Wgrave" unicode="&#x1e80;" horiz-adv-x="992" 
d="M184 745l108 -548l121 548h167l131 -551l99 551h146l-151 -745h-169l-140 580l-140 -580h-169l-151 745h148zM570 803h-167l-157 113h176z" />
    <glyph glyph-name="Ycircumflex" unicode="&#x176;" horiz-adv-x="763" 
d="M446 803l-63 49l-66 -49h-146l140 113h145l137 -113h-147zM382 454l212 291h163l-307 -415v-330h-143v332l-301 413h167z" />
    <glyph glyph-name="Ydieresis" unicode="&#x178;" horiz-adv-x="763" 
d="M261 932q30 0 51 -20.5t21 -50.5t-21 -51t-51 -21t-51 21t-21 51t21 50.5t51 20.5zM502 932q30 0 51 -20.5t21 -50.5t-21 -51t-51 -21t-51 21t-21 51t21 50.5t51 20.5zM382 454l212 291h163l-307 -415v-330h-143v332l-301 413h167z" />
    <glyph glyph-name="Ygrave" unicode="&#x1ef2;" horiz-adv-x="763" 
d="M382 454l212 291h163l-307 -415v-330h-143v332l-301 413h167zM488 803h-167l-157 113h176z" />
    <glyph glyph-name="uni0232" unicode="&#x232;" horiz-adv-x="763" 
d="M225 907h313v-95h-313v95zM382 454l212 291h163l-307 -415v-330h-143v332l-301 413h167z" />
    <glyph glyph-name="Zacute" unicode="&#x179;" horiz-adv-x="664" 
d="M434 623h-370v122h544v-112l-392 -511h403v-122h-579v112zM213 803l148 113h176l-157 -113h-167z" />
    <glyph glyph-name="Zcaron" unicode="&#x17d;" horiz-adv-x="664" 
d="M434 623h-370v122h544v-112l-392 -511h403v-122h-579v112zM269 916l66 -49l63 49h147l-137 -113h-145l-140 113h146z" />
    <glyph glyph-name="Zdotaccent" unicode="&#x17b;" horiz-adv-x="664" 
d="M434 623h-370v122h544v-112l-392 -511h403v-122h-579v112zM335 932q30 0 51 -20.5t21 -50.5t-21 -51t-51 -21t-51 21t-21 51t21 50.5t51 20.5z" />
    <glyph glyph-name="abreve" unicode="&#x103;" 
d="M232 -13q-56 0 -98.5 22.5t-65.5 60.5t-23 82q0 78 65 118t188 60q53 8 72 20t19 39q0 32 -26 48.5t-66 16.5q-51 0 -84.5 -27.5t-35.5 -72.5h-119q1 55 30.5 100.5t83 72t123.5 26.5q107 0 168 -47t61 -162v-344h-125v62q-23 -36 -65.5 -55.5t-101.5 -19.5zM278 237
q-53 -15 -72.5 -32t-19.5 -46q0 -33 24 -52t62 -19q57 0 89.5 27t32.5 84v73q-36 -14 -73 -23.5t-43 -11.5zM127 745h97q7 -52 72 -52q67 0 73 52h97q-6 -57 -48 -90.5t-123 -33.5q-80 0 -121.5 34t-46.5 90z" />
    <glyph glyph-name="amacron" unicode="&#x101;" 
d="M232 -13q-56 0 -98.5 22.5t-65.5 60.5t-23 82q0 78 65 118t188 60q53 8 72 20t19 39q0 32 -26 48.5t-66 16.5q-51 0 -84.5 -27.5t-35.5 -72.5h-119q1 55 30.5 100.5t83 72t123.5 26.5q107 0 168 -47t61 -162v-344h-125v62q-23 -36 -65.5 -55.5t-101.5 -19.5zM278 237
q-53 -15 -72.5 -32t-19.5 -46q0 -33 24 -52t62 -19q57 0 89.5 27t32.5 84v73q-36 -14 -73 -23.5t-43 -11.5zM140 737h313v-95h-313v95z" />
    <glyph glyph-name="aogonek" unicode="&#x105;" 
d="M435 -73q0 -17 13.5 -25t34.5 -8q24 0 40 6v-82q-33 -6 -68 -6q-58 0 -93.5 21.5t-35.5 69.5q0 29 20 55t53 42v62q-23 -36 -65.5 -55.5t-101.5 -19.5q-56 0 -98.5 22.5t-65.5 60.5t-23 82q0 78 65 118t188 60q53 8 72 20t19 39q0 32 -26 48.5t-66 16.5
q-51 0 -84.5 -27.5t-35.5 -72.5h-119q1 55 30.5 100.5t83 72t123.5 26.5q107 0 168 -47t61 -162v-344q-48 -24 -68.5 -38.5t-20.5 -34.5zM394 272q-36 -14 -73 -23.5t-43 -11.5q-53 -15 -72.5 -32t-19.5 -46q0 -33 24 -52t62 -19q57 0 89.5 27t32.5 84v73z" />
    <glyph glyph-name="cacute" unicode="&#x107;" horiz-adv-x="603" 
d="M307 551q104 0 177 -59t93 -159h-141q-12 51 -45.5 77t-83.5 26q-66 0 -104 -47t-38 -120t38 -120t104 -47q50 0 83.5 26t45.5 77h141q-20 -100 -93 -159t-177 -59q-81 0 -145 36.5t-100 101t-36 144.5t36 144.5t100 101t145 36.5zM546 745l-159 -116h-171l155 116h175z
" />
    <glyph glyph-name="ccaron" unicode="&#x10d;" horiz-adv-x="603" 
d="M307 551q104 0 177 -59t93 -159h-141q-12 51 -45.5 77t-83.5 26q-66 0 -104 -47t-38 -120t38 -120t104 -47q50 0 83.5 26t45.5 77h141q-20 -100 -93 -159t-177 -59q-81 0 -145 36.5t-100 101t-36 144.5t36 144.5t100 101t145 36.5zM255 745l63 -44l63 44h144l-148 -116
h-119l-147 116h144z" />
    <glyph glyph-name="ccircumflex" unicode="&#x109;" horiz-adv-x="603" 
d="M307 551q104 0 177 -59t93 -159h-141q-12 51 -45.5 77t-83.5 26q-66 0 -104 -47t-38 -120t38 -120t104 -47q50 0 83.5 26t45.5 77h141q-20 -100 -93 -159t-177 -59q-81 0 -145 36.5t-100 101t-36 144.5t36 144.5t100 101t145 36.5zM378 629l-63 44l-63 -44h-144l147 116
h119l148 -116h-144z" />
    <glyph glyph-name="cdotaccent" unicode="&#x10b;" horiz-adv-x="603" 
d="M307 551q104 0 177 -59t93 -159h-141q-12 51 -45.5 77t-83.5 26q-66 0 -104 -47t-38 -120t38 -120t104 -47q50 0 83.5 26t45.5 77h141q-20 -100 -93 -159t-177 -59q-81 0 -145 36.5t-100 101t-36 144.5t36 144.5t100 101t145 36.5zM306 759q30 0 51 -20.5t21 -50.5
t-21 -51t-51 -21t-51 21t-21 51t21 50.5t51 20.5z" />
    <glyph glyph-name="dcaron" unicode="&#x10f;" horiz-adv-x="768" 
d="M283 551q47 0 93.5 -20t70.5 -58v272h138v-745h-138v65q-24 -38 -70.5 -58t-93.5 -20q-68 0 -127 35t-94.5 99.5t-35.5 147.5t35.5 147.5t94.5 99.5t127 35zM455 269q0 53 -19.5 92t-52.5 59.5t-73 20.5q-62 0 -102.5 -46t-40.5 -126t40.5 -126t102.5 -46q40 0 73 20.5
t52.5 59.5t19.5 92zM612 575l30 170h130l-70 -170h-90z" />
    <glyph glyph-name="dcroat" unicode="&#x111;" horiz-adv-x="665" 
d="M679 594h-94v-594h-138v65q-24 -38 -70.5 -58t-93.5 -20q-68 0 -127 35t-94.5 99.5t-35.5 147.5t35.5 147.5t94.5 99.5t127 35q47 0 93.5 -20t70.5 -58v121h-115v81h115v70h138v-70h94v-81zM455 269q0 53 -19.5 92t-52.5 59.5t-73 20.5q-62 0 -102.5 -46t-40.5 -126
t40.5 -126t102.5 -46q40 0 73 20.5t52.5 59.5t19.5 92z" />
    <glyph glyph-name="ebreve" unicode="&#x115;" horiz-adv-x="605" 
d="M132 745h97q7 -52 72 -52q67 0 73 52h97q-6 -57 -48 -90.5t-123 -33.5q-80 0 -121.5 34t-46.5 90zM579 231h-413q9 -57 48.5 -94t96.5 -37q47 0 76 18t46 57h140q-25 -87 -97 -137.5t-170 -50.5q-81 0 -144.5 36.5t-99.5 101t-36 144.5t36 144t99.5 101t144.5 37
q84 0 147 -40.5t96 -113t30 -166.5zM439 326q-6 57 -45 87.5t-91 30.5q-50 0 -87 -32t-47 -86h270z" />
    <glyph glyph-name="ecaron" unicode="&#x11b;" horiz-adv-x="605" 
d="M240 745l63 -44l63 44h144l-148 -116h-119l-147 116h144zM579 231h-413q9 -57 48.5 -94t96.5 -37q47 0 76 18t46 57h140q-25 -87 -97 -137.5t-170 -50.5q-81 0 -144.5 36.5t-99.5 101t-36 144.5t36 144t99.5 101t144.5 37q84 0 147 -40.5t96 -113t30 -166.5zM439 326
q-6 57 -45 87.5t-91 30.5q-50 0 -87 -32t-47 -86h270z" />
    <glyph glyph-name="emacron" unicode="&#x113;" horiz-adv-x="605" 
d="M146 737h313v-95h-313v95zM579 231h-413q9 -57 48.5 -94t96.5 -37q47 0 76 18t46 57h140q-25 -87 -97 -137.5t-170 -50.5q-81 0 -144.5 36.5t-99.5 101t-36 144.5t36 144t99.5 101t144.5 37q84 0 147 -40.5t96 -113t30 -166.5zM439 326q-6 57 -45 87.5t-91 30.5
q-50 0 -87 -32t-47 -86h270z" />
    <glyph glyph-name="eogonek" unicode="&#x119;" horiz-adv-x="605" 
d="M254 -97q0 20 11.5 43t40.5 41q-81 0 -144.5 36.5t-99.5 101t-36 144.5t36 144t99.5 101t144.5 37q84 0 147 -40.5t96 -113t30 -166.5h-414q10 -57 49.5 -94t96.5 -37q47 0 76 18t46 57h140q-21 -74 -84 -127l-23 -18q-43 -33 -68 -57.5t-25 -45.5q0 -16 13 -24.5
t32 -8.5q22 0 43 6v-82q-18 -4 -34 -5t-35 -1q-60 0 -99 22.5t-39 68.5zM439 326q-6 57 -45 87.5t-91 30.5q-50 0 -87.5 -32t-47.5 -86h271z" />
    <glyph glyph-name="edotaccent" unicode="&#x117;" horiz-adv-x="605" 
d="M303 759q30 0 51 -20.5t21 -50.5t-21 -51t-51 -21t-51 21t-21 51t21 50.5t51 20.5zM579 231h-413q9 -57 48.5 -94t96.5 -37q47 0 76 18t46 57h140q-25 -87 -97 -137.5t-170 -50.5q-81 0 -144.5 36.5t-99.5 101t-36 144.5t36 144t99.5 101t144.5 37q84 0 147 -40.5
t96 -113t30 -166.5zM439 326q-6 57 -45 87.5t-91 30.5q-50 0 -87 -32t-47 -86h270z" />
    <glyph glyph-name="gbreve" unicode="&#x11f;" horiz-adv-x="659" 
d="M194 -39q12 -30 42.5 -45t74.5 -15q142 0 142 131v43q-24 -38 -70 -57t-94 -19q-69 0 -128 33.5t-94 96.5t-35 146t35 146t94 96.5t128 33.5q48 0 94 -19t70 -57v63h138v-481q0 -140 -77 -202.5t-210 -62.5q-90 0 -158 43t-85 126h133zM316 441q-63 0 -103 -43.5
t-40 -122.5t40 -122.5t103 -43.5t104 43.5t41 122.5t-41 122.5t-104 43.5zM146 745h97q7 -52 72 -52q67 0 73 52h97q-6 -57 -48 -90.5t-123 -33.5q-80 0 -121.5 34t-46.5 90z" />
    <glyph glyph-name="gcircumflex" unicode="&#x11d;" horiz-adv-x="659" 
d="M194 -39q12 -30 42.5 -45t74.5 -15q142 0 142 131v43q-24 -38 -70 -57t-94 -19q-69 0 -128 33.5t-94 96.5t-35 146t35 146t94 96.5t128 33.5q48 0 94 -19t70 -57v63h138v-481q0 -140 -77 -202.5t-210 -62.5q-90 0 -158 43t-85 126h133zM316 441q-63 0 -103 -43.5
t-40 -122.5t40 -122.5t103 -43.5t104 43.5t41 122.5t-41 122.5t-104 43.5zM381 629l-63 44l-63 -44h-144l147 116h119l148 -116h-144z" />
    <glyph glyph-name="uni0123" unicode="&#x123;" horiz-adv-x="659" 
d="M325 753q20 -7 31.5 -24t11.5 -39q0 -27 -19.5 -47t-47.5 -20q-27 0 -46.5 20t-19.5 47q0 18 8.5 36t35.5 63l45 76h65zM194 -39q12 -30 42.5 -45t74.5 -15q142 0 142 131v43q-24 -38 -70 -57t-94 -19q-69 0 -128 33.5t-94 96.5t-35 146t35 146t94 96.5t128 33.5
q48 0 94 -19t70 -57v63h138v-481q0 -140 -77 -202.5t-210 -62.5q-90 0 -158 43t-85 126h133zM316 441q-63 0 -103 -43.5t-40 -122.5t40 -122.5t103 -43.5t104 43.5t41 122.5t-41 122.5t-104 43.5z" />
    <glyph glyph-name="gdotaccent" unicode="&#x121;" horiz-adv-x="659" 
d="M194 -39q12 -30 42.5 -45t74.5 -15q142 0 142 131v43q-24 -38 -70 -57t-94 -19q-69 0 -128 33.5t-94 96.5t-35 146t35 146t94 96.5t128 33.5q48 0 94 -19t70 -57v63h138v-481q0 -140 -77 -202.5t-210 -62.5q-90 0 -158 43t-85 126h133zM316 441q-63 0 -103 -43.5
t-40 -122.5t40 -122.5t103 -43.5t104 43.5t41 122.5t-41 122.5t-104 43.5zM311 759q30 0 51 -20.5t21 -50.5t-21 -51t-51 -21t-51 21t-21 51t21 50.5t51 20.5z" />
    <glyph glyph-name="hbar" unicode="&#x127;" horiz-adv-x="617" 
d="M557 340v-340h-138v317q0 63 -24.5 93t-68.5 30q-45 0 -71.5 -30.5t-26.5 -92.5v-317h-138v594h-104v81h104v70h138v-70h106v-81h-106v-121q23 41 60.5 59.5t89.5 18.5q91 0 135 -54.5t44 -156.5z" />
    <glyph glyph-name="hcircumflex" unicode="&#x125;" horiz-adv-x="595" 
d="M206 745v-272q23 41 60.5 59.5t89.5 18.5q91 0 135 -54.5t44 -156.5v-340h-138v317q0 63 -24.5 93t-68.5 30q-45 0 -71.5 -30.5t-26.5 -92.5v-317h-138v745h138zM423 629l-46 54l-46 -54h-111l107 116h99l108 -116h-111z" />
    <glyph glyph-name="dotlessi" unicode="&#x131;" horiz-adv-x="274" 
d="M206 538v-538h-138v538h138z" />
    <glyph glyph-name="ibreve" unicode="&#x12d;" horiz-adv-x="274" 
d="M206 538v-538h-138v538h138zM-31 745h97q7 -52 72 -52q67 0 73 52h97q-6 -57 -48 -90.5t-123 -33.5q-80 0 -121.5 34t-46.5 90z" />
    <glyph glyph-name="imacron" unicode="&#x12b;" horiz-adv-x="274" 
d="M206 538v-538h-138v538h138zM-18 737h313v-95h-313v95z" />
    <glyph glyph-name="iogonek" unicode="&#x12f;" horiz-adv-x="275" 
d="M119 -73q0 -16 13 -24.5t32 -8.5q22 0 43 6v-82q-18 -4 -34 -5t-35 -1q-60 0 -99 22.5t-39 68.5q0 29 18.5 54.5t50.5 42.5h138q-48 -23 -68 -38t-20 -35zM206 538v-538h-138v538h138zM220 692q0 -34 -24.5 -59t-58.5 -25t-58.5 25t-24.5 59t24.5 58.5t58.5 24.5
t58.5 -24.5t24.5 -58.5z" />
    <glyph glyph-name="itilde" unicode="&#x129;" horiz-adv-x="274" 
d="M206 538v-538h-138v538h138zM342 745q-12 -78 -49.5 -102.5t-83.5 -24.5q-23 0 -40 6.5t-41 19.5q-19 10 -28.5 14t-21.5 4q-41 0 -49 -44h-95q12 78 49.5 102.5t83.5 24.5q23 0 40 -6.5t37 -18.5q17 -10 28 -14.5t25 -4.5q42 0 50 44h95z" />
    <glyph glyph-name="uni1ECB" unicode="&#x1ecb;" horiz-adv-x="275" 
d="M137 -46q30 0 51 -20.5t21 -50.5t-21 -51t-51 -21t-51 21t-21 51t21 50.5t51 20.5zM206 538v-538h-138v538h138zM220 692q0 -34 -24.5 -59t-58.5 -25t-58.5 25t-24.5 59t24.5 58.5t58.5 24.5t58.5 -24.5t24.5 -58.5z" />
    <glyph glyph-name="uni0237" unicode="&#x237;" horiz-adv-x="277" 
d="M-39 -86q21 -3 37 -3q40 0 56.5 21.5t16.5 77.5v528h138v-524q0 -119 -44.5 -167t-136.5 -48q-35 0 -67 4v111z" />
    <glyph glyph-name="jcircumflex" unicode="&#x135;" horiz-adv-x="276" 
d="M-39 -86q21 -3 37 -3q40 0 56.5 21.5t16.5 77.5v528h138v-524q0 -119 -44.5 -167t-136.5 -48q-35 0 -67 4v111zM201 629l-63 44l-63 -44h-144l147 116h119l148 -116h-144z" />
    <glyph glyph-name="uni0137" unicode="&#x137;" horiz-adv-x="589" 
d="M428 0l-222 226v-226h-138v745h138v-436l204 229h157l-233 -257l264 -281h-170zM280 -205q-20 7 -31.5 24t-11.5 39q0 27 19.5 47t47.5 20q27 0 46.5 -20t19.5 -47q0 -18 -8.5 -36t-35.5 -63l-45 -76h-65z" />
    <glyph glyph-name="lacute" unicode="&#x13a;" horiz-adv-x="274" 
d="M206 745v-745h-138v745h138zM36 803l148 113h176l-157 -113h-167z" />
    <glyph glyph-name="lcaron" unicode="&#x13e;" horiz-adv-x="393" 
d="M206 745v-745h-138v745h138zM237 575l30 170h130l-70 -170h-90z" />
    <glyph glyph-name="uni013C" unicode="&#x13c;" horiz-adv-x="274" 
d="M206 745v-745h-138v745h138zM117 -205q-20 7 -31.5 24t-11.5 39q0 27 19.5 47t47.5 20q27 0 46.5 -20t19.5 -47q0 -18 -8.5 -36t-35.5 -63l-45 -76h-65z" />
    <glyph glyph-name="ldot" unicode="&#x140;" horiz-adv-x="389" 
d="M206 745v-745h-138v745h138zM325 513q30 0 51 -20.5t21 -50.5t-21 -51t-51 -21t-51 21t-21 51t21 50.5t51 20.5z" />
    <glyph glyph-name="lslash" unicode="&#x142;" horiz-adv-x="316" 
d="M300 411l-73 -41v-370h-138v291l-73 -41v112l73 41v342h138v-263l73 41v-112z" />
    <glyph glyph-name="nacute" unicode="&#x144;" horiz-adv-x="595" 
d="M206 538v-65q23 41 60.5 59.5t89.5 18.5q91 0 135 -54.5t44 -156.5v-340h-138v317q0 63 -24.5 93t-68.5 30q-45 0 -71.5 -30.5t-26.5 -92.5v-317h-138v538h138zM562 745l-159 -116h-171l155 116h175z" />
    <glyph glyph-name="ncaron" unicode="&#x148;" horiz-adv-x="595" 
d="M206 538v-65q23 41 60.5 59.5t89.5 18.5q91 0 135 -54.5t44 -156.5v-340h-138v317q0 63 -24.5 93t-68.5 30q-45 0 -71.5 -30.5t-26.5 -92.5v-317h-138v538h138zM255 745l63 -44l63 44h144l-148 -116h-119l-147 116h144z" />
    <glyph glyph-name="uni0146" unicode="&#x146;" horiz-adv-x="595" 
d="M206 538v-65q23 41 60.5 59.5t89.5 18.5q91 0 135 -54.5t44 -156.5v-340h-138v317q0 63 -24.5 93t-68.5 30q-45 0 -71.5 -30.5t-26.5 -92.5v-317h-138v538h138zM277 -205q-20 7 -31.5 24t-11.5 39q0 27 19.5 47t47.5 20q27 0 46.5 -20t19.5 -47q0 -18 -8.5 -36t-35.5 -63
l-45 -76h-65z" />
    <glyph glyph-name="oe" unicode="&#x153;" horiz-adv-x="1028" 
d="M1002 231h-414q10 -57 49.5 -94t96.5 -37q47 0 76 18t46 57h140q-25 -87 -97 -137.5t-170 -50.5q-65 0 -118 24.5t-89 68.5q-37 -44 -90.5 -68.5t-119.5 -24.5q-82 0 -147 36t-102 100t-37 146q0 81 37 145.5t102 100.5t147 36q66 0 119.5 -24.5t90.5 -68.5
q36 44 89 68.5t118 24.5q84 0 147 -40.5t96 -113t30 -166.5zM862 326q-6 57 -45 87.5t-91 30.5q-50 0 -87.5 -32t-47.5 -86h271zM459 269q0 73 -40.5 120t-106.5 47q-67 0 -107.5 -47t-40.5 -120t40.5 -120t107.5 -47q66 0 106.5 47t40.5 120z" />
    <glyph glyph-name="obreve" unicode="&#x14f;" horiz-adv-x="624" 
d="M143 745h97q7 -52 72 -52q67 0 73 52h97q-6 -57 -48 -90.5t-123 -33.5q-80 0 -121.5 34t-46.5 90zM26 269q0 82 37 146t102 100t147 36t147 -36t102 -100t37 -146t-37 -146t-102 -100t-147 -36t-147 36t-102 100t-37 146zM166 269q0 -73 40 -120t106 -47t106 47t40 120
t-40 120t-106 47t-106 -47t-40 -120z" />
    <glyph glyph-name="ohungarumlaut" unicode="&#x151;" horiz-adv-x="624" 
d="M26 269q0 82 37 146t102 100t147 36t147 -36t102 -100t37 -146t-37 -146t-102 -100t-147 -36t-147 36t-102 100t-37 146zM166 269q0 -73 40 -120t106 -47t106 47t40 120t-40 120t-106 47t-106 -47t-40 -120zM445 745l-159 -116h-171l155 116h175zM675 745l-159 -116h-171
l155 116h175z" />
    <glyph glyph-name="omacron" unicode="&#x14d;" horiz-adv-x="624" 
d="M155 737h313v-95h-313v95zM26 269q0 82 37 146t102 100t147 36t147 -36t102 -100t37 -146t-37 -146t-102 -100t-147 -36t-147 36t-102 100t-37 146zM166 269q0 -73 40 -120t106 -47t106 47t40 120t-40 120t-106 47t-106 -47t-40 -120z" />
    <glyph glyph-name="uni1ECD" unicode="&#x1ecd;" horiz-adv-x="624" 
d="M26 269q0 82 37 146t102 100t147 36t147 -36t102 -100t37 -146t-37 -146t-102 -100t-147 -36t-147 36t-102 100t-37 146zM166 269q0 -73 40 -120t106 -47t106 47t40 120t-40 120t-106 47t-106 -47t-40 -120zM308 -46q30 0 51 -20.5t21 -50.5t-21 -51t-51 -21t-51 21
t-21 51t21 50.5t51 20.5z" />
    <glyph glyph-name="racute" unicode="&#x155;" horiz-adv-x="391" 
d="M204 538v-99q47 99 151 99q10 0 30 -2v-129h-52q-66 0 -96.5 -26.5t-30.5 -98.5v-282h-138v538h136zM466 745l-159 -116h-171l155 116h175z" />
    <glyph glyph-name="rcaron" unicode="&#x159;" horiz-adv-x="391" 
d="M204 538v-99q47 99 151 99q10 0 30 -2v-129h-52q-66 0 -96.5 -26.5t-30.5 -98.5v-282h-138v538h136zM160 745l63 -44l63 44h144l-148 -116h-119l-147 116h144z" />
    <glyph glyph-name="uni0157" unicode="&#x157;" horiz-adv-x="391" 
d="M204 538v-99q47 99 151 99q10 0 30 -2v-129h-52q-66 0 -96.5 -26.5t-30.5 -98.5v-282h-138v538h136zM115 -205q-20 7 -31.5 24t-11.5 39q0 27 19.5 47t47.5 20q27 0 46.5 -20t19.5 -47q0 -18 -8.5 -36t-35.5 -63l-45 -76h-65z" />
    <glyph glyph-name="sacute" unicode="&#x15b;" horiz-adv-x="545" 
d="M166 177q18 -87 117 -87q40 0 67.5 16t27.5 43q0 28 -22 44t-66 24l-68 12q-80 14 -128.5 56.5t-48.5 109.5q0 46 29 82.5t78 57t107 20.5q93 0 157 -40t77 -135h-125q-19 75 -109 75q-38 0 -63 -15.5t-25 -40.5q0 -48 75 -62l63 -11q93 -17 146 -54.5t53 -109.5
q0 -54 -30.5 -94t-82.5 -60.5t-115 -20.5q-100 0 -165 46.5t-79 143.5h130zM516 745l-159 -116h-171l155 116h175z" />
    <glyph glyph-name="scaron" unicode="&#x161;" horiz-adv-x="545" 
d="M166 177q18 -87 117 -87q40 0 67.5 16t27.5 43q0 28 -22 44t-66 24l-68 12q-80 14 -128.5 56.5t-48.5 109.5q0 46 29 82.5t78 57t107 20.5q93 0 157 -40t77 -135h-125q-19 75 -109 75q-38 0 -63 -15.5t-25 -40.5q0 -48 75 -62l63 -11q93 -17 146 -54.5t53 -109.5
q0 -54 -30.5 -94t-82.5 -60.5t-115 -20.5q-100 0 -165 46.5t-79 143.5h130zM209 745l63 -44l63 44h144l-148 -116h-119l-147 116h144z" />
    <glyph glyph-name="scedilla" unicode="&#x15f;" horiz-adv-x="545" 
d="M166 177q18 -87 117 -87q40 0 67.5 16t27.5 43q0 28 -22 44t-66 24l-68 12q-80 14 -128.5 56.5t-48.5 109.5q0 46 29 82.5t78 57t107 20.5q93 0 157 -40t77 -135h-125q-19 75 -109 75q-38 0 -63 -15.5t-25 -40.5q0 -48 75 -62l63 -11q93 -17 146 -54.5t53 -109.5
q0 -54 -30.5 -94t-82.5 -60.5t-115 -20.5q-100 0 -165 46.5t-79 143.5h130zM241 -145q24 0 40 7t16 22q0 13 -11 20.5t-29 7.5q-25 0 -38 -9l-30 17l51 83h53l-32 -51q18 3 40 3q33 -1 55 -20t22 -48q0 -38 -34.5 -60t-81.5 -22q-57 0 -96 19l17 45q26 -14 58 -14z" />
    <glyph glyph-name="scircumflex" unicode="&#x15d;" horiz-adv-x="545" 
d="M166 177q18 -87 117 -87q40 0 67.5 16t27.5 43q0 28 -22 44t-66 24l-68 12q-80 14 -128.5 56.5t-48.5 109.5q0 46 29 82.5t78 57t107 20.5q93 0 157 -40t77 -135h-125q-19 75 -109 75q-38 0 -63 -15.5t-25 -40.5q0 -48 75 -62l63 -11q93 -17 146 -54.5t53 -109.5
q0 -54 -30.5 -94t-82.5 -60.5t-115 -20.5q-100 0 -165 46.5t-79 143.5h130zM322 629l-63 44l-63 -44h-144l147 116h119l148 -116h-144z" />
    <glyph glyph-name="uni0219" unicode="&#x219;" horiz-adv-x="545" 
d="M166 177q18 -87 117 -87q40 0 67.5 16t27.5 43q0 28 -22 44t-66 24l-68 12q-80 14 -128.5 56.5t-48.5 109.5q0 46 29 82.5t78 57t107 20.5q93 0 157 -40t77 -135h-125q-19 75 -109 75q-38 0 -63 -15.5t-25 -40.5q0 -48 75 -62l63 -11q93 -17 146 -54.5t53 -109.5
q0 -54 -30.5 -94t-82.5 -60.5t-115 -20.5q-100 0 -165 46.5t-79 143.5h130zM242 -205q-20 7 -31.5 24t-11.5 39q0 27 19.5 47t47.5 20q27 0 46.5 -20t19.5 -47q0 -18 -8.5 -36t-35.5 -63l-45 -76h-65z" />
    <glyph glyph-name="tcaron" unicode="&#x165;" horiz-adv-x="395" 
d="M322 595l30 150h130l-70 -150h-90zM92 437h-86v101h86v114l138 88v-202h122v-101h-122v-207q0 -64 17 -96.5t68 -32.5q8 0 36 4v-112q-28 -6 -75 -6q-92 0 -138 54t-46 172v224z" />
    <glyph glyph-name="uni0163" unicode="&#x163;" horiz-adv-x="388" 
d="M92 437h-86v101h86v114l138 88v-202h122v-101h-122v-207q0 -64 17 -96.5t68 -32.5q8 0 36 4v-112q-28 -6 -75 -6q-92 0 -138 54t-46 172v224zM154 -205q-20 7 -31.5 24t-11.5 39q0 27 19.5 47t47.5 20q27 0 46.5 -20t19.5 -47q0 -18 -8.5 -36t-35.5 -63l-45 -76h-65z" />
    <glyph glyph-name="uni021B" unicode="&#x21b;" horiz-adv-x="388" 
d="M92 437h-86v101h86v114l138 88v-202h122v-101h-122v-207q0 -64 17 -96.5t68 -32.5q8 0 36 4v-112q-28 -6 -75 -6q-92 0 -138 54t-46 172v224zM154 -205q-20 7 -31.5 24t-11.5 39q0 27 19.5 47t47.5 20q27 0 46.5 -20t19.5 -47q0 -18 -8.5 -36t-35.5 -63l-45 -76h-65z" />
    <glyph glyph-name="ubreve" unicode="&#x16d;" horiz-adv-x="608" 
d="M60 221v317h138v-309q0 -64 27 -95q26 -32 79 -32t79 32q27 32 27 95v309h138v-317q0 -65 -16.5 -109.5t-50.5 -72.5q-61 -52 -177 -52t-177 52q-34 28 -50.5 72.5t-16.5 109.5zM134 745h97q7 -52 72 -52q67 0 73 52h97q-6 -57 -48 -90.5t-123 -33.5q-80 0 -121.5 34
t-46.5 90z" />
    <glyph glyph-name="uhungarumlaut" unicode="&#x171;" horiz-adv-x="608" 
d="M60 221v317h138v-309q0 -64 27 -95q26 -32 79 -32t79 32q27 32 27 95v309h138v-317q0 -65 -16.5 -109.5t-50.5 -72.5q-61 -52 -177 -52t-177 52q-34 28 -50.5 72.5t-16.5 109.5zM423 745l-159 -116h-171l155 116h175zM653 745l-159 -116h-171l155 116h175z" />
    <glyph glyph-name="umacron" unicode="&#x16b;" horiz-adv-x="608" 
d="M60 221v317h138v-309q0 -64 27 -95q26 -32 79 -32t79 32q27 32 27 95v309h138v-317q0 -65 -16.5 -109.5t-50.5 -72.5q-61 -52 -177 -52t-177 52q-34 28 -50.5 72.5t-16.5 109.5zM147 737h313v-95h-313v95z" />
    <glyph glyph-name="uogonek" unicode="&#x173;" horiz-adv-x="608" 
d="M60 221v317h138v-309q0 -64 27 -95q26 -32 79 -32t79 32q27 32 27 95v309h138v-317q0 -65 -16.5 -109.5t-50.5 -72.5q-61 -52 -177 -52t-177 52q-34 28 -50.5 72.5t-16.5 109.5zM299 -73q0 -16 13 -24.5t32 -8.5q22 0 43 6v-82q-18 -4 -34 -5t-35 -1q-60 0 -99 22.5
t-39 68.5q0 29 18.5 54.5t50.5 42.5h138q-48 -23 -68 -38t-20 -35z" />
    <glyph glyph-name="uring" unicode="&#x16f;" horiz-adv-x="608" 
d="M60 221v317h138v-309q0 -64 27 -95q26 -32 79 -32t79 32q27 32 27 95v309h138v-317q0 -65 -16.5 -109.5t-50.5 -72.5q-61 -52 -177 -52t-177 52q-34 28 -50.5 72.5t-16.5 109.5zM304 607q-40 0 -67.5 25.5t-27.5 63.5t27.5 63.5t67.5 25.5q39 0 66.5 -25.5t27.5 -63.5
t-27.5 -63.5t-66.5 -25.5zM304 656q17 0 29 11.5t12 28.5q0 18 -12 29.5t-29 11.5t-29 -11.5t-12 -29.5q0 -17 12 -28.5t29 -11.5z" />
    <glyph glyph-name="utilde" unicode="&#x169;" horiz-adv-x="608" 
d="M60 221v317h138v-309q0 -64 27 -95q26 -32 79 -32t79 32q27 32 27 95v309h138v-317q0 -65 -16.5 -109.5t-50.5 -72.5q-61 -52 -177 -52t-177 52q-34 28 -50.5 72.5t-16.5 109.5zM517 745q-12 -78 -49.5 -102.5t-83.5 -24.5q-23 0 -40 6.5t-41 19.5q-19 10 -28.5 14
t-21.5 4q-41 0 -49 -44h-95q12 78 49.5 102.5t83.5 24.5q23 0 40 -6.5t37 -18.5q17 -10 28 -14.5t25 -4.5q42 0 50 44h95z" />
    <glyph glyph-name="uni1EE5" unicode="&#x1ee5;" horiz-adv-x="608" 
d="M60 221v317h138v-309q0 -64 27 -95q26 -32 79 -32t79 32q27 32 27 95v309h138v-317q0 -65 -16.5 -109.5t-50.5 -72.5q-61 -52 -177 -52t-177 52q-34 28 -50.5 72.5t-16.5 109.5zM303 -46q30 0 51 -20.5t21 -50.5t-21 -51t-51 -21t-51 21t-21 51t21 50.5t51 20.5z" />
    <glyph glyph-name="wacute" unicode="&#x1e83;" horiz-adv-x="746" 
d="M143 538l72 -372l84 372h147l85 -371l72 371h137l-127 -538h-142l-98 408l-99 -408h-142l-126 538h137zM617 745l-159 -116h-171l155 116h175z" />
    <glyph glyph-name="wcircumflex" unicode="&#x175;" horiz-adv-x="746" 
d="M143 538l72 -372l84 372h147l85 -371l72 371h137l-127 -538h-142l-98 408l-99 -408h-142l-126 538h137zM436 629l-63 44l-63 -44h-144l147 116h119l148 -116h-144z" />
    <glyph glyph-name="wdieresis" unicode="&#x1e85;" horiz-adv-x="746" 
d="M143 538l72 -372l84 372h147l85 -371l72 371h137l-127 -538h-142l-98 408l-99 -408h-142l-126 538h137zM253 759q30 0 51 -20.5t21 -50.5t-21 -51t-51 -21t-51 21t-21 51t21 50.5t51 20.5zM494 759q30 0 51 -20.5t21 -50.5t-21 -51t-51 -21t-51 21t-21 51t21 50.5
t51 20.5z" />
    <glyph glyph-name="wgrave" unicode="&#x1e81;" horiz-adv-x="746" 
d="M143 538l72 -372l84 372h147l85 -371l72 371h137l-127 -538h-142l-98 408l-99 -408h-142l-126 538h137zM312 745l155 -116h-171l-159 116h175z" />
    <glyph glyph-name="ycircumflex" unicode="&#x177;" horiz-adv-x="565" 
d="M6 538h151l126 -364l136 364h140l-293 -733h-140l82 207zM338 629l-63 44l-63 -44h-144l147 116h119l148 -116h-144z" />
    <glyph glyph-name="ygrave" unicode="&#x1ef3;" horiz-adv-x="565" 
d="M6 538h151l126 -364l136 364h140l-293 -733h-140l82 207zM224 745l155 -116h-171l-159 116h175z" />
    <glyph glyph-name="uni0233" unicode="&#x233;" horiz-adv-x="565" 
d="M6 538h151l126 -364l136 364h140l-293 -733h-140l82 207zM119 737h313v-95h-313v95z" />
    <glyph glyph-name="zacute" unicode="&#x17a;" horiz-adv-x="528" 
d="M319 429h-267v109h432v-109l-283 -320h291v-109h-456v109zM500 745l-159 -116h-171l155 116h175z" />
    <glyph glyph-name="zcaron" unicode="&#x17e;" horiz-adv-x="528" 
d="M319 429h-267v109h432v-109l-283 -320h291v-109h-456v109zM213 745l63 -44l63 44h144l-148 -116h-119l-147 116h144z" />
    <glyph glyph-name="zdotaccent" unicode="&#x17c;" horiz-adv-x="528" 
d="M319 429h-267v109h432v-109l-283 -320h291v-109h-456v109zM266 759q30 0 51 -20.5t21 -50.5t-21 -51t-51 -21t-51 21t-21 51t21 50.5t51 20.5z" />
    <glyph glyph-name="ellipsis" unicode="&#x2026;" horiz-adv-x="798" 
d="M137 177q40 0 67.5 -27.5t27.5 -67.5t-27.5 -67.5t-67.5 -27.5t-67.5 27.5t-27.5 67.5t27.5 67.5t67.5 27.5zM399 177q40 0 67.5 -27.5t27.5 -67.5t-27.5 -67.5t-67.5 -27.5t-67.5 27.5t-27.5 67.5t27.5 67.5t67.5 27.5zM661 177q40 0 67.5 -27.5t27.5 -67.5t-27.5 -67.5
t-67.5 -27.5t-67.5 27.5t-27.5 67.5t27.5 67.5t67.5 27.5z" />
    <glyph glyph-name="endash" unicode="&#x2013;" horiz-adv-x="548" 
d="M498 327v-120h-448v120h448z" />
    <glyph glyph-name="emdash" unicode="&#x2014;" horiz-adv-x="764" 
d="M714 327v-120h-664v120h664z" />
    <glyph glyph-name="guilsinglleft" unicode="&#x2039;" horiz-adv-x="356" 
d="M195 502h125l-125 -229l125 -230h-125l-159 230z" />
    <glyph glyph-name="guilsinglright" unicode="&#x203a;" horiz-adv-x="356" 
d="M161 273l-125 229h125l159 -229l-159 -230h-125z" />
    <glyph glyph-name="quoteleft" unicode="&#x2018;" horiz-adv-x="303" 
d="M171 587q27 -10 44 -34.5t17 -54.5q0 -40 -27.5 -67.5t-67.5 -27.5t-67.5 27.5t-27.5 67.5q0 25 11.5 50t51.5 90l65 107h91z" />
    <glyph glyph-name="quoteright" unicode="&#x2019;" horiz-adv-x="303" 
d="M132 573q-27 10 -44 34.5t-17 54.5q0 40 27.5 67.5t67.5 27.5t67.5 -27.5t27.5 -67.5q0 -25 -11.5 -50t-51.5 -90l-65 -107h-91z" />
    <glyph glyph-name="quotedblleft" unicode="&#x201c;" horiz-adv-x="530" 
d="M171 587q27 -10 44 -34.5t17 -54.5q0 -40 -27.5 -67.5t-67.5 -27.5t-67.5 27.5t-27.5 67.5q0 25 11.5 50t51.5 90l65 107h91zM398 587q27 -10 44 -34.5t17 -54.5q0 -40 -27.5 -67.5t-67.5 -27.5t-67.5 27.5t-27.5 67.5q0 25 11.5 50t51.5 90l65 107h91z" />
    <glyph glyph-name="quotedblright" unicode="&#x201d;" horiz-adv-x="530" 
d="M132 573q-27 10 -44 34.5t-17 54.5q0 40 27.5 67.5t67.5 27.5t67.5 -27.5t27.5 -67.5q0 -25 -11.5 -50t-51.5 -90l-65 -107h-91zM359 573q-27 10 -44 34.5t-17 54.5q0 40 27.5 67.5t67.5 27.5t67.5 -27.5t27.5 -67.5q0 -25 -11.5 -50t-51.5 -90l-65 -107h-91z" />
    <glyph glyph-name="quotesinglbase" unicode="&#x201a;" horiz-adv-x="274" 
d="M103 -7q-27 10 -44 34.5t-17 54.5q0 40 27.5 67.5t67.5 27.5t67.5 -27.5t27.5 -67.5q0 -25 -11.5 -50t-51.5 -90l-65 -107h-91z" />
    <glyph glyph-name="quotedblbase" unicode="&#x201e;" horiz-adv-x="504" 
d="M103 -7q-27 10 -44 34.5t-17 54.5q0 40 27.5 67.5t67.5 27.5t67.5 -27.5t27.5 -67.5q0 -25 -11.5 -50t-51.5 -90l-65 -107h-91zM333 -7q-27 10 -44 34.5t-17 54.5q0 40 27.5 67.5t67.5 27.5t67.5 -27.5t27.5 -67.5q0 -25 -11.5 -50t-51.5 -90l-65 -107h-91z" />
    <glyph glyph-name="bullet" unicode="&#x2022;" horiz-adv-x="390" 
d="M195 377q44 0 74.5 -30.5t30.5 -74.5t-30.5 -74.5t-74.5 -30.5q-43 0 -74 31t-31 74q0 44 31 74.5t74 30.5z" />
    <glyph glyph-name="minus" unicode="&#x2212;" horiz-adv-x="690" 
d="M77 442h535v-120h-535v120z" />
    <glyph glyph-name="Euro" unicode="&#x20ac;" horiz-adv-x="771" 
d="M601 241h123q-17 -122 -96.5 -188t-199.5 -66q-117 0 -195 67t-104 190h-134l54 82h68q-1 15 -1 45v20h-121l54 81h75q22 135 101.5 210t202.5 75q120 0 199.5 -66t96.5 -188h-123q-28 141 -173 141q-78 0 -121 -47t-58 -125h273l-54 -81h-228v-20q0 -30 2 -45h194
l-54 -82h-127q39 -145 173 -145q145 0 173 142z" />
    <glyph glyph-name="uniFB01" unicode="&#xfb01;" horiz-adv-x="604" 
d="M6 437v101h85v8q0 101 52 155t149 54q23 0 58 -5v-111q-13 2 -36 2q-45 0 -65 -21.5t-20 -73.5v-8h118v-101h-118v-437h-138v437h-85zM535 538v-538h-138v538h138zM549 692q0 -34 -24.5 -59t-58.5 -25t-58.5 25t-24.5 59t24.5 58.5t58.5 24.5t58.5 -24.5t24.5 -58.5z" />
    <glyph glyph-name="uniFB02" unicode="&#xfb02;" horiz-adv-x="604" 
d="M6 437v101h85v8q0 101 52 155t149 54q23 0 58 -5v-111q-13 2 -36 2q-45 0 -65 -21.5t-20 -73.5v-8h118v-101h-118v-437h-138v437h-85zM535 745v-745h-138v745h138z" />
    <glyph glyph-name="glyph327" horiz-adv-x="274" 
d="M220 692q0 -34 -24.5 -59t-58.5 -25t-58.5 25t-24.5 59t24.5 58.5t58.5 24.5t58.5 -24.5t24.5 -58.5z" />
    <glyph glyph-name="breve" unicode="&#x2d8;" horiz-adv-x="395" 
d="M28 745h97q7 -52 72 -52q67 0 73 52h97q-6 -57 -48 -90.5t-123 -33.5q-80 0 -121.5 34t-46.5 90z" />
    <glyph glyph-name="caron" unicode="&#x2c7;" horiz-adv-x="450" 
d="M162 745l63 -44l63 44h144l-148 -116h-119l-147 116h144z" />
    <glyph glyph-name="circumflex" unicode="&#x2c6;" horiz-adv-x="450" 
d="M288 629l-63 44l-63 -44h-144l147 116h119l148 -116h-144z" />
    <glyph glyph-name="dotaccent" unicode="&#x2d9;" horiz-adv-x="170" 
d="M85 759q30 0 51 -20.5t21 -50.5t-21 -51t-51 -21t-51 21t-21 51t21 50.5t51 20.5z" />
    <glyph glyph-name="glyph332" horiz-adv-x="170" 
d="M85 -46q30 0 51 -20.5t21 -50.5t-21 -51t-51 -21t-51 21t-21 51t21 50.5t51 20.5z" />
    <glyph glyph-name="hungarumlaut" unicode="&#x2dd;" horiz-adv-x="501" 
d="M323 745l-159 -116h-171l155 116h175zM553 745l-159 -116h-171l155 116h175z" />
    <glyph glyph-name="ogonek" unicode="&#x2db;" horiz-adv-x="276" 
d="M147 -73q0 -16 13 -24.5t32 -8.5q22 0 43 6v-82q-18 -4 -34 -5t-35 -1q-60 0 -99 22.5t-39 68.5q0 29 18.5 54.5t50.5 42.5h138q-48 -23 -68 -38t-20 -35z" />
    <glyph glyph-name="ring" unicode="&#x2da;" horiz-adv-x="245" 
d="M123 607q-40 0 -67.5 25.5t-27.5 63.5t27.5 63.5t67.5 25.5q39 0 66.5 -25.5t27.5 -63.5t-27.5 -63.5t-66.5 -25.5zM123 656q17 0 29 11.5t12 28.5q0 18 -12 29.5t-29 11.5t-29 -11.5t-12 -29.5q0 -17 12 -28.5t29 -11.5z" />
    <glyph glyph-name="tilde" unicode="&#x2dc;" horiz-adv-x="464" 
d="M436 745q-12 -78 -49.5 -102.5t-83.5 -24.5q-23 0 -40 6.5t-41 19.5q-19 10 -28.5 14t-21.5 4q-41 0 -49 -44h-95q12 78 49.5 102.5t83.5 24.5q23 0 40 -6.5t37 -18.5q17 -10 28 -14.5t25 -4.5q42 0 50 44h95z" />
    <glyph glyph-name="glyph337" horiz-adv-x="512" 
d="M228 575l30 170h130l-70 -170h-90z" />
    <glyph glyph-name="glyph338" horiz-adv-x="0" 
d="M-103 -205q-20 7 -31.5 24t-11.5 39q0 27 19.5 47t47.5 20q27 0 46.5 -20t19.5 -47q0 -18 -8.5 -36t-35.5 -63l-45 -76h-65z" />
    <glyph glyph-name="glyph339" horiz-adv-x="328" 
d="M-17 803l148 113h176l-157 -113h-167z" />
    <glyph glyph-name="glyph340" horiz-adv-x="395" 
d="M196 799q-159 0 -168 117h97q3 -24 20 -35t52 -11t52.5 11t20.5 35h97q-6 -60 -49 -88.5t-122 -28.5z" />
    <glyph glyph-name="glyph341" horiz-adv-x="452" 
d="M161 916l66 -49l63 49h147l-137 -113h-145l-140 113h146z" />
    <glyph glyph-name="glyph342" horiz-adv-x="268" 
d="M103 -144q24 0 40 7t16 22q0 13 -11 20.5t-29 7.5q-25 0 -38 -9l-30 17l51 83h53l-32 -51q18 3 40 3q33 -1 55 -20t22 -48q0 -38 -34.5 -60t-81.5 -22q-57 0 -96 19l17 45q26 -14 58 -14z" />
    <glyph glyph-name="glyph343" horiz-adv-x="452" 
d="M290 803l-63 49l-66 -49h-146l140 113h145l137 -113h-147z" />
    <glyph glyph-name="glyph344" horiz-adv-x="411" 
d="M85 932q30 0 51 -20.5t21 -50.5t-21 -51t-51 -21t-51 21t-21 51t21 50.5t51 20.5zM326 932q30 0 51 -20.5t21 -50.5t-21 -51t-51 -21t-51 21t-21 51t21 50.5t51 20.5z" />
    <glyph glyph-name="glyph345" horiz-adv-x="199" 
d="M100 932q30 0 51 -20.5t21 -50.5t-21 -51t-51 -21t-51 21t-21 51t21 50.5t51 20.5z" />
    <glyph glyph-name="glyph346" horiz-adv-x="328" 
d="M321 803h-167l-157 113h176z" />
    <glyph glyph-name="glyph347" horiz-adv-x="518" 
d="M-3 803l148 113h176l-157 -113h-167zM219 803l148 113h176l-157 -113h-167z" />
    <glyph glyph-name="glyph348" horiz-adv-x="369" 
d="M28 907h313v-95h-313v95z" />
    <glyph glyph-name="glyph349" horiz-adv-x="268" 
d="M147 -72q0 -34 45 -34q20 0 48 8v-82q-35 -8 -74 -8q-59 0 -98.5 23t-39.5 69q0 29 18.5 54t50.5 42h143q-50 -24 -71.5 -39t-21.5 -33z" />
    <glyph glyph-name="glyph350" horiz-adv-x="237" 
d="M118 795q-38 0 -64 24.5t-26 60.5q0 37 26.5 61t63.5 24q38 0 64.5 -24t26.5 -61t-26 -61t-65 -24zM118 838q18 0 30.5 12t12.5 30t-12.5 30.5t-30.5 12.5q-17 0 -30 -12.5t-13 -30.5t13 -30t30 -12z" />
    <glyph glyph-name="glyph351" horiz-adv-x="458" 
d="M430 923q-12 -72 -52.5 -99.5t-83.5 -27.5q-23 0 -40 6.5t-37 17.5q-16 9 -26 13t-21 4q-40 0 -48 -41h-94q12 73 52.5 100t84.5 27q23 0 38 -6t35 -17q14 -9 25 -13t24 -4q40 0 50 40h93z" />
    </font>
</defs>
</svg>
