<?xml version="1.0" standalone="no"?>
<!DOCTYPE svg PUBLIC "-//W3C//DTD SVG 1.1//EN" "https://www.w3.org/Graphics/SVG/1.1/DTD/svg11.dtd" >
<svg xmlns="https://www.w3.org/2000/svg" xmlns:xlink="https://www.w3.org/1999/xlink" version="1.1">
<metadata>
Created by Christoph Koeberlin (http://christoph.koe.berlin)
Copyright (c) 2016 Swiss Typefaces Sarl. All rights reserved.
</metadata>
<defs>
<font id="Font" horiz-adv-x="588" >
  <font-face 
    font-family="Font"
    font-weight="400"
    font-stretch="normal"
    units-per-em="1000"
    panose-1="2 11 5 4 0 0 0 0 0 0"
    ascent="800"
    descent="-200"
    x-height="538"
    cap-height="745"
    bbox="-155 -283 1131 965"
    underline-thickness="80"
    underline-position="-98"
    unicode-range="U+000D-FB02"
  />
<missing-glyph horiz-adv-x="514" 
 />
    <glyph glyph-name=".notdef" horiz-adv-x="514" 
 />
    <glyph glyph-name="glyph1" horiz-adv-x="0" 
 />
    <glyph glyph-name="uni000D" unicode="&#xd;" horiz-adv-x="240" 
 />
    <glyph glyph-name="space" unicode=" " horiz-adv-x="240" 
 />
    <glyph glyph-name="exclam" unicode="!" horiz-adv-x="330" 
d="M217 745v-512h-104v512h104zM165 143q32 0 55 -22.5t23 -55.5t-23 -55.5t-55 -22.5q-33 0 -55.5 22.5t-22.5 55.5t22.5 55.5t55.5 22.5z" />
    <glyph glyph-name="quotedbl" unicode="&#x22;" horiz-adv-x="364" 
d="M39 745h113l-16 -250h-82zM212 745h113l-16 -250h-82z" />
    <glyph glyph-name="numbersign" unicode="#" horiz-adv-x="716" 
d="M541 457l-22 -160h136l-10 -85h-138l-29 -212h-96l29 212h-152l-29 -212h-96l29 212h-138l12 85h138l22 160h-137l10 86h138l28 202h96l-28 -202h152l27 202h97l-28 -202h138l-11 -86h-138zM444 457h-151l-22 -160h151z" />
    <glyph glyph-name="dollar" unicode="$" horiz-adv-x="631" 
d="M339 -12v-118h-56v119q-108 10 -174 77.5t-71 169.5h107q6 -73 43 -113.5t95 -48.5v268l-36 9q-84 20 -139 69.5t-55 135.5q0 63 33 106.5t85.5 66t111.5 26.5v105h56v-105q101 -9 164.5 -69.5t70.5 -155.5h-105q-7 61 -41.5 96t-88.5 43v-242l11 -3q104 -25 170.5 -73
t66.5 -143q0 -67 -33.5 -115.5t-90 -75t-124.5 -29.5zM283 441v230q-52 -3 -90.5 -29.5t-38.5 -80.5q0 -45 33 -75t86 -43zM486 198q0 53 -37.5 83t-109.5 48v-256q60 2 103.5 33t43.5 92z" />
    <glyph glyph-name="percent" unicode="%" horiz-adv-x="963" 
d="M73 589q0 76 46 121.5t119 45.5t118.5 -45.5t45.5 -121.5v-97q0 -76 -45.5 -121.5t-118.5 -45.5t-119 45.5t-46 121.5v97zM766 745l-472 -745h-96l472 745h96zM238 399q37 0 58.5 25.5t21.5 68.5v96q0 42 -21.5 67.5t-58.5 25.5t-59 -25.5t-22 -67.5v-96q0 -43 22 -68.5
t59 -25.5zM561 250q0 76 46 122t119 46q72 0 118 -46t46 -122v-96q0 -76 -46 -121.5t-118 -45.5q-73 0 -119 45.5t-46 121.5v96zM726 61q37 0 58.5 25t21.5 68v96q0 43 -21.5 68.5t-58.5 25.5t-59.5 -25.5t-22.5 -68.5v-96q0 -43 22 -68t60 -25z" />
    <glyph glyph-name="ampersand" unicode="&#x26;" horiz-adv-x="782" 
d="M762 344h-175v-110q0 -80 -35 -135.5t-97 -83.5t-142 -28q-75 0 -135.5 26.5t-96 76.5t-35.5 119q0 67 37.5 116t98.5 69q-51 22 -80.5 68t-29.5 100q0 59 30.5 103t85.5 67.5t126 23.5q115 0 184.5 -58t77.5 -159h-110q-6 67 -48 98.5t-101 31.5q-63 0 -101 -33t-38 -84
q0 -54 40.5 -86.5t115.5 -32.5h428v-89zM483 344h-147q-86 0 -135 -36t-49 -100q0 -62 47 -98t115 -36q73 0 121 37.5t48 118.5v114z" />
    <glyph glyph-name="quotesingle" unicode="'" horiz-adv-x="193" 
d="M39 745h113l-16 -250h-82z" />
    <glyph glyph-name="parenleft" unicode="(" horiz-adv-x="285" 
d="M279 745q-54 -92 -89 -214t-35 -256t35 -256.5t89 -213.5h-97q-52 80 -93 206.5t-41 263.5q0 138 41 264.5t93 205.5h97z" />
    <glyph glyph-name="parenright" unicode=")" horiz-adv-x="285" 
d="M103 -195h-97q54 91 89 213.5t35 256.5t-35 256t-89 214h97q52 -79 93 -205.5t41 -264.5q0 -137 -41 -263.5t-93 -206.5z" />
    <glyph glyph-name="asterisk" unicode="*" horiz-adv-x="387" 
d="M335 673l25 -70l-110 -37l67 -92l-59 -44l-69 93l-66 -92l-62 42l66 92l-108 38l25 71l107 -39v110h75v-110z" />
    <glyph glyph-name="plus" unicode="+" horiz-adv-x="690" 
d="M394 112h-97v223h-228v93h228v222h97v-222h227v-93h-227v-223z" />
    <glyph glyph-name="comma" unicode="," horiz-adv-x="268" 
d="M108 -8q-24 7 -38 27t-14 46q0 33 22.5 55.5t55.5 22.5q32 0 55 -22.5t23 -55.5q0 -20 -9.5 -40.5t-42.5 -76.5l-61 -109h-74z" />
    <glyph glyph-name="hyphen" unicode="-" horiz-adv-x="415" 
d="M364 316v-92h-313v92h313z" />
    <glyph glyph-name="period" unicode="." horiz-adv-x="268" 
d="M134 143q32 0 55 -22.5t23 -55.5t-23 -55.5t-55 -22.5q-33 0 -55.5 22.5t-22.5 55.5t22.5 55.5t55.5 22.5z" />
    <glyph glyph-name="slash" unicode="/" horiz-adv-x="518" 
d="M501 745l-374 -745h-110l373 745h111z" />
    <glyph glyph-name="zero" unicode="0" horiz-adv-x="670" 
d="M335 -13q-82 0 -144.5 35t-97 100t-34.5 151v197q0 86 34.5 151t97 100t144.5 35q81 0 143.5 -35t97.5 -100t35 -151v-197q0 -86 -35 -151t-97.5 -100t-143.5 -35zM166 470v-197q0 -92 45 -144.5t124 -52.5q78 0 123.5 53t45.5 144v197q0 91 -45.5 144t-123.5 53
q-79 0 -124 -52.5t-45 -144.5z" />
    <glyph glyph-name="one" unicode="1" horiz-adv-x="345" 
d="M147 651h-124v94h228v-745h-104v651z" />
    <glyph glyph-name="two" unicode="2" horiz-adv-x="599" 
d="M258 324l44 33q64 48 95 91.5t31 101.5q0 57 -37.5 88t-90.5 31q-68 0 -106.5 -38t-39.5 -114h-105q0 72 31.5 126.5t88.5 83.5t131 29q62 0 115.5 -22t86.5 -68.5t33 -116.5q0 -81 -47 -144t-139 -129l-17 -12q-75 -54 -113 -91.5t-43 -81.5h367v-91h-489v41
q0 62 28.5 112t69 86t106.5 85z" />
    <glyph glyph-name="three" unicode="3" horiz-adv-x="613" 
d="M136 221q6 -71 51 -108t109 -37q68 0 113 35t45 97q0 64 -48.5 100t-134.5 36h-35v89h36q75 0 116.5 33t41.5 87q0 51 -37 82.5t-98 31.5t-100.5 -35t-44.5 -106h-107q8 105 75 167.5t179 62.5q108 0 174 -52t66 -141q0 -54 -30.5 -99.5t-81.5 -68.5q62 -21 99.5 -70
t37.5 -116q0 -69 -36.5 -119t-98 -76.5t-133.5 -26.5q-75 0 -133.5 28.5t-93 81.5t-38.5 124h107z" />
    <glyph glyph-name="four" unicode="4" horiz-adv-x="664" 
d="M25 181v85l368 479h120l-360 -472h232v178h103v-178h151v-92h-151v-181h-103v181h-360z" />
    <glyph glyph-name="five" unicode="5" horiz-adv-x="628" 
d="M154 219q7 -68 51.5 -105.5t106.5 -37.5q42 0 78 18t58 54.5t22 88.5t-23 89t-59 55t-76 18q-51 0 -89 -22t-54 -55h-104l62 423h410v-94h-323l-33 -215q25 25 65.5 38.5t91.5 13.5q63 0 117.5 -29.5t88 -86.5t33.5 -135t-36 -134.5t-96.5 -86t-131.5 -29.5
q-73 0 -132 28.5t-94.5 81t-39.5 122.5h107z" />
    <glyph glyph-name="six" unicode="6" horiz-adv-x="626" 
d="M133 435l252 310h124l-212 -261q20 5 41 3q71 -4 125.5 -37t84.5 -88t30 -124q0 -73 -33.5 -130t-94 -89t-138.5 -32t-138 32t-93.5 89t-33.5 130q0 50 19.5 94.5t66.5 102.5zM472 238q0 46 -20.5 82.5t-57 57.5t-82.5 21t-82 -21t-56.5 -57.5t-20.5 -82.5t20.5 -83
t56.5 -58t82 -21t82.5 21t57 58t20.5 83z" />
    <glyph glyph-name="seven" unicode="7" horiz-adv-x="584" 
d="M559 745v-94l-399 -651h-114l399 651h-420v94h534z" />
    <glyph glyph-name="eight" unicode="8" horiz-adv-x="638" 
d="M182 397q-43 23 -70.5 66.5t-27.5 96.5q0 58 31.5 103t85 69t118.5 24t118.5 -24t85 -69t31.5 -103q0 -53 -27.5 -96.5t-70.5 -66.5q56 -25 89 -74t33 -112q0 -68 -33 -119t-92 -78t-134 -27t-134 27t-92 78t-33 119q0 63 33 112t89 74zM319 668q-56 0 -93 -31.5
t-37 -84.5q0 -54 37 -86t93 -32t93 32t37 86q0 53 -37 84.5t-93 31.5zM319 349q-66 0 -109.5 -38t-43.5 -99t43.5 -99t109.5 -38t109.5 38t43.5 99t-43.5 99t-109.5 38z" />
    <glyph glyph-name="nine" unicode="9" horiz-adv-x="626" 
d="M493 308l-252 -310h-124l212 261q-20 -5 -41 -3q-71 4 -125.5 37t-84.5 88t-30 124q0 73 33.5 130t94 89t138.5 32t138 -32t93.5 -89t33.5 -130q0 -50 -19.5 -94.5t-66.5 -102.5zM154 505q0 -46 20.5 -82.5t57 -57.5t82.5 -21t82 21t56.5 57.5t20.5 82.5t-20.5 83
t-56.5 58t-82 21t-82.5 -21t-57 -58t-20.5 -83z" />
    <glyph glyph-name="colon" unicode=":" horiz-adv-x="305" 
d="M158 143q32 0 55 -22.5t23 -55.5t-23 -55.5t-55 -22.5q-33 0 -55.5 22.5t-22.5 55.5t22.5 55.5t55.5 22.5zM158 551q32 0 55 -22.5t23 -55.5t-23 -55.5t-55 -22.5q-33 0 -55.5 22.5t-22.5 55.5t22.5 55.5t55.5 22.5z" />
    <glyph glyph-name="semicolon" unicode=";" horiz-adv-x="305" 
d="M158 551q32 0 55 -22.5t23 -55.5t-23 -55.5t-55 -22.5q-33 0 -55.5 22.5t-22.5 55.5t22.5 55.5t55.5 22.5zM132 -8q-24 7 -38 27t-14 46q0 33 22.5 55.5t55.5 22.5q32 0 55 -22.5t23 -55.5q0 -20 -9.5 -40.5t-42.5 -76.5l-61 -109h-74z" />
    <glyph glyph-name="equal" unicode="=" horiz-adv-x="690" 
d="M590 450h-490v92h490v-92zM590 225h-490v93h490v-93z" />
    <glyph glyph-name="question" unicode="?" horiz-adv-x="596" 
d="M406 394q-51 -22 -68 -50.5t-17 -84.5v-26h-103v28q0 80 26.5 123.5t99.5 74.5q57 24 86 47.5t29 63.5q0 46 -42 72.5t-110 26.5q-83 0 -127 -38.5t-45 -105.5h-105q0 111 77 171t203 60q71 0 129 -20.5t92.5 -62t34.5 -99.5q0 -63 -45.5 -107.5t-114.5 -72.5zM273 143
q32 0 55 -22.5t23 -55.5t-23 -55.5t-55 -22.5q-33 0 -55.5 22.5t-22.5 55.5t22.5 55.5t55.5 22.5z" />
    <glyph glyph-name="at" unicode="@" horiz-adv-x="859" 
d="M450 738q103 0 184.5 -36.5t128.5 -109t47 -177.5q0 -79 -25.5 -137.5t-67 -89t-87.5 -30.5q-45 0 -73 27t-32 75q-24 -47 -64 -72t-95 -25q-64 0 -106 45t-42 134q0 61 26 115.5t74 88t110 33.5q44 0 75 -23.5t43 -61.5l3 24q2 11 3.5 23t3.5 20h62l-31 -226
q-3 -24 -3 -42q0 -36 12.5 -53.5t40.5 -17.5q29 0 53 22.5t38 65.5t14 101q0 128 -80.5 196.5t-213.5 68.5q-96 0 -170.5 -42.5t-116 -116t-41.5 -165.5q0 -88 36 -156t102.5 -106t155.5 -38q104 0 195 43l25 -60q-45 -22 -104.5 -35t-115.5 -13q-107 0 -190 47t-129 130.5
t-46 190.5q0 108 52.5 195.5t144 137.5t204.5 50zM385 227q41 0 72 24.5t47.5 65t16.5 88.5q0 52 -24 80t-68 28q-40 0 -70.5 -23.5t-47.5 -63t-17 -85.5q0 -57 24 -85.5t67 -28.5z" />
    <glyph glyph-name="A" unicode="A" horiz-adv-x="730" 
d="M513 215h-300l-81 -215h-110l287 745h112l287 -745h-114zM477 310l-114 303l-114 -303h228z" />
    <glyph glyph-name="B" unicode="B" horiz-adv-x="661" 
d="M338 745q72 0 124.5 -26.5t80 -71t27.5 -97.5q0 -104 -83 -154q60 -22 97 -68.5t37 -116.5q0 -99 -74.5 -155t-196.5 -56h-266v745h254zM457 540q0 49 -36.5 81t-96.5 32h-132v-226h134q59 0 95 32t36 81zM507 214q0 56 -40.5 89.5t-113.5 33.5h-161v-245h154
q78 0 119.5 33t41.5 89z" />
    <glyph glyph-name="C" unicode="C" horiz-adv-x="822" 
d="M421 756q90 0 165 -35t125.5 -98.5t69.5 -145.5h-117q-24 85 -87.5 133t-154.5 48q-78 0 -138.5 -37.5t-94 -102.5t-33.5 -146t33.5 -146.5t94 -103t138.5 -37.5q91 0 155 48t88 134h116q-18 -83 -68.5 -146.5t-125.5 -98.5t-166 -35q-109 0 -196 50.5t-135.5 138.5
t-48.5 196q0 107 48.5 195t135.5 138.5t196 50.5z" />
    <glyph glyph-name="D" unicode="D" horiz-adv-x="756" 
d="M315 745q128 0 219.5 -48.5t139 -133t47.5 -190.5t-47.5 -191t-139.5 -133.5t-221 -48.5h-229v745h231zM192 92h124q91 0 156.5 36t99.5 100t34 145t-34 144.5t-99.5 99.5t-156.5 36h-124v-561z" />
    <glyph glyph-name="E" unicode="E" 
d="M534 745v-95h-342v-221h285v-95h-285v-239h342v-95h-450v745h450z" />
    <glyph glyph-name="F" unicode="F" horiz-adv-x="550" 
d="M533 745v-95h-341v-221h289v-95h-289v-334h-108v745h449z" />
    <glyph glyph-name="G" unicode="G" horiz-adv-x="861" 
d="M421 -13q-109 0 -196 50.5t-135.5 138.5t-48.5 196q0 107 48.5 195t135 138.5t194.5 50.5q91 0 165.5 -33.5t125 -94t68.5 -139.5h-115q-25 80 -88 124.5t-154 44.5q-79 0 -139 -37.5t-93 -103t-33 -145.5q0 -81 32.5 -146.5t93 -103t140.5 -37.5q109 0 176 54.5
t73 154.5h-297v96h403v-390h-101v111q-39 -59 -105 -91.5t-150 -32.5z" />
    <glyph glyph-name="H" unicode="H" horiz-adv-x="752" 
d="M192 745v-316h368v316h108v-745h-108v334h-368v-334h-108v745h108z" />
    <glyph glyph-name="I" unicode="I" horiz-adv-x="276" 
d="M192 745v-745h-108v745h108z" />
    <glyph glyph-name="J" unicode="J" horiz-adv-x="563" 
d="M136 199q1 -58 33.5 -88.5t84.5 -30.5q50 0 84.5 29.5t34.5 93.5v447h-233v95h342v-529q0 -107 -63.5 -168t-167.5 -61q-70 0 -120.5 28t-77 76t-28.5 108h111z" />
    <glyph glyph-name="K" unicode="K" horiz-adv-x="689" 
d="M542 0l-350 324v-324h-108v745h108v-355l314 355h128l-337 -376l393 -369h-148z" />
    <glyph glyph-name="L" unicode="L" horiz-adv-x="521" 
d="M192 745v-650h310v-95h-418v745h108z" />
    <glyph glyph-name="M" unicode="M" horiz-adv-x="900" 
d="M246 745l205 -622l202 622h164v-745h-103v633l-209 -633h-109l-209 633v-633h-103v745h162z" />
    <glyph glyph-name="N" unicode="N" horiz-adv-x="756" 
d="M188 572v-572h-104v745h102l382 -572v572h104v-745h-102z" />
    <glyph glyph-name="O" unicode="O" horiz-adv-x="847" 
d="M423 756q110 0 197.5 -50.5t136.5 -138t49 -195.5t-49 -196t-136.5 -138.5t-197.5 -50.5t-197 50.5t-136 138.5t-49 196t49 195.5t136 138t197 50.5zM423 658q-78 0 -139 -37t-94.5 -102.5t-33.5 -146.5q0 -82 33.5 -147.5t94.5 -102.5t139 -37t139 37t95 102.5t34 147.5
q0 81 -34 146.5t-95 102.5t-139 37z" />
    <glyph glyph-name="P" unicode="P" horiz-adv-x="636" 
d="M361 745q126 0 195 -59.5t69 -158.5t-69 -158t-195 -59h-169v-310h-108v745h277zM511 527q0 59 -41.5 92.5t-118.5 33.5h-159v-252h159q77 0 118.5 33.5t41.5 92.5z" />
    <glyph glyph-name="Q" unicode="Q" horiz-adv-x="854" 
d="M679 79l113 -80v-125l-205 147q-76 -34 -164 -34q-110 0 -197 50.5t-136 138.5t-49 196t49 195.5t136 138t197 50.5t197.5 -50.5t136.5 -138t49 -195.5q0 -89 -33.5 -164.5t-93.5 -128.5zM423 85q78 0 139 37t95 102.5t34 147.5q0 81 -34 146.5t-95 102.5t-139 37
t-139 -37t-94.5 -102.5t-33.5 -146.5q0 -82 33.5 -147.5t94.5 -102.5t139 -37z" />
    <glyph glyph-name="R" unicode="R" horiz-adv-x="700" 
d="M551 0l-286 325h-73v-325h-108v745h241q124 0 191 -56.5t67 -153.5q0 -81 -47 -134.5t-137 -69.5l294 -331h-142zM192 417h124q75 0 114 30t39 88t-39 88t-114 30h-124v-236z" />
    <glyph glyph-name="S" unicode="S" horiz-adv-x="638" 
d="M146 230q26 -149 183 -149q65 0 112.5 29t47.5 89q0 51 -39 81t-110 46l-81 18q-94 21 -151.5 71t-57.5 136q0 66 36.5 112t96 69.5t127.5 23.5q69 0 127 -26.5t95.5 -75.5t46.5 -115h-110q-12 61 -56.5 91.5t-109.5 30.5q-61 0 -103 -27.5t-42 -78.5q0 -86 125 -113
l77 -17q108 -23 172 -73t64 -142q0 -71 -36.5 -121t-97.5 -76t-136 -26q-124 0 -200.5 66t-89.5 177h110z" />
    <glyph glyph-name="T" unicode="T" horiz-adv-x="589" 
d="M14 650v95h561v-95h-227v-650h-108v650h-226z" />
    <glyph glyph-name="U" unicode="U" horiz-adv-x="733" 
d="M78 745h108v-467q0 -95 46.5 -145.5t133.5 -50.5q88 0 134.5 50.5t46.5 145.5v467h108v-474q0 -86 -36 -150.5t-101 -99t-152 -34.5q-86 0 -151.5 34t-101 98t-35.5 152v474z" />
    <glyph glyph-name="V" unicode="V" horiz-adv-x="729" 
d="M139 745l228 -603l225 603h116l-285 -745h-116l-286 745h118z" />
    <glyph glyph-name="W" unicode="W" horiz-adv-x="989" 
d="M149 745l133 -597l151 597h123l157 -598l128 598h111l-168 -745h-127l-163 610l-162 -610h-128l-167 745h112z" />
    <glyph glyph-name="X" unicode="X" horiz-adv-x="730" 
d="M573 0l-209 295l-213 -295h-124l275 383l-257 362h130l192 -271l195 271h125l-258 -358l275 -387h-131z" />
    <glyph glyph-name="Y" unicode="Y" horiz-adv-x="742" 
d="M369 439l237 306h128l-314 -400v-345h-109v347l-303 398h129z" />
    <glyph glyph-name="Z" unicode="Z" horiz-adv-x="657" 
d="M465 650h-404v95h536v-89l-423 -561h433v-95h-566v89z" />
    <glyph glyph-name="bracketleft" unicode="[" horiz-adv-x="332" 
d="M302 745v-82h-123v-776h123v-82h-218v940h218z" />
    <glyph glyph-name="bracketright" unicode="]" horiz-adv-x="332" 
d="M248 -195h-218v82h123v776h-123v82h218v-940z" />
    <glyph glyph-name="underscore" unicode="_" horiz-adv-x="505" 
d="M466 -29v-93h-427v93h427z" />
    <glyph glyph-name="grave" unicode="`" horiz-adv-x="280" 
d="M144 745l127 -116h-125l-133 116h131z" />
    <glyph glyph-name="a" unicode="a" horiz-adv-x="569" 
d="M234 -13q-58 0 -100.5 22.5t-64.5 59.5t-22 79q0 79 60 117t179 59q46 8 69 15.5t34 19t11 32.5q0 38 -29 60.5t-81 22.5q-60 0 -96.5 -30.5t-38.5 -82.5h-95q1 55 29 98.5t79.5 68.5t119.5 25q100 0 157.5 -45.5t57.5 -155.5v-352h-95v69q-24 -37 -68 -59.5t-106 -22.5z
M266 245q-63 -17 -86.5 -38t-23.5 -54q0 -39 29 -62.5t74 -23.5q68 0 107 34t39 102v86q-31 -15 -82 -28.5t-57 -15.5z" />
    <glyph glyph-name="b" unicode="b" horiz-adv-x="656" 
d="M181 0h-104v745h104v-286q28 44 77.5 68t105.5 24q71 0 130 -36t93.5 -100.5t34.5 -145.5t-34.5 -145.5t-93.5 -100.5t-130 -36q-56 0 -105.5 24t-77.5 68v-79zM175 269q0 -58 21.5 -102.5t60 -69t88.5 -24.5q49 0 87.5 24.5t60 69t21.5 102.5t-21.5 102.5t-60 69
t-87.5 24.5q-50 0 -88.5 -24.5t-60 -69t-21.5 -102.5z" />
    <glyph glyph-name="c" unicode="c" horiz-adv-x="615" 
d="M314 551q104 0 175.5 -58t91.5 -156h-108q-16 60 -57 92.5t-102 32.5q-52 0 -91 -25.5t-60.5 -69.5t-21.5 -98q0 -55 21.5 -98.5t60.5 -69t91 -25.5q61 0 103 33t56 92h108q-19 -97 -91 -155.5t-176 -58.5q-81 0 -145 36.5t-99.5 101t-35.5 144.5q0 79 35.5 143.5
t99.5 101.5t145 37z" />
    <glyph glyph-name="d" unicode="d" horiz-adv-x="656" 
d="M292 551q56 0 105.5 -24t77.5 -68v286h104v-745h-104v79q-28 -44 -77.5 -68t-105.5 -24q-72 0 -131 36t-93 100.5t-34 145.5t34 145.5t93 100.5t131 36zM481 269q0 58 -21.5 102.5t-60 69t-88.5 24.5q-49 0 -87.5 -24.5t-60 -69t-21.5 -102.5t21.5 -102.5t60 -69
t87.5 -24.5q50 0 88.5 24.5t60 69t21.5 102.5z" />
    <glyph glyph-name="e" unicode="e" horiz-adv-x="618" 
d="M584 244h-443q7 -74 55 -121.5t120 -47.5q109 0 152 93h109q-26 -83 -96.5 -132t-167.5 -49q-81 0 -144.5 36.5t-99 101t-35.5 144.5q0 79 35.5 143.5t99 101.5t144.5 37q83 0 145.5 -39t95 -109t30.5 -159zM474 321q-9 67 -53.5 106.5t-108.5 39.5t-110.5 -40.5
t-57.5 -105.5h330z" />
    <glyph glyph-name="f" unicode="f" horiz-adv-x="339" 
d="M11 458v80h85v23q0 94 45.5 143.5t129.5 49.5q24 0 56 -5v-87q-20 4 -41 4q-45 0 -65.5 -24.5t-20.5 -80.5v-23h125v-80h-125v-458h-104v458h-85z" />
    <glyph glyph-name="g" unicode="g" horiz-adv-x="659" 
d="M174 -44q13 -39 49.5 -58.5t89.5 -19.5q73 0 119.5 34.5t46.5 119.5v56q-28 -43 -77 -66t-106 -23q-71 0 -130 35t-93 98t-34 143t34 143t93 98t130 35q57 0 106 -23t77 -66v76h103v-485q0 -261 -276 -261q-86 0 -152.5 42t-83.5 122h104zM316 465q-75 0 -122 -52.5
t-47 -137.5t47 -137.5t122 -52.5q49 0 87.5 24t60 67t21.5 99t-21.5 99t-60 67t-87.5 24z" />
    <glyph glyph-name="h" unicode="h" 
d="M181 745v-276q47 82 156 82q92 0 138.5 -55.5t46.5 -155.5v-340h-104v320q0 73 -30.5 109t-84.5 36q-55 0 -88.5 -36.5t-33.5 -108.5v-320h-104v745h104z" />
    <glyph glyph-name="i" unicode="i" horiz-adv-x="258" 
d="M181 538v-538h-104v538h104zM194 705q0 -27 -19 -46.5t-46 -19.5t-46.5 19.5t-19.5 46.5t19.5 46.5t46.5 19.5t46 -19.5t19 -46.5z" />
    <glyph glyph-name="j" unicode="j" horiz-adv-x="260" 
d="M196 705q0 -27 -19 -46.5t-46 -19.5t-46.5 19.5t-19.5 46.5t19.5 46.5t46.5 19.5t46 -19.5t19 -46.5zM-35 -110q21 -4 42 -4q39 0 55.5 20.5t16.5 71.5v560h104v-556q0 -100 -39 -141.5t-119 -41.5q-32 0 -60 4v87z" />
    <glyph glyph-name="k" unicode="k" horiz-adv-x="560" 
d="M428 0l-247 245v-245h-104v745h104v-443l228 236h123l-249 -256l277 -282h-132z" />
    <glyph glyph-name="l" unicode="l" horiz-adv-x="258" 
d="M181 745v-745h-104v745h104z" />
    <glyph glyph-name="m" unicode="m" horiz-adv-x="928" 
d="M77 0v538h104v-69q47 82 156 82q121 0 163 -97q25 46 72.5 71.5t104.5 25.5q92 0 138.5 -55.5t46.5 -155.5v-340h-104v320q0 73 -30 109t-85 36t-88.5 -36.5t-33.5 -108.5v-320h-104v320q0 73 -30 109t-84 36q-55 0 -88.5 -36.5t-33.5 -108.5v-320h-104z" />
    <glyph glyph-name="n" unicode="n" 
d="M181 538v-69q47 82 156 82q92 0 138.5 -55.5t46.5 -155.5v-340h-104v320q0 73 -30.5 109t-84.5 36q-55 0 -88.5 -36.5t-33.5 -108.5v-320h-104v538h104z" />
    <glyph glyph-name="o" unicode="o" horiz-adv-x="632" 
d="M34 269q0 81 36 145t100.5 100.5t145.5 36.5t145.5 -36.5t100.5 -100.5t36 -145t-36 -145t-100.5 -100.5t-145.5 -36.5t-145.5 36.5t-100.5 100.5t-36 145zM141 269q0 -55 22 -99t61.5 -69t91.5 -25t91.5 25t61.5 69t22 99t-22 99t-61.5 69t-91.5 25t-91.5 -25t-61.5 -69
t-22 -99z" />
    <glyph glyph-name="p" unicode="p" horiz-adv-x="656" 
d="M181 538v-79q28 44 77.5 68t105.5 24q71 0 130 -36t93.5 -100.5t34.5 -145.5t-34.5 -145.5t-93.5 -100.5t-130 -36q-56 0 -105.5 24t-77.5 68v-274h-104v733h104zM345 465q-50 0 -88.5 -24.5t-60 -69t-21.5 -102.5t21.5 -102.5t60 -69t88.5 -24.5q49 0 87.5 24.5t60 69
t21.5 102.5t-21.5 102.5t-60 69t-87.5 24.5z" />
    <glyph glyph-name="q" unicode="q" horiz-adv-x="656" 
d="M292 -13q-72 0 -131 36t-93 100.5t-34 145.5t34 145.5t93 100.5t131 36q56 0 105.5 -24t77.5 -68v79h104v-733h-104v274q-28 -44 -77.5 -68t-105.5 -24zM311 465q-49 0 -87.5 -24.5t-60 -69t-21.5 -102.5t21.5 -102.5t60 -69t87.5 -24.5q50 0 88.5 24.5t60 69t21.5 102.5
t-21.5 102.5t-60 69t-88.5 24.5z" />
    <glyph glyph-name="r" unicode="r" horiz-adv-x="372" 
d="M178 538v-99q22 48 63 74t93 26q16 0 24 -1v-101q-5 1 -42 1q-71 0 -103.5 -37.5t-32.5 -118.5v-282h-103v538h101z" />
    <glyph glyph-name="s" unicode="s" horiz-adv-x="543" 
d="M144 172q9 -51 44.5 -77t92.5 -26q47 0 81 19.5t34 56.5q0 35 -26.5 53t-77.5 28l-75 15q-76 15 -120 54t-44 103q0 44 27.5 79.5t75 55.5t106.5 20q88 0 148.5 -42.5t71.5 -124.5h-98q-9 43 -42.5 65t-82.5 22q-45 0 -77 -18.5t-32 -51.5q0 -30 21.5 -48.5t67.5 -27.5
l70 -14q86 -17 136.5 -52t50.5 -104q0 -80 -62 -125t-157 -45t-158.5 46t-75.5 139h101z" />
    <glyph glyph-name="t" unicode="t" horiz-adv-x="372" 
d="M103 458h-89v80h89v110l105 72v-182h125v-80h-125v-267q0 -57 18 -85t64 -28q18 0 42 3v-86q-26 -5 -65 -5q-81 0 -122.5 45t-41.5 144v279z" />
    <glyph glyph-name="u" unicode="u" horiz-adv-x="595" 
d="M66 221v317h104v-313q0 -78 32 -113q32 -36 96 -36q63 0 96 36q32 37 32 113v313h104v-317q0 -66 -16 -110t-49 -72q-58 -52 -167 -52q-110 0 -168 52q-33 28 -48.5 72t-15.5 110z" />
    <glyph glyph-name="v" unicode="v" horiz-adv-x="546" 
d="M125 538l152 -413l150 413h105l-203 -538h-107l-208 538h111z" />
    <glyph glyph-name="w" unicode="w" horiz-adv-x="771" 
d="M125 538l95 -402l110 402h109l113 -402l94 402h107l-143 -538h-104l-122 428l-120 -428h-104l-142 538h107z" />
    <glyph glyph-name="x" unicode="x" horiz-adv-x="565" 
d="M426 0l-146 200l-149 -200h-110l205 274l-194 264h118l135 -185l138 185h109l-193 -259l205 -279h-118z" />
    <glyph glyph-name="y" unicode="y" horiz-adv-x="552" 
d="M14 538h114l150 -403l153 403h107l-290 -733h-107l80 204z" />
    <glyph glyph-name="z" unicode="z" horiz-adv-x="524" 
d="M347 454h-286v84h410v-84l-305 -370h312v-84h-436v84z" />
    <glyph glyph-name="braceleft" unicode="{" horiz-adv-x="375" 
d="M127 120q0 109 -88 112v87q88 3 88 112v147q0 88 43.5 127.5t136.5 39.5h39v-82h-26q-49 0 -69 -21.5t-20 -64.5v-158q0 -119 -98 -142v-3q98 -23 98 -142v-160q0 -43 20 -64t69 -21h26v-82h-39q-93 0 -136.5 39.5t-43.5 127.5v148z" />
    <glyph glyph-name="bar" unicode="|" horiz-adv-x="248" 
d="M170 745v-835h-91v835h91z" />
    <glyph glyph-name="braceright" unicode="}" horiz-adv-x="375" 
d="M29 -195v82h26q49 0 69 21t20 64v160q0 119 98 142v3q-98 23 -98 142v158q0 43 -20 64.5t-69 21.5h-26v82h39q93 0 136.5 -39.5t43.5 -127.5v-147q0 -109 88 -112v-87q-88 -3 -88 -112v-148q0 -88 -43.5 -127.5t-136.5 -39.5h-39z" />
    <glyph glyph-name="uni00A0" unicode="&#xa0;" horiz-adv-x="240" 
 />
    <glyph glyph-name="exclamdown" unicode="&#xa1;" horiz-adv-x="330" 
d="M165 551q33 0 55.5 -22.5t22.5 -55.5t-22.5 -55.5t-55.5 -22.5t-55.5 22.5t-22.5 55.5t22.5 55.5t55.5 22.5zM217 321v-516h-104v516h104z" />
    <glyph glyph-name="sterling" unicode="&#xa3;" horiz-adv-x="663" 
d="M213 91h388v-91h-530v91q57 22 99 71t42 113q0 16 -5 36h-150v82h109q-34 55 -51 93.5t-17 86.5q0 58 35 99.5t92 62.5t122 21q78 0 136 -30.5t88.5 -86.5t30.5 -129h-105q-1 82 -43 121t-108 39q-59 0 -100 -26.5t-41 -80.5q0 -36 14 -67t43 -80q5 -7 8 -12.5t6 -10.5
h214v-82h-179q4 -15 4 -34q0 -54 -31 -106t-72 -79z" />
    <glyph glyph-name="yen" unicode="&#xa5;" horiz-adv-x="741" 
d="M461 401h150v-87h-194v-77h194v-88h-194v-149h-104v149h-193v88h193v77h-193v87h152l-262 344h127l232 -306l237 306h125z" />
    <glyph glyph-name="dieresis" unicode="&#xa8;" horiz-adv-x="385" 
d="M75 753q25 0 42 -17t17 -42t-17 -42.5t-42 -17.5t-42.5 17.5t-17.5 42.5t17.5 42t42.5 17zM311 753q25 0 42 -17t17 -42t-17 -42.5t-42 -17.5t-42.5 17.5t-17.5 42.5t17.5 42t42.5 17z" />
    <glyph glyph-name="copyright" unicode="&#xa9;" horiz-adv-x="896" 
d="M832 369q0 -111 -51.5 -198t-139 -135.5t-193.5 -48.5t-193.5 48.5t-138.5 135.5t-51 198q0 112 51 200t138.5 137t193.5 49t193.5 -49t139 -137t51.5 -200zM756 369q0 94 -40 166t-110 112t-158 40q-86 0 -156.5 -40t-111.5 -112.5t-41 -165.5q0 -92 41 -163.5
t111.5 -111.5t156.5 -40q88 0 158 40t110 111.5t40 163.5zM450 580q75 0 127 -40.5t68 -109.5h-80q-12 42 -41 63.5t-73 21.5q-58 0 -93 -40t-35 -102t35 -102t93 -40q43 0 73 22t42 64h79q-16 -69 -68.5 -110t-126.5 -41q-59 0 -106 27t-73.5 74.5t-26.5 105.5t26.5 105.5
t73.5 74.5t106 27z" />
    <glyph glyph-name="guillemotleft" unicode="&#xab;" horiz-adv-x="560" 
d="M199 501h100l-137 -228l137 -228h-99l-159 228zM419 501h100l-137 -228l137 -228h-99l-159 228z" />
    <glyph glyph-name="uni00AD" unicode="&#xad;" horiz-adv-x="415" 
d="M364 316v-92h-313v92h313z" />
    <glyph glyph-name="macron" unicode="&#xaf;" horiz-adv-x="355" 
d="M29 729h297v-74h-297v74z" />
    <glyph glyph-name="degree" unicode="&#xb0;" horiz-adv-x="358" 
d="M334 602q0 -42 -21 -77.5t-56.5 -56.5t-78.5 -21q-41 0 -76.5 21t-56 56.5t-20.5 77.5t20.5 77.5t56 56.5t76.5 21q43 0 78.5 -21t56.5 -56.5t21 -77.5zM259 602q0 36 -22.5 60.5t-58.5 24.5q-34 0 -55.5 -24.5t-21.5 -60.5t21.5 -60.5t55.5 -24.5q36 0 58.5 24.5
t22.5 60.5z" />
    <glyph glyph-name="acute" unicode="&#xb4;" horiz-adv-x="280" 
d="M271 745l-132 -116h-126l127 116h131z" />
    <glyph glyph-name="periodcentered" unicode="&#xb7;" horiz-adv-x="268" 
d="M134 349q32 0 55 -22.5t23 -55.5t-23 -55.5t-55 -22.5q-33 0 -55.5 22.5t-22.5 55.5t22.5 55.5t55.5 22.5z" />
    <glyph glyph-name="cedilla" unicode="&#xb8;" horiz-adv-x="253" 
d="M98 -152q25 0 40.5 7t15.5 23q0 14 -11 21.5t-30 7.5q-28 0 -41 -9l-26 16l55 89h48l-35 -56q18 3 33 3q32 -1 53 -19.5t21 -48.5q0 -38 -32.5 -59t-77.5 -21q-49 0 -85 15l15 43q24 -12 57 -12z" />
    <glyph glyph-name="guillemotright" unicode="&#xbb;" horiz-adv-x="560" 
d="M178 273l-137 228h100l158 -228l-159 -228h-99zM398 273l-137 228h100l158 -228l-159 -228h-99z" />
    <glyph glyph-name="questiondown" unicode="&#xbf;" horiz-adv-x="574" 
d="M312 551q32 0 55 -22.5t23 -55.5t-23 -55.5t-55 -22.5q-33 0 -55.5 22.5t-22.5 55.5t22.5 55.5t55.5 22.5zM179 154q51 22 68 50.5t17 84.5v26h103v-28q0 -79 -26.5 -123t-99.5 -75q-57 -24 -86 -47.5t-29 -63.5q0 -46 42 -72.5t110 -26.5q83 0 127 38.5t45 105.5h105
q0 -111 -77 -171t-203 -60q-71 0 -129 20.5t-92.5 62t-34.5 99.5q0 64 45 108t115 72z" />
    <glyph glyph-name="Agrave" unicode="&#xc0;" horiz-adv-x="730" 
d="M513 215h-300l-81 -215h-110l287 745h112l287 -745h-114zM477 310l-114 303l-114 -303h228zM416 803h-127l-138 113h134z" />
    <glyph glyph-name="Aacute" unicode="&#xc1;" horiz-adv-x="730" 
d="M513 215h-300l-81 -215h-110l287 745h112l287 -745h-114zM477 310l-114 303l-114 -303h228zM300 803l131 113h134l-138 -113h-127z" />
    <glyph glyph-name="Acircumflex" unicode="&#xc2;" horiz-adv-x="730" 
d="M442 803l-77 62l-79 -62h-116l137 113h118l134 -113h-117zM513 215h-300l-81 -215h-110l287 745h112l287 -745h-114zM477 310l-114 303l-114 -303h228z" />
    <glyph glyph-name="Atilde" unicode="&#xc3;" horiz-adv-x="730" 
d="M513 215h-300l-81 -215h-110l287 745h112l287 -745h-114zM477 310l-114 303l-114 -303h228zM552 917q-10 -60 -44.5 -87.5t-75.5 -27.5q-23 0 -40 7t-38 20q-3 1 -13 7t-19 8.5t-16 2.5q-38 0 -48 -45h-76q9 61 44.5 88t76.5 27q21 0 37.5 -6.5t36.5 -18.5
q17 -10 27.5 -14.5t22.5 -4.5q39 0 50 44h75z" />
    <glyph glyph-name="Adieresis" unicode="&#xc4;" horiz-adv-x="730" 
d="M513 215h-300l-81 -215h-110l287 745h112l287 -745h-114zM477 310l-114 303l-114 -303h228zM247 920q25 0 42 -17t17 -42q0 -24 -17 -41.5t-42 -17.5t-42.5 17.5t-17.5 41.5q0 25 17.5 42t42.5 17zM483 920q25 0 42 -17t17 -42q0 -24 -17 -41.5t-42 -17.5t-42.5 17.5
t-17.5 41.5q0 25 17.5 42t42.5 17z" />
    <glyph glyph-name="Aring" unicode="&#xc5;" horiz-adv-x="730" 
d="M513 215h-300l-81 -215h-110l287 745h112l287 -745h-114zM477 310l-114 303l-114 -303h228zM365 795q-38 0 -64 24.5t-26 60.5q0 37 26.5 61t63.5 24q38 0 64.5 -24t26.5 -61t-26 -61t-65 -24zM365 836q18 0 32 12.5t14 31.5q0 20 -14 32.5t-32 12.5t-31.5 -12.5
t-13.5 -32.5q0 -19 13.5 -31.5t31.5 -12.5z" />
    <glyph glyph-name="AE" unicode="&#xc6;" horiz-adv-x="993" 
d="M591 650v-221h298v-95h-298v-239h342v-95h-450v219h-239l-143 -219h-116l497 745h451v-95h-342zM483 315v272l-177 -272h177z" />
    <glyph glyph-name="Ccedilla" unicode="&#xc7;" horiz-adv-x="822" 
d="M421 756q90 0 165 -35t125.5 -98.5t69.5 -145.5h-117q-24 85 -87.5 133t-154.5 48q-78 0 -138.5 -37.5t-94 -102.5t-33.5 -146t33.5 -146.5t94 -103t138.5 -37.5q91 0 155 48t88 134h116q-18 -83 -68.5 -146.5t-125.5 -98.5t-166 -35q-109 0 -196 50.5t-135.5 138.5
t-48.5 196q0 107 48.5 195t135.5 138.5t196 50.5zM368 -152q24 0 40 7.5t16 23.5q0 14 -11 21.5t-30 7.5q-28 0 -41 -9l-26 16l55 89h48l-35 -56q12 2 33 2q32 0 53 -18.5t21 -48.5q0 -38 -32.5 -59t-77.5 -21q-49 0 -85 14l15 43q27 -12 57 -12z" />
    <glyph glyph-name="Egrave" unicode="&#xc8;" 
d="M534 745v-95h-342v-221h285v-95h-285v-239h342v-95h-450v745h450zM390 803h-127l-138 113h134z" />
    <glyph glyph-name="Eacute" unicode="&#xc9;" 
d="M534 745v-95h-342v-221h285v-95h-285v-239h342v-95h-450v745h450zM229 803l131 113h134l-138 -113h-127z" />
    <glyph glyph-name="Ecircumflex" unicode="&#xca;" 
d="M534 745v-95h-342v-221h285v-95h-285v-239h342v-95h-450v745h450zM392 803l-77 62l-79 -62h-116l137 113h118l134 -113h-117z" />
    <glyph glyph-name="Edieresis" unicode="&#xcb;" 
d="M534 745v-95h-342v-221h285v-95h-285v-239h342v-95h-450v745h450zM192 920q25 0 42 -17t17 -42q0 -24 -17 -41.5t-42 -17.5t-42.5 17.5t-17.5 41.5q0 25 17.5 42t42.5 17zM428 920q25 0 42 -17t17 -42q0 -24 -17 -41.5t-42 -17.5t-42.5 17.5t-17.5 41.5q0 25 17.5 42
t42.5 17z" />
    <glyph glyph-name="Igrave" unicode="&#xcc;" horiz-adv-x="276" 
d="M192 745v-745h-108v745h108zM195 803h-127l-138 113h134z" />
    <glyph glyph-name="Iacute" unicode="&#xcd;" horiz-adv-x="276" 
d="M192 745v-745h-108v745h108zM68 803l131 113h134l-138 -113h-127z" />
    <glyph glyph-name="Icircumflex" unicode="&#xce;" horiz-adv-x="276" 
d="M192 745v-745h-108v745h108zM216 803l-77 62l-79 -62h-116l137 113h118l134 -113h-117z" />
    <glyph glyph-name="Idieresis" unicode="&#xcf;" horiz-adv-x="276" 
d="M192 745v-745h-108v745h108zM21 920q25 0 42 -17t17 -42q0 -24 -17 -41.5t-42 -17.5t-42.5 17.5t-17.5 41.5q0 25 17.5 42t42.5 17zM257 920q25 0 42 -17t17 -42q0 -24 -17 -41.5t-42 -17.5t-42.5 17.5t-17.5 41.5q0 25 17.5 42t42.5 17z" />
    <glyph glyph-name="Eth" unicode="&#xd0;" horiz-adv-x="793" 
d="M757 373q0 -106 -47.5 -191t-139.5 -133.5t-221 -48.5h-229v327h-102v92h102v326h231q128 0 219.5 -48.5t139 -133t47.5 -190.5zM642 373q0 81 -34 144.5t-99.5 99.5t-156.5 36h-124v-234h147v-92h-147v-235h124q91 0 156.5 36t99.5 100t34 145z" />
    <glyph glyph-name="Ntilde" unicode="&#xd1;" horiz-adv-x="756" 
d="M188 572v-572h-104v745h102l382 -572v572h104v-745h-102zM576 917q-10 -60 -44.5 -87.5t-75.5 -27.5q-23 0 -40 7t-38 20q-3 1 -13 7t-19 8.5t-16 2.5q-38 0 -48 -45h-76q9 61 44.5 88t76.5 27q21 0 37.5 -6.5t36.5 -18.5q17 -10 27.5 -14.5t22.5 -4.5q39 0 50 44h75z
" />
    <glyph glyph-name="Ograve" unicode="&#xd2;" horiz-adv-x="847" 
d="M423 756q110 0 197.5 -50.5t136.5 -138t49 -195.5t-49 -196t-136.5 -138.5t-197.5 -50.5t-197 50.5t-136 138.5t-49 196t49 195.5t136 138t197 50.5zM423 658q-78 0 -139 -37t-94.5 -102.5t-33.5 -146.5q0 -82 33.5 -147.5t94.5 -102.5t139 -37t139 37t95 102.5t34 147.5
q0 81 -34 146.5t-95 102.5t-139 37zM493 803h-127l-138 113h134z" />
    <glyph glyph-name="Oacute" unicode="&#xd3;" horiz-adv-x="847" 
d="M423 756q110 0 197.5 -50.5t136.5 -138t49 -195.5t-49 -196t-136.5 -138.5t-197.5 -50.5t-197 50.5t-136 138.5t-49 196t49 195.5t136 138t197 50.5zM423 658q-78 0 -139 -37t-94.5 -102.5t-33.5 -146.5q0 -82 33.5 -147.5t94.5 -102.5t139 -37t139 37t95 102.5t34 147.5
q0 81 -34 146.5t-95 102.5t-139 37zM370 803l131 113h134l-138 -113h-127z" />
    <glyph glyph-name="Ocircumflex" unicode="&#xd4;" horiz-adv-x="847" 
d="M501 803l-77 62l-79 -62h-116l137 113h118l134 -113h-117zM423 756q110 0 197.5 -50.5t136.5 -138t49 -195.5t-49 -196t-136.5 -138.5t-197.5 -50.5t-197 50.5t-136 138.5t-49 196t49 195.5t136 138t197 50.5zM423 658q-78 0 -139 -37t-94.5 -102.5t-33.5 -146.5
q0 -82 33.5 -147.5t94.5 -102.5t139 -37t139 37t95 102.5t34 147.5q0 81 -34 146.5t-95 102.5t-139 37z" />
    <glyph glyph-name="Otilde" unicode="&#xd5;" horiz-adv-x="847" 
d="M608 917q-10 -60 -44.5 -87.5t-75.5 -27.5q-23 0 -40 7t-38 20q-3 1 -13 7t-19 8.5t-16 2.5q-38 0 -48 -45h-76q9 61 44.5 88t76.5 27q21 0 37.5 -6.5t36.5 -18.5q17 -10 27.5 -14.5t22.5 -4.5q39 0 50 44h75zM423 756q110 0 197.5 -50.5t136.5 -138t49 -195.5t-49 -196
t-136.5 -138.5t-197.5 -50.5t-197 50.5t-136 138.5t-49 196t49 195.5t136 138t197 50.5zM423 658q-78 0 -139 -37t-94.5 -102.5t-33.5 -146.5q0 -82 33.5 -147.5t94.5 -102.5t139 -37t139 37t95 102.5t34 147.5q0 81 -34 146.5t-95 102.5t-139 37z" />
    <glyph glyph-name="Odieresis" unicode="&#xd6;" horiz-adv-x="847" 
d="M306 920q25 0 42 -17t17 -42q0 -24 -17 -41.5t-42 -17.5t-42.5 17.5t-17.5 41.5q0 25 17.5 42t42.5 17zM542 920q25 0 42 -17t17 -42q0 -24 -17 -41.5t-42 -17.5t-42.5 17.5t-17.5 41.5q0 25 17.5 42t42.5 17zM423 756q110 0 197.5 -50.5t136.5 -138t49 -195.5t-49 -196
t-136.5 -138.5t-197.5 -50.5t-197 50.5t-136 138.5t-49 196t49 195.5t136 138t197 50.5zM423 658q-78 0 -139 -37t-94.5 -102.5t-33.5 -146.5q0 -82 33.5 -147.5t94.5 -102.5t139 -37t139 37t95 102.5t34 147.5q0 81 -34 146.5t-95 102.5t-139 37z" />
    <glyph glyph-name="multiply" unicode="&#xd7;" horiz-adv-x="690" 
d="M576 211l-64 -64l-172 171l-171 -171l-60 60l171 172l-170 170l64 64l170 -170l172 171l60 -60l-172 -171z" />
    <glyph glyph-name="Oslash" unicode="&#xd8;" horiz-adv-x="847" 
d="M806 372q0 -108 -49 -196t-136.5 -138.5t-197.5 -50.5q-67 0 -126 19t-107 55l-83 -98l-50 43l84 99q-48 52 -74 120.5t-26 146.5q0 108 49 195.5t136 138t197 50.5q121 0 216 -62l73 86l51 -42l-72 -85q55 -52 85 -124.5t30 -156.5zM212 189l360 426q-65 43 -149 43
q-78 0 -139 -37t-94.5 -102.5t-33.5 -146.5q0 -107 56 -183zM691 372q0 59 -18 109.5t-51 89.5l-365 -430q70 -56 166 -56q78 0 139 37t95 102.5t34 147.5z" />
    <glyph glyph-name="Ugrave" unicode="&#xd9;" horiz-adv-x="733" 
d="M78 745h108v-467q0 -95 46.5 -145.5t133.5 -50.5q88 0 134.5 50.5t46.5 145.5v467h108v-474q0 -86 -36 -150.5t-101 -99t-152 -34.5q-86 0 -151.5 34t-101 98t-35.5 152v474zM451 803h-127l-138 113h134z" />
    <glyph glyph-name="Uacute" unicode="&#xda;" horiz-adv-x="733" 
d="M78 745h108v-467q0 -95 46.5 -145.5t133.5 -50.5q88 0 134.5 50.5t46.5 145.5v467h108v-474q0 -86 -36 -150.5t-101 -99t-152 -34.5q-86 0 -151.5 34t-101 98t-35.5 152v474zM280 803l131 113h134l-138 -113h-127z" />
    <glyph glyph-name="Ucircumflex" unicode="&#xdb;" horiz-adv-x="733" 
d="M444 803l-77 62l-79 -62h-116l137 113h118l134 -113h-117zM78 745h108v-467q0 -95 46.5 -145.5t133.5 -50.5q88 0 134.5 50.5t46.5 145.5v467h108v-474q0 -86 -36 -150.5t-101 -99t-152 -34.5q-86 0 -151.5 34t-101 98t-35.5 152v474z" />
    <glyph glyph-name="Udieresis" unicode="&#xdc;" horiz-adv-x="733" 
d="M248 920q25 0 42 -17t17 -42q0 -24 -17 -41.5t-42 -17.5t-42.5 17.5t-17.5 41.5q0 25 17.5 42t42.5 17zM484 920q25 0 42 -17t17 -42q0 -24 -17 -41.5t-42 -17.5t-42.5 17.5t-17.5 41.5q0 25 17.5 42t42.5 17zM78 745h108v-467q0 -95 46.5 -145.5t133.5 -50.5
q88 0 134.5 50.5t46.5 145.5v467h108v-474q0 -86 -36 -150.5t-101 -99t-152 -34.5q-86 0 -151.5 34t-101 98t-35.5 152v474z" />
    <glyph glyph-name="Yacute" unicode="&#xdd;" horiz-adv-x="742" 
d="M369 439l237 306h128l-314 -400v-345h-109v347l-303 398h129zM302 803l131 113h134l-138 -113h-127z" />
    <glyph glyph-name="Thorn" unicode="&#xde;" horiz-adv-x="647" 
d="M193 745v-153h168q126 0 195 -59.5t69 -158.5q0 -64 -30.5 -113t-90 -77t-143.5 -28h-168v-156h-109v745h109zM512 374q0 59 -41.5 93t-118.5 34h-159v-252h159q77 0 118.5 33.5t41.5 91.5z" />
    <glyph glyph-name="germandbls" unicode="&#xdf;" horiz-adv-x="653" 
d="M77 482q0 72 12.5 116t37.5 73q63 75 205 75q103 0 166.5 -47t63.5 -134q0 -57 -26 -96t-65 -55q61 -17 100 -68.5t39 -131.5q0 -111 -72 -169t-189 -58q-60 0 -111 11l17 89q42 -13 94 -13q68 0 111 34.5t43 103.5q0 77 -51.5 112t-141.5 35h-15v90h13q73 0 111.5 27
t38.5 81q0 50 -34 78t-94 28q-85 0 -120 -48q-15 -20 -22 -51t-7 -84v-480h-104v482z" />
    <glyph glyph-name="agrave" unicode="&#xe0;" horiz-adv-x="569" 
d="M234 -13q-58 0 -100.5 22.5t-64.5 59.5t-22 79q0 79 60 117t179 59q46 8 69 15.5t34 19t11 32.5q0 38 -29 60.5t-81 22.5q-60 0 -96.5 -30.5t-38.5 -82.5h-95q1 55 29 98.5t79.5 68.5t119.5 25q100 0 157.5 -45.5t57.5 -155.5v-352h-95v69q-24 -37 -68 -59.5t-106 -22.5z
M266 245q-63 -17 -86.5 -38t-23.5 -54q0 -39 29 -62.5t74 -23.5q68 0 107 34t39 102v86q-31 -15 -82 -28.5t-57 -15.5zM229 745l127 -116h-125l-133 116h131z" />
    <glyph glyph-name="aacute" unicode="&#xe1;" horiz-adv-x="569" 
d="M234 -13q-58 0 -100.5 22.5t-64.5 59.5t-22 79q0 79 60 117t179 59q46 8 69 15.5t34 19t11 32.5q0 38 -29 60.5t-81 22.5q-60 0 -96.5 -30.5t-38.5 -82.5h-95q1 55 29 98.5t79.5 68.5t119.5 25q100 0 157.5 -45.5t57.5 -155.5v-352h-95v69q-24 -37 -68 -59.5t-106 -22.5z
M266 245q-63 -17 -86.5 -38t-23.5 -54q0 -39 29 -62.5t74 -23.5q68 0 107 34t39 102v86q-31 -15 -82 -28.5t-57 -15.5zM489 745l-132 -116h-126l127 116h131z" />
    <glyph glyph-name="acircumflex" unicode="&#xe2;" horiz-adv-x="569" 
d="M234 -13q-58 0 -100.5 22.5t-64.5 59.5t-22 79q0 79 60 117t179 59q46 8 69 15.5t34 19t11 32.5q0 38 -29 60.5t-81 22.5q-60 0 -96.5 -30.5t-38.5 -82.5h-95q1 55 29 98.5t79.5 68.5t119.5 25q100 0 157.5 -45.5t57.5 -155.5v-352h-95v69q-24 -37 -68 -59.5t-106 -22.5z
M266 245q-63 -17 -86.5 -38t-23.5 -54q0 -39 29 -62.5t74 -23.5q68 0 107 34t39 102v86q-31 -15 -82 -28.5t-57 -15.5zM361 629l-74 58l-74 -58h-113l138 116h98l137 -116h-112z" />
    <glyph glyph-name="atilde" unicode="&#xe3;" horiz-adv-x="569" 
d="M234 -13q-58 0 -100.5 22.5t-64.5 59.5t-22 79q0 79 60 117t179 59q46 8 69 15.5t34 19t11 32.5q0 38 -29 60.5t-81 22.5q-60 0 -96.5 -30.5t-38.5 -82.5h-95q1 55 29 98.5t79.5 68.5t119.5 25q100 0 157.5 -45.5t57.5 -155.5v-352h-95v69q-24 -37 -68 -59.5t-106 -22.5z
M266 245q-63 -17 -86.5 -38t-23.5 -54q0 -39 29 -62.5t74 -23.5q68 0 107 34t39 102v86q-31 -15 -82 -28.5t-57 -15.5zM471 745q-10 -63 -43 -89t-75 -26q-22 0 -40 7t-40 20q-16 9 -27.5 14t-22.5 5q-40 0 -48 -46h-77q9 64 43 89.5t76 25.5q22 0 38 -6.5t39 -19.5
q16 -10 27 -15t24 -5q40 0 50 46h76z" />
    <glyph glyph-name="adieresis" unicode="&#xe4;" horiz-adv-x="569" 
d="M234 -13q-58 0 -100.5 22.5t-64.5 59.5t-22 79q0 79 60 117t179 59q46 8 69 15.5t34 19t11 32.5q0 38 -29 60.5t-81 22.5q-60 0 -96.5 -30.5t-38.5 -82.5h-95q1 55 29 98.5t79.5 68.5t119.5 25q100 0 157.5 -45.5t57.5 -155.5v-352h-95v69q-24 -37 -68 -59.5t-106 -22.5z
M266 245q-63 -17 -86.5 -38t-23.5 -54q0 -39 29 -62.5t74 -23.5q68 0 107 34t39 102v86q-31 -15 -82 -28.5t-57 -15.5zM162 753q25 0 42 -17t17 -42t-17 -42.5t-42 -17.5t-42.5 17.5t-17.5 42.5t17.5 42t42.5 17zM398 753q25 0 42 -17t17 -42t-17 -42.5t-42 -17.5
t-42.5 17.5t-17.5 42.5t17.5 42t42.5 17z" />
    <glyph glyph-name="aring" unicode="&#xe5;" horiz-adv-x="569" 
d="M234 -13q-58 0 -100.5 22.5t-64.5 59.5t-22 79q0 79 60 117t179 59q46 8 69 15.5t34 19t11 32.5q0 38 -29 60.5t-81 22.5q-60 0 -96.5 -30.5t-38.5 -82.5h-95q1 55 29 98.5t79.5 68.5t119.5 25q100 0 157.5 -45.5t57.5 -155.5v-352h-95v69q-24 -37 -68 -59.5t-106 -22.5z
M266 245q-63 -17 -86.5 -38t-23.5 -54q0 -39 29 -62.5t74 -23.5q68 0 107 34t39 102v86q-31 -15 -82 -28.5t-57 -15.5zM285 618q-39 0 -66 25t-27 62q0 38 27 62.5t66 24.5q38 0 65 -24.5t27 -62.5q0 -37 -26.5 -62t-65.5 -25zM285 662q18 0 31 12t13 31q0 20 -13 32t-31 12
t-31 -12t-13 -32q0 -19 13 -31t31 -12z" />
    <glyph glyph-name="ae" unicode="&#xe6;" horiz-adv-x="979" 
d="M457 105q-32 -59 -87 -88.5t-128 -29.5q-62 0 -106 22.5t-66.5 59t-22.5 77.5q0 77 58.5 115.5t180.5 60.5q47 9 69.5 15.5t34 18.5t11.5 34q0 37 -28.5 60.5t-81.5 23.5q-60 0 -97 -30.5t-39 -82.5h-95q1 53 29 97t79.5 69.5t119.5 25.5q145 0 186 -93q35 43 86.5 67
t114.5 24q82 0 144.5 -39t95 -109t30.5 -159h-442q7 -74 55 -122t120 -48q109 0 152 94h108q-26 -83 -96.5 -132t-166.5 -49q-72 0 -128 31t-90 87zM836 321q-9 67 -53.5 107t-108.5 40q-63 0 -109.5 -40.5t-58.5 -106.5h330zM266 245q-63 -17 -87 -37.5t-24 -55.5
q0 -38 29 -61.5t75 -23.5q68 0 107 34t39 102v85q-31 -14 -81.5 -27.5t-57.5 -15.5z" />
    <glyph glyph-name="ccedilla" unicode="&#xe7;" horiz-adv-x="615" 
d="M314 551q104 0 175.5 -58t91.5 -156h-108q-16 60 -57 92.5t-102 32.5q-52 0 -91 -25.5t-60.5 -69.5t-21.5 -98q0 -55 21.5 -98.5t60.5 -69t91 -25.5q61 0 103 33t56 92h108q-19 -97 -91 -155.5t-176 -58.5q-81 0 -145 36.5t-99.5 101t-35.5 144.5q0 79 35.5 143.5
t99.5 101.5t145 37zM271 -152q25 0 40.5 7t15.5 23q0 14 -11 21.5t-30 7.5q-28 0 -41 -9l-26 16l55 89h48l-35 -56q18 3 33 3q32 -1 53 -19.5t21 -48.5q0 -38 -32.5 -59t-77.5 -21q-49 0 -85 15l15 43q24 -12 57 -12z" />
    <glyph glyph-name="egrave" unicode="&#xe8;" horiz-adv-x="618" 
d="M584 244h-443q7 -74 55 -121.5t120 -47.5q109 0 152 93h109q-26 -83 -96.5 -132t-167.5 -49q-81 0 -144.5 36.5t-99 101t-35.5 144.5q0 79 35.5 143.5t99 101.5t144.5 37q83 0 145.5 -39t95 -109t30.5 -159zM474 321q-9 67 -53.5 106.5t-108.5 39.5t-110.5 -40.5
t-57.5 -105.5h330zM256 745l127 -116h-125l-133 116h131z" />
    <glyph glyph-name="eacute" unicode="&#xe9;" horiz-adv-x="618" 
d="M584 244h-443q7 -74 55 -121.5t120 -47.5q109 0 152 93h109q-26 -83 -96.5 -132t-167.5 -49q-81 0 -144.5 36.5t-99 101t-35.5 144.5q0 79 35.5 143.5t99 101.5t144.5 37q83 0 145.5 -39t95 -109t30.5 -159zM474 321q-9 67 -53.5 106.5t-108.5 39.5t-110.5 -40.5
t-57.5 -105.5h330zM526 745l-132 -116h-126l127 116h131z" />
    <glyph glyph-name="ecircumflex" unicode="&#xea;" horiz-adv-x="618" 
d="M383 629l-74 58l-74 -58h-113l138 116h98l137 -116h-112zM584 244h-443q7 -74 55 -121.5t120 -47.5q109 0 152 93h109q-26 -83 -96.5 -132t-167.5 -49q-81 0 -144.5 36.5t-99 101t-35.5 144.5q0 79 35.5 143.5t99 101.5t144.5 37q83 0 145.5 -39t95 -109t30.5 -159z
M474 321q-9 67 -53.5 106.5t-108.5 39.5t-110.5 -40.5t-57.5 -105.5h330z" />
    <glyph glyph-name="edieresis" unicode="&#xeb;" horiz-adv-x="618" 
d="M191 753q25 0 42 -17t17 -42t-17 -42.5t-42 -17.5t-42.5 17.5t-17.5 42.5t17.5 42t42.5 17zM427 753q25 0 42 -17t17 -42t-17 -42.5t-42 -17.5t-42.5 17.5t-17.5 42.5t17.5 42t42.5 17zM584 244h-443q7 -74 55 -121.5t120 -47.5q109 0 152 93h109q-26 -83 -96.5 -132
t-167.5 -49q-81 0 -144.5 36.5t-99 101t-35.5 144.5q0 79 35.5 143.5t99 101.5t144.5 37q83 0 145.5 -39t95 -109t30.5 -159zM474 321q-9 67 -53.5 106.5t-108.5 39.5t-110.5 -40.5t-57.5 -105.5h330z" />
    <glyph glyph-name="igrave" unicode="&#xec;" horiz-adv-x="258" 
d="M181 538v-538h-104v538h104zM62 745l127 -116h-125l-133 116h131z" />
    <glyph glyph-name="iacute" unicode="&#xed;" horiz-adv-x="258" 
d="M181 538v-538h-104v538h104zM333 745l-132 -116h-126l127 116h131z" />
    <glyph glyph-name="icircumflex" unicode="&#xee;" horiz-adv-x="258" 
d="M181 538v-538h-104v538h104zM204 629l-74 58l-74 -58h-113l138 116h98l137 -116h-112z" />
    <glyph glyph-name="idieresis" unicode="&#xef;" horiz-adv-x="258" 
d="M181 538v-538h-104v538h104zM12 753q25 0 42 -17t17 -42t-17 -42.5t-42 -17.5t-42.5 17.5t-17.5 42.5t17.5 42t42.5 17zM248 753q25 0 42 -17t17 -42t-17 -42.5t-42 -17.5t-42.5 17.5t-17.5 42.5t17.5 42t42.5 17z" />
    <glyph glyph-name="eth" unicode="&#xf0;" horiz-adv-x="584" 
d="M549 307q0 -104 -33.5 -176t-93 -108t-138.5 -36q-71 0 -128.5 34.5t-90.5 98.5t-33 149q0 83 33 147t88.5 98.5t121.5 34.5q54 0 93.5 -22t64.5 -57l1 1q-39 89 -133 156l-77 -47l-52 25l82 51q-24 15 -66 34l41 76q55 -24 107 -59l76 48l52 -28l-85 -52
q80 -67 125 -159t45 -209zM446 269q0 62 -21 105.5t-56.5 66t-78.5 22.5q-67 0 -110 -52.5t-43 -141.5q0 -90 42.5 -143t110.5 -53q42 0 77.5 22.5t57 67t21.5 106.5z" />
    <glyph glyph-name="ntilde" unicode="&#xf1;" 
d="M181 538v-69q47 82 156 82q92 0 138.5 -55.5t46.5 -155.5v-340h-104v320q0 73 -30.5 109t-84.5 36q-55 0 -88.5 -36.5t-33.5 -108.5v-320h-104v538h104zM497 745q-10 -63 -43 -89t-75 -26q-22 0 -40 7t-40 20q-16 9 -27.5 14t-22.5 5q-40 0 -48 -46h-77q9 64 43 89.5
t76 25.5q22 0 38 -6.5t39 -19.5q16 -10 27 -15t24 -5q40 0 50 46h76z" />
    <glyph glyph-name="ograve" unicode="&#xf2;" horiz-adv-x="632" 
d="M34 269q0 81 36 145t100.5 100.5t145.5 36.5t145.5 -36.5t100.5 -100.5t36 -145t-36 -145t-100.5 -100.5t-145.5 -36.5t-145.5 36.5t-100.5 100.5t-36 145zM141 269q0 -55 22 -99t61.5 -69t91.5 -25t91.5 25t61.5 69t22 99t-22 99t-61.5 69t-91.5 25t-91.5 -25t-61.5 -69
t-22 -99zM252 745l127 -116h-125l-133 116h131z" />
    <glyph glyph-name="oacute" unicode="&#xf3;" horiz-adv-x="632" 
d="M34 269q0 81 36 145t100.5 100.5t145.5 36.5t145.5 -36.5t100.5 -100.5t36 -145t-36 -145t-100.5 -100.5t-145.5 -36.5t-145.5 36.5t-100.5 100.5t-36 145zM141 269q0 -55 22 -99t61.5 -69t91.5 -25t91.5 25t61.5 69t22 99t-22 99t-61.5 69t-91.5 25t-91.5 -25t-61.5 -69
t-22 -99zM525 745l-132 -116h-126l127 116h131z" />
    <glyph glyph-name="ocircumflex" unicode="&#xf4;" horiz-adv-x="632" 
d="M391 629l-74 58l-74 -58h-113l138 116h98l137 -116h-112zM34 269q0 81 36 145t100.5 100.5t145.5 36.5t145.5 -36.5t100.5 -100.5t36 -145t-36 -145t-100.5 -100.5t-145.5 -36.5t-145.5 36.5t-100.5 100.5t-36 145zM141 269q0 -55 22 -99t61.5 -69t91.5 -25t91.5 25
t61.5 69t22 99t-22 99t-61.5 69t-91.5 25t-91.5 -25t-61.5 -69t-22 -99z" />
    <glyph glyph-name="otilde" unicode="&#xf5;" horiz-adv-x="632" 
d="M34 269q0 81 36 145t100.5 100.5t145.5 36.5t145.5 -36.5t100.5 -100.5t36 -145t-36 -145t-100.5 -100.5t-145.5 -36.5t-145.5 36.5t-100.5 100.5t-36 145zM141 269q0 -55 22 -99t61.5 -69t91.5 -25t91.5 25t61.5 69t22 99t-22 99t-61.5 69t-91.5 25t-91.5 -25t-61.5 -69
t-22 -99zM501 745q-10 -63 -43 -89t-75 -26q-22 0 -40 7t-40 20q-16 9 -27.5 14t-22.5 5q-40 0 -48 -46h-77q9 64 43 89.5t76 25.5q22 0 38 -6.5t39 -19.5q16 -10 27 -15t24 -5q40 0 50 46h76z" />
    <glyph glyph-name="odieresis" unicode="&#xf6;" horiz-adv-x="632" 
d="M198 753q25 0 42 -17t17 -42t-17 -42.5t-42 -17.5t-42.5 17.5t-17.5 42.5t17.5 42t42.5 17zM434 753q25 0 42 -17t17 -42t-17 -42.5t-42 -17.5t-42.5 17.5t-17.5 42.5t17.5 42t42.5 17zM34 269q0 81 36 145t100.5 100.5t145.5 36.5t145.5 -36.5t100.5 -100.5t36 -145
t-36 -145t-100.5 -100.5t-145.5 -36.5t-145.5 36.5t-100.5 100.5t-36 145zM141 269q0 -55 22 -99t61.5 -69t91.5 -25t91.5 25t61.5 69t22 99t-22 99t-61.5 69t-91.5 25t-91.5 -25t-61.5 -69t-22 -99z" />
    <glyph glyph-name="oslash" unicode="&#xf8;" horiz-adv-x="633" 
d="M598 269q0 -81 -36 -145t-100.5 -100.5t-145.5 -36.5q-94 0 -164 48l-72 -83l-44 39l71 82q-35 38 -54 88t-19 108q0 81 36 145t100.5 100.5t145.5 36.5q92 0 163 -47l68 79l46 -39l-68 -79q35 -38 54 -88t19 -108zM174 151l242 280q-43 31 -100 31q-52 0 -91.5 -25
t-61.5 -69t-22 -99q0 -68 33 -118zM491 269q0 67 -33 119l-243 -280q45 -32 101 -32q52 0 91.5 25t61.5 69t22 99z" />
    <glyph glyph-name="ugrave" unicode="&#xf9;" horiz-adv-x="595" 
d="M66 221v317h104v-313q0 -78 32 -113q32 -36 96 -36q63 0 96 36q32 37 32 113v313h104v-317q0 -66 -16 -110t-49 -72q-58 -52 -167 -52q-110 0 -168 52q-33 28 -48.5 72t-15.5 110zM252 745l127 -116h-125l-133 116h131z" />
    <glyph glyph-name="uacute" unicode="&#xfa;" horiz-adv-x="595" 
d="M66 221v317h104v-313q0 -78 32 -113q32 -36 96 -36q63 0 96 36q32 37 32 113v313h104v-317q0 -66 -16 -110t-49 -72q-58 -52 -167 -52q-110 0 -168 52q-33 28 -48.5 72t-15.5 110zM491 745l-132 -116h-126l127 116h131z" />
    <glyph glyph-name="ucircumflex" unicode="&#xfb;" horiz-adv-x="595" 
d="M371 629l-74 58l-74 -58h-113l138 116h98l137 -116h-112zM66 221v317h104v-313q0 -78 32 -113q32 -36 96 -36q63 0 96 36q32 37 32 113v313h104v-317q0 -66 -16 -110t-49 -72q-58 -52 -167 -52q-110 0 -168 52q-33 28 -48.5 72t-15.5 110z" />
    <glyph glyph-name="udieresis" unicode="&#xfc;" horiz-adv-x="595" 
d="M180 753q25 0 42 -17t17 -42t-17 -42.5t-42 -17.5t-42.5 17.5t-17.5 42.5t17.5 42t42.5 17zM416 753q25 0 42 -17t17 -42t-17 -42.5t-42 -17.5t-42.5 17.5t-17.5 42.5t17.5 42t42.5 17zM66 221v317h104v-313q0 -78 32 -113q32 -36 96 -36q63 0 96 36q32 37 32 113v313
h104v-317q0 -66 -16 -110t-49 -72q-58 -52 -167 -52q-110 0 -168 52q-33 28 -48.5 72t-15.5 110z" />
    <glyph glyph-name="yacute" unicode="&#xfd;" horiz-adv-x="552" 
d="M14 538h114l150 -403l153 403h107l-290 -733h-107l80 204zM465 745l-132 -116h-126l127 116h131z" />
    <glyph glyph-name="thorn" unicode="&#xfe;" horiz-adv-x="656" 
d="M77 -195v940h104v-286q28 44 77.5 68t105.5 24q71 0 130 -36t93.5 -100.5t34.5 -145.5t-34.5 -145.5t-93.5 -100.5t-130 -36q-56 0 -105.5 24t-77.5 68v-274h-104zM345 465q-50 0 -88.5 -24.5t-60 -69t-21.5 -102.5t21.5 -102.5t60 -69t88.5 -24.5q49 0 87.5 24.5
t60.5 69t22 102.5t-22 102.5t-60.5 69t-87.5 24.5z" />
    <glyph glyph-name="ydieresis" unicode="&#xff;" horiz-adv-x="552" 
d="M14 538h114l150 -403l153 403h107l-290 -733h-107l80 204zM165 753q25 0 42 -17t17 -42t-17 -42.5t-42 -17.5t-42.5 17.5t-17.5 42.5t17.5 42t42.5 17zM401 753q25 0 42 -17t17 -42t-17 -42.5t-42 -17.5t-42.5 17.5t-17.5 42.5t17.5 42t42.5 17z" />
    <glyph glyph-name="Abreve" unicode="&#x102;" horiz-adv-x="730" 
d="M513 215h-300l-81 -215h-110l287 745h112l287 -745h-114zM477 310l-114 303l-114 -303h228zM363 798q-71 0 -114 31t-47 87h80q7 -56 82 -56q76 0 83 56h80q-5 -57 -47.5 -87.5t-116.5 -30.5z" />
    <glyph glyph-name="Amacron" unicode="&#x100;" horiz-adv-x="730" 
d="M513 215h-300l-81 -215h-110l287 745h112l287 -745h-114zM477 310l-114 303l-114 -303h228zM211 901h307v-79h-307v79z" />
    <glyph glyph-name="Aogonek" unicode="&#x104;" horiz-adv-x="730" 
d="M664 -120q20 0 44 8v-67q-35 -9 -66 -9q-53 0 -88.5 23t-35.5 68q0 61 76 97l-81 215h-300l-81 -215h-110l287 745h112l287 -745q-46 -21 -69.5 -39.5t-23.5 -39.5q0 -20 13.5 -30.5t35.5 -10.5zM477 310l-114 303l-114 -303h228z" />
    <glyph glyph-name="Cacute" unicode="&#x106;" horiz-adv-x="822" 
d="M421 756q90 0 165 -35t125.5 -98.5t69.5 -145.5h-117q-24 85 -87.5 133t-154.5 48q-78 0 -138.5 -37.5t-94 -102.5t-33.5 -146t33.5 -146.5t94 -103t138.5 -37.5q91 0 155 48t88 134h116q-18 -83 -68.5 -146.5t-125.5 -98.5t-166 -35q-109 0 -196 50.5t-135.5 138.5
t-48.5 196q0 107 48.5 195t135.5 138.5t196 50.5zM360 803l131 113h134l-138 -113h-127z" />
    <glyph glyph-name="Ccaron" unicode="&#x10c;" horiz-adv-x="822" 
d="M339 916l79 -62l77 62h117l-136 -113h-117l-136 113h116zM421 756q90 0 165 -35t125.5 -98.5t69.5 -145.5h-117q-24 85 -87.5 133t-154.5 48q-78 0 -138.5 -37.5t-94 -102.5t-33.5 -146t33.5 -146.5t94 -103t138.5 -37.5q91 0 155 48t88 134h116q-18 -83 -68.5 -146.5
t-125.5 -98.5t-166 -35q-109 0 -196 50.5t-135.5 138.5t-48.5 196q0 107 48.5 195t135.5 138.5t196 50.5z" />
    <glyph glyph-name="Ccircumflex" unicode="&#x108;" horiz-adv-x="822" 
d="M421 756q90 0 165 -35t125.5 -98.5t69.5 -145.5h-117q-24 85 -87.5 133t-154.5 48q-78 0 -138.5 -37.5t-94 -102.5t-33.5 -146t33.5 -146.5t94 -103t138.5 -37.5q91 0 155 48t88 134h116q-18 -83 -68.5 -146.5t-125.5 -98.5t-166 -35q-109 0 -196 50.5t-135.5 138.5
t-48.5 196q0 107 48.5 195t135.5 138.5t196 50.5zM497 803l-77 62l-79 -62h-116l137 113h118l134 -113h-117z" />
    <glyph glyph-name="Cdotaccent" unicode="&#x10a;" horiz-adv-x="822" 
d="M421 756q90 0 165 -35t125.5 -98.5t69.5 -145.5h-117q-24 85 -87.5 133t-154.5 48q-78 0 -138.5 -37.5t-94 -102.5t-33.5 -146t33.5 -146.5t94 -103t138.5 -37.5q91 0 155 48t88 134h116q-18 -83 -68.5 -146.5t-125.5 -98.5t-166 -35q-109 0 -196 50.5t-135.5 138.5
t-48.5 196q0 107 48.5 195t135.5 138.5t196 50.5zM412 920q25 0 42 -17t17 -42q0 -24 -17 -41.5t-42 -17.5t-42 17.5t-17 41.5q0 25 17 42t42 17z" />
    <glyph glyph-name="Dcaron" unicode="&#x10e;" horiz-adv-x="756" 
d="M315 745q128 0 219.5 -48.5t139 -133t47.5 -190.5t-47.5 -191t-139.5 -133.5t-221 -48.5h-229v745h231zM192 92h124q91 0 156.5 36t99.5 100t34 145t-34 144.5t-99.5 99.5t-156.5 36h-124v-561zM269 916l79 -62l77 62h117l-136 -113h-117l-136 113h116z" />
    <glyph glyph-name="Dcroat" unicode="&#x110;" horiz-adv-x="793" 
d="M757 373q0 -106 -47.5 -191t-139.5 -133.5t-221 -48.5h-229v327h-102v92h102v326h231q128 0 219.5 -48.5t139 -133t47.5 -190.5zM642 373q0 81 -34 144.5t-99.5 99.5t-156.5 36h-124v-234h147v-92h-147v-235h124q91 0 156.5 36t99.5 100t34 145z" />
    <glyph glyph-name="Ebreve" unicode="&#x114;" 
d="M534 745v-95h-342v-221h285v-95h-285v-239h342v-95h-450v745h450zM311 798q-71 0 -114 31t-47 87h80q7 -56 82 -56q76 0 83 56h80q-5 -57 -47.5 -87.5t-116.5 -30.5z" />
    <glyph glyph-name="Ecaron" unicode="&#x11a;" 
d="M534 745v-95h-342v-221h285v-95h-285v-239h342v-95h-450v745h450zM235 916l79 -62l77 62h117l-136 -113h-117l-136 113h116z" />
    <glyph glyph-name="Emacron" unicode="&#x112;" 
d="M534 745v-95h-342v-221h285v-95h-285v-239h342v-95h-450v745h450zM159 901h307v-79h-307v79z" />
    <glyph glyph-name="Eogonek" unicode="&#x118;" 
d="M441 -79q0 -20 13.5 -30.5t35.5 -10.5q20 0 44 8v-67q-32 -9 -67 -9q-51 0 -87 23.5t-36 67.5q0 63 81 97h109q-46 -21 -69.5 -39.5t-23.5 -39.5zM534 745v-95h-342v-221h285v-95h-285v-239h342v-95h-450v745h450z" />
    <glyph glyph-name="Edotaccent" unicode="&#x116;" 
d="M534 745v-95h-342v-221h285v-95h-285v-239h342v-95h-450v745h450zM311 920q25 0 42 -17t17 -42q0 -24 -17 -41.5t-42 -17.5t-42 17.5t-17 41.5q0 25 17 42t42 17z" />
    <glyph glyph-name="Gbreve" unicode="&#x11e;" horiz-adv-x="861" 
d="M421 -13q-109 0 -196 50.5t-135.5 138.5t-48.5 196q0 107 48.5 195t135 138.5t194.5 50.5q91 0 165.5 -33.5t125 -94t68.5 -139.5h-115q-25 80 -88 124.5t-154 44.5q-79 0 -139 -37.5t-93 -103t-33 -145.5q0 -81 32.5 -146.5t93 -103t140.5 -37.5q109 0 176 54.5
t73 154.5h-297v96h403v-390h-101v111q-39 -59 -105 -91.5t-150 -32.5zM417 798q-71 0 -114 31t-47 87h80q7 -56 82 -56q76 0 83 56h80q-5 -57 -47.5 -87.5t-116.5 -30.5z" />
    <glyph glyph-name="Gcircumflex" unicode="&#x11c;" horiz-adv-x="861" 
d="M421 -13q-109 0 -196 50.5t-135.5 138.5t-48.5 196q0 107 48.5 195t135 138.5t194.5 50.5q91 0 165.5 -33.5t125 -94t68.5 -139.5h-115q-25 80 -88 124.5t-154 44.5q-79 0 -139 -37.5t-93 -103t-33 -145.5q0 -81 32.5 -146.5t93 -103t140.5 -37.5q109 0 176 54.5
t73 154.5h-297v96h403v-390h-101v111q-39 -59 -105 -91.5t-150 -32.5zM496 803l-77 62l-79 -62h-116l137 113h118l134 -113h-117z" />
    <glyph glyph-name="uni0122" unicode="&#x122;" horiz-adv-x="861" 
d="M421 -13q-109 0 -196 50.5t-135.5 138.5t-48.5 196q0 107 48.5 195t135 138.5t194.5 50.5q91 0 165.5 -33.5t125 -94t68.5 -139.5h-115q-25 80 -88 124.5t-154 44.5q-79 0 -139 -37.5t-93 -103t-33 -145.5q0 -81 32.5 -146.5t93 -103t140.5 -37.5q109 0 176 54.5
t73 154.5h-297v96h403v-390h-101v111q-39 -59 -105 -91.5t-150 -32.5zM399 -173q-17 5 -27.5 19.5t-10.5 34.5q0 23 17 40t41 17q23 0 40 -17t17 -40q0 -16 -7 -31.5t-30 -54.5l-43 -78h-57z" />
    <glyph glyph-name="Gdotaccent" unicode="&#x120;" horiz-adv-x="861" 
d="M421 -13q-109 0 -196 50.5t-135.5 138.5t-48.5 196q0 107 48.5 195t135 138.5t194.5 50.5q91 0 165.5 -33.5t125 -94t68.5 -139.5h-115q-25 80 -88 124.5t-154 44.5q-79 0 -139 -37.5t-93 -103t-33 -145.5q0 -81 32.5 -146.5t93 -103t140.5 -37.5q109 0 176 54.5
t73 154.5h-297v96h403v-390h-101v111q-39 -59 -105 -91.5t-150 -32.5zM418 920q25 0 42 -17t17 -42q0 -24 -17 -41.5t-42 -17.5t-42 17.5t-17 41.5q0 25 17 42t42 17z" />
    <glyph glyph-name="Hbar" unicode="&#x126;" horiz-adv-x="800" 
d="M775 527h-84v-527h-108v334h-368v-334h-108v527h-83v84h83v134h108v-134h368v134h108v-134h84v-84zM583 527h-368v-98h368v98z" />
    <glyph glyph-name="Hcircumflex" unicode="&#x124;" horiz-adv-x="752" 
d="M192 745v-316h368v316h108v-745h-108v334h-368v-334h-108v745h108zM454 803l-77 62l-79 -62h-116l137 113h118l134 -113h-117z" />
    <glyph glyph-name="Ibreve" unicode="&#x12c;" horiz-adv-x="276" 
d="M192 745v-745h-108v745h108zM137 798q-71 0 -114 31t-47 87h80q7 -56 82 -56q76 0 83 56h80q-5 -57 -47.5 -87.5t-116.5 -30.5z" />
    <glyph glyph-name="Idotaccent" unicode="&#x130;" horiz-adv-x="276" 
d="M192 745v-745h-108v745h108zM138 920q25 0 42 -17t17 -42q0 -24 -17 -41.5t-42 -17.5t-42 17.5t-17 41.5q0 25 17 42t42 17z" />
    <glyph glyph-name="Imacron" unicode="&#x12a;" horiz-adv-x="276" 
d="M192 745v-745h-108v745h108zM-15 901h307v-79h-307v79z" />
    <glyph glyph-name="Iogonek" unicode="&#x12e;" horiz-adv-x="276" 
d="M192 745v-745h-108v745h108zM101 -79q0 -20 13.5 -30.5t35.5 -10.5q20 0 44 8v-67q-32 -9 -67 -9q-51 0 -87 23.5t-36 67.5q0 63 81 97h109q-46 -21 -69.5 -39.5t-23.5 -39.5z" />
    <glyph glyph-name="Itilde" unicode="&#x128;" horiz-adv-x="276" 
d="M192 745v-745h-108v745h108zM324 917q-10 -60 -44.5 -87.5t-75.5 -27.5q-23 0 -40 7t-38 20q-3 1 -13 7t-19 8.5t-16 2.5q-38 0 -48 -45h-76q9 61 44.5 88t76.5 27q21 0 37.5 -6.5t36.5 -18.5q17 -10 27.5 -14.5t22.5 -4.5q39 0 50 44h75z" />
    <glyph glyph-name="uni1ECA" unicode="&#x1eca;" horiz-adv-x="276" 
d="M192 745v-745h-108v745h108zM138 -63q25 0 42 -17.5t17 -41.5q0 -25 -17 -42.5t-42 -17.5t-42.5 17.5t-17.5 42.5q0 24 17.5 41.5t42.5 17.5z" />
    <glyph glyph-name="Jcircumflex" unicode="&#x134;" horiz-adv-x="563" 
d="M136 199q1 -58 33.5 -88.5t84.5 -30.5q50 0 84.5 29.5t34.5 93.5v447h-233v95h342v-529q0 -107 -63.5 -168t-167.5 -61q-70 0 -120.5 28t-77 76t-28.5 108h111zM393 803l-77 62l-79 -62h-116l137 113h118l134 -113h-117z" />
    <glyph glyph-name="uni0136" unicode="&#x136;" horiz-adv-x="689" 
d="M542 0l-350 324v-324h-108v745h108v-355l314 355h128l-337 -376l393 -369h-148zM335 -173q-17 5 -27.5 19.5t-10.5 34.5q0 23 17 40t41 17q23 0 40 -17t17 -40q0 -16 -7 -31.5t-30 -54.5l-43 -78h-57z" />
    <glyph glyph-name="Lacute" unicode="&#x139;" horiz-adv-x="521" 
d="M192 745v-650h310v-95h-418v745h108zM64 803l131 113h134l-138 -113h-127z" />
    <glyph glyph-name="Lcaron" unicode="&#x13d;" horiz-adv-x="521" 
d="M192 745v-650h310v-95h-418v745h108zM313 575l30 170h104l-63 -170h-71z" />
    <glyph glyph-name="uni013B" unicode="&#x13b;" horiz-adv-x="521" 
d="M192 745v-650h310v-95h-418v745h108zM276 -173q-17 5 -27.5 19.5t-10.5 34.5q0 23 17 40t41 17q23 0 40 -17t17 -40q0 -16 -7 -31.5t-30 -54.5l-43 -78h-57z" />
    <glyph glyph-name="Ldot" unicode="&#x13f;" horiz-adv-x="521" 
d="M192 745v-650h310v-95h-418v745h108zM375 493q25 0 42 -17t17 -42q0 -24 -17 -41.5t-42 -17.5t-42 17.5t-17 41.5q0 25 17 42t42 17z" />
    <glyph glyph-name="Lslash" unicode="&#x141;" horiz-adv-x="553" 
d="M534 95v-95h-418v286l-109 -68v100l109 69v358h108v-290l180 113v-102l-180 -112v-259h310z" />
    <glyph glyph-name="Nacute" unicode="&#x143;" horiz-adv-x="756" 
d="M188 572v-572h-104v745h102l382 -572v572h104v-745h-102zM298 803l131 113h134l-138 -113h-127z" />
    <glyph glyph-name="Ncaron" unicode="&#x147;" horiz-adv-x="756" 
d="M188 572v-572h-104v745h102l382 -572v572h104v-745h-102zM310 916l79 -62l77 62h117l-136 -113h-117l-136 113h116z" />
    <glyph glyph-name="uni0145" unicode="&#x145;" horiz-adv-x="756" 
d="M188 572v-572h-104v745h102l382 -572v572h104v-745h-102zM350 -173q-17 5 -27.5 19.5t-10.5 34.5q0 23 17 40t41 17q23 0 40 -17t17 -40q0 -16 -7 -31.5t-30 -54.5l-43 -78h-57z" />
    <glyph glyph-name="OE" unicode="&#x152;" horiz-adv-x="1192" 
d="M423 -13q-110 0 -197 50.5t-136 138.5t-49 196t49 195.5t136 138t197 50.5q81 0 146.5 -29.5t110.5 -83.5v102h451v-95h-342v-221h299v-95h-299v-239h342v-95h-451v100q-45 -54 -110.5 -83.5t-146.5 -29.5zM423 85q78 0 139 37t95 102.5t34 147.5q0 81 -34 146.5
t-95 102.5t-139 37t-139 -37t-94.5 -102.5t-33.5 -146.5q0 -82 33.5 -147.5t94.5 -102.5t139 -37z" />
    <glyph glyph-name="Obreve" unicode="&#x14e;" horiz-adv-x="847" 
d="M422 798q-71 0 -114 31t-47 87h80q7 -56 82 -56q76 0 83 56h80q-5 -57 -47.5 -87.5t-116.5 -30.5zM423 756q110 0 197.5 -50.5t136.5 -138t49 -195.5t-49 -196t-136.5 -138.5t-197.5 -50.5t-197 50.5t-136 138.5t-49 196t49 195.5t136 138t197 50.5zM423 658
q-78 0 -139 -37t-94.5 -102.5t-33.5 -146.5q0 -82 33.5 -147.5t94.5 -102.5t139 -37t139 37t95 102.5t34 147.5q0 81 -34 146.5t-95 102.5t-139 37z" />
    <glyph glyph-name="Ohungarumlaut" unicode="&#x150;" horiz-adv-x="847" 
d="M423 756q110 0 197.5 -50.5t136.5 -138t49 -195.5t-49 -196t-136.5 -138.5t-197.5 -50.5t-197 50.5t-136 138.5t-49 196t49 195.5t136 138t197 50.5zM423 658q-78 0 -139 -37t-94.5 -102.5t-33.5 -146.5q0 -82 33.5 -147.5t94.5 -102.5t139 -37t139 37t95 102.5t34 147.5
q0 81 -34 146.5t-95 102.5t-139 37zM275 803l131 113h134l-139 -113h-126zM471 803l131 113h134l-139 -113h-126z" />
    <glyph glyph-name="Omacron" unicode="&#x14c;" horiz-adv-x="847" 
d="M270 901h307v-79h-307v79zM423 756q110 0 197.5 -50.5t136.5 -138t49 -195.5t-49 -196t-136.5 -138.5t-197.5 -50.5t-197 50.5t-136 138.5t-49 196t49 195.5t136 138t197 50.5zM423 658q-78 0 -139 -37t-94.5 -102.5t-33.5 -146.5q0 -82 33.5 -147.5t94.5 -102.5t139 -37
t139 37t95 102.5t34 147.5q0 81 -34 146.5t-95 102.5t-139 37z" />
    <glyph glyph-name="uni1ECC" unicode="&#x1ecc;" horiz-adv-x="847" 
d="M424 -63q25 0 42 -17.5t17 -41.5q0 -25 -17 -42.5t-42 -17.5t-42.5 17.5t-17.5 42.5q0 24 17.5 41.5t42.5 17.5zM423 756q110 0 197.5 -50.5t136.5 -138t49 -195.5t-49 -196t-136.5 -138.5t-197.5 -50.5t-197 50.5t-136 138.5t-49 196t49 195.5t136 138t197 50.5z
M423 658q-78 0 -139 -37t-94.5 -102.5t-33.5 -146.5q0 -82 33.5 -147.5t94.5 -102.5t139 -37t139 37t95 102.5t34 147.5q0 81 -34 146.5t-95 102.5t-139 37z" />
    <glyph glyph-name="Racute" unicode="&#x154;" horiz-adv-x="700" 
d="M551 0l-286 325h-73v-325h-108v745h241q124 0 191 -56.5t67 -153.5q0 -81 -47 -134.5t-137 -69.5l294 -331h-142zM192 417h124q75 0 114 30t39 88t-39 88t-114 30h-124v-236zM227 803l131 113h134l-138 -113h-127z" />
    <glyph glyph-name="Rcaron" unicode="&#x158;" horiz-adv-x="700" 
d="M551 0l-286 325h-73v-325h-108v745h241q124 0 191 -56.5t67 -153.5q0 -81 -47 -134.5t-137 -69.5l294 -331h-142zM192 417h124q75 0 114 30t39 88t-39 88t-114 30h-124v-236zM229 916l79 -62l77 62h117l-136 -113h-117l-136 113h116z" />
    <glyph glyph-name="uni0156" unicode="&#x156;" horiz-adv-x="700" 
d="M551 0l-286 325h-73v-325h-108v745h241q124 0 191 -56.5t67 -153.5q0 -81 -47 -134.5t-137 -69.5l294 -331h-142zM192 417h124q75 0 114 30t39 88t-39 88t-114 30h-124v-236zM336 -173q-17 5 -27.5 19.5t-10.5 34.5q0 23 17 40t41 17q23 0 40 -17t17 -40q0 -16 -7 -31.5
t-30 -54.5l-43 -78h-57z" />
    <glyph glyph-name="Sacute" unicode="&#x15a;" horiz-adv-x="638" 
d="M146 230q26 -149 183 -149q65 0 112.5 29t47.5 89q0 51 -39 81t-110 46l-81 18q-94 21 -151.5 71t-57.5 136q0 66 36.5 112t96 69.5t127.5 23.5q69 0 127 -26.5t95.5 -75.5t46.5 -115h-110q-12 61 -56.5 91.5t-109.5 30.5q-61 0 -103 -27.5t-42 -78.5q0 -86 125 -113
l77 -17q108 -23 172 -73t64 -142q0 -71 -36.5 -121t-97.5 -76t-136 -26q-124 0 -200.5 66t-89.5 177h110zM242 803l131 113h134l-138 -113h-127z" />
    <glyph glyph-name="Scaron" unicode="&#x160;" horiz-adv-x="638" 
d="M146 230q26 -149 183 -149q65 0 112.5 29t47.5 89q0 51 -39 81t-110 46l-81 18q-94 21 -151.5 71t-57.5 136q0 66 36.5 112t96 69.5t127.5 23.5q69 0 127 -26.5t95.5 -75.5t46.5 -115h-110q-12 61 -56.5 91.5t-109.5 30.5q-61 0 -103 -27.5t-42 -78.5q0 -86 125 -113
l77 -17q108 -23 172 -73t64 -142q0 -71 -36.5 -121t-97.5 -76t-136 -26q-124 0 -200.5 66t-89.5 177h110zM240 916l79 -62l77 62h117l-136 -113h-117l-136 113h116z" />
    <glyph glyph-name="Scedilla" unicode="&#x15e;" horiz-adv-x="638" 
d="M146 230q26 -149 183 -149q65 0 112.5 29t47.5 89q0 51 -39 81t-110 46l-81 18q-94 21 -151.5 71t-57.5 136q0 66 36.5 112t96 69.5t127.5 23.5q69 0 127 -26.5t95.5 -75.5t46.5 -115h-110q-12 61 -56.5 91.5t-109.5 30.5q-61 0 -103 -27.5t-42 -78.5q0 -86 125 -113
l77 -17q108 -23 172 -73t64 -142q0 -71 -36.5 -121t-97.5 -76t-136 -26q-124 0 -200.5 66t-89.5 177h110zM286 -152q24 0 40 7.5t16 23.5q0 14 -11 21.5t-30 7.5q-28 0 -41 -9l-26 16l55 89h48l-35 -56q12 2 33 2q32 0 53 -18.5t21 -48.5q0 -38 -32.5 -59t-77.5 -21
q-49 0 -85 14l15 43q27 -12 57 -12z" />
    <glyph glyph-name="Scircumflex" unicode="&#x15c;" horiz-adv-x="638" 
d="M146 230q26 -149 183 -149q65 0 112.5 29t47.5 89q0 51 -39 81t-110 46l-81 18q-94 21 -151.5 71t-57.5 136q0 66 36.5 112t96 69.5t127.5 23.5q69 0 127 -26.5t95.5 -75.5t46.5 -115h-110q-12 61 -56.5 91.5t-109.5 30.5q-61 0 -103 -27.5t-42 -78.5q0 -86 125 -113
l77 -17q108 -23 172 -73t64 -142q0 -71 -36.5 -121t-97.5 -76t-136 -26q-124 0 -200.5 66t-89.5 177h110zM390 803l-77 62l-79 -62h-116l137 113h118l134 -113h-117z" />
    <glyph glyph-name="uni0218" unicode="&#x218;" horiz-adv-x="638" 
d="M146 230q26 -149 183 -149q65 0 112.5 29t47.5 89q0 51 -39 81t-110 46l-81 18q-94 21 -151.5 71t-57.5 136q0 66 36.5 112t96 69.5t127.5 23.5q69 0 127 -26.5t95.5 -75.5t46.5 -115h-110q-12 61 -56.5 91.5t-109.5 30.5q-61 0 -103 -27.5t-42 -78.5q0 -86 125 -113
l77 -17q108 -23 172 -73t64 -142q0 -71 -36.5 -121t-97.5 -76t-136 -26q-124 0 -200.5 66t-89.5 177h110zM304 -173q-17 5 -27.5 19.5t-10.5 34.5q0 23 17 40t41 17q23 0 40 -17t17 -40q0 -16 -7 -31.5t-30 -54.5l-43 -78h-57z" />
    <glyph glyph-name="Tcaron" unicode="&#x164;" horiz-adv-x="589" 
d="M14 650v95h561v-95h-227v-650h-108v650h-226zM216 916l79 -62l77 62h117l-136 -113h-117l-136 113h116z" />
    <glyph glyph-name="uni0162" unicode="&#x162;" horiz-adv-x="589" 
d="M14 650v95h561v-95h-227v-650h-108v650h-226zM270 -173q-17 5 -27.5 19.5t-10.5 34.5q0 23 17 40t41 17q23 0 40 -17t17 -40q0 -16 -7 -31.5t-30 -54.5l-43 -78h-57z" />
    <glyph glyph-name="uni021A" unicode="&#x21a;" horiz-adv-x="589" 
d="M14 650v95h561v-95h-227v-650h-108v650h-226zM270 -173q-17 5 -27.5 19.5t-10.5 34.5q0 23 17 40t41 17q23 0 40 -17t17 -40q0 -16 -7 -31.5t-30 -54.5l-43 -78h-57z" />
    <glyph glyph-name="Ubreve" unicode="&#x16c;" horiz-adv-x="733" 
d="M365 798q-71 0 -114 31t-47 87h80q7 -56 82 -56q76 0 83 56h80q-5 -57 -47.5 -87.5t-116.5 -30.5zM78 745h108v-467q0 -95 46.5 -145.5t133.5 -50.5q88 0 134.5 50.5t46.5 145.5v467h108v-474q0 -86 -36 -150.5t-101 -99t-152 -34.5q-86 0 -151.5 34t-101 98t-35.5 152
v474z" />
    <glyph glyph-name="Uhungarumlaut" unicode="&#x170;" horiz-adv-x="733" 
d="M78 745h108v-467q0 -95 46.5 -145.5t133.5 -50.5q88 0 134.5 50.5t46.5 145.5v467h108v-474q0 -86 -36 -150.5t-101 -99t-152 -34.5q-86 0 -151.5 34t-101 98t-35.5 152v474zM196 803l131 113h134l-139 -113h-126zM392 803l131 113h134l-139 -113h-126z" />
    <glyph glyph-name="Umacron" unicode="&#x16a;" horiz-adv-x="733" 
d="M213 901h307v-79h-307v79zM78 745h108v-467q0 -95 46.5 -145.5t133.5 -50.5q88 0 134.5 50.5t46.5 145.5v467h108v-474q0 -86 -36 -150.5t-101 -99t-152 -34.5q-86 0 -151.5 34t-101 98t-35.5 152v474z" />
    <glyph glyph-name="Uogonek" unicode="&#x172;" horiz-adv-x="733" 
d="M78 745h108v-467q0 -95 46.5 -145.5t133.5 -50.5q88 0 134.5 50.5t46.5 145.5v467h108v-474q0 -86 -36 -150.5t-101 -99t-152 -34.5q-86 0 -151.5 34t-101 98t-35.5 152v474zM354 -79q0 -20 13.5 -30.5t35.5 -10.5q20 0 44 8v-67q-32 -9 -67 -9q-51 0 -87 23.5t-36 67.5
q0 63 81 97h109q-46 -21 -69.5 -39.5t-23.5 -39.5z" />
    <glyph glyph-name="Uring" unicode="&#x16e;" horiz-adv-x="733" 
d="M78 745h108v-467q0 -95 46.5 -145.5t133.5 -50.5q88 0 134.5 50.5t46.5 145.5v467h108v-474q0 -86 -36 -150.5t-101 -99t-152 -34.5q-86 0 -151.5 34t-101 98t-35.5 152v474zM366 795q-38 0 -64 24.5t-26 60.5q0 37 26.5 61t63.5 24q38 0 64.5 -24t26.5 -61t-26 -61
t-65 -24zM366 836q18 0 32 12.5t14 31.5q0 20 -14 32.5t-32 12.5t-31.5 -12.5t-13.5 -32.5q0 -19 13.5 -31.5t31.5 -12.5z" />
    <glyph glyph-name="Utilde" unicode="&#x168;" horiz-adv-x="733" 
d="M78 745h108v-467q0 -95 46.5 -145.5t133.5 -50.5q88 0 134.5 50.5t46.5 145.5v467h108v-474q0 -86 -36 -150.5t-101 -99t-152 -34.5q-86 0 -151.5 34t-101 98t-35.5 152v474zM557 917q-10 -60 -44.5 -87.5t-75.5 -27.5q-23 0 -40 7t-38 20q-3 1 -13 7t-19 8.5t-16 2.5
q-38 0 -48 -45h-76q9 61 44.5 88t76.5 27q21 0 37.5 -6.5t36.5 -18.5q17 -10 27.5 -14.5t22.5 -4.5q39 0 50 44h75z" />
    <glyph glyph-name="uni1EE4" unicode="&#x1ee4;" horiz-adv-x="733" 
d="M78 745h108v-467q0 -95 46.5 -145.5t133.5 -50.5q88 0 134.5 50.5t46.5 145.5v467h108v-474q0 -86 -36 -150.5t-101 -99t-152 -34.5q-86 0 -151.5 34t-101 98t-35.5 152v474zM367 -63q25 0 42 -17.5t17 -41.5q0 -25 -17 -42.5t-42 -17.5t-42.5 17.5t-17.5 42.5
q0 24 17.5 41.5t42.5 17.5z" />
    <glyph glyph-name="Wacute" unicode="&#x1e82;" horiz-adv-x="989" 
d="M149 745l133 -597l151 597h123l157 -598l128 598h111l-168 -745h-127l-163 610l-162 -610h-128l-167 745h112zM436 803l131 113h134l-138 -113h-127z" />
    <glyph glyph-name="Wcircumflex" unicode="&#x174;" horiz-adv-x="989" 
d="M572 803l-77 62l-79 -62h-116l137 113h118l134 -113h-117zM149 745l133 -597l151 597h123l157 -598l128 598h111l-168 -745h-127l-163 610l-162 -610h-128l-167 745h112z" />
    <glyph glyph-name="Wdieresis" unicode="&#x1e84;" horiz-adv-x="989" 
d="M376 920q25 0 42 -17t17 -42q0 -24 -17 -41.5t-42 -17.5t-42.5 17.5t-17.5 41.5q0 25 17.5 42t42.5 17zM612 920q25 0 42 -17t17 -42q0 -24 -17 -41.5t-42 -17.5t-42.5 17.5t-17.5 41.5q0 25 17.5 42t42.5 17zM149 745l133 -597l151 597h123l157 -598l128 598h111
l-168 -745h-127l-163 610l-162 -610h-128l-167 745h112z" />
    <glyph glyph-name="Wgrave" unicode="&#x1e80;" horiz-adv-x="989" 
d="M149 745l133 -597l151 597h123l157 -598l128 598h111l-168 -745h-127l-163 610l-162 -610h-128l-167 745h112zM550 803h-127l-138 113h134z" />
    <glyph glyph-name="Ycircumflex" unicode="&#x176;" horiz-adv-x="742" 
d="M449 803l-77 62l-79 -62h-116l137 113h118l134 -113h-117zM369 439l237 306h128l-314 -400v-345h-109v347l-303 398h129z" />
    <glyph glyph-name="Ydieresis" unicode="&#x178;" horiz-adv-x="742" 
d="M253 920q25 0 42 -17t17 -42q0 -24 -17 -41.5t-42 -17.5t-42.5 17.5t-17.5 41.5q0 25 17.5 42t42.5 17zM489 920q25 0 42 -17t17 -42q0 -24 -17 -41.5t-42 -17.5t-42.5 17.5t-17.5 41.5q0 25 17.5 42t42.5 17zM369 439l237 306h128l-314 -400v-345h-109v347l-303 398h129
z" />
    <glyph glyph-name="Ygrave" unicode="&#x1ef2;" horiz-adv-x="742" 
d="M369 439l237 306h128l-314 -400v-345h-109v347l-303 398h129zM449 803h-127l-138 113h134z" />
    <glyph glyph-name="uni0232" unicode="&#x232;" horiz-adv-x="742" 
d="M217 901h307v-79h-307v79zM369 439l237 306h128l-314 -400v-345h-109v347l-303 398h129z" />
    <glyph glyph-name="Zacute" unicode="&#x179;" horiz-adv-x="657" 
d="M465 650h-404v95h536v-89l-423 -561h433v-95h-566v89zM243 803l131 113h134l-138 -113h-127z" />
    <glyph glyph-name="Zcaron" unicode="&#x17d;" horiz-adv-x="657" 
d="M465 650h-404v95h536v-89l-423 -561h433v-95h-566v89zM257 916l79 -62l77 62h117l-136 -113h-117l-136 113h116z" />
    <glyph glyph-name="Zdotaccent" unicode="&#x17b;" horiz-adv-x="657" 
d="M465 650h-404v95h536v-89l-423 -561h433v-95h-566v89zM328 920q25 0 42 -17t17 -42q0 -24 -17 -41.5t-42 -17.5t-42 17.5t-17 41.5q0 25 17 42t42 17z" />
    <glyph glyph-name="abreve" unicode="&#x103;" horiz-adv-x="569" 
d="M234 -13q-58 0 -100.5 22.5t-64.5 59.5t-22 79q0 79 60 117t179 59q46 8 69 15.5t34 19t11 32.5q0 38 -29 60.5t-81 22.5q-60 0 -96.5 -30.5t-38.5 -82.5h-95q1 55 29 98.5t79.5 68.5t119.5 25q100 0 157.5 -45.5t57.5 -155.5v-352h-95v69q-24 -37 -68 -59.5t-106 -22.5z
M266 245q-63 -17 -86.5 -38t-23.5 -54q0 -39 29 -62.5t74 -23.5q68 0 107 34t39 102v86q-31 -15 -82 -28.5t-57 -15.5zM123 745h79q3 -27 23 -44t57 -17t58 17t24 44h79q-6 -55 -46.5 -88.5t-115.5 -33.5q-72 0 -112.5 34t-45.5 88z" />
    <glyph glyph-name="amacron" unicode="&#x101;" horiz-adv-x="569" 
d="M234 -13q-58 0 -100.5 22.5t-64.5 59.5t-22 79q0 79 60 117t179 59q46 8 69 15.5t34 19t11 32.5q0 38 -29 60.5t-81 22.5q-60 0 -96.5 -30.5t-38.5 -82.5h-95q1 55 29 98.5t79.5 68.5t119.5 25q100 0 157.5 -45.5t57.5 -155.5v-352h-95v69q-24 -37 -68 -59.5t-106 -22.5z
M266 245q-63 -17 -86.5 -38t-23.5 -54q0 -39 29 -62.5t74 -23.5q68 0 107 34t39 102v86q-31 -15 -82 -28.5t-57 -15.5zM135 729h297v-74h-297v74z" />
    <glyph glyph-name="aogonek" unicode="&#x105;" horiz-adv-x="569" 
d="M504 -114v-67q-25 -7 -61 -7q-50 0 -84 23t-34 68q0 33 23 57.5t60 39.5v69q-24 -37 -68 -59.5t-106 -22.5q-58 0 -100.5 22.5t-64.5 59.5t-22 79q0 79 60 117t179 59q46 8 69 15.5t34 19t11 32.5q0 38 -29 60.5t-81 22.5q-60 0 -96.5 -30.5t-38.5 -82.5h-95
q1 55 29 98.5t79.5 68.5t119.5 25q100 0 157.5 -45.5t57.5 -155.5v-352q-46 -22 -67.5 -39t-21.5 -39q0 -21 15 -31.5t38 -10.5q22 0 37 6zM405 289q-31 -15 -82 -28.5t-57 -15.5q-63 -17 -86.5 -38t-23.5 -54q0 -39 29 -62.5t74 -23.5q68 0 107 34t39 102v86z" />
    <glyph glyph-name="cacute" unicode="&#x107;" horiz-adv-x="615" 
d="M314 551q104 0 175.5 -58t91.5 -156h-108q-16 60 -57 92.5t-102 32.5q-52 0 -91 -25.5t-60.5 -69.5t-21.5 -98q0 -55 21.5 -98.5t60.5 -69t91 -25.5q61 0 103 33t56 92h108q-19 -97 -91 -155.5t-176 -58.5q-81 0 -145 36.5t-99.5 101t-35.5 144.5q0 79 35.5 143.5
t99.5 101.5t145 37zM516 745l-132 -116h-126l127 116h131z" />
    <glyph glyph-name="ccaron" unicode="&#x10d;" horiz-adv-x="615" 
d="M314 551q104 0 175.5 -58t91.5 -156h-108q-16 60 -57 92.5t-102 32.5q-52 0 -91 -25.5t-60.5 -69.5t-21.5 -98q0 -55 21.5 -98.5t60.5 -69t91 -25.5q61 0 103 33t56 92h108q-19 -97 -91 -155.5t-176 -58.5q-81 0 -145 36.5t-99.5 101t-35.5 144.5q0 79 35.5 143.5
t99.5 101.5t145 37zM246 745l73 -58l75 58h112l-138 -116h-98l-137 116h113z" />
    <glyph glyph-name="ccircumflex" unicode="&#x109;" horiz-adv-x="615" 
d="M314 551q104 0 175.5 -58t91.5 -156h-108q-16 60 -57 92.5t-102 32.5q-52 0 -91 -25.5t-60.5 -69.5t-21.5 -98q0 -55 21.5 -98.5t60.5 -69t91 -25.5q61 0 103 33t56 92h108q-19 -97 -91 -155.5t-176 -58.5q-81 0 -145 36.5t-99.5 101t-35.5 144.5q0 79 35.5 143.5
t99.5 101.5t145 37zM390 629l-74 58l-74 -58h-113l138 116h98l137 -116h-112z" />
    <glyph glyph-name="cdotaccent" unicode="&#x10b;" horiz-adv-x="615" 
d="M314 551q104 0 175.5 -58t91.5 -156h-108q-16 60 -57 92.5t-102 32.5q-52 0 -91 -25.5t-60.5 -69.5t-21.5 -98q0 -55 21.5 -98.5t60.5 -69t91 -25.5q61 0 103 33t56 92h108q-19 -97 -91 -155.5t-176 -58.5q-81 0 -145 36.5t-99.5 101t-35.5 144.5q0 79 35.5 143.5
t99.5 101.5t145 37zM309 753q25 0 42 -17t17 -42t-17 -42.5t-42 -17.5t-42.5 17.5t-17.5 42.5t17.5 42t42.5 17z" />
    <glyph glyph-name="dcaron" unicode="&#x10f;" horiz-adv-x="759" 
d="M292 551q56 0 105.5 -24t77.5 -68v286h104v-745h-104v79q-28 -44 -77.5 -68t-105.5 -24q-72 0 -131 36t-93 100.5t-34 145.5t34 145.5t93 100.5t131 36zM481 269q0 58 -21.5 102.5t-60 69t-88.5 24.5q-49 0 -87.5 -24.5t-60 -69t-21.5 -102.5t21.5 -102.5t60 -69
t87.5 -24.5q50 0 88.5 24.5t60 69t21.5 102.5zM624 575l30 170h104l-63 -170h-71z" />
    <glyph glyph-name="dcroat" unicode="&#x111;" horiz-adv-x="666" 
d="M679 605h-100v-605h-104v79q-28 -44 -77.5 -68t-105.5 -24q-72 0 -131 36t-93 100.5t-34 145.5t34 145.5t93 100.5t131 36q56 0 105.5 -24t77.5 -68v146h-142v69h142v71h104v-71h100v-69zM481 269q0 58 -21.5 102.5t-60 69t-88.5 24.5q-49 0 -87.5 -24.5t-60 -69
t-21.5 -102.5t21.5 -102.5t60 -69t87.5 -24.5q50 0 88.5 24.5t60 69t21.5 102.5z" />
    <glyph glyph-name="ebreve" unicode="&#x115;" horiz-adv-x="618" 
d="M149 745h79q3 -27 23 -44t57 -17t58 17t24 44h79q-6 -55 -46.5 -88.5t-115.5 -33.5q-72 0 -112.5 34t-45.5 88zM584 244h-443q7 -74 55 -121.5t120 -47.5q109 0 152 93h109q-26 -83 -96.5 -132t-167.5 -49q-81 0 -144.5 36.5t-99 101t-35.5 144.5q0 79 35.5 143.5
t99 101.5t144.5 37q83 0 145.5 -39t95 -109t30.5 -159zM474 321q-9 67 -53.5 106.5t-108.5 39.5t-110.5 -40.5t-57.5 -105.5h330z" />
    <glyph glyph-name="ecaron" unicode="&#x11b;" horiz-adv-x="618" 
d="M235 745l73 -58l75 58h112l-138 -116h-98l-137 116h113zM584 244h-443q7 -74 55 -121.5t120 -47.5q109 0 152 93h109q-26 -83 -96.5 -132t-167.5 -49q-81 0 -144.5 36.5t-99 101t-35.5 144.5q0 79 35.5 143.5t99 101.5t144.5 37q83 0 145.5 -39t95 -109t30.5 -159z
M474 321q-9 67 -53.5 106.5t-108.5 39.5t-110.5 -40.5t-57.5 -105.5h330z" />
    <glyph glyph-name="emacron" unicode="&#x113;" horiz-adv-x="618" 
d="M160 729h297v-74h-297v74zM584 244h-443q7 -74 55 -121.5t120 -47.5q109 0 152 93h109q-26 -83 -96.5 -132t-167.5 -49q-81 0 -144.5 36.5t-99 101t-35.5 144.5q0 79 35.5 143.5t99 101.5t144.5 37q83 0 145.5 -39t95 -109t30.5 -159zM474 321q-9 67 -53.5 106.5
t-108.5 39.5t-110.5 -40.5t-57.5 -105.5h330z" />
    <glyph glyph-name="eogonek" unicode="&#x119;" horiz-adv-x="618" 
d="M252 -97q0 24 14 46t43 38q-80 1 -142.5 38t-97.5 101t-35 143t35.5 143.5t99 101.5t144.5 37q83 0 145.5 -39t95 -109t30.5 -159h-443q6 -74 54.5 -121.5t120.5 -47.5q109 0 152 93h109q-31 -96 -126 -143q-41 -22 -72.5 -50.5t-31.5 -52.5q0 -20 14 -31t37 -11
q21 0 39 6v-67q-25 -7 -62 -7q-51 0 -87 23.5t-36 67.5zM474 321q-9 67 -53.5 106.5t-108.5 39.5t-110.5 -40.5t-57.5 -105.5h330z" />
    <glyph glyph-name="edotaccent" unicode="&#x117;" horiz-adv-x="618" 
d="M310 753q25 0 42 -17t17 -42t-17 -42.5t-42 -17.5t-42.5 17.5t-17.5 42.5t17.5 42t42.5 17zM584 244h-443q7 -74 55 -121.5t120 -47.5q109 0 152 93h109q-26 -83 -96.5 -132t-167.5 -49q-81 0 -144.5 36.5t-99 101t-35.5 144.5q0 79 35.5 143.5t99 101.5t144.5 37
q83 0 145.5 -39t95 -109t30.5 -159zM474 321q-9 67 -53.5 106.5t-108.5 39.5t-110.5 -40.5t-57.5 -105.5h330z" />
    <glyph glyph-name="gbreve" unicode="&#x11f;" horiz-adv-x="659" 
d="M174 -44q13 -39 49.5 -58.5t89.5 -19.5q73 0 119.5 34.5t46.5 119.5v56q-28 -43 -77 -66t-106 -23q-71 0 -130 35t-93 98t-34 143t34 143t93 98t130 35q57 0 106 -23t77 -66v76h103v-485q0 -261 -276 -261q-86 0 -152.5 42t-83.5 122h104zM316 465q-75 0 -122 -52.5
t-47 -137.5t47 -137.5t122 -52.5q49 0 87.5 24t60 67t21.5 99t-21.5 99t-60 67t-87.5 24zM161 745h79q3 -27 23 -44t57 -17t58 17t24 44h79q-6 -55 -46.5 -88.5t-115.5 -33.5q-72 0 -112.5 34t-45.5 88z" />
    <glyph glyph-name="gcircumflex" unicode="&#x11d;" horiz-adv-x="659" 
d="M174 -44q13 -39 49.5 -58.5t89.5 -19.5q73 0 119.5 34.5t46.5 119.5v56q-28 -43 -77 -66t-106 -23q-71 0 -130 35t-93 98t-34 143t34 143t93 98t130 35q57 0 106 -23t77 -66v76h103v-485q0 -261 -276 -261q-86 0 -152.5 42t-83.5 122h104zM316 465q-75 0 -122 -52.5
t-47 -137.5t47 -137.5t122 -52.5q49 0 87.5 24t60 67t21.5 99t-21.5 99t-60 67t-87.5 24zM396 629l-74 58l-74 -58h-113l138 116h98l137 -116h-112z" />
    <glyph glyph-name="uni0123" unicode="&#x123;" horiz-adv-x="659" 
d="M326 755q17 -5 27.5 -19.5t10.5 -34.5q0 -23 -17 -40t-41 -17q-23 0 -40 17t-17 40q0 16 7 31.5t30 54.5l43 78h57zM174 -44q13 -39 49.5 -58.5t89.5 -19.5q73 0 119.5 34.5t46.5 119.5v56q-28 -43 -77 -66t-106 -23q-71 0 -130 35t-93 98t-34 143t34 143t93 98t130 35
q57 0 106 -23t77 -66v76h103v-485q0 -261 -276 -261q-86 0 -152.5 42t-83.5 122h104zM316 465q-75 0 -122 -52.5t-47 -137.5t47 -137.5t122 -52.5q49 0 87.5 24t60 67t21.5 99t-21.5 99t-60 67t-87.5 24z" />
    <glyph glyph-name="gdotaccent" unicode="&#x121;" horiz-adv-x="659" 
d="M174 -44q13 -39 49.5 -58.5t89.5 -19.5q73 0 119.5 34.5t46.5 119.5v56q-28 -43 -77 -66t-106 -23q-71 0 -130 35t-93 98t-34 143t34 143t93 98t130 35q57 0 106 -23t77 -66v76h103v-485q0 -261 -276 -261q-86 0 -152.5 42t-83.5 122h104zM316 465q-75 0 -122 -52.5
t-47 -137.5t47 -137.5t122 -52.5q49 0 87.5 24t60 67t21.5 99t-21.5 99t-60 67t-87.5 24zM312 753q25 0 42 -17t17 -42t-17 -42.5t-42 -17.5t-42.5 17.5t-17.5 42.5t17.5 42t42.5 17z" />
    <glyph glyph-name="hbar" unicode="&#x127;" horiz-adv-x="605" 
d="M539 340v-340h-104v320q0 73 -30.5 109t-84.5 36q-55 0 -88.5 -36.5t-33.5 -108.5v-320h-104v605h-107v69h107v71h104v-71h136v-69h-136v-136q47 82 156 82q92 0 138.5 -55.5t46.5 -155.5z" />
    <glyph glyph-name="hcircumflex" unicode="&#x125;" 
d="M181 745v-276q47 82 156 82q92 0 138.5 -55.5t46.5 -155.5v-340h-104v320q0 73 -30.5 109t-84.5 36q-55 0 -88.5 -36.5t-33.5 -108.5v-320h-104v745h104zM412 629l-60 64l-60 -64h-90l107 116h87l106 -116h-90z" />
    <glyph glyph-name="dotlessi" unicode="&#x131;" horiz-adv-x="258" 
d="M181 538v-538h-104v538h104z" />
    <glyph glyph-name="ibreve" unicode="&#x12d;" horiz-adv-x="258" 
d="M181 538v-538h-104v538h104zM-30 745h79q3 -27 23 -44t57 -17t58 17t24 44h79q-6 -55 -46.5 -88.5t-115.5 -33.5q-72 0 -112.5 34t-45.5 88z" />
    <glyph glyph-name="imacron" unicode="&#x12b;" horiz-adv-x="258" 
d="M181 538v-538h-104v538h104zM-18 729h297v-74h-297v74z" />
    <glyph glyph-name="iogonek" unicode="&#x12f;" horiz-adv-x="258" 
d="M92 -78q0 -20 14 -31t37 -11q21 0 39 6v-67q-24 -7 -62 -7q-51 0 -87 23.5t-36 67.5q0 63 81 97h104q-46 -21 -68 -38.5t-22 -39.5zM181 538v-538h-104v538h104zM194 705q0 -27 -19 -46.5t-46 -19.5t-46.5 19.5t-19.5 46.5t19.5 46.5t46.5 19.5t46 -19.5t19 -46.5z" />
    <glyph glyph-name="itilde" unicode="&#x129;" horiz-adv-x="258" 
d="M181 538v-538h-104v538h104zM316 745q-10 -63 -43 -89t-75 -26q-22 0 -40 7t-40 20q-16 9 -27.5 14t-22.5 5q-40 0 -48 -46h-77q9 64 43 89.5t76 25.5q22 0 38 -6.5t39 -19.5q16 -10 27 -15t24 -5q40 0 50 46h76z" />
    <glyph glyph-name="uni1ECB" unicode="&#x1ecb;" horiz-adv-x="258" 
d="M129 -63q25 0 42 -17.5t17 -41.5q0 -25 -17 -42.5t-42 -17.5t-42.5 17.5t-17.5 42.5q0 24 17.5 41.5t42.5 17.5zM181 538v-538h-104v538h104zM194 705q0 -27 -19 -46.5t-46 -19.5t-46.5 19.5t-19.5 46.5t19.5 46.5t46.5 19.5t46 -19.5t19 -46.5z" />
    <glyph glyph-name="uni0237" unicode="&#x237;" horiz-adv-x="260" 
d="M-35 -110q21 -4 42 -4q39 0 55.5 20.5t16.5 71.5v560h104v-556q0 -100 -39 -141.5t-119 -41.5q-32 0 -60 4v87z" />
    <glyph glyph-name="jcircumflex" unicode="&#x135;" horiz-adv-x="259" 
d="M-35 -110q21 -4 42 -4q39 0 55.5 20.5t16.5 71.5v560h104v-556q0 -100 -39 -141.5t-119 -41.5q-32 0 -60 4v87zM202 629l-74 58l-74 -58h-113l138 116h98l137 -116h-112z" />
    <glyph glyph-name="uni0137" unicode="&#x137;" horiz-adv-x="560" 
d="M428 0l-247 245v-245h-104v745h104v-443l228 236h123l-249 -256l277 -282h-132zM270 -173q-17 5 -27.5 19.5t-10.5 34.5q0 23 17 40t41 17q23 0 40 -17t17 -40q0 -16 -7 -31.5t-30 -54.5l-43 -78h-57z" />
    <glyph glyph-name="lacute" unicode="&#x13a;" horiz-adv-x="258" 
d="M181 745v-745h-104v745h104zM60 803l131 113h134l-138 -113h-127z" />
    <glyph glyph-name="lcaron" unicode="&#x13e;" horiz-adv-x="365" 
d="M181 745v-745h-104v745h104zM230 575l30 170h104l-63 -170h-71z" />
    <glyph glyph-name="uni013C" unicode="&#x13c;" horiz-adv-x="258" 
d="M181 745v-745h-104v745h104zM113 -173q-17 5 -27.5 19.5t-10.5 34.5q0 23 17 40t41 17q23 0 40 -17t17 -40q0 -16 -7 -31.5t-30 -54.5l-43 -78h-57z" />
    <glyph glyph-name="ldot" unicode="&#x140;" horiz-adv-x="360" 
d="M181 745v-745h-104v745h104zM297 507q25 0 42 -17t17 -42t-17 -42.5t-42 -17.5t-42.5 17.5t-17.5 42.5t17.5 42t42.5 17z" />
    <glyph glyph-name="lslash" unicode="&#x142;" horiz-adv-x="300" 
d="M292 422l-90 -51v-371h-104v312l-90 -51v92l90 51v341h104v-282l90 51v-92z" />
    <glyph glyph-name="nacute" unicode="&#x144;" 
d="M181 538v-69q47 82 156 82q92 0 138.5 -55.5t46.5 -155.5v-340h-104v320q0 73 -30.5 109t-84.5 36q-55 0 -88.5 -36.5t-33.5 -108.5v-320h-104v538h104zM510 745l-132 -116h-126l127 116h131z" />
    <glyph glyph-name="ncaron" unicode="&#x148;" 
d="M181 538v-69q47 82 156 82q92 0 138.5 -55.5t46.5 -155.5v-340h-104v320q0 73 -30.5 109t-84.5 36q-55 0 -88.5 -36.5t-33.5 -108.5v-320h-104v538h104zM235 745l73 -58l75 58h112l-138 -116h-98l-137 116h113z" />
    <glyph glyph-name="uni0146" unicode="&#x146;" 
d="M181 538v-69q47 82 156 82q92 0 138.5 -55.5t46.5 -155.5v-340h-104v320q0 73 -30.5 109t-84.5 36q-55 0 -88.5 -36.5t-33.5 -108.5v-320h-104v538h104zM277 -173q-17 5 -27.5 19.5t-10.5 34.5q0 23 17 40t41 17q23 0 40 -17t17 -40q0 -16 -7 -31.5t-30 -54.5l-43 -78
h-57z" />
    <glyph glyph-name="oe" unicode="&#x153;" horiz-adv-x="1069" 
d="M1035 244h-444q8 -74 56 -121.5t120 -47.5q109 0 153 93h108q-26 -83 -96.5 -132t-167.5 -49q-73 0 -130 29.5t-93 83.5q-36 -53 -94 -83t-131 -30q-81 0 -145.5 36.5t-100.5 100.5t-36 145q0 80 36 144.5t100.5 101t145.5 36.5q73 0 131 -30t94 -83q36 53 93.5 83
t129.5 30q83 0 145.5 -39t95 -109t30.5 -159zM926 321q-10 67 -54.5 106.5t-108.5 39.5t-110.5 -40.5t-57.5 -105.5h331zM492 269q0 54 -22 98t-62.5 69.5t-91.5 25.5t-91.5 -25.5t-62.5 -69.5t-22 -98q0 -55 22 -99t62 -69t92 -25t92 25t62 69t22 99z" />
    <glyph glyph-name="obreve" unicode="&#x14f;" horiz-adv-x="632" 
d="M157 745h79q3 -27 23 -44t57 -17t58 17t24 44h79q-6 -55 -46.5 -88.5t-115.5 -33.5q-72 0 -112.5 34t-45.5 88zM34 269q0 81 36 145t100.5 100.5t145.5 36.5t145.5 -36.5t100.5 -100.5t36 -145t-36 -145t-100.5 -100.5t-145.5 -36.5t-145.5 36.5t-100.5 100.5t-36 145z
M141 269q0 -55 22 -99t61.5 -69t91.5 -25t91.5 25t61.5 69t22 99t-22 99t-61.5 69t-91.5 25t-91.5 -25t-61.5 -69t-22 -99z" />
    <glyph glyph-name="ohungarumlaut" unicode="&#x151;" horiz-adv-x="632" 
d="M34 269q0 81 36 145t100.5 100.5t145.5 36.5t145.5 -36.5t100.5 -100.5t36 -145t-36 -145t-100.5 -100.5t-145.5 -36.5t-145.5 36.5t-100.5 100.5t-36 145zM141 269q0 -55 22 -99t61.5 -69t91.5 -25t91.5 25t61.5 69t22 99t-22 99t-61.5 69t-91.5 25t-91.5 -25t-61.5 -69
t-22 -99zM414 745l-132 -116h-126l127 116h131zM614 745l-133 -116h-126l127 116h132z" />
    <glyph glyph-name="omacron" unicode="&#x14d;" horiz-adv-x="632" 
d="M168 729h297v-74h-297v74zM34 269q0 81 36 145t100.5 100.5t145.5 36.5t145.5 -36.5t100.5 -100.5t36 -145t-36 -145t-100.5 -100.5t-145.5 -36.5t-145.5 36.5t-100.5 100.5t-36 145zM141 269q0 -55 22 -99t61.5 -69t91.5 -25t91.5 25t61.5 69t22 99t-22 99t-61.5 69
t-91.5 25t-91.5 -25t-61.5 -69t-22 -99z" />
    <glyph glyph-name="uni1ECD" unicode="&#x1ecd;" horiz-adv-x="632" 
d="M34 269q0 81 36 145t100.5 100.5t145.5 36.5t145.5 -36.5t100.5 -100.5t36 -145t-36 -145t-100.5 -100.5t-145.5 -36.5t-145.5 36.5t-100.5 100.5t-36 145zM141 269q0 -55 22 -99t61.5 -69t91.5 -25t91.5 25t61.5 69t22 99t-22 99t-61.5 69t-91.5 25t-91.5 -25t-61.5 -69
t-22 -99zM315 -63q25 0 42 -17.5t17 -41.5q0 -25 -17 -42.5t-42 -17.5t-42.5 17.5t-17.5 42.5q0 24 17.5 41.5t42.5 17.5z" />
    <glyph glyph-name="racute" unicode="&#x155;" horiz-adv-x="372" 
d="M178 538v-99q22 48 63 74t93 26q16 0 24 -1v-101q-5 1 -42 1q-71 0 -103.5 -37.5t-32.5 -118.5v-282h-103v538h101zM407 745l-132 -116h-126l127 116h131z" />
    <glyph glyph-name="rcaron" unicode="&#x159;" horiz-adv-x="372" 
d="M178 538v-99q22 48 63 74t93 26q16 0 24 -1v-101q-5 1 -42 1q-71 0 -103.5 -37.5t-32.5 -118.5v-282h-103v538h101zM143 745l73 -58l75 58h112l-138 -116h-98l-137 116h113z" />
    <glyph glyph-name="uni0157" unicode="&#x157;" horiz-adv-x="372" 
d="M178 538v-99q22 48 63 74t93 26q16 0 24 -1v-101q-5 1 -42 1q-71 0 -103.5 -37.5t-32.5 -118.5v-282h-103v538h101zM110 -173q-17 5 -27.5 19.5t-10.5 34.5q0 23 17 40t41 17q23 0 40 -17t17 -40q0 -16 -7 -31.5t-30 -54.5l-43 -78h-57z" />
    <glyph glyph-name="sacute" unicode="&#x15b;" horiz-adv-x="543" 
d="M144 172q9 -51 44.5 -77t92.5 -26q47 0 81 19.5t34 56.5q0 35 -26.5 53t-77.5 28l-75 15q-76 15 -120 54t-44 103q0 44 27.5 79.5t75 55.5t106.5 20q88 0 148.5 -42.5t71.5 -124.5h-98q-9 43 -42.5 65t-82.5 22q-45 0 -77 -18.5t-32 -51.5q0 -30 21.5 -48.5t67.5 -27.5
l70 -14q86 -17 136.5 -52t50.5 -104q0 -80 -62 -125t-157 -45t-158.5 46t-75.5 139h101zM463 745l-132 -116h-126l127 116h131z" />
    <glyph glyph-name="scaron" unicode="&#x161;" horiz-adv-x="543" 
d="M144 172q9 -51 44.5 -77t92.5 -26q47 0 81 19.5t34 56.5q0 35 -26.5 53t-77.5 28l-75 15q-76 15 -120 54t-44 103q0 44 27.5 79.5t75 55.5t106.5 20q88 0 148.5 -42.5t71.5 -124.5h-98q-9 43 -42.5 65t-82.5 22q-45 0 -77 -18.5t-32 -51.5q0 -30 21.5 -48.5t67.5 -27.5
l70 -14q86 -17 136.5 -52t50.5 -104q0 -80 -62 -125t-157 -45t-158.5 46t-75.5 139h101zM199 745l73 -58l75 58h112l-138 -116h-98l-137 116h113z" />
    <glyph glyph-name="scedilla" unicode="&#x15f;" horiz-adv-x="543" 
d="M144 172q9 -51 44.5 -77t92.5 -26q47 0 81 19.5t34 56.5q0 35 -26.5 53t-77.5 28l-75 15q-76 15 -120 54t-44 103q0 44 27.5 79.5t75 55.5t106.5 20q88 0 148.5 -42.5t71.5 -124.5h-98q-9 43 -42.5 65t-82.5 22q-45 0 -77 -18.5t-32 -51.5q0 -30 21.5 -48.5t67.5 -27.5
l70 -14q86 -17 136.5 -52t50.5 -104q0 -80 -62 -125t-157 -45t-158.5 46t-75.5 139h101zM238 -152q25 0 40.5 7t15.5 23q0 14 -11 21.5t-30 7.5q-28 0 -41 -9l-26 16l55 89h48l-35 -56q18 3 33 3q32 -1 53 -19.5t21 -48.5q0 -38 -32.5 -59t-77.5 -21q-49 0 -85 15l15 43
q24 -12 57 -12z" />
    <glyph glyph-name="scircumflex" unicode="&#x15d;" horiz-adv-x="543" 
d="M144 172q9 -51 44.5 -77t92.5 -26q47 0 81 19.5t34 56.5q0 35 -26.5 53t-77.5 28l-75 15q-76 15 -120 54t-44 103q0 44 27.5 79.5t75 55.5t106.5 20q88 0 148.5 -42.5t71.5 -124.5h-98q-9 43 -42.5 65t-82.5 22q-45 0 -77 -18.5t-32 -51.5q0 -30 21.5 -48.5t67.5 -27.5
l70 -14q86 -17 136.5 -52t50.5 -104q0 -80 -62 -125t-157 -45t-158.5 46t-75.5 139h101zM335 629l-74 58l-74 -58h-113l138 116h98l137 -116h-112z" />
    <glyph glyph-name="uni0219" unicode="&#x219;" horiz-adv-x="543" 
d="M144 172q9 -51 44.5 -77t92.5 -26q47 0 81 19.5t34 56.5q0 35 -26.5 53t-77.5 28l-75 15q-76 15 -120 54t-44 103q0 44 27.5 79.5t75 55.5t106.5 20q88 0 148.5 -42.5t71.5 -124.5h-98q-9 43 -42.5 65t-82.5 22q-45 0 -77 -18.5t-32 -51.5q0 -30 21.5 -48.5t67.5 -27.5
l70 -14q86 -17 136.5 -52t50.5 -104q0 -80 -62 -125t-157 -45t-158.5 46t-75.5 139h101zM244 -173q-17 5 -27.5 19.5t-10.5 34.5q0 23 17 40t41 17q23 0 40 -17t17 -40q0 -16 -7 -31.5t-30 -54.5l-43 -78h-57z" />
    <glyph glyph-name="tcaron" unicode="&#x165;" horiz-adv-x="397" 
d="M307 586l30 159h103l-63 -159h-70zM103 458h-89v80h89v110l105 72v-182h125v-80h-125v-267q0 -57 18 -85t64 -28q18 0 42 3v-86q-26 -5 -65 -5q-81 0 -122.5 45t-41.5 144v279z" />
    <glyph glyph-name="uni0163" unicode="&#x163;" horiz-adv-x="372" 
d="M103 458h-89v80h89v110l105 72v-182h125v-80h-125v-267q0 -57 18 -85t64 -28q18 0 42 3v-86q-26 -5 -65 -5q-81 0 -122.5 45t-41.5 144v279zM154 -173q-17 5 -27.5 19.5t-10.5 34.5q0 23 17 40t41 17q23 0 40 -17t17 -40q0 -16 -7 -31.5t-30 -54.5l-43 -78h-57z" />
    <glyph glyph-name="uni021B" unicode="&#x21b;" horiz-adv-x="372" 
d="M103 458h-89v80h89v110l105 72v-182h125v-80h-125v-267q0 -57 18 -85t64 -28q18 0 42 3v-86q-26 -5 -65 -5q-81 0 -122.5 45t-41.5 144v279zM154 -173q-17 5 -27.5 19.5t-10.5 34.5q0 23 17 40t41 17q23 0 40 -17t17 -40q0 -16 -7 -31.5t-30 -54.5l-43 -78h-57z" />
    <glyph glyph-name="ubreve" unicode="&#x16d;" horiz-adv-x="595" 
d="M66 221v317h104v-313q0 -78 32 -113q32 -36 96 -36q63 0 96 36q32 37 32 113v313h104v-317q0 -66 -16 -110t-49 -72q-58 -52 -167 -52q-110 0 -168 52q-33 28 -48.5 72t-15.5 110zM139 745h79q3 -27 23 -44t57 -17t58 17t24 44h79q-6 -55 -46.5 -88.5t-115.5 -33.5
q-72 0 -112.5 34t-45.5 88z" />
    <glyph glyph-name="uhungarumlaut" unicode="&#x171;" horiz-adv-x="595" 
d="M66 221v317h104v-313q0 -78 32 -113q32 -36 96 -36q63 0 96 36q32 37 32 113v313h104v-317q0 -66 -16 -110t-49 -72q-58 -52 -167 -52q-110 0 -168 52q-33 28 -48.5 72t-15.5 110zM387 745l-132 -116h-126l127 116h131zM587 745l-133 -116h-126l127 116h132z" />
    <glyph glyph-name="umacron" unicode="&#x16b;" horiz-adv-x="595" 
d="M66 221v317h104v-313q0 -78 32 -113q32 -36 96 -36q63 0 96 36q32 37 32 113v313h104v-317q0 -66 -16 -110t-49 -72q-58 -52 -167 -52q-110 0 -168 52q-33 28 -48.5 72t-15.5 110zM149 729h297v-74h-297v74z" />
    <glyph glyph-name="uogonek" unicode="&#x173;" horiz-adv-x="595" 
d="M66 221v317h104v-313q0 -78 32 -113q32 -36 96 -36q63 0 96 36q32 37 32 113v313h104v-317q0 -66 -16 -110t-49 -72q-58 -52 -167 -52q-110 0 -168 52q-33 28 -48.5 72t-15.5 110zM291 -78q0 -20 14 -31t37 -11q21 0 39 6v-67q-24 -7 -62 -7q-51 0 -87 23.5t-36 67.5
q0 63 81 97h104q-46 -21 -68 -38.5t-22 -39.5z" />
    <glyph glyph-name="uring" unicode="&#x16f;" horiz-adv-x="595" 
d="M66 221v317h104v-313q0 -78 32 -113q32 -36 96 -36q63 0 96 36q32 37 32 113v313h104v-317q0 -66 -16 -110t-49 -72q-58 -52 -167 -52q-110 0 -168 52q-33 28 -48.5 72t-15.5 110zM298 618q-39 0 -66 25t-27 62q0 38 27 62.5t66 24.5q38 0 65 -24.5t27 -62.5
q0 -37 -26.5 -62t-65.5 -25zM298 662q18 0 31 12t13 31q0 20 -13 32t-31 12t-31 -12t-13 -32q0 -19 13 -31t31 -12z" />
    <glyph glyph-name="utilde" unicode="&#x169;" horiz-adv-x="595" 
d="M66 221v317h104v-313q0 -78 32 -113q32 -36 96 -36q63 0 96 36q32 37 32 113v313h104v-317q0 -66 -16 -110t-49 -72q-58 -52 -167 -52q-110 0 -168 52q-33 28 -48.5 72t-15.5 110zM489 745q-10 -63 -43 -89t-75 -26q-22 0 -40 7t-40 20q-16 9 -27.5 14t-22.5 5
q-40 0 -48 -46h-77q9 64 43 89.5t76 25.5q22 0 38 -6.5t39 -19.5q16 -10 27 -15t24 -5q40 0 50 46h76z" />
    <glyph glyph-name="uni1EE5" unicode="&#x1ee5;" horiz-adv-x="595" 
d="M66 221v317h104v-313q0 -78 32 -113q32 -36 96 -36q63 0 96 36q32 37 32 113v313h104v-317q0 -66 -16 -110t-49 -72q-58 -52 -167 -52q-110 0 -168 52q-33 28 -48.5 72t-15.5 110zM297 -63q25 0 42 -17.5t17 -41.5q0 -25 -17 -42.5t-42 -17.5t-42.5 17.5t-17.5 42.5
q0 24 17.5 41.5t42.5 17.5z" />
    <glyph glyph-name="wacute" unicode="&#x1e83;" horiz-adv-x="771" 
d="M125 538l95 -402l110 402h109l113 -402l94 402h107l-143 -538h-104l-122 428l-120 -428h-104l-142 538h107zM584 745l-132 -116h-126l127 116h131z" />
    <glyph glyph-name="wcircumflex" unicode="&#x175;" horiz-adv-x="771" 
d="M125 538l95 -402l110 402h109l113 -402l94 402h107l-143 -538h-104l-122 428l-120 -428h-104l-142 538h107zM459 629l-74 58l-74 -58h-113l138 116h98l137 -116h-112z" />
    <glyph glyph-name="wdieresis" unicode="&#x1e85;" horiz-adv-x="771" 
d="M125 538l95 -402l110 402h109l113 -402l94 402h107l-143 -538h-104l-122 428l-120 -428h-104l-142 538h107zM268 753q25 0 42 -17t17 -42t-17 -42.5t-42 -17.5t-42.5 17.5t-17.5 42.5t17.5 42t42.5 17zM504 753q25 0 42 -17t17 -42t-17 -42.5t-42 -17.5t-42.5 17.5
t-17.5 42.5t17.5 42t42.5 17z" />
    <glyph glyph-name="wgrave" unicode="&#x1e81;" horiz-adv-x="771" 
d="M125 538l95 -402l110 402h109l113 -402l94 402h107l-143 -538h-104l-122 428l-120 -428h-104l-142 538h107zM317 745l127 -116h-125l-133 116h131z" />
    <glyph glyph-name="ycircumflex" unicode="&#x177;" horiz-adv-x="552" 
d="M14 538h114l150 -403l153 403h107l-290 -733h-107l80 204zM346 629l-74 58l-74 -58h-113l138 116h98l137 -116h-112z" />
    <glyph glyph-name="ygrave" unicode="&#x1ef3;" horiz-adv-x="552" 
d="M14 538h114l150 -403l153 403h107l-290 -733h-107l80 204zM217 745l127 -116h-125l-133 116h131z" />
    <glyph glyph-name="uni0233" unicode="&#x233;" horiz-adv-x="552" 
d="M14 538h114l150 -403l153 403h107l-290 -733h-107l80 204zM124 729h297v-74h-297v74z" />
    <glyph glyph-name="zacute" unicode="&#x17a;" horiz-adv-x="524" 
d="M347 454h-286v84h410v-84l-305 -370h312v-84h-436v84zM463 745l-132 -116h-126l127 116h131z" />
    <glyph glyph-name="zcaron" unicode="&#x17e;" horiz-adv-x="524" 
d="M347 454h-286v84h410v-84l-305 -370h312v-84h-436v84zM201 745l73 -58l75 58h112l-138 -116h-98l-137 116h113z" />
    <glyph glyph-name="zdotaccent" unicode="&#x17c;" horiz-adv-x="524" 
d="M347 454h-286v84h410v-84l-305 -370h312v-84h-436v84zM268 753q25 0 42 -17t17 -42t-17 -42.5t-42 -17.5t-42.5 17.5t-17.5 42.5t17.5 42t42.5 17z" />
    <glyph glyph-name="ellipsis" unicode="&#x2026;" horiz-adv-x="776" 
d="M134 143q32 0 55 -22.5t23 -55.5t-23 -55.5t-55 -22.5q-33 0 -55.5 22.5t-22.5 55.5t22.5 55.5t55.5 22.5zM388 143q32 0 55 -22.5t23 -55.5t-23 -55.5t-55 -22.5q-33 0 -55.5 22.5t-22.5 55.5t22.5 55.5t55.5 22.5zM642 143q32 0 55 -22.5t23 -55.5t-23 -55.5t-55 -22.5
q-33 0 -55.5 22.5t-22.5 55.5t22.5 55.5t55.5 22.5z" />
    <glyph glyph-name="endash" unicode="&#x2013;" horiz-adv-x="530" 
d="M478 316v-92h-427v92h427z" />
    <glyph glyph-name="emdash" unicode="&#x2014;" horiz-adv-x="750" 
d="M698 316v-92h-647v92h647z" />
    <glyph glyph-name="guilsinglleft" unicode="&#x2039;" horiz-adv-x="340" 
d="M199 501h100l-137 -228l137 -228h-99l-159 228z" />
    <glyph glyph-name="guilsinglright" unicode="&#x203a;" horiz-adv-x="340" 
d="M178 273l-137 228h100l158 -228l-159 -228h-99z" />
    <glyph glyph-name="quoteleft" unicode="&#x2018;" horiz-adv-x="284" 
d="M160 597q24 -7 38 -27t14 -46q0 -33 -22.5 -55.5t-55.5 -22.5q-32 0 -55 22.5t-23 55.5q0 20 9.5 40.5t42.5 76.5l61 109h74z" />
    <glyph glyph-name="quoteright" unicode="&#x2019;" horiz-adv-x="284" 
d="M124 605q-24 7 -38 27t-14 46q0 33 22.5 55.5t55.5 22.5q32 0 55 -22.5t23 -55.5q0 -20 -9.5 -40.5t-42.5 -76.5l-61 -109h-74z" />
    <glyph glyph-name="quotedblleft" unicode="&#x201c;" horiz-adv-x="494" 
d="M160 597q24 -7 38 -27t14 -46q0 -33 -22.5 -55.5t-55.5 -22.5q-32 0 -55 22.5t-23 55.5q0 20 9.5 40.5t42.5 76.5l61 109h74zM370 597q24 -7 38 -27t14 -46q0 -33 -22.5 -55.5t-55.5 -22.5q-32 0 -55 22.5t-23 55.5q0 20 9.5 40.5t42.5 76.5l61 109h74z" />
    <glyph glyph-name="quotedblright" unicode="&#x201d;" horiz-adv-x="494" 
d="M124 605q-24 7 -38 27t-14 46q0 33 22.5 55.5t55.5 22.5q32 0 55 -22.5t23 -55.5q0 -20 -9.5 -40.5t-42.5 -76.5l-61 -109h-74zM334 605q-24 7 -38 27t-14 46q0 33 22.5 55.5t55.5 22.5q32 0 55 -22.5t23 -55.5q0 -20 -9.5 -40.5t-42.5 -76.5l-61 -109h-74z" />
    <glyph glyph-name="quotesinglbase" unicode="&#x201a;" horiz-adv-x="268" 
d="M108 -8q-24 7 -38 27t-14 46q0 33 22.5 55.5t55.5 22.5q32 0 55 -22.5t23 -55.5q0 -20 -9.5 -40.5t-42.5 -76.5l-61 -109h-74z" />
    <glyph glyph-name="quotedblbase" unicode="&#x201e;" horiz-adv-x="480" 
d="M108 -8q-24 7 -38 27t-14 46q0 33 22.5 55.5t55.5 22.5q32 0 55 -22.5t23 -55.5q0 -20 -9.5 -40.5t-42.5 -76.5l-61 -109h-74zM320 -8q-24 7 -38 27t-14 46q0 33 22.5 55.5t55.5 22.5q32 0 55 -22.5t23 -55.5q0 -20 -9.5 -40.5t-42.5 -76.5l-61 -109h-74z" />
    <glyph glyph-name="bullet" unicode="&#x2022;" horiz-adv-x="390" 
d="M195 377q44 0 74.5 -30.5t30.5 -74.5t-30.5 -74.5t-74.5 -30.5q-43 0 -74 31t-31 74q0 44 31 74.5t74 30.5z" />
    <glyph glyph-name="minus" unicode="&#x2212;" horiz-adv-x="690" 
d="M84 428h521v-93h-521v93z" />
    <glyph glyph-name="Euro" unicode="&#x20ac;" horiz-adv-x="773" 
d="M622 227h97q-16 -113 -94 -176.5t-193 -63.5q-116 0 -191.5 69.5t-100.5 193.5h-139l50 71h80q-2 32 -2 50q0 19 1 28h-129l50 70h85q21 134 98 210.5t198 76.5q115 0 193 -63.5t94 -176.5h-97q-14 77 -66 114.5t-124 37.5q-83 0 -132 -54t-66 -145h305l-50 -70h-262
q-1 -9 -1 -28q0 -18 2 -50h223l-50 -71h-162q20 -81 68 -128.5t125 -47.5q72 0 124 38t66 115z" />
    <glyph glyph-name="uniFB01" unicode="&#xfb01;" horiz-adv-x="565" 
d="M11 458v80h85v23q0 94 45.5 143.5t129.5 49.5q24 0 56 -5v-87q-20 4 -41 4q-45 0 -65.5 -24.5t-20.5 -80.5v-23h125v-80h-125v-458h-104v458h-85zM488 538v-538h-104v538h104zM501 705q0 -27 -19 -46.5t-46 -19.5t-46.5 19.5t-19.5 46.5t19.5 46.5t46.5 19.5t46 -19.5
t19 -46.5z" />
    <glyph glyph-name="uniFB02" unicode="&#xfb02;" horiz-adv-x="565" 
d="M11 458v80h85v23q0 94 45.5 143.5t129.5 49.5q24 0 56 -5v-87q-20 4 -41 4q-45 0 -65.5 -24.5t-20.5 -80.5v-23h125v-80h-125v-458h-104v458h-85zM488 745v-745h-104v745h104z" />
    <glyph glyph-name="glyph327" horiz-adv-x="258" 
d="M194 705q0 -27 -19 -46.5t-46 -19.5t-46.5 19.5t-19.5 46.5t19.5 46.5t46.5 19.5t46 -19.5t19 -46.5z" />
    <glyph glyph-name="breve" unicode="&#x2d8;" horiz-adv-x="378" 
d="M29 745h79q3 -27 23 -44t57 -17t58 17t24 44h79q-6 -55 -46.5 -88.5t-115.5 -33.5q-72 0 -112.5 34t-45.5 88z" />
    <glyph glyph-name="caron" unicode="&#x2c7;" horiz-adv-x="420" 
d="M136 745l73 -58l75 58h112l-138 -116h-98l-137 116h113z" />
    <glyph glyph-name="circumflex" unicode="&#x2c6;" horiz-adv-x="420" 
d="M284 629l-74 58l-74 -58h-113l138 116h98l137 -116h-112z" />
    <glyph glyph-name="dotaccent" unicode="&#x2d9;" horiz-adv-x="149" 
d="M75 753q25 0 42 -17t17 -42t-17 -42.5t-42 -17.5t-42.5 17.5t-17.5 42.5t17.5 42t42.5 17z" />
    <glyph glyph-name="glyph332" horiz-adv-x="149" 
d="M75 -63q25 0 42 -17.5t17 -41.5q0 -25 -17 -42.5t-42 -17.5t-42.5 17.5t-17.5 42.5q0 24 17.5 41.5t42.5 17.5z" />
    <glyph glyph-name="hungarumlaut" unicode="&#x2dd;" horiz-adv-x="461" 
d="M271 745l-132 -116h-126l127 116h131zM471 745l-133 -116h-126l127 116h132z" />
    <glyph glyph-name="ogonek" unicode="&#x2db;" horiz-adv-x="250" 
d="M124 -78q0 -20 14 -31t37 -11q21 0 39 6v-67q-24 -7 -62 -7q-51 0 -87 23.5t-36 67.5q0 63 81 97h104q-46 -21 -68 -38.5t-22 -39.5z" />
    <glyph glyph-name="ring" unicode="&#x2da;" horiz-adv-x="243" 
d="M122 618q-39 0 -66 25t-27 62q0 38 27 62.5t66 24.5q38 0 65 -24.5t27 -62.5q0 -37 -26.5 -62t-65.5 -25zM122 662q18 0 31 12t13 31q0 20 -13 32t-31 12t-31 -12t-13 -32q0 -19 13 -31t31 -12z" />
    <glyph glyph-name="tilde" unicode="&#x2dc;" horiz-adv-x="431" 
d="M402 745q-10 -63 -43 -89t-75 -26q-22 0 -40 7t-40 20q-16 9 -27.5 14t-22.5 5q-40 0 -48 -46h-77q9 64 43 89.5t76 25.5q22 0 38 -6.5t39 -19.5q16 -10 27 -15t24 -5q40 0 50 46h76z" />
    <glyph glyph-name="glyph337" horiz-adv-x="353" 
d="M138 575l30 170h104l-63 -170h-71z" />
    <glyph glyph-name="glyph338" horiz-adv-x="0" 
d="M-95 -173q-17 5 -27.5 19.5t-10.5 34.5q0 23 17 40t41 17q23 0 40 -17t17 -40q0 -16 -7 -31.5t-30 -54.5l-43 -78h-57z" />
    <glyph glyph-name="glyph339" horiz-adv-x="305" 
d="M4 803l131 113h134l-138 -113h-127z" />
    <glyph glyph-name="glyph340" horiz-adv-x="383" 
d="M190 798q-71 0 -114 31t-47 87h80q7 -56 82 -56q76 0 83 56h80q-5 -57 -47.5 -87.5t-116.5 -30.5z" />
    <glyph glyph-name="glyph341" horiz-adv-x="433" 
d="M138 916l79 -62l77 62h117l-136 -113h-117l-136 113h116z" />
    <glyph glyph-name="glyph342" horiz-adv-x="253" 
d="M98 -152q24 0 40 7.5t16 23.5q0 14 -11 21.5t-30 7.5q-28 0 -41 -9l-26 16l55 89h48l-35 -56q12 2 33 2q32 0 53 -18.5t21 -48.5q0 -38 -32.5 -59t-77.5 -21q-49 0 -85 14l15 43q27 -12 57 -12z" />
    <glyph glyph-name="glyph343" horiz-adv-x="433" 
d="M294 803l-77 62l-79 -62h-116l137 113h118l134 -113h-117z" />
    <glyph glyph-name="glyph344" horiz-adv-x="385" 
d="M75 920q25 0 42 -17t17 -42q0 -24 -17 -41.5t-42 -17.5t-42.5 17.5t-17.5 41.5q0 25 17.5 42t42.5 17zM311 920q25 0 42 -17t17 -42q0 -24 -17 -41.5t-42 -17.5t-42.5 17.5t-17.5 41.5q0 25 17.5 42t42.5 17z" />
    <glyph glyph-name="glyph345" horiz-adv-x="165" 
d="M83 920q25 0 42 -17t17 -42q0 -24 -17 -41.5t-42 -17.5t-42 17.5t-17 41.5q0 25 17 42t42 17z" />
    <glyph glyph-name="glyph346" horiz-adv-x="305" 
d="M286 803h-127l-138 113h134z" />
    <glyph glyph-name="glyph347" horiz-adv-x="484" 
d="M12 803l131 113h134l-139 -113h-126zM208 803l131 113h134l-139 -113h-126z" />
    <glyph glyph-name="glyph348" horiz-adv-x="365" 
d="M29 901h307v-79h-307v79z" />
    <glyph glyph-name="glyph349" horiz-adv-x="247" 
d="M126 -79q0 -20 13.5 -30.5t35.5 -10.5q20 0 44 8v-67q-32 -9 -67 -9q-51 0 -87 23.5t-36 67.5q0 63 81 97h109q-46 -21 -69.5 -39.5t-23.5 -39.5z" />
    <glyph glyph-name="glyph350" horiz-adv-x="239" 
d="M119 795q-38 0 -64 24.5t-26 60.5q0 37 26.5 61t63.5 24q38 0 64.5 -24t26.5 -61t-26 -61t-65 -24zM119 836q18 0 32 12.5t14 31.5q0 20 -14 32.5t-32 12.5t-31.5 -12.5t-13.5 -32.5q0 -19 13.5 -31.5t31.5 -12.5z" />
    <glyph glyph-name="glyph351" horiz-adv-x="428" 
d="M399 917q-10 -60 -44.5 -87.5t-75.5 -27.5q-23 0 -40 7t-38 20q-3 1 -13 7t-19 8.5t-16 2.5q-38 0 -48 -45h-76q9 61 44.5 88t76.5 27q21 0 37.5 -6.5t36.5 -18.5q17 -10 27.5 -14.5t22.5 -4.5q39 0 50 44h75z" />
    </font>
</defs>
</svg>
