<svg xmlns="http://www.w3.org/2000/svg" width="50" height="32" fill="none" viewBox="0 0 50 32"><rect width="50" height="32" fill="#000" rx="2"/><path fill="#fff" d="M45.371 18.415a1.183 1.183 0 0 0-.845.36 1.214 1.214 0 0 0-.346.858 1.225 1.225 0 0 0 .346.86 1.196 1.196 0 0 0 .845.358c.657 0 1.19-.545 1.19-1.218a1.225 1.225 0 0 0-.345-.859 1.196 1.196 0 0 0-.845-.359Zm-3.917-.941c0-.922-.77-1.668-1.72-1.668s-1.72.748-1.72 1.668c0 .921.77 1.668 1.72 1.668s1.72-.747 1.72-1.668Zm.007-3.242h1.898v6.484H41.46V20.3a3.277 3.277 0 0 1-1.883.594c-1.847 0-3.345-1.532-3.345-3.42 0-1.89 1.498-3.421 3.345-3.421.699 0 1.346.218 1.883.593v-.415Zm-8.602-.173c-.758 0-1.475.24-1.956.904v-.73h-1.89v6.483h1.913V17.31c0-.986.647-1.47 1.426-1.47.833 0 1.314.51 1.314 1.456v3.42h1.896v-4.122c0-1.509-1.174-2.535-2.703-2.535Zm-6.592 1.015v-.844h-1.944v6.483h1.948v-3.027c0-1.022 1.082-1.57 1.834-1.57h.022V14.23c-.771 0-1.479.338-1.86.844Zm-4.84 2.4c0-.922-.77-1.668-1.72-1.668s-1.72.748-1.72 1.668c0 .921.771 1.668 1.722 1.668.95 0 1.718-.747 1.718-1.668Zm.007-3.242h1.9v6.484h-1.9V20.3a3.279 3.279 0 0 1-1.882.594c-1.848 0-3.345-1.532-3.345-3.42 0-1.89 1.497-3.421 3.345-3.421a3.27 3.27 0 0 1 1.882.593v-.415Zm-7.992 6.485h1.987v-9.373h-1.987v9.373Zm-8.732.002h2.105v-9.377H4.712l-.001 9.377Zm7.362-9.377c0 2.03-.774 3.919-2.153 5.322l2.908 4.055H10.23l-3.16-4.406.816-.625a5.384 5.384 0 0 0 1.571-1.918 5.46 5.46 0 0 0 .555-2.428h2.061Z"/></svg>