<svg xmlns="http://www.w3.org/2000/svg" width="30" height="18" fill="none" viewBox="0 0 30 18"><rect width="29" height="17" x=".5" y=".5" fill="#fff" stroke="#000" rx="1.5"/><path fill="#fff" d="M24.328 13.029c0 1.5-1.255 2.721-2.796 2.721H6.316V4.971c0-1.5 1.255-2.721 2.796-2.721h15.216v10.779Z"/><path fill="url(#a)" d="M19.374 10.264h1.156c.033 0 .11-.01.143-.01a.505.505 0 0 0 .407-.504.523.523 0 0 0-.407-.503c-.033-.011-.1-.011-.143-.011h-1.156v1.028Z"/><path fill="url(#b)" d="M20.398 3.16c-1.101 0-2.004.869-2.004 1.95v2.026h2.83c.065 0 .142 0 .197.01.639.033 1.112.354 1.112.911 0 .44-.319.814-.913.89v.02c.65.044 1.145.397 1.145.944 0 .589-.55.975-1.277.975h-3.105v3.964h2.94c1.1 0 2.003-.868 2.003-1.95V3.16h-2.928Z"/><path fill="url(#c)" d="M20.937 8.186a.46.46 0 0 0-.407-.461c-.022 0-.077-.01-.11-.01h-1.046v.942h1.046c.033 0 .099 0 .11-.01a.46.46 0 0 0 .407-.461Z"/><path fill="url(#d)" d="M14.86 3.16c-1.101 0-2.004.869-2.004 1.95v2.55c.506-.417 1.387-.685 2.807-.62.76.031 1.575.235 1.575.235V8.1a3.89 3.89 0 0 0-1.52-.429c-1.079-.075-1.728.44-1.728 1.34 0 .91.65 1.425 1.728 1.339.628-.043 1.112-.236 1.52-.429v.825s-.804.204-1.575.236c-1.42.065-2.3-.203-2.807-.621v4.5h2.94c1.1 0 2.003-.868 2.003-1.95V3.16h-2.94Z"/><path fill="url(#e)" d="M9.321 3.16c-1.1 0-2.003.869-2.003 1.95v4.811c.561.268 1.145.44 1.728.44.694 0 1.068-.407 1.068-.965V7.125h1.718v2.26c0 .88-.562 1.597-2.466 1.597-1.157 0-2.06-.246-2.06-.246v4.103h2.94c1.101 0 2.004-.867 2.004-1.95V3.161H9.321Z"/><defs><linearGradient id="a" x1="18.392" x2="23.34" y1="11.242" y2="11.242" gradientUnits="userSpaceOnUse"><stop stop-color="#007940"/><stop offset=".229" stop-color="#00873F"/><stop offset=".743" stop-color="#40A737"/><stop offset="1" stop-color="#5CB531"/></linearGradient><linearGradient id="b" x1="18.392" x2="23.34" y1="14.851" y2="14.851" gradientUnits="userSpaceOnUse"><stop stop-color="#007940"/><stop offset=".229" stop-color="#00873F"/><stop offset=".743" stop-color="#40A737"/><stop offset="1" stop-color="#5CB531"/></linearGradient><linearGradient id="c" x1="18.392" x2="23.34" y1="9.676" y2="9.676" gradientUnits="userSpaceOnUse"><stop stop-color="#007940"/><stop offset=".229" stop-color="#00873F"/><stop offset=".743" stop-color="#40A737"/><stop offset="1" stop-color="#5CB531"/></linearGradient><linearGradient id="d" x1="12.827" x2="17.707" y1="14.775" y2="14.775" gradientUnits="userSpaceOnUse"><stop stop-color="#6C2C2F"/><stop offset=".173" stop-color="#882730"/><stop offset=".573" stop-color="#BE1833"/><stop offset=".859" stop-color="#DC0436"/><stop offset="1" stop-color="#E60039"/></linearGradient><linearGradient id="e" x1="7.315" x2="12.339" y1="14.935" y2="14.935" gradientUnits="userSpaceOnUse"><stop stop-color="#1F286F"/><stop offset=".475" stop-color="#004E94"/><stop offset=".826" stop-color="#0066B1"/><stop offset="1" stop-color="#006FBC"/></linearGradient></defs></svg>