<svg xmlns="http://www.w3.org/2000/svg" width="50" height="32" fill="none" viewBox="0 0 50 32"><rect width="49" height="31" x=".5" y=".5" fill="#fff" stroke="#000" rx="1.5"/><path fill="#191919" d="M33.882 19H27.96c-.593 0-.987-.4-.987-1s.394-1 .986-1h5.922v2Zm-16.777 5c-.592 0-.987-.4-.987-1V11.8c.297.1.691.2.987.2h16.777v3H27.96C26.282 15 25 16.3 25 18s1.283 3 2.96 3h5.922v3H17.105Zm14.803-14H17.105c-.592 0-.987-.4-.987-1s.395-1 .987-1h14.803v2Zm1.974-3c0-.6-.395-1-.987-1h-15.79c-1.677 0-2.96 1.3-2.96 3v14c0 1.7 1.283 3 2.96 3h17.763c.593 0 .987-.4.987-1V11c0-.6-.394-1-.987-1h-.986V7Z"/></svg>