<svg xmlns="http://www.w3.org/2000/svg" width="38" height="24" fill="none" viewBox="0 0 38 24"><rect width="37" height="23" x=".5" y=".5" fill="#fff" stroke="#000" rx="1.5"/><path fill="#005294" d="m33.82 10.065-1.513 2.791-.294-2.791H30.72l.695 4.047-.835 1.518h1.198l.835-1.61L35 10.066h-1.18Zm-28.181.093a2.03 2.03 0 0 1 .7-.13c.867 0 1.574.593 1.256 2.072-.283 1.312-1.107 1.976-1.955 2.116-.119.025-.234.03-.351.03-.59 0-.972-.25-1.114-.597l-.425 1.987H3l1.05-4.888c.03-.144.045-.236.082-.475l.028-.183h.77l-.13.665c.221-.27.51-.477.839-.597Zm.577 3.144c.375-.39.535-.963.596-1.25.154-.713.098-1.468-.794-1.468a1.43 1.43 0 0 0-.38.048c-.892.233-1.113 1.27-1.18 1.586-.106.48-.246 1.474.817 1.474.123 0 .245-.014.364-.043.22-.062.42-.181.577-.347Zm18.89-3.316a1.788 1.788 0 0 0-.843.2 1.64 1.64 0 0 0-.54.458l.092-.579h-1.156l-1.07 4.96-.128.616h1.217l.43-2.011c.074.133.29.518 1.026.518h.13c1.107-.073 1.869-1.055 2.102-2.152.265-1.23-.202-2.01-1.26-2.01Zm.044 2.06c-.142.658-.462 1.146-.887 1.285a.801.801 0 0 1-.27.042c-.88 0-.672-1.022-.616-1.254.166-.798.54-1.165.885-1.305a.94.94 0 0 1 .343-.068c.704.002.649.825.545 1.3Zm-5.626 1.628a1.3 1.3 0 0 0 .375-.056c.366-.116.648-.41.748-.781h.762l-.004.014a1.734 1.734 0 0 1-.523.827 2.066 2.066 0 0 1-.983.488c-.161.03-.333.05-.523.05-.658 0-1.095-.214-1.322-.598-.21-.353-.24-.853-.111-1.45.03-.146.067-.286.111-.42.185-.603.498-1.109 1.089-1.463.231-.14.49-.231.757-.268.135-.02.27-.03.406-.031.737 0 1.112.262 1.285.622.245.494.098 1.177 0 1.573 0 .01-.002.02-.003.029l-.003.019h-2.904c-.196.83.02 1.445.843 1.445Zm.652-3.152a1.072 1.072 0 0 0-.277.03c-.438.099-.906.427-1.076 1.152h2.097c.092-.384.19-1.182-.744-1.182Zm-8.401.353c.135.39.105.841.025 1.213-.006.037-.012.074-.027.115-.246.974-.94 1.791-1.998 1.986a2.996 2.996 0 0 1-.48.037c-1.338 0-1.794-.914-1.542-2.085.19-.883.782-1.9 2.023-2.114.154-.03.32-.043.493-.043.91 0 1.34.397 1.506.891Zm-1.999 2.75c.498-.14 1.014-.598 1.224-1.56.215-1-.134-1.53-.849-1.531a1.27 1.27 0 0 0-.375.061c-.461.128-1.014.53-1.223 1.5-.173.817.016 1.579.879 1.579a1.38 1.38 0 0 0 .344-.049Zm4.232-3.633c-.935 0-1.68.482-1.84 1.219-.178.835.493 1.005 1.297 1.188.578.133.841.207.762.596a.786.786 0 0 1-.215.378c-.204.202-.45.257-.762.257-.732 0-.8-.42-.732-.726h-.793c-.073.311-.044.56.048.75.198.395.695.553 1.248.553.42 0 .863-.06 1.262-.274.337-.183.671-.567.763-1.018.055-.257.037-.53-.148-.737-.19-.22-.417-.286-1.482-.548-.197-.056-.541-.147-.462-.513.123-.573.83-.573.94-.573.278 0 .8.048.647.652h.768c.054-.188.063-.387.025-.579-.14-.479-.817-.625-1.326-.625m14.389.012c.215-.042.423-.055.608-.055.338 0 1.046.05 1.34.518.208.322.112.804.074.987l-.345 1.614a5.426 5.426 0 0 0-.123 1.025h-1.075c.008-.185.033-.368.073-.548-.158.18-.345.332-.554.451-.354.195-.643.195-.798.195-.59 0-.818-.164-.947-.323-.19-.237-.234-.566-.165-.883.067-.324.306-.908 1.13-1.25a3.15 3.15 0 0 1 .782-.183c.34-.042.659-.042.88-.042.054-.263.08-.39.062-.53-.043-.3-.35-.336-.462-.336a.674.674 0 0 0-.48.2l-.018.02a.644.644 0 0 0-.166.358h-1.169a1.47 1.47 0 0 1 .664-.95 2.21 2.21 0 0 1 .689-.268Zm-.002 3.37a.941.941 0 0 0 .296-.182c.264-.257.345-.567.437-.994a2.197 2.197 0 0 0-.733.049c-.387.086-.658.293-.72.603-.06.268.064.573.456.573a.74.74 0 0 0 .264-.05Zm-11.7-.352.515-2.396h.904l.118-.553h-.904L17.562 9l-.806.237-.177.835h-.714l-.123.554h.72l-.572 2.67c-.142.653.141.854.837.854.277 0 .498-.025.64-.044l.122-.585a2.182 2.182 0 0 1-.368.037c-.543 0-.469-.335-.426-.536Z"/></svg>