<svg xmlns="http://www.w3.org/2000/svg" width="50" height="32" fill="none" viewBox="0 0 50 32"><rect width="49" height="31" x=".5" y=".5" fill="#fff" stroke="#000" rx="1.5"/><path fill="#263B80" d="M41.22 23.351h-1.116c-.056 0-.112-.057-.112-.114l.67-4.349H39.6c-.056 0-.112-.057-.112-.114l.168-.973c0-.114.112-.171.223-.171h3.572c.056 0 .112.057.112.114l-.168.972c0 .115-.112.172-.223.172H42.17l-.67 4.292c-.112.114-.223.171-.279.171Zm-8.094-1.261h.334c.893 0 1.675-.514 1.843-1.602.167-1.03-.391-1.602-1.34-1.602h-.223c-.056 0-.112.057-.112.114l-.502 3.09Zm-.78-4.289c0-.114.111-.171.222-.171h1.898c1.563 0 2.68 1.258 2.4 2.86-.279 1.603-1.73 2.861-3.293 2.861H31.62c-.056 0-.112-.057-.112-.114l.837-5.436Zm5.748 5.55h-1.117c-.056 0-.112-.057-.112-.114l.838-5.436c0-.114.112-.171.223-.171h1.116c.056 0 .112.057.112.114l-.837 5.436c0 .114-.112.171-.223.171Zm-8.205-4.29-.112.8h1.507c.056 0 .112.058.112.115l-.168.973c0 .114-.112.171-.223.171h-1.284c-.112 0-.168.057-.223.172l-.112.8h1.619c.056 0 .111.058.111.115l-.167.973c0 .114-.112.171-.223.171h-2.903c-.056 0-.112-.057-.112-.114l.838-5.436c0-.114.112-.171.223-.171h2.902c.056 0 .112.057.112.114l-.168.972c0 .115-.111.172-.223.172H30s-.111.058-.111.173Zm-5.024 1.142h.168c.503 0 1.005-.115 1.116-.744.112-.63-.223-.686-.725-.744H25.2c-.056 0-.112.058-.112.115l-.224 1.373Zm2.511 3.148H25.87c-.056 0-.112-.057-.168-.114l-1.004-2.117-.335 2.06c0 .057-.056.171-.168.171h-1.172c-.056 0-.112-.057-.112-.114l.837-5.436c0-.057.056-.171.168-.171h2.065c1.117 0 1.842.514 1.674 1.774-.111.8-.67 1.488-1.507 1.602l1.284 2.174c.112.057.057.171-.055.171Zm-4.353-4.118c0 .114-.168.171-.223.057-.223-.286-.614-.4-1.005-.4-.893 0-1.618.686-1.73 1.602-.112.915.39 1.545 1.284 1.545.39 0 .781-.171 1.116-.4.112-.058.223 0 .223.114l-.223 1.316c0 .057-.056.114-.168.171-.447.115-.781.23-1.228.23-2.4 0-2.79-2.118-2.679-3.033.335-2.518 2.344-3.09 3.572-3.033.391 0 .726.057 1.117.23a.316.316 0 0 1 .168.285l-.224 1.316Z"/><path fill="#139AD6" d="M36.699 11.28c-.112.743-.67.743-1.173.743h-.279l.223-1.373c0-.057.056-.114.168-.114h.112c.335 0 .67 0 .837.229.111.057.167.286.111.515Zm-.224-1.889h-1.953c-.112 0-.223.115-.279.23l-.782 5.149c0 .114.056.171.168.171h1.005c.112 0 .168-.057.168-.171l.223-1.488c0-.115.111-.229.279-.229h.613c1.284 0 2.065-.63 2.233-1.888.112-.572 0-.973-.223-1.316-.28-.286-.782-.458-1.452-.458Z"/><path fill="#263B80" d="M33.35 11.278h-.95c-.111 0-.167.057-.222.114l-1.284 1.946-.558-1.888a.306.306 0 0 0-.279-.172h-.948c-.112 0-.168.114-.168.229l1.06 3.147-1.004 1.43c-.056.115 0 .287.112.287h.948c.112 0 .168-.058.223-.115l3.126-4.635c.166-.229.055-.343-.057-.343Z"/><path fill="#139AD6" d="M41.052 13.168c-.112.572-.502.915-1.06.915-.28 0-.503-.114-.614-.286-.112-.172-.168-.4-.168-.687.112-.571.503-.915 1.06-.915.28 0 .503.115.614.286.113.172.168.4.168.687Zm1.284-1.89h-.95c-.055 0-.167.056-.167.114l-.056.286-.056-.115c-.223-.286-.67-.4-1.116-.4-1.06 0-1.953.8-2.121 1.945-.112.572.056 1.087.335 1.488.279.344.67.515 1.172.515.838 0 1.284-.572 1.284-.572l-.056.286c0 .115.056.172.167.172h.838c.112 0 .223-.115.279-.23l.502-3.318c.112-.115.056-.172-.055-.172Z"/><path fill="#263B80" d="M22.688 11.28c-.112.743-.67.743-1.172.743h-.279l.223-1.373c0-.057.056-.114.168-.114h.112c.335 0 .67 0 .837.229.111.057.167.286.111.515Zm-.223-1.889h-1.953c-.112 0-.223.115-.279.23l-.781 5.149c0 .114.055.171.167.171h.949c.112 0 .223-.114.279-.228l.223-1.373c0-.115.112-.23.279-.23h.614c1.283 0 2.065-.628 2.232-1.888.112-.572 0-.972-.223-1.315-.334-.344-.837-.516-1.507-.516Zm4.579 3.777c-.112.572-.502.915-1.06.915-.28 0-.503-.114-.614-.286-.112-.172-.168-.4-.168-.687.112-.571.503-.915 1.06-.915.28 0 .503.115.614.286.112.172.168.4.168.687Zm1.283-1.89h-.949c-.056 0-.168.056-.168.114l-.056.286-.055-.115c-.224-.286-.67-.4-1.117-.4-1.06 0-1.953.8-2.12 1.945-.113.572.055 1.087.334 1.488.279.344.67.515 1.172.515.838 0 1.284-.572 1.284-.572l-.056.286c0 .115.056.172.168.172h.837c.112 0 .223-.115.279-.23l.503-3.318c.111-.115.056-.172-.056-.172Z"/><path fill="#139AD6" d="m43.453 9.56-.782 5.265c0 .114.056.171.168.171h.837c.112 0 .224-.114.28-.228l.781-5.15c0-.115-.056-.172-.168-.172h-.893c-.112-.057-.223 0-.223.115m-27.741 3.376c.168-1.087 0-1.83-.558-2.517-.614-.744-1.786-1.03-3.238-1.03H7.675a.658.658 0 0 0-.614.515L5.274 21.348c-.056.23.112.458.335.458h2.623l-.167 1.144c-.056.172.112.4.335.4h2.176c.28 0 .503-.171.503-.457v-.114l.39-2.69v-.17c.057-.287.28-.458.503-.458h.335c2.121 0 3.795-.916 4.298-3.433.223-1.087.112-1.946-.447-2.575 0-.23-.223-.401-.446-.516Z"/><path fill="#000" d="M9.684 12.938c.056-.172.167-.343.279-.4.056-.058.167-.058.223-.058h3.293c.39 0 .782 0 1.116.057.112 0 .168.058.28.058.111 0 .167.057.278.057.056 0 .112 0 .112.057.168.057.335.114.447.172.168-1.087 0-1.832-.558-2.518-.614-.744-1.786-1.03-3.238-1.03H7.675a.658.658 0 0 0-.614.515L5.274 21.292c-.056.228.112.457.335.457h2.623l.67-4.291.782-4.52Z"/><path fill="#232C65" d="M15.712 12.88c.168-1.086 0-1.83-.558-2.517-.614-.744-1.786-1.03-3.238-1.03H7.675a.658.658 0 0 0-.614.515L5.274 21.292c-.056.228.112.457.335.457h2.623l.67-4.291v.114a.611.611 0 0 1 .614-.515h1.228c2.456 0 4.354-1.03 4.912-3.947.056-.058.056-.115.056-.23Z"/></svg>