<svg xmlns="http://www.w3.org/2000/svg" width="30" height="18" fill="none" viewBox="0 0 30 18"><rect width="29" height="17" x=".5" y=".5" fill="#fff" stroke="#000" rx="1.5"/><path fill="#0054A5" d="M4.43 13h.237v-.85H4.43V13Zm11.595-.85h.253l.214.604.21-.604h.245l-.315.818-.058.15a.59.59 0 0 1-.06.114.254.254 0 0 1-.155.102.66.66 0 0 1-.256 0l-.021-.176c.037.007.07.01.1.01.056 0 .097-.015.123-.046a.32.32 0 0 0 .061-.12l-.34-.852Zm-4.981.85v-.127a.37.37 0 0 1-.46.11.228.228 0 0 1-.104-.105.452.452 0 0 1-.032-.189v-.54h.238v.392c0 .12.005.193.013.22a.12.12 0 0 0 .048.064.153.153 0 0 0 .088.024c.04 0 .077-.01.109-.032a.163.163 0 0 0 .065-.079.863.863 0 0 0 .018-.23v-.358h.238V13h-.22Zm15.514-.407c-.03.01-.079.02-.144.034a.451.451 0 0 0-.13.04.092.092 0 0 0-.045.08c0 .031.012.058.037.081a.132.132 0 0 0 .094.035.211.211 0 0 0 .122-.04.143.143 0 0 0 .056-.075.432.432 0 0 0 .01-.11v-.045Zm-.32-.184-.213-.038a.318.318 0 0 1 .125-.183c.06-.04.147-.06.263-.06a.59.59 0 0 1 .237.037.232.232 0 0 1 .109.09.442.442 0 0 1 .032.202l-.003.263c0 .075.004.13.012.166a.468.468 0 0 0 .042.115h-.235a.732.732 0 0 1-.031-.092.387.387 0 0 1-.277.113.314.314 0 0 1-.219-.072.232.232 0 0 1-.08-.18.234.234 0 0 1 .138-.215.832.832 0 0 1 .19-.054c.11-.02.187-.038.23-.055v-.023c0-.044-.012-.075-.034-.094-.023-.018-.066-.028-.128-.028a.178.178 0 0 0-.1.024.165.165 0 0 0-.057.084Zm-.653.095c-.002-.066-.02-.116-.054-.15a.167.167 0 0 0-.124-.053.168.168 0 0 0-.129.055.205.205 0 0 0-.05.148h.357Zm-.013.229.236.037a.37.37 0 0 1-.144.187.442.442 0 0 1-.247.064c-.156 0-.272-.048-.347-.145a.472.472 0 0 1-.089-.294c0-.142.04-.253.117-.333a.394.394 0 0 1 .295-.12c.134 0 .24.042.316.126.078.084.114.213.111.387h-.596a.22.22 0 0 0 .058.156.187.187 0 0 0 .138.056c.037 0 .069-.01.095-.029a.176.176 0 0 0 .057-.092Zm-4.17.027.238-.034c.01.043.03.076.062.098a.217.217 0 0 0 .13.034.24.24 0 0 0 .138-.032.071.071 0 0 0 .03-.06.057.057 0 0 0-.016-.043.195.195 0 0 0-.08-.03c-.192-.04-.314-.077-.365-.11a.217.217 0 0 1-.107-.192c0-.074.03-.136.092-.187.062-.05.157-.075.287-.075a.53.53 0 0 1 .274.056.29.29 0 0 1 .124.168l-.223.04a.131.131 0 0 0-.055-.077.212.212 0 0 0-.116-.026.273.273 0 0 0-.135.025c-.018.012-.027.027-.027.046 0 .016.007.03.023.04a.919.919 0 0 0 .223.065.682.682 0 0 1 .265.1c.05.04.075.097.075.169a.254.254 0 0 1-.103.202c-.069.056-.17.084-.305.084a.523.523 0 0 1-.29-.07.324.324 0 0 1-.139-.19m-2.13-.257a.213.213 0 0 0-.053-.15.167.167 0 0 0-.124-.053.168.168 0 0 0-.129.055.205.205 0 0 0-.05.148h.356Zm-.012.229.235.037a.37.37 0 0 1-.144.187.442.442 0 0 1-.246.064c-.157 0-.272-.048-.347-.145a.472.472 0 0 1-.09-.294c0-.142.04-.253.117-.333a.394.394 0 0 1 .296-.12c.133 0 .239.042.316.126.077.084.114.213.11.387h-.595a.22.22 0 0 0 .058.156.186.186 0 0 0 .138.056c.037 0 .069-.01.094-.029a.174.174 0 0 0 .058-.092Zm-2.127-.583h.218v.116a.358.358 0 0 1 .43-.104.267.267 0 0 1 .104.102.414.414 0 0 1 .128-.101.327.327 0 0 1 .146-.034.34.34 0 0 1 .167.038c.046.025.08.063.102.112a.467.467 0 0 1 .025.177V13h-.238v-.487c0-.084-.008-.139-.025-.163-.022-.033-.055-.049-.1-.049a.167.167 0 0 0-.094.03.161.161 0 0 0-.063.084.578.578 0 0 0-.02.176v.41h-.238v-.468a.62.62 0 0 0-.012-.16.103.103 0 0 0-.04-.054.128.128 0 0 0-.072-.018c-.036 0-.07.01-.098.028a.155.155 0 0 0-.063.082.577.577 0 0 0-.02.175V13h-.237v-.85Zm-1.512.443c-.03.01-.078.02-.144.034a.451.451 0 0 0-.129.04.093.093 0 0 0-.046.08.11.11 0 0 0 .037.081.132.132 0 0 0 .095.035.211.211 0 0 0 .122-.04.143.143 0 0 0 .056-.075.432.432 0 0 0 .01-.11v-.045Zm-.319-.184-.213-.038a.318.318 0 0 1 .125-.183.472.472 0 0 1 .263-.06c.106 0 .185.013.236.037a.232.232 0 0 1 .11.09.442.442 0 0 1 .031.202l-.002.263c0 .075.004.13.011.166a.465.465 0 0 0 .043.115h-.236a.732.732 0 0 1-.03-.092.387.387 0 0 1-.277.113.314.314 0 0 1-.219-.072.232.232 0 0 1-.08-.18.234.234 0 0 1 .138-.215.832.832 0 0 1 .189-.054c.11-.02.188-.038.23-.055v-.023c0-.044-.011-.075-.034-.094-.022-.018-.065-.028-.128-.028a.178.178 0 0 0-.099.024.165.165 0 0 0-.058.084Zm-2.832.166c0 .085.021.15.064.195a.206.206 0 0 0 .156.067.205.205 0 0 0 .156-.067c.042-.045.063-.11.063-.196 0-.084-.02-.148-.063-.193a.205.205 0 0 0-.156-.068.206.206 0 0 0-.156.068c-.043.045-.064.11-.064.194Zm-.243-.012c0-.075.02-.148.059-.218a.39.39 0 0 1 .165-.16.509.509 0 0 1 .238-.056c.135 0 .247.042.333.126.087.084.13.19.13.318a.427.427 0 0 1-.131.32.455.455 0 0 1-.33.128.542.542 0 0 1-.235-.053.374.374 0 0 1-.17-.155.499.499 0 0 1-.059-.25Zm-3.987-.059c-.001-.066-.019-.116-.053-.15a.167.167 0 0 0-.124-.053.169.169 0 0 0-.129.055.205.205 0 0 0-.05.148h.357Zm-.012.229.236.037a.37.37 0 0 1-.145.187.443.443 0 0 1-.246.064c-.156 0-.272-.048-.347-.145a.472.472 0 0 1-.089-.294c0-.142.039-.253.117-.333a.394.394 0 0 1 .295-.12c.134 0 .239.042.316.126.077.084.114.213.111.387H7.88a.221.221 0 0 0 .058.156.187.187 0 0 0 .138.056c.037 0 .069-.01.094-.029a.176.176 0 0 0 .058-.092Zm-1.969-.176c0 .09.018.157.055.199a.172.172 0 0 0 .135.063.19.19 0 0 0 .145-.065c.04-.043.06-.107.06-.192 0-.088-.02-.153-.057-.196a.184.184 0 0 0-.144-.065.176.176 0 0 0-.14.063c-.036.042-.054.107-.054.193Zm-.214.5.27.027c.005.032.015.054.032.066.022.017.058.025.106.025a.29.29 0 0 0 .14-.026.11.11 0 0 0 .047-.057.326.326 0 0 0 .011-.104l.001-.124a.324.324 0 0 1-.267.136.335.335 0 0 1-.286-.145.476.476 0 0 1-.083-.286c0-.142.036-.252.108-.327a.358.358 0 0 1 .27-.113c.11 0 .202.046.275.139v-.118h.22v.764a.714.714 0 0 1-.026.226.277.277 0 0 1-.073.117.33.33 0 0 1-.127.067.7.7 0 0 1-.2.024c-.151 0-.26-.025-.323-.075a.23.23 0 0 1-.095-.217ZM24.554 13h-.238v-.85h.221v.12a.38.38 0 0 1 .102-.113.19.19 0 0 1 .102-.028c.054 0 .106.014.157.042l-.073.197a.217.217 0 0 0-.112-.037.137.137 0 0 0-.084.026c-.024.018-.042.05-.055.095-.013.045-.02.14-.02.285V13Zm-3.987 0h-.238v-.435a.642.642 0 0 0-.015-.178.126.126 0 0 0-.05-.064.146.146 0 0 0-.082-.022c-.04 0-.077.01-.11.032a.163.163 0 0 0-.066.085.706.706 0 0 0-.018.196V13h-.238v-.85h.22v.125a.363.363 0 0 1 .296-.146c.052 0 .1.009.143.027.043.017.076.04.098.068a.24.24 0 0 1 .046.095.672.672 0 0 1 .014.151V13Zm-8.779 0h-.238v-.85h.22v.12a.382.382 0 0 1 .103-.113.189.189 0 0 1 .102-.028c.054 0 .106.014.157.042l-.073.197a.217.217 0 0 0-.112-.037.137.137 0 0 0-.084.026c-.024.018-.042.05-.055.095-.013.045-.02.14-.02.285V13Zm-6.01 0H5.54v-.435a.645.645 0 0 0-.015-.178.126.126 0 0 0-.05-.064.146.146 0 0 0-.081-.022.19.19 0 0 0-.11.032.162.162 0 0 0-.067.085.705.705 0 0 0-.018.196V13H4.96v-.85h.22v.125a.363.363 0 0 1 .296-.146c.052 0 .1.009.143.027a.24.24 0 0 1 .098.068c.022.028.038.06.047.095a.67.67 0 0 1 .013.151V13Zm15.49-.85v.18h-.162v.343c0 .07.002.11.005.122a.05.05 0 0 0 .02.029.077.077 0 0 0 .04.011.308.308 0 0 0 .094-.022l.02.175a.488.488 0 0 1-.186.033.306.306 0 0 1-.115-.02.166.166 0 0 1-.075-.053.203.203 0 0 1-.033-.088 1.053 1.053 0 0 1-.007-.159v-.372h-.108v-.18h.108v-.17l.238-.132v.303h.162Zm2.419.386-.173-.435-.167.435h.34Zm.459.464h-.27l-.107-.265h-.498l-.102.265h-.265l.48-1.174h.262l.5 1.174Zm-9.969-.976v.335h.136a.67.67 0 0 0 .197-.018.155.155 0 0 0 .106-.15.149.149 0 0 0-.04-.107.174.174 0 0 0-.1-.052 1.243 1.243 0 0 0-.179-.008h-.12Zm-.25.976v-1.174h.4c.152 0 .251.006.297.017.071.018.13.056.178.115a.352.352 0 0 1 .072.23.368.368 0 0 1-.042.181.327.327 0 0 1-.104.116.37.37 0 0 1-.13.056c-.06.01-.145.016-.258.016h-.163V13h-.25Zm-4.672 0v-1.174h.914v.198h-.664v.26h.618v.199h-.618v.32h.69V13h-.94Zm-2.081 0h.238v-1.174h-.238V13Zm-2.744-.967h.237v-.207H4.43v.207Zm-1.266.583.243-.024a.278.278 0 0 0 .09.172.277.277 0 0 0 .18.055c.08 0 .14-.017.182-.049.04-.032.06-.07.06-.114a.105.105 0 0 0-.025-.07.208.208 0 0 0-.09-.052 3.408 3.408 0 0 0-.199-.05.69.69 0 0 1-.28-.117.299.299 0 0 1-.06-.403.332.332 0 0 1 .154-.118.65.65 0 0 1 .243-.041c.155 0 .272.032.35.097.079.065.12.151.124.26l-.25.009c-.011-.06-.034-.104-.07-.13A.261.261 0 0 0 3.66 12a.296.296 0 0 0-.17.042.084.084 0 0 0-.04.073c0 .028.012.052.037.071a.675.675 0 0 0 .23.079c.12.027.21.055.268.084.058.03.104.07.137.12.033.05.049.113.049.187a.35.35 0 0 1-.226.321.733.733 0 0 1-.27.043c-.156 0-.276-.034-.36-.103a.443.443 0 0 1-.15-.302"/><path fill="#FEC10E" d="M13.139 6.115c.718 0 1.359.314 1.78.807l.376-.765a3.386 3.386 0 0 0-2.268-.852c-1.372 0-2.546.787-3.027 1.902h-.732l-.432.88h.941a2.853 2.853 0 0 0 .005.546h-.474l-.432.88h1.146c.496 1.086 1.655 1.849 3.005 1.849.681 0 1.313-.194 1.836-.525V9.758a2.34 2.34 0 0 1-1.724.744 2.326 2.326 0 0 1-1.92-.989h2.4l.432-.88h-3.185a2.12 2.12 0 0 1-.014-.546h3.466l.433-.88h-3.6a2.318 2.318 0 0 1 1.988-1.092"/><path fill="#0054A5" d="M8.418 7.21h-1.62c0-.252-.03-.421-.093-.507-.097-.128-.363-.192-.798-.192-.423 0-.703.037-.84.11-.137.074-.205.235-.205.482 0 .224.06.371.182.442.087.05.202.08.345.088l.327.022c.7.044 1.137.075 1.312.093.553.053.955.193 1.204.42.196.176.313.408.35.693.022.17.033.364.033.579 0 .495-.05.857-.15 1.087-.18.421-.585.687-1.216.799-.264.047-.668.07-1.211.07-.908 0-1.54-.05-1.897-.154-.438-.126-.727-.382-.867-.767-.077-.215-.116-.572-.116-1.072h1.62v.128c0 .267.08.438.242.515.112.052.247.08.405.083h.596c.304 0 .498-.014.581-.044a.463.463 0 0 0 .294-.27.979.979 0 0 0 .037-.295c0-.27-.104-.435-.312-.494-.078-.024-.439-.056-1.084-.098a13.655 13.655 0 0 1-1.078-.101c-.53-.094-.884-.288-1.06-.583-.156-.25-.233-.628-.233-1.134 0-.385.042-.694.126-.927a1.02 1.02 0 0 1 .405-.53c.273-.185.622-.294 1.048-.326.354-.03.746-.044 1.178-.044.68 0 1.165.037 1.454.11.705.18 1.057.684 1.057 1.513 0 .067-.005.17-.016.305m6.48-.273a2.307 2.307 0 0 0-1.76-.797c-.788 0-1.526.397-1.937 1.04h3.593l-.018.037-.432.88-.008.015h-3.458a2.09 2.09 0 0 0 .012.493h3.204l-.018.038-.432.88-.008.016h-2.365a2.3 2.3 0 0 0 1.868.935 2.32 2.32 0 0 0 1.703-.734l.048-.053v1.164l-.012.007a3.452 3.452 0 0 1-1.85.53c-1.319 0-2.503-.726-3.024-1.85H8.833l.018-.037.432-.88.008-.016h.46a2.895 2.895 0 0 1-.004-.493h-.955l.019-.037.432-.88.007-.016h.731a3.108 3.108 0 0 1 1.183-1.364 3.447 3.447 0 0 1 1.863-.537c.858 0 1.67.305 2.287.859l.014.013-.008.017-.375.765-.02.038-.027-.033Zm-.191.295h-3.603l.024-.04c.416-.681 1.186-1.104 2.01-1.104.687 0 1.331.285 1.775.784l-.019.038.047-.006a2.275 2.275 0 0 0-.028-.032l.348-.71.015.013-.007-.03-.008.017a3.353 3.353 0 0 0-2.234-.831 3.39 3.39 0 0 0-1.832.528 3.055 3.055 0 0 0-1.17 1.357l-.006.016h-.734l.008-.015-.025.015h.017l-.406.827h-.043l.025.038.018-.038h.928l-.002.03a2.812 2.812 0 0 0 .004.54l.003.03h-.486l.008-.016-.026.015h.018l-.406.828h-.044l.026.038.018-.038h1.121l.007.016c.508 1.113 1.677 1.833 2.98 1.833a3.4 3.4 0 0 0 1.807-.513v.014l.012-.021-.012.007v-.996l.049-.051-.05-.018v.069a2.38 2.38 0 0 1-1.695.7 2.35 2.35 0 0 1-1.943-1l-.029-.04h2.434l-.008.015.025-.015h-.017l.406-.828h.044l-.025-.037-.019.037h-3.165l-.004-.022a2.152 2.152 0 0 1-.014-.553l.003-.024h3.474l-.008.016.026-.016H14.3l.406-.827Zm2.577 1.151h1.085c.344-.012.554-.037.63-.076.102-.054.171-.162.206-.323a2.59 2.59 0 0 0 .032-.48c0-.26-.021-.452-.065-.578-.063-.176-.213-.284-.45-.323a3.706 3.706 0 0 0-.338-.009h-1.1v1.789Zm-1.742 3.013V5.25h3.245c.445 0 .784.035 1.017.104.534.158.892.484 1.076.975.094.258.141.646.141 1.165 0 .623-.052 1.072-.156 1.344-.208.54-.636.85-1.283.931-.076.012-.4.023-.971.032l-.29.009h-1.037v1.587h-1.742Zm8.851-2.26-.816-2.664-.792 2.664h1.608Zm.346 1.197H22.41l-.312 1.063h-1.802L22.24 5.25h2.627l1.968 6.147H25.07l-.332-1.063Z"/></svg>