<svg xmlns="http://www.w3.org/2000/svg" width="20" height="12" fill="none" viewBox="0 0 20 12"><rect width="19" height="11" x=".5" y=".5" fill="#fff" stroke="#000" rx="1.5"/><path fill="#2F292B" d="M7.588 5.531h.44v.085h-.323v.225h.323v.084h-.323v.309h.352v.084h-.44v-.787h-.03Zm5.748.001h.117l-.38.365.41.421h-.118l-.352-.365-.029.028v.337h-.088v-.815h.088v.338l.352-.31Zm-1.232.786h-.088v-.815h.118c.146 0 .293.029.293.225 0 .113-.088.225-.205.225l.264.365h-.118l-.264-.365v.365Zm0-.421c.147 0 .235-.028.235-.14 0-.141-.088-.141-.205-.141h-.03v.28Zm-.498.028c0 .225-.206.421-.44.421-.235 0-.44-.196-.44-.421 0-.225.205-.422.44-.422.234 0 .44.197.44.422Zm-.792 0a.35.35 0 0 0 .352.337c.205 0 .352-.14.352-.337a.35.35 0 0 0-.352-.337c-.206 0-.352.14-.352.337Zm-2.112.393h-.088v-.73H8.41v-.085h.499v.085h-.206v.73Zm.821-.196.264-.647.264.647.235-.59h.088l-.323.842-.264-.646-.264.646-.322-.842h.088l.234.59Zm-3.138-.647.646.647v-.619h.088v.843L6.473 5.7v.618h-.088v-.843Z"/><path fill="#F99528" d="M4.603 10.8H17.86c.884 0 .884-.689.884-.69V5.63S13.732 9.199 4.603 10.8Z"/><path fill="#001E2D" d="M17.53 3.171c0-.45-.323-.702-.88-.702h-.733v2.388h.498v-.955h.06l.674.955h.616l-.792-1.011c.352-.085.557-.31.557-.675Zm-.997.394h-.147v-.73h.147c.293 0 .469.112.469.364.03.225-.147.366-.47.366Z"/><path fill="#2F292B" d="M17.77 2.582h-.064v.207h.064v-.078l.064.078h.065l-.065-.078c.033-.026.033-.052.033-.077 0-.052-.033-.052-.097-.052Zm0 .026c.049 0 .05.051 0 .051v-.051Z"/><path fill="#2F292B" d="M17.588 2.694c0 .112.088.196.206.196.117 0 .205-.084.205-.196 0-.197-.172-.197-.205-.197-.117 0-.206.084-.206.197Zm.206.14c-.088 0-.147-.056-.147-.14 0-.085.059-.14.147-.14s.146.055.146.14c0 .056-.058.14-.146.14Z"/><path fill="#001E2D" d="M14.187 4.857h1.407v-.421h-.909v-.647h.85v-.393h-.85v-.534h.91V2.47h-1.409v2.388ZM4.303 2.469h.499v2.388h-.499V2.47Zm-1.583 0h-.734v2.388h.704c.381 0 .645-.084.91-.28.293-.226.469-.563.469-.928 0-.702-.528-1.18-1.35-1.18Zm.586 1.798c-.147.14-.352.197-.675.197h-.117V2.89h.117c.323 0 .499.057.675.197a.75.75 0 0 1 .264.59c0 .197-.088.45-.264.59Zm2.698-.899c-.293-.112-.381-.168-.381-.309 0-.14.146-.253.352-.253.146 0 .264.056.381.197l.264-.31a1.157 1.157 0 0 0-.733-.252c-.44 0-.792.28-.792.674 0 .337.147.506.616.646.205.057.293.113.352.14a.294.294 0 0 1 .146.254c0 .196-.176.337-.38.337a.588.588 0 0 1-.529-.31l-.322.282c.234.309.498.45.88.45.498 0 .85-.338.85-.787 0-.394-.176-.562-.704-.759Z"/><path fill="url(#a)" d="M10.315 2.413c-.733 0-1.349.562-1.349 1.236 0 .73.587 1.264 1.35 1.264.732 0 1.319-.562 1.319-1.264.03-.702-.557-1.236-1.32-1.236Z"/><path fill="#001E2D" d="m12.779 4.07-.675-1.601h-.528l1.056 2.444h.264l1.085-2.444h-.528L12.78 4.07Zm-5.924-.42c0 .701.586 1.263 1.32 1.263.205 0 .38-.028.615-.14V4.21c-.205.197-.381.253-.586.253-.499 0-.85-.337-.85-.815 0-.45.351-.815.82-.815.235 0 .41.085.616.281v-.562c-.205-.112-.381-.14-.616-.14-.704 0-1.32.534-1.32 1.236Z"/><defs><radialGradient id="a" cx="0" cy="0" r="1" gradientTransform="matrix(1.36256 0 0 1.27611 10.327 3.656)" gradientUnits="userSpaceOnUse"><stop offset=".006" stop-color="#FFF0E5"/><stop offset=".111" stop-color="#FFECDC"/><stop offset=".283" stop-color="#FEE0C4"/><stop offset=".501" stop-color="#FCCC9C"/><stop offset=".753" stop-color="#FAB165"/><stop offset="1" stop-color="#F79329"/></radialGradient></defs></svg>