<svg xmlns="http://www.w3.org/2000/svg" width="30" height="18" fill="none" viewBox="0 0 30 18"><rect width="30" height="18" fill="#000" rx="2"/><path fill="#fff" d="M27.223 10.359a.752.752 0 0 0-.507.201.65.65 0 0 0-.208.483.65.65 0 0 0 .208.484.72.72 0 0 0 .507.202c.394 0 .714-.307.714-.685a.653.653 0 0 0-.207-.484.72.72 0 0 0-.507-.201Zm-2.351-.529c0-.52-.462-.94-1.032-.94-.57 0-1.032.421-1.032.94 0 .517.463.937 1.033.937.57 0 1.031-.42 1.031-.938Zm.004-1.825h1.14v3.648h-1.14v-.234a2.058 2.058 0 0 1-1.129.334c-1.108 0-2.007-.861-2.007-1.924 0-1.062.899-1.924 2.007-1.924.42 0 .808.123 1.13.334v-.234Zm-5.161-.097c-.454 0-.885.135-1.173.509v-.41h-1.134v3.646h1.148V9.737c0-.555.387-.827.855-.827.5 0 .789.287.789.819v1.924h1.137V9.334c0-.849-.704-1.426-1.622-1.426Zm-3.955.572v-.475h-1.166v3.646h1.169V9.948c0-.574.649-.883 1.1-.883h.013v-1.06c-.463 0-.887.19-1.116.474Zm-2.903 1.35c0-.52-.463-.94-1.033-.94-.57 0-1.032.421-1.032.94 0 .517.463.937 1.033.937.57 0 1.032-.42 1.032-.938Zm.004-1.825H14v3.648h-1.14v-.234a2.06 2.06 0 0 1-1.129.334c-1.108 0-2.007-.861-2.007-1.924 0-1.062.899-1.924 2.007-1.924.42 0 .808.123 1.13.334v-.234Zm-4.796 3.648h1.192V6.381H8.065v5.272Zm-5.239.001H4.09V6.38H2.827v5.274ZM7.243 6.38a4.108 4.108 0 0 1-1.292 2.993l1.745 2.281H6.137L4.241 9.176l.49-.352a3.08 3.08 0 0 0 .943-1.078 2.92 2.92 0 0 0 .332-1.366h1.237Z"/></svg>