<svg xmlns="http://www.w3.org/2000/svg" width="20" height="12" fill="none" viewBox="0 0 20 12"><rect width="19" height="11" x=".5" y=".5" fill="#fff" stroke="#000" rx="1.5"/><path fill="#000" d="m17.757 5.255-.483-.26-.489-.263c-.324-.174-.725.046-.725.398v.058c0 .034.02.061.048.08l.227.122c.062.033.143-.01.143-.077v-.14c0-.07.08-.113.142-.08l.447.242.444.241a.087.087 0 0 1 0 .156l-.444.242-.447.241c-.065.034-.142-.009-.142-.08v-.07c0-.351-.405-.571-.726-.397l-.489.263-.483.26a.447.447 0 0 0 0 .795l.483.26.49.263c.323.174.725-.046.725-.398v-.058c0-.033-.02-.061-.049-.08l-.227-.122c-.061-.033-.142.01-.142.077v.14c0 .07-.081.114-.143.08l-.447-.242-.443-.241a.087.087 0 0 1 0-.156l.443-.242.447-.241c.065-.034.143.009.143.08v.07c0 .351.405.571.725.397l.49-.263.482-.26a.447.447 0 0 0 0-.795Zm-3.162.085-1.13 2.202h-.47l.425-.823-.664-1.379h.48l.427.924.466-.924h.466Zm-7.397.642c-.029-.201-.204-.324-.411-.324a.408.408 0 0 0-.418.324h.83Zm-.829.245c.03.232.204.364.428.364.175 0 .31-.08.392-.202h.427c-.1.33-.414.544-.826.544-.499 0-.852-.33-.852-.804 0-.47.37-.813.862-.813s.852.342.852.813a.535.535 0 0 1-.01.101H6.37v-.003Zm5.811-.104a.438.438 0 0 0-.45-.447.44.44 0 0 0-.45.447c0 .256.2.446.45.446.249 0 .45-.183.45-.446Zm.006.78V6.7a.68.68 0 0 1-.521.229.782.782 0 0 1-.797-.807c0-.459.356-.81.806-.81.21 0 .392.088.512.226v-.196h.408v1.562l-.408-.003Zm-3.932-1.41s.104-.18.356-.18a.41.41 0 0 1 .178.036v.397s-.152-.088-.294-.07c-.14.019-.23.14-.23.303v.923h-.421V5.34h.408l.003.153Zm-4.939.63c0-.263-.2-.447-.45-.447a.44.44 0 0 0-.45.447c0 .256.2.446.45.446s.45-.183.45-.446Zm.003.78V6.7a.68.68 0 0 1-.521.229A.782.782 0 0 1 2 6.123c0-.459.356-.81.807-.81a.67.67 0 0 1 .511.226v-.196h.408v1.562l-.408-.003Zm6.98-.779a.443.443 0 0 0-.45-.446.44.44 0 0 0-.45.446c0 .257.2.446.45.446.246 0 .45-.192.45-.446ZM8.986 7.543V5.34h.408v.202a.672.672 0 0 1 .522-.232c.447 0 .796.345.796.807 0 .458-.356.81-.806.81a.662.662 0 0 1-.499-.208v.823h-.42Zm-3.284-.985c-.143 0-.182-.05-.182-.18v-.695h.263v-.342H5.52v-.38h-.417v.383h-.538v-.156c0-.132.052-.18.198-.18h.09v-.303h-.2c-.344 0-.506.107-.506.43v.209h-.233v.34h.233v1.222h.418V5.683h.538v.765c0 .318.13.455.466.455h.214v-.345h-.081Z"/></svg>