<svg xmlns="http://www.w3.org/2000/svg" width="38" height="24" fill="none" viewBox="0 0 38 24"><rect width="38" height="24" fill="#fff" rx="2"/><rect width="37" height="23" x=".5" y=".5" fill="#fff" stroke="#000" rx="1.5"/><path fill="#000" d="M26.97 18.516v-1.06c.094.024.305.024.41.024.587 0 .903-.254 1.096-.909 0-.012.112-.387.112-.393l-2.226-6.38h1.37l1.559 5.186h.023l1.558-5.186h1.336L29.9 16.505c-.527 1.545-1.136 2.042-2.414 2.042-.105 0-.422-.013-.515-.03Zm-4.09-6.04c-1.465.085-2.291.77-2.291 1.884 0 1.145.843 1.92 2.05 1.92.809 0 1.588-.447 1.945-1.156h.03v1.048h1.212v-4.393c0-1.278-.955-2.096-2.449-2.096-1.523 0-2.472.848-2.542 2h1.195c.111-.57.568-.934 1.3-.934.774 0 1.236.425 1.236 1.133v.491l-1.687.103Zm1.686.806v.503c0 .83-.69 1.46-1.575 1.46-.68 0-1.125-.364-1.125-.92 0-.546.427-.891 1.183-.946l1.517-.097ZM10.892 9.053c-.755-.046-1.396.443-1.757.443-.36 0-.912-.42-1.509-.408-.777.012-1.498.466-1.892 1.189-.811 1.445-.214 3.59.574 4.767.383.582.845 1.223 1.453 1.2.575-.023.8-.384 1.498-.384s.901.384 1.51.373c.63-.012 1.024-.583 1.407-1.166.44-.664.62-1.305.63-1.34-.01-.012-1.215-.49-1.227-1.923-.011-1.2.946-1.772.991-1.807-.54-.827-1.385-.92-1.678-.944m9.354 1.248c0-1.702-1.142-2.872-2.783-2.872h-3.17v8.743h1.313v-2.987h1.816c1.658 0 2.824-1.176 2.824-2.884Zm-3.134 1.745h-1.506V8.574h1.512c1.136 0 1.786.63 1.786 1.733 0 1.103-.65 1.739-1.792 1.739Zm-6.688-3.764c.316-.409.53-.958.474-1.52-.463.025-1.028.317-1.355.726-.294.35-.554.923-.486 1.46.52.047 1.04-.268 1.367-.666"/></svg>