<svg xmlns="http://www.w3.org/2000/svg" width="49" height="16" fill="none" viewBox="0 0 49 16"><g clip-path="url(#a)"><path fill="#4D8312" d="M16.836 6.551v-.334c0-1.142-.717-1.77-1.102-2.08-.468-.378-1.062-.577-1.72-.577h-.263a2.68 2.68 0 0 0-1.32.335 3.811 3.811 0 0 0-1.408-2.018C10.097 1.193 8.815.845 7.213.845H3.3c-1.039 0-1.685.452-2.036.824C.915 2.031.5 2.686.5 3.735v8.511c0 1.05.415 1.704.759 2.061.359.377 1.003.828 2.04.828h3.702c1.942 0 3.366-.351 4.356-1.068a3.93 3.93 0 0 0 .674-.63 3.974 3.974 0 0 0 1.77 1.524c.589.268 1.28.402 2.047.402.939 0 1.763-.215 2.446-.636.04-.022.076-.048.114-.072.282.207.594.354.929.443.274.07.554.106.827.106.437 0 .834-.068 1.175-.2.829-.316 1.097-.835 1.173-1.236.514.49 1.12.882 1.798 1.155a6.29 6.29 0 0 0 2.375.441c.81 0 1.533-.112 2.146-.332a5.37 5.37 0 0 0 1.506-.808c.111.154.238.296.39.418.467.373 1.046.562 1.72.562h.265c.654 0 1.245-.205 1.7-.584.327-.266.558-.616.694-1.04l.253.307c.363.489.778.842 1.227 1.051.433.2.878.302 1.324.302.403 0 .79-.08 1.139-.24.248-.11.47-.242.668-.394.847.484 1.978.723 3.462.723 1.496 0 2.72-.343 3.64-1.022 1.042-.767 1.593-1.875 1.593-3.206 0-.796-.201-1.479-.596-2.038a4.27 4.27 0 0 0-.428-.51 2.9 2.9 0 0 0 .492-.644c.201-.353.302-.744.302-1.161 0-.7-.266-1.705-1.534-2.504-.82-.52-1.925-.773-3.38-.773-.674 0-1.312.09-1.904.265a5.021 5.021 0 0 0-1.576.79 3.214 3.214 0 0 0-1.069-.743 2.772 2.772 0 0 0-1.143-.24 3.068 3.068 0 0 0-2.33 1.13V3.435c0-.574-.073-1.058-.227-1.479-.165-.457-.4-.84-.695-1.136a2.638 2.638 0 0 0-1.077-.663A3.263 3.263 0 0 0 32.255 0c-.417 0-.805.066-1.165.198-1.056.4-1.213 1.129-1.213 1.527v2.556a5.956 5.956 0 0 0-1.024-.478c-.616-.22-1.346-.332-2.168-.332-.842 0-1.635.15-2.355.44a5.808 5.808 0 0 0-1.901 1.23c-.017.014-.029.03-.044.045-.135-.42-.352-.773-.672-1.036-.323-.27-.887-.59-1.743-.59l-.45.001a2.69 2.69 0 0 0-1.753.64 2.603 2.603 0 0 0-.931 2.016"/><path fill="#fff" d="M18.684 12.233a3.755 3.755 0 0 1-1.145 1.093c-.459.282-1.022.422-1.693.422-.563 0-1.048-.09-1.453-.273a2.546 2.546 0 0 1-.987-.758 3.275 3.275 0 0 1-.564-1.137 5.088 5.088 0 0 1-.186-1.39V6.03c0-.446.104-.759.31-.934.205-.176.467-.265.784-.265h.264c.33 0 .6.086.811.257.212.17.317.483.317.942v3.788c0 .576.138 1.03.414 1.358.275.33.678.493 1.208.493a2 2 0 0 0 1.1-.308c.324-.205.573-.478.75-.82V6.03c0-.446.102-.759.308-.934.206-.176.474-.265.801-.265h.247c.34 0 .615.086.82.257.206.17.31.483.31.942v7.279c0 .046-.092.105-.275.176a1.823 1.823 0 0 1-.66.105c-.154 0-.31-.02-.468-.062a1.279 1.279 0 0 1-.44-.211 1.313 1.313 0 0 1-.353-.414c-.1-.177-.173-.4-.22-.67m24.496 1.48c-1.258 0-2.196-.19-2.813-.563-.615-.376-.924-.811-.924-1.304a.85.85 0 0 1 .115-.441c.075-.13.158-.239.246-.326.088-.09.173-.156.256-.204.082-.046.13-.064.141-.052a3.96 3.96 0 0 0 1.171.811c.477.223 1.03.335 1.666.335.494 0 .87-.071 1.129-.213.259-.14.386-.346.386-.617a.597.597 0 0 0-.123-.396.938.938 0 0 0-.36-.254 3.282 3.282 0 0 0-.582-.186c-.23-.053-.49-.108-.785-.168a31.55 31.55 0 0 1-.969-.247 3.683 3.683 0 0 1-.987-.422 2.489 2.489 0 0 1-.766-.74c-.206-.307-.308-.705-.308-1.198 0-.423.084-.805.255-1.145.17-.342.41-.632.722-.874.311-.24.69-.427 1.137-.564a5.14 5.14 0 0 1 1.481-.202c1.162 0 2.032.183 2.608.546.574.365.864.793.864 1.286a.898.898 0 0 1-.115.45 1.51 1.51 0 0 1-.538.556c-.082.045-.13.064-.14.052a3.362 3.362 0 0 0-2.52-1.145c-.471 0-.832.074-1.084.22-.254.147-.38.356-.38.625 0 .153.041.28.123.38a.886.886 0 0 0 .362.245c.158.066.35.124.572.176.224.053.482.11.775.168.306.071.645.153 1.014.247.37.094.714.239 1.031.432.317.193.584.443.803.749.217.307.325.706.325 1.198 0 .87-.335 1.551-1.004 2.044-.67.494-1.598.741-2.784.741m-16.495.035a4.87 4.87 0 0 1-1.832-.334 4.21 4.21 0 0 1-1.428-.935 4.2 4.2 0 0 1-.933-1.427 4.807 4.807 0 0 1-.335-1.815c0-.657.112-1.262.335-1.816a4.087 4.087 0 0 1 .943-1.418 4.48 4.48 0 0 1 1.435-.926 4.823 4.823 0 0 1 1.815-.334c.658 0 1.22.083 1.683.247.465.165.844.367 1.136.607.294.242.51.497.644.767.136.27.204.506.204.705 0 .247-.071.448-.213.6a1.513 1.513 0 0 1-.924.501c-.148.018-.227.017-.238-.01a2.447 2.447 0 0 0-.758-1.02c-.34-.27-.817-.406-1.427-.406-.34 0-.656.062-.944.186a2.114 2.114 0 0 0-.74.52 2.433 2.433 0 0 0-.484.792 2.784 2.784 0 0 0-.176 1.005c0 .364.058.703.176 1.012.117.313.278.58.485.803.204.223.451.396.74.52.287.123.603.185.943.185.598 0 1.071-.136 1.418-.406.347-.269.602-.61.767-1.021.011-.023.087-.029.228-.018a1.522 1.522 0 0 1 .934.494c.142.152.213.364.213.634 0 .2-.071.433-.213.696-.14.265-.36.516-.66.758-.3.241-.68.443-1.137.607-.458.165-1.01.247-1.657.247M6.825 11.58c.775 0 1.323-.12 1.64-.361.316-.24.474-.636.474-1.189 0-.505-.163-.874-.492-1.11-.33-.235-.864-.352-1.604-.352H4.499v3.013h2.326Zm-.142-4.67c.6 0 1.052-.129 1.358-.387.306-.258.459-.616.459-1.074 0-.47-.145-.82-.433-1.05-.288-.228-.748-.343-1.384-.343H4.499v2.855h2.184Zm-4.378 6.231c-.242-.252-.362-.609-.362-1.068v-8.51c0-.458.12-.814.362-1.066.24-.253.572-.38.995-.38h3.913c1.292 0 2.277.25 2.952.75.675.499 1.013 1.225 1.013 2.176 0 .635-.173 1.148-.52 1.543-.347.393-.855.684-1.525.87.847.201 1.47.548 1.869 1.041.4.494.6 1.087.6 1.78 0 1.104-.365 1.92-1.094 2.449-.728.53-1.898.793-3.507.793h-3.7c-.424 0-.756-.125-.996-.378Zm31.499-.731c0 .446-.103.755-.309.924-.204.17-.467.255-.783.255h-.265c-.34 0-.614-.082-.82-.245-.205-.167-.308-.477-.308-.934V1.554c0-.047.095-.106.283-.177a1.83 1.83 0 0 1 .651-.105c.187 0 .373.029.556.088.181.058.346.16.492.308.148.148.268.35.36.608.096.259.143.588.143.988v5.392l2.415-3.048c.199-.294.423-.5.669-.619.247-.116.476-.174.688-.174.199 0 .383.037.554.114a1.908 1.908 0 0 1 .723.546c.064.088.085.15.062.186l-2.696 3.365 3.048 3.754c.023.035 0 .097-.07.184a1.817 1.817 0 0 1-.292.281 1.95 1.95 0 0 1-.44.267 1.36 1.36 0 0 1-.555.113 1.68 1.68 0 0 1-.714-.167c-.24-.112-.472-.32-.696-.625l-2.696-3.279v2.856Z"/></g><defs><clipPath id="a"><path fill="#fff" d="M.5 0h48v16H.5z"/></clipPath></defs></svg>