<svg xmlns="http://www.w3.org/2000/svg" width="30" height="18" fill="none" viewBox="0 0 30 18"><path fill="#10299C" d="M0 1.526C0 .683.683 0 1.526 0h26.948C29.317 0 30 .683 30 1.526v14.948c0 .843-.683 1.526-1.526 1.526H1.526A1.526 1.526 0 0 1 0 16.474V1.526Z"/><path fill="#fff" d="M2.345 14.877h7.037v1.145H2.345v-1.145Zm.971-3.515v.338c0 .3-.198.492-.485.492-.29 0-.486-.191-.486-.492v-.338c0-.3.195-.49.486-.49.287 0 .485.19.485.49Z"/><path fill="#10299C" d="M3.106 11.396v.265c0 .236-.113.385-.275.385-.165 0-.275-.15-.275-.385v-.265c0-.235.11-.384.275-.384.162 0 .275.149.275.384Z"/><path fill="#fff" d="M4.49 11.362v.338c0 .3-.2.492-.486.492-.29 0-.485-.191-.485-.492v-.338c0-.3.195-.49.485-.49.287 0 .486.19.486.49Z"/><path fill="#10299C" d="M4.28 11.396v.265c0 .236-.113.385-.275.385-.165 0-.276-.15-.276-.385v-.265c0-.235.111-.384.276-.384.162 0 .275.149.275.384Z"/><path fill="#fff" d="M5.662 11.362v.338c0 .3-.198.492-.485.492-.29 0-.486-.191-.486-.492v-.338c0-.3.196-.49.486-.49.287 0 .485.19.485.49Z"/><path fill="#10299C" d="M5.452 11.396v.265c0 .236-.113.385-.275.385-.165 0-.275-.15-.275-.385v-.265c0-.235.11-.384.275-.384.162 0 .275.149.275.384Z"/><path fill="#fff" d="M6.835 11.362v.338c0 .3-.199.492-.486.492-.29 0-.485-.191-.485-.492v-.338c0-.3.195-.49.485-.49.287 0 .486.19.486.49Z"/><path fill="#10299C" d="M6.625 11.396v.265c0 .236-.113.385-.275.385-.165 0-.275-.15-.275-.385v-.265c0-.235.11-.384.275-.384.162 0 .275.149.275.384Z"/><path fill="#fff" d="M8.595 11.362v.338c0 .3-.2.492-.486.492-.29 0-.485-.191-.485-.492v-.338c0-.3.195-.49.485-.49.287 0 .486.19.486.49Z"/><path fill="#10299C" d="M8.384 11.396v.265c0 .236-.112.385-.275.385-.164 0-.275-.15-.275-.385v-.265c0-.235.11-.384.275-.384.163 0 .275.149.275.384Z"/><path fill="#fff" d="M9.767 11.362v.338c0 .3-.199.492-.486.492-.29 0-.485-.191-.485-.492v-.338c0-.3.195-.49.485-.49.287 0 .486.19.486.49Z"/><path fill="#10299C" d="M9.557 11.396v.265c0 .236-.113.385-.275.385-.165 0-.275-.15-.275-.385v-.265c0-.235.11-.384.275-.384.162 0 .275.149.275.384Z"/><path fill="#fff" d="M10.94 11.362v.338c0 .3-.199.492-.486.492-.29 0-.485-.191-.485-.492v-.338c0-.3.195-.49.485-.49.287 0 .486.19.486.49Z"/><path fill="#10299C" d="M10.73 11.396v.265c0 .236-.113.385-.276.385-.164 0-.275-.15-.275-.385v-.265c0-.235.11-.384.275-.384.163 0 .275.149.275.384Z"/><path fill="#fff" d="M12.113 11.362v.338c0 .3-.2.492-.486.492-.29 0-.485-.191-.485-.492v-.338c0-.3.195-.49.485-.49.287 0 .486.19.486.49Z"/><path fill="#10299C" d="M11.902 11.396v.265c0 .236-.113.385-.275.385-.165 0-.275-.15-.275-.385v-.265c0-.235.11-.384.275-.384.162 0 .275.149.275.384Z"/><path fill="#fff" d="M14.458 11.362v.338c0 .3-.198.492-.485.492-.29 0-.486-.191-.486-.492v-.338c0-.3.196-.49.486-.49.287 0 .485.19.485.49Z"/><path fill="#10299C" d="M14.248 11.396v.265c0 .236-.112.385-.275.385-.164 0-.275-.15-.275-.385v-.265c0-.235.11-.384.275-.384.163 0 .275.149.275.384Z"/><path fill="#fff" d="M15.631 11.362v.338c0 .3-.199.492-.485.492-.29 0-.486-.191-.486-.492v-.338c0-.3.195-.49.486-.49.286 0 .485.19.485.49Z"/><path fill="#10299C" d="M15.42 11.396v.265c0 .236-.112.385-.274.385-.165 0-.275-.15-.275-.385v-.265c0-.235.11-.384.275-.384.162 0 .275.149.275.384Z"/><path fill="#fff" d="M16.804 11.362v.338c0 .3-.2.492-.486.492-.29 0-.486-.191-.486-.492v-.338c0-.3.196-.49.486-.49.287 0 .486.19.486.49Z"/><path fill="#10299C" d="M16.594 11.396v.265c0 .236-.113.385-.276.385-.164 0-.274-.15-.274-.385v-.265c0-.235.11-.384.274-.384.163 0 .276.149.276.384Z"/><path fill="#fff" d="M17.976 11.362v.338c0 .3-.198.492-.485.492-.29 0-.486-.191-.486-.492v-.338c0-.3.196-.49.486-.49.287 0 .485.19.485.49Z"/><path fill="#10299C" d="M17.765 11.396v.265c0 .236-.112.385-.275.385-.164 0-.275-.15-.275-.385v-.265c0-.235.111-.384.275-.384.163 0 .276.149.276.384Z"/><path fill="#fff" d="M19.736 11.362v.338c0 .3-.2.492-.486.492-.29 0-.485-.191-.485-.492v-.338c0-.3.195-.49.485-.49.287 0 .486.19.486.49Z"/><path fill="#10299C" d="M19.526 11.396v.265c0 .236-.113.385-.275.385-.165 0-.275-.15-.275-.385v-.265c0-.235.11-.384.275-.384.162 0 .275.149.275.384Z"/><path fill="#fff" d="M20.909 11.362v.338c0 .3-.2.492-.486.492-.29 0-.485-.191-.485-.492v-.338c0-.3.195-.49.485-.49.287 0 .486.19.486.49Z"/><path fill="#10299C" d="M20.698 11.396v.265c0 .236-.113.385-.275.385-.164 0-.275-.15-.275-.385v-.265c0-.235.11-.384.275-.384.163 0 .275.149.275.384Z"/><path fill="#fff" d="M22.081 11.362v.338c0 .3-.198.492-.485.492-.29 0-.486-.191-.486-.492v-.338c0-.3.196-.49.486-.49.287 0 .485.19.485.49Z"/><path fill="#10299C" d="M21.87 11.396v.265c0 .236-.112.385-.275.385-.164 0-.275-.15-.275-.385v-.265c0-.235.11-.384.275-.384.163 0 .276.149.276.384Z"/><path fill="#fff" d="M23.254 11.362v.338c0 .3-.199.492-.486.492-.29 0-.485-.191-.485-.492v-.338c0-.3.195-.49.485-.49.287 0 .486.19.486.49Z"/><path fill="#10299C" d="M23.043 11.396v.265c0 .236-.112.385-.275.385-.164 0-.275-.15-.275-.385v-.265c0-.235.11-.384.275-.384.163 0 .275.149.275.384Z"/><path fill="#fff" d="M2.345 4.834c0-.46.382-.832.853-.832h2.985c.472 0 .853.373.853.832v2.914c0 .46-.381.833-.853.833H3.198a.843.843 0 0 1-.853-.833V4.834Z"/><path fill="#10299C" d="M5.903 7.161V3.977h.214v1.45h.92v.208h-.92v.555h.92v.208h-.92v.555h.92v.208H5.902ZM3.478 5.427H2.345v.208h.92v.555h-.92v.208h.92v.555h-.92v.208h.92v1.45h.213V5.427Z"/><path fill="#fff" d="M21 2.287h7.037v.572H21v-.572Z"/></svg>