<svg xmlns="http://www.w3.org/2000/svg" width="38" height="24" fill="none" viewBox="0 0 38 24"><g clip-path="url(#a)"><path fill="#E53238" d="M0 0h9.88v24H0z"/><path fill="#0064D2" d="M9.88 0H19v24H9.88z"/><path fill="#86B817" d="M28.88 0H38v24h-9.12z"/><path fill="#F4C252" d="M19 0h9.88v24H19z"/><rect width="36" height="22" x="1" y="1" fill="#fff" rx="1"/><path fill="#F5AF02" fill-rule="evenodd" d="M26.07 14.519c0 .42.013.836.05 1.21h-1.347a7.874 7.874 0 0 1-.049-.91c-.727.893-1.593 1.15-2.794 1.15-1.781 0-2.735-.94-2.735-2.029 0-1.575 1.297-2.131 3.549-2.183a86.41 86.41 0 0 1 1.88-.016v-.154c0-1.054-.678-1.488-1.85-1.488-.872 0-1.514.36-1.58.982h-1.52c.16-1.551 1.792-1.944 3.227-1.944 1.718 0 3.17.611 3.17 2.427v2.955Zm-3.227-1.792c-1.312.043-2.127.28-2.127 1.143 0 .56.446 1.165 1.578 1.165 1.519 0 2.33-.827 2.33-2.183v-.15c-.533 0-1.19.006-1.78.025Z" clip-rule="evenodd"/><path fill="#E53238" fill-rule="evenodd" d="M6.034 12.919c.078 1.312.984 2.089 2.23 2.089.862 0 1.63-.352 1.887-1.116h1.493c-.29 1.55-1.94 2.077-3.36 2.077-2.58 0-3.724-1.42-3.724-3.335 0-2.108 1.183-3.497 3.748-3.497 2.042 0 3.538 1.068 3.538 3.398v.384H6.034Zm4.292-.962c-.057-1.352-1.034-1.858-2.078-1.858-1.126 0-2.025.569-2.183 1.858h4.26Z" clip-rule="evenodd"/><path fill="#0064D2" fill-rule="evenodd" d="M11.844 6.592h1.447v3.633c.71-.845 1.686-1.09 2.648-1.09 1.613 0 3.404 1.087 3.404 3.434 0 1.966-1.425 3.398-3.43 3.398-1.05 0-2.04-.377-2.649-1.122 0 .298-.016.598-.05.882h-1.42c.026-.46.05-1.03.05-1.493V6.592Zm3.713 8.386c1.345 0 2.265-.967 2.265-2.427s-.92-2.427-2.265-2.427c-1.338 0-2.266.968-2.266 2.427 0 1.46.928 2.427 2.266 2.427Z" clip-rule="evenodd"/><path fill="#86B817" fill-rule="evenodd" d="m33.44 9.378-4.475 8.78h-1.62l1.286-2.438-3.367-6.342h1.693l2.478 4.955 2.471-4.955h1.534Z" clip-rule="evenodd"/></g><defs><clipPath id="a"><rect width="38" height="24" fill="#fff" rx="2"/></clipPath></defs></svg>