<svg xmlns="http://www.w3.org/2000/svg" width="20" height="12" fill="none" viewBox="0 0 20 12"><rect width="19" height="11" x=".5" y=".5" fill="#fff" stroke="#000" rx="1.5"/><path fill="#4285F4" d="M7.216 5.768c0-.171-.015-.342-.044-.51H4.713v.967h1.409c-.058.31-.246.59-.521.764v.628h.84c.492-.436.775-1.081.775-1.85Z"/><path fill="#34A853" d="M4.713 8.226c.703 0 1.297-.224 1.728-.608L5.6 6.99a1.605 1.605 0 0 1-.888.241c-.68 0-1.256-.443-1.463-1.036h-.865v.649c.442.848 1.343 1.382 2.328 1.382Z"/><path fill="#3C4043" d="m17.895 4.93-1.948 4.31h-.601l.724-1.507-1.28-2.803h.634l.924 2.15h.01l.902-2.15h.634Zm-8.322-.844v1.529h.978a.777.777 0 0 0 .576-.227.75.75 0 0 0-.019-1.085.811.811 0 0 0-.557-.217h-.978Zm0 2.066v1.773H8.99V3.55h1.546a1.42 1.42 0 0 1 1 .38c.529.475.561 1.274.065 1.787l-.065.063a1.43 1.43 0 0 1-1 .373h-.963Zm2.973.855a.45.45 0 0 0 .192.366c.13.098.29.15.453.147a.944.944 0 0 0 .655-.262.81.81 0 0 0 .29-.618c-.181-.14-.435-.21-.76-.206-.236 0-.435.056-.594.164-.156.109-.236.245-.236.409Zm.754-2.174c.43 0 .77.111 1.02.331.25.22.374.527.374.915v1.846h-.558v-.416h-.025c-.243.342-.562.513-.964.513-.34 0-.63-.098-.858-.293a.912.912 0 0 1-.344-.733c0-.31.123-.555.366-.74.242-.184.568-.275.974-.275.348 0 .63.063.855.181v-.129a.646.646 0 0 0-.24-.499.866.866 0 0 0-.56-.206.896.896 0 0 0-.772.398l-.514-.31c.275-.388.691-.583 1.245-.583Z"/><path fill="#FBBC04" d="M3.25 6.194a1.464 1.464 0 0 1 0-.963v-.646h-.865a2.41 2.41 0 0 0 0 2.255l.866-.646Z"/><path fill="#EA4335" d="M4.713 4.195c.373-.007.732.129 1 .376l.746-.718A2.57 2.57 0 0 0 4.713 3.2c-.985 0-1.886.537-2.328 1.385l.865.65a1.553 1.553 0 0 1 1.463-1.04Z"/></svg>