<svg xmlns="http://www.w3.org/2000/svg" viewBox="0 0 14 16">
  <path
    d="M9.457 9.207a1 1 0 0 0-1.414-1.414L6.25 9.586l-.293-.293a1 1 0 0 0-1.414 1.414l1 1a1 1 0 0 0 1.414 0l2.5-2.5Z"
  />
  <path
    fill-rule="evenodd"
    d="M3.535 2A3.998 3.998 0 0 1 7 0c1.48 0 2.773.804 3.465 2H11.5A2.5 2.5 0 0 1 14 4.5v9a2.5 2.5 0 0 1-2.5 2.5h-9A2.5 2.5 0 0 1 0 13.5v-9A2.5 2.5 0 0 1 2.5 2h1.035ZM5 4a2 2 0 1 1 4 0H5Zm6 0h.5a.5.5 0 0 1 .5.5v9a.5.5 0 0 1-.5.5h-9a.5.5 0 0 1-.5-.5v-9a.5.5 0 0 1 .5-.5H3v1a1 1 0 0 0 1 1h6a1 1 0 0 0 1-1V4Z"
    clip-rule="evenodd"
  />
</svg>
