<svg xmlns="http://www.w3.org/2000/svg" width="38" height="24" fill="none" viewBox="0 0 38 24"><rect width="37" height="23" x=".5" y=".5" fill="#fff" stroke="#000" rx="3.5"/><path fill="url(#a)" d="M36.761 24H1.24A1.25 1.25 0 0 1 0 22.744V1.256A1.25 1.25 0 0 1 1.239 0H36.76A1.25 1.25 0 0 1 38 1.256v21.488A1.25 1.25 0 0 1 36.761 24Z"/><path fill="#E59331" d="M29.95 15.542h2.184v3.987H29.95v-3.987Z"/><path fill="#CF4C3C" d="M30.09 17.535a2.525 2.525 0 0 1 .96-1.993 2.485 2.485 0 0 0-3.515.424 2.566 2.566 0 0 0 .418 3.563c.91.722 2.187.722 3.097 0a2.528 2.528 0 0 1-.96-1.994Z"/><path fill="#EDB837" d="M35.107 17.535a2.56 2.56 0 0 1-.735 1.799 2.49 2.49 0 0 1-1.773.744 2.463 2.463 0 0 1-1.55-.549 2.555 2.555 0 0 0 .952-1.994c0-.776-.35-1.51-.951-1.993a2.485 2.485 0 0 1 3.515.424c.356.454.542 1.004.542 1.57Z"/><path fill="#264186" d="M28.88 21.75h8.36v1.5h-8.36z"/><path fill="#D5D0C7" d="M8.284 11.82H4.877a.772.772 0 0 1-.773-.786V8.9c0-.44.34-.785.773-.785h3.407c.434 0 .774.345.774.785v2.134c0 .44-.34.786-.774.786Z"/><path stroke="#968A81" stroke-width=".15" d="M8.966 9.418H7.587s-.31.455 0 1.146c0 0-.356.549.047 1.193"/><path fill="#968A81" d="M7.587 10.533H8.95v.156H7.587v-.156ZM5.62 11.836l-.062-.032c.34-.706.078-1.193.078-1.193v-.032c.139-.831-.016-1.146-.016-1.146v-.031c.248-.785-.062-1.21-.062-1.21l.062-.046c.016.015.326.455.078 1.27.031.079.139.409.015 1.163.032.095.233.582-.093 1.257Z"/><path fill="#968A81" d="M5.961 8.476H7.2v.157H5.961v-.157Zm-.252.983-1.44.015.002.156 1.44-.013-.002-.158Zm0 1.162-1.439.015.002.157 1.44-.014-.002-.158Zm1.491.79H5.961v.158H7.2v-.157Z"/><path fill="#B4C5A5" d="M4.878 11.898h3.406c.48 0 .852-.393.852-.864V8.9a.865.865 0 0 0-.852-.863H4.878a.865.865 0 0 0-.852.863v2.134c.004.475.383.86.852.864ZM4.384 8.4a.69.69 0 0 1 .494-.207h3.406a.69.69 0 0 1 .494.207.71.71 0 0 1 .203.5v2.134a.71.71 0 0 1-.203.5.69.69 0 0 1-.494.207H4.878a.7.7 0 0 1-.697-.707V8.9a.71.71 0 0 1 .203-.5Z"/><path fill="#83FFEC" d="M2.71 4.866c0-1.068.68-1.413 1.501-1.413 1.1 0 1.41.753 1.409 1.241v.314H3.313c0 .502.37.847.882.847.636 0 .76-.455.76-.455h.604s-.078.832-1.332.832c-1.053 0-1.518-.534-1.518-1.366ZM5 4.598c0-.455-.325-.753-.82-.753-.419 0-.852.283-.852.753H5Z"/><path fill="#83FFEC" d="M5.62 5.697v-3.28h.573v1.475s.248-.44 1.053-.44c.851 0 1.363.613 1.363 1.382 0 .817-.543 1.397-1.363 1.397-.774 0-1.053-.455-1.053-.455 0 .172-.016.36-.016.36h-.572s.015-.25.015-.439Zm2.385-.862c0-.55-.341-.974-.898-.974-.62 0-.898.503-.914.974 0 .518.326.989.914.989.496 0 .898-.393.898-.99Z"/><path fill="#83FFEC" d="M8.764 4.238c0-.11.078-.785 1.3-.785.59 0 1.255.173 1.271 1.004v1.287c0 .14.016.376.016.376h-.543s-.015-.188-.015-.376c0 0-.279.486-1.13.486-.635 0-1.1-.298-1.1-.863s.51-.847 1.455-.847h.713v-.126c0-.36-.31-.549-.713-.549-.619 0-.65.393-.65.393h-.604Zm1.967.831v-.172c-.93 0-1.549.016-1.549.471 0 .251.186.471.62.471.79 0 .929-.55.929-.77Z"/><path fill="#83FFEC" d="M10.994 3.563h.68l.992 2.009.991-2.01h.62L12.48 7.127h-.65l.51-.99-1.347-2.573Z"/><defs><linearGradient id="a" x1="37.956" x2="37.956" y1="24.008" y2=".04" gradientUnits="userSpaceOnUse"><stop stop-color="#243E83"/><stop offset="1" stop-color="#4573B9"/></linearGradient></defs></svg>