<svg xmlns="http://www.w3.org/2000/svg" width="50" height="32" fill="none" viewBox="0 0 50 32"><rect width="50" height="32" fill="#fff" rx="2"/><rect width="49" height="31" x=".5" y=".5" fill="#fff" stroke="#000" rx="1.5"/><path fill="#fff" d="M12.32 16.192c0-6.145 4.916-11.126 10.98-11.126 6.065 0 10.98 4.981 10.98 11.127 0 6.145-4.915 11.126-10.98 11.126-6.064.002-10.98-4.981-10.98-11.127Z"/><path fill="#004A98" d="M23.315 27.517c-6.292.03-11.473-5.135-11.473-11.424 0-6.874 5.178-11.626 11.473-11.626h2.95c6.219 0 11.893 4.75 11.893 11.626 0 6.287-5.674 11.424-11.893 11.424h-2.95Zm.027-22.095c-5.75.002-10.41 4.725-10.41 10.551 0 5.827 4.66 10.547 10.41 10.55 5.75 0 10.41-4.723 10.413-10.55-.002-5.826-4.663-10.549-10.413-10.551Zm-2.363 16.79V9.735c-2.474.965-4.229 3.392-4.236 6.24a6.692 6.692 0 0 0 4.236 6.239Zm8.962-6.239c-.005-2.85-1.762-5.28-4.238-6.242v12.484a6.695 6.695 0 0 0 4.238-6.242Z"/></svg>