<svg xmlns="http://www.w3.org/2000/svg" width="38" height="24" fill="none" viewBox="0 0 38 24"><g clip-path="url(#a)"><path fill="#000" d="M34.587 13.812a.907.907 0 0 0-.905.913.909.909 0 0 0 .905.914c.5 0 .905-.41.905-.914a.906.906 0 0 0-.905-.913Zm-2.977-.706c0-.692-.585-1.252-1.307-1.252s-1.308.561-1.308 1.252c0 .69.586 1.25 1.308 1.25.723 0 1.307-.56 1.307-1.25Zm.005-2.432h1.442v4.863h-1.442v-.311c-.42.29-.92.445-1.43.445-1.404 0-2.543-1.148-2.543-2.565s1.139-2.566 2.543-2.566c.53 0 1.022.164 1.43.445v-.311Zm-6.537-.13c-.576 0-1.121.18-1.487.678v-.547h-1.436v4.862h1.454v-2.555c0-.739.491-1.102 1.083-1.102.634 0 1 .383 1 1.092v2.565h1.44v-3.092c0-1.131-.892-1.9-2.054-1.9Zm-5.01.762v-.633h-1.477v4.862h1.48v-2.27c0-.767.823-1.178 1.393-1.178h.018v-1.414c-.587 0-1.124.253-1.414.633Zm-3.678 1.8c0-.692-.585-1.252-1.307-1.252s-1.308.561-1.308 1.252c0 .69.586 1.25 1.309 1.25.722 0 1.306-.56 1.306-1.25Zm.005-2.432h1.443v4.863h-1.443v-.311c-.408.28-.9.445-1.43.445-1.405 0-2.543-1.148-2.543-2.565s1.138-2.566 2.543-2.566c.53 0 1.022.164 1.43.445v-.311Zm-6.075 4.863h1.511V8.508h-1.51v7.03Zm-6.635.002h1.6V8.506h-1.6v7.033ZM9.28 8.506a5.62 5.62 0 0 1-1.636 3.992l2.21 3.041H7.879l-2.402-3.304.62-.47a4.05 4.05 0 0 0 1.616-3.259H9.28Z"/><rect width="37" height="23" x=".5" y=".5" stroke="#000" rx="1.5"/></g><defs><clipPath id="a"><path fill="#fff" d="M0 0h38v24H0z"/></clipPath></defs></svg>