<svg xmlns="http://www.w3.org/2000/svg" width="38" height="24" fill="none" viewBox="0 0 38 24"><rect width="38" height="24" fill="#FFB3C7" rx="2"/><path fill="#000" d="M34.482 13.812a.91.91 0 0 0-.838 1.261.91.91 0 0 0 .838.566.91.91 0 0 0 .905-.914.909.909 0 0 0-.905-.913Zm-2.977-.706c0-.692-.586-1.252-1.308-1.252-.722 0-1.307.561-1.307 1.252 0 .69.586 1.25 1.308 1.25.722 0 1.306-.56 1.306-1.25Zm.005-2.432h1.442v4.863H31.51v-.311c-.421.29-.92.445-1.43.445-1.405 0-2.543-1.148-2.543-2.565s1.138-2.566 2.542-2.566a2.5 2.5 0 0 1 1.43.446v-.312Zm-6.538-.13c-.576 0-1.121.18-1.486.678v-.547h-1.437v4.862h1.455v-2.555c0-.739.49-1.101 1.083-1.101.633 0 .999.382.999 1.091v2.565h1.44v-3.092c0-1.131-.892-1.9-2.054-1.9Zm-5.01.762v-.633h-1.477v4.862h1.48v-2.27c0-.767.823-1.178 1.394-1.178h.017v-1.414c-.586 0-1.124.253-1.414.633Zm-3.678 1.8c0-.692-.585-1.252-1.307-1.252s-1.307.561-1.307 1.252c0 .69.586 1.25 1.308 1.25.722 0 1.306-.56 1.306-1.25Zm.006-2.432h1.443v4.863h-1.444v-.311c-.407.28-.9.445-1.43.445-1.404 0-2.542-1.148-2.542-2.565s1.138-2.566 2.542-2.566c.53 0 1.023.164 1.43.446v-.312Zm-6.075 4.863h1.51V8.508h-1.51v7.03Zm-6.635.002h1.599V8.506H3.58v7.033Zm5.594-7.033c0 1.523-.588 2.94-1.636 3.992l2.21 3.041H7.773l-2.401-3.304.62-.47a4.05 4.05 0 0 0 1.616-3.259h1.566Z"/></svg>