<svg xmlns="http://www.w3.org/2000/svg" width="38" height="24" fill="none" viewBox="0 0 38 24"><g clip-path="url(#a)"><rect width="37" height="23" x=".5" y=".5" fill="#fff" stroke="#000" rx="1.5"/><path fill="#fff" d="M10 3h18v18H10z"/><path fill="#191919" d="m19.001 4.08-7.508 4.736a.703.703 0 0 0 .375 1.298h14.283a.703.703 0 0 0 .375-1.298L19.001 4.08Zm-4.7 4.628 4.701-2.966 4.712 2.966h-9.413Zm-.458 8.297V11.66h1.407v5.344h-1.407Zm2.976-5.344v5.344h1.406V11.66H16.82Zm2.976 0v5.344H21.2V11.66h-1.406Zm2.975 0v5.344h1.406V11.66H22.77Zm-11.605 7.567c0-.388.315-.703.703-.703h14.283a.703.703 0 0 1 0 1.406H11.868a.703.703 0 0 1-.703-.703Z"/></g><defs><clipPath id="a"><path fill="#fff" d="M0 0h38v24H0z"/></clipPath></defs></svg>