<svg xmlns="http://www.w3.org/2000/svg" width="30" height="18" fill="none" viewBox="0 0 30 18"><rect width="29" height="17" x=".5" y=".5" fill="#fff" stroke="#000" rx="1.5"/><path fill="#000" d="m28.014 7.73-.81-.437-.82-.44c-.544-.293-1.218.076-1.218.666v.098c0 .056.033.102.082.133l.38.205c.103.057.24-.015.24-.128V7.59c0-.118.135-.19.238-.133l.75.405.745.405a.146.146 0 0 1 0 .262l-.745.405-.75.405c-.108.057-.239-.015-.239-.133v-.118c0-.59-.679-.96-1.217-.667l-.82.441-.81.436a.75.75 0 0 0 0 1.334l.81.436.82.441c.544.293 1.217-.077 1.217-.667v-.097a.155.155 0 0 0-.081-.133l-.38-.206c-.104-.056-.24.016-.24.129v.236c0 .117-.136.19-.239.133l-.75-.405-.744-.406a.146.146 0 0 1 0-.261l.744-.405.75-.406c.109-.056.24.016.24.134v.118c0 .59.679.959 1.216.667l.82-.442.81-.436a.75.75 0 0 0 0-1.334Zm-5.304.143-1.896 3.694h-.788l.712-1.38-1.114-2.314h.804l.717 1.55.783-1.55h.782ZM10.3 8.95c-.05-.338-.343-.543-.69-.543-.343 0-.625.2-.701.543h1.39Zm-1.391.41c.049.39.342.611.717.611a.763.763 0 0 0 .658-.338H11c-.169.554-.696.913-1.386.913-.837 0-1.429-.554-1.429-1.35 0-.79.62-1.364 1.446-1.364.825 0 1.429.575 1.429 1.365a.899.899 0 0 1-.017.169H8.91v-.005Zm9.748-.174a.734.734 0 0 0-.756-.749.737.737 0 0 0-.755.75c0 .43.337.748.755.748a.734.734 0 0 0 .756-.749Zm.01 1.309v-.339a1.14 1.14 0 0 1-.874.385c-.76 0-1.337-.575-1.337-1.355a1.34 1.34 0 0 1 1.353-1.359c.353 0 .657.149.858.38v-.329h.685V10.5l-.684-.005ZM12.071 8.13s.174-.303.598-.303c.185 0 .299.062.299.062v.666s-.255-.148-.495-.118c-.233.031-.385.236-.385.508v1.55h-.707V7.873h.685l.005.257ZM3.785 9.186a.734.734 0 0 0-.755-.749.737.737 0 0 0-.756.75c0 .43.337.748.756.748a.734.734 0 0 0 .755-.749Zm.005 1.309v-.339a1.14 1.14 0 0 1-.874.385c-.761 0-1.337-.575-1.337-1.355a1.34 1.34 0 0 1 1.353-1.359c.353 0 .657.149.858.38v-.329h.685V10.5l-.685-.005ZM15.5 9.186a.744.744 0 0 0-.755-.748.737.737 0 0 0-.756.748c0 .431.337.75.756.75a.747.747 0 0 0 .755-.75Zm-2.2 2.38V7.874h.684v.339c.206-.241.51-.39.875-.39.75 0 1.336.58 1.336 1.354 0 .77-.597 1.36-1.353 1.36a1.11 1.11 0 0 1-.836-.35v1.38h-.707ZM7.79 9.915c-.24 0-.305-.082-.305-.303V8.448h.44v-.575h-.44v-.636h-.7v.641h-.903v-.261c0-.221.087-.303.332-.303h.152v-.508h-.337c-.576 0-.848.18-.848.723v.35h-.39v.569h.39V10.5h.701V8.448h.902V9.73c0 .534.218.764.783.764h.358v-.58H7.79Z"/></svg>