<svg xmlns="http://www.w3.org/2000/svg" width="50" height="32" fill="none" viewBox="0 0 50 32"><rect width="49" height="31" x=".5" y=".5" fill="#fff" stroke="#000" rx="1.5"/><path fill="#005294" d="m44.5 13.42-1.99 3.721-.388-3.721h-1.7l.913 5.396-1.099 2.023h1.577l1.1-2.144 3.14-5.275H44.5Zm-37.08.124a2.64 2.64 0 0 1 .92-.172c1.142 0 2.071.789 1.653 2.762-.372 1.748-1.456 2.633-2.572 2.82a2.192 2.192 0 0 1-.462.042c-.777 0-1.279-.334-1.466-.797l-.559 2.649h-.987L5.33 14.33c.04-.192.058-.315.107-.634l.037-.243h1.012l-.17.887c.29-.362.672-.637 1.103-.797Zm.759 4.192c.493-.52.703-1.284.784-1.666.203-.952.13-1.958-1.044-1.958a1.855 1.855 0 0 0-.5.065c-1.174.31-1.465 1.691-1.554 2.113-.138.641-.323 1.966 1.076 1.966.161 0 .322-.019.478-.057.29-.082.552-.242.76-.463Zm24.855-4.421a2.326 2.326 0 0 0-1.108.267 2.153 2.153 0 0 0-.712.61l.122-.772h-1.521l-1.408 6.615-.17.82h1.603l.566-2.682c.097.178.38.692 1.35.692h.17c1.457-.098 2.46-1.407 2.766-2.87.349-1.64-.266-2.68-1.658-2.68Zm.058 2.746c-.187.877-.608 1.528-1.166 1.713-.115.04-.236.059-.357.057-1.157 0-.883-1.363-.81-1.672.218-1.065.712-1.553 1.165-1.74.143-.059.296-.09.45-.09.928.001.855 1.1.718 1.732Zm-7.402 2.17a1.495 1.495 0 0 0 1.479-1.115h1.001l-.006.019c-.089.269-.23.696-.688 1.102a2.704 2.704 0 0 1-1.293.65 3.583 3.583 0 0 1-.689.067c-.865 0-1.44-.285-1.738-.797-.276-.47-.317-1.137-.147-1.934.04-.193.089-.38.146-.558.243-.805.656-1.48 1.433-1.952.305-.186.644-.308.997-.357.176-.027.355-.041.534-.041.97 0 1.463.35 1.69.83.322.658.13 1.568 0 2.096a.23.23 0 0 1-.004.038l-.004.026h-3.82c-.259 1.106.025 1.926 1.108 1.926Zm.857-4.202a1.389 1.389 0 0 0-.364.041c-.577.131-1.192.569-1.415 1.536h2.758c.122-.512.25-1.577-.979-1.577Zm-11.054.471c.178.52.139 1.121.033 1.618a.813.813 0 0 1-.035.152c-.324 1.3-1.237 2.39-2.63 2.65a3.892 3.892 0 0 1-.63.048c-1.762 0-2.361-1.22-2.03-2.78.25-1.178 1.03-2.534 2.663-2.819.202-.039.42-.056.647-.056 1.198 0 1.764.529 1.982 1.187Zm-2.63 3.667c.656-.188 1.335-.797 1.61-2.08.284-1.333-.175-2.04-1.116-2.042-.168.002-.334.03-.493.082-.608.17-1.335.707-1.61 1.999-.228 1.09.021 2.105 1.157 2.105.153-.001.305-.023.453-.064Zm5.568-4.845c-1.23 0-2.21.643-2.42 1.626-.235 1.113.648 1.34 1.707 1.584.76.178 1.106.275 1.002.795a1.053 1.053 0 0 1-.283.504c-.268.27-.592.342-1.003.342-.964 0-1.052-.56-.964-.967h-1.043c-.096.414-.057.746.064.998.26.527.914.738 1.643.738.55 0 1.135-.08 1.66-.365.443-.244.882-.756 1.004-1.358.071-.341.048-.707-.195-.982-.25-.293-.55-.381-1.95-.73-.26-.075-.712-.196-.608-.684.162-.764 1.093-.764 1.237-.764.365 0 1.053.064.85.87h1.01c.073-.252.084-.517.034-.773-.183-.638-1.074-.834-1.745-.834m18.933.016c.283-.055.557-.072.8-.072.445 0 1.377.066 1.764.69.274.43.147 1.072.096 1.316l-.453 2.153c-.088.463-.162.918-.162 1.365h-1.415a4.34 4.34 0 0 1 .097-.73c-.208.24-.455.443-.729.601-.467.26-.846.26-1.05.26-.777 0-1.076-.219-1.246-.43-.25-.316-.308-.756-.218-1.178.089-.431.403-1.21 1.489-1.666a4.02 4.02 0 0 1 1.027-.244c.447-.057.867-.057 1.159-.057.07-.35.104-.52.08-.707-.055-.398-.46-.447-.607-.447a.881.881 0 0 0-.632.267l-.023.026a.866.866 0 0 0-.218.478h-1.538c.107-.526.422-.984.873-1.268.28-.17.586-.29.906-.357Zm-.002 4.493c.144-.055.276-.138.39-.242.347-.342.453-.756.574-1.325a2.855 2.855 0 0 0-.964.065c-.509.115-.865.39-.946.805-.08.357.083.764.6.764a.963.963 0 0 0 .346-.067Zm-15.395-.469.678-3.194h1.19l.154-.738h-1.19l.309-1.43-1.06.316-.234 1.114h-.938l-.162.738h.946l-.752 3.56c-.187.871.185 1.139 1.101 1.139.364 0 .656-.034.843-.059l.16-.78c-.16.03-.322.047-.484.05-.715 0-.617-.448-.561-.716Z"/></svg>