<svg xmlns="http://www.w3.org/2000/svg" width="50" height="32" fill="none" viewBox="0 0 50 32"><rect width="49" height="31" x=".5" y=".5" fill="#fff" stroke="#000" rx="1.5"/><g clip-path="url(#a)"><path fill="#252526" d="M46.503 14.45a1.358 1.358 0 0 0-.382-.05c-.383 0-.815.219-.997.59v-.557h-.881v3.907h.88v-2.082c0-.723.482-1.022.98-1.022.132-.003.264.011.391.042l.01-.823v-.005Zm-2.91 2.172c.02-.135.03-.271.025-.407 0-1.09-.83-1.854-1.886-1.854a1.988 1.988 0 0 0-2.011 1.962v.05c0 1.187.79 2.043 1.986 2.043.802 0 1.479-.383 1.762-.914l-.69-.382c-.183.299-.573.51-1.014.51-.615 0-1.047-.374-1.139-1.005l2.967-.003Zm-2.92-.674c.118-.515.5-.83 1.031-.83.532 0 .95.34.998.83h-2.028Zm-1.526.674a2.22 2.22 0 0 0 .024-.407c0-1.09-.83-1.854-1.886-1.854a1.988 1.988 0 0 0-2.011 1.962v.05c0 1.187.79 2.043 1.986 2.043.806 0 1.48-.383 1.762-.914l-.69-.382c-.182.299-.573.51-1.014.51-.615 0-1.047-.374-1.138-1.005l2.967-.003Zm-2.92-.674c.117-.515.5-.83 1.03-.83.532 0 .95.34.998.83h-2.028Zm-1.552.163c0-1.089-.532-1.751-1.53-1.751-.524 0-1.005.224-1.27.584v-.511h-.89v3.906h.89v-2.117c0-.657.473-1.072 1.038-1.072.565 0 .864.383.864 1.03v2.162h.898v-2.23Zm-4.289.275c0-1.155-.873-2.028-2.028-2.028a2.017 2.017 0 0 0-2.02 2.014v.03c0 1.164.84 2.011 2.02 2.011a1.997 1.997 0 0 0 2.028-1.97v-.057Zm-3.166 0c0-.665.49-1.2 1.138-1.18.716.02 1.162.52 1.147 1.18-.016.66-.499 1.18-1.147 1.18s-1.139-.515-1.139-1.18Zm-1.854-1.952-1.081 2.784-.964-2.784h-1.005l1.446 3.906-.599 1.371h.956l2.202-5.277h-.955Zm-4.447 1.944a1.213 1.213 0 0 1-1.183 1.24h-.056c-.682 0-1.139-.532-1.139-1.24a1.24 1.24 0 0 1 1.222-1.23c.69 0 1.155.532 1.155 1.23Zm0-1.945v.51c-.258-.34-.674-.583-1.297-.583-1.08 0-1.978.956-1.978 2.078 0 1.121.773 1.977 1.811 1.977.674 0 1.18-.24 1.46-.639v.565h.872v-3.908h-.868Zm-6.525 3.907v-1.796h.773c1.438 0 2.302-.803 2.302-2.002 0-1.131-.876-1.787-2.136-1.787h-1.87v5.585h.931Zm.898-4.755c.74 0 1.24.341 1.24 1.065 0 .665-.556 1.064-1.287 1.064h-.85v-2.129h.897Z"/><path fill="#FED0BE" d="M3.507 15.5H3.5v-.136h.007a.148.148 0 0 1 0 .137Z"/><path fill="#FE4700" d="M3.507 15.5v-.138c.014-.266.038-.532.098-.793a4.143 4.143 0 0 1 1.303-2.194c.038.005.055.037.075.061.14.171.294.332.435.503.029.036.059.07.091.102.011.011.026.021.018.041-.034.046-.079.084-.12.124a3.137 3.137 0 0 0-.924 1.84 2.874 2.874 0 0 0-.03.397 3.274 3.274 0 0 0 .343 1.442.044.044 0 0 1 .005.019c-.002.023-.02.03-.036.039-.08.047-.163.086-.245.129-.167.087-.332.175-.5.258-.016.008-.033.027-.052.005a2.308 2.308 0 0 1-.16-.346 4.224 4.224 0 0 1-.301-1.49v.001Z"/><path fill="#FD4A00" d="M5.527 13.075a37.73 37.73 0 0 1-.328-.37c-.088-.1-.174-.201-.261-.302-.01-.01-.02-.017-.03-.026.083-.075.169-.149.264-.21.021-.005.027.014.036.026.144.196.287.392.43.59l.068.093c.01.014.022.027.018.047-.02.035-.06.051-.089.078-.025.022-.052.042-.078.063-.008.007-.016.02-.03.011Z"/><path fill="#E1D401" d="M8.888 11.588c.096.025.185.063.273.104.011.016.001.028-.004.041-.1.246-.206.49-.304.736-.012.03-.02.065-.052.084-.019.005-.034-.004-.05-.01a7.096 7.096 0 0 0-.137-.053c-.013-.004-.03-.006-.033-.024.082-.23.157-.46.231-.692a2.99 2.99 0 0 1 .054-.156c.005-.012.01-.025.022-.031Z"/><path fill="#07A1DA" d="M11.252 17.255a1.763 1.763 0 0 1-.118.227c-.037.002-.06-.024-.09-.04-.197-.114-.396-.226-.594-.34-.044-.026-.095-.042-.126-.088a.462.462 0 0 1 .09-.174c.02-.004.034.006.05.014.207.105.417.201.625.305.044.021.09.04.134.063.013.008.031.011.029.033Z"/><path fill="#F04C4E" d="M5.383 18.888c-.066-.04-.135-.077-.193-.129.063-.09.127-.178.191-.266.11-.15.217-.302.328-.45.01-.014.015-.03.026-.041.06.024.117.055.158.106.003.015-.005.026-.012.037a86.25 86.25 0 0 0-.456.712c-.01.014-.014.04-.042.031Z"/><path fill="#20DA85" d="M11.606 14.758c.021.083.03.167.038.25-.148.02-.297.036-.445.052l-.43.05c-.021.002-.033.015-.046.028-.008.002-.014-.002-.016-.01-.01-.065-.027-.13-.02-.198.033-.014.07-.015.104-.021.249-.042.496-.086.745-.125a.167.167 0 0 0 .07-.026Z"/><path fill="#FC5000" d="M5.284 12.086c.057-.04.112-.082.175-.113.028-.01.035.014.044.03.093.153.187.305.278.457.053.09.109.178.161.268.006.01.014.02.013.033a.32.32 0 0 1-.14.093c-.04-.025-.058-.069-.083-.105L5.29 12.1a.037.037 0 0 1-.006-.015Z"/><path fill="#E4CD01" d="m8.888 11.587-.193.578c-.03.09-.059.18-.09.269-.004.012-.003.031-.024.032-.043.014-.077-.017-.117-.023-.015-.002-.032-.006-.037-.025.054-.146.084-.297.128-.444.04-.129.073-.258.108-.388.006-.023.007-.05.032-.062.066.017.131.036.193.063Z"/><path fill="#DED701" d="M8.797 12.547c.042-.047.055-.109.08-.165l.281-.674.004-.016a.77.77 0 0 1 .169.074c.024.015.01.033.003.05-.046.108-.104.211-.152.318-.067.149-.141.294-.21.443-.007.017-.014.035-.034.04-.05-.014-.102-.028-.14-.069Z"/><path fill="#B7D91B" d="M10.126 12.257c.054.033.1.077.145.119.012.018.002.03-.009.043-.075.09-.156.175-.233.265-.11.128-.226.25-.335.379-.009.009-.014.02-.026.024a.044.044 0 0 1-.039-.017c-.028-.033-.075-.048-.092-.091.118-.141.231-.286.347-.43.072-.092.15-.18.218-.273.006-.008.012-.017.024-.02v.001Z"/><path fill="#FA5600" d="m5.953 12.762-.234-.386-.233-.382c-.006-.01-.013-.02-.027-.02.058-.039.116-.077.18-.105.037.046.061.1.09.151l.343.63c.007.012.017.024.013.04-.032.038-.078.054-.119.076-.005.003-.01 0-.014-.005v.001Z"/><path fill="#25DA7B" d="M11.54 14.437c.019.05.024.102.035.153.011.033-.01.04-.035.044-.134.03-.27.06-.404.087-.137.028-.274.062-.412.087-.02.004-.042.013-.061-.004a.244.244 0 0 1-.028-.125c.008-.02.027-.024.045-.028.268-.068.535-.14.803-.21.018-.004.038-.015.058-.003Z"/><path fill="#FC480B" d="M4.15 17.657c-.039-.049-.065-.107-.095-.16.083-.056.172-.103.259-.154.159-.091.316-.186.476-.275.025-.014.047-.032.07-.05.03.01.03.04.045.061a.19.19 0 0 1 .032.069c-.004.023-.024.03-.04.041-.142.093-.284.182-.426.273-.09.06-.183.116-.273.175-.014.01-.027.024-.047.019v.001Z"/><path fill="#FD4805" d="M4.86 17.022c-.024.045-.071.059-.11.082-.206.12-.413.24-.62.358-.024.013-.045.034-.076.034-.03-.053-.058-.107-.087-.161.016.01.029-.002.04-.009l.764-.398c.01-.005.02-.01.024-.02.039.027.06.066.063.113l.001.001Z"/><path fill="#F94917" d="M4.345 17.94c-.035-.051-.07-.103-.106-.153.04-.041.091-.07.138-.102.202-.142.408-.28.609-.424a.047.047 0 0 1 .018-.009c.044.026.065.07.085.115-.002.02-.02.028-.033.038-.206.16-.412.317-.62.473-.014.01-.027.025-.042.035-.015.01-.027.028-.049.026Z"/><path fill="#E5C801" d="M8.695 11.525c-.04.11-.063.223-.096.335-.05.17-.096.342-.143.513-.005.018-.009.036-.03.045a.151.151 0 0 1-.128-.031c.016-.082.037-.162.057-.242.053-.222.103-.445.155-.668l.185.049Z"/><path fill="#22DA7F" d="M10.667 14.8c.048.01.092-.01.136-.019.2-.04.401-.084.601-.128.049-.011.096-.023.144-.03.022-.003.027-.015.026-.033a.704.704 0 0 1 .032.168c.002.03-.022.03-.04.033l-.39.065-.45.078a.044.044 0 0 1-.035-.006.148.148 0 0 1-.024-.129v.001Z"/><path fill="#BBD919" d="M9.893 12.087c.052.024.094.062.137.098-.006.041-.038.068-.062.1l-.452.6c-.013.017-.023.04-.049.045a.213.213 0 0 1-.107-.077.057.057 0 0 1 .01-.02c.166-.238.327-.478.492-.716.008-.012.015-.026.031-.03Z"/><path fill="#1CD390" d="M11.663 15.242c.008.07.008.14.006.21-.019.018-.043.013-.065.013h-.758c-.036 0-.072.014-.107 0-.034-.06-.027-.124-.012-.188.008-.004.014 0 .015.006.01.036.035.033.063.03.082-.004.165-.003.249-.01.18-.013.36-.014.54-.023.032-.001.054-.01.068-.038Z"/><path fill="#FA4911" d="M5.004 17.253c-.023.029-.054.047-.083.067l-.537.37c-.047.034-.092.073-.146.097l-.088-.13.742-.475c.014-.01.032-.015.04-.033.044.022.056.064.072.104Z"/><path fill="#F8491E" d="m4.345 17.939.409-.314.33-.257a.17.17 0 0 1 .083.097c-.027.045-.072.073-.112.106-.186.156-.376.307-.56.466-.013.012-.026.028-.048.023a.95.95 0 0 1-.102-.122Z"/><path fill="#F95C00" d="m6.082 12.69-.227-.415-.21-.386c-.003-.006-.004-.013-.006-.02a.874.874 0 0 1 .137-.071c.014.008.02.024.026.038l.372.745c.008.016.02.032.016.053a.147.147 0 0 1-.11.055h.002Z"/><path fill="#E7B801" d="m8.108 11.404.153.024c.016.018.008.038.005.057-.045.267-.089.534-.136.8-.004.024-.001.052-.028.066-.041.006-.082.009-.117-.02-.003-.082.016-.162.025-.242.025-.206.055-.41.08-.616.003-.023.001-.048.018-.069Z"/><path fill="#1DD68C" d="M11.662 15.242c.008.042-.012.048-.05.05-.146.008-.29.006-.435.016a4.682 4.682 0 0 1-.355.015h-.017c-.04.004-.065-.013-.075-.048-.019-.02-.015-.043-.004-.065.02-.017.047-.017.072-.02.192-.015.384-.029.575-.046.074-.006.147-.007.22-.015a.202.202 0 0 0 .062-.017c.011.043.007.087.007.13Z"/><path fill="#BFD816" d="M9.893 12.087c-.145.211-.288.424-.434.634-.031.045-.056.094-.098.13a.115.115 0 0 1-.093-.055c.002-.037.028-.062.046-.092.141-.223.284-.445.423-.669.008-.01.012-.024.027-.028.047.02.087.05.129.08Z"/><path fill="#D9D804" d="M8.936 12.61c.026-.017.028-.047.04-.072.033-.066.064-.132.095-.198l.257-.538c.006-.012.013-.024.003-.037.05.02.1.042.145.073.003.008.001.016-.003.023-.096.182-.189.366-.286.548-.046.085-.09.173-.137.258a.145.145 0 0 1-.113-.058v.001Z"/><path fill="#F66800" d="M6.008 11.692a.775.775 0 0 1 .143-.057c.022-.003.022.016.026.029.089.233.178.467.264.701.017.047.042.09.046.14a.148.148 0 0 1-.108.045c-.016-.009-.02-.026-.028-.042-.108-.255-.213-.51-.32-.765l-.023-.05Z"/><path fill="#059CE1" d="M10.327 17.013c.091.067.194.115.292.172.17.101.344.198.516.296-.027.039-.043.084-.074.12-.015.01-.026 0-.037-.007l-.75-.465c-.004-.003-.009-.006-.012-.01a.156.156 0 0 1 .064-.107Z"/><path fill="#E7B301" d="M8.108 11.404c-.004.08-.016.159-.027.238l-.037.28a1875.27 1875.27 0 0 0-.048.374c-.001.012.003.024-.01.033-.037.02-.071.01-.105-.008-.022-.05-.004-.1.002-.15.023-.214.036-.429.062-.643.006-.046.002-.094.011-.14l.152.017Z"/><path fill="#FC4D00" d="M5.284 12.086c.032.019.045.053.065.08.115.167.23.334.343.503.04.06.081.122.124.181-.027.03-.05.067-.096.071-.03-.064-.078-.117-.12-.174-.134-.19-.274-.377-.412-.564-.004-.006-.01-.011-.016-.017a.647.647 0 0 1 .112-.08Z"/><path fill="#0191F2" d="M10.956 17.764a.364.364 0 0 1-.072.103c-.018.01-.03.001-.043-.009a35.288 35.288 0 0 0-.598-.44c-.031-.021-.058-.046-.09-.068-.014-.008-.025-.02-.025-.038a.184.184 0 0 1 .063-.085c.025.003.043.02.063.035.2.14.404.276.606.414l.076.053c.011.008.026.016.02.035Z"/><path fill="#F86000" d="M6.186 12.634c-.006-.015-.011-.03-.018-.044l-.373-.747c-.008-.014-.013-.03-.019-.044a.822.822 0 0 1 .121-.057c.02-.001.023.016.029.028.115.255.232.51.35.763.008.017.016.034.012.053-.027.03-.056.055-.101.048Z"/><path fill="#0C8DF1" d="m10.803 17.971-.082.104c-.025.012-.037-.01-.051-.021-.104-.084-.205-.172-.307-.257-.11-.09-.216-.183-.326-.272-.016-.013-.032-.024-.037-.046a.16.16 0 0 1 .07-.09c.146.11.29.226.435.34l.272.213c.01.008.023.014.026.029Z"/><path fill="#1ED889" d="M11.655 15.111c0 .015-.003.025-.022.027-.066.004-.132.01-.199.016l-.377.031c-.077.006-.154.014-.232.017-.032 0-.063.01-.095.008-.027-.02-.023-.045-.009-.072-.002-.024.007-.038.033-.04l.37-.04c.111-.013.222-.029.332-.039a2.97 2.97 0 0 0 .138-.018c.017-.002.036-.003.051.008.005.034.012.068.01.103Z"/><path fill="#E54F8D" d="M6.554 19.405a.633.633 0 0 1-.127-.034c-.012-.016-.002-.031.002-.046.074-.25.148-.5.224-.75.01-.034.013-.072.039-.1a.141.141 0 0 1 .108.026c.005.012.002.023-.001.035l-.215.824c-.005.017-.002.042-.03.044v.001Z"/><path fill="#F74A29" d="M4.624 18.262c-.037-.03-.066-.068-.096-.106.153-.137.31-.27.462-.409.065-.058.132-.112.193-.175a.118.118 0 0 1 .047-.031c.038.01.052.044.07.075.002.02-.012.032-.024.044-.16.159-.324.313-.49.466-.032.031-.063.066-.097.096-.019.016-.035.04-.065.04Z"/><path fill="#D953D5" d="M8.012 19.517a.509.509 0 0 1-.137.015c-.022-.049-.016-.102-.02-.153a110.54 110.54 0 0 1-.037-.504c-.005-.061-.011-.122-.013-.184-.001-.066-.007-.07-.07-.072-.025-.001-.05.003-.073-.007-.005-.003-.006-.007-.004-.012.005-.003-.002-.002.003-.003.084-.015.17-.014.255-.008.029.044.02.096.026.144.018.137.03.274.045.412l.034.335c.002.014 0 .027-.01.038v-.001Z"/><path fill="#E6BE01" d="M8.098 12.346c.03-.022.019-.057.024-.086.034-.187.066-.373.097-.56.016-.09.028-.181.042-.271.047.003.092.014.137.025.012.036-.003.071-.01.105-.054.257-.105.514-.157.772-.003.014-.006.029-.016.04-.042.006-.083.007-.116-.026l-.001.001Z"/><path fill="#1BD094" d="M10.738 15.46c.31-.019.62-.004.931-.009v.137c-.025.02-.054.014-.081.011-.155-.01-.31-.01-.464-.017-.116-.006-.232-.002-.348-.014-.014-.002-.03 0-.042-.011-.013-.033-.016-.066.003-.098h.001Z"/><path fill="#16C4A8" d="M11.623 16.065a.753.753 0 0 1-.024.145.134.134 0 0 0-.063-.026c-.253-.048-.508-.091-.762-.139-.032-.006-.064-.006-.095-.013-.007-.043-.005-.084.025-.12.031-.01.061 0 .091.005.256.037.512.077.77.113.014.002.029.004.043.009.012.004.021.01.014.026Z"/><path fill="#F74923" d="m5.23 17.542-.155.143c-.04.037-.083.072-.123.109-.105.095-.21.188-.318.28-.02.016-.039.037-.057.056a.077.077 0 0 1-.048.027.84.84 0 0 1-.08-.096c.082-.06.154-.131.235-.192.073-.055.14-.118.211-.177.084-.072.175-.136.254-.213.004-.005.011-.008.016-.012.041.009.053.043.065.076v-.001Z"/><path fill="#1ACE98" d="M10.738 15.557c.106 0 .212.006.319.01.081.003.164 0 .246.006.122.01.245.01.366.016l-.009.137c-.01.008-.022.006-.034.005-.146-.012-.293-.02-.44-.03-.107-.007-.214-.015-.323-.02a.454.454 0 0 1-.134-.017c-.016-.037-.022-.074.01-.107Z"/><path fill="#EF4C55" d="M5.383 18.888c.032-.015.043-.049.06-.076.122-.188.243-.378.362-.568.028-.044.062-.086.084-.135.043-.003.07.021.092.055.002.015-.006.028-.014.04l-.434.727c-.008.014-.014.033-.037.03a.867.867 0 0 1-.113-.072Z"/><path fill="#5A77E7" d="M9.828 18.873a.72.72 0 0 1-.119.074c-.013-.003-.02-.013-.026-.023-.147-.247-.299-.491-.447-.738-.006-.012-.014-.023-.013-.037a.139.139 0 0 1 .092-.058c.035.036.056.082.084.123.141.21.276.424.418.634.005.008.011.016.011.025Z"/><path fill="#08A4D6" d="M11.252 17.254c-.032-.032-.075-.045-.114-.064l-.315-.15c-.127-.06-.253-.123-.379-.185-.009-.005-.02-.008-.03-.011-.005-.04.019-.066.042-.093.025-.008.046.006.068.016.248.116.498.223.746.338.016.007.033.011.04.03a.722.722 0 0 1-.058.12Z"/><path fill="#F14B49" d="M5.735 18.003c-.005.045-.04.075-.065.108-.147.197-.289.398-.432.598-.014.02-.026.04-.049.05-.031-.021-.063-.042-.09-.07-.01-.02.005-.034.015-.046.175-.225.347-.451.522-.675.008-.009.014-.02.026-.024.035.007.06.024.073.06v-.001Z"/><path fill="#F76400" d="M6.283 12.587c-.012-.051-.038-.097-.06-.144-.1-.223-.203-.446-.306-.669-.005-.011-.008-.025-.02-.033a.476.476 0 0 1 .112-.049c.013 0 .018.01.022.02l.203.491.145.342a.097.097 0 0 1-.096.042Z"/><path fill="#E84E7B" d="M6.192 19.292a.554.554 0 0 1-.111-.041c-.016-.02 0-.04.007-.057l.245-.615a6.44 6.44 0 0 1 .068-.164c.006-.013.01-.027.024-.035.034-.005.06.015.086.031.016.021.004.042-.003.06-.054.153-.112.305-.166.457-.04.11-.079.22-.12.328-.004.015-.006.036-.03.035v.001Z"/><path fill="#E6C201" d="m8.212 12.367.166-.813.02-.102.112.024c.016.022.002.044-.003.065l-.135.58-.055.232c-.003.012-.007.024-.018.03-.033.016-.061.006-.086-.017v.001Z"/><path fill="#058FF2" d="m10.803 17.97-.37-.285c-.11-.084-.217-.17-.324-.255-.014-.011-.033-.018-.038-.039a.105.105 0 0 1 .064-.08c.012.041.055.052.084.075.128.098.26.19.39.286l.242.182a.05.05 0 0 0 .033.012.74.74 0 0 1-.082.104Z"/><path fill="#EA9F00" d="M7.391 11.378a.712.712 0 0 1 .162-.006c.017.018.013.04.014.06 0 .148.002.295 0 .443-.003.123.01.246.008.369 0 .02.003.04-.008.058a.2.2 0 0 1-.156.012c-.002-.006-.002-.012.003-.013.046-.011.04-.047.04-.08-.01-.17-.02-.338-.026-.508-.003-.095-.01-.19-.014-.285a.09.09 0 0 0-.022-.05h-.001Z"/><path fill="#B9D91A" d="M9.466 12.925c.04-.033.064-.078.095-.118.158-.206.313-.414.47-.623.039.016.064.05.096.074-.04.066-.093.123-.141.184l-.278.346-.145.181a.03.03 0 0 1-.024.013.09.09 0 0 1-.073-.057Z"/><path fill="#F56E00" d="m6.483 12.505-.247-.655c-.027-.072-.048-.147-.085-.215a.602.602 0 0 1 .113-.04c.026-.003.028.02.035.036.039.093.063.19.097.285.06.17.114.34.173.51.005.016.012.03.007.047-.025.026-.054.043-.092.032Z"/><path fill="#E64F86" d="m6.693 18.477-.202.675c-.022.073-.042.146-.063.22-.044-.01-.089-.02-.13-.04.003-.022.014-.043.02-.064l.266-.8a.058.058 0 0 1 .01-.021c.038-.002.072.002.1.031h-.001Z"/><path fill="#19CB9C" d="M10.73 15.66c.118.009.236.012.354.024.052.006.104.003.155.008.13.012.26.017.39.026.01 0 .021.005.031.007l-.008.113c-.013.02-.033.013-.051.011l-.276-.026-.48-.046c-.042-.005-.085-.001-.126-.017-.015-.035-.02-.069.01-.1h.001Z"/><path fill="#E94D74" d="M6.427 18.384c-.056.118-.1.242-.15.363l-.19.476c-.003.01-.004.019-.005.027a.583.583 0 0 1-.121-.046c-.006-.011 0-.02.003-.031.114-.255.224-.512.336-.768.01-.021.017-.045.04-.06.033.004.066.008.088.039h-.001Z"/><path fill="#EE8D00" d="M6.933 11.427c.036-.01.074-.01.111-.016.032-.008.035.016.038.037.016.116.034.233.048.35.018.156.044.312.062.468.003.028.01.057-.021.076-.025.008-.05.018-.078.007-.013-.01-.016-.024-.018-.039-.046-.294-.095-.589-.142-.883Z"/><path fill="#ED9200" d="M7.167 12.334c.019-.01.018-.028.016-.045l-.043-.32-.037-.277-.032-.257c-.002-.017-.012-.024-.026-.025a.514.514 0 0 1 .137-.016c.024.002.02.021.022.036.024.254.052.508.078.762.004.042.017.084.003.127a.117.117 0 0 1-.117.015h-.001Z"/><path fill="#0FB4BF" d="M11.486 16.668a.304.304 0 0 1-.033.103c-.018.015-.036.006-.053 0l-.739-.254c-.033-.01-.067-.019-.094-.042-.001-.036.005-.069.033-.094.063.003.119.031.178.049.21.064.42.132.632.194a.33.33 0 0 1 .053.018c.01.006.027.008.024.027h-.001Z"/><path fill="#F18000" d="M6.587 11.498a.604.604 0 0 1 .13-.031c.016.01.017.03.02.045.063.276.12.552.182.827a.062.062 0 0 1 .002.036c-.025.027-.058.031-.094.029-.022-.015-.024-.041-.03-.064-.06-.239-.117-.479-.177-.718a2.513 2.513 0 0 0-.034-.124Z"/><path fill="#F24B46" d="M5.663 17.948c-.15.194-.3.386-.447.58-.04.053-.09.099-.117.161a.747.747 0 0 1-.104-.082c.033-.055.078-.102.118-.151.117-.141.232-.284.35-.426.04-.049.073-.105.127-.143.036.008.061.026.073.061Z"/><path fill="#E151A4" d="M7.006 19.5c-.043-.006-.087-.01-.129-.023a58.088 58.088 0 0 0 .15-.86c.005-.022.005-.046.025-.061a.11.11 0 0 1 .094.02c.007.041-.005.082-.011.122l-.102.711c-.004.031-.001.065-.026.09h-.001Z"/><path fill="#EA4D6F" d="M6.339 18.35c-.073.148-.134.301-.2.45l-.179.404a.592.592 0 0 1-.114-.056 6.19 6.19 0 0 1 .075-.159c.103-.21.2-.425.301-.637.007-.016.013-.033.027-.044a.1.1 0 0 1 .09.044v-.001Z"/><path fill="#E9A300" d="M7.56 12.304c-.01-.31-.007-.621-.007-.932h.12c.009.009.008.02.007.03-.004.095.002.189-.003.282-.009.157-.004.314-.009.47-.001.05.001.102-.016.151-.031.017-.061.019-.092 0v-.001Z"/><path fill="#EB9A00" d="M7.391 11.378c.026-.003.034.009.034.034 0 .147.013.293.018.44.005.126.01.252.021.378.005.064 0 .064-.055.08-.014.014-.028.013-.042.003-.012-.014-.01-.033-.01-.05 0-.128-.022-.255-.028-.383-.006-.135-.024-.27-.029-.404-.001-.035-.002-.07-.038-.09.043-.012.087-.008.13-.009H7.39Z"/><path fill="#EC9600" d="M7.261 11.386c.028-.003.042.006.047.038.006.052.005.104.01.156.014.162.02.326.035.49.008.081.015.162.015.243-.028.027-.058.026-.089.008l-.03-.294a7.974 7.974 0 0 1-.018-.186 4.879 4.879 0 0 0-.03-.274c-.007-.043-.008-.088-.011-.13-.002-.015.005-.03-.01-.042.026-.01.054-.007.08-.008h.001Z"/><path fill="#EB4D69" d="M6.25 18.31c-.02.045-.038.091-.06.135-.086.183-.173.364-.26.546-.018.038-.033.076-.05.114-.008.017-.016.034-.034.043l-.102-.05c0-.012.008-.022.013-.033.124-.254.258-.503.382-.757.008-.015.014-.032.03-.041.035 0 .064.011.08.044h.002Z"/><path fill="#E8AE01" d="M7.955 11.388c.016.03.01.064.007.095-.014.14-.032.279-.04.42-.008.116-.026.232-.038.347-.003.023-.001.046-.002.069-.032.018-.062.007-.092-.007-.011-.017-.009-.036-.009-.055 0-.113.015-.224.02-.336.005-.1.015-.2.02-.3.003-.062.01-.124.01-.185 0-.02.004-.04.018-.056.035-.004.07.004.105.008h.001Z"/><path fill="#17C6A3" d="M11.623 16.065c-.002-.02-.017-.017-.03-.018l-.51-.078c-.126-.019-.252-.034-.379-.05-.017-.03-.005-.057.007-.084.02-.02.047-.017.072-.014.232.029.467.055.7.083.042.005.084.008.127.016.026.005.042.019.03.048a.311.311 0 0 1-.016.097h-.001Z"/><path fill="#F08400" d="M6.917 12.376a89.278 89.278 0 0 1-.2-.909.68.68 0 0 1 .12-.024c.01.008.01.019.012.03l.158.833c.003.018.01.036.003.055-.028.022-.058.033-.092.015Z"/><path fill="#2ADA75" d="m11.54 14.437-.649.17c-.073.019-.146.042-.22.056-.012.002-.024.007-.03.018-.031-.024-.03-.057-.03-.09.017-.03.05-.03.077-.039.23-.066.46-.131.69-.202.034-.01.068-.015.1-.027.011-.004.021-.007.031.002l.032.112Z"/><path fill="#E74E81" d="M6.596 18.448c-.001.01-.001.021-.004.032l-.138.406-.132.403c-.005.016-.005.036-.024.043a.46.46 0 0 1-.106-.04c.02-.016.024-.042.032-.064.063-.178.128-.356.193-.534.028-.08.061-.156.085-.238.004-.014.014-.026.006-.041.037-.01.063.01.088.033Z"/><path fill="#14C0AD" d="M10.683 16.03c.049-.019.094.005.14.013.188.032.375.067.564.1l.183.034c.018.003.03.012.028.033a.36.36 0 0 1-.016.096c-.028.003-.053-.008-.078-.014a56.709 56.709 0 0 1-.773-.162c-.024-.005-.045.001-.068-.002-.008-.035-.005-.068.02-.096v-.001Z"/><path fill="#E2509E" d="M7.054 18.56c-.025.076-.032.156-.047.234-.02.102-.034.204-.052.306l-.061.35c-.002.011 0 .024-.017.026a.498.498 0 0 1-.104-.017c-.01-.012-.004-.026-.001-.039.056-.273.109-.547.167-.82.005-.02.008-.042.02-.06.035-.007.067-.006.096.02Z"/><path fill="#E45094" d="M6.554 19.405c.022-.027.024-.061.033-.093l.21-.808c.036-.013.064.002.091.023-.001.057-.021.11-.033.165-.053.236-.109.472-.162.709-.003.014-.002.033-.024.035a.523.523 0 0 1-.115-.032v.001Z"/><path fill="#F37600" d="M6.379 11.557a.663.663 0 0 1 .112-.033c.032.05.04.11.056.166l.13.464c.022.08.041.16.065.24.003.011.006.021.001.032a.12.12 0 0 1-.092.027c-.026-.042-.037-.09-.05-.135-.07-.24-.15-.479-.22-.718-.005-.014-.013-.028-.002-.042v-.001Z"/><path fill="#EF8900" d="m7.006 12.36-.08-.42c-.03-.148-.058-.297-.086-.445-.003-.017-.002-.035-.003-.052a.284.284 0 0 1 .096-.017c.017.001.015.014.017.026l.059.374c.023.145.045.29.07.436.005.027.002.056.015.082-.027.024-.055.032-.089.016h.001Z"/><path fill="#F27B00" d="m6.741 12.423-.177-.635-.073-.265a.338.338 0 0 1 .096-.024c.016 0 .015.015.019.026.04.134.068.27.102.406l.106.427c.003.014.01.027.015.04-.026.022-.054.034-.089.024h.001Z"/><path fill="#94D92F" d="M10.707 12.819c.03.024.048.059.073.088-.013.03-.043.043-.066.062-.133.107-.263.216-.397.32-.079.061-.153.13-.235.188-.009.007-.016.014-.028.015-.036-.014-.055-.042-.066-.078.107-.088.211-.18.318-.27.122-.101.243-.206.365-.309.01-.009.019-.023.037-.017Z"/><path fill="#A5D925" d="M10.504 12.595c.028.022.05.05.074.077.01.022-.006.033-.018.045l-.25.232c-.053.049-.104.1-.159.148-.074.065-.144.135-.219.2-.009.008-.017.017-.03.019-.033-.014-.058-.034-.067-.07.14-.138.276-.28.418-.415.074-.07.146-.143.219-.213.01-.01.017-.02.032-.022Z"/><path fill="#E051AA" d="m7.006 19.499.073-.505c.015-.1.033-.2.045-.3.006-.04.008-.08.019-.118.023-.02.045-.005.068.001.024.014.025.037.022.06-.02.163-.038.327-.057.49-.014.111-.025.222-.038.332-.006.047-.013.053-.052.049a.222.222 0 0 1-.08-.01v.001Z"/><path fill="#6374E6" d="m9.226 18.15.483.797c-.028.024-.065.035-.097.055-.022-.01-.029-.034-.04-.053-.132-.231-.265-.463-.396-.696-.011-.02-.03-.038-.026-.065.02-.022.04-.044.076-.039Z"/><path fill="#F54A36" d="M4.843 18.478c-.028-.02-.05-.046-.072-.072.027-.046.066-.08.1-.117.158-.165.311-.332.474-.491.023-.024.037-.056.07-.071.03.008.048.03.061.058-.005.04-.037.061-.06.087-.137.157-.28.31-.418.466-.037.042-.073.086-.114.124-.01.01-.02.027-.04.015v.001Z"/><path fill="#F47200" d="m6.379 11.557.217.704c.02.062.037.125.056.187-.02.027-.046.038-.08.024-.073-.216-.148-.433-.22-.65-.022-.064-.04-.13-.065-.192-.005-.013-.006-.03-.023-.035a.488.488 0 0 1 .115-.038Z"/><path fill="#DB53D0" d="M7.73 18.608c.088-.002.085-.002.09.09.004.137.018.275.03.413.005.077.012.154.016.23.003.064.015.128.009.192a1.081 1.081 0 0 1-.177.007c0-.003.001-.008.003-.008.056-.01.05-.052.049-.092l-.022-.53c-.004-.082-.01-.165-.01-.248 0-.018-.002-.038.012-.054Z"/><path fill="#8CD933" d="m10.05 13.489.309-.246.42-.336a.453.453 0 0 1 .064.08c.004.024-.015.03-.028.04-.153.115-.302.234-.457.348-.072.053-.14.112-.213.162-.014.01-.025.02-.043.02-.03-.013-.049-.034-.05-.067l-.001-.001Z"/><path fill="#AAD922" d="M10.504 12.595c-.08.085-.164.165-.248.246-.13.123-.253.251-.379.377-.011.012-.02.029-.041.029a.076.076 0 0 1-.058-.057.749.749 0 0 1 .086-.1c.17-.164.327-.34.495-.504.023-.023.037-.053.064-.07.03.024.057.05.08.08Z"/><path fill="#F64A2E" d="M4.624 18.261a.584.584 0 0 0 .076-.063c.135-.13.268-.261.406-.388.056-.052.109-.106.165-.159.01-.01.023-.019.023-.036.035.01.055.035.069.066-.003.02-.02.032-.032.045-.12.12-.238.24-.358.358-.082.08-.158.166-.243.245-.008.006-.012.019-.026.014-.028-.026-.059-.049-.08-.08v-.002Z"/><path fill="#D355D9" d="M8.012 19.517c-.01-.096-.025-.193-.03-.289-.005-.09-.022-.18-.027-.27-.006-.085-.019-.17-.028-.257-.005-.036-.008-.074-.012-.11.018-.032.047-.017.072-.016.023.011.026.033.029.055l.064.494c.017.112.025.226.044.338.003.018.004.035-.016.045-.032.004-.063.013-.096.01Z"/><path fill="#5279E8" d="M9.828 18.872c-.025-.015-.036-.042-.052-.066l-.455-.695c-.004-.005-.005-.012-.007-.018.016-.03.038-.05.074-.05.163.245.336.485.501.73.009.013.023.021.03.036a.482.482 0 0 1-.091.062v.001Z"/><path fill="#36DA6A" d="M11.42 14.051c.013.032.027.063.033.097-.018.02-.044.026-.067.034-.253.084-.504.174-.756.256-.02.007-.036.018-.054.026a.107.107 0 0 1-.035-.1c.022-.018.051-.022.077-.031.253-.096.507-.187.76-.281.014-.005.028-.012.042 0Z"/><path fill="#E35099" d="M6.668 19.437c.028-.071.037-.147.055-.22.033-.135.062-.27.093-.405.018-.08.035-.162.054-.242.003-.014.01-.027.015-.041.026-.007.05 0 .073.015.002.046-.017.088-.025.131-.05.252-.102.502-.153.754l-.008.03c-.036 0-.07-.012-.105-.022Z"/><path fill="#3881EB" d="M10.253 18.55a.404.404 0 0 1-.077.066c-.025.003-.035-.017-.047-.031-.143-.175-.287-.35-.427-.526-.035-.044-.07-.089-.108-.129-.008-.009-.017-.018-.018-.03a.12.12 0 0 1 .068-.06c.047.039.084.09.124.135l.34.395c.05.059.107.112.146.18h-.001Z"/><path fill="#F34B40" d="m5.591 17.89-.313.382-.248.303c-.01.012-.023.02-.035.032a.45.45 0 0 1-.08-.064c.025-.047.064-.083.097-.122.133-.156.267-.312.403-.466.036-.04.065-.089.112-.119.03.007.054.022.064.054Z"/><path fill="#836BE2" d="M9.25 19.187a.56.56 0 0 1-.113.048c-.028-.03-.036-.071-.05-.108-.059-.137-.113-.275-.169-.413-.038-.095-.079-.19-.118-.286-.008-.02-.02-.038-.012-.061.023-.018.046-.036.078-.034.048.092.085.188.128.282l.23.522c.008.017.019.033.026.05Z"/><path fill="#8A69E1" d="M8.792 18.367c.017.074.051.143.08.213.067.157.13.315.193.473.024.06.058.117.072.182a.415.415 0 0 1-.096.04c-.025-.021-.028-.053-.04-.081-.094-.25-.187-.5-.285-.749a.097.097 0 0 1-.01-.038c.02-.032.049-.043.084-.039h.002Z"/><path fill="#EE4C5A" d="M5.495 18.96c.044-.042.067-.099.098-.15a63.098 63.098 0 0 0 .384-.645c.03-.013.045.01.063.026.013.02.005.039-.005.056-.113.196-.223.394-.335.59-.025.041-.045.085-.07.126-.012.019-.02.04-.039.055l-.095-.058Z"/><path fill="#79D93E" d="M10.954 13.142a.557.557 0 0 1 .059.088c-.066.05-.134.093-.202.137-.186.118-.367.241-.552.36-.009.005-.018.012-.029.012-.027-.018-.048-.04-.05-.075l.28-.195.444-.308c.015-.01.029-.026.05-.02Z"/><path fill="#DF51AF" d="M7.086 19.509c.023.003.033-.008.036-.03l.022-.174.037-.316.027-.237.014-.11c.002-.021.01-.044-.014-.058.031-.023.06-.005.091.002.014.011.014.025.013.04-.01.149-.028.296-.04.444-.01.135-.025.269-.035.403-.001.017.001.035-.012.049H7.2c-.013-.007-.028.002-.04-.007-.025 0-.05.003-.074-.008v.002Z"/><path fill="#B2D91E" d="M9.667 13.087c.038-.065.094-.116.144-.171.098-.11.194-.22.29-.33l.15-.168c.01-.012.022-.022.02-.04a.565.565 0 0 1 .08.071c.006.015-.005.023-.013.03-.101.111-.204.22-.304.331-.088.098-.18.19-.267.29-.014.016-.027.034-.05.04-.026-.008-.045-.024-.05-.052Z"/><path fill="#0DAFC5" d="m10.57 16.475.828.286c.018.006.036.014.055.012a.534.534 0 0 1-.04.105 6.166 6.166 0 0 1-.196-.07l-.644-.238c-.012-.005-.025-.009-.032-.021-.006-.031.002-.056.029-.074Z"/><path fill="#9167E0" d="M8.71 18.403c.06.155.12.309.178.464.052.136.108.27.153.41a.204.204 0 0 1-.071.024c-.023.01-.031-.003-.038-.022l-.147-.417c-.049-.132-.095-.265-.142-.398-.003-.01-.01-.022-.008-.035.02-.026.046-.033.076-.026H8.71Z"/><path fill="#9AD92B" d="m10.707 12.819-.292.248-.293.246-.107.09c-.007.006-.015.013-.025.012-.03-.005-.042-.029-.05-.056.084-.077.171-.153.257-.23l.255-.226c.054-.05.113-.096.165-.148.007-.007.015-.016.027-.01a.42.42 0 0 1 .063.073v.001Z"/><path fill="#776FE3" d="M9.426 19.106c-.03.025-.07.03-.104.049-.016-.011-.022-.03-.03-.047l-.352-.754c-.01-.02-.016-.037 0-.057.018-.014.036-.03.061-.023.013.01.018.026.026.04.083.173.173.342.257.514.031.064.058.129.091.192.016.03.03.06.051.085v.001Z"/><path fill="#7D6DE3" d="M8.944 18.302c-.009.013-.007.024-.001.038.059.125.119.25.177.378.066.145.14.288.202.436a.295.295 0 0 1-.073.032c-.038-.016-.04-.055-.052-.084a33.27 33.27 0 0 1-.226-.513c-.036-.085-.08-.166-.107-.254.022-.023.044-.044.08-.034v.001Z"/><path fill="#0296EB" d="M10.956 17.764c-.019-.032-.054-.046-.083-.066a37.303 37.303 0 0 0-.524-.359c-.054-.035-.104-.074-.158-.108-.005-.029.014-.044.032-.06.019-.008.034.004.047.012.228.15.456.298.685.444.021.013.044.025.059.047a.554.554 0 0 1-.058.09Z"/><path fill="#F54A31" d="M4.704 18.342c.072-.072.146-.143.217-.217.145-.151.298-.293.438-.446a.078.078 0 0 1 .055.053c-.067.082-.146.152-.219.229-.111.115-.222.23-.33.348-.031.033-.06.07-.095.097-.026-.017-.045-.04-.067-.063h.001Z"/><path fill="#2EDA71" d="m11.509 14.324-.643.19-.214.06c-.013.004-.026.004-.035.017-.027-.011-.02-.036-.026-.057 0-.026.018-.036.04-.043.203-.062.404-.129.608-.19.065-.02.129-.044.194-.063.017-.004.033-.014.05-.001.01.03.022.058.026.089v-.002Z"/><path fill="#1F88EE" d="M10.56 18.253a.37.37 0 0 1-.07.074c-.023.005-.032-.015-.045-.027-.157-.157-.314-.315-.472-.471-.042-.043-.082-.088-.13-.125a.044.044 0 0 1-.02-.03c.011-.027.026-.049.053-.06.035.018.06.048.088.074l.34.323c.078.071.155.144.232.216a.118.118 0 0 1 .024.026Z"/><path fill="#18C99F" d="M11.638 15.967c.003-.02-.003-.03-.026-.035-.058-.012-.116-.013-.174-.021l-.237-.03-.237-.027-.173-.02c-.025-.004-.05-.009-.074.004-.02-.028-.009-.055.007-.08.116.003.23.018.345.03.066.008.132.012.198.018l.308.03c.027.002.053.002.08.002-.002.044-.003.087-.014.13h-.003Z"/><path fill="#3CDA66" d="M11.42 14.052c-.066.015-.127.046-.191.068l-.565.206c-.04.015-.078.036-.121.04-.027-.015-.032-.038-.026-.065.045-.037.101-.048.153-.069.17-.065.338-.133.507-.199l.176-.067c.01-.005.022-.012.034-.002l.033.088Z"/><path fill="#10B6BB" d="M11.486 16.668c-.053-.036-.116-.043-.175-.063-.136-.045-.274-.084-.41-.126-.1-.03-.2-.063-.301-.094-.014-.028-.005-.053.015-.075.022-.005.042.004.062.01.227.068.455.13.683.195.04.01.08.023.119.036.015.005.04.007.03.036a.28.28 0 0 1-.023.081Z"/><path fill="#80D93A" d="M10.954 13.142c-.1.057-.189.129-.284.194-.153.103-.304.21-.456.316-.01.007-.022.009-.033.013-.028-.004-.034-.025-.037-.048.003-.017.015-.028.028-.038.229-.165.457-.33.685-.497.013-.01.026-.025.046-.013l.05.072.001.001Z"/><path fill="#B55DDD" d="M8.566 19.421a.2.2 0 0 1-.071.016c-.031.008-.033-.017-.037-.035-.013-.057-.03-.114-.04-.172-.043-.215-.096-.426-.141-.64-.005-.022-.016-.044.004-.065.024-.012.049-.025.078-.014.036.176.084.35.127.526.028.114.053.229.083.343.004.014.008.028-.003.042Z"/><path fill="#72D942" d="M10.231 13.738c.099-.077.208-.138.311-.208.143-.097.29-.19.434-.285a.074.074 0 0 1 .037-.015.276.276 0 0 1 .045.073c-.008.02-.027.028-.044.039-.22.134-.439.275-.66.41-.028.016-.053.037-.081.051-.03-.012-.04-.036-.041-.066l-.001.001Z"/><path fill="#32DA6E" d="M11.483 14.237c-.087.02-.17.054-.255.08l-.6.186c-.018.005-.029.014-.028.034-.027-.019-.035-.044-.023-.074.006-.024.028-.027.046-.033.175-.06.35-.117.526-.176.101-.034.203-.07.305-.106l.03.09Z"/><path fill="#E8AB01" d="M7.85 11.38c-.014.144-.013.29-.03.433a.959.959 0 0 0-.007.131c-.004.122-.025.244-.019.367-.039.021-.086.02-.114-.005.023-.017.029-.04.03-.07.009-.16.014-.32.021-.48.005-.11.012-.22.013-.33 0-.032-.03-.034-.038-.054l.145.007v.001Z"/><path fill="#407FEA" d="m9.58 17.898.319.388.233.288a.14.14 0 0 0 .044.04.393.393 0 0 1-.072.058c-.027.003-.04-.02-.052-.037-.114-.147-.229-.294-.342-.442-.054-.07-.11-.138-.163-.21-.01-.013-.024-.026-.022-.044.01-.025.027-.04.055-.041Z"/><path fill="#47DA5E" d="M11.316 13.793a.304.304 0 0 1 .032.073c-.007.019-.024.024-.04.03-.252.104-.502.212-.753.316a.327.327 0 0 0-.058.034c-.029-.016-.034-.045-.04-.074.006-.021.023-.03.04-.037.17-.073.338-.149.505-.224.087-.039.176-.072.26-.116.015-.01.035-.025.053-.002Z"/><path fill="#EC4C64" d="M6.17 18.27c-.056.113-.11.227-.17.338-.081.152-.156.308-.234.462-.005.01-.009.023-.021.028a.279.279 0 0 1-.08-.04c.029-.08.075-.151.114-.225.07-.136.145-.269.216-.405.03-.055.062-.11.088-.167.005-.01.011-.022.022-.027.03-.002.053.008.065.036Z"/><path fill="#4E7BE8" d="M9.92 18.81c-.016-.002-.025-.012-.034-.024l-.412-.6-.072-.105c-.008-.011-.017-.021-.014-.036.006-.03.03-.037.056-.043l.52.717c.01.013.02.026.025.041a.252.252 0 0 1-.067.05h-.001Z"/><path fill="#86D936" d="M10.903 13.07c-.066.029-.119.08-.177.12-.14.1-.28.2-.417.304-.053.04-.115.07-.16.124-.03-.01-.048-.031-.048-.066.068-.04.13-.092.193-.14.114-.087.229-.17.34-.26.07-.055.146-.101.21-.164l.06.08v.002Z"/><path fill="#2687EE" d="M9.828 17.67c.023.039.061.063.093.093.184.18.364.366.548.547.006.006.014.01.022.017-.019.022-.036.045-.06.062-.02.004-.029-.013-.04-.023-.154-.151-.3-.311-.454-.464l-.138-.144c-.01-.01-.022-.02-.023-.036.008-.026.024-.045.052-.051Z"/><path fill="#F44B3B" d="m5.53 17.841-.17.19-.179.21-.228.266c-.011.013-.022.027-.037.035a.434.434 0 0 1-.073-.064c.032-.008.05-.037.069-.058.098-.107.195-.215.291-.323.087-.096.171-.193.257-.29a.035.035 0 0 0 .01-.02c.033.004.049.027.059.054Z"/><path fill="#E8A701" d="M7.706 11.373c.052-.002.05.03.05.069 0 .105-.01.21-.012.316-.002.122-.011.246-.015.368-.001.05-.007.101-.006.152 0 .034-.024.024-.042.027-.01.008-.021.008-.03-.001.01-.164 0-.33.01-.492.006-.127.002-.254.006-.38 0-.02.005-.04.008-.06h.032Z"/><path fill="#118CF0" d="M10.005 17.478c.036.05.088.08.133.12.09.08.185.155.279.233l.289.24c.004.003.01.003.014.004a.3.3 0 0 1-.063.073c-.043-.008-.065-.044-.094-.07a68.218 68.218 0 0 0-.501-.438c-.03-.025-.055-.054-.087-.079-.01-.008-.018-.02-.016-.034.007-.024.016-.045.045-.05Z"/><path fill="#9FD928" d="m10.644 12.746-.165.144a66.61 66.61 0 0 0-.51.455c-.008.007-.015.015-.027.014-.03-.001-.04-.02-.043-.047.028-.023.057-.045.083-.07l.416-.391c.052-.049.105-.095.158-.142.01-.01.022-.02.022-.036a.42.42 0 0 1 .067.073Z"/><path fill="#9766DF" d="M8.638 18.428c.054.128.095.26.142.39.056.155.11.31.164.465.005.015.014.017.026.017-.03.016-.064.024-.097.032-.021 0-.02-.018-.024-.03-.078-.24-.157-.478-.237-.717-.016-.045-.034-.09-.039-.138.019-.018.04-.028.066-.019Z"/><path fill="#3383EC" d="m10.253 18.55-.188-.211c-.06-.07-.121-.14-.181-.212l-.24-.283c.007-.03.03-.043.055-.052.116.131.232.262.35.391.08.086.153.176.234.26.014.014.03.03.036.051-.017.025-.046.036-.066.056Z"/><path fill="#DC53CC" d="M7.73 18.608c-.002.167.014.332.017.5.003.123.013.246.015.37 0 .038-.003.064-.05.056-.004-.001-.01.003-.014.006H7.68c-.024-.05-.013-.103-.02-.153-.005-.035-.002-.07 0-.105.004-.168-.012-.337-.01-.505 0-.04-.009-.08-.007-.12.002-.017-.001-.035.013-.05h.072Z"/><path fill="#0399E7" d="m11.014 17.674-.233-.146a81.707 81.707 0 0 1-.526-.343c-.01-.006-.018-.012-.03-.011-.004-.03.01-.047.038-.057.062.022.112.065.168.1.206.125.412.253.618.38.003.003.008.002.012.003l-.046.073-.001.001Z"/><path fill="#12BBB5" d="M11.557 16.41a.294.294 0 0 1-.022.081c-.017.011-.034.003-.05-.001-.201-.05-.4-.106-.601-.157-.07-.017-.136-.039-.205-.055-.017-.004-.035-.006-.049-.018-.012-.03.001-.053.016-.076a.026.026 0 0 1 .02 0c.28.073.564.134.844.205.017.005.035.007.046.022l.001-.001Z"/><path fill="#AD5FDD" d="M8.566 19.421c-.034-.14-.07-.281-.103-.422l-.11-.449a.046.046 0 0 1 .004-.038c.015-.021.035-.023.056-.013.023.039.029.083.04.125l.193.714a.17.17 0 0 0 .026.058c-.034.015-.07.019-.106.024v.001Z"/><path fill="#9C64DF" d="M8.574 18.448c.022.037.029.08.042.12.076.23.152.457.23.685.008.027.008.056.026.079-.025.015-.052.019-.08.026-.017-.006-.02-.023-.024-.038-.075-.247-.153-.491-.227-.738-.008-.024-.019-.047-.024-.072-.004-.017-.01-.035.004-.05.016-.012.032-.026.053-.012Z"/><path fill="#6873E5" d="m9.153 18.19.21.374.25.439c-.022.019-.049.027-.073.04-.016-.005-.02-.02-.027-.033-.097-.175-.19-.351-.287-.525-.042-.075-.082-.15-.123-.226-.007-.012-.014-.024-.01-.038.015-.021.032-.038.061-.03Z"/><path fill="#7071E4" d="M9.426 19.106c-.024-.002-.03-.022-.039-.04-.09-.182-.179-.366-.27-.547a5.37 5.37 0 0 1-.116-.242c.01-.027.03-.037.057-.035.04.058.066.123.1.184.107.197.208.398.31.597.009.016.022.031.016.052a.19.19 0 0 1-.057.031Z"/><path fill="#4EDA59" d="M11.316 13.794c-.046-.009-.077.027-.113.042-.228.098-.455.2-.682.3-.02.009-.044.014-.057.035-.027-.009-.027-.033-.03-.055.005-.024.025-.034.044-.043.152-.073.307-.14.458-.215.098-.048.197-.092.295-.137.017-.008.036-.027.052 0a.323.323 0 0 1 .033.072Z"/><path fill="#477DE9" d="M9.988 18.76c-.049-.044-.08-.101-.119-.153l-.413-.57c-.008-.01-.014-.02-.013-.032.004-.027.023-.035.047-.037.032.02.048.054.069.082l.473.624c.008.012.018.023.02.038-.015.023-.044.03-.064.049Z"/><path fill="#DD52BC" d="M7.465 19.54c-.03 0-.06.003-.09-.006a.355.355 0 0 1-.002-.1c.015-.177.018-.354.029-.53.007-.101.02-.203.006-.305.031-.02.06-.013.086.009.016.059.008.12.005.18 0 .014-.005.029-.004.043.005.149-.011.298-.008.446.001.076-.012.15-.009.225 0 .013-.001.027-.012.038h-.001Z"/><path fill="#11B9B8" d="M10.633 16.257c.13.033.258.064.386.098l.516.136a.433.433 0 0 1-.025.096c-.003-.021-.022-.022-.036-.026l-.726-.207c-.044-.013-.087-.028-.13-.04-.012-.024-.006-.043.015-.057Z"/><path fill="#DF52B4" d="M7.223 19.523c.003-.127.018-.254.031-.38l.018-.207.03-.317a.045.045 0 0 0-.006-.027c.028-.021.052-.015.076.007.012.03.001.058 0 .087-.006.132-.02.264-.028.396-.006.09-.015.178-.018.268-.002.042-.009.085-.01.128 0 .051-.006.055-.06.047-.01 0-.022 0-.032-.002Z"/><path fill="#DE52B7" d="M7.255 19.525c.036.006.048-.007.05-.047.007-.14.023-.278.03-.418.003-.082.014-.164.018-.246.004-.072.01-.143.015-.215.014-.012.027-.013.04.001.017.01.017.025.017.042a6.84 6.84 0 0 1-.024.43c-.006.07-.001.14-.008.209-.007.077-.006.155-.01.232 0 .008 0 .016-.009.02-.04-.002-.08.004-.12-.008Z"/><path fill="#178BEF" d="M9.965 17.527c.02.049.067.07.102.104.072.07.15.13.225.197l.366.32c-.009.026-.032.039-.049.057-.02.012-.03-.005-.04-.015-.136-.13-.276-.254-.414-.38-.07-.064-.139-.13-.212-.191-.013-.011-.027-.023-.03-.041.008-.026.024-.046.053-.05Z"/><path fill="#60DA4D" d="M11.148 13.456c.017.022.03.046.04.073-.038.038-.088.057-.133.08-.223.117-.444.237-.665.357-.007.004-.014.008-.022.009-.025-.012-.032-.035-.036-.06.004-.015.017-.02.028-.026.234-.133.467-.265.705-.392.027-.015.048-.044.084-.04h-.001Z"/><path fill="#A363DE" d="M8.526 18.463c-.012.027.003.05.01.073l.2.647.057.175a.232.232 0 0 1-.073.023c-.019-.007-.022-.026-.027-.042-.08-.272-.156-.545-.235-.818a.058.058 0 0 1-.002-.035c.019-.023.04-.034.07-.022Z"/><path fill="#D3D808" d="M9.049 12.667c-.002-.019.009-.034.016-.048l.383-.735.026-.044c.025.004.045.018.065.031.011.017 0 .032-.008.045-.09.163-.18.329-.268.493-.047.084-.091.17-.14.254-.007.012-.013.026-.027.033-.022.001-.042 0-.047-.028v-.001Z"/><path fill="#BC5BDD" d="M8.285 18.528a.039.039 0 0 0-.006.03l.19.843c.004.016.005.032.026.036a.195.195 0 0 1-.073.016c-.032.008-.034-.018-.04-.038-.02-.077-.034-.156-.048-.235-.037-.197-.082-.39-.121-.586-.003-.013-.006-.026-.007-.04a.03.03 0 0 1 .003-.013c.023-.016.046-.03.075-.013Z"/><path fill="#2E84ED" d="M10.319 18.494a22.52 22.52 0 0 1-.182-.197c-.032-.035-.062-.072-.094-.108l-.323-.356a.065.065 0 0 1-.02-.039c.004-.024.02-.03.04-.035.034.017.05.051.076.076.115.113.222.234.333.352.079.082.157.167.235.251l-.065.056Z"/><path fill="#C758DC" d="M8.35 19.468a.292.292 0 0 1-.098.02c-.01-.01-.01-.024-.013-.036-.048-.277-.092-.555-.14-.832a.088.088 0 0 1 .003-.051c.02-.023.044-.027.07-.02l.116.627c.014.08.03.16.043.24.003.02.012.036.019.053Z"/><path fill="#0CADC9" d="m10.542 16.545.364.133c.127.047.254.096.381.142.044.017.09.027.127.057a.199.199 0 0 1-.024.064.059.059 0 0 1-.04-.006c-.271-.11-.547-.213-.82-.323l-.01-.007c-.008-.026 0-.045.022-.06Z"/><path fill="#0BAACD" d="M10.521 16.604c.066.01.123.045.183.068.204.078.406.158.609.238l.076.032a.2.2 0 0 1-.024.064c-.016.012-.03.003-.045-.003l-.752-.31c-.024-.01-.05-.017-.068-.04-.006-.022-.001-.04.021-.05Z"/><path fill="#5BDA51" d="M10.368 13.971c.027-.024.059-.04.09-.057.235-.127.471-.252.707-.378l.023-.008.032.065c-.015.027-.045.036-.07.049-.12.06-.241.12-.361.182l-.35.178c-.016.008-.027.023-.04.035-.027-.014-.039-.036-.031-.066Z"/><path fill="#D056DA" d="M8.108 19.507c.02-.03.001-.06-.002-.09-.018-.164-.04-.328-.063-.493l-.04-.312c-.002-.013-.007-.024-.018-.03.018-.028.043-.019.067-.014.015.007.017.022.019.037.041.279.083.557.123.836.003.02.012.043-.013.057l-.073.009Z"/><path fill="#2A85ED" d="M10.384 18.437c-.037-.012-.06-.045-.083-.072-.045-.058-.102-.105-.15-.162-.06-.07-.13-.134-.192-.203-.071-.08-.152-.153-.219-.238 0-.026.016-.038.04-.041l.012.016.24.248c.121.125.243.25.367.375l.032.03a.202.202 0 0 1-.047.049v-.002Z"/><path fill="#DD52C0" d="M7.465 19.54c0-.138.006-.275.01-.413.003-.1-.002-.203.007-.304.006-.071.005-.143.006-.216.02-.016.04-.014.06 0 .011.019.01.04.01.059 0 .168.003.337-.002.505-.004.108-.006.216-.007.324 0 .016 0 .032-.012.046h-.073v-.001Z"/><path fill="#C4D812" d="M9.765 12.008c-.071.126-.152.245-.229.367l-.257.405c-.003.005-.004.012-.006.018-.028.004-.046-.01-.059-.033.036-.076.086-.145.128-.218.108-.181.219-.36.33-.54.008-.015.016-.032.035-.038.02.01.04.023.056.039h.002Z"/><path fill="#DC53C4" d="M7.537 19.54c0-.31.014-.621.008-.932.019-.017.04-.015.059-.001.01.015.01.033.01.05.008.272.009.543.008.814 0 .023.005.048-.014.069h-.072Z"/><path fill="#C7D810" d="m9.707 11.969-.477.784c-.003.004-.008.007-.012.01-.026.005-.041-.009-.052-.03.106-.186.214-.37.321-.553l.126-.216a.093.093 0 0 1 .03-.036l.064.04Z"/><path fill="#1B8AEF" d="M9.918 17.578c.074.07.146.14.222.206.047.041.09.086.138.128.105.092.206.189.309.283a.033.033 0 0 0 .02.01c-.01.022-.038.026-.048.048-.01 0-.017-.006-.024-.012l-.286-.27-.298-.28a1.668 1.668 0 0 1-.074-.072c0-.027.012-.04.04-.04Z"/><path fill="#DC53C7" d="M7.61 19.54c0-.311.001-.622-.009-.933.018-.015.037-.015.056-.002v.002c0 .128.005.256.01.384.005.108.002.216.006.324l.009.223h-.073v.002Z"/><path fill="#09A5D4" d="m11.31 17.135-.709-.318c-.047-.022-.09-.055-.143-.061-.008-.026.008-.043.022-.059.017-.003.032.005.046.01l.69.3c.043.018.089.03.124.063l-.029.065Z"/><path fill="#A861DE" d="M8.462 18.485c.027.096.052.193.08.289l.17.585.008.022a.1.1 0 0 1-.047.016c-.022.003-.027-.014-.031-.03l-.171-.64c-.02-.075-.046-.15-.058-.227.012-.02.029-.025.05-.014h-.001Z"/><path fill="#56DA54" d="M10.4 14.034c-.002-.016.006-.027.021-.034l.29-.145c.087-.046.173-.095.262-.137a5.88 5.88 0 0 0 .247-.125l.03.056c-.006.02-.025.028-.041.036-.257.127-.516.25-.772.379a.05.05 0 0 1-.023.006c-.015-.008-.024-.018-.013-.036H10.4Z"/><path fill="#0AA7D0" d="m11.34 17.07-.297-.126c-.151-.064-.301-.13-.451-.195l-.11-.05c-.005-.02 0-.038.02-.049.137.066.28.117.42.177.137.059.275.114.413.171.01.005.02.008.03.008-.007.022-.01.044-.024.064Z"/><path fill="#6DDA45" d="M10.271 13.802c.018-.028.05-.04.075-.058l.547-.342c.054-.034.11-.066.165-.1.008.021.032.032.033.057-.005.019-.021.027-.036.036-.245.144-.487.29-.731.436-.009.005-.018.011-.029.014-.019-.008-.032-.02-.023-.043Z"/><path fill="#CC57DB" d="M8.18 19.498c.02-.03.002-.061-.002-.09-.024-.17-.052-.339-.078-.508a16.336 16.336 0 0 1-.041-.309c-.001-.006-.006-.01-.01-.017.017-.027.037-.02.059-.007.003.084.023.166.036.248.024.154.052.307.076.46.011.072.032.14.033.213l-.071.01H8.18Z"/><path fill="#CCD80C" d="m9.644 11.928-.224.387-.22.38c-.008.014-.015.03-.031.037-.02.003-.036-.004-.043-.025.03-.069.071-.13.108-.197.105-.192.215-.382.322-.574.009-.016.015-.032.032-.04.022.005.033.03.057.032h-.001Z"/><path fill="#13BDB1" d="m11.557 16.41-.363-.089c-.167-.039-.334-.076-.5-.12a.176.176 0 0 1-.043-.017c-.009-.021 0-.035.018-.045.063.001.12.023.18.036.224.048.446.101.67.149.02.004.04.006.055.021a.164.164 0 0 1-.016.065Z"/><path fill="#6D72E4" d="M9.484 19.074c-.096-.185-.19-.371-.287-.556-.042-.079-.087-.157-.126-.237-.006-.012-.01-.025-.015-.037.006-.022.02-.028.04-.022l.115.22.213.386.115.215c-.015.016-.037.021-.056.031Z"/><path fill="#52DA56" d="M10.416 14.067c.124-.07.253-.131.382-.193.02-.01.042-.018.062-.029.128-.07.264-.12.39-.196a.255.255 0 0 1 .033.072c-.011-.009-.022-.004-.033.002l-.388.182-.38.178c-.018.008-.035.015-.043.035-.024-.01-.033-.026-.024-.051h.001Z"/><path fill="#AED920" d="M10.423 12.514a.223.223 0 0 1-.054.073l-.51.52c-.028.027-.046.063-.08.083-.022 0-.032-.013-.034-.034.033-.06.084-.103.13-.15.128-.13.247-.267.376-.396.036-.036.071-.075.106-.115.007-.008.014-.02.029-.015l.037.034Z"/><path fill="#437EEA" d="M10.052 18.71c-.064-.069-.116-.148-.174-.224-.116-.15-.23-.303-.345-.455-.016-.02-.028-.043-.042-.064.004-.023.019-.031.04-.031.02.05.06.087.092.128.097.128.197.253.294.38l.146.189a.12.12 0 0 0 .042.037l-.052.04Z"/><path fill="#66DA4A" d="m11.148 13.456-.642.36-.17.098c-.022 0-.022-.017-.025-.03 0-.025.02-.034.037-.045.11-.066.223-.128.334-.193.128-.075.256-.15.386-.223.016-.01.03-.027.054-.016l.026.049Z"/><path fill="#CFD80A" d="m9.587 11.896-.248.444-.175.315a.191.191 0 0 1-.036.053c-.017.005-.028.002-.03-.017.105-.194.214-.387.317-.583.042-.079.092-.154.125-.237.018.004.033.015.048.025Z"/><path fill="#69DA48" d="M11.122 13.407c-.088.04-.168.092-.251.14-.164.093-.325.188-.487.284-.024.013-.058.018-.065.053-.02-.007-.032-.02-.024-.041.037-.036.084-.057.126-.083.166-.1.333-.198.499-.297.057-.034.114-.068.17-.104.013.015.026.03.032.049v-.001Z"/><path fill="#13BEB0" d="m11.574 16.346-.35-.075c-.143-.032-.287-.062-.431-.095l-.127-.031c-.005-.006-.005-.012.002-.016.012-.02.03-.018.049-.014l.615.133.21.041c.014.003.03.005.04.016a.068.068 0 0 1-.009.04h.001Z"/><path fill="#43DA61" d="M10.496 14.244c.001-.025.022-.028.039-.035l.715-.298c.033-.014.065-.03.098-.045.01.015.017.03.017.049-.01.023-.034.027-.055.036-.25.101-.5.2-.748.304a.174.174 0 0 0-.05.032c-.021-.008-.024-.022-.016-.04v-.003Z"/><path fill="#41DA62" d="M10.513 14.285c-.002-.016.006-.024.02-.03.12-.05.242-.098.363-.147l.47-.193.022.048-.64.253c-.075.03-.152.057-.228.086-.01-.002-.012-.008-.007-.016v-.001Z"/><path fill="#ED4C5F" d="M5.59 19.02c.034-.076.078-.147.118-.218.075-.135.152-.268.228-.401.028-.05.058-.1.085-.15.01-.017.027-.032.013-.055.023-.01.034.006.045.023.005.02-.006.037-.016.053-.135.24-.266.483-.398.724-.01.017-.016.041-.044.04a.049.049 0 0 1-.03-.017Z"/><path fill="#AFD920" d="m10.386 12.48-.274.293c-.034.037-.07.072-.104.11-.085.095-.175.184-.262.276-.015-.003-.031-.004-.028-.026.096-.1.192-.2.284-.304.042-.049.088-.094.13-.142.072-.081.152-.155.22-.24l.034.033Z"/><path fill="#ED4C60" d="M5.62 19.035c.045-.038.06-.093.088-.142.115-.203.227-.41.34-.615.01-.018.023-.037.025-.059.019-.007.028.003.032.019-.1.19-.2.38-.302.569l-.12.226c-.005.01-.01.02-.02.024a.108.108 0 0 1-.043-.023Z"/><path fill="#C25ADC" d="M8.35 19.468c-.021-.001-.023-.017-.026-.034-.052-.282-.104-.565-.158-.848a.044.044 0 0 1 .006-.034c.01-.017.023-.023.04-.01v.007c-.006.014-.004.029-.001.044.051.27.105.539.157.808.004.02.012.038.016.058-.01.01-.022.008-.034.008v.001Z"/><path fill="#C25ADC" d="M8.384 19.462c-.026-.003-.022-.027-.025-.042-.043-.217-.082-.436-.128-.654-.013-.058-.02-.118-.033-.176-.003-.014-.01-.034.015-.04.024.11.05.218.072.328.039.18.075.36.112.542.003.016.005.032.026.033-.012.01-.026.008-.039.009Z"/><path fill="#DF52B4" d="M7.158 19.517c.013.002.028-.005.04.006-.013 0-.027.003-.04-.006Z"/></g><defs><clipPath id="a"><path fill="#fff" d="M3.5 11.37h43.003v8.341H3.5z"/></clipPath></defs></svg>