<svg xmlns="http://www.w3.org/2000/svg" width="30" height="18" fill="none" viewBox="0 0 30 18"><rect width="30" height="18" fill="#006FCF" rx="2"/><path fill="#fff" d="M15 2.25h14.21v13.5H15z"/><path fill="#006FCF" fill-rule="evenodd" d="m27.876 11.654 1.334 1.35v-2.688l-1.334 1.338Zm-.408 2.32h1.742l-2.304-2.322 2.305-2.295h-1.715l-1.424 1.477-1.41-1.477H22.92l2.291 2.308-2.291 2.31h1.694l1.43-1.492 1.424 1.491Zm-7.36-1.068v-.72h2.742v-1.042h-2.742v-.719h2.812V9.357h-4.14v4.617h4.139v-1.068h-2.812Zm.45-6.179H19.24l.66-1.51.66 1.51Zm7.34 1.96h1.313V4.069h-2.042l-1.09 2.876-1.083-2.876H22.92v4.618h1.312V5.454l1.25 3.233h1.166l1.25-3.24v3.24Zm-6.471 0h1.492l-2.145-4.618h-1.708L16.92 8.687h1.458l.403-.924h2.236l.41.924Zm7.784 8.563v-2.614h-2.096l-1.079-1.134-1.084 1.133h-6.908v-5.28h-2.23l2.766-5.946h2.667l.952 2.037V3.408h3.302l.573 1.535.577-1.535h2.56V.75h-17.37v16.5H29.21Z" clip-rule="evenodd"/></svg>