<svg xmlns="http://www.w3.org/2000/svg" width="20" height="12" fill="none" viewBox="0 0 20 12"><g clip-path="url(#a)"><rect width="19" height="11" x=".5" y=".5" fill="#fff" stroke="#000" rx="1.5"/><path fill="url(#b)" d="M19.348 12H.652A.642.642 0 0 1 0 11.372V.628C0 .282.293 0 .652 0h18.696c.359 0 .652.282.652.628v10.744a.642.642 0 0 1-.652.628Z"/><path fill="#E59331" d="M15.764 7.77h1.149v1.994h-1.15V7.771Z"/><path fill="#CF4C3C" d="M15.837 8.768a1.24 1.24 0 0 1 .505-.997 1.355 1.355 0 0 0-1.85.212 1.24 1.24 0 0 0 .22 1.782 1.362 1.362 0 0 0 1.63 0 1.242 1.242 0 0 1-.505-.997Z"/><path fill="#EDB837" d="M18.477 8.768c0 .337-.139.66-.386.899a1.346 1.346 0 0 1-.934.372c-.296 0-.583-.097-.815-.274.317-.242.501-.609.501-.997 0-.389-.184-.756-.5-.997a1.355 1.355 0 0 1 1.85.212c.187.227.284.502.284.785Z"/><path fill="#264186" d="M15.2 10.875h4.4v.75h-4.4z"/><path fill="#D5D0C7" d="M4.36 5.91H2.567a.396.396 0 0 1-.407-.393V4.45c0-.22.179-.393.407-.393H4.36c.228 0 .407.173.407.393v1.067c0 .22-.179.392-.407.392Z"/><path stroke="#968A81" stroke-width=".1" d="M4.719 4.708h-.726s-.163.228 0 .573c0 0-.187.275.025.597"/><path fill="#968A81" d="M3.993 5.267h.717v.078h-.717v-.078Zm-1.035.651-.033-.016c.18-.353.041-.596.041-.596V5.29c.073-.416-.008-.573-.008-.573V4.7c.13-.392-.033-.604-.033-.604l.033-.024c.008.008.171.228.041.636.016.039.073.204.008.58.017.048.122.291-.049.629Z"/><path fill="#968A81" d="M3.138 4.238h.652v.079h-.652v-.079Zm-.133.492-.758.007v.078l.759-.006-.001-.08Zm0 .58-.758.008.001.079.758-.007v-.08Zm.785.396h-.652v.078h.652v-.078Z"/><path fill="#B4C5A5" d="M2.567 5.949H4.36a.439.439 0 0 0 .448-.432V4.45a.444.444 0 0 0-.448-.432H2.567a.444.444 0 0 0-.448.432v1.067c.002.238.201.43.448.432Zm-.26-1.75a.373.373 0 0 1 .26-.102H4.36c.097 0 .19.036.26.103a.346.346 0 0 1 .107.25v1.067a.346.346 0 0 1-.107.25.373.373 0 0 1-.26.103H2.567a.359.359 0 0 1-.367-.353V4.45c0-.094.038-.184.107-.25Z"/><path fill="#83FFEC" d="M1.426 2.432c0-.534.359-.706.79-.706.58 0 .742.376.742.62v.157H1.743c0 .252.196.424.465.424.334 0 .4-.228.4-.228h.318s-.041.416-.701.416c-.554 0-.799-.267-.799-.683ZM2.632 2.3c0-.228-.171-.377-.432-.377-.22 0-.448.141-.448.377h.88Z"/><path fill="#83FFEC" d="M2.958 2.848v-1.64h.301v.737s.13-.22.554-.22c.449 0 .718.307.718.691 0 .409-.286.699-.718.699-.407 0-.554-.228-.554-.228 0 .087-.008.18-.008.18H2.95s.008-.125.008-.219Zm1.255-.431c0-.275-.18-.487-.473-.487-.326 0-.472.251-.48.487 0 .259.17.494.48.494.261 0 .473-.196.473-.494Z"/><path fill="#83FFEC" d="M4.613 2.118c0-.055.04-.392.684-.392.31 0 .66.086.669.502v.643c0 .07.008.188.008.188h-.285s-.009-.094-.009-.188c0 0-.146.244-.595.244-.334 0-.578-.15-.578-.432 0-.282.268-.424.766-.424h.375v-.062c0-.18-.163-.275-.375-.275-.326 0-.343.196-.343.196h-.317Zm1.035.416v-.086c-.49 0-.815.008-.815.235 0 .126.097.236.326.236.415 0 .489-.275.489-.385Z"/><path fill="#83FFEC" d="M5.786 1.78h.359l.521 1.005.522-1.004h.326l-.945 1.781h-.343l.269-.494-.709-1.287Z"/></g><defs><linearGradient id="b" x1="19.977" x2="19.977" y1="12.004" y2=".02" gradientUnits="userSpaceOnUse"><stop stop-color="#243E83"/><stop offset="1" stop-color="#4573B9"/></linearGradient><clipPath id="a"><rect width="20" height="12" fill="#fff" rx="2"/></clipPath></defs></svg>