<svg xmlns="http://www.w3.org/2000/svg" width="30" height="18" fill="none" viewBox="0 0 30 18"><rect width="29" height="17" x=".5" y=".5" fill="#fff" stroke="#000" rx="1.5"/><path fill="#005294" d="m26.7 7.549-1.194 2.093-.233-2.093h-1.02l.548 3.035-.66 1.138h.947l.66-1.206 1.884-2.967H26.7Zm-22.248.069c.217-.078.422-.096.553-.096.684 0 1.242.444.99 1.553-.222.984-.873 1.482-1.542 1.587a1.399 1.399 0 0 1-.278.023c-.466 0-.767-.188-.879-.448l-.335 1.49h-.593l.83-3.666a6.41 6.41 0 0 0 .064-.356l.023-.137h.607l-.102.499a1.53 1.53 0 0 1 .662-.449Zm.455 2.358c.296-.292.422-.722.471-.937.121-.535.078-1.101-.627-1.101-.101 0-.202.012-.3.036-.704.175-.879.952-.932 1.19-.083.36-.194 1.105.646 1.105.096 0 .193-.01.287-.032.173-.046.33-.136.455-.26ZM19.82 7.49a1.466 1.466 0 0 0-.665.15 1.28 1.28 0 0 0-.427.343l.073-.434h-.912l-.845 3.72-.101.462h.96l.34-1.509c.059.1.229.39.81.39h.102c.875-.056 1.476-.792 1.66-1.615.21-.922-.16-1.508-.995-1.508Zm.035 1.544c-.112.494-.364.86-.7.964a.661.661 0 0 1-.214.032c-.694 0-.53-.767-.485-.94.13-.6.426-.874.698-.98a.777.777 0 0 1 .27-.05c.557 0 .513.618.431.974Zm-4.442 1.221c.1 0 .2-.014.297-.042a.867.867 0 0 0 .59-.585h.602l-.004.01a1.284 1.284 0 0 1-.412.62c-.22.187-.488.313-.776.366a2.286 2.286 0 0 1-.413.038c-.52 0-.864-.16-1.044-.449-.165-.264-.19-.64-.088-1.087a3.14 3.14 0 0 1 .088-.315c.146-.452.394-.832.86-1.097a1.63 1.63 0 0 1 .598-.202c.106-.015.213-.022.32-.023.582 0 .878.197 1.015.467.193.37.077.883 0 1.18l-.003.021a.083.083 0 0 0-.002.015h-2.293c-.155.622.015 1.083.665 1.083Zm.515-2.363a.887.887 0 0 0-.218.023c-.346.073-.715.32-.85.863h1.656c.073-.288.15-.886-.588-.886Zm-6.632.264c.106.293.083.631.02.91a.434.434 0 0 1-.021.086c-.195.73-.743 1.344-1.578 1.49a2.484 2.484 0 0 1-.378.027c-1.057 0-1.417-.685-1.218-1.563.15-.663.617-1.425 1.597-1.586.122-.022.252-.032.389-.032.718 0 1.058.298 1.189.668ZM7.718 10.22c.393-.105.8-.448.966-1.17.17-.75-.105-1.148-.67-1.149-.1.002-.2.017-.296.047-.364.095-.8.397-.966 1.124-.136.613.013 1.184.694 1.184.092 0 .184-.013.272-.036Zm3.341-2.726c-.738 0-1.326.361-1.452.914-.141.626.389.754 1.024.891.455.1.663.155.601.447a.583.583 0 0 1-.17.284c-.16.152-.355.192-.601.192-.579 0-.632-.315-.579-.544h-.626c-.057.233-.034.42.039.562.156.296.548.415.985.415.33 0 .681-.045.996-.205.266-.138.53-.426.603-.764.043-.192.029-.398-.117-.553-.15-.165-.33-.214-1.17-.41-.156-.042-.428-.11-.365-.385.097-.43.656-.43.742-.43.22 0 .632.036.51.489h.607a.868.868 0 0 0 .02-.434c-.11-.36-.645-.47-1.047-.47m11.359.01a2.69 2.69 0 0 1 .48-.041c.268 0 .826.037 1.059.388.164.242.088.603.058.74l-.272 1.211a3.89 3.89 0 0 0-.097.768h-.85a2.3 2.3 0 0 1 .059-.41c-.125.135-.273.25-.438.338-.28.146-.508.146-.63.146-.466 0-.646-.123-.747-.242-.15-.178-.185-.425-.131-.662.053-.243.242-.682.893-.938.19-.072.408-.114.616-.137.269-.032.52-.032.696-.032.042-.196.062-.292.048-.398-.033-.224-.276-.251-.364-.251a.546.546 0 0 0-.38.15l-.014.015a.473.473 0 0 0-.13.269h-.923c.064-.296.254-.554.524-.713a1.8 1.8 0 0 1 .543-.201Zm0 2.527a.75.75 0 0 0 .233-.136c.208-.193.272-.426.345-.745a1.824 1.824 0 0 0-.579.036c-.305.065-.52.22-.568.453-.047.2.05.43.36.43a.612.612 0 0 0 .208-.038Zm-9.238-.264.407-1.796h.714l.092-.416h-.713l.185-.804-.636.178-.14.626h-.564l-.097.416h.568l-.451 2.002c-.112.49.111.64.66.64.22 0 .394-.018.506-.033l.096-.438a1.798 1.798 0 0 1-.29.027c-.43 0-.37-.251-.337-.402Z"/></svg>