<svg xmlns="http://www.w3.org/2000/svg" width="20" height="12" fill="none" viewBox="0 0 20 12"><rect width="19" height="11" x=".5" y=".5" fill="#fff" stroke="#000" rx="1.5"/><path fill="#009CDE" d="M12.902 5.257c-.067.443-.404.443-.73.443h-.185l.13-.827a.103.103 0 0 1 .1-.087h.085c.222 0 .432 0 .54.127.064.075.084.188.06.344ZM12.76 4.1h-1.23a.171.171 0 0 0-.168.145l-.497 3.164a.103.103 0 0 0 .102.119h.63a.12.12 0 0 0 .117-.101l.142-.897a.17.17 0 0 1 .168-.145h.389c.809 0 1.276-.393 1.398-1.173.054-.341.002-.61-.157-.797-.175-.206-.484-.315-.895-.315Z"/><path fill="#003087" d="M10.803 5.243h-.59a.17.17 0 0 0-.142.075l-.815 1.207-.346-1.16a.17.17 0 0 0-.164-.122h-.58c-.07 0-.12.07-.098.136l.651 1.92-.612.867a.103.103 0 0 0 .084.163h.59a.17.17 0 0 0 .14-.074l1.967-2.85a.103.103 0 0 0-.085-.162Z"/><path fill="#009CDE" d="M15.611 6.393a.656.656 0 0 1-.664.564c-.17 0-.307-.055-.395-.16a.504.504 0 0 1-.092-.415.66.66 0 0 1 .66-.568c.167 0 .302.055.392.16a.51.51 0 0 1 .1.419Zm.82-1.15h-.588a.102.102 0 0 0-.101.086l-.026.165-.041-.06c-.128-.185-.411-.247-.695-.247-.65 0-1.205.494-1.313 1.188-.056.347.024.677.22.908.179.213.435.3.74.3.524 0 .814-.337.814-.337l-.026.164a.103.103 0 0 0 .101.119h.53a.171.171 0 0 0 .168-.144l.318-2.024a.103.103 0 0 0-.101-.118Z"/><path fill="#003087" d="M4.142 5.256c-.067.443-.404.443-.73.443h-.185l.13-.827a.103.103 0 0 1 .101-.086h.085c.222 0 .431 0 .539.127.064.075.084.188.06.343ZM4 4.101H2.772a.171.171 0 0 0-.169.145L2.107 7.41a.103.103 0 0 0 .1.119h.587a.17.17 0 0 0 .169-.145l.134-.853a.171.171 0 0 1 .168-.145h.389c.809 0 1.276-.393 1.398-1.173.055-.341.002-.61-.157-.797-.175-.206-.484-.315-.895-.315Zm2.851 2.292a.656.656 0 0 1-.663.564c-.171 0-.308-.055-.395-.16a.504.504 0 0 1-.092-.415.66.66 0 0 1 .659-.568c.167 0 .302.055.392.16.09.107.125.255.1.419Zm.82-1.15h-.588a.102.102 0 0 0-.101.086l-.026.165-.041-.06c-.128-.185-.411-.247-.695-.247-.65 0-1.204.494-1.313 1.188-.056.347.024.677.22.908.179.213.435.3.74.3.524 0 .814-.337.814-.337l-.026.164a.103.103 0 0 0 .101.119h.53a.171.171 0 0 0 .168-.144l.318-2.024a.103.103 0 0 0-.101-.118Z"/><path fill="#009CDE" d="M17.124 4.188 16.62 7.41a.102.102 0 0 0 .101.119h.507a.17.17 0 0 0 .168-.144l.497-3.165a.103.103 0 0 0-.1-.12h-.568a.103.103 0 0 0-.101.088Z"/></svg>