<svg xmlns="http://www.w3.org/2000/svg" width="20" height="12" fill="none" viewBox="0 0 20 12"><rect width="19" height="11" x=".5" y=".5" fill="#fff" stroke="#000" rx="1.5"/><path fill="#fff" d="M5.263 1.5h9.474v9H5.263z"/><path fill="#191919" d="M10 2.04 6.05 4.41a.343.343 0 0 0-.158.395c.046.15.19.253.355.253h7.518c.165 0 .31-.103.355-.254a.344.344 0 0 0-.158-.395L10 2.04ZM7.528 4.354 10 2.871l2.48 1.483H7.527Zm-.242 4.149V5.83h.74v2.672h-.74ZM8.852 5.83v2.673h.74V5.83h-.74Zm1.566 0v2.673h.74V5.83h-.74Zm1.566 0v2.673h.74V5.83h-.74ZM5.876 9.614c0-.194.166-.351.37-.351h7.518c.204 0 .37.157.37.351a.361.361 0 0 1-.37.352H6.246a.361.361 0 0 1-.37-.352Z"/></svg>