<svg xmlns="http://www.w3.org/2000/svg" width="30" height="18" fill="none" viewBox="0 0 30 18"><rect width="29" height="17" x=".5" y=".5" fill="#fff" stroke="#000" rx="1.5"/><path fill="#2F292B" d="M11.382 8.297h.66v.127h-.484v.337h.484v.126h-.484v.464h.528v.126h-.66v-1.18h-.044Zm8.622 0h.176l-.572.548.616.632h-.176l-.528-.548-.044.043v.505h-.132V8.255h.132v.506l.528-.464Zm-1.848 1.18h-.132V8.255h.176c.22 0 .44.042.44.337 0 .169-.132.337-.308.337l.396.548h-.176l-.396-.548v.548Zm0-.632c.22 0 .352-.042.352-.21 0-.211-.132-.211-.308-.211h-.044v.421Zm-.747.042c0 .337-.308.632-.66.632-.352 0-.66-.295-.66-.632s.308-.632.66-.632c.352 0 .66.295.66.632Zm-1.188 0c0 .253.22.506.528.506.308 0 .527-.21.527-.506a.524.524 0 0 0-.527-.505c-.308 0-.528.21-.528.505Zm-3.168.59h-.132V8.382h-.307v-.127h.747v.127h-.308v1.095Zm1.232-.295.396-.969.396.97.352-.886h.132l-.484 1.265-.396-.97-.396.97-.484-1.265h.132l.352.885Zm-4.707-.969.968.97v-.928h.132V9.52l-.968-.97v.927h-.132V8.213Z"/><path fill="#F99528" d="M6.904 16.2h19.887c1.325 0 1.325-1.033 1.325-1.034v-6.72s-7.518 5.35-21.212 7.754Z"/><path fill="#001E2D" d="M26.295 4.757c0-.674-.484-1.054-1.32-1.054h-1.1v3.583h.748V5.853h.088l1.012 1.433h.924l-1.188-1.518c.528-.126.836-.463.836-1.01Zm-1.496.59h-.22V4.251h.22c.44 0 .704.169.704.548.044.337-.22.548-.704.548Z"/><path fill="#2F292B" d="M26.655 3.872h-.096v.312h.096v-.117l.097.117h.096l-.096-.117c.048-.039.048-.078.048-.117 0-.078-.048-.078-.145-.078Zm0 .04c.073 0 .075.077 0 .077v-.078Z"/><path fill="#2F292B" d="M26.383 4.04c0 .17.132.296.308.296s.308-.127.308-.295c0-.295-.258-.295-.308-.295-.176 0-.308.126-.308.295Zm.308.211c-.132 0-.22-.084-.22-.21 0-.127.088-.211.22-.211s.22.084.22.21c0 .085-.088.211-.22.211Z"/><path fill="#001E2D" d="M21.28 7.286h2.111v-.633h-1.363v-.969h1.275v-.59h-1.275v-.8h1.363v-.59H21.28v3.582ZM6.455 3.703h.748v3.583h-.748V3.703Zm-2.375 0h-1.1v3.583h1.055c.572 0 .968-.127 1.364-.422.44-.337.704-.843.704-1.39 0-1.054-.792-1.77-2.024-1.77Zm.879 2.698c-.22.21-.528.295-1.012.295h-.176v-2.36h.176c.484 0 .748.084 1.012.295.264.21.396.547.396.885 0 .295-.132.674-.396.885Zm4.047-1.349c-.44-.168-.572-.253-.572-.463 0-.211.22-.38.528-.38.22 0 .396.085.572.295l.396-.463a1.735 1.735 0 0 0-1.1-.38c-.66 0-1.188.422-1.188 1.012 0 .506.22.758.924.97.308.083.44.168.528.21.132.084.22.21.22.38 0 .294-.264.505-.572.505-.352 0-.616-.169-.792-.464l-.484.422c.352.463.748.674 1.32.674.748 0 1.276-.506 1.276-1.18 0-.59-.264-.843-1.056-1.138Z"/><path fill="url(#a)" d="M15.473 3.62c-1.1 0-2.024.842-2.024 1.854 0 1.095.88 1.896 2.024 1.896 1.1 0 1.98-.843 1.98-1.896.044-1.054-.836-1.855-1.98-1.855Z"/><path fill="#001E2D" d="m19.168 6.106-1.012-2.403h-.791l1.583 3.667h.396l1.628-3.667h-.792l-1.012 2.403Zm-8.886-.632c0 1.053.88 1.896 1.98 1.896.307 0 .571-.042.923-.21v-.844c-.308.295-.572.38-.88.38-.747 0-1.275-.506-1.275-1.222 0-.675.528-1.223 1.232-1.223.351 0 .615.127.923.422V3.83c-.308-.169-.572-.21-.924-.21-1.055 0-1.98.8-1.98 1.854Z"/><defs><radialGradient id="a" cx="0" cy="0" r="1" gradientTransform="matrix(2.04383 0 0 1.91417 15.49 5.484)" gradientUnits="userSpaceOnUse"><stop offset=".006" stop-color="#FFF0E5"/><stop offset=".111" stop-color="#FFECDC"/><stop offset=".283" stop-color="#FEE0C4"/><stop offset=".501" stop-color="#FCCC9C"/><stop offset=".753" stop-color="#FAB165"/><stop offset="1" stop-color="#F79329"/></radialGradient></defs></svg>