<svg xmlns="http://www.w3.org/2000/svg" width="20" height="12" fill="none" viewBox="0 0 20 12"><rect width="19" height="11" x=".5" y=".5" fill="#fff" stroke="#000" rx="1.5"/><path fill="#005294" d="m17.8 5.032-.796 1.396-.155-1.396h-.68l.365 2.024-.44.759h.631l.44-.805 1.256-1.978h-.62Zm-14.832.047a1.12 1.12 0 0 1 .368-.065c.457 0 .829.296.661 1.036-.149.656-.582.988-1.028 1.058a.934.934 0 0 1-.186.015c-.31 0-.51-.125-.586-.298l-.223.993h-.395l.553-2.444a4 4 0 0 0 .043-.238l.015-.09h.405l-.068.332a1.02 1.02 0 0 1 .44-.3Zm.304 1.572c.197-.195.281-.481.313-.625.081-.357.052-.734-.418-.734a.79.79 0 0 0-.2.024c-.469.117-.585.635-.62.793-.056.24-.13.737.43.737a.676.676 0 0 0 .495-.195Zm9.942-1.658a.981.981 0 0 0-.444.1.855.855 0 0 0-.284.229l.048-.29h-.608l-.563 2.481-.068.308h.64l.227-1.006c.04.067.152.26.54.26h.068c.583-.037.984-.528 1.107-1.077.14-.615-.107-1.005-.663-1.005Zm.023 1.03c-.075.329-.243.573-.467.642a.442.442 0 0 1-.143.022c-.462 0-.353-.512-.323-.627.087-.4.284-.583.465-.653a.518.518 0 0 1 .18-.034c.372 0 .342.413.288.65Zm-2.961.814c.066 0 .133-.01.197-.028a.578.578 0 0 0 .394-.39h.401a.159.159 0 0 0-.002.007c-.036.1-.092.26-.275.413a1.11 1.11 0 0 1-.518.244 1.524 1.524 0 0 1-.275.025c-.346 0-.576-.107-.696-.299-.11-.177-.126-.426-.058-.725a1.91 1.91 0 0 1 .058-.21c.097-.302.262-.554.573-.732.122-.07.258-.115.399-.134.07-.01.142-.015.213-.015.388 0 .586.131.677.311.128.247.051.589 0 .786l-.002.015a.058.058 0 0 0-.001.01H9.832c-.103.414.01.722.444.722Zm.343-1.576a.59.59 0 0 0-.146.015c-.23.05-.477.214-.566.576h1.104c.048-.192.1-.591-.392-.591Zm-4.422.177c.071.194.056.42.013.606-.003.018-.006.037-.014.057-.13.487-.495.896-1.051.994a1.657 1.657 0 0 1-.252.018c-.705 0-.945-.457-.812-1.042.1-.442.411-.95 1.064-1.058.081-.014.169-.02.26-.02.478 0 .705.198.792.445ZM5.145 6.813c.263-.07.534-.3.644-.78.114-.5-.07-.765-.446-.766a.702.702 0 0 0-.198.03c-.242.064-.533.266-.643.75-.091.409.008.79.462.79a.752.752 0 0 0 .181-.024Zm2.227-1.817c-.492 0-.883.24-.967.61-.094.417.259.502.682.593.304.067.443.104.401.299a.389.389 0 0 1-.113.189c-.107.1-.237.128-.401.128-.386 0-.421-.21-.386-.363h-.417a.527.527 0 0 0 .025.375c.105.197.366.276.657.276.221 0 .455-.03.664-.137a.795.795 0 0 0 .402-.509c.029-.128.02-.265-.078-.368-.1-.11-.22-.143-.78-.274-.103-.028-.285-.073-.243-.257.065-.286.437-.286.495-.286.146 0 .421.024.34.326h.404a.579.579 0 0 0 .013-.29c-.073-.239-.43-.312-.698-.312m7.574.006c.113-.02.222-.027.32-.027.178 0 .55.025.705.258.11.161.059.402.039.494l-.182.807a2.588 2.588 0 0 0-.064.512h-.566c.004-.092.017-.184.038-.274a1.11 1.11 0 0 1-.291.226c-.187.097-.339.097-.42.097-.311 0-.43-.082-.499-.16a.504.504 0 0 1-.087-.442c.036-.162.161-.455.596-.625a1.65 1.65 0 0 1 .41-.092c.18-.021.348-.021.464-.021.029-.131.042-.195.032-.265-.022-.15-.184-.168-.243-.168a.364.364 0 0 0-.252.1l-.01.01a.315.315 0 0 0-.087.18h-.615a.736.736 0 0 1 .35-.476 1.2 1.2 0 0 1 .362-.134Zm-.001 1.685a.5.5 0 0 0 .156-.091c.138-.128.18-.284.23-.497a1.216 1.216 0 0 0-.386.024c-.204.044-.346.147-.379.302-.031.134.033.287.24.287a.408.408 0 0 0 .139-.025ZM8.787 6.51l.271-1.197h.476l.062-.277H9.12l.123-.536-.424.119-.093.417H8.35l-.065.277h.38l-.302 1.335c-.074.327.074.427.44.427.146 0 .263-.012.338-.022l.064-.292a1.209 1.209 0 0 1-.194.018c-.286 0-.247-.168-.224-.268Z"/></svg>