<svg xmlns="http://www.w3.org/2000/svg" width="38" height="24" fill="none" viewBox="0 0 38 24"><rect width="37" height="23" x=".5" y=".5" fill="#fff" stroke="#000" rx="1.5"/><path fill="#009CDE" d="M24.513 10.512c-.127.886-.767.886-1.386.886h-.352l.247-1.654a.198.198 0 0 1 .192-.174h.16c.422 0 .82 0 1.025.254.123.152.16.377.114.688Zm-.27-2.311H21.91a.33.33 0 0 0-.32.29l-.944 6.328c-.018.125.073.238.192.238h1.198a.231.231 0 0 0 .223-.203l.268-1.794a.33.33 0 0 1 .32-.29h.74c1.536 0 2.423-.786 2.655-2.345.104-.682.005-1.219-.298-1.594-.331-.413-.92-.63-1.7-.63Z"/><path fill="#003087" d="M20.526 10.484h-1.123a.32.32 0 0 0-.268.15l-1.55 2.413-.657-2.319a.327.327 0 0 0-.31-.244h-1.104c-.133 0-.227.139-.185.272l1.237 3.84-1.163 1.735c-.09.137.002.325.16.325h1.122a.32.32 0 0 0 .266-.148l3.735-5.701c.09-.137-.003-.323-.16-.323Z"/><path fill="#009CDE" d="M29.661 12.784c-.108.676-.615 1.129-1.261 1.129-.324 0-.584-.11-.75-.319-.165-.207-.228-.502-.175-.83.1-.67.615-1.137 1.252-1.137.317 0 .575.11.745.322.17.212.238.509.19.835Zm1.557-2.3h-1.117a.198.198 0 0 0-.192.174l-.049.33-.078-.12c-.242-.372-.781-.495-1.32-.495-1.235 0-2.29.989-2.494 2.377-.107.692.045 1.354.416 1.816.34.424.828.6 1.407.6.995 0 1.547-.676 1.547-.676l-.05.329c-.019.125.073.238.192.238h1.007a.33.33 0 0 0 .32-.29l.604-4.045c.018-.126-.073-.238-.193-.238Z"/><path fill="#003087" d="M7.87 10.512c-.128.886-.768.886-1.387.886h-.352l.247-1.654a.199.199 0 0 1 .192-.174h.162c.42 0 .819 0 1.024.254.122.152.16.377.113.688ZM7.6 8.2H5.267a.33.33 0 0 0-.32.29l-.945 6.328c-.018.125.073.238.193.238h1.114a.33.33 0 0 0 .32-.29l.255-1.707a.33.33 0 0 1 .32-.29h.738c1.537 0 2.424-.786 2.657-2.345.104-.682.004-1.218-.298-1.594-.332-.412-.92-.63-1.7-.63Zm5.418 4.584c-.108.676-.615 1.129-1.262 1.129-.324 0-.583-.11-.75-.319-.165-.207-.228-.502-.175-.83.1-.67.616-1.137 1.253-1.137.317 0 .574.11.745.322.17.212.238.509.189.835Zm1.556-2.3h-1.117a.198.198 0 0 0-.192.174l-.049.33-.078-.12c-.242-.372-.781-.495-1.32-.495-1.234 0-2.289.989-2.494 2.377-.107.692.045 1.354.416 1.816.34.424.828.6 1.407.6.995 0 1.547-.676 1.547-.676l-.05.329c-.018.125.073.238.192.238h1.007a.33.33 0 0 0 .32-.29l.604-4.045c.018-.126-.073-.238-.192-.238Z"/><path fill="#009CDE" d="m32.535 8.374-.957 6.445c-.02.124.072.237.192.237h.963a.33.33 0 0 0 .32-.289l.945-6.329c.018-.125-.073-.238-.192-.238h-1.079a.199.199 0 0 0-.192.174Z"/></svg>