<svg xmlns="http://www.w3.org/2000/svg" width="50" height="32" fill="none" viewBox="0 0 50 32"><rect width="49" height="31" x=".5" y=".5" fill="#fff" stroke="#000" rx="3.5"/><path fill="url(#a)" d="M48.37 32H1.63c-.9-.003-1.627-.75-1.63-1.674V1.674C0 .753.733 0 1.63 0h46.74C49.267 0 50 .753 50 1.674v28.652c0 .921-.733 1.674-1.63 1.674Z"/><path fill="#E59331" d="M39.408 20.723h2.873v5.316h-2.873v-5.316Z"/><path fill="#CF4C3C" d="M39.591 23.38a3.384 3.384 0 0 1 1.264-2.657 3.242 3.242 0 0 0-4.625.565c-1.122 1.469-.876 3.593.55 4.75a3.236 3.236 0 0 0 4.075 0 3.388 3.388 0 0 1-1.264-2.657Z"/><path fill="#EDB837" d="M46.193 23.38c0 .9-.347 1.762-.966 2.398a3.256 3.256 0 0 1-2.334.993c-.74 0-1.46-.258-2.038-.732a3.425 3.425 0 0 0 1.252-2.658 3.425 3.425 0 0 0-1.252-2.659 3.242 3.242 0 0 1 4.625.566 3.41 3.41 0 0 1 .713 2.093Z"/><path fill="#264186" d="M38 29.001h11v2H38z"/><path fill="#D5D0C7" d="M10.9 15.76H6.418c-.57 0-1.019-.46-1.019-1.048v-2.846c0-.586.448-1.046 1.019-1.046H10.9c.57 0 1.018.46 1.018 1.046v2.846c0 .587-.447 1.047-1.018 1.047Z"/><path stroke="#968A81" stroke-width=".15" d="M11.797 12.557H9.983s-.408.607 0 1.528c0 0-.468.732.061 1.591"/><path fill="#968A81" d="M9.983 14.043h1.793v.21H9.983v-.21ZM7.395 15.78l-.082-.041c.448-.942.102-1.591.102-1.591v-.042c.184-1.11-.02-1.528-.02-1.528v-.042c.326-1.046-.082-1.612-.082-1.612l.082-.063c.02.02.428.607.102 1.695.041.104.183.544.02 1.549.042.127.306.776-.122 1.676Z"/><path fill="#968A81" d="M7.844 11.302h1.63v.209h-1.63v-.21Zm-.332 1.31-1.895.02.002.209 1.895-.018-.002-.21Zm.001 1.55-1.895.02.002.209 1.895-.02-.002-.21Zm1.96 1.054H7.845v.209h1.63v-.21Z"/><path fill="#B4C5A5" d="M6.418 15.864H10.9c.632 0 1.12-.523 1.12-1.151v-2.846c0-.629-.509-1.152-1.12-1.152H6.418c-.612 0-1.12.524-1.12 1.152v2.846c.005.633.503 1.145 1.12 1.15Zm-.65-4.665a.902.902 0 0 1 .65-.274H10.9a.907.907 0 0 1 .65.274.953.953 0 0 1 .267.668v2.846c0 .25-.095.49-.268.667a.902.902 0 0 1-.649.275H6.418a.926.926 0 0 1-.917-.942v-2.846a.956.956 0 0 1 .267-.668Z"/><path fill="#83FFEC" d="M3.565 6.488c0-1.424.897-1.884 1.976-1.884 1.447 0 1.854 1.004 1.853 1.655v.418H4.36c0 .67.488 1.13 1.161 1.13.836 0 .999-.607.999-.607h.795s-.102 1.11-1.752 1.11c-1.385 0-1.997-.713-1.997-1.822Zm3.015-.357c0-.607-.427-1.004-1.08-1.004-.55 0-1.12.377-1.12 1.004h2.2Z"/><path fill="#83FFEC" d="M7.395 7.596V3.222h.754V5.19s.326-.586 1.385-.586c1.12 0 1.793.817 1.793 1.842 0 1.09-.713 1.863-1.793 1.863-1.018 0-1.385-.607-1.385-.607 0 .23-.02.481-.02.481h-.754s.02-.335.02-.586Zm3.138-1.15c0-.733-.449-1.298-1.182-1.298-.815 0-1.18.67-1.202 1.298 0 .691.428 1.32 1.202 1.32.652 0 1.182-.525 1.182-1.32Z"/><path fill="#83FFEC" d="M11.532 5.65c0-.146.102-1.046 1.711-1.046.774 0 1.65.23 1.672 1.338v1.716c0 .188.02.502.02.502h-.713s-.02-.25-.02-.502c0 0-.368.65-1.488.65-.836 0-1.447-.399-1.447-1.152 0-.753.672-1.13 1.915-1.13h.937V5.86c0-.48-.408-.732-.937-.732-.815 0-.856.523-.856.523h-.794Zm2.588 1.11v-.23c-1.223 0-2.038.02-2.038.627 0 .335.244.628.815.628 1.04 0 1.223-.733 1.223-1.026Z"/><path fill="#83FFEC" d="M14.466 4.75h.896l1.304 2.68 1.304-2.68h.815l-2.363 4.751h-.856l.672-1.319-1.772-3.432Z"/><defs><linearGradient id="a" x1="49.942" x2="49.942" y1="32.011" y2=".053" gradientUnits="userSpaceOnUse"><stop stop-color="#243E83"/><stop offset="1" stop-color="#4573B9"/></linearGradient></defs></svg>