<svg xmlns="http://www.w3.org/2000/svg" width="20" height="12" fill="none" viewBox="0 0 20 12"><rect width="19" height="11" x=".5" y=".5" fill="#fff" stroke="#000" rx="1.5"/><path fill="#fff" d="M5.307 6.07c0-2.133 1.82-3.862 4.064-3.862 2.245 0 4.065 1.729 4.065 3.862 0 2.132-1.82 3.861-4.065 3.861-2.245.001-4.064-1.729-4.064-3.861Z"/><path fill="#004A98" d="M9.377 10c-2.33.01-4.247-1.782-4.247-3.965C5.13 3.649 7.046 2 9.377 2h1.092c2.302 0 4.402 1.648 4.402 4.035 0 2.182-2.1 3.965-4.402 3.965H9.377Zm.01-7.669c-2.129.001-3.854 1.64-3.854 3.663 0 2.022 1.725 3.66 3.854 3.66 2.128 0 3.854-1.638 3.855-3.66-.001-2.023-1.727-3.662-3.855-3.663ZM8.512 8.16V3.828c-.916.335-1.565 1.177-1.568 2.166.002.988.651 1.83 1.568 2.165Zm3.318-2.166c-.002-.989-.652-1.832-1.57-2.166V8.16c.918-.335 1.568-1.177 1.57-2.167Z"/></svg>