<svg xmlns="http://www.w3.org/2000/svg" width="38" height="24" fill="none" viewBox="0 0 38 24"><rect width="37" height="23" x=".5" y=".5" fill="#fff" stroke="#000" rx="1.5"/><path fill="#0054A5" d="M5.61 17.334h.302V16.2H5.61v1.134ZM20.298 16.2h.32l.272.805.266-.805h.31l-.399 1.091-.073.2a.803.803 0 0 1-.075.151.326.326 0 0 1-.197.137.593.593 0 0 1-.154.018.8.8 0 0 1-.17-.018l-.028-.236a.66.66 0 0 0 .128.014c.07 0 .122-.02.155-.062a.436.436 0 0 0 .078-.158l-.433-1.137Zm-6.308 1.134v-.17a.448.448 0 0 1-.164.144.45.45 0 0 1-.419.003.297.297 0 0 1-.132-.14.631.631 0 0 1-.04-.252v-.72h.301v.522c0 .16.005.258.017.294a.16.16 0 0 0 .06.085c.03.021.066.032.111.032a.236.236 0 0 0 .221-.147c.015-.042.023-.144.023-.306v-.48h.301v1.135h-.28Zm19.65-.544c-.039.013-.1.029-.183.046a.548.548 0 0 0-.163.053.126.126 0 0 0-.058.106c0 .042.015.079.047.11.03.03.07.046.119.046a.259.259 0 0 0 .154-.054.189.189 0 0 0 .072-.1.598.598 0 0 0 .012-.147v-.06Zm-.404-.245-.27-.05a.425.425 0 0 1 .157-.244c.075-.053.187-.08.334-.08.134 0 .234.017.3.049a.298.298 0 0 1 .138.12.64.64 0 0 1 .04.27l-.003.35c0 .1.005.174.014.222.01.047.028.098.054.152h-.298a1.044 1.044 0 0 1-.04-.122.541.541 0 0 1-.164.112.47.47 0 0 1-.187.038.386.386 0 0 1-.276-.095.317.317 0 0 1-.1-.241.33.33 0 0 1 .045-.172.3.3 0 0 1 .129-.116 1.02 1.02 0 0 1 .239-.07c.14-.026.238-.05.292-.074v-.03c0-.058-.015-.1-.043-.125-.029-.025-.083-.037-.163-.037a.216.216 0 0 0-.125.031.219.219 0 0 0-.073.112Zm-.829.127c-.002-.088-.024-.155-.067-.201a.207.207 0 0 0-.157-.07.208.208 0 0 0-.164.073.283.283 0 0 0-.063.198h.451Zm-.015.305.298.05a.49.49 0 0 1-.183.25.539.539 0 0 1-.312.085c-.198 0-.345-.065-.44-.194a.651.651 0 0 1-.112-.393c0-.188.05-.336.148-.443a.486.486 0 0 1 .374-.16c.169 0 .302.056.4.168.098.112.145.284.14.515h-.754c.002.09.026.159.073.209a.23.23 0 0 0 .175.074.187.187 0 0 0 .12-.038.236.236 0 0 0 .073-.123Zm-5.282.037.301-.047a.22.22 0 0 0 .078.132c.039.03.094.045.164.045a.295.295 0 0 0 .175-.043.097.097 0 0 0 .04-.08.079.079 0 0 0-.022-.057.241.241 0 0 0-.1-.04c-.244-.054-.399-.103-.464-.147a.292.292 0 0 1-.135-.256c0-.099.039-.181.117-.248.078-.067.2-.101.363-.101.156 0 .272.025.348.075.076.05.128.125.157.223l-.283.053a.175.175 0 0 0-.07-.101.258.258 0 0 0-.146-.036.33.33 0 0 0-.172.034.071.071 0 0 0-.034.06c0 .022.01.04.03.056.027.02.12.048.281.085.16.036.273.081.337.134a.28.28 0 0 1 .094.225.345.345 0 0 1-.13.27c-.087.074-.216.112-.386.112a.636.636 0 0 1-.367-.094.432.432 0 0 1-.176-.254m-2.698-.342c-.003-.088-.025-.155-.068-.201a.206.206 0 0 0-.157-.07.208.208 0 0 0-.163.073.283.283 0 0 0-.064.198h.451Zm-.016.305.298.05a.49.49 0 0 1-.182.25.54.54 0 0 1-.313.085c-.198 0-.344-.065-.44-.194a.651.651 0 0 1-.112-.393c0-.188.05-.336.148-.443a.486.486 0 0 1 .374-.16.5.5 0 0 1 .4.168c.098.112.145.284.14.515h-.754c.002.09.026.159.073.209a.23.23 0 0 0 .175.074.186.186 0 0 0 .12-.038.234.234 0 0 0 .073-.123Zm-2.694-.777h.276v.155a.445.445 0 0 1 .355-.183c.073 0 .136.015.19.045.053.03.097.075.131.136a.528.528 0 0 1 .162-.136.397.397 0 0 1 .185-.045c.083 0 .154.017.212.05a.31.31 0 0 1 .13.15.65.65 0 0 1 .03.235v.727h-.301v-.65c0-.112-.01-.185-.03-.218-.029-.043-.071-.064-.129-.064a.204.204 0 0 0-.119.038.214.214 0 0 0-.08.113.812.812 0 0 0-.024.235v.546h-.302v-.623a.86.86 0 0 0-.016-.214.136.136 0 0 0-.05-.072.156.156 0 0 0-.09-.023.206.206 0 0 0-.204.145.806.806 0 0 0-.025.235v.552h-.301V16.2Zm-1.915.59c-.039.013-.1.029-.182.046a.548.548 0 0 0-.163.053.126.126 0 0 0-.059.106c0 .042.015.079.047.11.031.03.07.046.12.046a.26.26 0 0 0 .154-.054.19.19 0 0 0 .071-.1.605.605 0 0 0 .012-.147v-.06Zm-.404-.245-.27-.05a.424.424 0 0 1 .158-.244c.075-.053.186-.08.333-.08.134 0 .234.017.3.049a.298.298 0 0 1 .138.12c.027.05.04.139.04.27l-.003.35c0 .1.005.174.014.222.01.047.028.098.054.152h-.298a1.044 1.044 0 0 1-.04-.122.542.542 0 0 1-.164.112.47.47 0 0 1-.187.038.385.385 0 0 1-.276-.095.317.317 0 0 1-.1-.241.33.33 0 0 1 .045-.172.301.301 0 0 1 .13-.116c.054-.026.134-.05.238-.07.14-.026.238-.05.292-.074v-.03c0-.058-.014-.1-.043-.125-.029-.025-.083-.037-.162-.037a.216.216 0 0 0-.126.031.22.22 0 0 0-.073.112Zm-3.587.222c0 .113.026.2.08.26.054.06.12.09.198.09.079 0 .145-.03.198-.09.053-.06.08-.148.08-.262a.378.378 0 0 0-.08-.258.254.254 0 0 0-.198-.09.256.256 0 0 0-.198.09c-.054.06-.08.147-.08.26Zm-.308-.016c0-.1.024-.197.074-.29a.508.508 0 0 1 .209-.215c.09-.05.19-.074.302-.074a.566.566 0 0 1 .586.592.587.587 0 0 1-.166.428.56.56 0 0 1-.418.17.656.656 0 0 1-.298-.07.483.483 0 0 1-.215-.208.693.693 0 0 1-.074-.333Zm-5.05-.079a.294.294 0 0 0-.068-.201.207.207 0 0 0-.157-.07.209.209 0 0 0-.163.073.283.283 0 0 0-.063.198h.451Zm-.016.305.299.05a.49.49 0 0 1-.183.25.54.54 0 0 1-.312.085c-.198 0-.345-.065-.44-.194a.652.652 0 0 1-.112-.393c0-.188.049-.336.147-.443a.487.487 0 0 1 .374-.16.5.5 0 0 1 .4.168c.099.112.146.284.141.515h-.755c.002.09.027.159.074.209a.23.23 0 0 0 .174.074.187.187 0 0 0 .12-.038.236.236 0 0 0 .073-.123Zm-2.494-.235c0 .121.023.21.07.265a.214.214 0 0 0 .17.085.235.235 0 0 0 .185-.087c.05-.057.075-.142.075-.255 0-.118-.024-.205-.072-.262a.228.228 0 0 0-.182-.086.219.219 0 0 0-.177.084c-.046.056-.07.142-.07.256Zm-.27.666.341.038c.006.042.02.071.04.087.029.023.074.034.135.034a.352.352 0 0 0 .177-.035.146.146 0 0 0 .06-.076.457.457 0 0 0 .014-.138v-.166a.404.404 0 0 1-.338.182.418.418 0 0 1-.362-.194.659.659 0 0 1-.105-.38c0-.191.046-.337.138-.437a.443.443 0 0 1 .341-.151.42.42 0 0 1 .348.185V16.2h.28v1.02c0 .133-.012.233-.034.3a.373.373 0 0 1-.093.156.413.413 0 0 1-.16.089.842.842 0 0 1-.253.032c-.192 0-.329-.033-.41-.1a.313.313 0 0 1-.12-.252v-.037Zm23.444-.074H30.8v-1.135h.28v.162a.5.5 0 0 1 .13-.152.231.231 0 0 1 .129-.038c.068 0 .134.02.198.057l-.092.263a.266.266 0 0 0-.141-.05.168.168 0 0 0-.108.036c-.03.023-.052.065-.069.125a1.77 1.77 0 0 0-.025.38v.352Zm-5.051 0h-.301v-.58a.906.906 0 0 0-.02-.239.168.168 0 0 0-.062-.084.177.177 0 0 0-.104-.03.239.239 0 0 0-.139.043.216.216 0 0 0-.085.114.993.993 0 0 0-.022.26v.515h-.302V16.2h.28v.167a.453.453 0 0 1 .374-.195.45.45 0 0 1 .181.036.304.304 0 0 1 .125.092.33.33 0 0 1 .058.126.944.944 0 0 1 .017.202v.707Zm-11.12 0h-.3v-1.135h.279v.162a.5.5 0 0 1 .129-.152.231.231 0 0 1 .13-.038c.068 0 .134.02.197.057l-.091.263a.266.266 0 0 0-.142-.05.168.168 0 0 0-.107.036c-.03.023-.053.065-.07.125-.016.06-.024.188-.024.38v.352Zm-7.613 0h-.301v-.58a.903.903 0 0 0-.02-.239.167.167 0 0 0-.061-.084.178.178 0 0 0-.104-.03.239.239 0 0 0-.14.043.215.215 0 0 0-.084.114.987.987 0 0 0-.023.26v.515h-.301V16.2h.28v.167a.452.452 0 0 1 .373-.195c.066 0 .127.012.182.036a.305.305 0 0 1 .124.092.332.332 0 0 1 .059.126.942.942 0 0 1 .016.202v.707ZM26.94 16.2v.239h-.205v.459c0 .093.002.147.006.162a.066.066 0 0 0 .026.038c.014.01.03.015.05.015.027 0 .067-.01.118-.029l.027.233a.592.592 0 0 1-.236.045.374.374 0 0 1-.146-.027.213.213 0 0 1-.095-.071.28.28 0 0 1-.042-.117 1.482 1.482 0 0 1-.01-.212v-.496h-.136v-.24h.137v-.226l.301-.177v.404h.205Zm3.063.515-.219-.58-.211.58h.43Zm.581.619h-.34l-.136-.355h-.631l-.13.355h-.335l.607-1.566h.333l.632 1.566Zm-12.626-1.302v.447h.172a.81.81 0 0 0 .25-.025.207.207 0 0 0 .134-.2.205.205 0 0 0-.05-.142.218.218 0 0 0-.127-.07 1.5 1.5 0 0 0-.227-.01h-.152Zm-.317 1.302v-1.566h.507c.192 0 .318.007.376.023a.41.41 0 0 1 .225.153c.06.08.091.18.091.306a.511.511 0 0 1-.052.242.457.457 0 0 1-.297.229 1.809 1.809 0 0 1-.327.022h-.206v.59h-.317Zm-5.919 0v-1.566h1.16v.264h-.843v.348h.783v.264h-.783v.426h.873v.264h-1.19Zm-2.635 0h.302v-1.566h-.302v1.566Zm-3.477-1.29h.302v-.276H5.61v.276Zm-1.602.777.308-.03a.373.373 0 0 0 .112.227.34.34 0 0 0 .23.073c.101 0 .178-.021.23-.064a.193.193 0 0 0 .077-.152.144.144 0 0 0-.032-.095.26.26 0 0 0-.114-.068 4.029 4.029 0 0 0-.252-.068c-.17-.041-.288-.093-.356-.154a.406.406 0 0 1-.076-.537.424.424 0 0 1 .195-.159.785.785 0 0 1 .308-.054c.197 0 .345.043.444.13a.45.45 0 0 1 .156.345l-.316.013c-.014-.08-.043-.139-.087-.174a.322.322 0 0 0-.2-.053.36.36 0 0 0-.216.056.114.114 0 0 0-.05.098.12.12 0 0 0 .046.095c.04.033.137.068.29.104.154.036.268.074.342.113a.441.441 0 0 1 .173.16.47.47 0 0 1 .062.25.463.463 0 0 1-.286.427.886.886 0 0 1-.341.058c-.198 0-.35-.046-.457-.138a.602.602 0 0 1-.19-.403"/><path fill="#FEC10E" d="M16.642 8.153a2.9 2.9 0 0 1 2.256 1.076l.475-1.02a4.168 4.168 0 0 0-2.872-1.136c-1.738 0-3.225 1.05-3.835 2.536h-.927l-.547 1.173h1.192a4.023 4.023 0 0 0 .006.728h-.6l-.547 1.174h1.452c.627 1.449 2.096 2.465 3.806 2.465a4.18 4.18 0 0 0 2.325-.7v-1.438a2.905 2.905 0 0 1-4.615-.327h3.039l.547-1.174h-4.034a2.968 2.968 0 0 1-.017-.728h4.39l.548-1.173h-4.558a2.907 2.907 0 0 1 2.516-1.456"/><path fill="#0054A5" d="M10.663 9.614H8.611c0-.336-.04-.562-.118-.677-.122-.17-.46-.256-1.01-.256-.537 0-.892.05-1.065.147-.173.099-.26.313-.26.643 0 .298.077.494.23.588a.96.96 0 0 0 .438.118l.414.03c.887.058 1.44.1 1.662.124.701.07 1.21.257 1.525.559.248.236.396.544.444.925.027.227.041.485.041.771 0 .66-.063 1.143-.189 1.45-.228.561-.742.916-1.54 1.065-.335.063-.847.095-1.535.095-1.15 0-1.95-.069-2.402-.206-.555-.169-.921-.51-1.098-1.024-.1-.286-.148-.762-.148-1.429h2.052v.17c0 .356.103.585.307.687.141.07.312.107.513.112h.754c.385 0 .63-.02.737-.06a.6.6 0 0 0 .371-.358 1.37 1.37 0 0 0 .047-.395c0-.36-.131-.58-.394-.659-.099-.031-.556-.074-1.373-.13a16.468 16.468 0 0 1-1.366-.135c-.672-.126-1.12-.384-1.343-.776-.197-.334-.295-.838-.295-1.513 0-.514.053-.926.16-1.236.105-.31.277-.545.513-.706.346-.247.788-.392 1.327-.435.448-.04.946-.06 1.493-.06.861 0 1.475.05 1.84.148.894.24 1.34.912 1.34 2.016 0 .091-.007.227-.02.407m8.207-.363a2.862 2.862 0 0 0-2.228-1.062c-.999 0-1.934.529-2.454 1.385h4.552l-.024.05-.547 1.173-.01.02h-4.381a2.942 2.942 0 0 0 .016.658h4.059l-.024.05-.547 1.174-.01.02h-2.994a2.867 2.867 0 0 0 4.522.269l.062-.07v1.551l-.015.01a4.212 4.212 0 0 1-2.345.706c-1.67 0-3.17-.967-3.83-2.466h-1.483l.023-.05.548-1.173.01-.02h.58a4.04 4.04 0 0 1-.005-.658h-1.208l.023-.05.547-1.174.01-.02h.926a4.09 4.09 0 0 1 1.498-1.82 4.207 4.207 0 0 1 2.36-.716c1.086 0 2.115.407 2.897 1.146l.018.017-.01.023-.476 1.02-.024.05-.035-.043Zm-.241.393h-4.564l.03-.053a2.956 2.956 0 0 1 2.547-1.473c.87 0 1.686.38 2.248 1.046l-.024.05.06-.007a3.455 3.455 0 0 0-.036-.043l.44-.947.019.018-.008-.04-.01.022A4.125 4.125 0 0 0 16.5 7.11c-.834 0-1.636.243-2.32.704a4.022 4.022 0 0 0-1.482 1.81l-.009.021h-.929l.01-.02-.032.02h.022l-.514 1.103h-.055l.032.05.023-.05h1.176l-.003.039a3.948 3.948 0 0 0 .005.72l.004.04h-.616l.01-.02-.032.02h.022l-.514 1.103h-.056l.032.05.024-.05h1.42l.01.021c.642 1.485 2.124 2.444 3.773 2.444.821 0 1.612-.236 2.29-.683v.019l.015-.03-.015.011v-1.329l.061-.068-.061-.023v.091a2.936 2.936 0 0 1-4.61-.399l-.036-.054h3.083l-.01.02.032-.02h-.022l.514-1.103h.056l-.032-.05-.024.05h-4.009l-.005-.03a3.017 3.017 0 0 1-.017-.737l.003-.032h4.4l-.009.02.032-.02h-.023l.515-1.103Zm3.263 1.535h1.376c.436-.016.7-.05.796-.102.13-.072.218-.215.262-.43.027-.144.041-.357.041-.64 0-.346-.027-.603-.083-.771-.08-.235-.27-.378-.57-.43a4.465 4.465 0 0 0-.428-.012h-1.394v2.385Zm-2.205 4.017V7h4.11c.563 0 .993.046 1.289.138.676.212 1.129.645 1.361 1.3.12.345.18.863.18 1.554 0 .831-.066 1.429-.198 1.792-.263.72-.806 1.134-1.625 1.241-.097.017-.507.031-1.23.043l-.366.012h-1.316v2.116h-2.205Zm11.211-3.013L29.864 8.63l-1.003 3.553h2.037Zm.438 1.596h-2.95l-.396 1.417h-2.282L28.171 7h3.327l2.492 8.196h-2.234l-.42-1.417Z"/></svg>