<svg viewBox="0 0 64 48" fill="none" xmlns="http://www.w3.org/2000/svg">
  <g clip-path="url(#clip0_704_43577)">
    <path d="M0 0H22V48H0V0Z" fill="#CE1126" />
    <path d="M22 0H64V24H22V0Z" fill="#FCD116" />
    <path d="M22 24H64V48H22V24Z" fill="#009E49" />
    <path d="M11 16L8.52786 23.6085L12.3321 24.8445" fill="black" />
    <path d="M11 16L13.4721 23.6085L9.66791 24.8445" fill="black" />
    <path d="M18.6082 21.5275H10.6082V25.5275" fill="black" />
    <path d="M18.6082 21.5275L12.136 26.2297L9.78488 22.9937" fill="black" />
    <path d="M15.7024 30.4722L13.2303 22.8637L9.42603 24.0998" fill="black" />
    <path d="M15.7024 30.4722L9.23026 25.7699L11.5814 22.5338" fill="black" />
    <path d="M6.29773 30.4722L12.7699 25.7699L10.4187 22.5338" fill="black" />
    <path d="M6.29773 30.4722L8.76987 22.8637L12.5741 24.0998" fill="black" />
    <path d="M3.39172 21.5282L9.86386 26.2305L12.215 22.9944" fill="black" />
    <path d="M3.39172 21.5282H11.3917V25.5282" fill="black" />
  </g>
  <defs>
    <clipPath id="clip0_704_43577">
      <rect width="64" height="48" fill="white" />
    </clipPath>
  </defs>
</svg>
