<?xml version="1.0" encoding="utf-8"?>
<svg xmlns="http://www.w3.org/2000/svg" xmlns:xlink="http://www.w3.org/1999/xlink">
    <symbol id="icon-add" viewBox="0 0 20 20"><path fill-rule="evenodd" d="M19 9h-8V1a1 1 0 0 0-2 0v8H1a1 1 0 0 0 0 2h8v8a1 1 0 0 0 2 0v-8h8a1 1 0 0 0 0-2z"></path></symbol>
    <symbol id="icon-add-small" viewBox="0 0 14 14"><path fill-rule="evenodd" d="M13 6H8V1a1 1 0 1 0-2 0v5H1a1 1 0 0 0 0 2h5v5a1 1 0 1 0 2 0V8h5a1 1 0 1 0 0-2z"></path></symbol>
    <symbol id="icon-arrow-left" viewBox="0 0 20 18"><path fill-rule="evenodd" d="M19.006 8.004H3.416l6.3-6.29a1.003 1.003 0 1 0-1.42-1.42l-8 8a1.001 1.001 0 0 0 0 1.42l8 8a1.001 1.001 0 0 0 1.42 0 1.001 1.001 0 0 0 0-1.42l-6.3-6.29h15.59a1 1 0 0 0 0-2z"></path></symbol>
    <symbol id="icon-arrow-left-small" viewBox="0 0 14 14"><path fill-rule="evenodd" d="M13 6.004H3.41l4.3-4.29A1.004 1.004 0 0 0 6.29.294l-6 6a1 1 0 0 0 0 1.41l6 6a1 1 0 0 0 1.41-1.41l-4.29-4.29H13a1 1 0 0 0 0-2z"></path></symbol>
    <symbol id="icon-arrow-move" viewBox="0 0 15 15"><path fill-rule="evenodd" d="M14.71 13.29L3.48 2H13a1 1 0 0 0 0-2H1a1 1 0 0 0-1 1v12a1 1 0 0 0 2 0V3.35l11.29 11.36A1 1 0 0 0 14 15a1 1 0 0 0 .71-1.71z"></path></symbol>
    <symbol id="icon-arrow-move-small" viewBox="0 0 11 11"><path fill-rule="evenodd" d="M10.71 9.29L3.41 2H9a1 1 0 1 0 0-2H1a1 1 0 0 0-1 1v8a1 1 0 1 0 2 0V3.41l7.29 7.29a1 1 0 0 0 1.41-1.41h.01z"></path></symbol>
    <symbol id="icon-arrow-right" viewBox="0 0 20 18"><path fill-rule="evenodd" d="M19.71 8.294l-8-8a1.004 1.004 0 0 0-1.42 1.42l6.3 6.29H1a1 1 0 0 0 0 2h15.59l-6.3 6.29a1.001 1.001 0 0 0 0 1.42 1.001 1.001 0 0 0 1.42 0l8-8a1.001 1.001 0 0 0 0-1.42z"></path></symbol>
    <symbol id="icon-arrow-right-small" viewBox="0 0 14 15"><path fill-rule="evenodd" d="M13.92 7.38a1 1 0 0 0-.22-1.09l-6-6a1 1 0 0 0-1.41 1.42L10.59 6H1a1 1 0 0 0 0 2h9.59l-4.3 4.29A1 1 0 1 0 7.7 13.7l6-6a1 1 0 0 0 .22-.32z"></path></symbol>
    <symbol id="icon-attention" viewBox="0 0 24 24"><path fill="#e62048" fill-rule="evenodd" d="M12 0C5.373 0 0 5.373 0 12s5.373 12 12 12 12-5.373 12-12C23.994 5.375 18.625.006 12 0zm0 18a1 1 0 1 1 0-2 1 1 0 0 1 0 2zm1-5V7a1 1 0 0 0-2 0v6a1 1 0 0 0 2 0z"></path></symbol>
    <symbol id="icon-attn" viewBox="0 0 24 24"><path fill-rule="evenodd" d="M0 12C0 5.373 5.373 0 12 0c6.625.006 11.994 5.375 12 12 0 6.627-5.373 12-12 12S0 18.627 0 12zm2 0c0 5.523 4.477 10 10 10 5.52-.006 9.994-4.48 10-10 0-5.523-4.477-10-10-10S2 6.477 2 12zm10-6a1 1 0 0 1 1 1v6a1 1 0 0 1-2 0V7a1 1 0 0 1 1-1zm1 11a1 1 0 1 1-2 0 1 1 0 0 1 2 0z"></path></symbol>
    <symbol id="icon-bids" viewBox="0 0 23 23"><path fill-rule="evenodd" d="M16.707 9.707l2-2a.998.998 0 0 0 0-1.414l-6-6a1 1 0 0 0-1.414 0l-11 11a.998.998 0 0 0 0 1.414l6 6a.999.999 0 0 0 1.414 0l3-3 .293-.293 7.293 7.293a1 1 0 0 0 1.414 0l3-3a.998.998 0 0 0 0-1.414L15.414 11l1.293-1.293zM20.586 19L19 20.586 12.414 14 14 12.414 20.586 19zM7 16.586L2.414 12 12 2.414 16.586 7l-1.293 1.293-2 2-3 3-1 1L7 16.586zM2 21h10a1 1 0 0 1 0 2H2a1 1 0 0 1 0-2z"></path></symbol>
    <symbol id="icon-camera" viewBox="0 0 24 20"><path fill-rule="evenodd" d="M24 4v15a1 1 0 0 1-1 1H1a1 1 0 0 1-1-1V4a.998.998 0 0 1 1-1h5.279L7.051.684A1 1 0 0 1 8 0h8a1 1 0 0 1 .949.684L17.721 3H23a.999.999 0 0 1 1 1zM2 5v13h20V5h-5a1 1 0 0 1-.949-.684L15.279 2H8.721l-.772 2.316A1 1 0 0 1 7 5H2zm10 1a5 5 0 1 0 5 5 5.006 5.006 0 0 0-5-5zm0 8a3 3 0 1 1 0-6 3 3 0 0 1 0 6z"></path></symbol>
    <symbol id="icon-camera-small" viewBox="0 0 16 14"><path fill-rule="nonzero" d="M10 0a1 1 0 0 1 .895.553L11.618 2H15a1 1 0 0 1 1 1v10a1 1 0 0 1-1 1H1a1 1 0 0 1-1-1V3a1 1 0 0 1 1-1h3.382L5.105.553A1 1 0 0 1 6 0zm-.618 2H6.618l-.723 1.447A1 1 0 0 1 5 4H2v8h12V4h-3a1 1 0 0 1-.895-.553L9.382 2zM8 6a2 2 0 1 1 0 4 2 2 0 0 1 0-4z"></path></symbol>
    <symbol id="icon-cart" viewBox="0 0 23 22"><path fill-rule="evenodd" d="M22 4a.999.999 0 0 1 .97 1.242l-2 8A1 1 0 0 1 20 14H7a1 1 0 0 1-.97-.758L3.22 2H1a1 1 0 1 1 0-2h3a1 1 0 0 1 .97.758L5.78 4H22zm-1.277 2H6.28l1.5 6h11.442l1.5-6zm-4.539 12A2.995 2.995 0 0 1 19 16a2.995 2.995 0 1 1-2.816 4h-5.368a3 3 0 1 1 0-2h5.368zM7 19a1 1 0 1 0 2 0 1 1 0 0 0-2 0zm12 1a1 1 0 1 1 0-2 1 1 0 0 1 0 2z"></path></symbol>
    <symbol id="icon-cart-small" viewBox="0 0 15 16"><path fill-rule="evenodd" d="M5.5 13a1.5 1.5 0 1 1 0 3 1.5 1.5 0 0 1 0-3zm7 0a1.5 1.5 0 1 1 0 3 1.5 1.5 0 0 1 0-3zM3 0a1 1 0 0 1 1 .78L4.47 3H14a1 1 0 0 1 1 1.16l-1 6a1 1 0 0 1-1 .84H5a1 1 0 0 1-1-.78L2.2 2H1a1 1 0 0 1 0-2zm9.82 5H4.91l.89 4h6.35l.67-4z"></path></symbol>
    <symbol id="icon-categories" viewBox="0 0 20 20"><path fill-rule="evenodd" d="M15.5 9a4.498 4.498 0 0 1-3.182-7.682A4.5 4.5 0 0 1 20 4.5 4.5 4.5 0 0 1 15.5 9zm1.768-6.268a2.5 2.5 0 1 0-3.535 3.536 2.5 2.5 0 0 0 3.535-3.536zM4.5 9a4.5 4.5 0 1 1 0-9 4.5 4.5 0 0 1 0 9zm0-7a2.5 2.5 0 1 0 0 5 2.5 2.5 0 0 0 0-5zM.343 17.222a4.5 4.5 0 1 0 .975-4.904 4.5 4.5 0 0 0-.975 4.904zM2 15.5a2.5 2.5 0 1 1 5 0 2.5 2.5 0 0 1-5 0zM15.5 20a4.498 4.498 0 0 1-3.182-7.682A4.5 4.5 0 0 1 20 15.5a4.5 4.5 0 0 1-4.5 4.5zm0-7a2.5 2.5 0 1 0 0 5 2.5 2.5 0 0 0 0-5z"></path></symbol>
    <symbol id="icon-checkbox-checked" viewBox="0 0 22 22"><path fill-rule="evenodd" d="M1 0h20a1 1 0 0 1 1 1v20a1 1 0 0 1-1 1H1a1 1 0 0 1-1-1V1a1 1 0 0 1 1-1zm7.3 15.71a1 1 0 0 0 1.41 0l8-8h-.01a1 1 0 0 0-1.41-1.41L9 13.59 5.71 10.3a1 1 0 0 0-1.41 1.41l4 4z"></path></symbol>
    <symbol id="icon-checkbox-checked-small" viewBox="0 0 14 14"><path fill-rule="nonzero" d="M13 0H1a1 1 0 0 0-1 1v12a1 1 0 0 0 1 1h12a1 1 0 0 0 1-1V1a1 1 0 0 0-1-1zm-2.29 5.71l-4 4a1 1 0 0 1-1.41 0l-2-2a1 1 0 0 1 1.41-1.42L6 7.59 9.29 4.3a1 1 0 0 1 1.41 1.41h.01z"></path></symbol>
    <symbol id="icon-checkbox-unchecked" viewBox="0 0 21 22"><path fill-rule="evenodd" d="M.955 0h19.09c.528 0 .955.448.955 1v20c0 .552-.427 1-.955 1H.955C.427 22 0 21.552 0 21V1c0-.552.427-1 .955-1zm.954 20h17.182V2H1.909v18z"></path></symbol>
    <symbol id="icon-checkbox-unchecked-small" viewBox="0 0 14 14"><path fill-rule="nonzero" d="M13 14H1a1 1 0 0 1-1-1V1a1 1 0 0 1 1-1h12a1 1 0 0 1 1 1v12a1 1 0 0 1-1 1zM2 12h10V2H2v10z"></path></symbol>
    <symbol id="icon-chevron-down" viewBox="0 0 18 10"><path fill-rule="evenodd" d="M9.004 10.004a1 1 0 0 1-.71-.29l-8-8a1.003 1.003 0 1 1 1.42-1.42l7.29 7.3 7.29-7.3a1.004 1.004 0 0 1 1.42 1.42l-8 8a1 1 0 0 1-.71.29z"></path></symbol>
    <symbol id="icon-chevron-down-small" viewBox="0 0 14 8"><path fill-rule="evenodd" d="M13.714.294a1 1 0 0 0-1.41 0l-5.3 5.3-5.29-5.3a1.004 1.004 0 0 0-1.42 1.42l6 6a1 1 0 0 0 1.41 0l6-6a1 1 0 0 0 .01-1.42z"></path></symbol>
    <symbol id="icon-chevron-left" viewBox="0 0 10 18"><path fill-rule="evenodd" d="M9.006 18.004a1.003 1.003 0 0 1-.71-.29l-8-8a1.001 1.001 0 0 1 0-1.42l8-8a1.004 1.004 0 0 1 1.42 1.42l-7.3 7.29 7.3 7.29a1.001 1.001 0 0 1-.71 1.71z"></path></symbol>
    <symbol id="icon-chevron-left-small" viewBox="0 0 8 14"><path fill-rule="evenodd" d="M7 13.94a1 1 0 0 1-.71-.29l-6-6a1 1 0 0 1 0-1.41l6-6A1 1 0 0 1 7.7 1.65L2.41 6.94l5.29 5.29a1 1 0 0 1-.7 1.71z"></path></symbol>
    <symbol id="icon-chevron-right" viewBox="0 0 10 18"><path fill-rule="evenodd" d="M1.006 18.004a1 1 0 0 1-.71-1.71l7.3-7.29-7.3-7.29a1.003 1.003 0 1 1 1.42-1.42l8 8a1.001 1.001 0 0 1 0 1.42l-8 8a1 1 0 0 1-.71.29z"></path></symbol>
    <symbol id="icon-chevron-right-small" viewBox="0 0 8 14"><path fill-rule="evenodd" d="M1.006 14.004a1 1 0 0 1-.71-1.71l5.3-5.29-5.3-5.29a1.004 1.004 0 0 1 1.42-1.42l6 6a1 1 0 0 1 0 1.41l-6 6a1 1 0 0 1-.71.3z"></path></symbol>
    <symbol id="icon-chevron-up" viewBox="0 0 18 10"><path fill-rule="evenodd" d="M17.004 10.006a1.003 1.003 0 0 1-.71-.29l-7.29-7.3-7.29 7.3a1.004 1.004 0 0 1-1.42-1.42l8-8a1.001 1.001 0 0 1 1.42 0l8 8a1.001 1.001 0 0 1-.71 1.71z"></path></symbol>
    <symbol id="icon-chevron-up-small" viewBox="0 0 14 8"><path fill-rule="evenodd" d="M12.94 7.99a1 1 0 0 1-.71-.29L6.94 2.4 1.65 7.7A1 1 0 0 1 .24 6.29l6-6a1 1 0 0 1 1.41 0l6 6a1 1 0 0 1-.71 1.7z"></path></symbol>
    <symbol id="icon-clear" viewBox="0 0 24 24"><path fill-rule="evenodd" d="M0 12C0 5.373 5.373 0 12 0c3.183 0 6.235 1.264 8.485 3.515A11.996 11.996 0 0 1 24 12c0 6.627-5.373 12-12 12S0 18.627 0 12zm17.968 5.233a.996.996 0 0 0-.32-.989l-4.277-4.27 4.267-4.272a.995.995 0 1 0-1.403-1.404l-4.267 4.272-4.267-4.281a.998.998 0 1 0-1.413 1.413l4.278 4.271-4.268 4.281a.995.995 0 1 0 1.403 1.404l4.267-4.281 4.278 4.27a.994.994 0 0 0 1.722-.414z"></path></symbol>
    <symbol id="icon-clear-small" viewBox="0 0 16 16"><path fill-rule="nonzero" d="M8 0a8 8 0 1 0 0 16A8 8 0 0 0 8 0zm3.71 10.29a1 1 0 1 1-1.41 1.41L8 9.41l-2.29 2.3A1 1 0 0 1 4.3 10.3L6.59 8l-2.3-2.29a1.004 1.004 0 0 1 1.42-1.42L8 6.59l2.29-2.29a1 1 0 0 1 1.41 1.41L9.41 8l2.3 2.29z"></path></symbol>
    <symbol id="icon-clock-small" viewBox="0 0 16 16"><path fill-rule="nonzero" d="M8 0a8 8 0 1 1 0 16A8 8 0 0 1 8 0zm0 2a6 6 0 1 0 0 12A6 6 0 0 0 8 2zm0 2a1 1 0 0 1 1 1v2.59l1.7 1.71a1 1 0 0 1-1.41 1.41l-2-2A1 1 0 0 1 7 8V5a1 1 0 0 1 1-1z"></path></symbol>
    <symbol id="icon-close" viewBox="0 0 18 18"><path fill-rule="evenodd" d="M10.416 9.004l7.3-7.29a1.004 1.004 0 0 0-1.42-1.42l-7.29 7.3-7.29-7.3a1.003 1.003 0 1 0-1.42 1.42l7.3 7.29-7.3 7.29a1.001 1.001 0 0 0 0 1.42 1.001 1.001 0 0 0 1.42 0l7.29-7.3 7.29 7.3a1.001 1.001 0 0 0 1.42 0 1.001 1.001 0 0 0 0-1.42l-7.3-7.29z"></path></symbol>
    <symbol id="icon-close-small" viewBox="0 0 14 15"><path fill-rule="evenodd" d="M8.47 7.004l5.29-5.29a1 1 0 0 0-1.41-1.41l-5.29 5.29-5.29-5.3a1.004 1.004 0 0 0-1.42 1.42l5.3 5.29-5.3 5.29a1 1 0 1 0 1.41 1.41l5.3-5.29 5.29 5.29a1 1 0 0 0 1.41-1.41l-5.29-5.29z"></path></symbol>
    <symbol id="icon-confirmation" viewBox="0 0 24 24"><path fill="#5ba71b" fill-rule="evenodd" d="M0 12C0 5.373 5.373 0 12 0c3.183 0 6.235 1.264 8.485 3.515A11.996 11.996 0 0 1 24 12c0 6.627-5.373 12-12 12S0 18.627 0 12zm10.71 4.71l8-8h-.01a1 1 0 0 0-1.41-1.41L10 14.59 6.71 11.3a1 1 0 0 0-1.41 1.41l4 4a1 1 0 0 0 1.41 0z"></path></symbol>
    <symbol id="icon-conf" viewBox="0 0 24 24"><path fill-rule="evenodd" d="M12 0C5.373 0 0 5.373 0 12s5.373 12 12 12 12-5.373 12-12c0-3.183-1.264-6.235-3.515-8.485A11.996 11.996 0 0 0 12 0zm0 22C6.477 22 2 17.523 2 12S6.477 2 12 2s10 4.477 10 10-4.477 10-10 10zm-2-7.41l7.29-7.3h.01a1 1 0 0 1 1.41 1.41l-8 8a1 1 0 0 1-1.41 0l-4-4a1 1 0 0 1 1.41-1.41l3.29 3.3z"></path></symbol>
    <symbol id="icon-confirmation-small" viewBox="0 0 16 16"><path fill="#5ba71b" fill-rule="nonzero" d="M8 0a8 8 0 1 0 0 16A8 8 0 0 0 8 0zm3.71 6.71l-4 4a1 1 0 0 1-1.41 0l-2-2a1 1 0 1 1 1.41-1.42L7 8.59l3.29-3.29a1 1 0 0 1 1.41 1.41h.01z"></path></symbol>
    <symbol id="icon-conf-small" viewBox="0 0 16 16"><path fill-rule="nonzero" d="M8 0a8 8 0 1 1 0 16A8 8 0 0 1 8 0zm0 2a6 6 0 1 0 0 12A6 6 0 0 0 8 2zm2.29 3.3a1 1 0 0 1 1.41 1.41l-4 4a1 1 0 0 1-1.41 0l-2-2a1.004 1.004 0 0 1 1.42-1.42L7 8.59l3.29-3.3z"></path></symbol>
    <symbol id="icon-deals" viewBox="0 0 18 24"><path fill-rule="evenodd" d="M8.996 23.993a1 1 0 0 1-1-1v-8h-7a.999.999 0 0 1-.85-1.52l8-13a1 1 0 0 1 1.85.52v8h7a1 1 0 0 1 .85 1.52l-8 13a1 1 0 0 1-.85.48zm-1-19.47l-5.21 8.47h6.21a1 1 0 0 1 1 1v5.47l5.21-8.47h-6.21a1 1 0 0 1-1-1v-5.47z"></path></symbol>
    <symbol id="icon-delete" viewBox="0 0 22 24"><path fill-rule="evenodd" d="M15.78 4H21a1 1 0 0 1 0 2h-.51L18.1 22.25a2 2 0 0 1-2 1.75H5.9a2 2 0 0 1-1.99-1.78L1.51 6H1a1 1 0 0 1 0-2h5.22l.43-1.73A3 3 0 0 1 9.56 0h2.88a3 3 0 0 1 2.91 2.27L15.78 4zM5.89 22h10.2l2.38-16H3.53l2.36 16zm2.7-19.24L8.28 4h5.44l-.25-1.24a1 1 0 0 0-1-.76H9.59a1 1 0 0 0-1 .76zM8 11v6a1 1 0 0 0 2 0v-6a1 1 0 0 0-2 0zm4 6v-6a1 1 0 0 1 2 0v6a1 1 0 0 1-2 0z"></path></symbol>
    <symbol id="icon-delete-small" viewBox="0 0 16 16"><path fill-rule="nonzero" d="M15 4h-3.22L11 .76A1 1 0 0 0 10 0H6a1 1 0 0 0-1 .76L4.22 4H1a1 1 0 0 0 0 2h1.1l.9 8.17A2 2 0 0 0 5 16h6a2 2 0 0 0 2-1.81L13.9 6H15a1 1 0 1 0 0-2zM6.78 2h2.44l.5 2H6.28l.5-2zM11 14H5l-.88-8h7.77L11 14z"></path></symbol>
    <symbol id="icon-download" viewBox="0 0 22 22"><path fill-rule="evenodd" d="M11.7 17.71a1 1 0 0 1-1.41 0L3.3 10.7a1 1 0 0 1 1.41-1.41l5.29 5.3V1a1 1 0 1 1 2 0v13.59l5.29-5.29a1 1 0 0 1 1.41 1.41l-7 7zM0 21a1 1 0 0 1 1-1h20a1 1 0 0 1 0 2H1a1 1 0 0 1-1-1z"></path></symbol>
    <symbol id="icon-edit" viewBox="0 0 22 22"><path fill-rule="evenodd" d="M15.206 1.166a3.98 3.98 0 1 1 5.628 5.628L6.976 20.653a.996.996 0 0 1-.51.272L1.192 21.98A.995.995 0 0 1 .02 20.81l1.055-5.277a.998.998 0 0 1 .272-.509L15.206 1.166zM16.613 8.2L5.356 19.46l-3.518.703.703-3.518L13.799 5.387l2.814 2.814zm2.814-5.628a1.99 1.99 0 0 0-2.814 0L15.206 3.98l2.814 2.814 1.407-1.407a1.99 1.99 0 0 0 0-2.814z"></path></symbol>
    <symbol id="icon-edit-small" viewBox="0 0 16 16"><path fill-rule="nonzero" d="M15.086.912a3.127 3.127 0 0 0-4.415 0L1.293 10.29a1.001 1.001 0 0 0-.263.465l-1 4a1 1 0 0 0 1.212 1.212l4-1c.176-.044.336-.135.465-.263l9.378-9.38a3.125 3.125 0 0 0 0-4.413zM13.67 2.326c.437.438.437 1.147 0 1.586L13 4.584l-1.586-1.586.672-.672a1.121 1.121 0 0 1 1.584 0zM4.488 13.094l-2.114.53.529-2.114L10 4.412l1.585 1.586-7.097 7.096z"></path></symbol>
    <symbol id="icon-event" viewBox="0 0 22 22"><path fill-rule="evenodd" d="M16 4.97h5a1 1 0 0 1 1 1v4a1 1 0 0 1-1 1h-1v10a1 1 0 0 1-1 1H3a1 1 0 0 1-1-1v-10H1a1 1 0 0 1-1-1v-4a1 1 0 0 1 1-1h5A3 3 0 0 1 6.1.85a3.07 3.07 0 0 1 4.24 0c.278.284.517.603.71.95.193-.347.432-.666.71-.95a3.07 3.07 0 0 1 4.24 0 3 3 0 0 1 0 4.12zm-1.522-2.658a1 1 0 0 0-1.358-.052A5.562 5.562 0 0 0 12 4.97a5.815 5.815 0 0 0 2.53-1.3 1 1 0 0 0-.052-1.358zM7.46 2.26a1 1 0 0 1 1.41 0A5.514 5.514 0 0 1 10 4.97a5.79 5.79 0 0 1-2.54-1.29.999.999 0 0 1 .01-1.42h-.01zM12 19.97h6v-9h-6v9zm-2 0H4v-9h6v9zm-8-11h18v-2H2v2z"></path></symbol>
    <symbol id="icon-fast-n-free" viewBox="0 0 22 17"><path fill-rule="evenodd" d="M20 12h-6V5h3.5L20 8.333V12zm1.8-4.6l-3-4A1 1 0 0 0 18 3h-4V1a1 1 0 0 0-1-1H1a1 1 0 1 0 0 2h11v10H1a1 1 0 1 0 0 2h20a1 1 0 0 0 1-1V8a1 1 0 0 0-.2-.6zM6 14a1 1 0 0 1-2 0H2c0 1.654 1.346 3 3 3s3-1.346 3-3H6zm11 0a1 1 0 0 1-2 0h-2c0 1.654 1.346 3 3 3s3-1.346 3-3h-2zM1 6a1 1 0 1 1 0-2h8a1 1 0 1 1 0 2H1zm0 4a1 1 0 1 1 0-2h6a1 1 0 1 1 0 2H1z"></path></symbol>
    <symbol id="icon-fast-n-free-small" viewBox="0 0 16 13"><path fill-rule="nonzero" d="M15.71 5.29l-2-2A1 1 0 0 0 13 3h-2V1a1 1 0 0 0-1-1H1a1 1 0 1 0 0 2h8v7H1a1 1 0 1 0 0 2 2 2 0 1 0 4 0h4a2 2 0 1 0 4 0h2a1 1 0 0 0 1-1V6a1 1 0 0 0-.29-.71zM12.59 5L14 6.41V9h-3V5h1.59zM5 4a1 1 0 1 1 0 2H1a1 1 0 1 1 0-2z"></path></symbol>
    <symbol id="icon-filter-gallery" viewBox="0 0 22 18"><path fill-rule="evenodd" d="M9 0H1a1 1 0 0 0-1 1v6a1 1 0 0 0 1 1h8a1 1 0 0 0 1-1V1a1 1 0 0 0-1-1zM8 6H2V2h6v4zm13-6h-8a1 1 0 0 0-1 1v6a1 1 0 0 0 1 1h8a1 1 0 0 0 1-1V1a1 1 0 0 0-1-1zm-1 6h-6V2h6v4zM1 10h8a1 1 0 0 1 1 1v6a1 1 0 0 1-1 1H1a1 1 0 0 1-1-1v-6a1 1 0 0 1 1-1zm1 6h6v-4H2v4zm19-6h-8a1 1 0 0 0-1 1v6a1 1 0 0 0 1 1h8a1 1 0 0 0 1-1v-6a1 1 0 0 0-1-1zm-1 6h-6v-4h6v4z"></path></symbol>
    <symbol id="icon-filter-gallery-small" viewBox="0 0 16 14"><path fill-rule="nonzero" d="M6 8a1 1 0 0 1 1 1v4a1 1 0 0 1-1 1H1a1 1 0 0 1-1-1V9a1 1 0 0 1 1-1h5zm9 0a1 1 0 0 1 1 1v4a1 1 0 0 1-1 1h-5a1 1 0 0 1-1-1V9a1 1 0 0 1 1-1h5zM5 10H2v2h3v-2zm9 0h-3v2h3v-2zM6 0a1 1 0 0 1 1 1v4a1 1 0 0 1-1 1H1a1 1 0 0 1-1-1V1a1 1 0 0 1 1-1h5zm9 0a1 1 0 0 1 1 1v4a1 1 0 0 1-1 1h-5a1 1 0 0 1-1-1V1a1 1 0 0 1 1-1h5zM5 2H2v2h3V2zm9 0h-3v2h3V2z"></path></symbol>
    <symbol id="icon-filter-list" viewBox="0 0 22 18"><path fill-rule="evenodd" d="M2 1a1 1 0 1 1-2 0 1 1 0 0 1 2 0zm19 1H6a1 1 0 0 1 0-2h15a1 1 0 0 1 0 2zM1 10a1 1 0 1 0 0-2 1 1 0 0 0 0 2zm5-2h15a1 1 0 0 1 0 2H6a1 1 0 0 1 0-2zM1 18a1 1 0 1 0 0-2 1 1 0 0 0 0 2zm5-2h15a1 1 0 0 1 0 2H6a1 1 0 0 1 0-2z"></path></symbol>
    <symbol id="icon-filter-list-small" viewBox="0 0 16 14"><path fill-rule="evenodd" d="M1 12a1 1 0 1 1 0 2 1 1 0 0 1 0-2zm14 0a1 1 0 1 1 0 2H4.5a1 1 0 0 1 0-2zM1 6a1 1 0 1 1 0 2 1 1 0 0 1 0-2zm14 0a1 1 0 0 1 .117 1.993L15 8H4.5a1 1 0 0 1-.117-1.993L4.5 6H15zM1 0a1 1 0 1 1 0 2 1 1 0 0 1 0-2zm14 0a1 1 0 0 1 .117 1.993L15 2H4.5A1 1 0 0 1 4.383.007L4.5 0H15z"></path></symbol>
    <symbol id="icon-filter-single" viewBox="0 0 22 18"><path fill-rule="evenodd" d="M21 0H1a1 1 0 0 0-1 1v12a1 1 0 0 0 1 1h20a1 1 0 0 0 1-1V1a1 1 0 0 0-1-1zm-1 12H2V2h18v10zM1 16h20a1 1 0 0 1 0 2H1a1 1 0 0 1 0-2z"></path></symbol>
    <symbol id="icon-filter-single-small" viewBox="0 0 16 14"><path fill-rule="nonzero" d="M15 12a1 1 0 1 1 0 2H1a1 1 0 0 1 0-2zm0-12a1 1 0 0 1 1 1v8a1 1 0 0 1-1 1H1a1 1 0 0 1-1-1V1a1 1 0 0 1 1-1zm-1 2H2v6h12V2z"></path></symbol>
    <symbol id="icon-following" viewBox="0 0 16 22"><path fill-rule="evenodd" d="M16 1a1 1 0 0 0-1-1H1a1 1 0 0 0-1 1v20a1 1 0 0 0 1.707.707L8 15.414l6.293 6.293A1 1 0 0 0 16 21V1zm-2 17.586l-5.293-5.293a1 1 0 0 0-1.414 0L2 18.586V2h12v16.586z"></path></symbol>
    <symbol id="icon-following-small" viewBox="0 0 12 16"><path fill-rule="nonzero" d="M11 16a1 1 0 0 1-.62-.22L6 12.28l-4.38 3.5A1 1 0 0 1 0 15V1a1 1 0 0 1 1-1h10a1 1 0 0 1 1 1v14a1 1 0 0 1-1 1zm-5-6a1 1 0 0 1 .62.22l3.38 2.7V2H2v10.92l3.38-2.7A1 1 0 0 1 6 10z"></path></symbol>
    <symbol id="icon-help" viewBox="0 0 22 21"><path fill-rule="evenodd" d="M9 1C6.288 1 4.091 3.236 4.091 6c0 1.505.656 4.52 1.69 5.436l-3.594 1.652C.819 14.058-.002 15.69 0 17.438v2.69c0 .481.366.871.818.871h16.364c.451 0 .817-.39.817-.87v-2.69a5.194 5.194 0 0 0-1.098-3.3 5.357 5.357 0 0 0-1.047-.989l-3.657-1.695c1.047-.917 1.712-3.939 1.712-5.456 0-2.762-2.198-5-4.909-5m0 2c1.604 0 2.909 1.346 2.909 3 0 1.355-.623 3.521-1.03 3.951a2 2 0 0 0 .477 3.32l3.466 1.606c.192.152.365.324.509.501.443.562.681 1.283.668 2.061V19H2v-1.563c-.001-1.046.449-2.013 1.213-2.619l3.403-1.564a1.998 1.998 0 0 0 1.152-1.517 1.981 1.981 0 0 0-.645-1.783C6.706 9.508 6.091 7.348 6.091 6c0-1.654 1.305-3 2.909-3zM18.295.291a1 1 0 0 1 1.412.001C19.941.526 22 2.652 22 5s-2.059 4.473-2.293 4.707a.995.995 0 0 1-1.412.001 1 1 0 0 1-.003-1.414C18.767 7.814 20 6.29 20 5s-1.233-2.815-1.708-3.294a1 1 0 0 1 .003-1.414zm-1.588 2.001C16.84 2.424 18 3.624 18 5c0 1.375-1.16 2.575-1.293 2.707a.997.997 0 0 1-1.414 0 .999.999 0 0 1 0-1.414c.283-.288.707-.9.707-1.293 0-.392-.424-1.005-.71-1.296a1.001 1.001 0 0 1 1.417-1.41z"></path></symbol>
    <symbol id="icon-home" viewBox="0 0 20 22"><path fill-rule="evenodd" d="M.34 8.254l9-8a.999.999 0 0 1 1.33 0l9 8a1 1 0 0 1 .33.75v12a1 1 0 0 1-1 1h-6a1 1 0 0 1-1-1v-7H8v7a1 1 0 0 1-1 1H1a1 1 0 0 1-1-1v-12c0-.287.124-.56.34-.75zM18 17.004v-7.55l-8-7.11-8 7.11v10.55h4v-7a1 1 0 0 1 1-1h6a1 1 0 0 1 1 1v7h4v-3z"></path></symbol>
    <symbol id="icon-info" viewBox="0 0 24 24"><path fill-rule="evenodd" d="M0 12C0 5.373 5.373 0 12 0c6.625.006 11.994 5.375 12 12 0 6.627-5.373 12-12 12S0 18.627 0 12zm2 0c0 5.523 4.477 10 10 10 5.52-.006 9.994-4.48 10-10 0-5.523-4.477-10-10-10S2 6.477 2 12zm10-2a1 1 0 0 1 1 1v6a1 1 0 0 1-2 0v-6a1 1 0 0 1 1-1zm1-3a1 1 0 1 1-2 0 1 1 0 0 1 2 0z"></path></symbol>
    <symbol id="icon-info-small" viewBox="0 0 16 16"><path fill-rule="nonzero" d="M8 0a8 8 0 1 1 0 16A8 8 0 0 1 8 0zm0 2a6 6 0 1 0 0 12A6 6 0 0 0 8 2zm0 5a1 1 0 0 1 .993.883L9 8v3a1 1 0 0 1-1.993.117L7 11V8a1 1 0 0 1 1-1zm0-3a1 1 0 1 1 0 2 1 1 0 0 1 0-2z"></path></symbol>
    <symbol id="icon-information" viewBox="0 0 24 24"><path fill="#3665f3" fill-rule="evenodd" d="M12 0C5.373 0 0 5.373 0 12s5.373 12 12 12 12-5.373 12-12C23.994 5.375 18.625.006 12 0zm0 10a1 1 0 0 1 1 1v6a1 1 0 0 1-2 0v-6a1 1 0 0 1 1-1zm0-4a1 1 0 1 1 0 2 1 1 0 0 1 0-2z"></path></symbol>
    <symbol id="icon-information-small" viewBox="0 0 16 16"><path fill-rule="nonzero" fill="#3665f3" d="M8 0a8 8 0 1 0 0 16A8 8 0 0 0 8 0zm1 11a1 1 0 1 1-2 0V8a1 1 0 0 1 2 0v3zM8 6a1 1 0 1 1 0-2 1 1 0 0 1 0 2z"></path></symbol>
    <symbol id="icon-menu" viewBox="0 0 20 18"><path fill-rule="evenodd" d="M1 2h18a1 1 0 0 0 0-2H1a1 1 0 0 0 0 2zm18 6H1a1 1 0 0 0 0 2h18a1 1 0 0 0 0-2zM1 16h18a1 1 0 0 1 0 2H1a1 1 0 0 1 0-2z"></path></symbol>
    <symbol id="icon-messages" viewBox="0 0 22 18"><path fill-rule="evenodd" d="M21 0H1a.999.999 0 0 0-1 1v16a.999.999 0 0 0 1 1h20a.999.999 0 0 0 1-1V1a1 1 0 0 0-1-1zm-1 2v14H2V2h18zm-9 10c-.265 0-.52-.106-.707-.293l-6-6a1 1 0 0 1 1.414-1.414L11 9.586l5.293-5.293a.999.999 0 1 1 1.414 1.414l-6 6A1.002 1.002 0 0 1 11 12z"></path></symbol>
    <symbol id="icon-mic" viewBox="0 0 16 22"><path fill-rule="evenodd" d="M13.03 9a5 5 0 0 1-10 0V5a5 5 0 0 1 10 0v4zm-5 3a3 3 0 0 0 3-3V5a3 3 0 1 0-6 0v4a3 3 0 0 0 3 3zm6.798.021a1 1 0 0 1 1.033 1.529 9.002 9.002 0 0 1-6.83 4.39V20h2a1 1 0 0 1 0 2h-6a1 1 0 0 1 0-2h2v-2.06A9 9 0 0 1 .2 13.56a1 1 0 1 1 1.66-1.11A7 7 0 0 0 8.03 16a7 7 0 0 0 6.16-3.55c.147-.222.376-.376.637-.429z"></path></symbol>
    <symbol id="icon-mic-small" viewBox="0 0 12 16"><path fill-rule="nonzero" d="M1.014 7.954a1 1 0 0 1 .872.536 4.67 4.67 0 0 0 8.27 0 1 1 0 0 1 1.37-.36 1 1 0 0 1 .37 1.37 6.74 6.74 0 0 1-4.87 3.42V15a1 1 0 0 1-2 0v-2.08a6.74 6.74 0 0 1-4.87-3.43 1 1 0 0 1 .858-1.536zM6.026 0a3 3 0 0 1 3 3v3a3 3 0 1 1-6 0V3a3 3 0 0 1 3-3zm0 2a1 1 0 0 0-1 1v3a1 1 0 1 0 2 0V3a1 1 0 0 0-1-1z"></path></symbol>
    <symbol id="icon-notification" viewBox="0 0 22 24"><path fill-rule="evenodd" d="M11 0a3 3 0 0 0-3 3v.59A8 8 0 0 0 3 11v3.72L.14 19.49A1 1 0 0 0 1 21h7a3 3 0 0 0 6 0h7a1 1 0 0 0 .86-1.51L19 14.72V11a8 8 0 0 0-5-7.41V3a3 3 0 0 0-3-3zM2.77 19l2.09-3.49A1 1 0 0 0 5 15v-4a6 6 0 0 1 12 0v4a1 1 0 0 0 .14.51L19.23 19H2.77zM10 3a1 1 0 1 1 2 0v.07a7.23 7.23 0 0 0-2 0V3zm0 18a1 1 0 1 0 2 0h-2z"></path></symbol>
    <symbol id="icon-overflow" viewBox="0 0 4 18"><path fill-rule="evenodd" d="M2 4A2 2 0 1 0 2.001.001 2 2 0 0 0 2 4zm0 7a2 2 0 1 0 .001-3.999A2 2 0 0 0 2 11zm2 5a2 2 0 1 1-3.999.001A2 2 0 0 1 4 16z"></path></symbol>
    <symbol id="icon-overflow-small" viewBox="0 0 3 13"><path fill-rule="evenodd" d="M1.5 10a1.5 1.5 0 1 1 0 3 1.5 1.5 0 0 1 0-3zm0-5a1.5 1.5 0 1 1 0 3 1.5 1.5 0 0 1 0-3zm0-5a1.5 1.5 0 1 1 0 3 1.5 1.5 0 0 1 0-3z"></path></symbol>
    <symbol id="icon-photo-brightness" viewBox="0 0 24 24"><path fill-rule="evenodd" d="M12 4a1 1 0 0 0 1-1V1a1 1 0 0 0-2 0v2a1 1 0 0 0 1 1zm0 16a1 1 0 0 0-1 1v2a1 1 0 0 0 2 0v-2a1 1 0 0 0-1-1zm9-9h2a1 1 0 0 1 0 2h-2a1 1 0 0 1 0-2zM4 12a1 1 0 0 0-1-1H1a1 1 0 0 0 0 2h2a1 1 0 0 0 1-1zm15.07-5.65a1 1 0 0 1-1.41-1.42L19.3 3.3a1 1 0 0 1 1.41 1.41l-1.64 1.64zM4.93 17.66l-1.64 1.63A1 1 0 1 0 4.7 20.7l1.64-1.64a1 1 0 0 0-1.41-1.41v.01zm12.782.052a1 1 0 0 1 1.358-.052l1.64 1.64a1 1 0 0 1-1.41 1.41l-1.64-1.64a1 1 0 0 1 .052-1.358zM4.93 6.34a1 1 0 0 0 1.41-1.41L4.71 3.29a1.003 1.003 0 1 0-1.42 1.42l1.64 1.63zM12 6a6 6 0 1 0 0 12 6 6 0 0 0 0-12zm0 10a4 4 0 1 1 0-8 4 4 0 0 1 0 8z"></path></symbol>
    <symbol id="icon-photo-crop" viewBox="0 0 20 24"><path fill-rule="evenodd" d="M19 14.998h-3v-7a.997.997 0 0 0-1-1H6V3.413l1.293 1.293a1 1 0 0 0 1.414-1.413l-2.999-3a1.003 1.003 0 0 0-1.416 0l-2.999 3a1 1 0 0 0 1.414 1.413L4 3.413v3.586H1a1 1 0 0 0 0 2h3v7a.997.997 0 0 0 1 1h9v3.585l-1.293-1.293a1.001 1.001 0 0 0-1.41.005 1.001 1.001 0 0 0-.004 1.41l2.999 2.998c.391.39 1.025.39 1.416 0l2.999-2.998a1 1 0 0 0-1.414-1.415L16 20.584V17h3a1 1 0 0 0 0-2zm-5-6H6v6h8v-6z"></path></symbol>
    <symbol id="icon-photo-gallery" viewBox="0 0 22 22"><path fill-rule="evenodd" d="M21 18H5a1 1 0 0 1-1-1v-2.943a1.084 1.084 0 0 1 0-.114V1a1 1 0 0 1 1-1h16a1 1 0 0 1 1 1v16a1 1 0 0 1-1 1zM6 11.236V2h14v9.61L17.69 9.3a1 1 0 0 0-1.41 0l-2.21 2.21-3.3-4.13A.998.998 0 0 0 10 7a1.1 1.1 0 0 0-.77.36L6 11.236zm0 3.13L9.99 9.62l3.23 4a1.001 1.001 0 0 0 1.49.08L17 11.41l3 3.018V16H6v-1.634zM1 22h11a1 1 0 0 0 0-2H2V10a1 1 0 0 0-2 0v11a1 1 0 0 0 1 1zM15.5 7a1.5 1.5 0 1 0-.001-3.001A1.5 1.5 0 0 0 15.5 7z"></path></symbol>
    <symbol id="icon-photo-gallery-more" viewBox="0 0 22 24"><path fill-rule="evenodd" d="M4 4H3a1 1 0 0 1 0-2h1V1a1 1 0 0 1 2 0v1h1a1 1 0 0 1 0 2H6v1a1 1 0 0 1-2 0V4zm17-2H11a1 1 0 0 0 0 2h9v9.59l-2.29-2.29a1 1 0 0 0-1.41 0l-2.22 2.2-3.3-4.13A1 1 0 0 0 10 9a1.152 1.152 0 0 0-.78.36L6 13.24V9a1 1 0 0 0-2 0v10a1 1 0 0 0 1 1h16a1 1 0 0 0 1-1V3a1 1 0 0 0-1-1zM6 18v-1.64l4-4.78 3.23 4a1.001 1.001 0 0 0 1.49.08L17 13.41l3 3V18H6zm-4 4h10a1 1 0 0 1 0 2H1a1 1 0 0 1-1-1V12a1 1 0 0 1 2 0v10zM15.5 9a1.5 1.5 0 1 0-.001-3.001A1.5 1.5 0 0 0 15.5 9z"></path></symbol>
    <symbol id="icon-photo-rotate" viewBox="0 0 24 21"><path fill-rule="evenodd" d="M16.69 1.65l-1.31 1.31a9 9 0 1 1-7.14 15 1.016 1.016 0 1 1 1.5-1.37 7 7 0 1 0 5.69-11.63l1.26 1.28a1 1 0 0 1-1.41 1.41l-3-3a1 1 0 0 1 0-1.41l3-3a1 1 0 0 1 1.41 1.41zm-4.99 6.6l-5-5a1 1 0 0 0-1.41 0l-5 5a1 1 0 0 0 0 1.41l5 5a1 1 0 0 0 1.41 0l5-5a1 1 0 0 0 0-1.41zm-5.71 4.3L2.4 8.96l3.59-3.59 3.59 3.59-3.59 3.59z"></path></symbol>
    <symbol id="icon-photo-select-all" viewBox="0 0 22 22"><path fill-rule="evenodd" d="M1 2a1 1 0 1 0 0-2 1 1 0 0 0 0 2zm8 0a1 1 0 1 0 0-2 1 1 0 0 0 0 2zM5 4h12a1 1 0 0 1 1 1v12a1 1 0 0 1-1 1H5a1 1 0 0 1-1-1V5a1 1 0 0 1 1-1zm1 12h10V6H6v10zM6 1a1 1 0 1 1-2 0 1 1 0 0 1 2 0zm16 0a1 1 0 1 1-2 0 1 1 0 0 1 2 0zm-5 1a1 1 0 1 0 0-2 1 1 0 0 0 0 2zm-3-1a1 1 0 1 1-2 0 1 1 0 0 1 2 0zM9 22a1 1 0 1 0 0-2 1 1 0 0 0 0 2zm-3-1a1 1 0 1 1-2 0 1 1 0 0 1 2 0zm-5 1a1 1 0 1 0 0-2 1 1 0 0 0 0 2zm21-1a1 1 0 1 1-2 0 1 1 0 0 1 2 0zm-5 1a1 1 0 1 0 0-2 1 1 0 0 0 0 2zm-3-1a1 1 0 1 1-2 0 1 1 0 0 1 2 0zM1 10a1 1 0 1 0 0-2 1 1 0 0 0 0 2zm1-5a1 1 0 1 1-2 0 1 1 0 0 1 2 0zM1 18a1 1 0 1 0 0-2 1 1 0 0 0 0 2zm1-5a1 1 0 1 1-2 0 1 1 0 0 1 2 0zm19-3a1 1 0 1 0 0-2 1 1 0 0 0 0 2zm1-5a1 1 0 1 1-2 0 1 1 0 0 1 2 0zm-1 13a1 1 0 1 0 0-2 1 1 0 0 0 0 2zm1-5a1 1 0 1 1-2 0 1 1 0 0 1 2 0z"></path></symbol>
    <symbol id="icon-photo-select-none" viewBox="0 0 23 23"><path fill-rule="evenodd" d="M5.994 2a1 1 0 1 0 0-2 1 1 0 0 0 0 2zm4 0a1 1 0 1 0 0-2 1 1 0 0 0 0 2zm13-1a1 1 0 1 1-2 0 1 1 0 0 1 2 0zm-5 1a1 1 0 1 0 0-2 1 1 0 0 0 0 2zm-3-1a1 1 0 1 1-2 0 1 1 0 0 1 2 0zm-5 21a1 1 0 1 0 0-2 1 1 0 0 0 0 2zm-3-1a1 1 0 1 1-2 0 1 1 0 0 1 2 0zm-5 1a1 1 0 1 0 0-2 1 1 0 0 0 0 2zm13-1a1 1 0 1 1-2 0 1 1 0 0 1 2 0zm-13-11a1 1 0 1 0 0-2 1 1 0 0 0 0 2zm1 7a1 1 0 1 1-2 0 1 1 0 0 1 2 0zm-1-3a1 1 0 1 0 0-2 1 1 0 0 0 0 2zm21-5a1 1 0 1 1-2 0 1 1 0 0 1 2 0zm-1-3a1 1 0 1 0 0-2 1 1 0 0 0 0 2zm1 11a1 1 0 1 1-2 0 1 1 0 0 1 2 0zm-1-3a1 1 0 1 0 0-2 1 1 0 0 0 0 2zM.293 1.299A1 1 0 0 1 1.7 1.293l20 20a1 1 0 0 1-1.414 1.414l-1.363-1.362a.995.995 0 1 1-1.275-1.275L2.924 5.345A.995.995 0 1 1 1.649 4.07L.287 2.707a1 1 0 0 1 .006-1.408z"></path></symbol>
    <symbol id="icon-profile" viewBox="0 0 22 24"><path fill-rule="evenodd" d="M11 0h-.001a6 6 0 0 0-6 6c0 1.808.803 5.424 2.067 6.524 0 0-3.345 1.388-4.393 1.982C.901 15.511-.002 17.629 0 19.728v3.226C0 23.532.447 24 1 24H20.999c.553 0 1-.468 1-1.046v-3.226c.002-2.099-.901-4.217-2.673-5.222-1.048-.594-4.393-1.982-4.393-1.982C16.197 11.424 17 7.808 17 6a6 6 0 0 0-6-6m0 2c2.205 0 4 1.794 4 4 0 1.747-.836 4.523-1.38 5.016a2 2 0 0 0 .546 3.355c1.25.519 3.488 1.486 4.174 1.875 1.01.572 1.661 1.938 1.659 3.482V22H2v-2.274c-.002-1.542.649-2.908 1.659-3.48.686-.389 2.924-1.356 4.174-1.875a2.004 2.004 0 0 0 1.19-1.519 2.032 2.032 0 0 0-.643-1.836C7.834 10.523 6.999 7.747 6.999 6c0-2.206 1.795-4 4.001-4"></path></symbol>
    <symbol id="icon-clock" viewBox="0 0 22 20"><path fill-rule="evenodd" d="M22 5c-.005-.184-.054-.407-.16-.56l-3-4A.999.999 0 0 0 18 0H4a1 1 0 0 0-.8.4l-3 4A1.37 1.37 0 0 0 0 5v14a1 1 0 0 0 1 1h20a1 1 0 0 0 1-1V5zm-3-1h-7V2h5.5L19 4zm-9-2H4.5L3 4h7V2zM2 6h8v12H2V6zm18 0h-8v12h8V6z"></path></symbol>
    <symbol id="icon-clock" viewBox="0 0 22 22"><path fill-rule="evenodd" d="M22 11c0 6.075-4.925 11-11 11S0 17.075 0 11 4.925 0 11 0s11 4.925 11 11zm-2 0a9 9 0 0 1-9 9 9 9 0 0 1-9-9 9 9 0 0 1 9-9 9 9 0 0 1 9 9zM10 5a1 1 0 0 1 2 0v5.59l2.7 2.71a1 1 0 0 1-1.41 1.41l-3-3A1 1 0 0 1 10 11V5z"></path></symbol>
    <symbol id="icon-radio-checked" viewBox="0 0 24 24"><path fill-rule="evenodd" d="M12 0C5.373 0 0 5.373 0 12s5.373 12 12 12 12-5.373 12-12A11.998 11.998 0 0 0 12 0zm0 22C6.477 22 2 17.523 2 12S6.477 2 12 2s10 4.477 10 10-4.477 10-10 10zm7-10a7 7 0 1 1-14 0 7 7 0 0 1 14 0z"></path></symbol>
    <symbol id="icon-radio-checked-small" viewBox="0 0 16 16"><path fill-rule="nonzero" d="M8 0a8 8 0 1 1 0 16A8 8 0 0 1 8 0zm0 2a6 6 0 1 0 0 12A6 6 0 0 0 8 2zm0 2a4 4 0 1 1 0 8 4 4 0 0 1 0-8z"></path></symbol>
    <symbol id="icon-radio-unchecked" viewBox="0 0 24 24"><path d="M0,12 C0,18.627 5.373,24 12,24 C15.183,24 18.235,22.736 20.485,20.485 C22.736,18.235 24,15.183 24,12 C24,5.373 18.627,0 12,0 C5.373,0 0,5.373 0,      12 Z M2,12 C2,6.477 6.477,2 12,2 C14.652,2 17.196,3.054 19.071,4.929 C20.946,6.804 22,9.348 22,12 C22,17.523 17.523,22 12,22 C6.477,22 2,17.523 2,12 Z"></path></symbol>
    <symbol id="icon-radio-unchecked-small" viewBox="0 0 18 18"><path d="M8.99999995,16.9999999 C4.58172197,16.9999999 0.99999995,13.418278 0.99999995,8.99999995 C0.99999995,4.58172197 4.58172197,0.99999995 8.99999995,0.99999995 C13.418278,0.99999995 16.9999999,4.58172197 16.9999999,8.99999995 C16.9999999,11.1217319 16.1571453,13.1565632 14.6568543,14.6568543 C13.1565632,16.1571453 11.1217319,16.9999999 8.99999995,16.9999999 Z M8.99999996,2.99999996 C5.68629148,2.99999996 2.99999996,5.68629148 2.99999996,8.99999996 C2.99999996,12.3137085 5.68629148,15 8.99999996,15 C12.3137085,15 15,12.3137085 15,8.99999996 C15,5.68629148 12.3137085,2.99999996 8.99999996,2.99999996 Z"/></symbol>
    <symbol id="icon-red-laser" viewBox="0 0 22 18"><path fill-rule="evenodd" d="M1 0a1 1 0 0 0-1 1v16a1 1 0 0 0 2 0V1a1 1 0 0 0-1-1zm5 0a1 1 0 0 0-1 1v13a1 1 0 0 0 2 0V1a1 1 0 0 0-1-1zm4 1a1 1 0 0 1 2 0v13a1 1 0 0 1-2 0V1zm6-1a1 1 0 0 0-1 1v13a1 1 0 0 0 2 0V1a1 1 0 0 0-1-1zm4 1a1 1 0 0 1 2 0v16a1 1 0 0 1-2 0V1z"></path></symbol>
    <symbol id="icon-red-laser-small" viewBox="0 0 14 12"><path fill-rule="evenodd" d="M1 0a1 1 0 0 1 .993.883L2 1v10a1 1 0 0 1-1.993.117L0 11V1a1 1 0 0 1 1-1zm12 0a1 1 0 0 1 1 1v10a1 1 0 1 1-2 0V1a1 1 0 0 1 1-1zM5 0a1 1 0 0 1 .993.883L6 1v8a1 1 0 0 1-1.993.117L4 9V1a1 1 0 0 1 1-1zm4 0a1 1 0 0 1 .993.883L10 1v8a1 1 0 0 1-1.993.117L8 9V1a1 1 0 0 1 1-1z"></path></symbol>
    <symbol id="icon-refresh" viewBox="0 0 18 19"><path fill-rule="evenodd" d="M17 8a1 1 0 0 0-1 1 7.001 7.001 0 0 1-13.448 2.73A6.998 6.998 0 0 1 13.89 4H12a1 1 0 0 0 0 2h4.06A1 1 0 0 0 17 5V1a1 1 0 0 0-2 0v1.32A9.001 9.001 0 1 0 18 9a1 1 0 0 0-1-1z"></path></symbol>
    <symbol id="icon-save" viewBox="0 0 22 20"><path fill-rule="evenodd" d="M15.992 0a5.8 5.8 0 0 1 4.26 1.864 6.53 6.53 0 0 1 .01 8.86l-8.54 9a1 1 0 0 1-1.45 0l-8.54-9a6.53 6.53 0 0 1 0-8.86 5.8 5.8 0 0 1 8.52 0l.74.78.74-.78A5.8 5.8 0 0 1 15.992 0zm-5 17.554l7.81-8.21v.01a4.51 4.51 0 0 0 0-6.11 3.81 3.81 0 0 0-5.62 0l-1.47 1.55a1 1 0 0 1-1.45 0l-1.46-1.55a3.81 3.81 0 0 0-5.62 0 4.51 4.51 0 0 0 0 6.11l7.81 8.2z"></path></symbol>
    <symbol id="icon-save-selected" viewBox="0 0 22 20"><path fill-rule="evenodd" d="M20.253 1.864a5.8 5.8 0 0 0-8.52 0l-.74.78-.74-.78a5.8 5.8 0 0 0-8.52 0 6.53 6.53 0 0 0 0 8.86l8.54 9a1 1 0 0 0 1.45 0l8.54-9a6.53 6.53 0 0 0-.01-8.86z"></path></symbol>
    <symbol id="icon-save-selected-small" viewBox="0 0 16 14"><path fill-rule="evenodd" d="M14.742 1.256A4.292 4.292 0 0 0 11.66 0C10.53 0 9.45.457 8.661 1.267c-.24.255-.462.528-.66.817-.2-.289-.421-.562-.662-.817A4.183 4.183 0 0 0 4.341 0h-.035a4.291 4.291 0 0 0-3.068 7.307l6.036 6.379a1 1 0 0 0 1.453 0l6.015-6.36a4.29 4.29 0 0 0 0-6.07z"></path></symbol>
    <symbol id="icon-save-small" viewBox="0 0 16 14"><path fill-rule="nonzero" d="M14.742 1.256A4.383 4.383 0 0 0 11.66 0C10.53 0 9.45.457 8.661 1.267c-.24.255-.462.528-.66.817-.2-.289-.421-.562-.662-.817A4.183 4.183 0 0 0 4.341 0a4.291 4.291 0 0 0-3.103 7.307l6.036 6.379a1 1 0 0 0 1.453 0l6.015-6.36a4.29 4.29 0 0 0 0-6.07zM13.31 5.932L8 11.543l-5.328-5.63A2.291 2.291 0 0 1 4.307 2h.018a2.2 2.2 0 0 1 1.578.66c.47.554.877 1.16 1.212 1.804a1.041 1.041 0 0 0 1.77 0 9.768 9.768 0 0 1 1.212-1.805A2.2 2.2 0 0 1 11.675 2a2.334 2.334 0 0 1 1.653.67 2.292 2.292 0 0 1-.02 3.262z"></path></symbol>
    <symbol id="icon-search" viewBox="0 0 22 22"><path fill-rule="evenodd" d="M2 9a7 7 0 1 1 14 0A7 7 0 0 1 2 9m19.703 11.29l-5.67-5.67-.008-.003A8.954 8.954 0 0 0 18 9a9 9 0 0 0-9-9 9 9 0 0 0-9 9 9 9 0 0 0 9 9 8.958 8.958 0 0 0 5.66-2.007l5.663 5.717c.19.187.445.292.71.29a1 1 0 0 0 .67-1.71"></path></symbol>
    <symbol id="icon-search-small" viewBox="0 0 14 14"><path fill-rule="evenodd" d="M2 5.5a3.5 3.5 0 1 1 7 0 3.5 3.5 0 0 1-7 0m11.76 6.85l-.021-.01-3.71-3.681-.025-.008A5.465 5.465 0 0 0 11 5.5 5.5 5.5 0 1 0 5.5 11a5.47 5.47 0 0 0 3.118-.972l3.732 3.732a1 1 0 0 0 1.41-1.41"></path></symbol>
    <symbol id="icon-selling" viewBox="0 0 22 22"><path fill="#111820" fill-rule="evenodd" d="M0 10.044a.992.992 0 0 0 .287.71l10.952 10.95a.998.998 0 0 0 1.412-.003l9.053-9.052a.999.999 0 0 0 0-1.414L10.755.287A.992.992 0 0 0 10.046 0L4.043.025c-.266 0-.522.105-.71.293L.317 3.331c-.188.19-.294.446-.293.712L0 10.044zm4.445-8.02l5.182-.022 9.963 9.952-7.624 7.623-9.963-9.96.021-5.172 2.421-2.42zM6.961 5.48a1.48 1.48 0 1 1-2.96 0 1.48 1.48 0 0 1 2.96 0z"></path></symbol>
    <symbol id="icon-send" viewBox="0 0 24 19"><path fill="#111820" fill-rule="evenodd" d="M1 0a1.002 1.002 0 0 0-.707 1.707L7.04 8.455l.965 9.645a1 1 0 0 0 1.767.536l14-17A1 1 0 0 0 23 0H1zm7.212 6.798L3.414 2h17.467L9.756 15.509l-.69-6.903 6.857-3.2a1 1 0 1 0-.846-1.812L8.212 6.798z"></path></symbol>
    <symbol id="icon-settings" viewBox="0 0 24 24"><path fill="#111820" fill-rule="evenodd" d="M9.763 0h4.473c.423 0 .797.276.93.687l.695 2.132c.267.116.528.245.782.384l2.061-.773a.969.969 0 0 1 .338-.062c.292 0 .577.135.767.379l2.788 3.579c.264.337.287.809.057 1.173l-1.202 1.895c.076.28.14.563.193.851l1.884 1.173c.36.224.54.66.447 1.08l-.995 4.464a.989.989 0 0 1-.862.777l-2.197.22a10.13 10.13 0 0 1-.531.681l.28 2.242a1.01 1.01 0 0 1-.548 1.032l-4.028 1.987a.96.96 0 0 1-1.13-.205l-1.54-1.624c-.059.002-.116.006-.174.01a3.658 3.658 0 0 1-.25.011c-.086 0-.17-.006-.252-.011-.058-.004-.115-.008-.172-.01l-1.54 1.625a.97.97 0 0 1-1.13.205l-4.03-1.987c-.38-.187-.6-.602-.547-1.031l.28-2.243a10.112 10.112 0 0 1-.531-.68l-2.199-.22a.991.991 0 0 1-.86-.777l-.995-4.462A1.013 1.013 0 0 1 .47 11.42l1.885-1.173c.05-.29.117-.572.191-.852L1.344 7.5a1.023 1.023 0 0 1 .057-1.173l2.789-3.58a.97.97 0 0 1 1.104-.317l2.06.773c.256-.14.518-.268.785-.385L8.833.687A.982.982 0 0 1 9.763 0zm4.256 3.462L13.544 2h-3.088l-.474 1.462c-.18.55-.58.996-1.1 1.225-.217.096-.43.201-.632.312a1.948 1.948 0 0 1-1.621.119l-1.41-.53-1.925 2.474.824 1.305c.308.485.398 1.083.25 1.642a7.988 7.988 0 0 0-.156.69 2.033 2.033 0 0 1-.92 1.372L2 12.876l.686 3.088 1.51.15a1.967 1.967 0 0 1 1.408.825c.143.2.284.382.427.552.373.437.544 1.017.473 1.592l-.191 1.542L9.094 22l1.058-1.12a1.956 1.956 0 0 1 1.422-.615h.854c.534 0 1.047.22 1.422.615L14.908 22l2.782-1.375-.192-1.542c-.072-.575.099-1.154.471-1.592.145-.17.285-.351.428-.552a1.969 1.969 0 0 1 1.408-.824l1.51-.153.685-3.087-1.292-.804a2.035 2.035 0 0 1-.92-1.373 8.353 8.353 0 0 0-.154-.689 2.07 2.07 0 0 1 .248-1.643l.824-1.304-1.925-2.475-1.41.53a1.931 1.931 0 0 1-1.622-.118 7.802 7.802 0 0 0-.631-.31 2.014 2.014 0 0 1-1.099-1.226zM7 12a5 5 0 0 1 5-5 5 5 0 0 1 5 5 5 5 0 0 1-5 5 5 5 0 0 1-5-5zm8 0c0-1.654-1.346-3-3-3s-3 1.346-3 3 1.346 3 3 3 3-1.346 3-3z"></path></symbol>
    <symbol id="icon-star-undefined" viewBox="0 0 22 22"><path fill="#767676" fill-rule="evenodd" d="M17.457 21.808a1 1 0 0 0 .58.19 1 1 0 0 0 1-1.24l-1.89-7.45 4.6-4.6a1 1 0 0 0-.71-1.71h-6.34l-2.74-6.39a1 1 0 0 0-1.84 0l-2.74 6.39h-6.34a.999.999 0 0 0-.74 1.71l4.6 4.6-1.86 7.45a1 1 0 0 0 1.58 1.05l6.42-4.58 6.42 4.58zm-5.84-6.62a1 1 0 0 0-.58-.19 1 1 0 0 0-.58.19l-4.79 3.42 1.33-5.37a1.001 1.001 0 0 0-.26-.95l-3.29-3.29h4.59c.4 0 .764-.24.92-.61l2.08-4.85 2.08 4.85a1 1 0 0 0 .92.61h4.59l-3.33 3.29c-.247.249-.346.61-.26.95l1.37 5.37-4.79-3.42z"></path></symbol>
    <symbol id="icon-star-empty" viewBox="0 0 22 22"><path fill="#767676" fill-rule="evenodd" d="M17.457 21.808a1 1 0 0 0 .58.19 1 1 0 0 0 1-1.24l-1.89-7.45 4.6-4.6a1 1 0 0 0-.71-1.71h-6.34l-2.74-6.39a1 1 0 0 0-1.84 0l-2.74 6.39h-6.34a.999.999 0 0 0-.74 1.71l4.6 4.6-1.86 7.45a1 1 0 0 0 1.58 1.05l6.42-4.58 6.42 4.58zm-5.84-6.62a1 1 0 0 0-.58-.19 1 1 0 0 0-.58.19l-4.79 3.42 1.33-5.37a1.001 1.001 0 0 0-.26-.95l-3.29-3.29h4.59c.4 0 .764-.24.92-.61l2.08-4.85 2.08 4.85a1 1 0 0 0 .92.61h4.59l-3.33 3.29c-.247.249-.346.61-.26.95l1.37 5.37-4.79-3.42z"></path></symbol>
    <symbol id="icon-star-filled" viewBox="0 0 22 22"><path fill="#111820" fill-rule="evenodd" d="M21.926 7.618a1 1 0 0 0-.92-.62h-6.34l-2.74-6.39a1 1 0 0 0-1.84 0l-2.74 6.39h-6.34a.999.999 0 0 0-.71 1.71l4.6 4.6-1.89 7.45a.999.999 0 1 0 1.55 1.06l6.45-4.59 6.42 4.58a1 1 0 0 0 1.58-1.05l-1.86-7.45 4.6-4.6c.273-.294.344-.723.18-1.09z"></path></symbol>
    <symbol id="icon-star-filled-empty-small" viewBox="0 0 15 15"><path fill="#111820" fill-rule="evenodd" d="M14.124 4.936a.889.889 0 0 0-.79-.49h-3.84L7.937.563a.889.889 0 0 0-1.654 0L4.73 4.447H.889a.889.889 0 0 0-.711 1.422l2.426 3.235-.826 4.054a.889.889 0 0 0 1.333.933l4-2.382 3.991 2.39a.889.889 0 0 0 1.342-.941l-.808-4.054 2.408-3.235a.889.889 0 0 0 .08-.933z"></path></symbol>
    <symbol id="icon-star-filled-grey" viewBox="0 0 22 22"><path fill="#767676" fill-rule="evenodd" d="M21.926 7.618a1 1 0 0 0-.92-.62h-6.34l-2.74-6.39a1 1 0 0 0-1.84 0l-2.74 6.39h-6.34a.999.999 0 0 0-.71 1.71l4.6 4.6-1.89 7.45a.999.999 0 1 0 1.55 1.06l6.45-4.59 6.42 4.58a1 1 0 0 0 1.58-1.05l-1.86-7.45 4.6-4.6c.273-.294.344-.723.18-1.09z"></path></symbol>
    <symbol id="icon-star-filled-small" viewBox="0 0 15 15"><path fill="#111820" fill-rule="evenodd" d="M14.124 4.936a.889.889 0 0 0-.79-.49h-3.84L7.937.563a.889.889 0 0 0-1.654 0L4.73 4.447H.889a.889.889 0 0 0-.711 1.422l2.426 3.235-.826 4.054a.889.889 0 0 0 1.333.933l4-2.382 3.991 2.39a.889.889 0 0 0 1.342-.941l-.808-4.054 2.408-3.235a.889.889 0 0 0 .08-.933z"></path></symbol>

    <symbol id="icon-star-half" viewBox="0 0 22 22">
        <path fill="#C7C7C7" fill-rule="evenodd" d="M21.926 7.618a1 1 0 0 0-.92-.62h-6.34l-2.74-6.39a1 1 0 0 0-1.84 0l-2.74 6.39h-6.34a.999.999 0 0 0-.71 1.71l4.6 4.6-1.89 7.45a.999.999 0 1 0 1.55 1.06l6.45-4.59 6.42 4.58a1 1 0 0 0 1.58-1.05l-1.86-7.45 4.6-4.6c.273-.294.344-.723.18-1.09z"></path>
        <path fill="#111820" fill-rule="evenodd" d="M10.086.61L7.346 7h-6.34a.999.999 0 0 0-.71 1.71l4.6 4.6-1.89 7.45a.999.999 0 0 0 1.55 1.06l6.45-4.59V0a.998.998 0 0 0-.92.61z"></path>
    </symbol>
    <symbol id="icon-star-half-small" viewBox="0 0 15 15">
        <path fill="#C7C7C7" fill-rule="evenodd" d="M14.124 4.936a.889.889 0 0 0-.79-.49h-3.84L7.937.563a.889.889 0 0 0-1.654 0L4.73 4.447H.889a.889.889 0 0 0-.711 1.422l2.426 3.235-.826 4.054a.889.889 0 0 0 1.333.933l4-2.382 3.991 2.39a.889.889 0 0 0 1.342-.941l-.808-4.054 2.408-3.235a.889.889 0 0 0 .08-.933z"></path>
        <path fill="#111820" fill-rule="evenodd" d="M6.284.56L4.73 4.444H.889a.889.889 0 0 0-.711 1.423l2.426 3.235-.826 4.054a.889.889 0 0 0 1.333.933l4-2.382V0a.889.889 0 0 0-.827.56z"></path>
    </symbol>

    <symbol id="icon-star-small" viewBox="0 0 15 15"><path fill="#111820" fill-rule="nonzero" d="M11.556 14.224a.889.889 0 0 1-.454-.124l-3.99-2.391-3.992 2.39a.889.889 0 0 1-1.342-.941l.809-4.054L.177 5.87A.889.889 0 0 1 .89 4.447h3.84L6.284.562a.889.889 0 0 1 1.654 0l1.555 3.885h3.84a.889.889 0 0 1 .711 1.422l-2.426 3.235.826 4.054a.889.889 0 0 1-.888 1.066zM7.11 9.78c.16 0 .316.043.453.124l2.73 1.654-.516-2.49a.889.889 0 0 1 .16-.71l1.618-2.134H8.889a.889.889 0 0 1-.827-.56l-.95-2.382-.952 2.382a.889.889 0 0 1-.827.56H2.667l1.6 2.134c.152.203.21.462.16.71l-.498 2.49 2.72-1.636a.889.889 0 0 1 .462-.142z"></path></symbol>
    <symbol id="icon-thumbs-down" viewBox="0 0 24 23"><path fill="#111820" fill-rule="evenodd" d="M.005 10.56a3.856 3.856 0 0 1 .78-2.53 2.92 2.92 0 0 0 .15-.229 5.573 5.573 0 0 1 .037-4.19A4.046 4.046 0 0 1 4.805 0h4.75a10.493 10.493 0 0 1 4.16.854l3.49 1.496V1a1 1 0 0 1 1-1h3.88a.96.96 0 0 1 .96.96V14.4a.96.96 0 0 1-.96.96h-3.84a.96.96 0 0 1-.96-.96v-.891a2.456 2.456 0 0 0-2.02 1.32 5.88 5.88 0 0 1-1.843 2.069c-.696.544-.937.762-.937 1.342v2.88a.96.96 0 0 1-.96.96h-.96a3.844 3.844 0 0 1-3.84-3.84v-1.945c0-.723.117-1.44.345-2.126l.243-.729H2.885a2.883 2.883 0 0 1-2.88-2.88zm21.12-8.64h-1.92v11.52h1.92V1.92zM2.885 7.68a2.354 2.354 0 0 1-.534 1.458 2.02 2.02 0 0 0-.426 1.422c.001.53.43.959.96.96h5.76a.958.958 0 0 1 .911 1.264l-.664 1.993a4.775 4.775 0 0 0-.247 1.518v1.945a1.922 1.922 0 0 0 1.92 1.92v-1.92a3.41 3.41 0 0 1 1.676-2.855 4.104 4.104 0 0 0 1.305-1.414 4.435 4.435 0 0 1 3.74-2.393V4.473l-4.328-1.855a8.6 8.6 0 0 0-3.404-.698H4.805a2.121 2.121 0 0 0-1.92 1.92.953.953 0 0 1-.1.429 3.694 3.694 0 0 0 0 2.982c.066.133.1.28.1.429z"></path></symbol>
    <symbol id="icon-thumbs-down-selected" viewBox="0 0 24 23"><path fill="#111820" fill-rule="evenodd" d="M13.714.854l2.954 1.13a.958.958 0 0 1 .617.896v9.6a.96.96 0 0 1-.96.96c-1.582 0-2.5.428-2.981 1.389a5.88 5.88 0 0 1-1.842 2.069c-.696.544-.937.762-.937 1.342v2.88a.96.96 0 0 1-.96.96 3.844 3.844 0 0 1-3.84-3.84v-1.945c0-.723.116-1.44.345-2.126l.243-.729H2.885a2.883 2.883 0 0 1-2.88-2.88 3.867 3.867 0 0 1 .778-2.53c.055-.074.105-.15.151-.229a5.578 5.578 0 0 1 .038-4.19A4.046 4.046 0 0 1 4.805 0h4.749a10.493 10.493 0 0 1 4.16.854zM20.205 0a1 1 0 0 0-1 1v13.36a1 1 0 0 0 1 1h1.84a1 1 0 0 0 1-1V1a1 1 0 0 0-1-1h-1.84z"></path></symbol>
    <symbol id="icon-thumbs-down-selected-small" viewBox="0 0 14 14"><path fill="#111820" fill-rule="evenodd" d="M6 14a2.002 2.002 0 0 1-2-2.001v-.818a5.028 5.028 0 0 1 .341-1.819L4.871 8H2A2.002 2.002 0 0 1 .012 5.78l.776-4.075A1.998 1.998 0 0 1 2.765 0h4.308c1.28 0 2.53.241 3.717.716L14 2v4.985l-.962.031-.124-.001-.31-.002c-.758 0-1.432.066-1.994.865l-.978 1.236-.962 1.215-.504.504L8 11l-.074.224L7 14H6z"></path></symbol>
    <symbol id="icon-thumbs-down-small" viewBox="0 0 16 16"><path fill="#111820" fill-rule="nonzero" d="M8 16H7a3.005 3.005 0 0 1-3-3.001v-.82c0-.745.14-1.484.41-2.179H3A3 3 0 0 1 .023 6.628L.8 2.564A2.986 2.986 0 0 1 3.765 0h4.309c1.4 0 2.786.266 4.085.786l3.212 1.285A1 1 0 0 1 16 3v4.984a1 1 0 0 1-.969 1l-1 .032-.126-.001c-1.295-.012-1.3-.011-2.008 1.426a1.009 1.009 0 0 1-.19.266L9.874 12.54l-.926 2.776A.999.999 0 0 1 8 16zM3.765 2a1.002 1.002 0 0 0-.992.876L1.998 6.94a.97.97 0 0 0 .252.722c.189.216.463.34.75.338h3a1 1 0 0 1 .894 1.447l-.471.944A4.02 4.02 0 0 0 6 12.18v.819c0 .553.448 1 1 1.001h.28l.772-2.316a.996.996 0 0 1 .24-.391l1.885-1.884C11.22 7.303 11.532 7 13.922 7.015L14 7.013V3.677l-2.583-1.033A8.981 8.981 0 0 0 8.074 2H3.765z"></path></symbol>
    <symbol id="icon-thumbs-up" viewBox="0 0 24 23"><path fill="#111820" fill-rule="evenodd" d="M23.04 11.52a3.856 3.856 0 0 1-.779 2.53 2.92 2.92 0 0 0-.151.229 5.573 5.573 0 0 1-.037 4.19 4.046 4.046 0 0 1-3.833 3.611h-4.749a10.493 10.493 0 0 1-4.16-.854L5.84 19.73v1.35a1 1 0 0 1-1 1H.96a.96.96 0 0 1-.96-.96V7.68a.96.96 0 0 1 .96-.96H4.8a.96.96 0 0 1 .96.96v.891a2.456 2.456 0 0 0 2.021-1.32 5.88 5.88 0 0 1 1.842-2.069c.696-.544.937-.762.937-1.342V.96a.96.96 0 0 1 .96-.96h.96a3.844 3.844 0 0 1 3.84 3.84v1.945c0 .723-.117 1.44-.345 2.126l-.243.729h4.428a2.883 2.883 0 0 1 2.88 2.88zM1.92 20.16h1.92V8.64H1.92v11.52zm18.24-5.76a2.354 2.354 0 0 1 .534-1.458 2.02 2.02 0 0 0 .426-1.422.962.962 0 0 0-.96-.96H14.4a.958.958 0 0 1-.911-1.264l.664-1.993a4.775 4.775 0 0 0 .247-1.518V3.84a1.922 1.922 0 0 0-1.92-1.92v1.92a3.41 3.41 0 0 1-1.676 2.855 4.104 4.104 0 0 0-1.305 1.414 4.435 4.435 0 0 1-3.739 2.393v7.105l4.327 1.855a8.6 8.6 0 0 0 3.404.698h4.749a2.121 2.121 0 0 0 1.92-1.92c0-.149.034-.296.101-.429a3.694 3.694 0 0 0 0-2.982.953.953 0 0 1-.101-.429z"></path></symbol>
    <symbol id="icon-thumbs-up-selected" viewBox="0 0 24 23"><path fill="#111820" fill-rule="evenodd" d="M23.04 11.52a3.856 3.856 0 0 1-.779 2.53 2.92 2.92 0 0 0-.151.229 5.573 5.573 0 0 1-.037 4.19 4.046 4.046 0 0 1-3.833 3.611h-4.749a10.493 10.493 0 0 1-4.16-.854l-2.954-1.13a.958.958 0 0 1-.617-.896V9.6a.96.96 0 0 1 .96-.96c1.582 0 2.501-.428 2.981-1.389a5.88 5.88 0 0 1 1.842-2.069c.696-.544.937-.762.937-1.342V.96a.96.96 0 0 1 .96-.96 3.844 3.844 0 0 1 3.84 3.84v1.945a6.71 6.71 0 0 1-.345 2.126l-.243.729h3.468a2.883 2.883 0 0 1 2.88 2.88zM1 6.72a1 1 0 0 0-1 1v13.36a1 1 0 0 0 1 1h1.84a1 1 0 0 0 1-1V7.72a1 1 0 0 0-1-1H1z"></path></symbol>
    <symbol id="icon-thumbs-up-selected-small" viewBox="0 0 14 14"><path fill="#111820" fill-rule="evenodd" d="M7.999 0C9.103 0 10 .897 10 2.001v.818a5.028 5.028 0 0 1-.342 1.819L9.128 6H12a2.002 2.002 0 0 1 1.987 2.22l-.776 4.075A1.998 1.998 0 0 1 11.234 14H6.926c-1.28 0-2.53-.241-3.717-.716L0 12V7.015l.961-.031.124.001.31.002c.758 0 1.432-.066 1.994-.865l.978-1.236.962-1.215.504-.504L6 3l.074-.224L7 0h.999z"></path></symbol>
    <symbol id="icon-thumbs-up-small" viewBox="0 0 16 16"><path fill="#111820" fill-rule="nonzero" d="M12.234 16H7.926c-1.4 0-2.786-.266-4.085-.786L.629 13.929A1 1 0 0 1 0 13V8.016a1 1 0 0 1 .969-1l1-.032.126.001c1.296.013 1.3.01 2.008-1.426.048-.099.113-.188.19-.266L6.126 3.46 7.052.684A.999.999 0 0 1 8 0h.999A3.005 3.005 0 0 1 12 3.001v.82A6.03 6.03 0 0 1 11.59 6H13a3 3 0 0 1 2.977 3.372l-.776 4.065A2.986 2.986 0 0 1 12.234 16zM2 12.323l2.583 1.033A8.981 8.981 0 0 0 7.926 14h4.308c.504-.001.93-.376.993-.876l.775-4.064a.97.97 0 0 0-.252-.722A.988.988 0 0 0 13 8h-3a1 1 0 0 1-.895-1.447l.472-.944A4.02 4.02 0 0 0 10 3.82v-.819c0-.553-.448-1-1.001-1.001h-.278l-.773 2.316a.996.996 0 0 1-.241.391L5.823 6.591c-1.045 2.105-1.38 2.391-3.745 2.394L2 8.987v3.336z"></path></symbol>
    <symbol id="icon-tick" viewBox="0 0 14 10"><path fill="#111820" fill-rule="evenodd" d="M4.95 9.94a1 1 0 0 1-.71-.29l-4-4a1 1 0 0 1 1.41-1.41l3.3 3.29L12.24.24a1 1 0 0 1 1.41 1.41l-8 8a.999.999 0 0 1-.7.29z"></path></symbol>
    <symbol id="icon-tick-small" viewBox="0 0 12 9"><path fill="#111820" fill-rule="evenodd" d="M11.714.29a1 1 0 0 0-1.41 0l-6.3 6.3-2.29-2.3a1.004 1.004 0 0 0-1.42 1.42l3 3a1 1 0 0 0 1.41 0l7-7a1 1 0 0 0 .01-1.42z"></path></symbol>
    <symbol id="icon-truck" viewBox="0 0 22 17"><path fill="#111820" fill-rule="evenodd" d="M20 12h-1.766c-.015-.018-.036-.031-.052-.048a2.942 2.942 0 0 0-.28-.254c-.056-.047-.108-.096-.168-.139a3.092 3.092 0 0 0-.343-.203c-.061-.031-.118-.069-.18-.097a3.092 3.092 0 0 0-.414-.138c-.058-.017-.11-.04-.169-.053a2.938 2.938 0 0 0-1.21-.009c-.072.014-.139.041-.209.06-.113.031-.227.06-.333.103-.081.033-.155.077-.232.116-.089.045-.178.088-.261.141-.077.05-.148.108-.219.165-.054.042-.113.077-.164.122V5h3.562L20 8.612V12zm-4 3a1 1 0 0 1-1-1c0-.173.055-.327.132-.469a.978.978 0 0 1 .701-.497c.057-.01.107-.034.167-.034a1 1 0 1 1 0 2zm-8-3h-.766c-.015-.017-.035-.029-.05-.045a2.818 2.818 0 0 0-.286-.26c-.054-.046-.105-.094-.164-.135a2.81 2.81 0 0 0-.343-.203c-.061-.032-.118-.07-.18-.098a3.065 3.065 0 0 0-.412-.138c-.058-.016-.112-.04-.171-.053A3.02 3.02 0 0 0 5 11a3.02 3.02 0 0 0-.628.068c-.06.013-.113.037-.171.053-.14.039-.28.08-.412.138-.062.028-.119.066-.18.098a2.81 2.81 0 0 0-.343.203c-.059.041-.11.09-.165.135a3.04 3.04 0 0 0-.285.259c-.015.017-.035.029-.05.046H2V2h10v10H8zm-3 3a1 1 0 1 1 0-2 1 1 0 1 1 0 2zm16.829-7.253L18.922 3.44a1 1 0 0 0-.828-.44H14V1a1 1 0 0 0-1-1H1a1 1 0 0 0-1 1v12a1 1 0 0 0 1 1h1a3 3 0 1 0 6 0h5a3 3 0 1 0 6 0h2a1 1 0 0 0 1-1V8.306a1 1 0 0 0-.171-.559z"></path></symbol>
    <symbol id="icon-truck-small" viewBox="0 0 16 13"><path fill="#111820" fill-rule="nonzero" d="M15.71 5.29l-2-2A1 1 0 0 0 13 3h-2V1a1 1 0 0 0-1-1H1a1 1 0 0 0-1 1v9a1 1 0 0 0 1 1 2 2 0 1 0 4 0h4a2 2 0 1 0 4 0h2a1 1 0 0 0 1-1V6a1 1 0 0 0-.29-.71zM2 9V2h7v7H2zm12 0h-3V5h1.59L14 6.41V9z"></path></symbol>
    <symbol id="icon-purchases" viewBox="0 0 22 20"><path fill="#111820" fill-rule="evenodd" d="M20 13h-6c-.6 0-1-.4-1-1s.4-1 1-1h6v2zM3 18c-.6 0-1-.4-1-1V5.8c.3.1.7.2 1 .2h17v3h-6c-1.7 0-3 1.3-3 3s1.3 3 3 3h6v3H3zM18 4H3c-.6 0-1-.4-1-1s.4-1 1-1h15v2zm2-2V1c0-.6-.4-1-1-1H3C1.3 0 0 1.3 0 3v14c0 1.7 1.3 3 3 3h18c.6 0 1-.4 1-1V5c0-.6-.4-1-1-1h-1V2z"></path></symbol>
    <symbol id="icon-watch" viewBox="0 0 24 18"><path fill="#111820" fill-rule="evenodd" d="M23.79 9.386L17.193.904A2.344 2.344 0 0 0 13 2.343a1 1 0 0 0 2 0 .354.354 0 0 1 .614-.21L20.955 9H16a2.996 2.996 0 0 0-2.884 2.22 2.938 2.938 0 0 0-2.232 0A2.996 2.996 0 0 0 8 9H3.045l5.341-6.867a.355.355 0 0 1 .614.21 1 1 0 0 0 2 0A2.343 2.343 0 0 0 6.807.904L.21 9.386c-.02.036-.039.073-.055.111a.948.948 0 0 0-.09.182.985.985 0 0 0-.041.2A.98.98 0 0 0 0 10c0 .011.003.022.006.032.003.009.005.018.006.028.006.068.02.136.041.201.013.06.032.119.057.175a.99.99 0 0 0 .1.15c.04.057.086.11.137.158.008.007.013.014.018.022.007.008.013.017.021.023a.94.94 0 0 0 .142.077.953.953 0 0 0 .116.062c.113.046.234.07.356.072v4a3.003 3.003 0 0 0 3 3h3a4.004 4.004 0 0 0 4-4 1 1 0 0 1 2 0 4.004 4.004 0 0 0 4 4h3a3.003 3.003 0 0 0 3-3v-4a1 1 0 0 0 .79-1.614zM7 16H4c-.552 0-.999-.448-1-1v-4h5c.552 0 .999.448 1 1v2a2.002 2.002 0 0 1-2 2zm13 0c.552 0 .999-.448 1-1v-4h-5c-.552 0-.999.448-1 1v2a2.002 2.002 0 0 0 2 2h3z"></path></symbol>
    <symbol id="null-cart" viewBox="0 0 57 57"><path fill="#111820" fill-rule="evenodd" d="M18.22 42.107A7.501 7.501 0 0 1 26.56 47h12.88a7.5 7.5 0 1 1 0 5H26.56a7.5 7.5 0 1 1-8.34-9.893zM46.5 47a2.5 2.5 0 1 0-.001 5 2.5 2.5 0 0 0 0-5zm-27 0a2.5 2.5 0 1 0-.001 5 2.5 2.5 0 0 0 0-5zM8.5 0c1.153 0 2.158.789 2.429 1.91l1.965 8.089L20.5 10h34a2.503 2.503 0 0 1 1.95.93c.463.583.642 1.341.49 2.07l-5 23a2.502 2.502 0 0 1-2.44 2h-33a2.499 2.499 0 0 1-2.46-1.91L6.5 5h-4a2.5 2.5 0 0 1 0-5zm5.606 14.989L18.48 33h29l3.92-18-37.294-.011z"></path></symbol>
    <symbol id="null-search" viewBox="0 0 57 57"><path fill="#111820" fill-rule="evenodd" d="M40.935 37.4l15.11 15.11a2.5 2.5 0 1 1-3.535 3.536L37.4 40.936A22.903 22.903 0 0 1 23 46C10.297 46 0 35.703 0 23S10.297 0 23 0s23 10.297 23 23c0 5.45-1.896 10.458-5.065 14.4zM23 41c9.941 0 18-8.059 18-18S32.941 5 23 5 5 13.059 5 23s8.059 18 18 18z"></path></symbol>
    <symbol id="null-wallet" viewBox="0 0 59 55"><path fill="#111820" fill-rule="evenodd" d="M54 25H37.791c-4.527 0-8.48 3.416-8.772 7.935A8.5 8.5 0 0 0 37.5 42H54v8H8.5A3.5 3.5 0 0 1 5 46.5V16.25a8.48 8.48 0 0 0 3.5.75H54v8zm0 12H37.698c-1.895 0-3.594-1.419-3.693-3.312A3.5 3.5 0 0 1 37.5 30H54v7zM5 8.39c.004-.053.021-.102.026-.155C5.164 6.43 6.657 5 8.5 5H49v7H8.5a3.487 3.487 0 0 1-1.365-.276l-.021-.012a3.361 3.361 0 0 1-.577-.316c-.08-.053-.149-.124-.225-.184-.102-.083-.208-.16-.3-.254-.009-.008-.019-.014-.027-.02-.069-.074-.121-.158-.183-.234-.076-.093-.156-.18-.223-.28-.062-.097-.11-.2-.163-.302-.054-.1-.112-.2-.156-.308-.045-.112-.073-.23-.108-.346-.03-.105-.065-.205-.086-.314-.026-.134-.032-.273-.042-.412C5.019 8.66 5 8.583 5 8.5c0-.016.004-.029.005-.045 0-.02-.006-.043-.005-.065zM56.5 12H54V2c0-1.104-.896-2-2-2H8.75A8.691 8.691 0 0 0 0 8.24v38.23A8.51 8.51 0 0 0 8.5 55h48a2.5 2.5 0 0 0 2.5-2.5v-38a2.5 2.5 0 0 0-2.5-2.5z"></path></symbol>
    <symbol id="null-watch" viewBox="0 0 63 45"><path fill="#111820" fill-rule="nonzero" d="M61.48 23.007l-15-19.68a5.84 5.84 0 0 0-10.49 3.52v.66a2.5 2.5 0 1 0 5 0v-.66a.84.84 0 0 1 1.52-.51l11.93 15.67h-14a6.5 6.5 0 0 0-6.41 5.47 7.36 7.36 0 0 0-5.18 0 6.5 6.5 0 0 0-6.36-5.47h-14l11.98-15.67a.84.84 0 0 1 1.52.51v.66a2.5 2.5 0 0 0 5 0v-.66a5.84 5.84 0 0 0-10.49-3.54l-15 19.7a2.5 2.5 0 0 0 2 4h.49v10.5a6.51 6.51 0 0 0 6.5 6.5h10a8.51 8.51 0 0 0 8.5-8.5v-1a2.5 2.5 0 0 1 5 0v1a8.51 8.51 0 0 0 8.5 8.5h10a6.51 6.51 0 0 0 6.5-6.5v-10.5h.5a2.5 2.5 0 0 0 2-4h-.01zm-37.49 11.5a3.5 3.5 0 0 1-3.5 3.5h-10a1.5 1.5 0 0 1-1.5-1.5v-10.5h13.5a1.5 1.5 0 0 1 1.5 1.5v7zm30 5a1.5 1.5 0 0 1-1.5 1.5h-10a3.5 3.5 0 0 1-3.5-3.5v-7a1.5 1.5 0 0 1 1.5-1.5h13.5v10.5z"></path></symbol>

    <symbol id="icon-pause" viewBox="0 0 16 16">
        <g fill="currentColor" fill-rule="evenodd"><path d="M0 0h6v16H0zM10 0h6v16h-6z"></path></g>
    </symbol>
    <symbol id="icon-play" viewBox="0 0 16 16">
        <path fill="currentColor" fill-rule="evenodd" d="M16 8L0 16V0z"></path>
    </symbol>
    <symbol id="icon-window" viewBox="0 0 28 25">
        <path d="M.497 5.701h15.644c.274 0 .497.222.497.497v.718a.497.497 0 0 1-.497.497H.497A.497.497 0 0 1 0 6.916v-.718c0-.274.222-.497.497-.497zm1.215 0V23.94H0V5.701h1.712zm18.515 7.785v9.939a.552.552 0 0 1-.552.552h-.699a.552.552 0 0 1-.552-.552v-9.939c0-.305.247-.552.552-.552h.699c.305 0 .552.247.552.552zM0 22.302h20.209v1.712H0v-1.712zM25.767.161h1.914v16.583h-1.914V.161zm1.914-.147v1.914H11.098V.014h16.583zM26.322 0l1.353 1.353L13.398 15.63l-1.353-1.353L26.322 0z"/>
    </symbol>
     <symbol id="icon-arrow-right-bold" viewBox="1.2 2.1 22 21">
        <path d="M11.704 22.098a1.48 1.48 0 0 1-1.02-.386 1.38 1.38 0 0 1-.413-.996c0-.375.146-.721.415-.978.411-.397 5.078-4.857 6.494-6.21H2.706c-1.035 0-1.506-.726-1.506-1.4 0-.679.471-1.406 1.506-1.406h14.472c-1.42-1.353-6.02-5.736-6.497-6.213-.292-.291-.445-.635-.442-.996a1.37 1.37 0 0 1 .447-.975c.501-.479 1.354-.681 2.037.003.561.56 9.765 9.334 9.856 9.423l.173.163-.172.162c-.093.09-9.407 8.985-9.86 9.422-.264.258-.639.387-1.016.387"></path>
    </symbol>
    <symbol id="icon-chevron-up-bold" viewBox="1.2 5.7 21.6 12.58">
        <path d="M11.964 5.7c.451.009.809.166 1.075.441l9.336 9.6c.259.268.41.622.425.999v.108a1.528 1.528 0 0 1-.425 1.008c-.559.573-1.528.57-2.081 0L12 9.326l-8.292 8.531c-.558.57-1.525.57-2.08 0a1.507 1.507 0 0 1-.428-1.009v-.087c.012-.392.165-.75.428-1.02l9.332-9.6a1.443 1.443 0 0 1 1.004-.441"/>
    </symbol>
    <symbol id="icon-chevron-down-bold" viewBox="1.35 5.7 21.6 12.58">
        <path d="M12.186 18.285c-.451-.009-.809-.167-1.075-.441l-9.337-9.6a1.527 1.527 0 0 1-.424-.999v-.108c.015-.386.166-.741.424-1.008.56-.573 1.529-.57 2.082 0l8.294 8.53 8.292-8.532c.558-.57 1.526-.57 2.08 0 .265.27.416.629.428 1.01v.087c-.012.391-.165.75-.427 1.02l-9.333 9.6a1.443 1.443 0 0 1-1.004.441"/>
    </symbol>
    <symbol id="icon-save-bold" viewBox="1.2 1.95 22 21">
        <path d="M7.275 4.675c-1.924 0-3.375 1.47-3.375 3.419 0 2.925 3.219 5.893 8.1 10.37 4.881-4.475 8.099-7.444 8.099-10.37 0-1.949-1.45-3.419-3.374-3.419-1.5 0-2.954.972-3.458 2.313l-.072.195h-2.379l-.073-.193c-.513-1.341-1.971-2.315-3.468-2.315zM12 22.156l-1.725-1.578C4.793 15.537 1.2 12.234 1.2 8.094c0-3.446 2.669-6.144 6.075-6.144 1.763 0 3.502.768 4.725 2.07 1.221-1.302 2.963-2.07 4.725-2.07 3.406 0 6.075 2.698 6.075 6.144 0 4.146-3.605 7.455-9.062 12.46L12 22.156z"/>
    </symbol>
    <symbol id="icon-search-bold" viewBox="1.2 1.2 21.6 21.6">
        <path d="M21.537 22.802h-.054a1.281 1.281 0 0 1-.822-.356l-7.239-6.825.984-.906a6.295 6.295 0 0 0 2.045-4.381 6.294 6.294 0 0 0-1.664-4.572 6.349 6.349 0 0 0-4.422-2.066 6.36 6.36 0 0 0-6.664 6.063 6.3 6.3 0 0 0 1.666 4.574 6.349 6.349 0 0 0 5.93 1.945 5.58 5.58 0 0 0 .666-.174 1.27 1.27 0 0 1 .44-.06 1.26 1.26 0 0 1 1.132.855 1.249 1.249 0 0 1-.8 1.572 9.053 9.053 0 0 1-1.08.278l-.183.027a8.834 8.834 0 0 1-7.945-2.766 8.76 8.76 0 0 1-2.318-6.363C1.431 4.775 5.6.974 10.478 1.21a8.834 8.834 0 0 1 6.151 2.872 8.762 8.762 0 0 1 2.316 6.363 8.714 8.714 0 0 1-1.935 5.127l5.51 5.189a1.248 1.248 0 0 1-.077 1.662 1.264 1.264 0 0 1-.906.378"/>
    </symbol>
    <symbol id="icon-flag" viewBox="0.6 0.1 13.36 21.34">
        <path d="M9.554 7.881L7.67 4.824l2.386-2.905H2.39c.02 0 .021.008.031.627.025 1.612.038 3.093.045 5.335h7.089zM2.47 12.126v.292c.004 3.977.01 5.93.035 8.072a.919.919 0 1 1-1.838.02 764.91 764.91 0 0 1-.034-8.09v-.293C.63 7.156.62 5.013.583 2.574.558 1.011.927.081 2.388.081h11.556L9.922 4.976l2.922 4.743H2.47l.002 2.407z"/>
    </symbol>
    <symbol id="icon-sign-out" viewBox="0.75 0.25 22.5 13.5">
        <path d="M7.343 8.006c.535 0 .976-.455.976-1.006 0-.551-.441-1.006-.976-1.006-.535 0-.976.455-.976 1.006 0 .551.441 1.006.976 1.006zm0 1.866c-1.534 0-2.786-1.29-2.786-2.872 0-1.582 1.252-2.872 2.786-2.872S10.129 5.418 10.129 7c0 1.582-1.252 2.872-2.786 2.872zm-.045 3.878C3.685 13.75.75 10.724.75 7S3.685.25 7.298.25c2.572 0 4.86 1.546 5.92 3.878h8.186c.246 0 .396.01.603.064.764.197 1.243.855 1.243 1.839v1.938c0 1.466-.46 1.903-1.846 1.903l-.035 1.975c0 1.485-.405 1.903-1.845 1.903h-1.881c-1.298 0-1.846-.743-1.846-1.903V9.872h-2.58c-1.06 2.332-3.347 3.878-5.92 3.878zm14.229-7.753a1.984 1.984 0 0 0-.123-.003H11.97l-.213-.623c-.66-1.934-2.438-3.255-4.46-3.255C4.686 2.116 2.56 4.306 2.56 7c0 2.694 2.125 4.884 4.738 4.884 2.021 0 3.8-1.32 4.46-3.255l.212-.623h5.637v3.841c0 .077.002.122-.002.138-.07-.1-.04-.101.038-.101h1.88c.036-.012.036-.024.036-.037V8.006h1.845c.036-.012.036-.024.036-.037V6.031c0-.079.021-.084.05-.07l.037.036zM21.775 8a.789.789 0 0 0 .025 0h-.025zm-1.852 3.878a.883.883 0 0 0 .028-.001l-.028.001zm-2.318.107c-.004.014-.012.008-.03-.016-.026-.036-.044-.057-.043-.069l.073.085z"/>
    </symbol>
    <symbol id="icon-top-seller" viewBox="4.65 2.1 14.7 19.96">
        <path d="M13.986 19.084h-.993v-3.079L12 15.012l-.993.993v3.08h-.993a1.986 1.986 0 0 0-1.987 1.986v.993h7.946v-.993a1.986 1.986 0 0 0-1.987-1.987m1.192-8.343l1.39 5.264L12 12.231l-4.569 3.774 1.39-5.164L4.65 7.364l5.364-.298L12 2.1l1.986 4.966 5.364.298-4.172 3.377"/>
    </symbol>
    <symbol id="icon-user-profile" viewBox="0 0 22 22">
        <path stroke="#000" stroke-width=".2" d="M11 19.925a8.925 8.925 0 1 0 0-17.85 8.925 8.925 0 0 0 0 17.85zm0 1.575C5.201 21.5.5 16.799.5 11S5.201.5 11 .5 21.5 5.201 21.5 11 16.799 21.5 11 21.5zm6.052-3.829a2.21 2.21 0 0 0-1.317-2.025l-2.439-1.023a1.816 1.816 0 0 1-1.116-1.727 1.81 1.81 0 0 1 .708-1.406c.961-.735 1.365-1.94 1.055-3.146-.326-1.264-1.48-2.147-2.807-2.147-.81 0-1.57.317-2.141.893a2.934 2.934 0 0 0 .306 4.4c.437.335.695.848.708 1.406a1.816 1.816 0 0 1-1.116 1.727l-2.439 1.023a2.2 2.2 0 0 0-1.313 1.892.744.744 0 1 1-1.484-.09 3.688 3.688 0 0 1 2.21-3.177l2.453-1.03a.327.327 0 0 0 .202-.311.322.322 0 0 0-.122-.248 4.423 4.423 0 0 1-1.744-3.529 4.394 4.394 0 0 1 1.286-3.12A4.467 4.467 0 0 1 11.135 4.7a4.373 4.373 0 0 1 4.247 3.269c.457 1.773-.169 3.622-1.593 4.713a.322.322 0 0 0-.122.248.327.327 0 0 0 .202.312l2.453 1.029a3.706 3.706 0 0 1 2.217 3.4h-1.487z"/>
    </symbol>
</svg>