<?xml version="1.0" encoding="utf-8"?>
<svg xmlns="http://www.w3.org/2000/svg" xmlns:xlink="http://www.w3.org/1999/xlink">
    <symbol id="icon-long-arrow-right" viewBox="0 0 32 32">
        <path d="M20.997 6.333l-1.546 1.546 7.236 7.236h-26.686v2.313h26.516l-7.25 7.264 1.546 1.546 10.045-10.045-9.86-9.86z"></path>
    </symbol>
    <symbol id="icon-close" viewBox="0 0 17 17">
        <path fill="none" stroke="currentColor" stroke-linecap="round" stroke-linejoin="round" stroke-width="2" d="M1.11 1.78l14.15 14.15m-14.09-.07L15.32 1.72"/>
    </symbol>
    <symbol id="icon-arrow-left" viewBox="1 2 21 20">
        <path d="M4.122 6.212l4.601-4.398a.773.773 0 0 0 0-1.1c-.287-.275-.846-.295-1.15 0C7.268 1.009 1 6.997 1 6.997s6.195 5.903 6.573 6.282c.378.38.857.282 1.15 0 .294-.28.372-.728 0-1.099-.372-.37-4.6-4.397-4.6-4.397h10.023c.578 0 .854-.393.854-.786s-.273-.785-.854-.785H4.122z"/>
    </symbol>
</svg>
