<?xml version="1.0" encoding="utf-8"?>
<svg xmlns="http://www.w3.org/2000/svg">
  <symbol viewBox="0 0 15 15" id="icon-arrow-move">
    <path
      d="M14.704 13.29L3.48 2h9.516a1 1 0 000-2H1a1 1 0 00-1 1v12a1 1 0 002 0V3.35l11.285 11.36a.999.999 0 00.71.29.999.999 0 00.71-1.71z"
    />
  </symbol>

  <symbol viewBox="0 0 20 18" id="icon-arrow-left">
    <path
      d="M19 8H3.415l6.298-6.287a1.002 1.002 0 00-.45-1.679 1.003 1.003 0 00-.97.26L.297 8.29a1 1 0 000 1.419l7.998 7.995a1.001 1.001 0 001.42 0 1 1 0 000-1.419L3.414 9.999H19a1 1 0 000-2z"
    />
  </symbol>
  <symbol viewBox="0 0 20 18" id="icon-arrow-right">
    <path
      d="M19.704 8.29L11.706.293a1.004 1.004 0 00-1.42 1.419L16.586 8H1a1 1 0 000 1.998h15.585l-6.298 6.287a1 1 0 000 1.42 1.001 1.001 0 001.42 0l7.997-7.996a1 1 0 000-1.42z"
    />
  </symbol>
  <symbol viewBox="0 0 10 10" id="icon-arrow-right-extra-small">
    <path
      d="M9.946 5.253a.71.71 0 00-.157-.776L5.502.207A.717.717 0 004.49.21a.71.71 0 00.003 1.007l3.073 3.054H.715A.713.713 0 000 4.983c0 .393.32.711.715.711h6.852L4.494 8.748a.71.71 0 00.298 1.232.716.716 0 00.71-.229l4.287-4.27a.712.712 0 00.157-.228z"
    />
  </symbol>
  <symbol viewBox="0 0 24 24" id="icon-chevron-down">
    <path
      d="M12.376 17.927a.997.997 0 0 0 .331-.22l8-8a1 1 0 0 0-1.414-1.414L12 15.586 4.707 8.293a1 1 0 0 0-1.414 1.414l8 8a1 1 0 0 0 1.083.22Z"
    />
  </symbol>
  <symbol viewBox="0 0 16 16" id="icon-chevron-down-extra-small">
    <path
      d="M12.194 6.306a.625.625 0 0 0-.881 0L8 9.62 4.694 6.306a.628.628 0 0 0-.888.888l3.75 3.75a.625.625 0 0 0 .882 0l3.75-3.75a.625.625 0 0 0 .006-.888Z"
    />
  </symbol>
  <symbol viewBox="0 0 24 24" id="icon-chevron-left">
    <path
      d="m6.293 11.292 8-8a1 1 0 1 1 1.414 1.415L8.414 12l7.293 7.293a1 1 0 1 1-1.414 1.414l-8-8a.996.996 0 0 1 0-1.415Z"
    />
  </symbol>
  <symbol viewBox="0 0 24 24" id="icon-chevron-right">
    <path
      d="M17.707 11.293a1 1 0 0 1 .22.33l-.22-.33Zm-.001-.001-7.999-8a1 1 0 0 0-1.414 1.415L15.586 12l-7.293 7.293a1 1 0 1 0 1.414 1.414l8-8a.999.999 0 0 0 .22-1.083"
    />
  </symbol>
  <symbol viewBox="0 0 24 24" id="icon-chevron-up">
    <path
      d="m12.707 6.293 8 8a1 1 0 0 1-1.414 1.414L12 8.414l-7.293 7.293a1 1 0 0 1-1.414-1.414l8-8a1 1 0 0 1 1.414 0Z"
    />
  </symbol>
  <symbol viewBox="0 0 16 16" id="icon-chevron-up-extra-small">
    <path
      d="M12.194 9.691a.625.625 0 0 1-.881 0L8 6.38 4.694 9.69a.628.628 0 1 1-.888-.887l3.75-3.75a.625.625 0 0 1 .882 0l3.75 3.75a.625.625 0 0 1 .006.887Z"
    />
  </symbol>
  <symbol id="icon-arrow-right-bold" viewBox="1.2 2.1 22 21">
    <path
      d="M11.704 22.098a1.48 1.48 0 01-1.02-.386 1.38 1.38 0 01-.413-.996c0-.375.146-.721.415-.978.411-.397 5.078-4.857 6.494-6.21H2.706c-1.035 0-1.506-.726-1.506-1.4 0-.679.471-1.406 1.506-1.406h14.472c-1.42-1.353-6.02-5.736-6.497-6.213-.292-.291-.445-.635-.442-.996a1.37 1.37 0 01.447-.975c.501-.479 1.354-.681 2.037.003.561.56 9.765 9.334 9.856 9.423l.173.163-.172.162c-.093.09-9.407 8.985-9.86 9.422-.264.258-.639.387-1.016.387"
    />
  </symbol>
  <symbol id="icon-chevron-up-bold" viewBox="1.2 5.7 21.6 12.58">
    <path
      d="M11.964 5.7c.451.009.809.166 1.075.441l9.336 9.6c.259.268.41.622.425.999v.108a1.528 1.528 0 01-.425 1.008c-.559.573-1.528.57-2.081 0L12 9.326l-8.292 8.531c-.558.57-1.525.57-2.08 0a1.507 1.507 0 01-.428-1.009v-.087c.012-.392.165-.75.428-1.02l9.332-9.6a1.443 1.443 0 011.004-.441"
    />
  </symbol>
  <symbol id="icon-chevron-down-bold" viewBox="1.35 5.7 21.6 12.58">
    <path
      d="M12.186 18.285c-.451-.009-.809-.167-1.075-.441l-9.337-9.6a1.527 1.527 0 01-.424-.999v-.108c.015-.386.166-.741.424-1.008.56-.573 1.529-.57 2.082 0l8.294 8.53 8.292-8.532c.558-.57 1.526-.57 2.08 0 .265.27.416.629.428 1.01v.087c-.012.391-.165.75-.427 1.02l-9.333 9.6a1.443 1.443 0 01-1.004.441"
    />
  </symbol>
  <symbol viewBox="0 0 16 16" id="icon-chevron-down-small">
    <path
      d="M8.707 12.707a1 1 0 0 1-1.414 0l-6-6a1 1 0 0 1 1.414-1.414L8 10.586l5.293-5.293a1 1 0 1 1 1.414 1.414l-6 6Z"
    />
  </symbol>
  <symbol viewBox="0 0 16 16" id="icon-chevron-left-small">
    <path
      d="M3.293 8.708a1 1 0 0 1 0-1.415l6-6a1 1 0 0 1 1.414 1.414L5.414 8l5.293 5.293a1 1 0 0 1-1.414 1.414l-6-6Z"
    />
  </symbol>
  <symbol viewBox="0 0 16 16" id="icon-chevron-right-small">
    <path
      d="m12.707 8.707-6 6a1 1 0 0 1-1.414-1.414L10.586 8 5.293 2.707a1 1 0 0 1 1.414-1.414l6 6a1 1 0 0 1 0 1.414Z"
    />
  </symbol>
  <symbol viewBox="0 0 16 16" id="icon-chevron-up-small">
    <path
      d="m8.707 3.293 6 6a1 1 0 0 1-1.414 1.414L8 5.414l-5.293 5.293a1 1 0 0 1-1.414-1.414l6-6a1 1 0 0 1 1.414 0Z"
    />
  </symbol>
  <symbol viewBox="0 0 14 14" id="icon-arrow-left-small">
    <path
      d="M13 6.028H3.41l4.3-4.307a1.011 1.011 0 000-1.426 1.001 1.001 0 00-1.42 0l-6 6.024a1.007 1.007 0 000 1.416l6 6.024a.997.997 0 001.358-.053c.37-.37.392-.965.052-1.363L3.41 8.036H13c.552 0 1-.45 1-1.004 0-.555-.448-1.004-1-1.004z"
    />
  </symbol>
  <symbol viewBox="0 0 11 11" id="icon-arrow-move-small">
    <path
      d="M10.768 9.34l-7.34-7.33H9.05a1.005 1.005 0 000-2.01H1.005C.45 0 0 .45 0 1.005V9.05a1.005 1.005 0 002.01 0v-5.62l7.33 7.33a1.005 1.005 0 001.418-1.418h.01z"
    />
  </symbol>
  <symbol viewBox="0 0 14 14" id="icon-arrow-right-small">
    <path
      d="M13.925 7.354a.994.994 0 00-.22-1.086L7.703.29a1.004 1.004 0 00-1.416.005.994.994 0 00.005 1.41l4.302 4.274H1c-.552 0-1 .446-1 .997 0 .55.448.996 1 .996h9.594l-4.302 4.275a.994.994 0 00.417 1.725c.365.088.75-.036.994-.32l6.002-5.979c.093-.09.168-.2.22-.319z"
    />
  </symbol>
  <symbol viewBox="0 0 16 16" id="icon-chevron-left-extra-small">
    <path
      d="M9.691 12.194a.625.625 0 0 0 0-.882L6.38 8l3.31-3.306a.628.628 0 1 0-.887-.888l-3.75 3.75a.625.625 0 0 0 0 .881l3.75 3.75a.625.625 0 0 0 .887.007Z"
    />
  </symbol>
  <symbol viewBox="0 0 16 16" id="icon-chevron-right-extra-small">
    <path
      d="M6.309 12.194a.625.625 0 0 1 0-.882L9.62 8 6.31 4.694a.628.628 0 1 1 .887-.888l3.75 3.75a.625.625 0 0 1 0 .881l-3.75 3.75a.625.625 0 0 1-.887.007Z"
    />
  </symbol>
</svg>
