<?xml version="1.0" encoding="utf-8"?>
<svg xmlns="http://www.w3.org/2000/svg">
    <symbol viewBox="0 0 18 18" id="icon-close">
        <path d="M10.41 9l7.294-7.287A1.004 1.004 0 0016.285.294L9 7.59 1.715.294a1.002 1.002 0 10-1.42 1.42l7.296 7.285-7.295 7.286a1 1 0 000 1.42 1 1 0 001.419 0L9 10.407l7.285 7.296a1 1 0 001.42 0 1 1 0 000-1.419l-7.296-7.286z"></path>
    </symbol>

    <symbol id="icon-customize" viewBox="0 0 24 24">
        <path d="M9.1707 6C9.5825 7.1652 10.6938 8 12 8s2.4175-.8348 2.8293-2H22c.5523 0 1-.4477 1-1s-.4477-1-1-1h-7.1707C14.4175 2.8348 13.3062 2 12 2s-2.4175.8348-2.8293 2H2c-.5523 0-1 .4477-1 1s.4477 1 1 1h7.1707zM11 5c0-.5523.4477-1 1-1s1 .4477 1 1-.4477 1-1 1-1-.4477-1-1zM21.8293 11C21.4175 9.8348 20.3062 9 19 9s-2.4175.8348-2.8293 2H2c-.5523 0-1 .4477-1 1s.4477 1 1 1h14.1707c.4118 1.1652 1.5231 2 2.8293 2s2.4175-.8348 2.8293-2H22c.5523 0 1-.4477 1-1s-.4477-1-1-1h-.1707zM19 11c.5523 0 1 .4477 1 1s-.4477 1-1 1-1-.4477-1-1 .4477-1 1-1zM6 16c1.3062 0 2.4175.8348 2.8293 2H22c.5523 0 1 .4477 1 1s-.4477 1-1 1H8.8293C8.4175 21.1652 7.3063 22 6 22c-1.3062 0-2.4175-.8348-2.8293-2H2c-.5523 0-1-.4477-1-1s.4477-1 1-1h1.1707c.4118-1.1652 1.523-2 2.8293-2zm0 2c-.5523 0-1 .4477-1 1s.4477 1 1 1 1-.4477 1-1-.4477-1-1-1z"/>
    </symbol>
    <symbol viewBox="0 0 22 22" id="icon-download">
        <path d="M11.7 17.71a1 1 0 01-1.41 0L3.3 10.7a1 1 0 011.41-1.41l5.29 5.3V1a1 1 0 112 0v13.59l5.29-5.29a1 1 0 011.41 1.41l-7 7zM0 21a1 1 0 011-1h20a1 1 0 010 2H1a1 1 0 01-1-1z"></path>
    </symbol>
    <symbol id="icon-window" viewBox="0 0 28 25">
        <path d="M.497 5.701h15.644c.274 0 .497.222.497.497v.718a.497.497 0 01-.497.497H.497A.497.497 0 010 6.916v-.718c0-.274.222-.497.497-.497zm1.215 0V23.94H0V5.701h1.712zm18.515 7.785v9.939a.552.552 0 01-.552.552h-.699a.552.552 0 01-.552-.552v-9.939c0-.305.247-.552.552-.552h.699c.305 0 .552.247.552.552zM0 22.302h20.209v1.712H0v-1.712zM25.767.161h1.914v16.583h-1.914V.161zm1.914-.147v1.914H11.098V.014h16.583zM26.322 0l1.353 1.353L13.398 15.63l-1.353-1.353L26.322 0z"></path>
    </symbol>
    <symbol id="icon-help" viewBox="0 0 24 24">
        <path d="M13 17a1 1 0 10-2 0 1 1 0 002 0zM9.928 9.371C10.152 8.814 10.911 8 12 8c.738 0 1.312.29 1.648.65.337.36.404.737.305 1.034-.117.352-.513.692-1.182 1.07-.096.055-.223.123-.355.194-.2.108-.413.223-.55.305-.133.08-.307.194-.457.339-.13.126-.409.435-.409.908V14a1 1 0 102 0v-1.093c.087-.05.173-.096.274-.149.128-.068.278-.147.482-.263.656-.371 1.712-1.031 2.094-2.179.376-1.126-.008-2.249-.74-3.032C14.375 6.498 13.261 6 12 6 9.89 6 8.515 7.52 8.072 8.629a1 1 0 001.856.742z" />
        <path d="M12 24c6.627 0 12-5.373 12-12S18.627 0 12 0 0 5.373 0 12s5.373 12 12 12zm0-2C6.477 22 2 17.523 2 12S6.477 2 12 2s10 4.477 10 10-4.477 10-10 10z" />
    </symbol>
   <symbol id="icon-show-secret" viewBox="0 0 24 24">
        <g id="eye" opacity=".9">
            <path d="M12 9c.5 0 1 .1 1.4.4.4.3.7.7.9 1.1.2.5.2 1 .1 1.4-.1.5-.3.9-.7 1.3-.3.3-.8.6-1.3.7-.5.1-1 0-1.4-.1-.5-.2-.8-.5-1.1-.9-.3-.4-.4-.9-.4-1.4 0-.7.3-1.3.7-1.8.5-.4 1.1-.7 1.8-.7zm0-2c-.9 0-1.8.3-2.5.8S8.2 9 7.8 9.8c-.3.8-.4 1.7-.3 2.6.2.9.6 1.7 1.2 2.3a4 4 0 0 0 2.3 1.2c.9.2 1.8.1 2.6-.3.8-.3 1.5-.9 2-1.7.5-.7.8-1.6.8-2.5 0-.6-.1-1.2-.3-1.7-.2-.5-.6-1-1-1.5-.4-.4-.9-.7-1.5-1A7 7 0 0 0 12 7z" class="st1"/>
            <path d="M12 6c4.4 0 7.4 4 8.6 5.9-1.2 1.7-4.2 5.1-8.6 5.1s-7.4-3.4-8.6-5.1C4.6 10 7.6 6 12 6zm0-2C5 4 1 12 1 12s4 7 11 7 11-7 11-7-4-8-11-8z" class="st1"/>
        </g>
    </symbol>
    <symbol id="icon-hide-secret" viewBox="0 0 24 24">
        <g id="hide" opacity=".9">
            <path d="m19.3 3.3-2.2 2.2A9.2 9.2 0 0 0 12 4C5 4 1 12 1 12c1.2 1.9 2.8 3.6 4.7 4.9l-2.4 2.4 1.4 1.4 16-16-1.4-1.4zM3.4 11.9C4.6 10 7.6 6 12 6c1.3 0 2.5.4 3.6 1l-.9.9c-.9-.6-1.9-.9-3-.9-1.1.1-2.1.5-2.8 1.3a4.5 4.5 0 0 0-.5 5.8l-1.3 1.3c-1.4-.9-2.7-2.1-3.7-3.5zm6.5.8-.4-1.2c0-.7.3-1.3.7-1.8.5-.4 1.1-.7 1.8-.7.4 0 .9.1 1.2.3l-3.3 3.4zm1.6 3.3h.5c.6 0 1.2-.1 1.7-.3.5-.2 1-.6 1.5-1 .4-.4.7-.9 1-1.5.2-.5.3-1.1.3-1.7V11l-5 5z" class="st1"/>
            <path d="m18.4 9.1 1.4-1.4A20 20 0 0 1 23 12s-4 7-11 7c-1.1 0-2.1-.2-3.1-.5l1.7-1.6 1.4.1c4.4 0 7.4-3.4 8.6-5.1-.6-1-1.4-2-2.2-2.8z" class="st1"/>
        </g>
    </symbol>
    <symbol viewBox="0 0 20 22" id="icon-home">
        <path d="M.34 8.252l9-7.999a1 1 0 011.33 0l9 8a1 1 0 01.33.75V21A1 1 0 0119 22h-6a1 1 0 01-1-1v-6.999H8v7A1 1 0 017 22H1a1 1 0 01-1-1V9.002c0-.287.124-.56.34-.75zM18 17.001V9.452l-8-7.109-8 7.109V20h4v-6.999a1 1 0 011-1h6a1 1 0 011 1v7h4v-3z"></path>
    </symbol>
    <symbol viewBox="0 0 20 18" id="icon-menu">
        <path d="M1 2h18a1 1 0 000-2H1a1 1 0 000 2zm18 6H1a1 1 0 000 2h18a1 1 0 000-2zM1 16h18a1 1 0 010 2H1a1 1 0 010-2z"></path>
    </symbol>
    <symbol viewBox="0 0 22 24" id="icon-notification">
        <path d="M11 0a3 3 0 00-3 3v.59A8 8 0 003 11v3.72L.14 19.49A1 1 0 001 21h7a3 3 0 006 0h7a1 1 0 00.86-1.51L19 14.72V11a8 8 0 00-5-7.41V3a3 3 0 00-3-3zM2.77 19l2.09-3.49A1 1 0 005 15v-4a6 6 0 0112 0v4a1 1 0 00.14.51L19.23 19H2.77zM10 3a1 1 0 112 0v.07a7.23 7.23 0 00-2 0V3zm0 18a1 1 0 102 0h-2z"></path>
    </symbol>
    <symbol viewBox="0 0 4 18" id="icon-overflow">
        <path d="M2 4A2 2 0 102.001.001 2 2 0 002 4zm0 7a2 2 0 10.001-3.999A2 2 0 002 11zm2 5a2 2 0 11-3.999.001A2 2 0 014 16z"></path>
    </symbol>
    <symbol viewBox="0 0 18 18" id="icon-refresh">
        <path d="M17 7.987a1 1 0 00-1 .998 6.993 6.993 0 01-5.607 6.858 7.001 7.001 0 01-7.841-4.132A6.98 6.98 0 015.058 3.22a7.008 7.008 0 018.832.773H12a1 1 0 100 1.997h4.06a.999.999 0 00.94-.998V.998a1 1 0 00-2 0v1.318a9.012 9.012 0 00-11.313-.555A8.977 8.977 0 00.79 12.694a9.004 9.004 0 0010.108 5.103A8.99 8.99 0 0018 8.985a1 1 0 00-1-.998z"></path>
    </symbol>
    <symbol viewBox="0 0 22 20" id="icon-save">
        <path d="M16 0c1.619 0 3.163.675 4.262 1.86a6.508 6.508 0 01.01 8.845l-8.544 8.984a1.002 1.002 0 01-1.45 0l-8.545-8.984a6.508 6.508 0 010-8.844 5.808 5.808 0 018.524 0l.74.778.74-.778A5.808 5.808 0 0116 0zm-5.003 17.523l7.814-8.195v.01a4.494 4.494 0 000-6.1 3.815 3.815 0 00-5.623 0l-1.47 1.548a1.002 1.002 0 01-1.45 0L8.806 3.238a3.815 3.815 0 00-5.623 0 4.494 4.494 0 000 6.1l7.813 8.185z"></path>
    </symbol>
    <symbol viewBox="0 0 16 14" id="icon-save-bold">
        <path fill-rule="evenodd" d="M4.291 0a4.294 4.294 0 00-3.053 7.308l6.035 6.38a1.006 1.006 0 001.454 0l6.015-6.361a4.288 4.288 0 000-6.07A4.382 4.382 0 0011.671 0h-.012c-1.13 0-2.211.457-2.998 1.267A6.745 6.745 0 008 2.084a6.746 6.746 0 00-.661-.817A4.179 4.179 0 004.341 0h-.05zm-.002 2h.052c.586 0 1.156.241 1.544.64.17.18.328.376.469.58l.823 1.194a1 1 0 001.646 0l.823-1.194c.141-.204.299-.4.449-.559a2.2 2.2 0 011.576-.66c.629 0 1.222.241 1.657.67.434.433.672 1.009.672 1.62a2.27 2.27 0 01-.672 1.62l-.019.022-.02.02L8 11.545 2.661 5.902a2.281 2.281 0 01-.478-2.506A2.284 2.284 0 014.289 2z"></path>
    </symbol>
    <symbol viewBox="0 0 22 20" id="icon-save-selected">
        <path d="M20.262 1.86a5.81 5.81 0 00-8.524 0l-.74.78-.74-.78a5.81 5.81 0 00-8.525 0 6.508 6.508 0 000 8.845l8.544 8.985a1 1 0 001.45 0l8.545-8.985a6.508 6.508 0 00-.01-8.844z"></path>
    </symbol>
    <symbol viewBox="0 0 22 22" id="icon-search">
        <path d="M2 9a7 7 0 1114 0A7 7 0 012 9m19.703 11.29l-5.67-5.67-.008-.003A8.954 8.954 0 0018 9a9 9 0 00-9-9 9 9 0 00-9 9 9 9 0 009 9 8.958 8.958 0 005.66-2.007l5.663 5.717c.19.187.445.292.71.29a1 1 0 00.67-1.71"></path>
    </symbol>
   <symbol id="icon-search-bold" viewBox="1.2 1.2 21.6 21.6">
        <path d="M21.537 22.802h-.054a1.281 1.281 0 01-.822-.356l-7.239-6.825.984-.906a6.295 6.295 0 002.045-4.381 6.294 6.294 0 00-1.664-4.572 6.349 6.349 0 00-4.422-2.066 6.36 6.36 0 00-6.664 6.063 6.3 6.3 0 001.666 4.574 6.349 6.349 0 005.93 1.945 5.58 5.58 0 00.666-.174 1.27 1.27 0 01.44-.06 1.26 1.26 0 011.132.855 1.249 1.249 0 01-.8 1.572 9.053 9.053 0 01-1.08.278l-.183.027a8.834 8.834 0 01-7.945-2.766 8.76 8.76 0 01-2.318-6.363C1.431 4.775 5.6.974 10.478 1.21a8.834 8.834 0 016.151 2.872 8.762 8.762 0 012.316 6.363 8.714 8.714 0 01-1.935 5.127l5.51 5.189a1.248 1.248 0 01-.077 1.662 1.264 1.264 0 01-.906.378"></path>
    </symbol>

    <symbol viewBox="0 0 24 24" id="icon-settings">
        <path fill-rule="evenodd" d="M9.763 0h4.473c.423 0 .797.276.93.687l.695 2.132c.267.116.528.245.782.384l2.061-.773a.969.969 0 01.338-.062c.292 0 .577.135.767.379l2.788 3.579c.264.337.287.809.057 1.173l-1.202 1.895c.076.28.14.563.193.851l1.884 1.173c.36.224.54.66.447 1.08l-.995 4.464a.989.989 0 01-.862.777l-2.197.22a10.13 10.13 0 01-.531.681l.28 2.242a1.01 1.01 0 01-.548 1.032l-4.028 1.987a.96.96 0 01-1.13-.205l-1.54-1.624c-.059.002-.116.006-.174.01a3.658 3.658 0 01-.25.011c-.086 0-.17-.006-.252-.011-.058-.004-.115-.008-.172-.01l-1.54 1.625a.97.97 0 01-1.13.205l-4.03-1.987c-.38-.187-.6-.602-.547-1.031l.28-2.243a10.112 10.112 0 01-.531-.68l-2.199-.22a.991.991 0 01-.86-.777l-.995-4.462A1.013 1.013 0 01.47 11.42l1.885-1.173c.05-.29.117-.572.191-.852L1.344 7.5a1.023 1.023 0 01.057-1.173l2.789-3.58a.97.97 0 011.104-.317l2.06.773c.256-.14.518-.268.785-.385L8.833.687A.982.982 0 019.763 0zm4.256 3.462L13.544 2h-3.088l-.474 1.462c-.18.55-.58.996-1.1 1.225-.217.096-.43.201-.632.312a1.948 1.948 0 01-1.621.119l-1.41-.53-1.925 2.474.824 1.305c.308.485.398 1.083.25 1.642a7.988 7.988 0 00-.156.69 2.033 2.033 0 01-.92 1.372L2 12.876l.686 3.088 1.51.15a1.967 1.967 0 011.408.825c.143.2.284.382.427.552.373.437.544 1.017.473 1.592l-.191 1.542L9.094 22l1.058-1.12a1.956 1.956 0 011.422-.615h.854c.534 0 1.047.22 1.422.615L14.908 22l2.782-1.375-.192-1.542c-.072-.575.099-1.154.471-1.592.145-.17.285-.351.428-.552a1.969 1.969 0 011.408-.824l1.51-.153.685-3.087-1.292-.804a2.035 2.035 0 01-.92-1.373 8.353 8.353 0 00-.154-.689 2.07 2.07 0 01.248-1.643l.824-1.304-1.925-2.475-1.41.53a1.931 1.931 0 01-1.622-.118 7.802 7.802 0 00-.631-.31 2.014 2.014 0 01-1.099-1.226zM7 12a5 5 0 015-5 5 5 0 015 5 5 5 0 01-5 5 5 5 0 01-5-5zm8 0c0-1.654-1.346-3-3-3s-3 1.346-3 3 1.346 3 3 3 3-1.346 3-3z"></path>
    </symbol>

    <symbol viewBox="0 0 18 22" id="icon-share">
        <path d="M5 7a1 1 0 110 2H2v11h14V9h-3a1 1 0 110-2h4a1 1 0 011 1v13a1 1 0 01-1 1H1a1 1 0 01-1-1V8a1 1 0 011-1zm4-7c.265 0 .52.106.707.293l4 4a1 1 0 01-1.414 1.414L9.999 3.413 10 14a1 1 0 11-2 0L7.999 3.413 5.707 5.707a1 1 0 01-1.317.08l-.094-.083a1 1 0 01-.003-1.411l4-4C8.481.106 8.735 0 9 0z"></path>
    </symbol>



    <symbol viewBox="0 0 22 18" id="icon-messages">
        <path d="M21 0H1a.999.999 0 00-1 1v16a.999.999 0 001 1h20a.999.999 0 001-1V1a1 1 0 00-1-1zm-1 2v14H2V2h18zm-9 10c-.265 0-.52-.106-.707-.293l-6-6a1 1 0 011.414-1.414L11 9.586l5.293-5.293a.999.999 0 111.414 1.414l-6 6A1.002 1.002 0 0111 12z"></path>
    </symbol>

    <symbol viewBox="0 0 24 19" id="icon-send">
        <path d="M1 0a1.002 1.002 0 00-.707 1.707L7.04 8.455l.965 9.645a1 1 0 001.767.536l14-17A1 1 0 0023 0H1zm7.212 6.798L3.414 2h17.467L9.756 15.509l-.69-6.903 6.857-3.2a1 1 0 10-.846-1.812L8.212 6.798z"></path>
    </symbol>

    <symbol viewBox="0 0 14 14" id="icon-close-small">
        <path d="M8.47 6.977l5.29-5.27a.993.993 0 00-.053-1.352c-.37-.368-.96-.39-1.357-.052l-5.29 5.27L1.77.293a1.007 1.007 0 00-1.42 0 .998.998 0 000 1.415l5.3 5.27-5.3 5.27a.994.994 0 00.416 1.724c.365.088.75-.036.994-.32l5.3-5.27 5.29 5.27c.396.338.988.315 1.357-.052a.993.993 0 00.053-1.353l-5.29-5.27z"></path>
    </symbol>
    <symbol id="icon-help-small" viewBox="0 0 16 16">
        <path d="M5.31 5.665c.301-.801 1.233-1.915 2.691-1.915.86 0 1.625.363 2.132.94.505.577.78 1.414.514 2.262a1.561 1.561 0 01-.696.893c-.138.086-.28.152-.403.21l-.027.012a3.09 3.09 0 00-.293.147c-.13.079-.227.133-.307.179l-.045.025v.252a.691.691 0 01-.29.593c-.172.12-.387.157-.585.157-.198 0-.413-.037-.585-.157a.691.691 0 01-.29-.593v-.667c0-.412.228-.678.326-.78l.685-.471c.083-.048.16-.092.217-.127l.22-.129.046-.026c.073-.042.12-.07.154-.095a.23.23 0 00.054-.05.238.238 0 00.032-.071.615.615 0 00-.025-.332c-.163-.181-.45-.339-.834-.339-.207.03-.709.22-1.061.752-.174.465-.683.711-1.145.514-.453-.193-.656-.727-.484-1.184zM9 11a1 1 0 10-2 0 1 1 0 002 0z"/>
        <path d="M16 8A8 8 0 110 8a8 8 0 0116 0zm-2 0A6 6 0 102 8a6 6 0 0012 0z"/>
    </symbol>
    <symbol viewBox="0 0 3 13" id="icon-overflow-small">
        <path d="M1.5 10a1.5 1.5 0 110 3 1.5 1.5 0 010-3zm0-5a1.5 1.5 0 110 3 1.5 1.5 0 010-3zm0-5a1.5 1.5 0 110 3 1.5 1.5 0 010-3z"></path>
    </symbol>
    <symbol viewBox="0 0 16 14" id="icon-save-selected-small">
        <path d="M14.742 1.256A4.292 4.292 0 0011.66 0c-1.13 0-2.21.457-2.998 1.267-.24.255-.462.529-.66.818-.2-.29-.421-.563-.662-.818A4.182 4.182 0 004.34 0h-.035a4.291 4.291 0 00-3.068 7.308l6.036 6.38a1 1 0 001.453 0l6.015-6.36a4.292 4.292 0 000-6.072z"></path>
    </symbol>
    <symbol viewBox="0 0 16 14" id="icon-save-small">
        <path fill-rule="evenodd" d="M11.684 0c-.017 0 .017 0 0 0a4.236 4.236 0 00-3.022 1.267A6.93 6.93 0 008 2.084a6.826 6.826 0 00-.806-.966C6.44.366 5.383 0 4.31 0h-.05c-.934 0-1.87.272-2.591.865-2.152 1.767-2.142 4.708-.43 6.442l6.035 6.38a1.002 1.002 0 001.453 0l6.016-6.36A4.29 4.29 0 0011.708 0h-.024zm.009 1.5c.745 0 1.462.29 1.989.817a2.77 2.77 0 01.818 1.974c0 .746-.29 1.447-.847 2.004L8 12.271 2.306 6.252a2.798 2.798 0 01-.802-2.107c.042-.81.439-1.564 1.117-2.12.412-.339.994-.525 1.639-.525h.05c.727 0 1.392.248 1.825.68.232.231.445.486.63.756a1.498 1.498 0 002.47 0 5.33 5.33 0 01.502-.623 2.74 2.74 0 011.956-.813z"></path>
    </symbol>
    <symbol viewBox="0 0 14 14" id="icon-search-small">
        <path d="M2 5.5a3.5 3.5 0 117 0 3.5 3.5 0 01-7 0m11.76 6.85l-.021-.01-3.71-3.681-.025-.008A5.465 5.465 0 0011 5.5 5.5 5.5 0 105.5 11a5.47 5.47 0 003.118-.972l3.732 3.732a1 1 0 001.41-1.41"></path>
    </symbol>
    <symbol viewBox="0 0 16 16" id="icon-settings-small">
        <path d="M6.33 5.51A3 3 0 018 5a3 3 0 013 3 3 3 0 01-.51 1.67 3 3 0 01-1.34 1.1 3 3 0 01-3.92-3.92 3 3 0 011.1-1.34zm2.5 1.24a1.5 1.5 0 00-2.08 2.08 1.55 1.55 0 00.68.56 1.49 1.49 0 00.86.08 1.49 1.49 0 001.18-1.18 1.49 1.49 0 00-.08-.86 1.55 1.55 0 00-.56-.68z" class="a"/>
        <path d="M6.49 0h3a.7.7 0 01.39.13.64.64 0 01.23.33l.46 1.38a5.2 5.2 0 01.53.26l1.37-.52a.81.81 0 01.22 0 .59.59 0 01.29.07.58.58 0 01.23.18l1.89 2.39a.65.65 0 010 .78l-.86 1.27a1.42 1.42 0 000 .16 1.42 1.42 0 01.08.41l1.26.78a.61.61 0 01.26.31.71.71 0 010 .41l-.66 3a.65.65 0 01-.2.35.63.63 0 01-.37.17l-1.39.14c-.11.16-.23.31-.35.46l.18 1.54a.61.61 0 01-.07.4.63.63 0 01-.29.29L10 16a.55.55 0 01-.28.07.63.63 0 01-.47-.2l-1-1.09h-.56l-1 1.09a.62.62 0 01-.21.15.75.75 0 01-.26.05.55.55 0 01-.28-.07l-2.69-1.36a.58.58 0 01-.25-.29.61.61 0 01-.07-.4l.18-1.49c-.12-.15-.24-.3-.35-.46l-1.49-.15a.63.63 0 01-.37-.17.65.65 0 01-.2-.35l-.7-3a.64.64 0 010-.41.63.63 0 01.27-.31l1.26-.78c0-.19.08-.38.13-.57L.9 5a.7.7 0 01-.11-.39.77.77 0 01.14-.39l1.86-2.35A.58.58 0 013 1.69a.53.53 0 01.28-.07.45.45 0 01.23 0l1.37.52a5.2 5.2 0 01.53-.26L5.87.46A.64.64 0 016.1.13.7.7 0 016.49 0zm2.66 2.34l-.28-.84H7.13l-.28.84-.21.66-.64.25-.4.2-.6.33-.62-.24-.79-.29-1.08 1.43.49.78.32.54-.18.65a3.13 3.13 0 00-.1.44l-.12.66-.57.35-.75.48.4 1.82.87.12.67.07.4.55.27.35.43.51-.08.61-.11.92 1.55.78.6-.63.46-.49h1.88l.46.49.6.63 1.56-.78-.11-.92-.08-.61.42-.5.28-.36.4-.55 1.53-.2.39-1.84-.75-.47-.57-.35-.07-.65a3.63 3.63 0 00-.1-.45L12.68 6l.32-.52.5-.78-1.09-1.43-.79.29-.62.24-.61-.33-.4-.2L9.36 3z" class="a"/>
    </symbol>
    <symbol viewBox="0 0 12 16" id="icon-share-small">
        <path d="M3 6a1 1 0 110 2H2v6h8V8H9a1 1 0 110-2h2a1 1 0 011 1v8a1 1 0 01-1 1H1a1 1 0 01-1-1V7a1 1 0 011-1zm3-6c.265 0 .52.106.707.293l3 3a1 1 0 01-1.414 1.414L7 3.413V10a1 1 0 11-2 0V3.413L3.707 4.707a1 1 0 01-1.317.08l-.094-.083a1 1 0 01-.003-1.411l3-3C5.481.106 5.735 0 6 0z"></path>
    </symbol>

</svg>