<?xml version="1.0" encoding="utf-8"?>
<svg xmlns="http://www.w3.org/2000/svg">
    <symbol id="icon-social-link" viewBox="0 0 23 24">
        <path d="M16.772 15.07a.842.842 0 01-.48-.153.896.896 0 01-.319-.405.942.942 0 01.186-.985l3.844-4.01c1.688-1.761 1.688-4.628 0-6.39a4.209 4.209 0 00-6.124 0l-3.843 4.01a.836.836 0 01-1.241.018.939.939 0 01.018-1.295l3.842-4.01a5.892 5.892 0 018.572 0c2.364 2.466 2.364 6.479 0 8.945l-3.843 4.01a.859.859 0 01-.612.265zM6.06 24a5.826 5.826 0 01-2.32-.479 6.034 6.034 0 01-1.967-1.37c-2.364-2.467-2.364-6.48 0-8.947l3.434-3.583a.835.835 0 011.225 0 .907.907 0 01.254.638.938.938 0 01-.253.64l-3.435 3.583c-1.689 1.762-1.689 4.629 0 6.39a4.21 4.21 0 006.123 0l3.435-3.584a.835.835 0 011.242-.018.935.935 0 01-.018 1.295l-3.434 3.585a6.033 6.033 0 01-1.966 1.371A5.825 5.825 0 016.06 24zm3.4-8.967a.84.84 0 01-.48-.153.898.898 0 01-.319-.406.941.941 0 01.186-.984l4.082-4.26a.835.835 0 011.235-.011.907.907 0 01.254.647.94.94 0 01-.265.643l-4.081 4.26a.829.829 0 01-.612.264z"/>
    </symbol>
    <symbol id="icon-social-discord" viewBox="0 0 24 18">
        <path d="M20.317 1.492c-1.53-.69-3.17-1.2-4.885-1.49a.075.075 0 00-.079.036c-.21.369-.444.85-.608 1.23a18.566 18.566 0 00-5.487 0 12.36 12.36 0 00-.617-1.23A.077.077 0 008.562 0c-1.714.29-3.354.8-4.885 1.491a.07.07 0 00-.032.027C.533 6.093-.32 10.555.099 14.961a.08.08 0 00.031.055 20.03 20.03 0 005.993 2.98.078.078 0 00.084-.026c.462-.62.874-1.275 1.226-1.963.021-.04.001-.088-.041-.104a13.201 13.201 0 01-1.872-.878.075.075 0 01-.008-.125c.126-.093.252-.19.372-.287a.075.075 0 01.078-.01c3.927 1.764 8.18 1.764 12.061 0a.075.075 0 01.079.009c.12.098.245.195.372.288a.075.075 0 01-.006.125c-.598.344-1.22.635-1.873.877a.075.075 0 00-.041.105c.36.687.772 1.341 1.225 1.962a.077.077 0 00.084.028 19.963 19.963 0 006.002-2.981.076.076 0 00.032-.054c.5-5.094-.838-9.52-3.549-13.442a.06.06 0 00-.031-.028zM8.02 12.278c-1.182 0-2.157-1.069-2.157-2.38 0-1.312.956-2.38 2.157-2.38 1.21 0 2.176 1.077 2.157 2.38 0 1.312-.956 2.38-2.157 2.38zm7.975 0c-1.183 0-2.157-1.069-2.157-2.38 0-1.312.955-2.38 2.157-2.38 1.21 0 2.176 1.077 2.157 2.38 0 1.312-.946 2.38-2.157 2.38z"/>
    </symbol>
    <symbol id="icon-social-facebook" viewBox="0 0 24 24">
        <path d="M24 12.07C24 5.4 18.63 0 12 0S0 5.4 0 12.07C0 18.1 4.39 23.1 10.13 24v-8.44H7.08v-3.49h3.05V9.41c0-3.02 1.79-4.7 4.53-4.7 1.31 0 2.68.24 2.68.24v2.97h-1.51c-1.5 0-1.96.93-1.96 1.89v2.26h3.33l-.53 3.5h-2.8V24C19.61 23.1 24 18.1 24 12.07z"/>
    </symbol>
    <symbol id="icon-social-messenger" viewBox="0 0 24 24">
        <g clip-path="url(#clip0_41192_49714)">
            <path d="M12 0C5.24 0 0 4.952 0 11.64c0 3.499 1.434 6.521 3.769 8.61a.957.957 0 01.322.684l.066 2.136a.96.96 0 001.346.849l2.383-1.05a.958.958 0 01.64-.047c1.132.308 2.3.462 3.474.458 6.76 0 12-4.95 12-11.64S18.76 0 12 0zm7.206 8.956l-3.525 5.594a1.799 1.799 0 01-2.603.48l-2.803-2.103a.72.72 0 00-.868.003l-3.786 2.872c-.505.384-1.165-.221-.827-.758l3.525-5.593a1.8 1.8 0 012.603-.48l2.803 2.103a.72.72 0 00.868-.002l3.786-2.874c.505-.384 1.165.221.827.758z"/>
        </g>
        <defs>
            <clipPath id="clip0_41192_49714"><path fill="var(--color-social-icons-foreground, #fff)" d="M0 0h24v24H0z"/></clipPath>
        </defs>
    </symbol>
    <symbol id="icon-social-pinterest" viewBox="0 0 24 24">
        <g clip-path="url(#a)">
            <path d="M7.6 23.2A11.5 11.5 0 0 1 5 21.7C2.3 19.7.7 17.1.2 14A11.9 11.9 0 0 1 2 5.4a11.9 11.9 0 0 1 7-5c4.4-1 8.2 0 11.4 3a11.2 11.2 0 0 1 3.4 6.7c.6 4-.5 7.4-3.2 10.3a11.6 11.6 0 0 1-6.7 3.4 11.8 11.8 0 0 1-5.2-.3c-.1 0-.3 0-.2-.2a15 15 0 0 0 2-5l.2-.8c.9 1.2 2.1 1.5 3.5 1.3a5.6 5.6 0 0 0 4-2.4 8 8 0 0 0 1.3-6.4c-.5-2.5-2-4.1-4.3-5a8.4 8.4 0 0 0-7.6.7 6.6 6.6 0 0 0-3.2 5 6.2 6.2 0 0 0 .9 4.2 3.6 3.6 0 0 0 1.4 1.4c.3.2.4.1.5-.2l.3-1.2a.5.5 0 0 0 0-.4 4.7 4.7 0 0 1-.4-5 5 5 0 0 1 4.3-3 5.3 5.3 0 0 1 3.4.8 4.5 4.5 0 0 1 2.1 3.6A7 7 0 0 1 16 15a3.4 3.4 0 0 1-2.3 1.8c-1 .2-1.8-.2-2.2-1a1.7 1.7 0 0 1 0-1.2l.7-2.8c.2-.5.2-1 .2-1.5-.2-1.1-1.2-1.7-2.3-1.1-.7.3-1 1-1.3 1.8-.2.8 0 1.7.2 2.5a.5.5 0 0 1 0 .3l-1.3 5.8a9.3 9.3 0 0 0-.1 2.7v.8z"/>
        </g>
        <defs>
            <clipPath id="a">
            <path fill="var(--color-social-icons-foreground, #fff)" d="M0 0h24v24H0z"/>
            </clipPath>
        </defs>
    </symbol>
    <symbol id="icon-social-reddit" viewBox="0 0 24 24">
        <path d="M12 24a12 12 0 1 0 0-24 12 12 0 0 0 0 24z"/>
        <path fill="var(--color-social-icons-foreground, #fff)" d="M20 12a1.8 1.8 0 0 0-3-1.3 8.7 8.7 0 0 0-4.6-1.5l.8-3.7 2.6.5a1.3 1.3 0 0 0 2.5 0c0-.7-.6-1.3-1.3-1.3-.5 0-.9.3-1.1.7L13 4.8a.3.3 0 0 0-.2 0 .3.3 0 0 0-.2.3l-.9 4.1c-1.8.1-3.5.7-4.7 1.5a1.8 1.8 0 0 0-1.2-.5 1.8 1.8 0 0 0-.7 3.4v.5c0 2.7 3 4.9 7 4.9 3.8 0 7-2.2 7-4.9l-.1-.5a1.8 1.8 0 0 0 1-1.6zM8 13.2a1.3 1.3 0 0 1 2.5 0 1.3 1.3 0 0 1-2.5 0zm7 3.3c-.9.9-2.5 1-3 1s-2.1-.1-3-1a.3.3 0 0 1 0-.4.3.3 0 0 1 .5 0c.5.5 1.7.7 2.5.7.9 0 2-.2 2.5-.7a.3.3 0 0 1 .5 0 .4.4 0 0 1 0 .4zm-.2-2c-.7 0-1.3-.6-1.3-1.3a1.3 1.3 0 0 1 2.5 0c0 .7-.6 1.3-1.3 1.3z"/>
    </symbol>
   <symbol id="icon-social-twitter" viewBox="0 0 24 19">
        <path d="M0 16.86c1.69.19 3.4-.05 4.97-.69a9.83 9.83 0 0 0 2.28-1.3l-.32-.02a4.84 4.84 0 0 1-2.28-.77 4.8 4.8 0 0 1-1.92-2.33l-.04-.13c-.02-.04 0-.07.07-.06a4.9 4.9 0 0 0 2.03-.07c.02 0 .04 0 .06-.03a5 5 0 0 1-1.88-.82 4.84 4.84 0 0 1-1.37-1.5A4.51 4.51 0 0 1 .94 6.7a5.03 5.03 0 0 0 2.19.59c-.01-.04-.04-.05-.07-.07a4.81 4.81 0 0 1-1.95-2.8 4.7 4.7 0 0 1 .43-3.35A1.03 1.03 0 0 0 1.6.95c.03-.07.05-.07.1-.01a13.44 13.44 0 0 0 1.59 1.59 14.17 14.17 0 0 0 5.97 3c.68.16 1.37.27 2.06.32.14 0 .27.02.4.04.07 0 .1 0 .08-.09a4.69 4.69 0 0 1 .39-3.1A4.88 4.88 0 0 1 14.46.48 4.91 4.91 0 0 1 16.52 0a5 5 0 0 1 2.21.45 4.71 4.71 0 0 1 1.41.98.2.2 0 0 0 .2.06A10.22 10.22 0 0 0 23.27.4l.1-.05a4.9 4.9 0 0 1-2.12 2.64A9.87 9.87 0 0 0 24 2.25a.12.12 0 0 1-.04.09 9.73 9.73 0 0 1-2.32 2.33.17.17 0 0 0-.06.07.16.16 0 0 0-.02.09 11.75 11.75 0 0 1-.37 3.56c-.18.76-.43 1.5-.73 2.23a14.02 14.02 0 0 1-1.89 3.19 13.38 13.38 0 0 1-2.05 2.1 13.15 13.15 0 0 1-3 1.86A13.78 13.78 0 0 1 8 18.99a14.56 14.56 0 0 1-3.02-.21 14.2 14.2 0 0 1-3.39-1.06 16.1 16.1 0 0 1-1.56-.84L0 16.87v-.02z"/>
    </symbol>
    <symbol id="icon-social-linkedin" viewBox="0 0 22 22">
        <path d="M17.4167 0H4.58333C2.05242 0 0 2.05242 0 4.58333V17.4167C0 19.9476 2.05242 22 4.58333 22H17.4167C19.9485 22 22 19.9476 22 17.4167V4.58333C22 2.05242 19.9485 0 17.4167 0ZM7.33333 17.4167H4.58333V7.33333H7.33333V17.4167ZM5.95833 6.171C5.07283 6.171 4.35417 5.44683 4.35417 4.554C4.35417 3.66117 5.07283 2.937 5.95833 2.937C6.84383 2.937 7.5625 3.66117 7.5625 4.554C7.5625 5.44683 6.84475 6.171 5.95833 6.171ZM18.3333 17.4167H15.5833V12.2797C15.5833 9.19233 11.9167 9.42608 11.9167 12.2797V17.4167H9.16667V7.33333H11.9167V8.95125C13.1963 6.58075 18.3333 6.40567 18.3333 11.2209V17.4167Z"/>
    </symbol>
    <symbol id="icon-social-whatsapp" viewBox="0 0 24 24">
        <path fill-rule="evenodd" d="M20.5 3.5A11.9 11.9 0 0 0 16.6.9 12 12 0 0 0 12 0 12 12 0 0 0 .2 11.9a11.8 11.8 0 0 0 1.6 6L0 24l6.3-1.7a12 12 0 0 0 5.7 1.5 12 12 0 0 0 12-11.9 11.8 11.8 0 0 0-.9-4.6 11.8 11.8 0 0 0-2.6-3.8zm-8.4 18.3A10 10 0 0 1 7 20.4l-.4-.2-3.7 1 1-3.7-.3-.3a9.8 9.8 0 0 1-1.5-5.3A10 10 0 0 1 16 2.8a10 10 0 0 1 3 2.1 9.8 9.8 0 0 1 2.9 7 10 10 0 0 1-10 9.9zm5.4-7.4-2-1c-.3 0-.5-.1-.7.2l-1 1.1c-.1.2-.3.2-.6.1-.3-.2-1.3-.5-2.4-1.5a8.9 8.9 0 0 1-1.7-2c-.1-.3 0-.5.2-.6l.4-.6c.2-.1.2-.3.3-.5v-.5L9 7c-.2-.6-.4-.5-.6-.5a12 12 0 0 0-.6 0 1.1 1.1 0 0 0-.8.4c-.3.3-1 1-1 2.4 0 1.5 1 3 1.2 3.1.1.2 2.1 3.2 5.1 4.5.6.2 1.1.5 1.7.6a4 4 0 0 0 1.9.1c.6 0 1.7-.7 2-1.4l.2-1.4-.6-.3z" clip-rule="evenodd"/>
    </symbol>
</svg>
