<?xml version="1.0" encoding="utf-8"?>
<svg xmlns="http://www.w3.org/2000/svg">
  <symbol viewBox="0 0 22 22" id="icon-bank">
    <path
      d="M21 20a1 1 0 010 2H1a1 1 0 010-2h20zm-2-3a1 1 0 010 2H3a1 1 0 010-2h16zM6 8v8H4V8h2zm12 0v8h-2V8h2zm-4 0v8h-2V8h2zm-4 0v8H8V8h2zM11.53.152l8 5C20.382 5.684 20.005 7 19 7H3c-1.005 0-1.382-1.316-.53-1.848l8-5a1 1 0 011.06 0zM11 2.179L6.487 5h9.026L11 2.18z"
    />
  </symbol>
  <symbol viewBox="0 0 23 23" id="icon-bids">
    <path
      d="M16.707 9.707l2-2a.998.998 0 000-1.414l-6-6a1 1 0 00-1.414 0l-11 11a.998.998 0 000 1.414l6 6a.999.999 0 001.414 0l3-3 .293-.293 7.293 7.293a1 1 0 001.414 0l3-3a.998.998 0 000-1.414L15.414 11l1.293-1.293zM20.586 19L19 20.586 12.414 14 14 12.414 20.586 19zM7 16.586L2.414 12 12 2.414 16.586 7l-1.293 1.293-2 2-3 3-1 1L7 16.586zM2 21h10a1 1 0 010 2H2a1 1 0 010-2z"
    />
  </symbol>
  <symbol viewBox="0 0 22 22" id="icon-calendar">
    <path
      fill-rule="evenodd"
      d="M17 0a1 1 0 011 1v1h3a1 1 0 01.993.883L22 3v18a1 1 0 01-1 1H1a1 1 0 01-1-1V3a1 1 0 011-1h3V1a1 1 0 112 0v1h10V1a1 1 0 011-1zm3 7H2v13h18V7zM7 9a1 1 0 011 1v2a1 1 0 01-1 1H5a1 1 0 01-1-1v-2a1 1 0 011-1h2zm5 0a1 1 0 011 1v2a1 1 0 01-1 1h-2a1 1 0 01-1-1v-2a1 1 0 011-1h2zm5 0a1 1 0 011 1v2a1 1 0 01-1 1h-2a1 1 0 01-1-1v-2a1 1 0 011-1h2z"
    />
  </symbol>
  <symbol viewBox="0 0 24 24" id="icon-cart">
    <path
      fill-rule="evenodd"
      d="M0 3a1 1 0 0 1 1-1h3a.997.997 0 0 1 .98.798L5.719 6h15.28a1.001 1.001 0 0 1 .973 1.237l-1.992 8.961a1 1 0 0 1-1.009.802H7.03a1.001 1.001 0 0 1-1.007-.791L3.204 4H1a1 1 0 0 1-1-1Zm18.198 12 1.555-7H6.18l1.615 7h10.403Z"
      clip-rule="evenodd"
    />
    <path
      d="M8 23a2 2 0 1 0 0-4 2 2 0 0 0 0 4Zm12-2a2 2 0 1 1-4 0 2 2 0 0 1 4 0Z"
    />
  </symbol>
  <symbol viewBox="0 0 20 20" id="icon-categories">
    <path
      d="M15.5 9a4.498 4.498 0 01-3.182-7.682A4.5 4.5 0 0120 4.5 4.5 4.5 0 0115.5 9zm1.768-6.268a2.5 2.5 0 10-3.535 3.536 2.5 2.5 0 003.535-3.536zM4.5 9a4.5 4.5 0 110-9 4.5 4.5 0 010 9zm0-7a2.5 2.5 0 100 5 2.5 2.5 0 000-5zM.343 17.222a4.5 4.5 0 108.313-3.445 4.5 4.5 0 00-8.313 3.445zM2 15.5a2.5 2.5 0 115 0 2.5 2.5 0 01-5 0zM15.5 20a4.498 4.498 0 01-3.182-7.682A4.5 4.5 0 0120 15.5a4.5 4.5 0 01-4.5 4.5zm0-7a2.5 2.5 0 100 5 2.5 2.5 0 000-5z"
    />
  </symbol>
  <symbol viewBox="0 0 22 22" id="icon-clock">
    <path
      fill-rule="evenodd"
      d="M22 11c0 6.075-4.925 11-11 11S0 17.075 0 11 4.925 0 11 0s11 4.925 11 11zm-2 0a9 9 0 01-9 9 9 9 0 01-9-9 9 9 0 019-9 9 9 0 019 9zM10 5a1 1 0 012 0v5.59l2.7 2.71a1 1 0 01-1.41 1.41l-3-3A1 1 0 0110 11V5z"
    />
  </symbol>
  <symbol viewBox="0 0 22 16" id="icon-credit-card">
    <path
      fill-rule="evenodd"
      d="M21 0a1 1 0 011 1v14a1 1 0 01-1 1H1a1 1 0 01-1-1V1a1 1 0 011-1zm-1 8H2v6h18V8zm0-6H2v2h18V2z"
    />
  </symbol>
  <symbol viewBox="0 0 18 24" id="icon-deals">
    <path
      d="M9 24a1 1 0 01-1-1v-8.003H.997a1 1 0 01-.85-1.52L8.15.473a1 1 0 011.85.52v8.003h7.004a1 1 0 01.85 1.52L9.851 23.52A1 1 0 019 24zM8 4.524l-5.213 8.473H9a1 1 0 011 1v5.472l5.213-8.473H9a1 1 0 01-1-1V4.524z"
    />
  </symbol>
  <symbol viewBox="0 0 23 22" id="icon-delete">
    <path
      fill-rule="evenodd"
      d="M15.78 4H21a1.001 1.001 0 010 2h-1.51l-1.391 14.25a2 2 0 01-2 1.75H5.9a2 2 0 01-1.99-1.78L2.509 6H1a1 1 0 010-2h5.219l.431-1.73A3 3 0 019.559 0h2.881a3 3 0 012.909 2.27L15.78 4zM5.889 20H16.09l1.379-14H4.53l1.359 14zM8.59 2.76L8.28 4h5.439l-.25-1.24a.998.998 0 00-1-.76H9.59a1 1 0 00-1 .76zM8 10v6a1 1 0 002 0v-6a1.001 1.001 0 00-2 0zm4 6v-6a1 1 0 012 0v6a1.001 1.001 0 01-2 0z"
    />
  </symbol>
  <!-- event deprecated in favour of gift -->
  <symbol viewBox="0 0 22 22" id="icon-event">
    <path
      fill-rule="evenodd"
      d="M16 5h5a1 1 0 011 1v4a1 1 0 01-1 1h-1v10a1 1 0 01-1 1H3a1 1 0 01-1-1V11H1a1 1 0 01-1-1V6a1 1 0 011-1h5A3 3 0 016.1.88a3.07 3.07 0 014.24 0c.278.284.517.603.71.95.193-.347.432-.666.71-.95a3.07 3.07 0 014.24 0A3 3 0 0116 5zm-1.522-2.658a1 1 0 00-1.358-.052A5.562 5.562 0 0012 5a5.815 5.815 0 002.53-1.3 1 1 0 00-.052-1.358zM7.46 2.29a1 1 0 011.41 0A5.514 5.514 0 0110 5a5.79 5.79 0 01-2.54-1.29.999.999 0 01.01-1.42h-.01zM12 20h6v-9h-6v9zm-2 0H4v-9h6v9zM2 9h18V7H2v2z"
    />
  </symbol>
  <symbol viewBox="0 0 22 22" id="icon-gift">
    <path
      fill-rule="evenodd"
      d="M16 5h5a1 1 0 011 1v4a1 1 0 01-1 1h-1v10a1 1 0 01-1 1H3a1 1 0 01-1-1V11H1a1 1 0 01-1-1V6a1 1 0 011-1h5A3 3 0 016.1.88a3.07 3.07 0 014.24 0c.278.284.517.603.71.95.193-.347.432-.666.71-.95a3.07 3.07 0 014.24 0A3 3 0 0116 5zm-1.522-2.658a1 1 0 00-1.358-.052A5.562 5.562 0 0012 5a5.815 5.815 0 002.53-1.3 1 1 0 00-.052-1.358zM7.46 2.29a1 1 0 011.41 0A5.514 5.514 0 0110 5a5.79 5.79 0 01-2.54-1.29.999.999 0 01.01-1.42h-.01zM12 20h6v-9h-6v9zm-2 0H4v-9h6v9zM2 9h18V7H2v2z"
    />
  </symbol>
  <symbol viewBox="0 0 23 21" id="icon-support">
    <path
      d="M10 1C7.288 1 5.091 3.236 5.091 6c0 1.505.656 4.52 1.69 5.436l-3.594 1.652C1.819 14.058.998 15.69 1 17.438v2.69c0 .481.366.871.818.871h16.364c.451 0 .817-.39.817-.87v-2.69a5.194 5.194 0 00-1.098-3.3 5.357 5.357 0 00-1.047-.989l-3.657-1.695c1.047-.917 1.712-3.939 1.712-5.456 0-2.762-2.198-5-4.909-5m0 2c1.604 0 2.909 1.346 2.909 3 0 1.355-.623 3.521-1.03 3.951a2 2 0 00.477 3.32l3.466 1.606c.192.152.365.324.509.501.443.562.681 1.283.668 2.061V19H3v-1.563c-.001-1.046.449-2.013 1.213-2.619l3.403-1.564a1.998 1.998 0 001.152-1.517 1.981 1.981 0 00-.645-1.783C7.706 9.508 7.091 7.348 7.091 6c0-1.654 1.305-3 2.909-3zM20.613.21A5.991 5.991 0 0123 5a5.991 5.991 0 01-2.384 4.788 1 1 0 11-1.206-1.595A3.992 3.992 0 0021 5a3.992 3.992 0 00-1.592-3.194A1 1 0 1120.613.21zM17.71 2.295C18.54 3.13 19 3.957 19 5c0 1.044-.459 1.871-1.292 2.706a1 1 0 01-1.416-1.412C16.787 5.797 17 5.414 17 5c0-.413-.213-.797-.709-1.294a1 1 0 011.418-1.412z"
    />
  </symbol>
  <symbol viewBox="0 0 16 22" id="icon-location">
    <path
      d="M8 0a8 8 0 018 8c0 1.9-.47 3.296-1.496 4.764l-.218.301-1.487 1.817c-.773.953-1.641 2.048-2.077 2.69-.506.746-1.108 2.015-1.788 3.786-.328.854-1.536.856-1.866.003l-.274-.69c-.583-1.436-1.102-2.487-1.545-3.142l-.296-.417c-1.046-1.428-3.166-3.954-3.258-4.077l-.199-.276C.47 11.293 0 9.901 0 8a8 8 0 018-8zm0 2a6 6 0 00-6 6c0 1.469.333 2.47 1.134 3.612l.167.23c.04.054 2.36 2.817 3.416 4.296l.188.27c.302.446.617 1.012.949 1.702l.143.304.14-.297c.323-.674.633-1.23.93-1.668l.195-.28c1.065-1.486 3.382-4.246 3.436-4.319l.167-.23C13.666 10.473 14 9.468 14 8a6 6 0 00-6-6zm0 2a4 4 0 110 8 4 4 0 010-8zm0 2a2 2 0 100 4 2 2 0 000-4z"
    />
  </symbol>
  <symbol viewBox="0 0 18 22" id="icon-locked">
    <path
      fill-rule="evenodd"
      d="M9 0a6 6 0 015.996 5.775L15 6v2h2a1 1 0 01.993.883L18 9v12a1 1 0 01-.883.993L17 22H1a1 1 0 01-.993-.883L0 21V9a1 1 0 01.883-.993L1 8h2V6a6 6 0 016-6zm0 12a2 2 0 00-1.134 3.647l.134.085V17a1 1 0 001.993.117L10 17l.001-1.268A2 2 0 009 12zM9 2a4 4 0 00-3.995 3.8L5 6v2h8V6a4 4 0 00-4-4z"
    />
  </symbol>
  <symbol viewBox="0 0 22 24" id="icon-profile">
    <path
      d="M11 0a6 6 0 00-6 6c0 1.808.802 5.424 2.066 6.524 0 0-3.345 1.388-4.393 1.982C.901 15.511-.002 17.629 0 19.728v3.226C0 23.532.447 24 1 24h20c.552 0 1-.468 1-1.046v-3.226c.001-2.099-.902-4.217-2.674-5.222-1.048-.594-4.393-1.982-4.393-1.982C16.197 11.424 17 7.808 17 6a6 6 0 00-6-6m0 2c2.205 0 4 1.794 4 4 0 1.747-.836 4.523-1.38 5.016a2 2 0 00.546 3.355c1.25.519 3.488 1.486 4.174 1.875 1.01.572 1.661 1.938 1.66 3.482V22H2v-2.274c-.002-1.542.65-2.908 1.66-3.48.685-.389 2.923-1.356 4.173-1.875a2.004 2.004 0 001.19-1.519 2.032 2.032 0 00-.643-1.836C7.834 10.523 7 7.747 7 6c0-2.206 1.794-4 4-4"
    />
  </symbol>
  <symbol viewBox="0 0 22 20" id="icon-purchases">
    <path
      d="M20 13h-6c-.6 0-1-.4-1-1s.4-1 1-1h6v2zM3 18c-.6 0-1-.4-1-1V5.8c.3.1.7.2 1 .2h17v3h-6c-1.7 0-3 1.3-3 3s1.3 3 3 3h6v3H3zM18 4H3c-.6 0-1-.4-1-1s.4-1 1-1h15v2zm2-2V1c0-.6-.4-1-1-1H3C1.3 0 0 1.3 0 3v14c0 1.7 1.3 3 3 3h18c.6 0 1-.4 1-1V5c0-.6-.4-1-1-1h-1V2z"
    />
  </symbol>
  <symbol viewBox="0 0 22 18" id="icon-red-laser">
    <path
      d="M1 0a1 1 0 00-1 1v16a1 1 0 002 0V1a1 1 0 00-1-1zm5 0a1 1 0 00-1 1v13a1 1 0 002 0V1a1 1 0 00-1-1zm4 1a1 1 0 012 0v13a1 1 0 01-2 0V1zm6-1a1 1 0 00-1 1v13a1 1 0 002 0V1a1 1 0 00-1-1zm4 1a1 1 0 012 0v16a1 1 0 01-2 0V1z"
    />
  </symbol>
  <symbol viewBox="0 0 22 22" id="icon-selling">
    <path
      d="M0 10.047a.993.993 0 00.287.709L11.24 21.708a.998.998 0 001.413-.002l9.054-9.054a1 1 0 000-1.414L10.757.288a.993.993 0 00-.71-.288L4.044.025c-.266 0-.522.105-.711.293L.318 3.332c-.188.19-.294.446-.293.712L0 10.047zm4.446-8.022l5.182-.022 9.964 9.954-7.624 7.625-9.965-9.964.021-5.172 2.422-2.421zM6.962 5.48a1.48 1.48 0 11-2.96 0 1.48 1.48 0 012.96 0z"
    />
  </symbol>
  <symbol id="icon-small-box" viewBox="0 0 18 12">
    <path
      d="M17.796 4.395L14.805.406A.994.994 0 0013.984 0H4a.998.998 0 00-.809.412L.208 4.39A.997.997 0 000 5.01V11a1 1 0 001 1h16a1 1 0 001-1V5.01a.999.999 0 00-.204-.615zM16 10h-6V6h6v4zm-8 0H2V6h6v4zm2-6V2h3.5L15 4h-5zM8 2v2H3l1.5-2H8z"
    />
  </symbol>
  <symbol viewBox="0 0 22 22" id="icon-store">
    <path
      fill-rule="evenodd"
      d="M17.999 0a1 1 0 01.8.4l3 4a1.071 1.071 0 01.053.078c.098.16.145.33.148.5L21.998 5v3a1 1 0 01-.105.447c-.23.461-.538.845-.895 1.15V21a1 1 0 01-.883.993l-.117.007H2.001a1 1 0 01-.993-.883L1.001 21V9.597a3.638 3.638 0 01-.799-.971l-.095-.179A1 1 0 01.002 8V5L0 4.977A.987.987 0 01.202 4.4l-.054.078.028-.043.026-.035 3-4A1 1 0 014 0zm-2 9.596l-.06.051c-1.1.902-2.652 1.089-3.94.56V20h7v-9.531c-1.033.13-2.114-.144-2.94-.822l-.06-.051zM10 17.999H3.001V20H10v-2.001zM6 9.596l-.059.051c-.826.677-1.907.951-2.94.822v5.53H10v-5.792c-1.222.502-2.683.36-3.77-.429l-.17-.13L6 9.595zM16.999 12a1 1 0 011 1v2a1 1 0 01-1 1h-3a1 1 0 01-1-1v-2a1 1 0 011-1h3zm2.999-6H2.001v1.732l.056.08c.721.957 2.33.915 2.974-.124l.14-.245a1 1 0 011.724.11l.075.135c.699 1.126 2.528 1.081 3.136-.135l.063-.11a1 1 0 011.725.11l.076.135c.698 1.126 2.527 1.081 3.135-.135l.063-.11a1 1 0 011.725.11l.076.135c.645 1.04 2.252 1.081 2.974.125l.055-.082V6zm-2.5-4H4.502L3 4H19l-1.5-2z"
    />
  </symbol>
  <symbol viewBox="0 0 18 22" id="icon-unlocked">
    <path
      fill-rule="evenodd"
      d="M9 0a6 6 0 015.996 5.775L15 6v2h2a1 1 0 01.993.883L18 9v12a1 1 0 01-.883.993L17 22H1a1 1 0 01-.993-.883L0 21V9a1 1 0 01.883-.993L1 8h12V6a4 4 0 00-7.995-.2L5 6H3a6 6 0 016-6zm7 10H2v10h14V10zm-7 2a2 2 0 011.001 3.732L10 17a1 1 0 01-2 0v-1.268A2 2 0 019 12z"
    />
  </symbol>
  <symbol viewBox="0 0 24 18" id="icon-watch">
    <path
      fill-rule="evenodd"
      d="M23.79 9.386L17.193.904A2.344 2.344 0 0013 2.343a1 1 0 002 0 .354.354 0 01.614-.21L20.955 9H16a2.996 2.996 0 00-2.884 2.22 2.938 2.938 0 00-2.232 0A2.996 2.996 0 008 9H3.045l5.341-6.867a.355.355 0 01.614.21 1 1 0 002 0A2.343 2.343 0 006.807.904L.21 9.386c-.02.036-.039.073-.055.111a.948.948 0 00-.09.182.985.985 0 00-.041.2A.98.98 0 000 10c0 .011.003.022.006.032.003.009.005.018.006.028.006.068.02.136.041.201.013.06.032.119.057.175a.99.99 0 00.1.15c.04.057.086.11.137.158a.085.085 0 01.018.021c.007.009.013.017.021.024a.94.94 0 00.142.076.953.953 0 00.116.063c.113.046.234.07.356.072v4a3.003 3.003 0 003 3h3a4.004 4.004 0 004-4 1 1 0 012 0 4.004 4.004 0 004 4h3a3.003 3.003 0 003-3v-4a1 1 0 00.79-1.614zM7 16H4c-.552 0-.999-.448-1-1v-4h5c.552 0 .999.448 1 1v2a2.002 2.002 0 01-2 2zm13 0c.552 0 .999-.448 1-1v-4h-5c-.552 0-.999.448-1 1v2a2.002 2.002 0 002 2h3z"
    />
  </symbol>
  <symbol id="icon-following" viewBox="0 0 16 22">
    <path
      fill-rule="evenodd"
      d="M16 1a1 1 0 00-1-1H1a1 1 0 00-1 1v20a1 1 0 001.707.707L8 15.414l6.293 6.293A1 1 0 0016 21V1zm-2 17.586l-5.293-5.293a1 1 0 00-1.414 0L2 18.586V2h12v16.586z"
    />
  </symbol>
  <symbol viewBox="0 0 24 24" id="icon-flag">
    <path
      d="M20.953 1.695A.999.999 0 0 0 19.987 1H6a1 1 0 0 0-1 1v20a1 1 0 1 0 2 0v-9h12.979c.036 0 .072 0 .107-.004a1 1 0 0 0 .466-1.83L14.72 7l5.85-4.178a1.007 1.007 0 0 0 .428-.761 1 1 0 0 0-.045-.366Z"
    />
  </symbol>
  <symbol id="icon-key" viewBox="0.75 0.25 22.5 13.5">
    <path
      d="M7.343 8.006c.535 0 .976-.455.976-1.006 0-.551-.441-1.006-.976-1.006-.535 0-.976.455-.976 1.006 0 .551.441 1.006.976 1.006zm0 1.866c-1.534 0-2.786-1.29-2.786-2.872 0-1.582 1.252-2.872 2.786-2.872S10.129 5.418 10.129 7c0 1.582-1.252 2.872-2.786 2.872zm-.045 3.878C3.685 13.75.75 10.724.75 7S3.685.25 7.298.25c2.572 0 4.86 1.546 5.92 3.878h8.186c.246 0 .396.01.603.064.764.197 1.243.855 1.243 1.839v1.938c0 1.466-.46 1.903-1.846 1.903l-.035 1.975c0 1.485-.405 1.903-1.845 1.903h-1.881c-1.298 0-1.846-.743-1.846-1.903V9.872h-2.58c-1.06 2.332-3.347 3.878-5.92 3.878zm14.229-7.753a1.984 1.984 0 00-.123-.003H11.97l-.213-.623c-.66-1.934-2.438-3.255-4.46-3.255C4.686 2.116 2.56 4.306 2.56 7c0 2.694 2.125 4.884 4.738 4.884 2.021 0 3.8-1.32 4.46-3.255l.212-.623h5.637v3.841c0 .077.002.122-.002.138-.07-.1-.04-.101.038-.101h1.88c.036-.012.036-.024.036-.037V8.006h1.845c.036-.012.036-.024.036-.037V6.031c0-.079.021-.084.05-.07l.037.036zM21.775 8a.789.789 0 00.025 0h-.025zm-1.852 3.878a.883.883 0 00.028-.001l-.028.001zm-2.318.107c-.004.014-.012.008-.03-.016-.026-.036-.044-.057-.043-.069l.073.085z"
    />
  </symbol>
  <symbol id="icon-top-seller" viewBox="4.65 2.1 14.7 19.96">
    <path
      d="M13.986 19.084h-.993v-3.079L12 15.012l-.993.993v3.08h-.993a1.986 1.986 0 00-1.987 1.986v.993h7.946v-.993a1.986 1.986 0 00-1.987-1.987m1.192-8.343l1.39 5.264L12 12.231l-4.569 3.774 1.39-5.164L4.65 7.364l5.364-.298L12 2.1l1.986 4.966 5.364.298-4.172 3.377"
    />
  </symbol>
  <symbol id="icon-user-profile" viewBox="0 0 22 22">
    <path
      stroke="#000"
      stroke-width=".2"
      d="M11 19.925a8.925 8.925 0 100-17.85 8.925 8.925 0 000 17.85zm0 1.575C5.201 21.5.5 16.799.5 11S5.201.5 11 .5 21.5 5.201 21.5 11 16.799 21.5 11 21.5zm6.052-3.829a2.21 2.21 0 00-1.317-2.025l-2.439-1.023a1.816 1.816 0 01-1.116-1.727 1.81 1.81 0 01.708-1.406c.961-.735 1.365-1.94 1.055-3.146-.326-1.264-1.48-2.147-2.807-2.147-.81 0-1.57.317-2.141.893a2.934 2.934 0 00.306 4.4c.437.335.695.848.708 1.406a1.816 1.816 0 01-1.116 1.727l-2.439 1.023a2.2 2.2 0 00-1.313 1.892.744.744 0 11-1.484-.09 3.688 3.688 0 012.21-3.177l2.453-1.03a.327.327 0 00.202-.311.322.322 0 00-.122-.248 4.423 4.423 0 01-1.744-3.529 4.394 4.394 0 011.286-3.12A4.467 4.467 0 0111.135 4.7a4.373 4.373 0 014.247 3.269c.457 1.773-.169 3.622-1.593 4.713a.322.322 0 00-.122.248.327.327 0 00.202.312l2.453 1.029a3.706 3.706 0 012.217 3.4h-1.487z"
    />
  </symbol>
  <symbol viewBox="0 0 24 24" id="icon-history">
    <path
      d="M5.07 8a8 8 0 1 1 .324 8.514c-.322-.471-.95-.664-1.445-.378-.46.266-.635.852-.345 1.298A9.992 9.992 0 0 0 12 22c5.523 0 10-4.477 10-10S17.523 2 12 2a9.993 9.993 0 0 0-8.51 4.745l-.595-1.192a1 1 0 0 0-1.79.894l1.491 2.981a1 1 0 0 0 .926.572H7a1 1 0 1 0 0-2H5.07Z"
    />
    <path
      d="M13 8a1 1 0 1 0-2 0v5a1 1 0 0 0 .293.707l2 2a1 1 0 1 0 1.414-1.414L13 12.586V8Z"
    />
  </symbol>
  <symbol viewBox="0 0 24 24" id="icon-lightbulb">
    <path
      fill-rule="evenodd"
      d="m8.039 18.279-.035-.105c-.226-.68-.357-1.072-.574-1.525-.232-.486-.574-1.063-1.262-2.094l-.052-.078C5.148 13.026 4 11.304 4 9a8 8 0 1 1 16 0c0 2.304-1.148 4.026-2.116 5.477l-.052.078c-.688 1.031-1.03 1.608-1.262 2.094-.217.453-.348.845-.574 1.525l-.035.105-.612 2.449A3 3 0 0 1 12.439 23h-.877a3 3 0 0 1-2.91-2.272l-.613-2.45ZM6 9a6 6 0 1 1 12 0c0 1.654-.81 2.913-1.832 4.445-.699 1.049-1.107 1.722-1.403 2.341-.197.412-.34.792-.485 1.214H13v-5.586l1.707-1.707a1 1 0 0 0-1.414-1.414L12 9.586l-1.293-1.293a1 1 0 0 0-1.414 1.414L11 11.414V17H9.72a10.93 10.93 0 0 0-.485-1.214c-.296-.619-.704-1.292-1.403-2.34C6.811 11.912 6 10.653 6 9Zm7.72 10h-3.44l.311 1.243a1 1 0 0 0 .97.757h.877a1 1 0 0 0 .97-.757L13.72 19Z"
      clip-rule="evenodd"
    />
  </symbol>
  <symbol id="icon-report-flag" viewBox="0 0 24 24">
    <path
      fill-rule="evenodd"
      d="M16.84 4.07a10.66 10.66 0 01-4.1-.47h-.09a12 12 0 00-4.81-.49.27.27 0 00-.12 0 3.81 3.81 0 00-1.93 1.3A3.7 3.7 0 005 6.59V21a1 1 0 002 0v-6.59a4.84 4.84 0 001.07 0 11.55 11.55 0 014.12.72h.09a12.87 12.87 0 004.78.77 3 3 0 002.14-1.3 4 4 0 00.8-2.2v-6a2.21 2.21 0 00-1.09-2 3.24 3.24 0 00-2-.31z"
    />
  </symbol>
  <symbol viewBox="0 0 24 24" id="icon-vault">
    <path
      fill-rule="evenodd"
      d="M17 11c0 1.02-.305 1.967-.828 2.757l1.535 1.536a1 1 0 0 1-1.414 1.414l-1.536-1.535A4.977 4.977 0 0 1 12 16a4.977 4.977 0 0 1-2.757-.828l-1.536 1.535a1 1 0 0 1-1.414-1.414l1.535-1.536A4.977 4.977 0 0 1 7 11c0-1.02.305-1.967.828-2.757L6.293 6.707a1 1 0 0 1 1.414-1.414l1.536 1.535A4.977 4.977 0 0 1 12 6c1.02 0 1.967.305 2.757.828l1.536-1.535a1 1 0 1 1 1.414 1.414l-1.535 1.536C16.695 9.033 17 9.98 17 11Zm-2 0a3 3 0 1 1-6 0 3 3 0 0 1 6 0Z"
      clip-rule="evenodd"
    />
    <path
      fill-rule="evenodd"
      d="M1 4a4 4 0 0 1 4-4h14a4 4 0 0 1 4 4v14a4.002 4.002 0 0 1-3 3.874V23a1 1 0 0 1-1 1h-2a1 1 0 0 1-1-1v-1H8v1a1 1 0 0 1-1 1H5a1 1 0 0 1-1-1v-1.126A4.002 4.002 0 0 1 1 18V4Zm4-2h14a2 2 0 0 1 2 2v14a2 2 0 0 1-2 2H5a2 2 0 0 1-2-2V4a2 2 0 0 1 2-2Z"
      clip-rule="evenodd"
    />
  </symbol>

  <symbol viewBox="0 0 14 14" id="icon-calendar-small">
    <path
      d="M11 0a1 1 0 011 1v1h1a1 1 0 011 1v10a1 1 0 01-1 1H1a1 1 0 01-1-1V3a1 1 0 011-1h1V1a1 1 0 112 0v1h6V1a1 1 0 011-1zm1 6H2v6h10V6zM5 7a1 1 0 011 1v1a1 1 0 01-1 1H4a1 1 0 01-1-1V8a1 1 0 011-1h1z"
    />
    <symbol viewBox="0 0 16 16" id="icon-cart-small">
      <path
        fill-rule="evenodd"
        d="M2.22 3H1a1 1 0 0 1 0-2h1.979a.993.993 0 0 1 .636.212.996.996 0 0 1 .36.566L4.531 4h8.446a.998.998 0 0 1 .793.361.996.996 0 0 1 .206.858l-.991 4.956a.993.993 0 0 1-.301.555.996.996 0 0 1-.7.27H5.021a.992.992 0 0 1-.636-.212.995.995 0 0 1-.36-.566L2.219 3Zm9.56 3-.6 3h-5.4l-.75-3h6.75Z"
        clip-rule="evenodd"
      />
      <path
        d="M7 14.5a1.5 1.5 0 1 1-3 0 1.5 1.5 0 0 1 3 0Zm6 0a1.5 1.5 0 1 1-3 0 1.5 1.5 0 0 1 3 0Z"
      />
    </symbol>
    <symbol viewBox="0 0 16 16" id="icon-clock-small">
      <path
        d="M8 0a8 8 0 110 16A8 8 0 018 0zm0 2a6 6 0 100 12A6 6 0 008 2zm0 2a1 1 0 011 1v2.59l1.7 1.71a1 1 0 01-1.41 1.41l-2-2A1 1 0 017 8V5a1 1 0 011-1z"
      />
    </symbol>
    <symbol viewBox="0 0 16 12" id="icon-credit-card-small">
      <path
        fill-rule="evenodd"
        d="M15 0a1 1 0 011 1v10a1 1 0 01-1 1H1a1 1 0 01-1-1V1a1 1 0 011-1zm-1 5H2v5h12V5zm0-3H2v1h12V2z"
      />
    </symbol>
    <symbol viewBox="0 0 16 16" id="icon-delete-small">
      <path
        fill-rule="evenodd"
        d="m4.22 4 .573-2.296A2.25 2.25 0 0 1 6.976 0h2.048a2.25 2.25 0 0 1 2.183 1.704L11.78 4H15a1 1 0 1 1 0 2h-1.095l-.82 8.2a2 2 0 0 1-1.99 1.8h-6.19a2 2 0 0 1-1.99-1.8L2.095 6H1a1 1 0 0 1 0-2h3.22Zm2.513-1.81A.25.25 0 0 1 6.976 2h2.048a.25.25 0 0 1 .243.19L9.719 4H6.281l.452-1.81ZM4.98 6h6.916l-.8 8h-6.19l-.8-8h.874Z"
        clip-rule="evenodd"
      />
    </symbol>
    <symbol viewBox="0 0 12 14" id="icon-locked-small">
      <path
        fill-rule="evenodd"
        d="M8 4a2 2 0 00-3.995-.15L4 4v1H2V4a4 4 0 017.995-.2L10 4v1h1a1 1 0 01.993.883L12 6v7a1 1 0 01-.883.993L11 14H1a1 1 0 01-.993-.883L0 13V6a1 1 0 01.883-.993L1 5h7V4zM6 8a1 1 0 00-.993.883L5 9v1a1 1 0 001.993.117L7 10V9a1 1 0 00-1-1z"
      />
    </symbol>
    <symbol viewBox="0 0 14 12" id="icon-red-laser-small">
      <path
        d="M1 0a1 1 0 011 1v10a1 1 0 01-2 0V1a1 1 0 011-1zm12 0a1 1 0 011 1v10a1 1 0 01-2 0V1a1 1 0 011-1zM5 0a1 1 0 011 1v8a1 1 0 11-2 0V1a1 1 0 011-1zm4 0a1 1 0 011 1v8a1 1 0 11-2 0V1a1 1 0 011-1z"
      />
    </symbol>
    <symbol viewBox="0 0 12 14" id="icon-unlocked-small">
      <path
        fill-rule="evenodd"
        d="M6 0a4 4 0 013.995 3.8L10 4v1h1a1 1 0 01.993.883L12 6v7a1 1 0 01-.883.993L11 14H1a1 1 0 01-.993-.883L0 13V6a1 1 0 01.883-.993L1 5h7V4a2 2 0 00-3.995-.15L4 4H2a4 4 0 014-4zm4 7H2v5h8V7zM6 8a1 1 0 011 1v1a1 1 0 01-2 0V9a1 1 0 011-1z"
      />
    </symbol>
    <symbol id="icon-following-small" viewBox="0 0 12 16">
      <path
        d="M11 16a1 1 0 01-.62-.22L6 12.28l-4.38 3.5A1 1 0 010 15V1a1 1 0 011-1h10a1 1 0 011 1v14a1 1 0 01-1 1zm-5-6a1 1 0 01.62.22l3.38 2.7V2H2v10.92l3.38-2.7A1 1 0 016 10z"
      />
    </symbol>
    <symbol id="icon-report-flag-small" viewBox="0 0 16 16">
      <path
        fill-rule="evenodd"
        d="M11.31 1.78a8.52 8.52 0 01-3.09-.34h-.07a10.18 10.18 0 00-3.76-.35h-.12a3.18 3.18 0 00-1.6 1A2.91 2.91 0 002 3.87V14a1 1 0 002 0V9.87a3 3 0 00.6 0 9.14 9.14 0 013.11.52h.07a10.64 10.64 0 003.74.57 2.56 2.56 0 001.8-1A3.07 3.07 0 0014 8.11V3.73A1.86 1.86 0 0013 2a2.82 2.82 0 00-1.69-.25z"
      />
    </symbol>
    <symbol viewBox="0 0 16 16" id="icon-vault-small">
      <path
        fill-rule="evenodd"
        d="M11 8c0 .463-.105.902-.292 1.293l.5.5a1 1 0 0 1-1.415 1.414l-.5-.5C8.902 10.896 8.463 11 8 11a2.99 2.99 0 0 1-1.293-.292l-.5.5a1 1 0 0 1-1.414-1.415l.5-.5A2.988 2.988 0 0 1 5 8c0-.463.105-.902.292-1.293l-.5-.5a1 1 0 0 1 1.415-1.414l.5.5C7.098 5.104 7.537 5 8 5c.463 0 .902.105 1.293.292l.5-.5a1 1 0 0 1 1.414 1.415l-.5.5c.188.391.293.83.293 1.293ZM9 8a1 1 0 1 1-2 0 1 1 0 0 1 2 0Z"
        clip-rule="evenodd"
      />
      <path
        fill-rule="evenodd"
        d="M1 4a3 3 0 0 1 3-3h8a3 3 0 0 1 3 3v8a3.001 3.001 0 0 1-2 2.83V15a1 1 0 0 1-1 1h-1a1 1 0 0 1-1-1H6a1 1 0 0 1-1 1H4a1 1 0 0 1-1-1v-.17A3.001 3.001 0 0 1 1 12V4Zm3-1h8a1 1 0 0 1 1 1v8a1 1 0 0 1-1 1H4a1 1 0 0 1-1-1V4a1 1 0 0 1 1-1Z"
        clip-rule="evenodd"
      />
    </symbol>
  </symbol>
  <symbol viewBox="0 0 24 24" id="icon-filter">
    <path
      d="M3 7a1 1 0 0 1 1-1h16a1 1 0 1 1 0 2H4a1 1 0 0 1-1-1Zm3 5a1 1 0 0 1 1-1h10a1 1 0 1 1 0 2H7a1 1 0 0 1-1-1Zm4 4a1 1 0 1 0 0 2h4a1 1 0 1 0 0-2h-4Z"
    />
  </symbol>
  <symbol viewBox="0 0 16 16" id="icon-filter-small">
    <path
      fill-rule="evenodd"
      d="M2 4a1 1 0 0 1 1-1h10a1 1 0 1 1 0 2H3a1 1 0 0 1-1-1Zm2 4a1 1 0 0 1 1-1h6a1 1 0 1 1 0 2H5a1 1 0 0 1-1-1Zm2 4a1 1 0 0 1 1-1h2a1 1 0 1 1 0 2H7a1 1 0 0 1-1-1Z"
      clip-rule="evenodd"
    />
  </symbol>
  <symbol viewBox="0 0 16 16" id="icon-gift-small">
    <path
      fill-rule="evenodd"
      d="M12.707 4.769a3.51 3.51 0 0 1-.12.231H14a1 1 0 0 1 1 1v3a1 1 0 0 1-1 1v4a1 1 0 0 1-1 1H3a1 1 0 0 1-1-1v-4a1 1 0 0 1-1-1V6a1 1 0 0 1 1-1h1.417a3.464 3.464 0 0 1-.118-.23c-.285-.61-.396-1.329-.186-2.017.22-.717.755-1.281 1.523-1.581 1.12-.437 2.29.03 3.086.894.096.104.188.215.276.332.089-.118.183-.23.28-.336.8-.862 1.977-1.336 3.1-.898.77.3 1.304.867 1.521 1.586.208.689.094 1.409-.192 2.019ZM9.744 3.423c.43-.464.778-.446.907-.396.243.095.308.215.334.301.035.117.037.324-.089.591-.247.527-.9 1.074-1.878 1.08l-.006-.04c.158-.72.442-1.224.732-1.536ZM9 13h3v-3H9v3Zm-2-3v3H4v-3h3Zm6-2V7H3v1h10ZM6.972 5l.006-.041c-.159-.723-.441-1.228-.726-1.537-.42-.456-.758-.438-.889-.387-.244.096-.31.216-.337.303-.036.117-.038.323.086.587.242.52.887 1.064 1.86 1.075Z"
      clip-rule="evenodd"
    />
  </symbol>
  <symbol viewBox="0 0 24 24" id="icon-money-back-guarantee-us">
    <path
      d="M12 0a1 1 0 0 1 1 1v2.074c.872.117 1.724.37 2.475.759 1.154.596 2.155 1.564 2.495 2.925a1 1 0 1 1-1.94.485c-.16-.64-.659-1.212-1.474-1.634-.814-.421-1.859-.642-2.895-.604-1.04.037-1.98.329-2.632.827C8.409 6.305 8 6.992 8 8c0 .59.133.99.318 1.283.188.298.473.55.879.771.86.469 2.058.696 3.482.954l.086.016c1.308.237 2.82.512 3.996 1.154.625.342 1.2.809 1.613 1.465.416.66.626 1.446.626 2.357 0 1.792-.912 3.116-2.213 3.94-1.083.687-2.43 1.032-3.787 1.1V23a1 1 0 0 1-2 0v-2.058c-1.152-.169-2.281-.533-3.25-1.1-1.345-.784-2.447-2.004-2.735-3.672a1 1 0 0 1 1.97-.34c.161.929.783 1.708 1.773 2.286.996.581 2.294.91 3.597.934 1.308.024 2.516-.263 3.361-.799C16.524 17.74 17 17.011 17 16c0-.593-.133-.997-.319-1.292-.188-.299-.473-.553-.88-.775-.86-.47-2.056-.698-3.48-.957l-.097-.018c-1.304-.236-2.81-.51-3.983-1.147-.625-.34-1.2-.805-1.613-1.459C6.21 9.693 6 8.91 6 8c0-1.652.716-2.92 1.816-3.758.909-.694 2.042-1.069 3.184-1.194V1a1 1 0 0 1 1-1Z"
    />
  </symbol>
  <symbol viewBox="0 0 16 16" id="icon-money-back-guarantee-us-small">
    <path
      d="M8 0a1 1 0 0 1 1 1v1.158c1.34.259 2.649.991 3.383 2.373a1 1 0 0 1-1.766.938c-.548-1.03-1.835-1.53-3.152-1.4-.64.063-1.182.27-1.54.547-.338.262-.489.56-.489.897 0 .338.077.528.156.647.083.124.221.247.462.363.532.258 1.297.369 2.293.498l.088.012c.88.114 1.962.254 2.818.668.469.226.922.556 1.253 1.05.335.5.494 1.093.494 1.758 0 1.208-.638 2.106-1.507 2.667-.719.465-1.604.713-2.493.795V15a1 1 0 1 1-2 0v-1.045c0-.02 0-.041.002-.062a7.137 7.137 0 0 1-1.532-.432c-.953-.393-1.859-1.042-2.36-2.013a1 1 0 0 1 1.779-.916c.213.413.663.8 1.344 1.08.673.278 1.485.414 2.268.387.792-.027 1.465-.217 1.907-.503.409-.264.592-.58.592-.987 0-.337-.077-.527-.156-.645-.083-.123-.22-.246-.461-.362-.533-.257-1.297-.368-2.294-.497l-.085-.011c-.88-.114-1.964-.255-2.822-.67-.469-.228-.922-.558-1.252-1.053-.335-.5-.494-1.093-.494-1.758 0-1.067.532-1.911 1.267-2.48.647-.5 1.463-.801 2.297-.922V1a1 1 0 0 1 1-1Z"
    />
  </symbol>
  <symbol viewBox="0 0 16 16" id="icon-scan-small">
    <path
      fill-rule="evenodd"
      d="M0 12.5A2.5 2.5 0 0 0 2.5 15H4a1 1 0 1 0 0-2H2.5a.5.5 0 0 1-.5-.5V11a1 1 0 1 0-2 0v1.5ZM11 5a1 1 0 0 1 1 1v4a1 1 0 1 1-2 0V6a1 1 0 0 1 1-1Zm5 7.5a2.5 2.5 0 0 1-2.5 2.5H12a1 1 0 1 1 0-2h1.5a.5.5 0 0 0 .5-.5V11a1 1 0 1 1 2 0v1.5ZM8 5a1 1 0 0 1 1 1v3a1 1 0 0 1-2 0V6a1 1 0 0 1 1-1ZM5 5a1 1 0 0 1 1 1v4a1 1 0 1 1-2 0V6a1 1 0 0 1 1-1Zm11-1.5A2.5 2.5 0 0 0 13.5 1H12a1 1 0 1 0 0 2h1.5a.5.5 0 0 1 .5.5V5a1 1 0 1 0 2 0V3.5Zm-16 0A2.5 2.5 0 0 1 2.5 1H4a1 1 0 0 1 0 2H2.5a.5.5 0 0 0-.5.5V5a1 1 0 0 1-2 0V3.5Z"
      clip-rule="evenodd"
    />
  </symbol>
  <symbol viewBox="0 0 24 24" id="icon-scan">
    <path
      fill-rule="evenodd"
      d="M0 19a3 3 0 0 0 3 3h2a1 1 0 1 0 0-2H3a1 1 0 0 1-1-1v-2a1 1 0 1 0-2 0v2ZM18 7a1 1 0 0 1 1 1v8a1 1 0 1 1-2 0V8a1 1 0 0 1 1-1Zm6 12a3 3 0 0 1-3 3h-2a1 1 0 1 1 0-2h2a1 1 0 0 0 1-1v-2a1 1 0 1 1 2 0v2ZM14 7a1 1 0 0 1 1 1v6a1 1 0 1 1-2 0V8a1 1 0 0 1 1-1Zm-4 0a1 1 0 0 1 1 1v6a1 1 0 1 1-2 0V8a1 1 0 0 1 1-1ZM6 7a1 1 0 0 1 1 1v8a1 1 0 1 1-2 0V8a1 1 0 0 1 1-1Zm18-2a3 3 0 0 0-3-3h-2a1 1 0 1 0 0 2h2a1 1 0 0 1 1 1v2a1 1 0 1 0 2 0V5ZM0 5a3 3 0 0 1 3-3h2a1 1 0 0 1 0 2H3a1 1 0 0 0-1 1v2a1 1 0 0 1-2 0V5Z"
      clip-rule="evenodd"
    />
  </symbol>
  <symbol viewBox="0 0 16 16" id="icon-lightbulb-small">
    <path
      fill-rule="evenodd"
      d="M4.548 12.306c-.354-1.058-.863-1.89-1.187-2.42a6.934 6.934 0 0 1-.255-.439l.003.006-.007-.01-.036-.062-.004-.007a8.482 8.482 0 0 1-.517-.987C2.279 7.781 2 6.94 2 6a6 6 0 1 1 12 0c0 .94-.278 1.781-.546 2.387a8.484 8.484 0 0 1-.383.76l-.133.227-.004.007-.036.061-.007.011.003-.006a6.78 6.78 0 0 1-.255.438c-.324.53-.832 1.361-1.186 2.418a.716.716 0 0 1-.004.013l-.658 1.975A2.5 2.5 0 0 1 8.419 16H7.58a2.5 2.5 0 0 1-2.372-1.71l-.658-1.975a.62.62 0 0 1-.003-.01ZM4 6a4 4 0 1 1 8 0c0 .989-.483 1.829-.758 2.306-.054.094-.1.175-.132.239l-.003.005-.036.058-.062.102-.07.115A20.015 20.015 0 0 0 10.271 10H9V7.478l.868-.7a1 1 0 1 0-1.256-1.556L8 5.716l-.623-.5a1 1 0 0 0-1.252 1.56L7 7.479V10H5.728a20.021 20.021 0 0 0-.666-1.175l-.07-.114a24.872 24.872 0 0 1-.098-.161l-.004-.006c-.032-.064-.078-.143-.132-.238C4.483 7.83 4 6.99 4 6Zm2.554 6h2.892l-.553 1.658A.5.5 0 0 1 8.42 14h-.84a.5.5 0 0 1-.474-.342L6.554 12Z"
      clip-rule="evenodd"
    />
  </symbol>
  <symbol viewBox="0 0 21 13" id="icon-visa-xsmall" fill="none">
    <g clip-path="path('M0.833008 0.38031H20.833V12.3803H0.833008V0.38031Z')">
      <rect x="1.33301" y="0.88031" width="19" height="11" rx="1.5" fill="white" stroke="black"/>
      <path
        d="m9.148 4.27-1.93 4.352H5.96L5.01 5.15c-.058-.214-.107-.293-.283-.383-.286-.147-.759-.284-1.174-.37l.028-.126h2.026c.258 0 .49.163.549.444l.501 2.518 1.24-2.962h1.25Zm4.932 2.931c.005-1.148-1.68-1.212-1.669-1.725.004-.156.162-.322.505-.364a2.353 2.353 0 0 1 1.175.194l.209-.923a3.352 3.352 0 0 0-1.114-.193c-1.177 0-2.006.592-2.013 1.439-.007.626.591.976 1.043 1.184.464.214.62.35.618.541-.003.292-.37.421-.713.426-.599.009-.946-.153-1.223-.275l-.216.954c.279.12.792.226 1.325.231 1.25 0 2.069-.584 2.073-1.489m3.108 1.421h1.101l-.961-4.352H16.31a.565.565 0 0 0-.305.086.52.52 0 0 0-.201.233l-1.787 4.033h1.25l.248-.65h1.528l.144.65ZM15.859 7.08l.627-1.634.36 1.634h-.987Zm-5.01-2.81-.985 4.352h-1.19l.985-4.352h1.19Z"
        fill="#1434CB"
      />
    </g>
  </symbol>
  <symbol viewBox="0 0 31 19" id="icon-visa-small">
    <g clip-path="path('M.833.38h30v18h-30v-18Z')">
      <rect width="29" height="17" x="1.333" y=".88" stroke="#000" rx="1.5"  fill="white" stroke="black"/>
      <path
        d="m13.306 6.215-2.894 6.528H8.523L7.1 7.533c-.086-.321-.161-.439-.424-.574-.43-.22-1.139-.427-1.762-.555l.042-.19h3.04a.82.82 0 0 1 .823.666l.752 3.778 1.859-4.443h1.877Zm7.398 4.397c.007-1.723-2.52-1.818-2.503-2.588.005-.234.242-.483.758-.547.256-.031.96-.056 1.761.292l.314-1.384a5.028 5.028 0 0 0-1.671-.29c-1.766 0-3.008.887-3.019 2.158-.011.94.887 1.465 1.564 1.777.696.32.93.525.927.811-.005.438-.555.632-1.07.64-.898.012-1.419-.23-1.834-.413l-.323 1.43c.417.181 1.187.34 1.986.347 1.877 0 3.104-.876 3.11-2.234m4.662 2.132h1.652l-1.442-6.528H24.05a.847.847 0 0 0-.458.129.78.78 0 0 0-.302.35l-2.68 6.049h1.875l.372-.975h2.291l.217.975Zm-1.993-2.313.94-2.452.541 2.452h-1.481Zm-7.515-4.215-1.477 6.528h-1.787l1.478-6.528h1.786Z"
        fill="#1434CB"
      />
    </g>
  </symbol>
  <symbol viewBox="0 0 39 25" id="icon-visa">
    <g clip-path="path('M.833.38h38v24h-38v-24Z')">
      <rect width="37" height="23" x="1.333" y=".88" stroke="#000" rx="1.5"  fill="white" stroke="black"/>
      <path
        d="m16.631 8.16-3.665 8.704h-2.392L8.77 9.917c-.11-.428-.204-.585-.538-.765-.544-.293-1.442-.569-2.231-.74l.053-.252h3.85c.49 0 .932.325 1.043.887l.953 5.037 2.354-5.924h2.377Zm9.371 5.862c.01-2.297-3.192-2.424-3.17-3.45.007-.312.307-.644.96-.73.324-.041 1.217-.074 2.231.39l.398-1.845A6.084 6.084 0 0 0 24.304 8c-2.237 0-3.81 1.183-3.824 2.877-.014 1.254 1.123 1.953 1.98 2.37.883.426 1.178.7 1.175 1.081-.006.584-.703.842-1.355.852-1.137.018-1.797-.306-2.323-.55l-.41 1.907c.529.242 1.505.452 2.516.463 2.377 0 3.932-1.168 3.94-2.978m5.905 2.842H34L32.174 8.16h-1.932a1.033 1.033 0 0 0-.962.638l-3.396 8.066h2.376l.472-1.3h2.902l.274 1.3Zm-2.525-3.084 1.191-3.269.685 3.268h-1.876Zm-9.519-5.62-1.87 8.704H15.73l1.871-8.704h2.262Z"
        fill="#1434CB"
      />
    </g>
  </symbol>
  <symbol fill="none" viewBox="0 0 51 33" id="icon-visa-large">
      <g clip-path="path('M.8.4h50v32H.8V.4Z')">
        <rect width="49" height="31" x="1.3" y=".9" fill="#fff" stroke="#000" rx="1.5"/>
        <path fill="#1434CB" d="m21.6 10.8-4.8 11.6h-3.2L11.3 13c-.2-.6-.3-.8-.7-1-.7-.4-2-.8-3-1l.1-.3h5c.7 0 1.3.4 1.4 1.1l1.3 6.8 3-8h3.2ZM34 18.6c0-3-4.2-3.3-4.2-4.6 0-.4.4-.9 1.2-1 .5 0 1.6-.1 3 .5l.5-2.4a8 8 0 0 0-2.8-.6c-3 0-5 1.6-5 3.9 0 1.6 1.5 2.6 2.6 3.1 1.2.6 1.5 1 1.5 1.5 0 .8-.9 1.1-1.7 1.1-1.5 0-2.4-.4-3.1-.7l-.5 2.5c.7.3 2 .6 3.3.6 3.1 0 5.1-1.5 5.2-4m7.7 3.9h2.8L42 10.8h-2.6a1.3 1.3 0 0 0-1.2.8l-4.5 10.8h3.1l.6-1.8h3.9l.3 1.8Zm-3.3-4.2L40 14l.9 4.3h-2.5Zm-12.5-7.4-2.5 11.6h-3L23 10.8h3Z"/>
      </g>
  </symbol>
  <symbol viewBox="0 0 24 24" id="icon-archive">
    <path d="M9 10a1 1 0 1 0 0 2h6a1 1 0 1 0 0-2H9Z" />
    <path
      fill-rule="evenodd"
      d="M1 3a2 2 0 0 1 2-2h18a2 2 0 0 1 2 2v3a2 2 0 0 1-1 1.732V20a3 3 0 0 1-3 3H5a3 3 0 0 1-3-3V7.732A2 2 0 0 1 1 6V3Zm3 5h16v12a1 1 0 0 1-1 1H5a1 1 0 0 1-1-1V8Zm17-5H3v3h18V3Z"
      clip-rule="evenodd"
    />
  </symbol>
  <symbol viewBox="0 0 16 16" id="icon-archive-small">
    <path
      fill-rule="evenodd"
      d="M1 2.5A1.5 1.5 0 0 1 2.5 1h11A1.5 1.5 0 0 1 15 2.5v3a1.5 1.5 0 0 1-1 1.415V12.5a2.5 2.5 0 0 1-2.5 2.5h-7A2.5 2.5 0 0 1 2 12.5V6.915A1.5 1.5 0 0 1 1 5.5v-3ZM13 5H3V3h10v2Zm-1 2H4v5.5a.5.5 0 0 0 .5.5h7a.5.5 0 0 0 .5-.5V7ZM7 8a1 1 0 0 0 0 2h2a1 1 0 1 0 0-2H7Z"
      clip-rule="evenodd"
    />
  </symbol>
  <symbol viewBox="0 0 24 24" id="icon-inbox">
    <path
      fill-rule="evenodd"
      d="M1.015 14.826A.988.988 0 0 0 1 15v5a3 3 0 0 0 3 3h16a3 3 0 0 0 3-3v-5a.988.988 0 0 0-.015-.174L21.249 3.544A3 3 0 0 0 18.284 1H5.716A3 3 0 0 0 2.75 3.544L1.015 14.826ZM20.835 14 19.271 3.848A1 1 0 0 0 18.285 3H5.716a1 1 0 0 0-.989.848L3.166 14h3.392a3 3 0 0 1 2.847 2.051l.088.265a1 1 0 0 0 .949.684h3.116a1 1 0 0 0 .95-.684l.088-.265A3 3 0 0 1 17.441 14h3.392ZM21 16v4a1 1 0 0 1-1 1H4a1 1 0 0 1-1-1v-4h3.558a1 1 0 0 1 .95.683l.087.265A3 3 0 0 0 10.442 19h3.116a3 3 0 0 0 2.846-2.052l.089-.265a1 1 0 0 1 .949-.684H21Z"
      clip-rule="evenodd"
    />
  </symbol>
  <symbol viewBox="0 0 16 16" id="icon-inbox-small">
    <path
      fill-rule="evenodd"
      d="M1.027 8.77A1.003 1.003 0 0 0 1 9v3.5A2.5 2.5 0 0 0 3.5 15h9a2.5 2.5 0 0 0 2.5-2.5V9c0-.08-.01-.156-.027-.23l-1.241-5.794A2.5 2.5 0 0 0 11.287 1H4.713a2.5 2.5 0 0 0-2.445 1.976L1.027 8.77ZM12.763 8l-.987-4.605A.5.5 0 0 0 11.287 3H4.713a.5.5 0 0 0-.49.395L3.238 8h1.439c.884 0 1.692.5 2.087 1.29l.263.526a.333.333 0 0 0 .298.184h1.352a.333.333 0 0 0 .298-.184l.263-.526A2.333 2.333 0 0 1 11.324 8h1.439ZM13 10v2.5a.5.5 0 0 1-.5.5h-9a.5.5 0 0 1-.5-.5V10h1.676c.126 0 .242.071.298.184l.263.526A2.333 2.333 0 0 0 7.324 12h1.352c.884 0 1.692-.5 2.087-1.29l.263-.526a.333.333 0 0 1 .298-.184H13Z"
      clip-rule="evenodd"
    />
  </symbol>
  <symbol viewBox="0 0 24 24" id="icon-folder">
    <path
      fill-rule="evenodd"
      d="M1 6a3 3 0 0 1 3-3h4.172a3 3 0 0 1 2.12.879L11.415 5H20a3 3 0 0 1 3 3v10a3 3 0 0 1-3 3H4a3 3 0 0 1-3-3V6Zm2 0a1 1 0 0 1 1-1h4.172a1 1 0 0 1 .707.293l1.414 1.414A1 1 0 0 0 11 7h9a1 1 0 0 1 1 1v2H3V6Zm18 6v6a1 1 0 0 1-1 1H4a1 1 0 0 1-1-1v-6h18Z"
      clip-rule="evenodd"
    />
  </symbol>
  <symbol viewBox="0 0 16 16" id="icon-folder-small">
    <path
      fill-rule="evenodd"
      d="M0 3.5A2.5 2.5 0 0 1 2.5 1h2.879a2.5 2.5 0 0 1 1.767.732L8.414 3H13.5A2.5 2.5 0 0 1 16 5.5v7a2.5 2.5 0 0 1-2.5 2.5h-11A2.5 2.5 0 0 1 0 12.5v-9Zm2 0a.5.5 0 0 1 .5-.5h2.879a.5.5 0 0 1 .353.146l1.56 1.561A1 1 0 0 0 8 5h5.5a.5.5 0 0 1 .5.5V7H2V3.5ZM14 9v3.5a.5.5 0 0 1-.5.5h-11a.5.5 0 0 1-.5-.5V9h12Z"
      clip-rule="evenodd"
    />
  </symbol>
  <symbol viewBox="0 0 24 24" id="icon-reply">
    <path
      d="M12 9c6.075 0 11 4.925 11 11v1a1 1 0 1 1-2 0v-1a9 9 0 0 0-9-9H3.414l5.293 5.293a1 1 0 1 1-1.414 1.414l-7-7a1 1 0 0 1 0-1.414l7-7a1 1 0 0 1 1.414 1.414L3.414 9H12Z"
    />
  </symbol>
  <symbol viewBox="0 0 16 16" id="icon-reply-small">
    <path
      d="M8 6a7 7 0 0 1 7 7 1 1 0 1 1-2 0 5 5 0 0 0-5-5H3.414l2.293 2.293a1 1 0 1 1-1.414 1.414l-4-4a1 1 0 0 1 0-1.414l4-4a1 1 0 0 1 1.414 1.414L3.414 6H8Z"
    />
  </symbol>
  <symbol viewBox="0 0 24 24" id="icon-live-eye">
    <path
      d="M2.895 13.447c.214-.428 1.152-2.076 2.736-3.602C7.214 8.321 9.354 7 12.001 7c2.646 0 4.785 1.321 6.368 2.845 1.584 1.526 2.523 3.174 2.737 3.602a1 1 0 1 0 1.789-.894c-.286-.572-1.348-2.424-3.139-4.148C17.964 6.679 15.354 5 12 5 8.647 5 6.036 6.679 4.244 8.405c-1.79 1.724-2.852 3.576-3.138 4.148a1 1 0 1 0 1.789.894Z"
    />
    <path
      fill-rule="evenodd"
      d="M17 14a5 5 0 1 1-10 0 5 5 0 0 1 10 0Zm-2 0a3 3 0 1 1-6 0 3 3 0 0 1 6 0Z"
      clip-rule="evenodd"
    />
  </symbol>
  <symbol viewBox="0 0 16 16" id="icon-live-eye-small">
    <path
      d="M1.895 9.447c.222-.444.862-1.586 1.913-2.603C4.854 5.83 6.243 5 8 5c1.757 0 3.146.831 4.192 1.844a10.136 10.136 0 0 1 1.914 2.603 1 1 0 0 0 1.789-.894 12.128 12.128 0 0 0-2.312-3.147C12.304 4.17 10.443 3 8 3S3.696 4.169 2.417 5.406A12.129 12.129 0 0 0 .106 8.553a1 1 0 1 0 1.789.894Z"
    />
    <path d="M8 13a3 3 0 1 0 0-6 3 3 0 0 0 0 6Z" />
  </symbol>
  <symbol viewBox="0 0 24 24" id="icon-return">
    <path
      d="M9.707 3.707a1 1 0 0 0-1.414-1.414l-5 5a.999.999 0 0 0 0 1.414l5 5a1 1 0 0 0 1.414-1.414L6.414 9H14c3.385 0 6 2.53 6 5.5S17.385 20 14 20H5a1 1 0 1 0 0 2h9c4.347 0 8-3.29 8-7.5S18.347 7 14 7H6.414l3.293-3.293Z"
    />
  </symbol>
  <symbol viewBox="0 0 16 16" id="icon-return-small">
    <path
      d="M6.707 2.707a1 1 0 0 0-1.414-1.414l-3 3a.997.997 0 0 0 0 1.414l3 3a1 1 0 1 0 1.414-1.414L5.414 6H9c2.31 0 4 1.663 4 3.5 0 1.836-1.69 3.5-4 3.5H4a1 1 0 1 0 0 2h5c3.212 0 6-2.366 6-5.5S12.212 4 9 4H5.414l1.293-1.293Z"
    />
  </symbol>
  <symbol viewBox="0 0 24 25" id="icon-undo">
    <path
      d="M5.07 8.38a8 8 0 1 1 .324 8.514c-.322-.47-.95-.663-1.445-.378-.46.266-.635.852-.345 1.299A9.992 9.992 0 0 0 12 22.38c5.523 0 10-4.477 10-10 0-5.522-4.477-10-10-10a9.993 9.993 0 0 0-8.51 4.746l-.595-1.193a1 1 0 0 0-1.79.895l1.491 2.98a1 1 0 0 0 .926.573H7a1 1 0 0 0 0-2H5.07Z"
    />
  </symbol>
  <symbol viewBox="0 0 24 24" id="icon-certified-recycle">
    <g clip-path="url(#clip0_67655_82585)">
      <path
        d="m19.71 9.378-3.752-6.999c-1.697-3.167-6.24-3.165-7.934.004L5.807 6.528a1 1 0 1 0 1.764.943l2.217-4.145c.941-1.76 3.465-1.762 4.408-.002l3.783 7.059-1.204-.344a1 1 0 1 0-.55 1.923l3.481.994.019.006a1 1 0 0 0 1.236-.687l.003-.009.998-3.491a1 1 0 0 0-1.923-.55l-.33 1.153ZM22.124 15a1 1 0 0 0-.881 1.472l.453.847c.893 1.665-.314 3.68-2.203 3.68H4.509c-1.888 0-3.095-2.013-2.205-3.678l1.93-3.609.303 1.063a1 1 0 0 0 1.923-.55l-.992-3.473a1 1 0 0 0-1.243-.713l-3.5 1a1 1 0 1 0 .549 1.923l1.29-.369-2.023 3.785C-1.062 19.375 1.11 23 4.509 23h14.984c3.4 0 5.573-3.628 3.966-6.626l-.454-.846a1 1 0 0 0-.881-.528Z"
      />
    </g>
    <defs>
      <clipPath id="clip0_67655_82585"><path d="M0 0h24v24H0z" /></clipPath>
    </defs>
  </symbol>
  <symbol viewBox="0 0 16 16" id="icon-certified-recycle-small">
    <path
      d="M12.845 5.551a.98.98 0 0 0-.02-.036l-2.202-3.969C9.48-.513 6.52-.513 5.377 1.546L4.285 3.515a1 1 0 0 0 1.748.97l1.093-1.968a1 1 0 0 1 1.748 0l2.172 3.913a1 1 0 0 0-.365 1.959l2.04.571a.997.997 0 0 0 1.225-.636l.73-1.977a1 1 0 0 0-1.831-.796ZM14.726 10a1 1 0 0 0-.874 1.485l.016.03A1 1 0 0 1 12.994 13H3.006a1 1 0 0 1-.874-1.485l1.134-2.043a1 1 0 0 0 1.833-.78l-.646-1.993a1 1 0 0 0-1.19-.67l-2.067.502A1 1 0 0 0 1.518 8.5L.383 10.545C-.727 12.545.72 15 3.006 15h9.988c2.287 0 3.733-2.456 2.623-4.456l-.016-.03a1 1 0 0 0-.875-.514Z"
    />
  </symbol>
  <symbol viewBox="0 0 20 20" id="icon-selling-medium">
    <path d="M8 6.5a1.5 1.5 0 1 1-3 0 1.5 1.5 0 0 1 3 0Z" />
    <path
      fill-rule="evenodd"
      d="M5 1h5a.997.997 0 0 1 .707.293l9 9a1 1 0 0 1 0 1.414l-8 8a1.002 1.002 0 0 1-1.414 0l-9-9A.999.999 0 0 1 1 10V5a.997.997 0 0 1 .293-.707l3-3A.997.997 0 0 1 5 1ZM3 5.414v4.172l8 8L17.586 11l-8-8H5.414L3 5.414Z"
      clip-rule="evenodd"
    />
  </symbol>
  <symbol viewBox="0 0 16 16" id="icon-sort-small">
    <path
      d="M4 3.001a.75.75 0 0 1 .75.75v6.544l.94-1.046a.75.75 0 1 1 1.116 1.003L4.569 12.74a.75.75 0 0 1-1.137 0l-2.24-2.487a.75.75 0 1 1 1.115-1.004l.943 1.047V3.752a.75.75 0 0 1 .75-.75Zm6.308 3.755a.75.75 0 1 1-1.116-1.002l2.25-2.505a.75.75 0 0 1 1.18.081l2.184 2.418a.75.75 0 1 1-1.112 1.006L12.75 5.71v6.541a.75.75 0 0 1-1.5 0V5.707l-.942 1.05Z"
    />
  </symbol>
  <symbol viewBox="0 0 16 16" id="icon-sort-up-small">
    <path
      d="M8.253 3.054a.71.71 0 0 0-.776.157l-4.27 4.287A.717.717 0 0 0 3.21 8.51a.71.71 0 0 0 1.007-.003l3.054-3.073v6.853a.713.713 0 1 0 1.423 0V5.433l3.054 3.073a.71.71 0 0 0 1.232-.298.716.716 0 0 0-.229-.71l-4.27-4.287a.712.712 0 0 0-.228-.157Z"
    />
  </symbol>
  <symbol viewBox="0 0 16 16" id="icon-sort-down-small">
    <path
      d="M7.747 12.946a.71.71 0 0 0 .776-.157l4.27-4.287a.717.717 0 0 0-.003-1.011.71.71 0 0 0-1.007.003l-3.054 3.073V3.714A.713.713 0 0 0 8.017 3a.713.713 0 0 0-.711.714v6.853L4.252 7.494a.71.71 0 0 0-1.232.298.716.716 0 0 0 .229.71l4.27 4.287c.065.067.143.12.228.157Z"
    />
  </symbol>
  <symbol viewBox="0 0 16 16" id="icon-flag-small">
    <path
      fill-rule="evenodd"
      d="M13.8 1.4a1 1 0 0 1-.241 1.431L10.667 5l2.928 2.196.016.013a.995.995 0 0 1 .378.644.997.997 0 0 1-.891 1.142 1.007 1.007 0 0 1-.114.005H5v5a1 1 0 1 1-2 0V2.001a1 1 0 0 1 1.045-1h8.899a.999.999 0 0 1 .856.399Z"
      clip-rule="evenodd"
    />
  </symbol>
</svg>
