<?xml version="1.0" encoding="utf-8"?>
<svg xmlns="http://www.w3.org/2000/svg">
  <symbol id="icon-bag" viewBox="0 0 24 24">
    <path
      d="M17.9959 6.775C17.8776 3.5657 15.2384 1 12 1 8.6863 1 6 3.6863 6 7v2H4a1 1 0 00-.9864.8356l-2 12A1 1 0 002 23h20a.9998.9998 0 00.9864-1.1644l-2-12A1 1 0 0020 9h-2V7l-.0041-.225zM16 11v2l.0067.1166c.0578.4974.4805.8834.9933.8834.5523 0 1-.4477 1-1v-2h1.1529l1.6666 10H3.1805L4.847 11H6v2l.0067.1166C6.0645 13.614 6.4872 14 7 14c.5523 0 1-.4477 1-1v-2h8zm0-2H8V7l.0049-.1996C8.1089 4.684 9.8578 3 12 3c2.2091 0 4 1.7909 4 4v2z"
    />
  </symbol>
  <symbol id="icon-large-case" viewBox="0 0 24 24">
    <path
      d="M7.25 1C6.5596 1 6 1.5596 6 2.25V4H4.25C3.5596 4 3 4.5596 3 5.25v15.5c0 .6904.5596 1.25 1.25 1.25H5c0 .5523.4477 1 1 1s1-.4477 1-1h10c0 .5523.4477 1 1 1s1-.4477 1-1h.75c.6904 0 1.25-.5596 1.25-1.25V5.25C21 4.5596 20.4404 4 19.75 4H18V2.25C18 1.5596 17.4404 1 16.75 1h-9.5zM19 20H5v-2h14v2zM16 4H8V3h8v1zM5 8V6h14v2H5zm0 2h14v6H5v-6z"
    />
  </symbol>
  <symbol viewBox="0 0 22 16" id="icon-large-box">
    <path
      d="M22 5.015a.996.996 0 00-.2-.615l-3-4a.996.996 0 00-.816-.4H4a.999.999 0 00-.812.414L.21 4.387A.995.995 0 000 5V15a1 1 0 001 1h20a1 1 0 001-1V5.015zM20 14h-8V6h8v8zm-10 0H2V6h8v8zm2-10V2h5.5L19 4h-7zm-2-2v2H3l1.5-2H10z"
    />
  </symbol>
  <symbol viewBox="0 0 18 16" id="icon-medium-box">
    <path
      d="M17.796 4.395L14.805.406A.994.994 0 0013.984 0H4a.998.998 0 00-.809.412L.208 4.39A.997.997 0 000 5.01V15A1 1 0 001 16h16a1 1 0 001-1V5.01a.999.999 0 00-.204-.615zM16 14h-6V6h6v8zm-8 0H2V6h6v8zm2-10V2h3.5L15 4h-5zM8 2v2H3l1.5-2H8z"
    />
  </symbol>
  <symbol viewBox="0 0 22 20" id="icon-package">
    <path
      fill-rule="evenodd"
      d="M22 5c-.005-.184-.054-.407-.16-.56l-3-4A.999.999 0 0018 0H4a1 1 0 00-.8.4l-3 4A1.37 1.37 0 000 5v14a1 1 0 001 1h20a1 1 0 001-1V5zm-3-1h-7V2h5.5L19 4zm-9-2H4.5L3 4h7V2zM2 6h8v12H2V6zm18 0h-8v12h8V6z"
    />
  </symbol>
  <symbol viewBox="0 0 22 17" id="icon-truck">
    <path
      d="M20 12h-1.766c-.015-.018-.036-.031-.052-.048a2.942 2.942 0 00-.28-.254c-.056-.047-.108-.096-.168-.139a3.092 3.092 0 00-.343-.203c-.061-.031-.118-.069-.18-.097a3.092 3.092 0 00-.414-.138c-.058-.017-.11-.04-.169-.053a2.938 2.938 0 00-1.21-.009c-.072.014-.139.041-.209.06-.113.031-.227.06-.333.103-.081.033-.155.077-.232.116-.089.045-.178.088-.261.141-.077.05-.148.108-.219.165-.054.042-.113.077-.164.122V5h3.562L20 8.612V12zm-4 3a1 1 0 01-1-1c0-.173.055-.327.132-.469a.978.978 0 01.701-.497c.057-.01.107-.034.167-.034a1 1 0 110 2zm-8-3h-.766c-.015-.017-.035-.029-.05-.045a2.818 2.818 0 00-.286-.26c-.054-.046-.105-.094-.164-.135a2.81 2.81 0 00-.343-.203c-.061-.032-.118-.07-.18-.098a3.065 3.065 0 00-.412-.138c-.058-.016-.112-.04-.171-.053A3.02 3.02 0 005 11a3.02 3.02 0 00-.628.068c-.06.013-.113.037-.171.053-.14.039-.28.08-.412.138-.062.028-.119.066-.18.098a2.81 2.81 0 00-.343.203c-.059.041-.11.09-.165.135a3.04 3.04 0 00-.285.259c-.015.017-.035.029-.05.046H2V2h10v10H8zm-3 3a1 1 0 110-2 1 1 0 110 2zm16.829-7.253L18.922 3.44a1 1 0 00-.828-.44H14V1a1 1 0 00-1-1H1a1 1 0 00-1 1v12a1 1 0 001 1h1a3 3 0 106 0h5a3 3 0 106 0h2a1 1 0 001-1V8.306a1 1 0 00-.171-.559z"
    />
  </symbol>
  <symbol viewBox="0 0 22 17" id="icon-fast-n-free">
    <path
      d="M20 12h-6V5h3.5L20 8.333V12zm1.8-4.6l-3-4A1 1 0 0018 3h-4V1a1 1 0 00-1-1H1a1 1 0 100 2h11v10H1a1 1 0 100 2h20a1 1 0 001-1V8a1 1 0 00-.2-.6zM6 14a1 1 0 01-2 0H2c0 1.654 1.346 3 3 3s3-1.346 3-3H6zm11 0a1 1 0 01-2 0h-2c0 1.654 1.346 3 3 3s3-1.346 3-3h-2zM1 6a1 1 0 110-2h8a1 1 0 110 2H1zm0 4a1 1 0 110-2h6a1 1 0 110 2H1z"
    />
  </symbol>
  <symbol viewBox="0 0 24 24" id="icon-small-letter">
    <path
      fill-rule="evenodd"
      d="M5.6 5A2.6 2.6 0 0 0 3 7.6v8.8A2.6 2.6 0 0 0 5.6 19h12.8a2.6 2.6 0 0 0 2.6-2.6V7.6A2.6 2.6 0 0 0 18.4 5H5.6Zm13.393 2.506A.6.6 0 0 0 18.4 7H5.6a.6.6 0 0 0-.592.506l6.632 4.974a.6.6 0 0 0 .72 0l6.633-4.974ZM5 10v6.4a.6.6 0 0 0 .6.6h12.8a.6.6 0 0 0 .6-.6V10l-5.44 4.08a2.6 2.6 0 0 1-3.12 0L5 10Z"
      clip-rule="evenodd"
    />
  </symbol>
  <symbol id="icon-small-box" viewBox="0 0 18 12">
    <path
      d="M17.796 4.395L14.805.406A.994.994 0 0013.984 0H4a.998.998 0 00-.809.412L.208 4.39A.997.997 0 000 5.01V11a1 1 0 001 1h16a1 1 0 001-1V5.01a.999.999 0 00-.204-.615zM16 10h-6V6h6v4zm-8 0H2V6h6v4zm2-6V2h3.5L15 4h-5zM8 2v2H3l1.5-2H8z"
    />
  </symbol>

  <symbol id="icon-envelope" viewBox="0 0 24 24">
    <path
      d="M5.25 2C4.55964 2 4 2.55964 4 3.25v17.5c0 .6904.55964 1.25 1.25 1.25h13.5c.6904 0 1.25-.5596 1.25-1.25V3.25C20 2.55964 19.4404 2 18.75 2H5.25zM6 5.34061V4h12v1.3406l-6 2.57143-6-2.57142zm0 2.17593l5.5076 2.3604c.3144.13476.6704.13476.9848 0L18 7.51654V20H6V7.51654z"
    />
  </symbol>
  <symbol id="icon-shoe-box" viewBox="0 0 24 24">
    <path
      d="M2.25 4C1.56 4 1 4.56 1 5.25v3.5c0 .605.43 1.11 1 1.225v8.775c0 .69.56 1.25 1.25 1.25h17.5c.69 0 1.25-.56 1.25-1.25V9.975c.57-.116 1-.62 1-1.225v-3.5C23 4.56 22.44 4 21.75 4H2.25zM20 10v8H4v-8h16zm1-2H3V6h18v2z"
    />
  </symbol>
  <symbol id="icon-suitcase" viewBox="0 0 24 24">
    <path
      d="M7 2a1 1 0 011-1h8a1 1 0 011 1v3h5a1 1 0 011 1v14a1 1 0 01-1 1h-3a1 1 0 11-2 0H7a1 1 0 11-2 0H2a1 1 0 01-1-1V6a1 1 0 011-1h5V2zm2 3h6V3H9v2zm8 2H7v12h10V7zm2 0v12h2V7h-2zM5 7H3v12h2V7z"
    />
  </symbol>
  <symbol viewBox="0 0 18 13" id="icon-fast-n-free-small">
    <path
      d="M16.71 5.29l-2-2A1 1 0 0014 3h-2V1a1 1 0 00-1-1H2a1 1 0 100 2h8v7H2a1 1 0 100 2 2 2 0 104 0h4a2 2 0 104 0h2a1 1 0 001-1V6a1 1 0 00-.29-.71zM13.59 5L15 6.41V9h-3V5h1.59zM6 4a1 1 0 110 2H2a1 1 0 110-2z"
    />
  </symbol>
  <symbol viewBox="0 0 16 13" id="icon-truck-small">
    <path
      d="M15.71 5.29l-2-2A1 1 0 0013 3h-2V1a1 1 0 00-1-1H1a1 1 0 00-1 1v9a1 1 0 001 1 2 2 0 104 0h4a2 2 0 104 0h2a1 1 0 001-1V6a1 1 0 00-.29-.71zM2 9V2h7v7H2zm12 0h-3V5h1.59L14 6.41V9z"
    />
  </symbol>
  <symbol id="icon-small-case" viewBox="0 0 24 24">
    <path
      d="M7 3.25C7 2.5596 7.5596 2 8.25 2h7.5c.6904 0 1.25.5596 1.25 1.25V5h.75c.6904 0 1.25.5596 1.25 1.25v12.5c0 .6047-.4294 1.1092-1 1.225V20c0 .5523-.4477 1-1 1s-1-.4477-1-1H8c0 .5523-.4477 1-1 1s-1-.4477-1-1v-.025c-.5706-.1158-1-.6203-1-1.225V6.25C5 5.5596 5.5596 5 6.25 5H7V3.25zM17 18v-5H7v5h10zM9 5h6V4H9v1zM7 7v4h10V7H7z"
    />
  </symbol>
</svg>
